<svg width="214" height="138" viewBox="0 0 214 138" fill="none" xmlns="http://www.w3.org/2000/svg">
<path d="M106.5 28.0003C88.0002 56.5004 83.5002 33.0004 27.5001 39.5004C12.5222 41.2389 6.50415 55.3416 3.00205 62.0003C-3.97083 75.2582 6.95887 94.6837 16.5001 106C38.0003 131.5 60.3335 135.332 75.5002 128C86.5002 120.667 117.4 107.5 153 113.5C197.5 121.001 225 64.4998 208 19.0001C196.45 -11.9126 125 -0.499651 106.5 28.0003Z" fill="#E9EFF8"/>
<path d="M41.4937 116.643C41.4937 116.824 41.5389 116.959 41.6292 117.095C41.9003 117.411 42.3068 117.23 42.6682 116.959C42.8037 116.869 42.9844 116.779 43.165 116.688C44.9719 115.649 48.7662 113.3 52.0185 113.12C52.1992 113.12 52.3347 113.075 52.4702 113.075C54.2771 113.526 56.0839 114.294 56.0839 114.294L55.8129 114.475C56.897 115.152 57.5294 115.875 57.5294 115.875C57.5294 115.875 62.1819 112.623 61.2334 111.945C60.2848 111.268 59.1555 109.371 58.4779 107.925C58.2521 107.428 58.1166 106.841 57.8907 106.344C57.7552 105.983 57.5294 105.712 57.2132 105.486C56.4453 104.944 55.4063 104.853 54.5029 105.215C54.0512 105.396 53.6898 105.667 53.2833 105.938C52.0185 106.796 50.6634 107.564 49.2179 108.151C47.8176 108.693 46.327 109.054 45.017 109.822C42.7585 111.132 41.313 113.933 41.4937 116.643Z" fill="#40201A"/>
<path d="M41.4937 116.643C41.4937 116.824 41.5389 116.959 41.6292 117.095C41.9002 117.411 42.3068 117.23 42.6681 116.959C42.8037 116.869 42.9843 116.779 43.165 116.688C43.2102 113.888 44.9719 111.855 47.0045 110.861C49.2631 109.732 52.7412 109.009 53.7802 107.97C54.7288 107.022 56.3549 106.389 57.9359 106.344C57.8004 105.983 57.5745 105.712 57.2583 105.486C56.4904 104.944 55.4515 104.853 54.5481 105.215C54.0964 105.396 53.735 105.667 53.3285 105.938C52.0637 106.796 50.7086 107.564 49.2631 108.151C47.8628 108.693 46.3722 109.054 45.0622 109.822C42.7585 111.132 41.313 113.933 41.4937 116.643Z" fill="#FF8F40"/>
<path d="M61.4592 107.564C61.414 107.745 61.414 107.88 61.4592 108.061C61.6399 108.422 62.0916 108.377 62.4981 108.151C62.6788 108.106 62.8595 108.061 63.0853 107.971C65.118 107.383 69.3189 105.983 72.526 106.57C72.7067 106.615 72.8422 106.615 72.9777 106.615C74.649 107.474 76.1849 108.693 76.1849 108.693L75.9138 108.784C76.8172 109.732 77.269 110.545 77.269 110.545C77.269 110.545 82.5539 108.513 81.786 107.609C81.0181 106.706 80.3857 104.628 80.1147 103.047C80.0244 102.505 80.0244 101.918 79.934 101.376C79.8889 101.014 79.7533 100.653 79.4823 100.382C78.8499 99.6591 77.8562 99.3429 76.9076 99.4784C76.4559 99.5687 76.0042 99.7494 75.5525 99.8849C74.107 100.427 72.6164 100.834 71.0806 101.059C69.5899 101.24 68.0541 101.24 66.6086 101.647C63.9887 102.505 61.9109 104.854 61.4592 107.564Z" fill="#40201A"/>
<path d="M61.4592 107.564C61.414 107.745 61.414 107.88 61.4592 108.061C61.6399 108.422 62.0916 108.377 62.4981 108.151C62.6788 108.106 62.8595 108.061 63.0853 107.971C63.8081 105.26 65.9763 103.725 68.2348 103.228C70.7192 102.686 74.2425 102.821 75.5073 102.008C76.6817 101.331 78.3982 101.105 79.934 101.421C79.8889 101.06 79.7533 100.698 79.4823 100.427C78.8499 99.7045 77.8562 99.3883 76.9076 99.5238C76.4559 99.6142 76.0042 99.7948 75.5525 99.9303C74.107 100.472 72.6164 100.879 71.0806 101.105C69.5899 101.285 68.0541 101.285 66.6086 101.692C63.9887 102.505 61.9109 104.854 61.4592 107.564Z" fill="#FF8F40"/>
<path d="M96.6923 88.5469C100.487 97.2197 102.519 106.66 102.519 116.101C102.519 118.856 102.384 121.702 101.571 124.367C101.255 125.361 100.848 126.4 100.125 127.123C99.3122 127.936 98.1829 128.342 97.0988 128.704C95.834 129.155 94.5692 129.562 93.3045 130.014C93.0334 130.104 92.7172 130.194 92.4462 130.104C92.2655 130.059 92.13 129.878 91.9945 129.743C88.4712 126.084 85.2189 122.244 82.2376 118.134C81.9214 117.682 81.56 117.23 81.4697 116.688C81.3342 116.146 81.4697 115.559 81.6052 115.017C82.6893 109.958 83.4572 104.763 85.4899 99.9751C87.5226 95.187 91.0007 90.7602 95.8792 88.9986" fill="#4066CE"/>
<path d="M91.543 110.952C91.6333 111.268 92.7174 117.727 92.7174 117.727C92.7174 117.727 92.1753 113.481 89.4199 113.165" fill="#32416D"/>
<path d="M94.5694 99.8395C93.8467 111.674 88.0648 123.148 78.9403 130.736C77.7207 131.775 76.1849 132.769 74.6491 132.317C72.6164 131.73 72.0744 129.11 72.0744 126.987C72.0292 117.727 74.4232 108.512 78.4886 100.156C79.4824 98.1682 80.702 96.0451 82.825 95.3676C84.8577 94.7352 87.0259 95.6386 88.9682 96.542C91.0009 97.5358 92.9884 98.5295 94.976 99.5685" fill="#476CD2"/>
<path d="M73.1583 120.166C69.9963 117.004 66.7892 113.842 63.6272 110.68C63.4014 110.455 63.1304 110.184 62.8142 110.093C62.4528 110.003 62.0463 110.138 61.7301 110.229C58.1164 111.494 54.3221 112.849 51.7021 115.604C58.3874 120.934 65.0275 126.4 72.2549 131.007C72.8873 131.414 73.881 132.362 75.1458 132.362C76.4557 132.408 78.2174 130.601 78.2174 130.601L73.1583 120.166Z" fill="#476CD2"/>
<path d="M72.481 119.308C72.4358 119.308 72.4358 119.308 72.481 119.308C72.3906 119.353 72.3906 119.399 72.3906 119.444C72.5713 121.025 73.1585 122.561 73.8813 124.006C74.604 125.497 75.4622 126.942 76.4108 128.297C76.5012 128.388 76.6819 128.297 76.5915 128.207C75.8236 126.807 74.9654 125.451 74.2426 124.006C73.5199 122.561 73.023 121.025 72.6617 119.489C72.6617 119.444 72.6165 119.399 72.5713 119.399C72.5261 119.263 72.481 119.263 72.481 119.308Z" fill="#424F87"/>
<path d="M72.2098 119.805C71.7581 120.754 71.5774 121.792 71.3967 122.786C71.2612 123.78 71.1257 124.819 71.2612 125.813C71.2612 125.948 71.4871 125.903 71.5322 125.767C71.6677 124.774 71.6677 123.78 71.8484 122.741C71.9839 121.747 72.255 120.799 72.4357 119.85C72.4357 119.76 72.3001 119.669 72.2098 119.805Z" fill="#424F87"/>
<path d="M63.6726 111.991C63.3112 111.945 62.9047 112.126 62.5433 112.216C62.1819 112.307 61.8206 112.442 61.4592 112.578C60.7365 112.894 60.0589 113.255 59.4265 113.707C58.8845 114.114 58.3876 114.61 57.9359 115.152C57.71 115.424 57.5294 115.74 57.3487 116.056C57.2132 116.327 56.9873 116.733 56.9873 117.05C56.9873 117.185 57.168 117.276 57.2583 117.185C57.439 116.959 57.5294 116.598 57.6649 116.327C57.8004 116.011 57.9811 115.74 58.2069 115.469C58.6135 114.927 59.1103 114.43 59.6976 114.023C60.2848 113.572 60.9172 113.255 61.5947 112.939C61.9561 112.804 62.2723 112.668 62.6337 112.533C62.995 112.397 63.3564 112.352 63.6726 112.171C63.8081 112.126 63.7629 111.991 63.6726 111.991Z" fill="#424F87"/>
<path d="M84.5864 98.846C82.9603 102.008 82.3731 105.622 81.1534 108.964C79.979 112.217 78.398 115.378 76.5009 118.315C75.9588 119.128 75.3716 119.941 74.8295 120.709C74.2875 121.477 73.8358 122.335 73.9261 123.283C73.9713 123.735 74.6489 123.735 74.6489 123.283C74.6037 122.47 75.0102 121.748 75.4619 121.07C75.9588 120.347 76.4557 119.67 76.9526 118.947C77.9012 117.502 78.7594 116.056 79.5273 114.52C80.2952 112.984 80.9728 111.403 81.56 109.777C82.1472 108.151 82.5989 106.48 83.0506 104.809C83.5927 102.866 84.1347 100.879 84.9026 99.0267C84.9478 98.8008 84.6768 98.6201 84.5864 98.846Z" fill="#424F87"/>
<path d="M74.4235 122.922C73.9266 122.741 73.3394 122.741 72.7973 122.877C72.5263 122.967 72.3004 123.058 72.0746 123.193C71.9391 123.283 71.8487 123.374 71.7132 123.464C71.668 123.509 71.6229 123.554 71.5777 123.645C71.5325 123.735 71.5777 123.78 71.5777 123.871C71.5777 123.916 71.6229 123.961 71.668 123.961C71.7132 123.961 71.7584 124.006 71.8035 123.961C71.8487 123.961 71.9391 123.916 71.9842 123.871C72.0746 123.825 72.1649 123.735 72.2553 123.69C72.4359 123.554 72.6618 123.464 72.8876 123.419C73.3394 123.283 73.7911 123.238 74.2428 123.329C74.559 123.329 74.6493 123.012 74.4235 122.922Z" fill="#424F87"/>
<path d="M71.7579 123.509C71.3514 123.148 70.8093 122.877 70.3576 122.606C69.8608 122.335 69.4091 122.018 68.9122 121.747C68.5056 121.521 68.1443 121.296 67.8281 120.934C67.4667 120.528 67.4667 120.076 67.4215 119.579C67.286 118.676 66.6085 118.043 65.9309 117.546C65.1178 116.914 64.3048 116.282 63.582 115.559C62.7238 114.701 61.9559 113.797 61.188 112.894C60.9621 112.623 60.5104 112.984 60.6911 113.255C61.9559 114.972 63.5369 116.462 65.2082 117.727C65.9309 118.314 66.7891 118.856 66.8795 119.85C66.9247 120.347 67.015 120.754 67.286 121.16C67.5571 121.521 67.8732 121.792 68.2798 122.018C68.7767 122.335 69.3187 122.606 69.8608 122.922C70.4028 123.238 70.99 123.644 71.6224 123.825C71.7128 123.78 71.8483 123.599 71.7579 123.509Z" fill="#424F87"/>
<path d="M61.1881 113.436C61.1881 113.346 61.1881 113.255 61.1429 113.12C61.0978 113.029 61.0978 112.939 61.0526 112.849C60.9623 112.668 60.8719 112.487 60.7364 112.352C60.6009 112.171 60.4654 112.036 60.3299 111.9C60.2395 111.81 60.1492 111.765 60.0588 111.719C59.9685 111.674 59.833 111.584 59.7426 111.584C59.6071 111.584 59.4716 111.765 59.562 111.9C59.6071 111.991 59.7426 112.036 59.833 112.126C59.9233 112.171 59.9685 112.216 60.0588 112.262C60.1944 112.352 60.3299 112.487 60.4202 112.623C60.5557 112.758 60.6461 112.894 60.7364 113.029C60.7816 113.12 60.8267 113.165 60.8719 113.255C60.9171 113.346 60.9623 113.391 61.0074 113.481C61.0526 113.571 61.2333 113.526 61.1881 113.436Z" fill="#424F87"/>
<path d="M92.1751 59.5926C97.8214 70.027 100.893 81.6811 103.92 93.1545C104.01 93.5158 104.1 93.8772 104.01 94.1934C103.92 94.5999 103.558 94.9161 103.242 95.1872C100.983 97.2198 98.5894 99.2525 95.7436 100.246C88.968 102.595 81.5148 98.3943 74.423 99.5236C75.8233 94.8258 77.1332 89.5408 74.8747 85.1592C74.0616 83.6234 72.842 82.2683 72.4355 80.597C72.1644 79.5581 72.2548 78.4288 72.0289 77.3899C71.3514 74.1827 68.0087 71.9242 67.8732 68.6719C67.7377 66.2327 69.5897 64.0193 71.8031 63.0707C74.0164 62.1221 76.5912 62.2125 78.9852 62.619C81.6051 63.0707 84.5864 63.8838 86.7546 62.348C88.1549 61.3542 89.0583 59.5474 90.7748 59.2764" fill="#15234A"/>
<path d="M97.4602 63.116C97.3698 63.116 97.415 63.2967 97.5054 63.2967C97.5957 63.2967 97.6409 63.2063 97.686 63.116C99.538 59.8185 101.164 56.3404 102.203 52.6815C102.474 51.7781 102.7 50.8747 102.836 49.9713C102.971 49.0679 102.971 48.1193 103.016 47.2159C103.107 43.015 103.197 38.8141 103.287 34.568C102.248 34.3874 101.209 34.3874 100.17 34.5229C99.8091 37.5041 99.4025 40.4854 99.0412 43.5119C98.9056 44.4153 98.8153 45.3187 98.4991 46.1769C98.2281 46.8997 97.7764 47.5772 97.3698 48.2548C95.1565 51.6878 92.9883 55.1208 90.7749 58.5086" fill="#FEBA8D"/>
<path d="M61.8659 60.2699C58.7491 58.689 55.4516 57.5145 52.0186 56.7466C51.1152 56.5659 50.257 56.3852 49.3987 56.0691C47.8178 55.527 46.4626 54.5332 45.0623 53.5847C42.3973 51.7778 39.5967 50.1517 36.7057 48.661C35.4861 48.0738 33.9503 47.5318 32.9566 48.4352C32.6855 48.7062 32.4597 49.1127 32.5952 49.4741C32.6404 49.6548 32.7759 49.7903 32.8662 49.9258C37.6092 55.5722 45.0172 58.0566 51.2959 61.8961C52.6059 62.7092 53.8706 63.5674 55.1806 64.3805C58.3877 66.3228 61.911 67.7231 65.5247 68.6265" fill="#FEBA8D"/>
<path d="M102.113 37.278C103.288 36.3746 104.146 35.1098 104.552 33.6643C104.643 33.303 104.733 32.8964 104.643 32.5351C104.552 31.993 104.236 31.5413 104.055 31.0444C103.649 30.0959 103.559 29.0118 103.875 28.018C104.101 27.3404 104.462 26.6629 104.417 25.9853C103.423 26.166 102.565 27.0242 102.384 28.0632C101.436 26.8436 102.836 25.0367 102.429 23.5461C101.978 23.5461 101.752 24.043 101.616 24.4947C101.3 25.7143 101.074 26.9791 100.939 28.2438C100.532 26.7532 100.442 25.1722 100.668 23.6816C100.713 23.2751 100.622 22.6427 100.216 22.6878C99.99 22.733 99.8997 22.9589 99.8094 23.1395C99.2221 24.6302 99.2673 26.2563 99.2673 27.7921C98.9511 26.3918 98.5446 25.0367 97.9574 23.6816C97.4605 24.6302 97.4605 25.8046 97.5508 26.8887C97.9122 30.5927 99.3577 34.1612 101.616 37.1425" fill="#FEBA8D"/>
<path d="M86.9355 61.3089L89.8265 75.2666C91.0461 75.1763 92.085 74.318 92.9884 73.505C94.4339 72.195 95.7439 70.7947 97.0086 69.3041C97.9121 68.2652 98.7703 67.1811 99.5834 66.0518C99.9899 65.4646 100.396 64.8773 100.803 64.2901C100.939 64.0643 101.119 63.7933 101.074 63.5222C101.074 63.3415 100.938 63.1609 100.848 63.0253C98.5896 59.8182 96.3311 56.6111 94.0725 53.4491C93.937 53.2685 93.8467 53.1329 93.6208 53.0426C93.3046 52.9523 93.0336 53.2685 92.8078 53.5395C90.8654 56.1594 88.8779 58.7341 86.9355 61.3089Z" fill="#15234A"/>
<path d="M56.2646 65.3741C58.2522 68.9426 61.4593 71.7432 65.0278 73.6855C68.5963 75.6278 72.5713 76.8023 76.5463 77.6605L89.6459 71.3818L92.7175 66.4582L91.5882 61.9411C91.5882 61.9411 88.7425 60.1794 87.6584 60.4505C87.3422 60.5408 86.6646 60.7666 85.8515 61.0828C83.8188 61.8507 80.8827 63.0252 80.3407 62.8445C79.618 62.6187 77.2239 62.3025 75.4622 62.0766C75.2816 62.0766 75.1009 62.0314 74.9202 62.0314C71.2162 61.6701 67.467 61.8507 63.9889 60.4505C62.4982 59.8632 60.9624 59.0953 59.3814 59.3212C60.0138 60.4505 60.601 61.5797 61.2334 62.709C61.4593 63.1155 61.6851 63.6576 61.5045 64.0641C61.3238 64.4707 60.8721 64.6062 60.4204 64.7417C59.1104 65.103 57.6649 65.3289 56.2646 65.3741Z" fill="#15234A"/>
<path d="M74.6942 65.2839C75.1459 65.7808 75.8235 65.9163 76.501 66.0066C77.6755 66.1421 78.8951 66.0518 80.0244 66.5035C80.7471 66.8197 81.3343 67.3166 82.0571 67.6328C83.3218 68.1748 84.8125 68.0393 86.0773 67.4973C86.3483 67.4069 86.6193 67.2714 86.8 67.0456C87.2065 66.5938 87.2517 65.9163 87.0258 65.3291C86.8452 64.7418 86.4386 64.2901 86.1224 63.7481C85.8062 63.2512 85.49 62.664 85.49 62.0768C85.49 61.7154 85.6707 61.354 85.8966 61.083C83.8639 61.8509 80.9278 63.0254 80.3857 62.8447C79.663 62.6188 77.2689 62.3026 75.5073 62.0768V62.1219C75.4169 62.6188 74.8749 62.935 74.6039 63.3415C74.1973 63.9739 74.2425 64.787 74.6942 65.2839Z" fill="#15234A"/>
<path d="M79.0308 62.0767L81.5152 66.7293C81.5152 66.7293 84.903 64.6515 85.1288 62.6188C85.3547 60.5409 79.0308 62.0767 79.0308 62.0767Z" fill="#FAB78A"/>
<path d="M88.0649 49.7906C88.7876 52.6815 88.8328 55.7531 88.2004 58.6892C87.839 60.4509 87.0711 62.348 85.4901 63.2515C84.6319 63.7483 83.6381 63.8839 82.6444 63.8839C81.1086 63.8839 79.4824 63.4321 78.3983 62.348C77.6304 61.5801 77.2239 60.5412 76.9077 59.5023C76.4108 57.6051 76.3205 55.6628 76.3205 53.7204C76.2753 51.7329 76.4108 49.5195 77.9014 48.2096C78.9855 47.3062 80.5213 47.1255 81.9216 47.1255C83.3219 47.1255 84.7674 47.3062 85.987 47.9837C87.2066 48.6613 88.2004 49.9261 88.2004 51.3264" fill="#FEBA8D"/>
<path d="M86.5292 50.5133C85.0837 52.4104 82.6445 53.4945 80.2505 53.2687C80.115 53.2687 79.9343 53.2235 79.8439 53.1332C79.5277 52.8621 79.7536 52.3201 80.0698 52.0942C80.386 51.8232 80.8377 51.6425 80.9732 51.2812C78.4436 52.0942 75.6882 52.1846 73.0683 51.507C72.0294 51.236 70.9905 50.8295 70.3129 50.0164C70.0419 49.7002 69.8612 49.2485 70.1322 48.9323C70.2677 48.7516 70.5387 48.7516 70.7646 48.7064C71.397 48.6613 71.9842 48.5709 72.6166 48.5258C70.5839 47.8934 69.3643 45.3186 70.2226 43.3763C71.2163 44.1442 72.3908 44.7766 73.6104 45.1379C73.2038 44.5507 73.1135 43.6925 73.6555 43.2408C74.1976 42.7891 75.0558 43.1053 75.643 43.5118C76.2303 43.9183 76.8627 44.4604 77.5402 44.37C77.4047 44.0087 77.224 43.6021 77.0885 43.2408C77.0433 43.1504 76.9982 43.0601 77.0433 42.9697C77.0885 42.5632 77.6757 42.7439 78.0371 42.9246C79.3471 43.828 80.9732 44.3249 82.5542 44.37C83.1866 44.37 83.819 44.3249 84.4514 44.5507C85.3096 44.8217 85.942 45.5445 86.484 46.222C86.8454 46.6737 87.2068 47.0803 87.3875 47.6223C87.5681 48.1644 87.5681 48.7968 87.2068 49.2033" fill="#5F3326"/>
<path d="M86.8453 47.035C87.3421 46.493 87.9745 45.9057 88.6973 45.9961C89.3748 46.0864 89.8265 46.6736 90.0524 47.306C90.2782 47.8932 90.3686 48.5256 90.3686 49.158C90.3234 49.5194 90.2782 49.9259 90.3234 50.2873C90.4137 50.6487 90.5944 50.9649 90.7299 51.2811C91.2268 52.4103 91.1365 53.6751 90.7751 54.8496C90.4137 56.024 88.9683 57.5146 88.2907 58.5536C88.3359 56.1595 88.1552 54.3075 87.7035 52.4555C87.5228 51.7328 87.2066 50.8745 86.4839 50.739" fill="#5F3326"/>
<path d="M74.0622 49.4746C73.475 50.7846 73.1588 52.2752 73.204 53.7207C73.204 54.1724 73.2943 54.6693 73.475 55.121C73.7912 55.8437 74.4687 56.3406 74.6946 57.0633C74.7849 57.3795 74.7849 57.6505 74.7849 57.9667C74.9205 59.0056 77.179 60.1801 77.179 60.1801C77.179 60.1801 75.6432 54.0369 77.3597 49.5198" fill="#5F3326"/>
<path d="M34.8537 48.0737C34.9441 47.08 35.3506 46.1765 35.2151 45.3183C35.2603 44.5504 35.3506 43.7373 35.6216 43.0146C35.9378 42.2467 36.4799 41.524 37.2478 41.2529C36.0733 44.1439 37.835 47.622 36.5702 50.4678L35.4861 51.3712C35.0344 50.3774 34.7634 49.2933 34.8537 48.0737Z" fill="#FEBA8D"/>
<path d="M35.8924 45.6345C35.8924 45.6345 29.433 40.1688 28.7554 40.9367C28.6651 41.0271 29.4782 41.7498 29.5233 41.8402C30.6526 43.0598 33.2273 45.1828 32.9111 45.5442C32.5949 45.9055 27.0389 41.524 26.542 42.0208C26.4517 42.2467 26.6324 42.4726 26.8131 42.6532C28.3037 44.1439 31.4657 46.8993 31.285 47.1251C31.1043 47.351 26.4065 44.0987 26 44.8214C26 44.9569 26.1355 45.0473 26.2259 45.1376C27.5358 46.2217 30.2912 48.2544 30.2009 48.4351C30.1105 48.6158 27.5358 47.4865 27.3551 47.8027C27.1744 48.0737 32.5498 51.4164 34.718 52.0488C35.4407 52.2294 37.2475 50.0612 37.112 49.2482C36.9765 48.3899 35.8924 45.6345 35.8924 45.6345Z" fill="#FEBA8D"/>
<path d="M91.859 114.746C91.7235 115.243 91.9042 115.875 92.0397 116.372C92.2204 116.914 92.4011 117.456 92.6721 117.953C92.898 118.45 93.2142 118.902 93.5303 119.353C93.8917 119.805 94.2531 120.257 94.7048 120.573C94.8855 120.709 95.1565 120.438 95.021 120.257C94.75 119.805 94.4338 119.444 94.1627 118.992C93.8917 118.54 93.6207 118.089 93.3948 117.592C93.169 117.14 92.9883 116.688 92.8076 116.192C92.6269 115.74 92.5818 115.153 92.2656 114.746C92.1752 114.52 91.9494 114.52 91.859 114.746Z" fill="#32416D"/>
<path d="M91.8141 114.746C91.5883 115.604 91.6335 116.553 91.5883 117.411C91.5883 118.315 91.5431 119.218 91.6786 120.121C91.7238 120.393 92.1755 120.393 92.2207 120.121C92.3562 119.218 92.311 118.315 92.311 117.411C92.311 116.508 92.311 115.604 92.0852 114.746C92.04 114.611 91.8593 114.611 91.8141 114.746Z" fill="#32416D"/>
<path d="M98.7704 94.69C95.5632 95.4128 92.2206 95.4128 89.0135 94.69C87.7487 94.419 86.4387 93.9673 85.6257 92.9735C87.297 92.2508 88.8328 91.1667 90.0976 89.9019C90.3234 89.6761 90.5041 89.405 90.4138 89.134C90.3234 88.9082 90.0976 88.8178 89.9169 88.7275C87.2518 87.7337 84.3157 87.3724 81.7861 86.1076C79.0307 84.7524 76.8625 82.4036 74.7847 80.145C75.8236 82.0422 76.8174 83.9845 77.8563 85.8817C78.4887 87.011 79.0759 88.3209 78.7597 89.5857C78.5338 90.3536 77.9466 91.0312 78.037 91.8443C78.1273 93.0187 79.6179 93.9221 79.3469 95.0514C79.1662 95.7289 78.4435 96.542 79.0307 96.9486C79.2114 97.0841 79.4824 97.0841 79.7083 97.0841C81.2441 97.1292 82.6896 97.8068 84.2254 98.1682C88.4714 99.2071 92.8078 97.581 96.8732 96C97.6411 95.6838 98.4542 95.3676 99.0414 94.7352" fill="#15234A"/>
<path d="M95.021 64.8324C95.021 65.2389 95.2017 65.6003 95.3824 65.9616C95.9244 67.0457 96.4665 68.175 97.0085 69.2591C97.9119 68.2202 98.7702 67.1361 99.5832 66.0068C98.5443 63.6579 97.2344 61.4446 95.6986 59.3667C96.0148 60.767 95.8792 62.3028 95.3824 63.6128C95.2017 64.0645 95.021 64.4258 95.021 64.8324Z" fill="#15234A"/>
<path d="M155.595 44.4598C156.634 45.0922 157.989 44.8663 159.118 44.4146C160.202 44.0081 161.241 43.466 161.964 42.5626C162.687 41.7044 163.093 40.4848 162.732 39.3555C162.416 38.3166 161.422 37.368 161.783 36.329C162.054 35.4708 163.093 35.1094 163.726 34.477C164.313 33.8898 164.584 33.0767 164.584 32.3088C164.674 30.8182 163.952 29.2824 162.777 28.3338C162.416 28.0628 162.054 27.8369 161.738 27.5207C161.196 26.9335 160.97 26.1204 161.196 25.3525C160.609 25.6687 160.022 25.9849 159.389 26.1656C156.137 27.1142 152.614 24.946 149.361 25.8494C149.09 25.9398 148.865 26.0301 148.684 26.1656C148.097 26.6625 148.187 27.5659 147.826 28.2435C147.509 28.8307 146.922 29.2372 146.29 29.5083C145.657 29.7793 145.025 29.96 144.438 30.2762C143.083 31.0441 142.27 32.625 142.134 34.1608C142.044 35.7418 142.541 37.2776 143.354 38.6328C143.715 39.22 144.076 39.762 144.618 40.2137C145.928 41.2527 147.78 41.3882 149.045 42.4723" fill="black"/>
<path d="M151.575 116.824C161.106 114.249 176.6 109.235 179.445 110.003C182.291 110.771 179.265 103.272 179.265 103.272C179.265 103.272 177.458 104.899 176.554 104.627C169.779 102.55 162.732 101.33 155.64 100.969C153.563 100.878 151.44 100.833 149.588 101.827C147.781 102.821 146.516 105.079 147.374 106.976" fill="#FA7D00"/>
<path d="M122.756 15.3247C122.756 15.3247 123.117 20.158 123.388 22.4617C123.524 23.7717 123.479 25.0816 123.75 26.3916C124.156 28.3339 125.331 30.0504 126.595 31.6314C128.176 33.6189 129.938 35.5161 131.79 37.2326C133.958 40.4397 136.533 43.5113 137.391 47.3057C137.978 49.7901 137.707 52.3648 136.985 54.804C142.857 54.804 148.819 52.681 153.653 49.1577C151.349 47.2605 148.729 45.6795 146.29 43.963C142.315 41.1173 138.701 37.7295 135.675 33.8899L135.72 33.7093C135.901 29.7342 134.41 25.714 131.655 22.8683C131.022 22.1907 130.299 21.5583 129.622 20.8807C127.996 19.1643 126.776 17.1316 125.556 15.0537C123.975 15.3699 122.756 15.3247 122.756 15.3247Z" fill="#FEBA8D"/>
<path d="M137.391 47.3056C136.578 43.8274 134.32 40.9365 132.287 38.0004C132.468 37.4132 132.739 36.8711 133.1 36.3742C133.868 35.2901 134.862 34.6577 136.036 34.3867C139.018 38.0004 142.451 41.2527 146.29 43.9629C148.729 45.7246 151.349 47.2604 153.653 49.1576C148.774 52.6809 142.857 54.8039 136.985 54.8039C137.708 52.3195 137.979 49.79 137.391 47.3056Z" fill="#476CD2"/>
<path d="M156.047 73.1889C160.022 75.4474 161.874 80.3711 161.693 84.9785C161.513 89.5859 159.615 93.8771 157.763 98.0328C155.866 102.189 153.924 106.48 153.517 111.042C153.472 111.72 153.427 112.442 153.066 113.03C152.84 113.436 152.433 113.797 152.072 114.068C150.581 115.333 149.091 116.598 147.6 117.863C147.329 118.089 147.058 118.315 146.697 118.36C146.019 118.405 145.567 117.727 145.296 117.14C138.972 103.679 138.385 87.5984 143.806 73.7761C144.031 73.1889 144.302 72.6017 144.754 72.2403C145.206 71.9241 145.748 71.8338 146.29 71.7434C149.316 71.3369 152.433 71.5627 155.369 72.3758" fill="#FF8000"/>
<path d="M150.988 113.571C158.17 111.042 166.029 113.842 173.121 116.598C175.606 117.592 178.135 118.585 180.62 119.534C181.523 119.895 182.517 120.392 182.652 121.341C182.833 122.696 181.252 128.071 178.858 125.451C176.464 122.831 161.241 124.006 152.343 121.838C150.22 121.341 148.051 120.663 146.516 119.127C144.98 117.592 144.438 114.927 145.838 113.346" fill="#FF8000"/>
<path d="M173.212 44.9115C175.515 41.6592 179.174 39.4459 183.149 38.9038C184.098 38.7683 185.046 38.7231 185.95 38.6328C188.299 38.3166 190.512 37.4583 192.725 36.6001C193.764 37.8649 194.758 38.5876 194.758 38.5876C194.758 38.5876 191.461 42.1561 189.834 43.7823C188.931 44.7308 188.118 45.7698 187.124 46.628C185.588 47.8928 183.601 48.5252 181.658 48.9769C177.819 49.8803 173.889 50.332 170.004 50.2869" fill="#FEBA8D"/>
<path d="M136.669 58.6438C136.669 58.689 136.669 58.7341 136.669 58.7341C136.985 61.4895 138.069 64.1546 139.288 66.639C140.689 69.5299 142.315 72.2854 144.122 74.9053C144.257 75.1311 144.393 75.3118 144.573 75.5377L157.537 76.6669C156.77 72.3305 156.95 67.7683 158.125 63.5222C159.073 60.0893 160.699 56.7466 163.455 54.4881C166.526 52.0037 170.592 51.2358 174.341 50.0162C174.386 50.0162 174.431 49.971 174.477 49.971C174.522 48.8869 174.477 47.848 174.251 46.7639C174.07 46.0863 173.844 45.4991 173.528 44.957C168.649 46.1315 163.59 46.5832 158.576 46.3122C157.944 46.267 157.357 46.2218 156.724 46.1766C153.788 45.9508 150.807 45.6346 147.871 45.9056C147.103 45.996 146.335 46.0863 145.612 46.267C142.857 46.8994 140.237 48.2545 138.566 50.513C136.849 52.8619 136.352 55.8432 136.669 58.6438Z" fill="#476CD2"/>
<path d="M136.668 58.7793C136.985 61.5347 138.069 64.1998 139.288 66.6842C140.689 69.5751 142.315 72.3305 144.122 74.9504C144.212 75.0408 144.302 75.086 144.438 75.1763C144.438 74.1825 145.161 73.3695 146.019 72.8726C146.832 72.3757 147.78 72.1047 148.639 71.653C151.213 70.2527 152.569 67.3166 153.698 64.6063L153.382 63.5674C151.891 64.3805 149.949 64.1546 148.639 63.1157C147.419 62.1219 146.787 60.541 145.386 59.8182C143.489 58.8696 141.186 60.0893 139.063 59.7731C138.204 59.6375 137.436 59.2762 136.668 58.7793Z" fill="#476CD2"/>
<path d="M124.653 12.931C125.015 12.0276 125.647 11.35 125.782 10.5369C126.053 9.85938 126.37 9.13665 126.821 8.54943C127.318 7.91704 128.041 7.46533 128.809 7.46533C126.912 9.72387 127.499 13.4279 125.511 15.6412L124.292 16.1833C124.156 15.0992 124.201 14.0151 124.653 12.931Z" fill="#FEBA8D"/>
<path d="M125.692 11.3498C125.692 11.3498 121.401 4.52901 120.588 5.02589C120.497 5.07106 120.994 5.97447 121.039 6.06481C121.717 7.51028 123.434 10.1754 123.027 10.4012C122.62 10.6722 118.871 5.02589 118.284 5.34208C118.149 5.52277 118.239 5.79379 118.329 5.97447C119.233 7.78131 121.311 11.2143 121.085 11.3498C120.859 11.4853 117.516 7.19408 116.974 7.73613C116.974 7.87165 117.019 7.96199 117.11 8.0975C118.013 9.4978 119.91 12.1177 119.775 12.2532C119.639 12.3887 117.652 10.6271 117.381 10.8529C117.11 11.0788 121.039 15.6862 122.846 16.8155C123.434 17.1768 125.737 15.7314 125.828 14.9635C125.828 14.1956 125.692 11.3498 125.692 11.3498Z" fill="#FEBA8D"/>
<path d="M145.567 46.312L146.245 52.8166L156.679 46.2217C153.743 45.9958 150.762 45.6796 147.826 45.9507C147.058 46.041 146.29 46.1313 145.567 46.312Z" fill="#476CD2"/>
<path d="M147.69 44.0083C147.69 44.189 148.051 49.5191 148.051 49.5191C148.051 49.5191 151.575 48.1188 152.614 46.1313" fill="#FAB78A"/>
<path d="M159.389 36.2841C159.118 37.2327 158.802 38.1361 158.531 39.0847C157.808 41.3884 157.086 43.7825 155.459 45.5441C153.833 47.3058 151.078 48.2544 148.955 47.0799C146.967 45.9958 146.29 43.5114 146.019 41.2529C145.793 39.2654 145.748 37.2327 146.38 35.3355C147.012 33.4383 148.368 31.7219 150.265 31.0443C152.568 30.2764 155.188 31.225 156.905 32.9415C157.989 34.0256 158.802 35.3807 158.892 36.9165C158.983 38.6782 158.079 40.3495 157.221 41.9305" fill="#FEBA8D"/>
<path d="M157.086 71.9238C157.086 71.9238 153.698 74.1824 149.542 74.3179C145.386 74.4986 142.631 73.5048 142.631 73.5048C142.631 73.5048 140.372 78.3381 139.108 82.4938C137.843 86.6495 137.662 93.8768 137.662 93.8768C137.662 93.8768 142.947 95.8192 149.858 94.8254C156.769 93.8768 158.983 93.8768 161.738 91.1214C164.448 88.4112 166.075 88.2305 166.075 88.2305C166.075 88.2305 165.894 74.9503 157.086 71.9238Z" fill="#476CD2"/>
<path d="M177.187 103.995C177.367 104.311 177.638 104.582 178.045 104.944C178.722 105.531 179.535 106.118 179.987 106.931C180.755 108.331 179.987 109.461 178.813 110.138C180.529 111.222 182.607 111.9 184.324 113.029C185.769 113.978 186.989 115.333 187.802 116.869C187.802 116.869 187.802 116.869 187.802 116.914C187.982 117.23 188.163 117.546 188.479 117.546C188.886 117.546 189.112 117.095 189.202 116.688C189.834 114.158 189.563 111.403 188.434 109.009C187.576 107.247 186.311 105.757 185.046 104.266C184.052 103.092 182.923 100.743 182.065 100.743C181.794 100.743 181.342 101.014 180.8 101.375C179.761 102.143 178.316 103.363 177.187 103.995Z" fill="black"/>
<path d="M184.956 106.209C186.311 107.609 188.344 112.442 188.028 115.288C187.937 115.92 187.892 116.417 187.802 116.824C187.802 116.824 187.802 116.824 187.802 116.869C187.982 117.185 188.163 117.501 188.479 117.501C188.886 117.501 189.112 117.05 189.202 116.643C189.834 114.113 189.563 111.358 188.434 108.964C187.576 107.202 186.311 105.712 185.046 104.221C184.053 103.047 182.923 100.698 182.065 100.698C181.794 100.698 181.342 100.969 180.8 101.33C181.749 102.505 183.872 105.124 184.956 106.209Z" fill="#EFD9CB"/>
<path d="M181.117 119.398C181.072 119.76 181.117 120.166 181.207 120.663C181.388 121.567 181.659 122.515 181.523 123.419C181.252 125 179.987 125.406 178.632 125.225C179.31 127.123 180.53 128.929 181.162 130.917C181.704 132.588 181.839 134.35 181.523 136.112C181.523 136.112 181.523 136.112 181.523 136.157C181.478 136.473 181.433 136.88 181.659 137.105C181.975 137.376 182.427 137.151 182.743 136.88C184.821 135.253 186.311 132.905 186.853 130.375C187.26 128.478 187.17 126.49 187.124 124.548C187.079 123.012 187.621 120.483 186.944 119.94C186.718 119.76 186.221 119.669 185.589 119.669C184.324 119.489 182.427 119.579 181.117 119.398Z" fill="black"/>
<path d="M185.86 125.903C186.041 127.845 184.685 132.904 182.698 134.937C182.246 135.389 181.885 135.75 181.569 136.021C181.569 136.021 181.569 136.021 181.569 136.066C181.523 136.383 181.478 136.789 181.704 137.015C182.02 137.286 182.472 137.06 182.788 136.789C184.866 135.163 186.357 132.814 186.899 130.285C187.305 128.387 187.215 126.4 187.17 124.458C187.125 122.922 187.667 120.392 186.989 119.85C186.763 119.669 186.266 119.579 185.634 119.579C185.634 121.025 185.724 124.412 185.86 125.903Z" fill="#EFD9CB"/>
<path d="M198.236 34.7487L198.326 34.9745L198.552 35.6521L198.326 36.5555C198.326 36.5555 196.068 40.0336 194.035 38.814C192.003 37.5944 193.809 34.4325 193.809 34.4325L197.242 33.5742" fill="#FEBA8D"/>
<path d="M193.267 33.574C194.667 31.3606 198.462 27.3856 199.185 28.018C199.275 28.0632 198.643 28.9214 198.597 29.0118C197.739 30.3669 195.661 32.7609 196.023 33.032C196.384 33.3482 200.901 28.289 201.443 28.6504C201.579 28.8311 201.398 29.1021 201.308 29.2828C200.359 30.6831 198.417 33.0771 197.965 33.9354C197.016 34.4323 196.203 35.9229 195.571 36.736C195.074 37.4135 194.487 38.0911 193.99 38.8138C193.312 38.3169 192.68 37.5942 192.725 37.1425C192.725 36.3746 191.867 35.7874 193.267 33.574Z" fill="#FEBA8D"/>
<path d="M192.68 36.9617L191.37 34.4321L193.583 32.1284C193.583 32.1284 194.984 33.9352 195.616 34.2063C196.249 34.4773 195.164 34.7935 194.351 34.4321C193.493 34.0708 193.583 33.9353 193.583 33.9353C193.583 33.9353 195.029 34.7032 194.848 36.1938C194.622 37.7296 192.68 36.9617 192.68 36.9617Z" fill="#FEBA8D"/>
<path d="M198.688 33.9356C198.688 33.9356 194.487 33.8453 194.351 34.4777C194.216 35.1101 198.281 35.2456 198.281 35.2456C198.281 35.2456 199.727 34.6583 198.688 33.9356Z" fill="#FEBA8D"/>
<path d="M198.417 35.3809C198.417 35.3809 198.868 36.1939 198.417 36.6456C197.965 37.0973 194.442 36.9167 194.532 36.1488C194.622 35.3809 198.417 35.3809 198.417 35.3809Z" fill="#FEBA8D"/>
<path d="M160.474 26.0304C159.661 25.127 158.802 24.0881 158.712 22.8685C158.622 21.2423 159.932 19.7969 161.467 19.2548C163.003 18.7128 164.674 18.8483 166.301 18.9838C167.475 19.0741 168.83 19.1193 169.734 18.3062C171.315 16.8608 170.185 13.9247 171.631 12.3437C172.218 11.6661 173.167 11.3951 174.07 11.3499C175.425 11.2596 176.78 11.621 177.819 12.4792C178.858 13.3374 179.536 14.6474 179.4 16.0025C178.677 15.1895 177.503 14.3312 176.6 14.9636C175.877 15.5056 176.012 16.6349 176.554 17.3576C177.051 18.0804 177.819 18.6224 178.316 19.3452C179.355 21.0617 178.452 23.4105 176.916 24.7205C175.515 25.9401 173.618 26.5725 171.766 26.4822C168.514 26.3015 165.623 24.0429 162.416 24.1333C162.145 24.1333 161.874 24.1784 161.648 24.314C161.422 24.4495 161.242 24.7205 161.106 24.9915C160.745 25.7142 160.519 26.4822 160.474 27.2952" fill="black"/>
<path d="M158.125 43.9632C157.673 43.6922 157.357 43.1501 157.221 42.6081C157.086 42.066 157.086 41.524 157.086 40.9367C157.086 39.7623 157.086 38.4975 157.492 37.4134C157.086 37.6844 156.544 37.7748 156.047 37.82C153.337 38.0006 150.581 36.4648 149.316 34.0256C149.271 35.1097 148.91 36.1938 148.323 37.0972C148.052 37.5489 147.645 37.9555 147.193 38.1362C146.696 38.362 146.109 38.3168 145.703 37.9555C145.296 37.5489 145.251 36.9165 145.251 36.3293C145.251 35.7873 145.251 35.2904 145.386 34.7935C145.703 33.7094 146.516 32.8963 147.374 32.0833C147.961 31.5412 148.548 30.954 149.226 30.5475C150.942 29.4182 153.156 29.0568 155.189 29.5085C157.221 29.9602 159.073 31.0895 160.428 32.6705" fill="black"/>
</svg>
