<svg width="226" height="123" viewBox="0 0 226 123" fill="none" xmlns="http://www.w3.org/2000/svg">
<path d="M224.394 101.712C224.305 101.979 224.216 102.335 224.216 102.602C222.971 107.316 220.659 112.385 217.012 117.633L198.78 117.544H197.801L99.2564 117.277H98.1002L78.9782 117.188H77.7331L17.0763 117.01C17.0763 117.01 1.33399 98.5105 22.4127 81.1673C32.285 73.0738 45.5369 74.319 55.6761 73.2517C56.1208 73.1627 56.5654 73.1627 57.0101 73.0738C67.6829 71.6508 74.3534 66.937 68.2165 43.5459C67.4161 40.3441 67.0603 37.1422 67.2382 33.9404C67.2382 33.4957 67.3271 33.051 67.3271 32.6063C69.3727 10.9051 93.1196 -7.77224 120.513 3.3452C121.047 3.52308 121.491 3.7899 122.025 3.96778C128.073 6.63596 134.299 10.8161 140.435 16.6861C145.594 21.5778 150.13 26.1137 154.132 30.116C154.577 30.5607 155.022 31.0054 155.466 31.4501C174.677 51.1057 181.348 60.6223 191.576 66.2255C191.842 66.4033 192.109 66.4923 192.376 66.6702C195.311 68.1821 198.691 69.4273 202.693 70.4946C207.051 71.6508 210.787 73.3406 213.988 75.3862C214.255 75.5641 214.522 75.742 214.789 75.9199C223.149 81.7899 226.885 90.7728 224.394 101.712Z" fill="#E4EBF7"/>
<path d="M196.467 16.775C180.458 4.59023 159.735 7.52524 163.915 16.775C168.095 26.0247 186.15 50.0383 198.869 45.8582C211.587 41.678 207.051 24.7795 196.467 16.775Z" fill="#E4EBF7"/>
<path d="M214.877 76.0088C201.27 86.9483 189.085 92.3736 178.323 92.3736C175.655 92.3736 173.076 92.0179 170.497 91.3064C154.399 86.8594 142.303 68.36 134.387 36.3417C130.919 22.1114 125.938 11.4386 120.602 3.43408C121.135 3.61196 121.58 3.87878 122.114 4.05666C127.183 11.9723 131.897 22.3782 135.277 36.0749C143.103 67.8263 155.021 86.1479 170.763 90.417C182.948 93.7967 197.445 88.7271 214.077 75.3862C214.344 75.653 214.611 75.8309 214.877 76.0088Z" fill="white"/>
<path d="M192.465 66.7592C188.374 70.7615 184.371 72.7182 180.547 72.7182C179.657 72.7182 178.857 72.6292 177.968 72.3624C166.494 69.6053 158.757 48.7934 154.132 30.2051C154.577 30.6498 155.021 31.0945 155.466 31.5392C160.18 49.505 167.562 68.9827 178.234 71.473C182.415 72.4514 186.951 70.7615 191.664 66.2256C191.931 66.4035 192.198 66.5814 192.465 66.7592Z" fill="white"/>
<path d="M99.2564 117.277H98.1002C105.482 108.116 109.218 98.4216 108.951 88.2825C108.506 69.6052 94.7205 53.685 81.2907 46.1252C75.4207 42.8344 70.8847 38.5653 67.3271 34.0294C67.3271 33.5847 67.4161 33.14 67.4161 32.6953C70.9737 37.498 75.5985 41.945 81.7354 45.4137C95.432 53.0625 109.396 69.2495 109.84 88.2825C110.107 96.1092 107.973 106.426 99.2564 117.277Z" fill="white"/>
<path d="M79.0672 117.277H77.8221C82.358 111.94 85.293 106.07 85.1151 100.289C84.8483 92.6404 79.334 86.1478 68.6613 81.0782C64.1254 78.9437 59.8563 76.2755 55.854 73.3405C56.2987 73.2515 56.7434 73.2515 57.1881 73.1626C60.9236 75.8308 64.8369 78.2322 69.106 80.1888C80.1345 85.4363 85.8266 92.1067 86.0935 100.111C86.1824 106.248 83.3363 112.029 79.0672 117.277Z" fill="white"/>
<path d="M224.394 101.712C224.305 101.979 224.216 102.335 224.216 102.602C217.635 102.068 212.032 103.313 207.496 106.426C203.404 109.272 200.647 113.275 198.78 117.544H197.801C199.758 113.097 202.604 108.739 206.962 105.715C211.676 102.513 217.546 101.09 224.394 101.712Z" fill="white"/>
<path d="M44.9147 60.8892C44.9147 60.8892 43.1359 62.8458 42.2465 71.2951C41.446 79.6554 34.153 83.9245 28.3719 84.3692H28.283V84.2803L28.1051 83.4798L26.6821 78.0545C26.6821 78.0545 24.9033 63.2905 44.381 60.9781C44.5589 60.8892 44.7368 60.8892 44.9147 60.8892Z" fill="#476CD2"/>
<path d="M29.8837 117.632C29.8837 117.632 30.2394 74.23 22.8575 60.1775C15.5644 46.0361 0 43.6348 0 43.6348C0 43.6348 16.6317 47.9928 22.8575 64.7134C29.0832 81.4341 27.2155 117.632 27.2155 117.632H29.8837Z" fill="#ABDAF7"/>
<path d="M27.4826 109.45C3.55783 109.272 3.29102 82.7683 3.29102 81.3453V81.2563C8.80527 89.5277 28.4609 88.8162 27.4826 109.45Z" fill="#476CD2"/>
<path d="M27.4826 109.45C3.55783 109.272 3.29102 82.7682 3.29102 81.3452C3.37996 82.5014 4.26935 100.111 15.031 103.135C26.0595 106.159 27.4826 109.45 27.4826 109.45Z" fill="#395BB9"/>
<path d="M50.251 97.6211C47.4938 105.181 51.585 112.919 44.5588 117.632H32.463C32.463 117.632 31.6626 100.645 50.251 97.6211Z" fill="#476CD2"/>
<path d="M50.251 97.6211C47.4939 105.181 51.5851 112.919 44.5589 117.632H40.0229C45.9819 112.563 46.6934 103.313 50.251 97.6211Z" fill="#395BB9"/>
<path d="M44.9146 60.8892C44.9146 60.8892 43.1359 62.8458 42.2465 71.2951C41.446 79.6554 34.153 83.9245 28.3719 84.3692L28.194 84.2803L27.3936 83.6577C27.5714 83.5687 27.8383 83.4798 28.0161 83.4798C39.8451 79.0328 40.023 67.9154 44.2031 60.9781C44.5589 60.8892 44.7368 60.8892 44.9146 60.8892Z" fill="#395BB9"/>
<path d="M26.5928 72.3622C25.3477 72.6291 11.2952 75.5641 8.36024 61.6895C5.51418 47.9928 0.622504 44.0795 0.0888672 43.6348C26.7707 47.9039 26.5928 72.3622 26.5928 72.3622Z" fill="#476CD2"/>
<path d="M26.5929 72.3622C25.3477 72.6291 11.2952 75.5641 8.36024 61.6895C5.51418 47.9928 0.622504 44.0795 0.0888672 43.6348C13.2519 50.661 6.93721 70.2277 26.5929 72.3622Z" fill="#395BB9"/>
<path d="M224.572 117.633H11.4731V122.169H224.572V117.633Z" fill="#70B2DD"/>
<path d="M180.725 102.869C180.725 102.869 183.304 99.7556 181.97 96.5538C181.17 94.5082 179.836 94.5971 176.812 91.0396C173.877 87.393 171.298 78.4101 180.636 79.8332C190.064 81.2562 192.732 80.0111 191.042 77.5208C189.352 75.0304 183.66 71.295 185.884 66.4033C188.107 61.5116 196.645 63.2015 204.917 63.913C213.188 64.6245 210.431 60.978 215.501 63.4683C220.57 65.8697 220.57 79.7442 208.919 78.8548C197.268 77.9655 195.133 78.588 195.578 82.8571C196.023 87.1262 198.068 94.4193 190.509 91.6621C182.949 88.905 184.994 92.4626 186.417 95.4865C188.196 99.3109 183.838 102.957 183.838 102.957H180.725V102.869Z" fill="#FF8000"/>
<path d="M179.836 69.3382C177.345 68.8045 174.766 64.8023 172.721 68.3598C171.031 71.2059 176.189 75.475 180.102 73.7852C183.215 72.4511 183.126 69.9607 179.836 69.3382Z" fill="white"/>
<path d="M191.131 115.853V113.986C193.621 113.986 195.845 112.296 196.556 109.895L196.912 108.738C197.09 108.027 197.001 107.315 196.556 106.782C196.111 106.248 195.489 105.892 194.777 105.892H193.265V103.936H194.777C196.111 103.936 197.357 104.558 198.157 105.625C198.958 106.693 199.224 108.027 198.869 109.272L198.513 110.428C197.446 113.63 194.511 115.853 191.131 115.853Z" fill="#70B2DD"/>
<path d="M194.422 102.958L194.155 104.914L192.732 114.964C192.465 116.565 191.131 117.722 189.619 117.722H182.326C180.725 117.722 179.391 116.565 179.213 114.964L177.79 104.914L177.523 102.958C177.345 101.979 178.146 101.001 179.213 101.001H192.732C193.71 101.001 194.511 101.89 194.422 102.958Z" fill="#476CD2"/>
<path d="M194.422 102.958L194.155 104.914H177.79L177.523 102.958C177.345 101.979 178.146 101.001 179.213 101.001H192.732C193.71 101.001 194.511 101.89 194.422 102.958Z" fill="#3A5EC1"/>
<path d="M163.916 117.632C163.916 117.632 166.228 115.943 165.339 108.116C164.538 100.289 163.916 94.7749 163.916 94.7749L146.839 96.6426L148.796 112.296L163.916 117.632Z" fill="#F29C8B"/>
<path d="M148.974 100.645L151.197 117.632H95.2542C95.2542 117.632 89.7399 76.3643 101.48 66.7588C106.638 62.5786 113.309 60.7109 119.09 59.9105C126.472 58.8432 132.52 59.6436 132.52 59.6436C132.52 59.6436 133.943 59.6436 136.077 59.8215C140.88 60.2662 149.507 61.6003 154.577 66.3141C161.959 73.0735 165.339 100.2 165.339 100.2C165.339 100.2 158.935 101.623 148.974 100.645Z" fill="#476CD2"/>
<path d="M148.974 100.645L146.395 100.289L138.479 79.5659C138.479 79.5659 138.746 103.046 131.364 110.072C123.982 117.098 105.305 113.719 105.305 113.719L102.725 79.6549L97.1221 97.087L100.858 117.721H151.286L148.974 100.645Z" fill="#3150BC"/>
<path d="M136.167 59.8214C135.633 64.5352 134.299 71.2946 130.386 74.1407C124.249 78.5877 118.645 76.72 116.244 72.184C113.843 67.6481 116.689 60.9777 117.489 60.444L119.179 59.9993C126.561 58.932 132.609 59.7325 132.609 59.7325C132.609 59.7325 134.032 59.6436 136.167 59.8214Z" fill="#78AAF9"/>
<path d="M95.3432 117.632H87.2497C82.0022 117.632 78.1778 112.83 79.1562 107.76L82.5359 91.0396L95.3432 117.632Z" fill="#F29C8B"/>
<path d="M94.3646 88.4602C94.3646 88.4602 95.6098 85.703 94.3646 84.5468C93.1195 83.3906 91.5185 83.4795 91.5185 83.4795C91.5185 83.4795 90.7181 80.8114 85.8264 81.2561C80.9347 81.7007 80.49 86.3256 83.2472 88.4602H94.3646Z" fill="#FEB19E"/>
<path d="M91.1628 85.525L85.7374 71.0279C85.4706 70.4053 84.848 70.0496 84.2255 70.2274C83.5139 70.4053 83.0693 71.2058 83.425 71.9173L89.2061 85.8808L91.1628 85.525Z" fill="#525559"/>
<path d="M127.273 39.7215C127.273 39.7215 127.717 31.4501 125.672 28.8708C123.537 26.2916 121.314 27.2699 121.314 27.2699C121.314 27.2699 121.314 23.2677 116.244 22.1114C111.086 20.9552 105.304 22.0225 101.035 25.9358C96.6773 29.9381 90.2737 27.8036 90.2737 30.6496C90.2737 33.4957 94.276 34.474 94.276 34.474C94.276 34.474 88.7617 34.1183 88.7617 36.5196C88.6728 38.921 92.675 43.1901 98.0114 43.0122C98.0114 43.0122 99.2566 50.9278 106.905 50.661L118.556 46.6587L126.294 42.5675L127.273 39.7215Z" fill="url(#paint0_linear_2_21286)"/>
<path d="M132.609 59.6435C132.609 59.6435 130.919 75.0301 122.647 74.0517C118.111 73.5181 117.756 69.4269 118.2 66.8476C118.467 65.1578 119.001 63.9126 119.001 63.9126L114.91 58.2205L126.472 45.8579C128.251 51.639 130.207 56.6196 132.609 59.6435Z" fill="#FEB19E"/>
<path d="M118.2 66.7588C118.467 65.0689 119.001 63.8238 119.001 63.8238L114.91 58.1316L126.472 45.769C130.919 61.956 122.381 65.8694 118.2 66.7588Z" fill="#FF856A"/>
<path d="M101.569 43.9016C101.569 43.9016 109.929 62.3121 118.645 61.6895C125.938 61.1558 128.251 49.149 126.472 45.8582C126.472 45.8582 129.763 46.1251 128.962 42.3896C128.251 38.5652 124.693 34.8297 123.982 42.3896C123.982 42.3896 119.713 43.8126 118.378 34.6519C118.378 34.6519 114.198 41.5002 111.085 42.3007C107.972 43.1011 108.862 39.9882 108.862 39.9882C108.862 39.9882 106.905 42.9232 101.569 43.9016Z" fill="#FEB19E"/>
<path d="M123.982 117.633H93.0308C92.0525 117.633 91.0742 117.01 90.7184 116.032L89.7401 113.452L81.2908 91.8401C80.6682 90.2392 81.8245 88.4604 83.6033 88.4604H114.198C115.177 88.4604 116.155 89.083 116.511 89.9724L126.383 114.075C127.006 115.854 125.761 117.633 123.982 117.633Z" fill="#1B3151"/>
<path d="M121.847 117.633H93.1197C92.1414 117.633 91.163 117.01 90.8073 116.032L89.829 113.452L81.3797 91.8401C80.7571 90.2392 81.9133 88.4604 83.6921 88.4604H112.064C112.331 88.4604 112.597 88.4604 112.775 88.5494C113.487 88.7273 114.109 89.2609 114.376 89.9724L124.249 114.075C124.782 115.854 123.626 117.633 121.847 117.633Z" fill="#23406D"/>
<path d="M104.504 101.712C105.038 103.58 104.504 105.359 103.259 105.715C102.014 106.07 100.591 104.825 100.057 102.958C99.5235 101.09 100.057 99.311 101.302 98.9552C102.547 98.5995 103.97 99.8446 104.504 101.712Z" fill="#4E79B7"/>
<path opacity="0.49" d="M123.982 117.633H93.031C92.0527 117.633 91.0743 117.01 90.7186 116.032L89.7402 113.452C105.038 111.852 110.819 96.1982 112.687 88.5494V88.4604H114.11C115.088 88.4604 116.066 89.083 116.422 89.9724L126.294 114.075C127.006 115.854 125.761 117.633 123.982 117.633Z" fill="#1B3151"/>
<path d="M163.915 117.632C163.915 117.632 160.447 104.292 125.494 97.5321C125.494 97.5321 122.825 91.3953 117.311 91.0396L118.112 94.864C118.112 94.864 111.975 96.1091 106.283 95.3976C100.59 94.6861 104.682 100.556 108.595 103.402C112.419 106.337 113.22 108.116 119.179 106.871C125.049 105.626 126.472 105.359 126.472 105.359C126.472 105.359 134.032 113.274 142.303 117.632H163.915Z" fill="#FEB19E"/>
<path d="M75.7765 80.2777C75.7765 80.2777 72.3968 80.6334 70.3512 84.191C68.3055 87.8375 66.5268 89.9721 63.0581 88.9938C59.5895 88.0154 60.1231 80.7224 65.5484 78.5878C70.8848 76.6312 75.7765 80.2777 75.7765 80.2777Z" fill="#FF8000"/>
<path d="M77.6445 70.2278C77.6445 70.2278 72.1302 62.6679 63.1473 65.4251C54.2534 68.1822 45.8931 68.9826 41.0014 60.6223C36.1097 52.262 40.8235 48.5266 45.1816 49.1491C49.5396 49.6828 53.364 57.5094 59.7676 57.5984C66.0823 57.5984 76.3104 62.4901 77.6445 70.2278Z" fill="#FF8000"/>
<path d="M142.036 52.7066C142.036 52.7066 139.724 40.9666 148.262 37.0532C156.8 33.1399 158.579 43.4569 152.264 44.8799C145.95 46.303 142.57 49.4158 142.036 52.7066Z" fill="#FF8000"/>
<path d="M120.247 86.1479C120.247 86.1479 122.648 82.7682 129.674 86.5926C136.7 90.3281 143.816 93.2631 148.796 87.5709C153.777 81.8788 150.308 75.2083 145.15 76.7203C139.991 78.2323 140.258 82.0567 131.453 81.2562C122.826 80.5447 120.247 86.1479 120.247 86.1479Z" fill="#FF8000"/>
<defs>
<linearGradient id="paint0_linear_2_21286" x1="88.6506" y1="36.2188" x2="127.329" y2="36.2188" gradientUnits="userSpaceOnUse">
<stop stop-color="#3F2323"/>
<stop offset="1" stop-color="#5E3434"/>
</linearGradient>
</defs>
</svg>
