<svg width="135" height="141" viewBox="0 0 135 141" fill="none" xmlns="http://www.w3.org/2000/svg">
<path fill-rule="evenodd" clip-rule="evenodd" d="M112.538 104.997C102.427 116.455 80.6162 94.8788 66.317 96.9767C47.3939 99.7479 35.3596 122.628 19.4587 108.596C-8.45802 83.9604 2.98613 50.6116 26.4777 23.9913C49.9693 -2.62902 85.4953 -11.6816 106.343 20.8127C127.19 53.3069 136.026 78.3807 112.538 104.997Z" fill="#E7F1FB"/>
<path fill-rule="evenodd" clip-rule="evenodd" d="M33.0025 24.1455C33.1032 23.8881 33.5229 23.0823 33.9314 22.0751C34.9441 21.5548 35.7555 20.4133 36.3598 18.6619C35.9961 17.4812 35.2351 16.7482 34.0656 16.4517C33.674 17.9121 33.0808 18.9752 32.3031 19.6635C32.4989 18.1471 32.2471 17.6659 31.5533 18.2366C31.6484 18.4325 31.654 18.6787 31.5701 18.9696C31.1 19.7362 31.1392 20.6147 31.6932 21.5939C31.4805 22.036 31.2511 22.4836 31.1504 22.7298C31.7715 22.9313 32.359 23.3733 33.0025 24.1455Z" fill="#FF8000"/>
<path fill-rule="evenodd" clip-rule="evenodd" d="M67.3922 130.818C30.171 130.818 0 132.911 0 135.496C0 138.081 30.171 140.174 67.3922 140.174C104.614 140.174 134.79 138.081 134.79 135.496C134.784 132.911 104.614 130.818 67.3922 130.818Z" fill="#E4ECF5"/>
<path fill-rule="evenodd" clip-rule="evenodd" d="M111.087 39.0017C112.184 39.6396 112.52 40.6916 113.258 41.0832C115.407 41.2903 117.528 41.4581 118.535 42.1688C122.474 47.0089 125.664 51.2838 128.092 54.9993C129.077 57.0584 128.881 59.0448 127.499 60.9585C125.809 59.3749 123.979 58.9721 121.999 59.761C122.066 58.9217 122.373 58.0488 122.927 57.1423C120.09 54.6188 117.763 52.2966 115.95 50.1927C116.286 52.9569 115.301 56.8905 112.99 61.9936C104.955 62.5252 100.344 62.3965 99.1633 61.6075C98.7716 59.3246 98.4639 56.8346 98.2345 54.1375C96.3879 55.8162 94.894 57.299 93.7525 58.6028C92.8852 58.8937 91.9563 58.9497 90.9603 58.7706C90.2609 57.0976 89.5558 55.5812 88.8452 54.2215C89.3376 53.7738 90.1825 53.4213 91.3856 53.1527C94.6701 48.4022 97.5015 44.5748 99.8851 41.654C101.737 41.2119 103.119 40.9825 104.031 40.9657C104.423 40.4957 104.999 40.0984 105.766 39.7627C105.318 42.2583 105.151 45.2407 105.173 47.3558C108.676 44.7483 110.645 41.3406 111.087 39.0017Z" fill="#476CD2"/>
<path fill-rule="evenodd" clip-rule="evenodd" d="M117.047 83.3738C118.714 72.9046 117.36 65.776 112.99 61.9878C106.203 62.4354 101.86 62.4131 99.958 61.9207C99.9356 62.6537 99.8909 63.5266 99.7398 64.668C98.5591 73.4977 97.1435 87.2011 97.3337 100.664C102.123 102.371 109.627 102.298 119.833 100.451C118.669 95.2139 117.741 89.5177 117.047 83.3738Z" fill="#15234A"/>
<path fill-rule="evenodd" clip-rule="evenodd" d="M104.021 40.9655C103.612 42.1965 103.388 43.2093 103.36 44.0094C103.83 43.6289 104.183 43.366 104.407 43.2261C104.58 45.2013 104.832 46.5778 105.162 47.3555C105.14 45.2404 105.308 42.2524 105.755 39.7625C104.989 40.0982 104.412 40.4955 104.021 40.9655Z" fill="#476CD2"/>
<path fill-rule="evenodd" clip-rule="evenodd" d="M111.088 39.0017C110.651 41.3406 108.676 44.7483 105.167 47.3614C107.266 46.606 109.56 44.7539 110.869 42.2975C111.088 43.1312 111.362 44.1048 111.697 45.2127C112.609 44.0656 113.13 42.6891 113.264 41.0832C112.514 40.6916 112.179 39.6396 111.088 39.0017Z" fill="#476CD2"/>
<path fill-rule="evenodd" clip-rule="evenodd" d="M122.239 59.6658C120.841 62.5699 119.201 65.4627 117.567 67.7625C117.192 67.354 116.834 66.4755 116.303 66.1342C116.09 65.9999 115.754 66.3468 115.53 66.2405C114.462 65.7257 113.275 65.5803 112.313 66.3077C112.072 66.4923 111.944 66.8448 111.91 67.6954C111.949 68.8592 112.912 69.0774 114.249 68.5347C116.034 70.5155 117.226 71.159 118.199 70.4651C122.614 66.4476 125.535 63.1126 126.968 60.4716C125.496 59.3413 123.918 59.0727 122.239 59.6658Z" fill="#FCCCAC"/>
<path fill-rule="evenodd" clip-rule="evenodd" d="M76.7313 59.1676C83.3451 59.3914 88.0677 59.2124 90.8991 58.636C90.2164 57.0133 89.5282 55.5417 88.8399 54.2212C83.5689 55.0158 79.0534 55.5977 75.2988 55.9726C73.9503 55.0325 72.82 54.652 71.9135 54.8143C71.6617 55.3907 71.9303 55.8159 72.7137 56.0789C72.9263 56.3755 73.0102 56.6552 72.9711 56.9126C71.0182 57.7631 69.2948 58.2835 67.8064 58.4794C67.633 60.2643 68.7241 61.4002 71.0686 61.887C73.4691 61.2603 75.3548 60.3539 76.7313 59.1676Z" fill="#FCCCAC"/>
<path fill-rule="evenodd" clip-rule="evenodd" d="M117.735 129.995C116.504 134.662 116.918 137.146 119.24 137.488C122.323 137.712 123.162 134.623 121.948 128.255C121.976 128.602 121.993 128.921 122.01 129.206C122.351 135.876 117.248 134.388 117.606 131.31C117.656 130.879 117.701 130.443 117.735 129.995Z" fill="#15234A"/>
<path fill-rule="evenodd" clip-rule="evenodd" d="M117.606 131.31C117.248 134.382 122.351 135.876 122.01 129.207C121.993 128.921 121.976 128.597 121.948 128.255C121.741 125.536 121.171 121.183 121.215 118.441C121.322 111.43 120.706 105.465 119.374 100.541C116.901 100.977 114.59 101.313 112.436 101.537C113.6 105.633 114.607 109.382 115.458 112.784C116.504 116.958 118.462 123.135 117.97 127.371C117.864 128.283 117.797 129.156 117.724 130.001C117.701 130.443 117.657 130.88 117.606 131.31Z" fill="#FCCCAC"/>
<path fill-rule="evenodd" clip-rule="evenodd" d="M97.2053 132.111C98.9847 132.211 97.362 133.616 98.5147 133.929C101.049 132.525 102.454 128.692 103.461 127.002C103.993 126.112 104.379 127.248 104.642 128.513C105.207 131.238 105.19 134.83 104.552 135.944C104.088 135.121 103.691 132.603 103.271 131.064C100.786 133.308 101.329 135.781 99.8576 136.621C96.3212 137.018 94.4076 137.119 91.7217 137.175C91.1342 134.864 95.8064 135.647 97.2053 132.111Z" fill="#15234A"/>
<path fill-rule="evenodd" clip-rule="evenodd" d="M98.5258 101.039C98.8615 114.496 100.087 126.482 97.8711 132.284C98.4866 132.687 97.5689 133.672 98.5146 133.935C101.049 132.531 102.454 128.698 103.461 127.008C103.467 126.997 103.472 126.991 103.478 126.98C103.332 126.622 103.232 126.208 103.176 125.743C103.22 114.58 105.973 107.698 105.436 101.89C102.767 101.85 100.462 101.565 98.5258 101.039Z" fill="#FCCCAC"/>
<path fill-rule="evenodd" clip-rule="evenodd" d="M93.507 58.6703C92.6172 56.9579 91.7275 55.1616 90.8377 53.2812C89.9199 53.5275 89.254 53.8409 88.8398 54.2214C89.5282 55.5477 90.2165 57.0195 90.8992 58.6368C90.9216 58.6815 90.9384 58.7263 90.9552 58.7655C91.8618 58.9278 92.7124 58.8998 93.507 58.6703Z" fill="#476CD2"/>
<path fill-rule="evenodd" clip-rule="evenodd" d="M122.525 57.8866C122.222 58.5245 122.043 59.1513 121.999 59.7557C122.082 59.7221 122.155 59.6941 122.239 59.6661C123.924 59.0674 125.496 59.336 126.968 60.472C126.962 60.4776 126.957 60.4832 126.957 60.4944C127.141 60.6343 127.32 60.7854 127.5 60.9533C128.003 60.2537 128.35 59.5374 128.54 58.8211C126.291 57.4948 124.287 57.1871 122.525 57.8866Z" fill="#476CD2"/>
<path fill-rule="evenodd" clip-rule="evenodd" d="M105.705 38.3077C105.929 39.1638 105.906 39.8968 105.638 40.5011C105.28 42.8288 105.145 45.4531 105.168 47.3612C108.519 44.8712 110.467 41.6538 111.021 39.326C110.578 38.5986 110.394 37.7537 110.478 36.7857C110.399 36.3325 110.651 35.4875 111.239 34.2565C113.242 33.904 113.74 32.1918 112.906 30.8377C111.972 30.5019 111.463 31.2797 111.216 32.6898C110.679 32.6114 110.886 31.7441 110.942 31.3413C111.194 30.1662 110.981 29.5339 110.562 28.4204C108.15 30.1382 106.091 30.1942 102.801 29.2262C102.896 30.0263 102.969 30.7985 103.013 31.5427C102.107 33.7641 103.483 37.5523 105.705 38.3077Z" fill="#FCCCAC"/>
<path fill-rule="evenodd" clip-rule="evenodd" d="M102.801 29.2205C106.091 30.1886 108.15 30.1326 110.562 28.4148C110.981 29.5283 111.194 30.155 110.942 31.3356C110.886 31.7385 110.679 32.6058 111.216 32.6842C111.462 31.2741 111.972 30.4963 112.906 30.8321C113.74 32.1862 113.242 33.8984 111.239 34.2509C110.651 35.4819 110.394 36.3268 110.478 36.7801C110.399 37.7481 110.578 38.5986 111.02 39.3204C111.048 39.2085 111.071 39.1022 111.088 38.9959C112.184 39.6338 112.52 40.6857 113.259 41.0774C115.407 41.2845 117.528 41.4523 118.535 42.1629C118.826 42.5211 119.111 42.8736 119.397 43.2261C120.085 41.5922 120.443 40.3948 120.326 39.8632C119.861 37.8376 117.757 38.856 117.797 37.6586C117.852 35.7841 115.251 34.3236 115.597 32.4603C116.303 28.6442 114.837 27.4859 114.825 27.195C114.736 24.3021 113.035 24.2294 111.334 23.2557C108.323 21.5267 105.705 23.6418 104.849 23.6978C100.495 23.9888 102.907 25.8856 100.96 27.5923C99.3538 29.0023 100.115 30.0711 100.277 30.916C100.35 31.2965 100.702 32.8688 99.5888 33.6634C97.9605 34.8272 99.4489 37.2725 98.4865 37.569C94.7878 38.7049 96.4553 39.8352 96.556 42.4595C96.5896 43.2988 96.9757 44.0486 97.496 44.6641C98.3354 43.5674 99.1243 42.5602 99.8741 41.6482C101.726 41.2061 103.108 40.9767 104.02 40.9599C104.412 40.4899 104.988 40.0926 105.755 39.7569C105.71 39.9975 105.671 40.2437 105.632 40.4955C105.9 39.8912 105.923 39.1582 105.699 38.302C103.483 37.5467 102.107 33.7585 103.002 31.5315C102.963 30.7929 102.896 30.0207 102.801 29.2205Z" fill="black"/>
<path fill-rule="evenodd" clip-rule="evenodd" d="M105.705 38.3076C107.048 38.4587 107.658 38.4531 108.9 37.9495C108.172 38.7441 107.154 39.1806 105.85 39.2646C105.844 38.9624 105.794 38.6434 105.705 38.3076Z" fill="#F0C294"/>
<path fill-rule="evenodd" clip-rule="evenodd" d="M15.248 59.1846C11.7228 39.9417 16.2048 33.1264 27.7483 33.0368C30.7979 32.8242 33.8474 32.8969 36.9082 33.2495C38.4246 33.3558 42.7723 35.7115 43.578 36.825C46.0792 39.7626 48.1384 42.3086 51.3278 47.227C56.1511 48.8665 61.9369 51.4404 68.0248 54.5683C68.0416 54.6243 68.0528 54.6914 68.0639 54.7586C68.1815 55.6315 67.8233 57.3437 67.2526 58.4908C67.1966 58.5971 67.1407 58.6978 67.0903 58.7985C60.3869 58.2614 54.6963 56.6107 47.0976 53.5779C44.6356 52.1511 43.1528 51.1998 41.3902 49.8849C38.4917 56.1575 41.2447 66.1286 38.3015 67.7122C34.1384 68.5795 27.8826 68.6522 20.6756 67.5667C20.1552 65.653 19.674 63.5099 19.3215 61.6187C17.5757 61.0871 16.2216 60.2757 15.248 59.1846Z" fill="#FF8000"/>
<path fill-rule="evenodd" clip-rule="evenodd" d="M35.6544 31.3355C35.1508 31.0333 32.258 30.8207 29.3203 31.1509C29.6728 30.7032 29.975 30.1101 30.2156 29.3659C35.4306 29.0637 35.0445 27.7208 34.9102 27.1165C34.1269 24.218 33.6568 22.3883 34.4794 21.6161C34.8431 21.8343 35.6153 22.3379 35.8223 23.5969C36.1636 23.4291 36.6001 23.2052 36.6896 22.8303C36.9134 21.7224 37.0869 19.3891 38.3682 19.3052C38.5249 20.3515 38.648 21.465 38.7375 22.6345C39.409 23.2892 39.2691 25.6561 38.5809 28.3755C38.8606 29.9366 37.8982 30.7648 35.688 30.8543L35.6544 31.3355Z" fill="#FCCCAC"/>
<path fill-rule="evenodd" clip-rule="evenodd" d="M34.9102 27.1222C35.0445 27.7265 35.4362 29.0694 30.2156 29.3716C27.9438 28.8065 26.0805 26.6914 25.8343 25.7905C23.2827 20.4132 26.3043 18.231 27.9046 17.4476C28.716 12.1934 36.158 17.0167 39.9909 14.5603C41.4457 16.6978 39.5377 19.2941 38.3626 19.3165C37.0812 19.3948 36.9078 21.7337 36.684 22.8416C36.5944 23.2109 36.158 23.4404 35.8167 23.6082C35.6096 22.3492 34.843 21.8456 34.4737 21.6274C33.6512 22.394 34.1212 24.2237 34.9102 27.1222Z" fill="black"/>
<path fill-rule="evenodd" clip-rule="evenodd" d="M38.2956 67.7118C40.3659 69.1779 42.0949 80.0387 42.2684 100.306C42.4866 107.91 41.1829 117.982 39.5042 131.226C38.1333 131.82 36.1133 131.903 34.5858 131.82C32.4483 115.391 32.1014 104.9 33.6905 100.591C31.6258 95.3033 29.8967 89.8029 28.5762 84.1906C27.6585 91.9795 26.573 98.157 25.3252 102.729C22.5554 110.047 18.4539 119.633 13.0207 131.484C11.7617 131.657 9.52911 131.271 8.23096 130.409C10.1334 115.912 13.7649 105.011 17.1838 101.402C13.9328 82.8701 16.641 73.2178 20.6754 67.5552C27.8768 68.6519 34.1269 68.5791 38.2956 67.7118Z" fill="#15234A"/>
<path fill-rule="evenodd" clip-rule="evenodd" d="M44.2323 136.442C39.4817 136.665 36.3818 136.923 35.1228 136.358C34.1101 135.904 34.401 134.83 35.0725 133.482C36.6112 133.991 38.1612 133.862 39.7223 133.09C41.0597 134.047 42.9901 134.623 45.5081 134.819C46.6216 135.546 46.2299 136.279 44.2323 136.442ZM12.1869 137.063C9.54579 136.302 7.49784 135.798 6.7984 135.11C6.08218 134.405 6.74804 133.515 7.73285 132.469C9.06458 133.409 10.581 133.739 12.2932 133.465C13.5018 135.211 17.441 134.478 17.8271 135.669C18.3084 137.891 13.2332 137.365 12.1869 137.063Z" fill="#15234A"/>
<path fill-rule="evenodd" clip-rule="evenodd" d="M18.7449 41.4521C17.4579 48.8662 17.9 53.9245 19.3157 61.6183C19.0415 61.54 18.7841 61.4505 18.5267 61.3498C16.6634 52.3914 16.6914 46.6 18.7449 41.4521Z" fill="#EE7700"/>
<path fill-rule="evenodd" clip-rule="evenodd" d="M27.3735 84.1683C25.9578 81.7286 25.1129 79.4904 26.0473 74.9021C25.9354 78.5448 26.7747 81.6391 28.5709 84.1906C27.6532 91.9796 26.5677 98.157 25.3199 102.729C23.3671 107.899 20.7428 114.205 17.4526 121.641C20.1609 113.92 22.6229 107.093 24.8163 101.167C26.3943 94.6318 27.2448 88.9636 27.3735 84.1683Z" fill="#163560"/>
<path fill-rule="evenodd" clip-rule="evenodd" d="M12.1926 131.523C12.0079 132.161 11.9352 132.821 11.9743 133.504C10.5699 133.672 9.29409 133.42 8.1582 132.743C8.47715 132.133 8.71775 131.478 8.88002 130.773C9.88721 131.243 11.1742 131.501 12.1926 131.523ZM35.4139 133.588C35.481 132.989 35.509 132.407 35.4978 131.848C36.589 131.853 37.7864 131.758 38.7992 131.473C38.9111 132.206 39.1237 132.793 39.4259 133.235C38.0774 133.828 36.74 133.946 35.4139 133.588Z" fill="#FCCCAC"/>
<path fill-rule="evenodd" clip-rule="evenodd" d="M29.3206 31.1566C28.7667 31.5987 28.2071 32.2086 27.7427 33.0367C30.7922 32.8241 33.8418 32.8968 36.9025 33.2494C36.5892 32.4716 36.0968 31.7609 35.6491 31.3357C35.1511 31.0335 32.2582 30.8209 29.3206 31.1566Z" fill="#EE7700"/>
<path fill-rule="evenodd" clip-rule="evenodd" d="M76.0708 59.6937C74.6384 59.246 73.7207 58.4459 72.2883 56.991C72.2883 56.728 72.361 56.6105 72.9262 56.4763C73.7431 56.3476 74.4537 56.1069 74.3082 55.4914C73.4409 55.1725 71.6392 54.9655 70.1508 55.6593C69.4793 55.4747 68.7911 55.2788 68.0748 55.0718C68.0916 55.9279 67.8007 57.254 67.353 58.2556C67.5433 58.306 67.7447 58.3675 68.0133 58.4515C69.1772 59.8559 70.2179 61.2044 72.4785 62.234C74.4705 62.7152 76.8486 61.1765 76.0708 59.6937Z" fill="#FCCCAC"/>
<path fill-rule="evenodd" clip-rule="evenodd" d="M36.1472 68.0645C37.8483 62.4298 36.3655 54.0197 37.9098 50.0637C36.4606 48.0661 35.2743 45.7328 34.3511 43.0693C34.8155 44.1549 35.6213 45.2516 36.8299 46.2923C38.7715 47.8647 40.1424 48.9614 41.379 49.8903C38.4861 56.1628 41.2391 66.134 38.2959 67.7175C37.63 67.8518 36.9138 67.9637 36.1472 68.0645Z" fill="#EE7700"/>
<path fill-rule="evenodd" clip-rule="evenodd" d="M75.0082 55.7768C73.7882 54.9821 72.7585 54.6631 71.9191 54.8142C71.6673 55.3906 71.9359 55.8159 72.7193 56.079C72.8816 56.314 72.9712 56.5322 72.9824 56.7449L73.8498 56.6666L75.0082 55.7768Z" fill="#FCCCAC"/>
<path fill-rule="evenodd" clip-rule="evenodd" d="M71.3818 55.2845C71.3035 56.0567 71.7232 56.4821 72.6242 56.5604C72.7025 56.5324 72.8032 56.5044 72.9207 56.4765C72.876 56.3477 72.8088 56.219 72.7137 56.0847C72.1261 55.8833 71.8295 55.6035 71.8239 55.2285C71.6784 55.2397 71.5329 55.2565 71.3818 55.2845Z" fill="#F0C294"/>
<path fill-rule="evenodd" clip-rule="evenodd" d="M76.519 59.3471C75.176 58.8323 73.9952 58.0153 72.9711 56.9072C72.9711 56.9072 72.9711 56.9128 72.9711 56.9184C72.792 56.9968 72.6129 57.0695 72.4395 57.1423C73.7881 58.5021 74.6891 59.2632 76.0713 59.6941C76.228 59.5822 76.3791 59.4647 76.519 59.3471Z" fill="#F0C294"/>
<path fill-rule="evenodd" clip-rule="evenodd" d="M67.8007 59.0276C68.6514 60.2699 69.6363 61.1989 70.7499 61.8145C70.8562 61.8424 70.9626 61.8648 71.0745 61.8928C71.2368 61.848 71.3991 61.8033 71.5558 61.7585C69.9105 60.8071 69.0039 59.6543 68.0134 58.4512C67.9462 58.4624 67.8791 58.4736 67.8119 58.4792C67.7952 58.675 67.7896 58.8541 67.8007 59.0276Z" fill="#F0C294"/>
</svg>
