<svg width="214" height="118" viewBox="0 0 214 118" fill="none" xmlns="http://www.w3.org/2000/svg">
<path d="M212.966 101.679C212.877 101.945 212.788 102.301 212.788 102.568C211.543 107.282 209.231 112.351 205.584 117.599L187.352 117.51H186.373L87.8282 117.243H86.672L67.55 117.154H66.3048L5.64807 116.976C5.64807 116.976 -10.0942 98.4768 10.9844 81.1336C20.8567 73.0401 34.1087 74.2853 44.2478 73.218C44.6925 73.1291 45.1372 73.1291 45.5819 73.0401C56.2547 71.6171 62.9251 66.9033 56.7883 43.5122C55.9878 40.3104 55.6321 37.1085 55.81 33.9067C55.81 33.462 55.8989 33.0173 55.8989 32.5726C57.9445 10.8714 81.6914 -7.80593 109.085 3.31151C109.618 3.48939 110.063 3.75621 110.597 3.93409C116.645 6.60227 122.87 10.7824 129.007 16.6524C134.166 21.5441 138.702 26.08 142.704 30.0823C143.149 30.527 143.593 30.9717 144.038 31.4164C163.249 51.072 169.919 60.5886 180.147 66.1918C180.414 66.3697 180.681 66.4586 180.948 66.6365C183.883 68.1484 187.263 69.3936 191.265 70.4609C195.623 71.6171 199.358 73.3069 202.56 75.3525C202.827 75.5304 203.094 75.7083 203.361 75.8862C211.721 81.7562 215.456 90.7391 212.966 101.679Z" fill="#E4EBF7"/>
<path d="M75.9672 104.455C76.8082 108.082 78.1224 112.182 79.4366 116.019H101.252C101.725 114.442 102.251 112.708 102.671 110.92C105.352 100.459 102.514 91.4705 99.9903 87.3702C97.4671 83.27 95.2593 78.4338 99.1492 72.4412C103.039 66.4485 103.407 61.8226 103.407 61.8226C102.829 59.5622 101.094 58.7737 96.5209 56.6185C96.5209 56.6185 96.2581 56.5133 95.8375 56.4082C94.8913 60.3507 92.8412 63.5048 89.2141 64.1356C84.483 64.9766 80.2251 62.0855 78.0698 57.039C75.9672 57.6698 73.6542 58.3006 72.5503 58.9314C72.5503 58.9314 78.3327 71.495 79.4366 78.5915C80.4879 85.6355 73.3388 93.3103 75.9672 104.455Z" fill="#FF8000"/>
<path d="M89.1612 64.0826C92.7883 63.4518 94.8384 60.2978 95.7846 56.3553C94.2602 55.8296 90.6856 54.6206 89.6868 54.0949C88.4252 53.4641 88.7932 48.3125 88.7932 48.3125L82.0646 50.3101C82.0646 52.623 82.0646 54.4103 82.0646 55.3039C82.0646 55.777 80.1722 56.3553 77.9644 57.0386C80.1722 62.0325 84.4301 64.9237 89.1612 64.0826Z" fill="url(#paint0_linear_2_21386)"/>
<path d="M92.9464 79.5903C89.9501 80.4839 87.1114 81.5353 85.6396 81.5353C82.6958 81.5353 78.2802 77.3825 76.23 79.9057C74.1799 82.4289 73.8645 84.1111 75.4941 85.2675C77.1237 86.3714 82.2753 84.847 84.7459 85.3201C85.8498 85.5304 89.5821 85.7406 93.5772 85.6881C93.8926 84.1111 93.84 81.2199 92.9464 79.5903Z" fill="url(#paint1_linear_2_21386)"/>
<path d="M103.512 61.875C102.829 59.089 97.0988 64.188 98.5181 68.8665C99.7271 72.8616 99.3066 78.2234 99.3066 78.2234L104.931 83.9006C106.771 81.5351 104.09 64.0829 103.512 61.875Z" fill="#F37A00"/>
<path d="M101.146 78.2235C98.991 77.9081 95.8896 78.6966 92.9458 79.6428C93.8394 81.2198 93.892 84.1635 93.5766 85.7406C98.5179 85.688 103.827 85.2149 104.879 83.9007C104.879 83.8481 107.402 79.1171 101.146 78.2235Z" fill="#F37A00"/>
<path d="M80.5398 40.6906C79.3833 43.0035 79.4885 50.7835 82.7476 51.4668C85.5863 52.0976 87.2158 49.3116 87.2158 49.3116V44.16C87.2158 44.16 85.5863 43.3189 85.376 41.3214C85.2183 39.7444 84.2721 39.5867 84.2721 39.5867C84.2721 39.5867 82.3271 40.7431 80.5398 40.6906Z" fill="url(#paint2_linear_2_21386)"/>
<path d="M75.4412 78.5387C73.9694 75.5424 72.9706 71.8101 72.1295 69.7074C70.4999 65.7123 70.2371 60.1402 72.4975 58.8786C76.6503 56.7234 78.4376 64.0828 78.7004 66.1854C78.9632 68.2881 79.5415 73.282 81.1185 75.0693L75.4412 78.5387Z" fill="#F37A00"/>
<path d="M93.8923 52.8336C91.0537 51.0463 94.2077 41.3214 89.4767 37.5891C85.5867 34.4876 79.3838 36.8006 79.3838 42.6355C79.3838 45.0011 79.3838 53.0438 79.3838 56.5658C80.9082 56.0927 82.0647 55.6196 82.0647 55.2516V51.2565V51.1514C79.4889 49.5218 79.4364 42.7932 80.5403 40.638C82.3275 40.6906 84.2725 39.5341 84.2725 39.5341C84.2725 39.5341 85.2187 39.6918 85.3764 41.2688C85.5867 43.2663 87.2163 44.1074 87.2163 44.1074V49.259C87.2163 54.0952 88.3728 59.4044 91.1588 59.7199C93.9449 60.0353 94.418 56.3556 96.5207 56.6184C96.4681 56.6184 96.7309 54.5683 93.8923 52.8336Z" fill="black"/>
<path d="M79.4891 71.4949C77.9646 73.5976 75.5465 75.4374 75.4414 78.5389C76.7556 81.1672 78.4377 83.2173 80.8033 82.9545C84.2727 82.5865 85.4817 78.4863 85.9023 74.754C83.5893 74.9117 80.6455 73.0719 79.4891 71.4949Z" fill="#F37A00"/>
<path d="M84.7457 52.5181C84.0623 52.8335 81.7493 54.8837 81.7493 55.3568C81.7493 55.8824 82.8007 59.7198 82.8007 60.8763C82.8007 62.0328 81.7493 67.1844 80.33 70.1807C80.1197 70.6538 79.8569 71.0743 79.5415 71.4949C80.698 73.0719 83.6417 74.9117 85.9547 74.7014C86.1124 73.0193 86.165 71.4423 86.165 70.2858C86.165 70.2858 86.4278 61.7174 86.7958 61.1391C87.1637 60.5609 87.1637 59.6673 87.1637 58.8788C87.1637 57.4069 87.1637 57.3017 87.1637 57.3017C87.1637 57.3017 87.6894 57.2492 87.742 56.3555C87.742 56.303 87.742 56.303 87.742 56.2504C87.6368 55.2516 85.3765 52.2027 84.7457 52.5181Z" fill="url(#paint3_linear_2_21386)"/>
<path d="M141.518 56.3032C141.518 64.6088 141.518 81.2726 141.518 81.2726C141.518 81.2726 149.824 81.5354 149.613 81.2726C149.351 81.0098 149.613 69.6553 149.613 69.6553L141.518 56.3032Z" fill="#4267CC"/>
<path d="M157.971 83.9011C158.655 88.5795 158.234 93.8888 157.971 95.8864C157.709 97.8839 151.769 115.862 151.769 115.862H166.225L170.22 96.8326L164.963 82.2715L157.971 83.9011Z" fill="url(#paint4_linear_2_21386)"/>
<path d="M157.971 83.9011C158.655 88.5795 158.234 93.8888 157.971 95.8864C157.708 97.8839 150.612 116.02 150.612 116.02H166.224L170.219 96.8326L164.963 82.2715L157.971 83.9011Z" fill="#FD7F02"/>
<path d="M175.003 78.9595C177.106 85.6355 186.673 87.7907 184.045 98.567C182.152 106.347 178.262 116.072 178.262 116.072H160.232C160.232 116.072 165.909 99.1452 165.909 96.8849C165.909 94.6245 162.335 83.1123 162.335 83.1123L175.003 78.9595Z" fill="#FF8000"/>
<path d="M144.462 50.6257C142.359 51.6245 140.414 56.1453 142.359 60.4032C144.304 64.6612 144.567 63.8726 145.303 67.2369C146.039 70.5487 145.776 72.3885 151.821 76.5413C157.919 80.6941 157.708 81.798 158.024 83.9007C158.287 86.0034 175.424 85.5829 175.161 77.6452C174.898 69.7076 175.318 60.5609 170.219 56.2504C165.068 51.9399 144.462 50.6257 144.462 50.6257Z" fill="#476CD2"/>
<path d="M142.307 40.8484V64.6613C142.307 64.6613 150.928 60.0354 150.875 55.5146C150.823 50.9938 146.985 40.901 146.985 40.901H142.307V40.8484Z" fill="black"/>
<path d="M148.404 55.094C148.404 55.094 149.561 56.9338 149.929 57.7749C150.297 58.5634 148.562 62.138 149.14 65.1343C149.718 68.1832 153.451 67.6575 154.292 65.1343C154.555 64.3984 155.238 58.9839 155.238 58.9839V50.1001L148.404 55.094Z" fill="url(#paint5_linear_2_21386)"/>
<path d="M143.305 40.1648C142.149 47.4716 143.41 54.2528 146.932 55.0413C150.454 55.8298 155.501 51.9924 155.501 48.5755C155.501 45.1587 158.918 36.2748 155.028 34.2773C151.19 32.2272 144.094 35.4863 143.305 40.1648Z" fill="url(#paint6_linear_2_21386)"/>
<path d="M146.302 39.4818C146.302 39.4818 144.462 41.0063 143.095 41.8473C141.729 42.6358 142.096 38.0099 144.672 35.8547C147.301 33.6994 150.717 31.807 152.137 33.0686C152.137 33.0686 156.5 31.8596 159.128 36.3278C161.757 40.796 161.967 44.7911 162.808 45.895C163.649 46.9989 165.016 47.6823 164.385 49.785C164.385 49.785 169.011 48.8388 169.747 52.0454C170.43 55.2519 170.22 56.3033 170.22 56.3033C170.22 56.3033 168.801 55.1994 165.804 54.148C165.804 54.148 163.807 55.7251 161.914 55.7251C160.022 55.7251 157.604 63.3998 154.292 63.3998L154.239 45.0539C154.239 45.0539 146.67 44.1077 146.302 39.4818Z" fill="black"/>
<path d="M103.933 78.3809C95.1543 87.5275 87.6372 115.388 87.6372 115.388H100.201L108.086 96.8845L103.933 78.3809Z" fill="#15234A"/>
<path d="M149.614 79.853C147.774 77.7504 137.997 70.9166 125.538 71.6526C114.552 72.336 105.668 75.7002 103.933 78.3286C102.672 80.2736 105.458 93.3102 107.35 98.4618C109.295 103.666 110.136 109.185 110.136 113.917C110.136 113.917 141.203 113.759 141.361 113.917C141.519 114.074 145.198 102.457 145.724 96.6745C146.25 90.8921 145.146 84.5315 149.614 79.853Z" fill="#15234A"/>
<path d="M132.792 60.8765C132.792 60.8765 132.95 70.5488 132.792 73.44C132.635 76.3312 128.167 78.907 126.537 79.0121C124.855 79.0647 121.228 76.6466 120.649 72.5464V63.8202L132.792 60.8765Z" fill="url(#paint7_linear_2_21386)"/>
<path d="M117.39 57.0912C117.863 64.1878 120.755 71.0215 125.275 70.2856C130.953 69.3919 132.687 60.7709 132.424 56.0924C132.214 51.414 129.533 48.4702 125.486 48.4702C121.648 48.5228 116.97 51.1511 117.39 57.0912Z" fill="url(#paint8_linear_2_21386)"/>
<path d="M133.791 59.4568C133.476 60.8761 132.792 61.9275 132.266 61.8223C131.741 61.7172 131.531 60.5081 131.846 59.0888C132.161 57.6695 132.845 56.6182 133.37 56.7233C133.896 56.8284 134.054 58.0375 133.791 59.4568Z" fill="url(#paint9_linear_2_21386)"/>
<path d="M117.443 58.2476C116.602 56.9334 116.497 56.4077 116.602 54.1999C116.655 51.9921 118.494 51.9395 118.494 50.9933C118.442 50.0471 119.651 47.5239 124.54 47.3136C129.428 47.1033 129.113 49.3637 130.637 49.5214C132.162 49.6791 134.475 51.2036 133.371 56.7757C133.371 56.7757 132.057 56.8808 131.531 59.5617C131.478 59.772 131.216 59.8246 131.111 59.6669C130.953 59.4566 130.795 59.0886 130.637 58.6155C130.269 57.2488 128.798 59.2989 128.535 56.618C128.324 54.7256 123.699 58.195 120.229 55.0935C120.229 55.0935 119.703 55.7769 118.232 55.7243C117.391 55.7243 117.443 58.2476 117.443 58.2476Z" fill="black"/>
<path d="M120.597 83.7956C120.597 83.7956 121.017 84.3213 121.753 83.1648C122.489 82.0084 125.065 78.5389 125.959 78.8543C124.171 78.4864 121.122 76.1208 120.597 72.4411V72.1257C119.177 72.336 117.758 72.5463 116.496 72.8617C116.129 74.9118 117.653 81.5352 120.597 83.7956Z" fill="#060F27"/>
<path d="M132.792 73.3872C132.634 75.9104 129.27 78.1708 127.272 78.8016C128.219 78.4336 131.636 82.9544 132.214 83.9532C132.792 84.9519 133.896 83.5852 135 80.8517C135.788 78.8542 136.997 75.3847 136.472 72.9141C135.315 72.5987 134.106 72.3358 132.792 72.073C132.845 72.5987 132.792 73.0718 132.792 73.3872Z" fill="#060F27"/>
<path d="M120.597 72.4936V70.3909C118.757 71.1794 117.075 71.8627 116.917 72.9141C116.549 74.9642 118.179 80.9043 120.597 83.007C120.597 83.007 121.017 83.5326 121.753 82.3762C122.489 81.2197 125.065 78.5913 125.959 78.9593C124.171 78.5388 121.122 76.1733 120.597 72.4936Z" fill="#15234A"/>
<path d="M135.841 72.1254C135.316 70.969 133.686 70.0753 132.845 69.6548C132.845 71.1792 132.845 72.5985 132.792 73.387C132.635 75.9103 129.27 78.1707 127.273 78.8015C128.219 78.4335 131.636 82.0606 132.214 83.0594C132.793 84.0582 133.528 82.9017 134.737 80.1682C135.999 77.4347 136.682 73.9653 135.841 72.1254Z" fill="#15234A"/>
<path d="M155.659 108.187C155.659 100.197 153.346 84.1111 149.614 79.9058C149.614 79.9058 143.831 83.0072 141.991 92.8373C141.466 95.781 142.359 104.139 142.622 107.714L155.659 108.187Z" fill="#15234A"/>
<path d="M133.055 116.072C133.055 116.072 148.037 116.072 150.613 116.072C153.241 116.072 156.027 113.969 155.606 108.187C155.238 102.404 145.776 103.245 142.57 107.661L132.897 109.133L133.055 116.072Z" fill="#15234A"/>
<path d="M124.171 115.704L125.013 114.915L127.536 115.809C127.956 115.967 128.429 116.019 128.903 116.019H133.896C133.896 116.019 136.262 115.494 136.367 112.708C136.42 109.922 134.054 109.08 133.003 109.08H127.483C127.22 109.08 126.958 109.028 126.642 108.975L122.752 108.134C122.174 108.029 121.596 108.134 121.07 108.397L118.862 109.659C118.442 109.922 118.021 110.184 117.706 110.552L113.658 114.6C113.132 115.126 113.5 115.967 114.236 115.967H123.33C123.646 116.072 123.961 115.914 124.171 115.704Z" fill="url(#paint10_linear_2_21386)"/>
<path d="M170.799 57.2492C167.014 55.0939 160.443 61.2443 161.862 68.6037C163.281 75.963 155.239 85.0046 155.239 85.0046C155.239 85.0046 146.145 88.6843 142.465 89.3677C143.358 90.6293 144.357 92.4691 144.778 94.8346C150.77 94.3615 159.339 93.0999 162.808 90.2087C168.065 85.8457 173.637 69.7076 173.637 64.6085C173.637 58.6685 170.799 57.2492 170.799 57.2492Z" fill="#4267CC"/>
<path d="M141.519 89.4728C138.89 89.4728 129.744 89.4728 129.744 89.4728C129.744 89.4728 121.333 92.3114 121.123 92.7845C120.912 93.2576 120.492 96.1488 121.123 96.8322C121.754 97.5156 126.064 98.7246 127.115 98.5143C128.219 98.3041 136.735 95.1501 138.68 95.1501C139.363 95.1501 141.729 95.0975 144.778 94.8347C144.305 92.4691 143.306 90.5767 142.465 89.3677C142.097 89.4202 141.782 89.4728 141.519 89.4728Z" fill="url(#paint11_linear_2_21386)"/>
<path d="M66.0317 81.6403C66.0317 81.6403 68.9755 83.9533 72.0244 81.6403C75.0207 79.3274 72.9706 75.3323 72.9706 75.3323L66.0843 79.012V81.6403H66.0317Z" fill="url(#paint12_linear_2_21386)"/>
<path d="M70.2896 59.7197V77.2246H64.6123V60.7185L70.2896 59.7197Z" fill="#4267CC"/>
<path d="M61.0378 103.14C60.5121 106.031 57.4106 110.132 55.4131 116.072H66.715C67.8189 108.975 68.7651 99.4605 67.2407 90.9446H60.6698C61.3006 93.8358 61.5109 100.407 61.0378 103.14Z" fill="#15234A"/>
<path d="M50.209 102.509C50.209 102.509 51.5232 108.87 52.4168 116.072H55.4131C57.4107 110.184 60.5121 106.084 61.0378 103.14C61.5635 100.407 61.3006 93.8358 60.7224 90.9446H50.4718L50.209 102.509Z" fill="url(#paint13_linear_2_21386)"/>
<path d="M60.6697 90.9447C60.6171 90.5767 60.512 90.2613 60.4068 90.051H40.7993C41.0622 99.5131 41.7981 108.87 42.2712 116.072H55.3604C57.358 110.184 60.4594 106.084 60.9851 103.14C61.5108 100.407 61.3005 93.8359 60.6697 90.9447Z" fill="#182752"/>
<path d="M54.2042 44.2126C42.5868 41.1112 34.7543 46.2627 33.4927 53.7273C32.3363 60.5084 40.8521 81.5878 40.8521 90.0511C40.8521 90.0511 54.6247 97.1477 67.2408 90.9448C67.2408 90.9448 65.3484 81.9032 67.2408 73.913C69.1332 65.9228 71.6564 61.3495 69.5012 55.6197C67.6088 50.6258 59.6186 45.6319 54.2042 44.2126Z" fill="#476CD2"/>
<path d="M58.5144 36.5377C58.5144 36.5377 54.1514 42.0572 52.3115 43.7919C50.4717 45.5266 53.8885 49.1538 56.4643 50.6782C58.199 51.677 61.7736 52.7809 60.7222 49.6794C60.7222 49.6794 60.144 47.9447 63.0352 45.4215C62.9826 45.3689 59.776 35.7491 58.5144 36.5377Z" fill="url(#paint14_linear_2_21386)"/>
<path d="M60.2494 35.539C60.6173 33.4363 58.7249 33.2786 58.1467 35.0133C57.4633 37.0108 58.1993 38.4301 58.9878 37.957C58.9878 37.957 57.5159 42.4778 59.3557 45.2113C61.2482 47.9448 63.6662 46.8935 66.6626 43.9497C69.2384 41.4265 70.9205 38.2724 71.1833 37.116C71.8667 34.0145 68.6075 31.4387 65.5587 31.649C61.879 31.7541 60.2494 35.539 60.2494 35.539Z" fill="url(#paint15_linear_2_21386)"/>
<path d="M60.2496 35.5389C60.1445 36.8005 60.3547 37.7467 61.0381 37.3262C61.774 36.9056 63.5087 34.435 65.0332 36.2223C66.6102 38.0096 67.8718 39.6917 70.6579 39.3763C74.2324 39.0083 75.0735 34.1196 71.9195 33.2259C71.9195 33.2259 73.2862 31.5438 70.8681 30.7553C68.6078 30.0194 68.5552 30.4925 66.9782 28.7052C66.0845 27.7064 60.6701 28.2321 59.1982 33.8042C59.1982 33.8568 60.4599 33.5939 60.2496 35.5389Z" fill="#001462"/>
<path d="M42.4816 71.4422C42.5868 69.0241 44.1112 62.7686 46.2139 58.7209C48.3166 54.7258 47.2652 49.5742 44.4266 47.5241C41.588 45.5266 37.5929 45.8945 35.7005 48.6806C30.6015 56.1977 32.0734 73.0717 34.8594 78.8016C35.3851 79.958 36.6993 80.694 38.4865 81.1145C34.544 79.3272 38.434 70.4959 42.4816 71.4422Z" fill="#4267CC"/>
<path d="M57.4107 78.3289L65.033 69.1297C65.3484 68.7092 65.874 68.5515 66.3997 68.7092L79.3312 72.2837C79.6466 72.3889 79.7517 72.7568 79.4889 73.0197L69.7114 81.8509C69.5012 82.0612 69.2383 82.1138 68.9229 82.0612L57.7261 79.4328C57.3056 79.2226 57.1479 78.6969 57.4107 78.3289Z" fill="#15234A"/>
<path d="M66.5574 74.649C66.1369 73.3874 64.8227 72.4411 64.0868 72.2309C63.5611 72.0732 59.566 72.1257 57.4108 72.1783C56.5697 72.1783 55.7812 72.4411 55.0452 72.8617C54.3619 73.2822 53.5208 73.7553 53.1003 73.7553C52.3643 73.7553 46.3717 73.7553 46.3717 73.7553C46.3717 73.7553 44.5318 72.336 42.3766 71.3898C38.3289 70.4436 34.4915 79.2749 38.3289 81.0621C44.8472 82.6917 57.6736 80.3262 63.0354 78.4864C64.2445 78.0658 65.2958 77.3299 66.0318 76.2785C66.5049 75.7529 66.7677 75.1746 66.5574 74.649Z" fill="url(#paint16_linear_2_21386)"/>
<path d="M20.9292 116.072L42.5868 115.914L64.1919 115.862L107.507 115.809L150.823 115.862L172.428 115.914L194.085 116.072L172.428 116.177L150.823 116.23L107.507 116.335L64.1919 116.23L42.5868 116.177L20.9292 116.072Z" fill="#001462"/>
<path d="M112.291 117.544H130.742C131.793 117.544 132.634 116.703 132.634 115.651C132.634 115.178 132.266 114.758 131.741 114.758H112.238C111.765 114.758 111.345 115.126 111.345 115.651V116.703C111.45 117.123 111.818 117.544 112.291 117.544Z" fill="#868B9A"/>
<path d="M79.6467 117.544H118.178C119.65 117.544 120.754 116.124 120.334 114.705L113.553 89.9459C113.132 88.3163 111.66 87.2124 109.978 87.2124H71.4462C69.9744 87.2124 68.8705 88.6317 69.291 90.051L76.0722 114.81C76.5453 116.387 77.9646 117.544 79.6467 117.544Z" fill="#8E95A9"/>
<path d="M192.719 98.3569C192.14 98.5146 191.352 99.1454 190.458 100.039C189.565 100.88 188.566 101.879 187.357 102.825C186.621 103.403 185.885 103.929 185.149 104.455C184.465 104.98 183.782 105.453 183.151 105.979C181.942 106.978 180.996 107.924 180.681 108.608C180.996 107.872 181.154 106.557 181.732 104.98C182.047 104.192 182.468 103.351 183.046 102.457C183.624 101.616 184.36 100.828 185.254 100.092C186.778 98.9877 188.408 98.5672 189.775 98.4621C191.142 98.3044 192.14 98.5146 192.719 98.3569Z" fill="#476CD2"/>
<path d="M180.208 107.977C180.26 107.241 179.892 106.084 179.682 104.56C179.419 103.036 179.314 101.143 179.787 99.0931C180.365 96.5698 181.469 94.4672 182.521 92.785C183.572 91.1029 184.571 89.8938 184.939 89.0527C184.571 89.8938 184.36 91.4708 184.15 93.3632C183.94 95.2557 183.677 97.516 183.151 99.829C182.731 101.774 181.995 103.404 181.417 104.77C180.786 106.19 180.26 107.294 180.208 107.977Z" fill="#476CD2"/>
<path d="M169.484 95.5706C170.062 95.8334 171.166 95.8334 172.533 96.2539C173.9 96.6219 175.529 97.4104 176.896 98.8823C178.525 100.722 179.314 102.825 179.629 104.612C179.997 106.399 179.892 107.819 180.05 108.607C179.892 107.766 179.104 106.557 178.052 105.295C177.001 103.981 175.634 102.667 174.32 101.143C173.216 99.9336 172.375 98.672 171.587 97.6207C170.851 96.6219 170.115 95.8334 169.484 95.5706Z" fill="#476CD2"/>
<path d="M187.147 103.876H175.74C175.161 103.876 174.688 104.402 174.741 104.98L176.108 116.598C176.16 117.123 176.581 117.491 177.106 117.491H185.727C186.253 117.491 186.674 117.123 186.726 116.598L188.093 104.98C188.198 104.402 187.725 103.876 187.147 103.876Z" fill="#15234A"/>
<path d="M174.162 103.929L174.688 108.239C174.74 108.502 174.898 108.66 175.161 108.66H187.672C187.935 108.66 188.092 108.502 188.145 108.239L188.671 103.929C188.723 103.666 188.46 103.403 188.198 103.403H174.635C174.372 103.403 174.162 103.614 174.162 103.929Z" fill="#203265"/>
<defs>
<linearGradient id="paint0_linear_2_21386" x1="92.5935" y1="51.6241" x2="83.216" y2="60.0638" gradientUnits="userSpaceOnUse">
<stop stop-color="#F6B3B5"/>
<stop offset="1" stop-color="#FAD1D3"/>
</linearGradient>
<linearGradient id="paint1_linear_2_21386" x1="81.4863" y1="78.3186" x2="85.3866" y2="84.587" gradientUnits="userSpaceOnUse">
<stop stop-color="#F6B3B5"/>
<stop offset="1" stop-color="#FAD1D3"/>
</linearGradient>
<linearGradient id="paint2_linear_2_21386" x1="85.5898" y1="38.2116" x2="81.0888" y2="55.5123" gradientUnits="userSpaceOnUse">
<stop stop-color="#F6B3B5"/>
<stop offset="1" stop-color="#FAD1D3"/>
</linearGradient>
<linearGradient id="paint3_linear_2_21386" x1="76.4368" y1="63.6117" x2="88.5154" y2="63.6117" gradientUnits="userSpaceOnUse">
<stop stop-color="#F6B3B5"/>
<stop offset="1" stop-color="#FAD1D3"/>
</linearGradient>
<linearGradient id="paint4_linear_2_21386" x1="160.879" y1="123.821" x2="161.279" y2="72.9591" gradientUnits="userSpaceOnUse">
<stop stop-color="#001462"/>
<stop offset="0.0686931" stop-color="#081E71"/>
<stop offset="0.2519" stop-color="#193595"/>
<stop offset="0.4371" stop-color="#2748B0"/>
<stop offset="0.623" stop-color="#3055C4"/>
<stop offset="0.8101" stop-color="#365CD0"/>
<stop offset="1" stop-color="#385FD4"/>
</linearGradient>
<linearGradient id="paint5_linear_2_21386" x1="155.83" y1="57.2316" x2="147.333" y2="63.2213" gradientUnits="userSpaceOnUse">
<stop stop-color="#F6B3B5"/>
<stop offset="0.9914" stop-color="#FAD1D3"/>
</linearGradient>
<linearGradient id="paint6_linear_2_21386" x1="150.779" y1="42.9327" x2="144.372" y2="50.5941" gradientUnits="userSpaceOnUse">
<stop stop-color="#F6B3B5"/>
<stop offset="0.9914" stop-color="#FAD1D3"/>
</linearGradient>
<linearGradient id="paint7_linear_2_21386" x1="134.749" y1="67.0211" x2="118.869" y2="73.2895" gradientUnits="userSpaceOnUse">
<stop stop-color="#F6B3B5"/>
<stop offset="0.9914" stop-color="#FAD1D3"/>
</linearGradient>
<linearGradient id="paint8_linear_2_21386" x1="125.923" y1="46.2623" x2="123.695" y2="69.6643" gradientUnits="userSpaceOnUse">
<stop stop-color="#F6B3B5"/>
<stop offset="0.9914" stop-color="#FAD1D3"/>
</linearGradient>
<linearGradient id="paint9_linear_2_21386" x1="123.652" y1="91.2931" x2="133.545" y2="56.6654" gradientUnits="userSpaceOnUse">
<stop stop-color="#8CC6FF"/>
<stop offset="1" stop-color="#F6B3B5"/>
</linearGradient>
<linearGradient id="paint10_linear_2_21386" x1="124.914" y1="116.632" x2="124.914" y2="106.872" gradientUnits="userSpaceOnUse">
<stop stop-color="#F6B3B5"/>
<stop offset="0.9914" stop-color="#FAD1D3"/>
</linearGradient>
<linearGradient id="paint11_linear_2_21386" x1="135.185" y1="102.235" x2="130.728" y2="89.2808" gradientUnits="userSpaceOnUse">
<stop stop-color="#F6B3B5"/>
<stop offset="0.9914" stop-color="#FAD1D3"/>
</linearGradient>
<linearGradient id="paint12_linear_2_21386" x1="83.2576" y1="76.3749" x2="66.2837" y2="80.0648" gradientUnits="userSpaceOnUse">
<stop stop-color="#8CC6FF"/>
<stop offset="0.00565128" stop-color="#97C4F7"/>
<stop offset="0.01562" stop-color="#B5BFE3"/>
<stop offset="0.0286519" stop-color="#E5B6C1"/>
<stop offset="0.0329884" stop-color="#F6B3B5"/>
<stop offset="0.9908" stop-color="#0060FF"/>
</linearGradient>
<linearGradient id="paint13_linear_2_21386" x1="26.2027" y1="97.6826" x2="116.608" y2="115.037" gradientUnits="userSpaceOnUse">
<stop offset="0.1048" stop-color="#001462"/>
<stop offset="0.2974" stop-color="#142E8A"/>
<stop offset="0.49" stop-color="#2343AA"/>
<stop offset="0.6752" stop-color="#2F53C1"/>
<stop offset="0.8491" stop-color="#365CCF"/>
<stop offset="1" stop-color="#385FD4"/>
</linearGradient>
<linearGradient id="paint14_linear_2_21386" x1="56.4239" y1="37.4418" x2="58.2525" y2="52.2811" gradientUnits="userSpaceOnUse">
<stop stop-color="#F6B3B5"/>
<stop offset="1" stop-color="#FAD1D3"/>
</linearGradient>
<linearGradient id="paint15_linear_2_21386" x1="71.3693" y1="29.2128" x2="57.6552" y2="44.7553" gradientUnits="userSpaceOnUse">
<stop stop-color="#F6B3B5"/>
<stop offset="1" stop-color="#FAD1D3"/>
</linearGradient>
<linearGradient id="paint16_linear_2_21386" x1="51.7268" y1="81.2507" x2="51.7268" y2="71.9084" gradientUnits="userSpaceOnUse">
<stop stop-color="#F6B3B5"/>
<stop offset="1" stop-color="#FAD1D3"/>
</linearGradient>
</defs>
</svg>
