<svg width="118" height="23" viewBox="0 0 118 23" fill="none" xmlns="http://www.w3.org/2000/svg">
<g opacity="0.7">
<path d="M16.0959 6.67687V22.5366H11.9899L11.6607 20.7515C11.0947 21.5067 10.3902 22.0731 9.54702 22.4507C8.71541 22.8169 7.78563 23 6.75767 23C4.84036 23 3.36195 22.4393 2.32244 21.3179C1.28294 20.1851 0.763184 18.646 0.763184 16.7007V6.67687H5.73549V15.9627C5.73549 16.9468 5.96649 17.6562 6.4285 18.091C6.8905 18.5259 7.56041 18.7433 8.43821 18.7433C9.29292 18.7433 9.95127 18.4801 10.4133 17.9537C10.8868 17.4274 11.1236 16.7179 11.1236 15.8254V6.67687H16.0959Z" fill="black"/>
<path d="M28.4494 6.12761C30.3667 6.12761 31.8567 6.72264 32.9193 7.91269C33.9935 9.10274 34.5305 10.699 34.5305 12.7015V22.5366H29.5582V13.8515C29.5582 11.6774 28.6573 10.5903 26.8555 10.5903C25.9084 10.5903 25.1923 10.8649 24.7072 11.4142C24.2221 11.9634 23.9795 12.7301 23.9795 13.7142V22.5366H19.0592V6.67687H23.1653L23.4944 8.41045C23.9911 7.71244 24.6783 7.15746 25.5561 6.74552C26.4455 6.33358 27.4099 6.12761 28.4494 6.12761Z" fill="black"/>
<path d="M47.2652 0C49.4597 0 51.4232 0.486318 53.1557 1.45896C54.8998 2.43159 56.2627 3.78184 57.2445 5.5097C58.2262 7.22612 58.7171 9.17711 58.7171 11.3627C58.7171 13.5139 58.232 15.442 57.2618 17.147C56.2916 18.8405 54.9344 20.1622 53.1904 21.1119C51.4579 22.0617 49.4828 22.5366 47.2652 22.5366H37.9963V0H47.2652ZM46.7628 17.9022C48.7494 17.9022 50.326 17.3015 51.4925 16.1C52.6706 14.8871 53.2597 13.308 53.2597 11.3627C53.2597 9.34876 52.6706 7.7296 51.4925 6.50522C50.326 5.2694 48.7494 4.65149 46.7628 4.65149H43.1765V17.9022H46.7628Z" fill="black"/>
<path d="M69.7019 6.53955C70.2217 6.53955 70.7183 6.58532 71.1919 6.67687V10.9336C71.0302 10.9107 70.7818 10.8993 70.4469 10.8993C69.0262 10.8993 67.929 11.2711 67.1551 12.0149C66.3928 12.7473 66.0117 13.7828 66.0117 15.1216V22.5366H61.0567V6.67687H65.5959L65.9077 8.82239C66.1734 8.06716 66.6411 7.50075 67.311 7.12313C67.9809 6.73408 68.7779 6.53955 69.7019 6.53955Z" fill="black"/>
<path d="M89.8517 6.67687V22.5366H85.0873V20.7172C84.5445 21.4152 83.7879 21.9701 82.8177 22.3821C81.8475 22.794 80.7965 23 79.6646 23C78.1746 23 76.8521 22.6567 75.6971 21.9701C74.5536 21.2721 73.6701 20.3052 73.0464 19.0694C72.4227 17.8221 72.1108 16.3746 72.1108 14.7269C72.1108 13.0104 72.4457 11.5057 73.1157 10.2127C73.7856 8.91965 74.7269 7.91841 75.9397 7.20895C77.164 6.48806 78.5557 6.12761 80.115 6.12761C82.4135 6.12761 84.1633 6.82562 85.3645 8.22164L85.6937 6.67687H89.8517ZM80.9813 18.5716C82.1363 18.5716 83.0718 18.2055 83.7879 17.4731C84.5156 16.7294 84.8794 15.7453 84.8794 14.5209C84.8794 13.3308 84.5156 12.3754 83.7879 11.6545C83.0718 10.9221 82.1363 10.556 80.9813 10.556C79.8262 10.556 78.9022 10.9279 78.2092 11.6716C77.5162 12.404 77.1697 13.3652 77.1697 14.5552C77.1697 15.7453 77.5162 16.7122 78.2092 17.456C78.9138 18.1998 79.8378 18.5716 80.9813 18.5716Z" fill="black"/>
<path d="M96.9384 6.67687L97.9606 10.2985C98.6189 12.6443 99.104 14.5552 99.4159 16.0313C99.4621 15.8711 100.259 13.1764 101.807 7.94701L102.084 7.00299H107.333C107.541 7.72388 107.894 9.01119 108.39 10.8649C108.898 12.7187 109.372 14.5495 109.811 16.3575C110.169 14.8127 110.706 12.8274 111.422 10.4015L112.514 6.67687H117.763L112.133 22.5366H107.299C106.144 18.6918 105.266 15.5393 104.665 13.0791C104.55 13.594 104.238 14.7726 103.73 16.6149C103.222 18.4572 102.638 20.4311 101.98 22.5366H96.9384L91.5849 6.67687H96.9384Z" fill="black"/>
</g>
</svg>
