<svg width="88" height="25" viewBox="0 0 88 25" fill="none" xmlns="http://www.w3.org/2000/svg">
<g opacity="0.65">
<path d="M25.0567 13.0223C25.0567 15.3435 24.5294 17.4095 23.475 19.2201C22.4319 21.0306 20.9877 22.435 19.1424 23.4331C17.3084 24.4313 15.2166 24.9304 12.867 24.9304C10.5402 24.9304 8.45412 24.4313 6.60876 23.4331C4.77485 22.435 3.34211 21.0364 2.31054 19.2375C1.27897 17.4385 0.763184 15.3784 0.763184 13.0571C0.763184 10.7242 1.27897 8.65831 2.31054 6.85933C3.34211 5.04875 4.77485 3.63858 6.60876 2.62883C8.45412 1.61908 10.5517 1.11421 12.9013 1.11421C15.2281 1.11421 17.3084 1.61328 19.1424 2.61142C20.9877 3.60956 22.4319 5.01393 23.475 6.82451C24.5294 8.62349 25.0567 10.6894 25.0567 13.0223ZM19.5894 13.0223C19.5894 11.6411 19.3085 10.4167 18.7469 9.34889C18.1853 8.2695 17.4001 7.43384 16.3915 6.84192C15.3828 6.25 14.2309 5.95404 12.9357 5.95404C11.6176 5.95404 10.4485 6.25 9.42839 6.84192C8.40828 7.43384 7.61167 8.2695 7.03858 9.34889C6.46548 10.4167 6.17893 11.6527 6.17893 13.0571C6.17893 14.4383 6.45975 15.6627 7.02138 16.7305C7.58302 17.7983 8.37389 18.6223 9.394 19.2026C10.4141 19.783 11.5832 20.0731 12.9013 20.0731C14.1965 20.0731 15.3542 19.7772 16.3743 19.1852C17.3944 18.5933 18.1853 17.7635 18.7469 16.6957C19.3085 15.6163 19.5894 14.3918 19.5894 13.0223Z" fill="black"/>
<path d="M42.0529 8.37395V24.4603H37.9782L37.6515 22.6497C37.0899 23.4157 36.3907 23.9903 35.554 24.3733C34.7287 24.7447 33.806 24.9304 32.7859 24.9304C30.8832 24.9304 29.4161 24.3617 28.3845 23.2242C27.353 22.0752 26.8372 20.5142 26.8372 18.5411V8.37395H31.7715V17.7925C31.7715 18.7906 32.0008 19.5102 32.4593 19.9513C32.9177 20.3923 33.5825 20.6128 34.4536 20.6128C35.3018 20.6128 35.9551 20.3459 36.4136 19.812C36.8836 19.2781 37.1185 18.5585 37.1185 17.6532V8.37395H42.0529Z" fill="black"/>
<path d="M43.799 16.3997C43.799 14.6936 44.1543 13.1906 44.8649 11.8907C45.5756 10.5908 46.5842 9.58682 47.8909 8.87883C49.1975 8.17084 50.6933 7.81685 52.3782 7.81685C53.9026 7.81685 55.2609 8.10121 56.4529 8.66992C57.6564 9.23863 58.6135 10.0453 59.3241 11.0898C60.0462 12.1344 60.4531 13.3357 60.5448 14.6936H55.5589C55.3755 13.8812 54.9858 13.2718 54.3898 12.8656C53.8052 12.4478 53.1118 12.2389 52.3094 12.2389C51.2549 12.2389 50.401 12.6161 49.7477 13.3705C49.1058 14.1133 48.7849 15.123 48.7849 16.3997C48.7849 17.6648 49.1001 18.6746 49.7305 19.429C50.3724 20.1718 51.232 20.5432 52.3094 20.5432C53.1576 20.5432 53.874 20.3169 54.4585 19.8642C55.0431 19.4116 55.4099 18.8254 55.5589 18.1058H60.5448C60.4302 19.4406 60.0118 20.6244 59.2897 21.6574C58.5791 22.6903 57.622 23.497 56.4185 24.0773C55.2265 24.646 53.8797 24.9304 52.3782 24.9304C50.6933 24.9304 49.1975 24.5764 47.8909 23.8684C46.5842 23.1488 45.5756 22.1506 44.8649 20.874C44.1543 19.5857 43.799 18.0942 43.799 16.3997Z" fill="black"/>
<path d="M62.566 0H67.4832V9.94081C67.9531 9.27925 68.6007 8.76277 69.426 8.39137C70.2512 8.00836 71.1567 7.81685 72.1424 7.81685C74.0451 7.81685 75.5065 8.41458 76.5266 9.61003C77.5467 10.8055 78.0568 12.4304 78.0568 14.4847V24.4603H73.1568V15.6511C73.1568 14.3164 72.8645 13.4343 72.28 13.0049C71.6954 12.5638 71.0937 12.3433 70.4747 12.3433C69.7756 12.3433 69.0936 12.5464 68.4288 12.9526C67.7755 13.3473 67.4488 14.2003 67.4488 15.5118V24.4603H62.566V0Z" fill="black"/>
<path d="M82.6225 15.8252L81.5738 1.60167H86.9551L85.9751 15.8252H82.6225ZM84.3246 25C83.316 25 82.4735 24.6924 81.7973 24.0773C81.1325 23.4506 80.8001 22.6265 80.8001 21.6052C80.8001 20.5606 81.1325 19.7365 81.7973 19.133C82.4735 18.5295 83.316 18.2277 84.3246 18.2277C85.2874 18.2277 86.1012 18.5295 86.766 19.133C87.4308 19.7365 87.7632 20.5606 87.7632 21.6052C87.7632 22.6265 87.4365 23.4506 86.7832 24.0773C86.1299 24.6924 85.3103 25 84.3246 25Z" fill="black"/>
</g>
</svg>
