<svg width="41" height="41" viewBox="0 0 41 41" fill="none" xmlns="http://www.w3.org/2000/svg">
<rect width="41" height="41" rx="20" fill="#1CB7EB"/>
<path d="M9.40332 26.5706C11.3622 27.7011 13.6879 28.3631 16.1887 28.3631C24.4079 28.3631 29.0482 22.0995 28.7716 16.4877C29.6353 15.9276 30.3861 15.2197 30.9788 14.4202C30.1828 14.736 29.3304 14.9549 28.4385 15.0466C29.353 14.5526 30.053 13.7735 30.3861 12.8365C29.5336 13.2948 28.5853 13.6258 27.5748 13.804C26.7676 13.03 25.616 12.5411 24.3458 12.5411C21.4894 12.5411 19.3895 14.9447 20.033 17.4451C16.3524 17.277 13.0952 15.6882 10.9106 13.2744C9.75331 15.072 10.3065 17.4196 12.2823 18.6062C11.5541 18.5858 10.871 18.4076 10.2783 18.1071C10.2331 19.9556 11.7009 21.687 13.8291 22.0741C13.2081 22.2268 12.525 22.2625 11.8307 22.1403C12.3952 23.7291 14.0266 24.88 15.9629 24.9156C14.0944 26.2345 11.746 26.8202 9.40332 26.5706Z" fill="white"/>
</svg>
