<svg width="60" height="43" viewBox="0 0 60 43" fill="none" xmlns="http://www.w3.org/2000/svg">
<path d="M12 4H30.25M48.5 4H30.25M3.5 20L8.06925 8.36919C8.40153 7.52339 9.59847 7.52339 9.93075 8.36919L14.5 20M45.5 20L50.0692 8.36919C50.4015 7.52339 51.5985 7.52339 51.9308 8.36919L56.5 20M30.25 4V31" stroke="white" stroke-width="3"/>
<circle cx="9" cy="4" r="4" fill="white"/>
<circle cx="51" cy="4" r="4" fill="white"/>
<mask id="path-4-inside-1_2_20892" fill="white">
<path d="M59 19C59.5523 19 60.0058 19.4491 59.9445 19.998C59.7192 22.0178 58.8149 23.9131 57.364 25.364C55.6761 27.0518 53.3869 28 51 28C48.6131 28 46.3239 27.0518 44.636 25.364C43.1851 23.9131 42.2808 22.0178 42.0555 19.998C41.9942 19.4491 42.4477 19 43 19L51 19H59Z"/>
</mask>
<path d="M59 19C59.5523 19 60.0058 19.4491 59.9445 19.998C59.7192 22.0178 58.8149 23.9131 57.364 25.364C55.6761 27.0518 53.3869 28 51 28C48.6131 28 46.3239 27.0518 44.636 25.364C43.1851 23.9131 42.2808 22.0178 42.0555 19.998C41.9942 19.4491 42.4477 19 43 19L51 19H59Z" stroke="white" stroke-width="6" mask="url(#path-4-inside-1_2_20892)"/>
<mask id="path-5-inside-2_2_20892" fill="white">
<path d="M17 19C17.5523 19 18.0058 19.4491 17.9445 19.998C17.7192 22.0178 16.8149 23.9131 15.364 25.364C13.6761 27.0518 11.3869 28 9 28C6.61305 28 4.32387 27.0518 2.63604 25.364C1.18514 23.9131 0.280781 22.0178 0.0554757 19.998C-0.00575229 19.4491 0.447715 19 1 19L9 19H17Z"/>
</mask>
<path d="M17 19C17.5523 19 18.0058 19.4491 17.9445 19.998C17.7192 22.0178 16.8149 23.9131 15.364 25.364C13.6761 27.0518 11.3869 28 9 28C6.61305 28 4.32387 27.0518 2.63604 25.364C1.18514 23.9131 0.280781 22.0178 0.0554757 19.998C-0.00575229 19.4491 0.447715 19 1 19L9 19H17Z" stroke="white" stroke-width="6" mask="url(#path-5-inside-2_2_20892)"/>
<path d="M26.5 36.5V31C26.5 30.7239 26.7239 30.5 27 30.5H33.5C33.7761 30.5 34 30.7239 34 31V36.5M26.5 36.5H34M26.5 36.5L23.6276 40.193C23.3722 40.5215 23.6062 41 24.0223 41H36.0657C36.4651 41 36.7033 40.5549 36.4818 40.2226L34 36.5" stroke="white" stroke-width="3"/>
</svg>
