<svg width="32" height="48" viewBox="0 0 32 48" fill="none" xmlns="http://www.w3.org/2000/svg">
<path d="M16 30C23.732 30 30 23.732 30 16C30 8.26801 23.732 2 16 2C8.26801 2 2 8.26801 2 16C2 23.732 8.26801 30 16 30Z" stroke="white" stroke-width="3" stroke-linecap="round" stroke-linejoin="round"/>
<path d="M16 10L18.1513 13.039L21.7063 14.1459L19.4809 17.131L19.5267 20.8541L16 19.66L12.4733 20.8541L12.5191 17.131L10.2937 14.1459L13.8487 13.039L16 10Z" fill="white"/>
<path d="M8.42 27.7798L6 45.9998L16 39.9998L26 45.9998L23.58 27.7598" stroke="white" stroke-width="3" stroke-linecap="round" stroke-linejoin="round"/>
</svg>
