<svg width="64" height="42" viewBox="0 0 64 42" fill="none" xmlns="http://www.w3.org/2000/svg">
<path d="M7 24.5L2.52686 21.8907C1.65484 21.382 1.29863 20.3032 1.69631 19.3753L7.75518 5.23792C8.17312 4.26271 9.27985 3.78358 10.277 4.14617L13.0859 5.16759C13.6801 5.38366 14.3273 5.40648 14.9353 5.23278L26.7848 1.84721C27.5618 1.62519 28.3956 1.72608 29.0973 2.12705L31.5 3.5M39.5 14L36.0654 11.8144C34.7978 11.0077 33.185 10.9794 31.8898 11.7413L28.1595 13.9356C26.6508 14.8231 24.7147 14.4203 23.6852 13.0046V13.0046C22.5109 11.3899 22.9737 9.11576 24.6858 8.08854L34.0977 2.44136C35.6203 1.52779 37.4694 1.33556 39.1474 1.9164L49.5 5.5L53.5982 4.68036C55.5501 4.28997 57.4921 5.39429 58.1546 7.2714L61.7225 17.3804C62.4364 19.4031 61.4277 21.6289 59.4361 22.4256L55.5 24M43 16L53.6572 23.4995C55.1981 24.5839 55.5055 26.7431 54.3285 28.2144V28.2144C53.2876 29.5154 51.4348 29.8254 50.0273 28.9339L37.5 21M33.5 25.5L43.4159 31.9835C45.1586 33.1229 47.484 32.7349 48.7623 31.0913L50 29.5M33 32.5L37.9388 35.5868C39.6779 36.6737 41.9572 36.2693 43.2162 34.6505L44.5 33M29.5 37.5L32.4223 39.2047C34.1766 40.228 36.4193 39.7743 37.6378 38.1496L38.5 37" stroke="white" stroke-width="3" stroke-linecap="round"/>
<rect x="11.1218" y="20.1446" width="5.77361" height="9.12174" rx="2.39743" transform="rotate(33.563 11.1218 20.1446)" stroke="white" stroke-width="3"/>
<rect x="17.8962" y="20.4054" width="6.00758" height="14.1494" rx="2.39743" transform="rotate(33.563 17.8962 20.4054)" stroke="white" stroke-width="3"/>
<rect x="23.1052" y="23.5504" width="6.32038" height="14.1494" rx="2.39743" transform="rotate(33.563 23.1052 23.5504)" stroke="white" stroke-width="3"/>
<rect x="28.2439" y="27.171" width="6.12561" height="11.2023" rx="2.39743" transform="rotate(33.563 28.2439 27.171)" stroke="white" stroke-width="3"/>
</svg>
