<svg width="52" height="59" viewBox="0 0 52 59" fill="none" xmlns="http://www.w3.org/2000/svg">
<path d="M12 41L9 44" stroke="white" stroke-width="3" stroke-linecap="round"/>
<path d="M6.24241 26.1213H1.99977" stroke="white" stroke-width="3" stroke-linecap="round"/>
<path d="M11.3847 12.1884L8.19444 9.39151" stroke="white" stroke-width="3" stroke-linecap="round"/>
<path d="M26.1147 6.24254L26.1281 1.99992" stroke="white" stroke-width="3" stroke-linecap="round"/>
<path d="M40.6784 12.6762L43.564 9.56606" stroke="white" stroke-width="3" stroke-linecap="round"/>
<path d="M45.9998 27.1214L50.2424 27.1214" stroke="white" stroke-width="3" stroke-linecap="round"/>
<path d="M40 41L43 44" stroke="white" stroke-width="3" stroke-linecap="round"/>
<path d="M12.5555 28.2223C12.7799 30.6916 13.6802 33.0515 15.1574 35.0429L18.1241 40.365C18.539 41.1093 18.7567 41.9473 18.7567 42.7994V51C18.7567 54.3137 21.443 57 24.7567 57H26.8107C30.1244 57 32.8107 54.3137 32.8107 51V42.9432C32.8107 42.0003 33.0773 41.0766 33.5798 40.2788L37.1367 34.6305C38.5382 32.585 39.3493 30.193 39.481 27.717C39.6126 25.2409 39.0599 22.7764 37.8832 20.5938C36.7066 18.4112 34.9516 16.5949 32.8107 15.3439C30.6699 14.093 28.2258 13.4559 25.7467 13.5024C23.2676 13.5489 20.8492 14.2773 18.7567 15.6077C16.6643 16.938 14.9787 18.819 13.8848 21.0442C12.7909 23.2694 12.331 25.7529 12.5555 28.2223Z" stroke="white" stroke-width="3"/>
<path d="M18.5 47H33" stroke="white" stroke-width="3"/>
<path d="M26 23L23.155 26.9118C22.6743 27.5728 23.1465 28.5 23.9638 28.5H28.0362C28.8535 28.5 29.3257 29.4272 28.845 30.0882L26 34" stroke="white" stroke-width="3" stroke-linecap="round"/>
</svg>
