<svg width="262" height="235" viewBox="0 0 262 235" fill="none" xmlns="http://www.w3.org/2000/svg">
<path d="M254.773 135.971C250.492 121.215 242.269 108.9 232.392 102.841C222.105 96.5292 210.292 98.8252 199.456 96.7122C190.045 94.8765 183.256 88.5106 177.635 77.1919C172.251 66.347 167.423 54.3366 158.621 49.3193C151.665 45.3544 143.756 46.4553 136.842 50.5844C124.104 58.1966 114.481 74.3791 106.377 90.5025C98.9788 105.223 92.9444 121.341 79.2592 121.866C65.5651 122.391 52.5282 110.556 38.7417 113.692C20.5196 117.837 5.34215 140.824 2.16242 168.188C-0.818347 193.835 6.66022 218.711 19.5088 233.325H240.352C256.542 207.301 265.039 171.348 254.773 135.971Z" fill="#F2F8FF"/>
<path d="M54.8642 233.8H55.4715C59.6888 229.164 62.9933 223.54 65.0922 217.297C68.4909 207.192 68.3488 196.586 64.6891 187.434C62.8406 182.808 60.17 178.498 57.5864 174.329C54.9672 170.101 52.2593 165.729 50.4215 161.045C49.6615 159.108 49.1004 157.029 48.763 154.907C48.6103 154.887 48.4576 154.871 48.3066 154.852C48.6458 157.05 49.2229 159.204 50.0095 161.207C51.8616 165.928 54.5819 170.318 57.2117 174.562C59.7847 178.713 62.4447 183.009 64.2789 187.597C67.8996 196.651 68.0398 207.147 64.6731 217.155C62.5459 223.476 59.1721 229.153 54.8642 233.8Z" fill="white"/>
<path d="M238.941 214.55C243.491 215.519 247.873 216.387 252.111 216.934C252.184 216.794 252.255 216.654 252.326 216.513C248.052 215.97 243.627 215.095 239.034 214.115C232.037 212.625 224.466 211.011 216.955 211.011C212.304 211.011 207.678 211.629 203.229 213.278C201.543 213.903 199.917 214.695 198.37 215.64C194.352 213.928 190.312 212.058 186.312 210.006C189.215 207.818 192.15 205.676 195.116 203.606C217.13 188.234 237.448 179.519 257.076 177.045C257.037 176.901 256.996 176.758 256.956 176.614C237.274 179.107 216.914 187.845 194.863 203.242C191.834 205.357 188.838 207.546 185.875 209.78C181.375 207.456 176.929 204.9 172.625 202.081C164.819 196.967 155.535 189.667 147.428 179.966C178.848 176.442 210.837 172.001 236.961 154.54C237.954 153.878 239.053 153.095 240.191 152.209C240.065 152.12 239.937 152.031 239.811 151.942C238.721 152.788 237.668 153.533 236.716 154.171C210.599 171.626 178.55 176.033 147.09 179.558C141.36 172.627 136.241 164.488 132.684 155.064C127.142 140.384 127.435 125.98 133.487 115.541C133.75 115.088 134.027 114.641 134.312 114.2C134.06 114.316 133.81 114.436 133.56 114.557C133.403 114.809 133.251 115.063 133.103 115.319C126.984 125.874 126.681 140.416 132.269 155.22C135.808 164.592 140.881 172.7 146.563 179.616C144.741 179.821 142.919 180.021 141.104 180.222C134.554 180.945 127.778 181.692 121.201 182.539C118.8 182.848 116.359 183.209 113.928 183.661C108.72 172.668 102.998 161.945 95.6025 152.747C95.496 152.852 95.3894 152.955 95.2829 153.059C102.615 162.186 108.3 172.832 113.478 183.747C102.881 185.767 92.591 189.567 87.097 198.41C81.9653 206.669 81.9706 218.085 87.1112 232.34C87.2888 232.834 87.4717 233.319 87.6581 233.802H88.134C87.9298 233.274 87.7274 232.74 87.5303 232.189C82.4376 218.067 82.4198 206.781 87.4752 198.643C92.9053 189.905 103.139 186.156 113.677 184.16C115.517 188.049 117.293 191.972 119.058 195.869L119.249 196.294C125.381 209.828 131.722 222.888 140.023 233.803H140.577C132.199 222.869 125.823 209.73 119.652 196.111L119.461 195.686C117.71 191.823 115.948 187.934 114.126 184.077C116.509 183.637 118.905 183.283 121.259 182.981C127.833 182.134 134.605 181.387 141.156 180.664C143.068 180.453 144.986 180.242 146.904 180.027C155.09 189.878 164.492 197.279 172.387 202.452C176.643 205.241 181.04 207.772 185.488 210.077C177.936 215.789 170.592 221.798 163.42 227.665C160.935 229.696 158.425 231.749 155.892 233.802H156.596C158.984 231.864 161.354 229.927 163.7 228.009C170.922 222.102 178.319 216.048 185.925 210.304C189.904 212.351 193.92 214.217 197.918 215.927C192.45 219.404 187.993 224.79 185.3 231.328C184.962 232.147 184.667 232.974 184.396 233.803H184.863C185.12 233.031 185.395 232.26 185.71 231.497C188.411 224.941 192.905 219.561 198.415 216.139C209.587 220.885 220.566 224.408 230.002 227.2L230.358 227.304C234.333 228.48 238.4 229.685 241.997 231.619C242.098 231.504 242.2 231.39 242.299 231.275C238.643 229.291 234.518 228.07 230.484 226.878L230.128 226.773C220.79 224.01 209.935 220.53 198.884 215.855C200.324 214.997 201.831 214.274 203.39 213.695C214.902 209.427 227.674 212.149 238.941 214.55Z" fill="white"/>
<path d="M25.1169 185.794C27.0773 193.82 26.2036 202.487 22.7162 209.574C20.4327 214.216 17.1352 218.419 13.0742 222.027C13.1541 222.153 13.2376 222.277 13.3193 222.402C17.446 218.746 20.7967 214.482 23.1139 209.769C26.6458 202.59 27.5319 193.813 25.5466 185.688C23.9965 179.34 20.8784 173.963 16.5688 170.072C16.4729 170.186 16.377 170.3 16.2829 170.413C20.5197 174.243 23.5881 179.54 25.1169 185.794Z" fill="white"/>
<path d="M117.448 5.85007C124.128 11.8065 127.122 21.8455 123.438 31.0974C119.871 40.0575 112.052 47.4783 102.66 52.2515C95.1023 56.0904 85.2439 58.208 77.8118 54.187C72.2569 51.1834 69.3767 45.2885 69.2172 39.589C69.0577 33.8869 71.2539 28.332 73.9684 23.1439C77.7965 15.8328 82.9465 8.74129 90.6209 4.2947C101.197 -1.83309 111.025 0.12384 117.448 5.85007Z" fill="#F2F8FF"/>
<path d="M251.773 43.7596C249.699 36.8646 246.051 30.5343 240.831 24.7473C235.6 18.9604 228.465 14.182 219.427 10.4033C210.388 6.62468 198.905 4.73535 184.977 4.73535C173.864 4.73535 162.541 6.23403 151.004 9.23139C139.457 12.2394 129.44 16.517 120.945 22.0767L132.004 52.4374L126.077 57.2388L134.673 59.7656C143.157 55.3246 150.889 52.1 157.864 50.0917C164.828 48.0941 172.229 47.0943 180.076 47.0943C187.912 47.0943 193.846 48.9837 197.875 52.7623C201.904 56.5517 203.914 61.101 203.914 66.444C203.914 72.8933 201.84 78.6163 197.715 83.622C193.569 88.6276 188.997 93.6866 183.987 98.8005C180.511 102.352 177.13 106.02 173.864 109.799C170.601 113.588 167.708 117.639 165.21 121.982C162.701 126.315 160.69 130.983 159.171 135.989C157.64 140.994 156.885 146.607 156.885 152.829C156.885 154.838 156.928 157.226 157.045 160.007C157.065 160.52 157.091 161.019 157.121 161.512H148.996L157.864 167.509H200.981C200.757 166.174 200.651 164.62 200.651 162.841C200.651 161.06 200.651 159.724 200.651 158.835C200.651 155.056 201.416 151.332 202.936 147.662C204.456 143.992 206.37 140.495 208.657 137.152C210.942 133.819 213.496 130.647 216.333 127.652C219.162 124.644 221.884 121.81 224.5 119.139C227.977 115.588 231.571 111.811 235.271 107.803C238.972 103.797 242.246 99.5836 245.075 95.132C247.903 90.6803 250.242 85.8487 252.092 80.6158C253.942 75.3935 254.878 69.6704 254.878 63.4378C254.878 57.214 253.836 50.6546 251.773 43.7596Z" fill="#E77D14"/>
<path d="M170.948 44.9749C163.193 44.9749 155.879 45.9409 148.997 47.8746C142.104 49.819 134.465 52.9389 126.078 57.2378L112.512 20.7635C120.907 15.3831 130.807 11.2422 142.219 8.33188C153.621 5.43218 164.811 3.98145 175.792 3.98145C189.557 3.98145 200.907 5.8104 209.839 9.46654C218.771 13.1227 225.822 17.7466 230.993 23.3471C236.153 28.9476 239.756 35.0737 241.805 41.7467C243.843 48.4198 244.873 54.7661 244.873 60.7874C244.873 66.8194 243.948 72.3578 242.121 77.4114C240.292 82.4757 237.98 87.1528 235.185 91.4606C232.39 95.7684 229.153 99.8454 225.497 103.724C221.841 107.602 218.288 111.258 214.852 114.694C212.266 117.279 209.576 120.021 206.781 122.933C203.976 125.833 201.454 128.901 199.194 132.127C196.935 135.364 195.042 138.747 193.54 142.299C192.038 145.85 191.281 149.455 191.281 153.111C191.281 153.972 191.281 155.265 191.281 156.989C191.281 158.713 191.386 160.215 191.606 161.508H148.997C148.555 159.354 148.294 156.937 148.187 154.247C148.072 151.557 148.029 149.245 148.029 147.301C148.029 141.279 148.775 135.847 150.288 131.002C151.79 126.158 153.777 121.638 156.256 117.446C158.726 113.243 161.583 109.324 164.809 105.655C168.036 101.999 171.377 98.4462 174.813 95.0102C179.762 90.0614 184.281 85.164 188.38 80.32C192.457 75.4759 194.506 69.9375 194.506 63.696C194.506 58.5252 192.521 54.1233 188.538 50.4565C184.557 46.8039 178.692 44.9749 170.948 44.9749Z" fill="#FE8C1A"/>
<path d="M203.935 209.359C203.935 217.133 201.418 223.131 196.384 227.363C191.352 231.603 185.663 233.714 179.311 233.714C172.951 233.714 167.263 231.603 162.231 227.363C157.206 223.131 154.689 217.133 154.689 209.359C154.689 201.594 157.206 195.596 162.231 191.355C169.978 184.817 181.44 183.361 190.51 187.95C198.56 192.021 203.935 200.291 203.935 209.359Z" fill="#E77D14"/>
<path d="M195.499 209.359C195.499 217.133 192.983 223.131 187.949 227.363C182.917 231.603 177.227 233.715 170.876 233.715C164.515 233.715 158.828 231.603 153.795 227.363C148.77 223.131 146.254 217.133 146.254 209.359C146.254 201.594 148.77 195.596 153.795 191.356C158.828 187.124 164.517 185.004 170.876 185.004C177.227 185.004 182.915 187.124 187.949 191.356C192.983 195.596 195.499 201.594 195.499 209.359Z" fill="#FE8C1A"/>
<path d="M67.8564 99.1554C68.3288 96.6348 66.6683 94.2085 64.1477 93.7361C61.6271 93.2637 59.2007 94.9241 58.7284 97.4448C58.256 99.9654 59.9164 102.392 62.4371 102.864C64.9577 103.336 67.384 101.676 67.8564 99.1554Z" fill="#D3DFFF"/>
<path d="M70.0746 107.88C70.3403 106.462 69.3985 105.096 67.9709 104.828C66.5434 104.561 65.1707 105.493 64.905 106.911C64.6392 108.329 65.5811 109.695 67.0086 109.963C68.4362 110.23 69.8089 109.298 70.0746 107.88Z" fill="#D3DFFF"/>
<path d="M64.7611 87.8514C71.9008 80.7117 71.9008 69.136 64.7611 61.9963C57.6214 54.8566 46.0457 54.8566 38.906 61.9963C31.7664 69.136 31.7664 80.7117 38.906 87.8514C46.0457 94.991 57.6214 94.991 64.7611 87.8514Z" fill="#D3DFFF"/>
<path d="M44.8148 77.2262C46.0867 77.2262 47.1178 76.1951 47.1178 74.9232C47.1178 73.6512 46.0867 72.6201 44.8148 72.6201C43.5428 72.6201 42.5117 73.6512 42.5117 74.9232C42.5117 76.1951 43.5428 77.2262 44.8148 77.2262Z" fill="white"/>
<path d="M51.8344 77.2262C53.1064 77.2262 54.1375 76.1951 54.1375 74.9232C54.1375 73.6512 53.1064 72.6201 51.8344 72.6201C50.5625 72.6201 49.5314 73.6512 49.5314 74.9232C49.5314 76.1951 50.5625 77.2262 51.8344 77.2262Z" fill="white"/>
<path d="M58.8558 77.2262C60.1277 77.2262 61.1589 76.1951 61.1589 74.9232C61.1589 73.6512 60.1277 72.6201 58.8558 72.6201C57.5839 72.6201 56.5527 73.6512 56.5527 74.9232C56.5527 76.1951 57.5839 77.2262 58.8558 77.2262Z" fill="white"/>
<path d="M38.7333 224.564L40.4416 231.15C40.8872 232.868 42.5475 234.029 44.3854 233.903C49.9859 233.523 61.6237 232.15 68.3038 227.226L66.4056 217.735C57.2218 217.217 48.6346 217.728 41.1962 220.23C39.3335 220.859 38.2575 222.725 38.7333 224.564Z" fill="#102048"/>
<path d="M49.4376 229.806C49.3399 229.806 49.2511 229.742 49.2245 229.644L46.9303 221.432C46.8966 221.313 46.9658 221.192 47.0848 221.158C47.2037 221.126 47.3263 221.194 47.3582 221.313L49.6524 229.525C49.6862 229.644 49.6169 229.765 49.4979 229.799C49.4784 229.802 49.4571 229.806 49.4376 229.806Z" fill="white"/>
<path d="M54.3946 228.695C54.2969 228.695 54.2081 228.631 54.1815 228.533L51.8873 220.321C51.8536 220.202 51.9228 220.081 52.0418 220.047C52.1608 220.014 52.2833 220.083 52.3153 220.202L54.6094 228.414C54.6432 228.533 54.5739 228.654 54.455 228.688C54.4337 228.691 54.4141 228.695 54.3946 228.695Z" fill="white"/>
<path d="M60.1522 188.967L38.8085 195.3L54.66 217.021L77.4172 218.83L108.806 205.557L96.877 187.608L60.1522 188.967Z" fill="#E77D14"/>
<path d="M86.4664 191.984C133.341 178.109 140.873 219.535 67.7383 227.077C65.1546 224.17 62.136 219.127 60.9374 214.91L99.5586 197.062L86.4664 191.984Z" fill="#FE8C1A"/>
<path d="M88.4607 221.672C86.2677 220.971 84.1671 219.584 84.1671 219.584L76.6346 221.947L78.3606 230.142L86.1861 231.731C88.5708 227.37 88.7093 223.79 88.4607 221.672Z" fill="#F9B384"/>
<path d="M61.1052 215.198L60.7714 214.623C68.8294 209.941 89.4664 198.692 107.051 195.373L107.175 196.028C89.692 199.325 69.1331 210.532 61.1052 215.198Z" fill="#E49B31"/>
<path d="M60.1527 188.966C16.5223 180.67 5.22187 222.601 78.3588 230.142C80.9425 227.235 82.9667 223.801 84.1653 219.584C72.9306 212.067 60.3694 204.922 46.6042 198.116L60.1527 188.966Z" fill="#FE8C1A"/>
<path d="M83.9847 219.865C81.909 218.544 79.7462 217.149 77.4573 215.669C65.9633 208.249 52.9369 199.837 41.869 195.041L42.1336 194.43C53.2512 199.248 66.3025 207.675 77.8178 215.11C80.1066 216.587 82.2677 217.983 84.3417 219.304L83.9847 219.865Z" fill="#E49B31"/>
<path d="M28.1409 209.757L27.5585 209.435C29.1957 206.47 31.8201 204.47 35.3555 203.492L35.5331 204.133C32.1273 205.076 29.7106 206.915 28.1409 209.757Z" fill="#E49B31"/>
<path d="M119.205 207.232C117.635 204.391 115.216 202.551 111.812 201.609L111.99 200.968C115.525 201.946 118.15 203.947 119.787 206.911L119.205 207.232Z" fill="#E49B31"/>
<path d="M74.2716 229.773L73.785 229.319C77.276 225.581 79.4193 221.636 80.3391 217.255L80.9908 217.392C80.0443 221.895 77.8478 225.945 74.2716 229.773Z" fill="#E49B31"/>
<path d="M110.219 219.233C104.629 215.779 93.7925 221.748 91.0721 222.049C90.2784 222.138 89.3621 221.964 88.4601 221.675C88.7087 223.793 88.5702 227.373 86.1854 231.734L87.5154 232.004C87.5154 232.004 96.7046 235.372 106.453 233.412C115.451 231.601 114.614 221.946 110.219 219.233Z" fill="#102048"/>
<path d="M102.599 230.529C102.576 230.529 102.554 230.526 102.531 230.518C102.414 230.481 102.35 230.357 102.386 230.24C103.05 228.137 103.339 224 101.416 221.221C101.347 221.12 101.372 220.981 101.473 220.912C101.574 220.843 101.713 220.868 101.782 220.969C103.795 223.879 103.501 228.187 102.81 230.373C102.78 230.469 102.693 230.529 102.599 230.529Z" fill="white"/>
<path d="M98.2158 231.362C98.1927 231.362 98.1714 231.359 98.1483 231.351C98.0311 231.314 97.9672 231.19 98.0027 231.073C98.6668 228.97 98.9562 224.833 97.0332 222.054C96.9639 221.953 96.9888 221.814 97.09 221.745C97.1912 221.676 97.3297 221.701 97.399 221.802C99.4126 224.712 99.1178 229.02 98.4271 231.206C98.3969 231.302 98.3099 231.362 98.2158 231.362Z" fill="white"/>
<path d="M52.4339 134.904C52.4339 134.904 63.4219 125.561 63.0152 123.785C62.724 122.515 59.6112 124.376 59.6112 124.376C59.6112 124.376 63.9759 119.197 63.7539 118.568C63.3579 117.444 60.3375 119.539 60.3375 119.539C60.3375 119.539 62.3778 116.602 61.4029 116.123C60.4281 115.644 58.3008 117.455 58.3008 117.455C58.3008 117.455 59.5438 115.825 58.9596 115.397C58.3754 114.969 55.8574 116.729 55.8574 116.729C55.8574 116.729 56.7613 114.672 54.8418 115.452C52.9222 116.231 39.459 128.587 39.459 128.587L52.4339 134.904Z" fill="#F9B384"/>
<path d="M56.93 123.82C56.8767 123.82 56.8235 123.801 56.7808 123.761C54.8951 122.037 54.0623 121.62 51.9829 120.979C51.8658 120.943 51.8 120.819 51.8356 120.702C51.8711 120.585 51.9954 120.519 52.1126 120.555C54.2683 121.217 55.1295 121.65 57.0809 123.433C57.1715 123.516 57.1786 123.657 57.0951 123.747C57.0508 123.797 56.9904 123.82 56.93 123.82Z" fill="#E28B6D"/>
<path d="M53.6203 128.89C53.6096 128.89 53.599 128.89 53.5901 128.889C53.4694 128.871 53.3841 128.759 53.4001 128.638C53.6168 127.093 54.1033 126.127 54.8864 125.687C55.5576 125.309 56.4294 125.348 57.4806 125.802C57.5925 125.85 57.6458 125.982 57.5961 126.094C57.5481 126.205 57.4167 126.259 57.3049 126.209C56.3886 125.813 55.6481 125.767 55.1048 126.074C54.4584 126.438 54.0323 127.321 53.8405 128.7C53.8245 128.809 53.7286 128.89 53.6203 128.89Z" fill="#E28B6D"/>
<path d="M53.1005 119.548C53.0419 119.548 52.9833 119.525 52.9389 119.479C52.8554 119.39 52.859 119.25 52.9478 119.165L55.7054 116.567C55.7942 116.482 55.9345 116.487 56.0197 116.576C56.1032 116.664 56.0996 116.805 56.0108 116.89L53.2532 119.488C53.2088 119.529 53.1555 119.548 53.1005 119.548Z" fill="#E28B6D"/>
<path d="M55.6541 120.437C55.599 120.437 55.544 120.416 55.4996 120.375C55.4108 120.29 55.409 120.149 55.4925 120.061L58.1418 117.301C58.227 117.213 58.3673 117.209 58.4561 117.294C58.5449 117.379 58.5467 117.52 58.4632 117.608L55.8139 120.368C55.7713 120.414 55.7127 120.437 55.6541 120.437Z" fill="#E28B6D"/>
<path d="M58.2615 121.991C58.2065 121.991 58.1532 121.971 58.1106 121.93C58.0218 121.847 58.0165 121.706 58.0999 121.616L60.1775 119.387C60.2609 119.299 60.4012 119.293 60.4918 119.377C60.5806 119.46 60.5859 119.601 60.5024 119.691L58.4249 121.92C58.3805 121.968 58.3219 121.991 58.2615 121.991Z" fill="#E28B6D"/>
<path d="M93.9422 197.4L53.7673 198.954L49.3281 162.33C49.3281 162.33 62.7772 149.574 67.9515 144.875L76.6879 144.428C103.79 156.747 99.3528 172.134 93.9422 197.4Z" fill="#3A6BEA"/>
<path d="M76.6914 144.428C76.6914 144.428 107.698 147.079 117.474 168.323C127.039 189.111 87.7308 196.512 87.7308 196.512L76.6914 144.428Z" fill="#3A6BEA"/>
<path d="M41.2452 148.98L54.0585 133.388L42.0762 126.127C37.0776 129.602 27.4126 137.474 19.2213 146.388C17.4137 148.355 16.0002 150.653 15.29 153.183C14.6827 155.342 14.5726 157.475 14.9135 159.563C15.8031 165.007 20.0843 169.207 25.8003 169.876C30.6816 170.448 49.3281 168.988 64.4214 164.549L68.8606 147.416C66.5807 146.121 49.6264 145.897 41.2452 148.98Z" fill="#3A6BEA"/>
<g opacity="0.8">
<path d="M102.562 152.858C102.63 152.842 102.695 152.828 102.763 152.812C102.623 152.729 102.482 152.649 102.342 152.567C100.069 153.091 97.7252 153.626 95.4132 153.904C94.0247 154.071 89.383 154.378 88.0282 151.287C87.3534 149.749 87.8648 148.037 88.6266 146.837C88.5147 146.805 88.4046 146.773 88.2945 146.741C87.5132 148.013 87.0107 149.797 87.7227 151.42C89.1699 154.723 94.0069 154.41 95.4541 154.235C97.8317 153.947 100.238 153.395 102.562 152.858Z" fill="white"/>
<path d="M117.034 176.819C115.553 176.247 114.022 175.654 112.413 175.807C109.592 176.073 107.177 178.864 107.03 182.027C106.93 184.184 107.754 186.445 109.324 188.432C109.418 188.373 109.512 188.313 109.606 188.252C108.07 186.32 107.264 184.127 107.362 182.041C107.5 179.037 109.78 176.387 112.444 176.137C113.972 175.995 115.402 176.543 116.913 177.128C117.453 177.335 118.002 177.547 118.559 177.724C118.587 177.618 118.616 177.509 118.641 177.401C118.097 177.229 117.561 177.023 117.034 176.819Z" fill="white"/>
<path d="M38.7709 166.23C36.8354 164.628 33.8274 164.2 30.5193 165.056C27.5717 165.818 25.0431 167.329 23.3047 169.327C23.4183 169.364 23.5302 169.405 23.6456 169.439C25.3361 167.542 27.7705 166.109 30.601 165.378C33.8025 164.548 36.704 164.953 38.5561 166.486C39.4368 167.214 40.0601 168.16 40.5129 169.179C40.6265 169.167 40.7419 169.153 40.8573 169.14C40.385 168.043 39.7245 167.018 38.7709 166.23Z" fill="white"/>
<path d="M21.2695 144.209C24.8973 143.307 28.4362 142.041 31.7017 140.161C32.9358 139.451 34.3279 138.545 35.3081 137.215C36.3504 135.8 36.6967 134.115 36.235 132.708C36.0539 132.156 35.7325 131.671 35.3312 131.284C35.246 131.353 35.1607 131.424 35.0755 131.494C35.4502 131.851 35.7502 132.3 35.9189 132.813C36.3469 134.118 36.0202 135.69 35.0417 137.018C34.0989 138.298 32.7405 139.181 31.5365 139.873C28.4575 141.647 25.1263 142.874 21.7046 143.76C21.559 143.909 21.4151 144.06 21.2695 144.209Z" fill="white"/>
</g>
<path d="M79.5282 136.285L79.5229 136.853L79.4323 145.683L79.4217 146.64C79.4039 148.137 78.7913 149.494 77.8005 150.479C76.815 151.458 75.4583 152.072 73.9561 152.083C70.9286 152.101 68.4515 149.668 68.4231 146.635L68.3165 135.722L79.5282 136.285Z" fill="#F9B384"/>
<path d="M79.5233 136.852L79.4328 145.682C74.5248 143.684 72.504 138.372 72.504 138.372L79.5233 136.852Z" fill="#102048"/>
<path d="M81.4636 121.443C83.2215 123.554 88.3586 135.514 83.1523 139.594C77.2943 144.186 68.3786 136.639 68.3786 136.639L67.1818 122.709L74.9202 120.669L81.4636 121.443Z" fill="#F9B384"/>
<path d="M63.239 120.676C63.239 120.676 46.0734 129.629 60.0694 155.435C61.8664 158.75 65.8492 160.195 69.255 158.579C72.9094 156.844 74.2926 152.38 72.3074 148.856C70.0186 144.789 67.8078 139.551 68.7525 135.655L63.239 120.676Z" fill="black"/>
<path d="M68.1432 128.194C69.9565 126.381 69.9565 123.441 68.1432 121.628C66.3298 119.814 63.3898 119.814 61.5765 121.628C59.7631 123.441 59.7631 126.381 61.5764 128.194C63.3898 130.008 66.3298 130.008 68.1432 128.194Z" fill="#FE8C1A"/>
<path d="M70.572 130.492C70.0695 127.596 69.7641 125.609 72.6922 124.116C72.6922 124.116 83.0107 125.992 84.98 122.098C86.9492 118.206 83.9483 112.062 77.6641 116.329C61.5764 113.186 59.4189 128.242 64.2968 133.26L69.1106 132.522C70.0802 132.374 70.7389 131.458 70.572 130.492Z" fill="black"/>
<path d="M78.5625 131.186C78.941 131.186 79.2479 130.879 79.2479 130.501C79.2479 130.122 78.941 129.815 78.5625 129.815C78.1839 129.815 77.8771 130.122 77.8771 130.501C77.8771 130.879 78.1839 131.186 78.5625 131.186Z" fill="#102048"/>
<path d="M83.2051 128.898C83.5836 128.898 83.8905 128.591 83.8905 128.213C83.8905 127.834 83.5836 127.527 83.2051 127.527C82.8265 127.527 82.5197 127.834 82.5197 128.213C82.5197 128.591 82.8265 128.898 83.2051 128.898Z" fill="#102048"/>
<path d="M82.7275 132.613C82.6796 132.613 82.6316 132.595 82.5943 132.559C82.5162 132.485 82.5127 132.362 82.5873 132.284C82.8625 131.995 83.1643 131.588 83.0365 131.292C82.9051 130.984 82.3493 130.853 82.0936 130.853C81.5467 130.853 81.2839 129.88 81.236 129.685C81.2111 129.58 81.275 129.475 81.3798 129.45C81.4845 129.424 81.5893 129.489 81.6142 129.594C81.7136 130.006 81.9409 130.466 82.0936 130.466C82.3564 130.466 83.1572 130.59 83.3934 131.141C83.5621 131.533 83.3863 132.009 82.8678 132.554C82.8305 132.591 82.779 132.613 82.7275 132.613Z" fill="#102048"/>
<path d="M82.7651 135.212C82.7278 135.212 82.6905 135.202 82.6568 135.178C81.3659 134.307 80.0607 135.038 80.0483 135.045C79.956 135.099 79.837 135.067 79.7837 134.974C79.7304 134.882 79.7624 134.763 79.8548 134.71C79.9169 134.674 81.3836 133.852 82.8752 134.857C82.964 134.917 82.9871 135.038 82.9267 135.127C82.8894 135.184 82.8272 135.212 82.7651 135.212Z" fill="#102048"/>
<path d="M78.2608 127.53C78.6515 128.265 77.9714 128.413 77.1741 128.835C76.3768 129.258 75.5618 129.414 75.3753 129.063C75.1889 128.713 75.6843 128.086 76.4816 127.662C77.2789 127.237 77.959 126.96 78.2608 127.53Z" fill="#102048"/>
<path d="M81.1663 126.203C81.3385 126.858 81.8268 126.572 82.5371 126.386C83.2474 126.199 83.8227 125.843 83.741 125.53C83.6593 125.217 83.0165 125.115 82.3045 125.301C81.5942 125.486 81.0331 125.695 81.1663 126.203Z" fill="#102048"/>
<path opacity="0.4" d="M76.7704 135.187C77.5915 134.43 77.6432 133.15 76.8859 132.329C76.1286 131.508 74.849 131.456 74.0279 132.214C73.2068 132.971 73.1551 134.251 73.9124 135.072C74.6697 135.893 75.9493 135.945 76.7704 135.187Z" fill="#EB5D60"/>
<path d="M70.1769 135.602C71.1013 134.404 70.7474 132.581 69.3863 131.531C68.0253 130.481 66.1725 130.601 65.2481 131.799C64.3237 132.997 64.6777 134.819 66.0387 135.869C67.3998 136.92 69.2525 136.8 70.1769 135.602Z" fill="#F9B384"/>
<path d="M68.9181 134.723C68.8116 134.723 68.7245 134.636 68.7245 134.529C68.7245 133.956 68.4458 133.426 67.977 133.11C67.5775 132.84 67.0998 132.778 66.7003 132.94C66.6008 132.979 66.4872 132.933 66.4463 132.833C66.4055 132.734 66.4534 132.62 66.5529 132.579C67.0714 132.368 67.684 132.444 68.1918 132.787C68.7672 133.174 69.1116 133.824 69.1116 134.527C69.1134 134.636 69.0264 134.723 68.9181 134.723Z" fill="#102048"/>
<path d="M41.0801 148.824L34.0723 156.404L34.3982 156.706L41.4061 149.125L41.0801 148.824Z" fill="#102048"/>
<path d="M90.4558 181.408L90.3262 180.984C95.4277 179.428 100.38 177.569 104.867 171.956L105.214 172.233C100.648 177.945 95.6284 179.833 90.4558 181.408Z" fill="#102048"/>
<path d="M93.5563 164.22H50.155C48.5942 164.22 47.3281 165.589 47.3281 167.277V198.265C47.3281 199.954 48.5942 201.323 50.155 201.323H93.5563C95.1172 201.323 96.3832 199.954 96.3832 198.265V167.277C96.3832 165.589 95.1172 164.22 93.5563 164.22Z" fill="#D3DFFF"/>
<path d="M74.1462 180.81C74.3113 180.81 74.4445 180.954 74.4445 181.133V184.404C74.4445 184.581 74.3113 184.727 74.1462 184.727H69.5631C69.398 184.727 69.2648 184.583 69.2648 184.404V181.133C69.2648 180.955 69.398 180.81 69.5631 180.81H74.1462ZM74.1462 179.922H69.5631C68.9097 179.922 68.377 180.465 68.377 181.133V184.404C68.377 185.071 68.9097 185.615 69.5631 185.615H74.1462C74.7996 185.615 75.3323 185.071 75.3323 184.404V181.133C75.3323 180.465 74.7996 179.922 74.1462 179.922Z" fill="#1F3C88"/>
<path d="M262 233.357H0.320312V234.245H262V233.357Z" fill="#102048"/>
</svg>
