<svg width="44" height="40" viewBox="0 0 44 40" fill="none" xmlns="http://www.w3.org/2000/svg">
<path d="M38 9.74414H6C3.79086 9.74414 2 11.535 2 13.7441V33.7441C2 35.9533 3.79086 37.7441 6 37.7441H38C40.2091 37.7441 42 35.9533 42 33.7441V13.7441C42 11.535 40.2091 9.74414 38 9.74414Z" stroke="#0055FF" stroke-width="3" stroke-linecap="round" stroke-linejoin="round"/>
<path d="M29.7783 10.085V2.97385C29.7783 2.7381 29.3569 2.51201 28.6067 2.34531C27.8566 2.17861 26.8392 2.08496 25.7783 2.08496H17.7783C16.7175 2.08496 15.7 2.17861 14.9499 2.34531C14.1997 2.51201 13.7783 2.7381 13.7783 2.97385V10.085" stroke="#0055FF" stroke-width="3" stroke-linejoin="round"/>
<path d="M2 14.085L18 23.085M26 23.085L42 14.085" stroke="#0055FF" stroke-width="3"/>
<circle cx="22" cy="23.085" r="4.5" stroke="#0055FF" stroke-width="3"/>
</svg>
