<svg width="59" height="63" viewBox="0 0 59 63" fill="none" xmlns="http://www.w3.org/2000/svg">
<path d="M7.06681 46.9495C4.95641 58.8818 17.9073 62.1704 27.0447 62.4497C29.336 62.5197 31.6267 62.7547 33.9128 62.9231C39.0605 63.3022 47.1629 62.421 54.2844 57.0733C60.4841 52.4178 59.6045 46.5103 57.1135 42.0158C55.3505 38.8348 54.8505 34.7744 56.1051 31.3617C57.7364 26.9241 58.817 20.7803 57.1034 14.1844C55.0665 6.34399 45.6297 3.4022 37.9721 2.60505C33.8303 2.17389 29.7244 0.731023 25.5987 0.167455C19.9165 -0.608713 13.5488 1.45125 9.70959 3.50828C2.83836 7.18973 0.378498 12.7872 0.019411 18.6022C-0.332963 24.3085 4.2038 29.0945 6.18589 30.9352C7.77155 32.4078 9.46292 33.4017 7.06681 46.9495Z" fill="#F3F8FF"/>
</svg>
