<svg width="49" height="43" viewBox="0 0 49 43" fill="none" xmlns="http://www.w3.org/2000/svg">
<path d="M24.0408 41L22.873 41.9414C23.3815 42.5722 24.2992 42.6852 24.9455 42.1965L24.0408 41ZM45.695 37.458L45.3494 38.9176L45.695 37.458ZM3.21857 37.5567L2.93136 36.0844L3.21857 37.5567ZM25.2086 40.0586C22.9503 37.2571 15.6752 33.5983 2.93136 36.0844L3.50578 39.0289C15.6341 36.6629 21.5723 40.3278 22.873 41.9414L25.2086 40.0586ZM3.5 36.5654V3.23557H0.5V36.5654H3.5ZM2.94354 3.75917C5.57923 3.80402 9.45205 4.3395 13.2221 5.84094C16.9899 7.34144 20.5463 9.76065 22.7477 13.5058L25.334 11.9856C22.6909 7.48888 18.4966 4.71232 14.3321 3.05383C10.17 1.39627 5.92913 0.809542 2.99458 0.759608L2.94354 3.75917ZM25.2169 13.6768C26.7516 11.7383 29.6592 8.89732 33.365 6.70673C37.071 4.51606 41.446 3.04967 45.9812 3.62618L46.3595 0.650132C40.9411 -0.0386565 35.8897 1.72941 31.8384 4.12419C27.787 6.51904 24.6066 9.61451 22.8648 11.8146L25.2169 13.6768ZM45.5 3.10269V36.4557H48.5V3.10269H45.5ZM46.0405 35.9983C40.8775 34.776 30.7078 34.0783 23.1361 39.8035L24.9455 42.1965C31.4525 37.2763 40.5103 37.772 45.3494 38.9176L46.0405 35.9983ZM25.5408 41V12.7457H22.5408V41H25.5408ZM6.13265 14.2457C8.34304 14.2457 11.2106 15.1033 13.814 16.3347C15.0975 16.9418 16.2712 17.6184 17.2188 18.2813C18.19 18.9608 18.835 19.5644 19.1499 20.0019L21.5848 18.2495C20.9814 17.411 20.0191 16.5791 18.9384 15.8231C17.8341 15.0505 16.5109 14.2916 15.0967 13.6227C12.3047 12.3021 8.97329 11.2457 6.13265 11.2457V14.2457ZM6.13265 20.6257C8.34304 20.6257 11.2106 21.4833 13.814 22.7147C15.0975 23.3218 16.2712 23.9984 17.2188 24.6613C18.19 25.3407 18.835 25.9444 19.1499 26.3819L21.5848 24.6294C20.9814 23.791 20.0191 22.9591 18.9384 22.2031C17.8341 21.4305 16.5109 20.6716 15.0967 20.0027C12.3047 18.6821 8.97329 17.6257 6.13265 17.6257V20.6257ZM6.13265 27.4614C8.34304 27.4614 11.2106 28.319 13.814 29.5503C15.0975 30.1574 16.2712 30.8341 17.2188 31.497C18.19 32.1764 18.835 32.78 19.1499 33.2176L21.5848 31.4651C20.9814 30.6267 20.0191 29.7948 18.9384 29.0388C17.8341 28.2662 16.5109 27.5073 15.0967 26.8384C12.3047 25.5178 8.97329 24.4614 6.13265 24.4614V27.4614ZM42.7347 11.2457C39.8941 11.2457 36.5627 12.3021 33.7706 13.6227C32.3564 14.2916 31.0333 15.0505 29.9289 15.8231C28.8482 16.5791 27.886 17.411 27.2825 18.2495L29.7175 20.0019C30.0324 19.5644 30.6773 18.9608 31.6486 18.2813C32.5962 17.6184 33.7698 16.9418 35.0534 16.3347C37.6567 15.1033 40.5243 14.2457 42.7347 14.2457V11.2457ZM42.7347 17.6257C39.8941 17.6257 36.5627 18.6821 33.7706 20.0027C32.3564 20.6716 31.0333 21.4305 29.9289 22.2031C28.8482 22.9591 27.886 23.791 27.2825 24.6294L29.7175 26.3819C30.0324 25.9444 30.6773 25.3407 31.6486 24.6613C32.5962 23.9984 33.7698 23.3218 35.0534 22.7147C37.6567 21.4833 40.5243 20.6257 42.7347 20.6257V17.6257ZM42.7347 24.4614C39.8941 24.4614 36.5627 25.5178 33.7706 26.8384C32.3564 27.5073 31.0333 28.2662 29.9289 29.0388C28.8482 29.7948 27.886 30.6267 27.2825 31.4651L29.7175 33.2176C30.0324 32.78 30.6773 32.1764 31.6486 31.497C32.5962 30.8341 33.7698 30.1574 35.0534 29.5503C37.6567 28.319 40.5243 27.4614 42.7347 27.4614V24.4614ZM45.5 36.4557C45.5 36.2861 45.5873 36.1477 45.6851 36.0733C45.779 36.0019 45.9089 35.9671 46.0405 35.9983L45.3494 38.9176C46.8861 39.2814 48.5 38.1577 48.5 36.4557H45.5ZM45.9812 3.62618C45.6697 3.58659 45.5 3.32858 45.5 3.10269H48.5C48.5 1.90686 47.6331 0.812036 46.3595 0.650132L45.9812 3.62618ZM3.5 3.23557C3.5 3.48475 3.28849 3.76504 2.94354 3.75917L2.99458 0.759608C1.56794 0.735332 0.5 1.90453 0.5 3.23557H3.5ZM2.93136 36.0844C3.20446 36.0311 3.5 36.2347 3.5 36.5654H0.5C0.5 38.1744 1.97815 39.3269 3.50578 39.0289L2.93136 36.0844Z" fill="#0055FF"/>
</svg>
