<svg width="245" height="205" viewBox="0 0 245 205" fill="none" xmlns="http://www.w3.org/2000/svg">
<path fill-rule="evenodd" clip-rule="evenodd" d="M215 198H0V196H215V198Z" fill="#15234A"/>
<path d="M110.422 79.3185L108.64 77.3669C105.543 71.0455 99.7304 73.888 97.397 69.3484C95.0635 64.8089 98.3727 59.1662 94.2574 55.857C90.1421 52.5478 89.9724 46.1415 93.2816 41.5595C96.5909 37.0199 90.9482 32.5228 92.6453 27.1771C94.3423 21.8315 99.6455 22.1709 100.706 15.4676C101.767 8.7643 104.991 3.03681 112.119 1.89131C119.246 0.745812 122.555 6.26117 131.592 1.89131C140.629 -2.47855 145.253 1.5519 149.199 5.62479C153.145 9.7401 159.381 7.49152 163.03 12.1584C166.678 16.7828 162.86 20.7284 167.23 25.7346C171.6 30.7409 173.933 39.8625 169.097 44.2323C164.26 48.6022 168.545 54.7539 164.006 59.1238C159.466 63.4512 153.017 57.5965 153.017 57.5965L110.422 79.3185Z" fill="#22323B"/>
<path d="M218.054 121.236L220.388 114.066C214.957 104.562 218.733 99.3863 223.315 97.1801C225.521 90.8162 227.261 84.7918 229.679 79.8279C232.097 74.8641 235.661 77.6642 234.091 82.0341C232.564 86.404 230.994 91.8345 230.994 91.8345C234.134 90.0102 236.085 91.7072 235.831 94.5921C239.31 93.3194 240.667 94.5921 240.667 96.8831C245.207 95.6952 245.843 99.0469 243.765 104.265C242.577 111.69 240.625 116.738 235.788 118.478C234.134 123.102 232.437 128.321 232.437 128.321L218.054 121.236Z" fill="#FFC094"/>
<path d="M108.809 87.8887C108.809 87.8887 71.4317 96.3314 58.3221 116.441C45.2125 136.551 31.6787 177.28 38.6365 187.717C45.5944 198.153 75.0803 196.159 90.6082 196.159C106.136 196.159 122.215 196.244 127.646 196.244C130.955 196.244 151.617 196.244 151.617 196.244C151.617 196.244 151.998 165.613 151.998 161.201C158.914 176.347 171.472 203.075 186.491 201.335C201.509 199.596 214.449 181.607 220.686 164.128C226.923 146.606 234.602 129.763 234.517 128.066C234.432 126.369 217.292 117.799 216.189 120.047C215.128 122.296 213.516 128.702 204.861 141.557C196.206 154.412 193.449 156.491 187.806 166.546C182.8 148.346 172.405 118.096 162.732 107.235C153.102 96.3738 132.61 90.6039 132.61 90.6039L108.809 87.8887Z" fill="#476CD2"/>
<path d="M109.615 64.9785L108.639 66.8453C108.554 78.6396 109.105 81.567 106.942 88.143C104.778 94.719 108.808 99.6829 116.954 103.501C125.1 107.362 135.155 105.665 137.955 100.998C140.713 96.3737 137.149 93.4038 137.955 83.6883C122.385 75.4577 109.615 64.9785 109.615 64.9785Z" fill="#FFC094"/>
<path d="M138.549 93.8281C138.125 91.3674 137.531 88.3127 137.913 83.6883C122.385 75.4577 109.614 64.9785 109.614 64.9785L108.639 66.8453C109.487 84.3671 124.973 95.2282 138.549 93.8281Z" fill="#E58973"/>
<path d="M111.523 53.3962C111.354 47.0747 103.802 45.0807 101.384 51.6567C98.9654 58.2327 100.832 68.9665 108.639 66.8452C110.123 74.3121 114.79 83.0518 127.136 87.8884C139.482 92.7249 148.137 88.2278 153.398 73.5909C158.659 58.954 157.046 44.7413 156.24 40.923C147.755 32.3529 144.446 42.7049 136.597 40.923C128.748 39.1411 130.361 28.7043 121.494 30.7408C122.469 42.0685 115.511 48.602 111.523 53.3962Z" fill="#FFC094"/>
<path d="M151.955 166.843C151.828 166.843 151.7 166.715 151.7 166.588C151.7 166.461 151.573 153.139 151.7 141.599C151.828 130.144 149.07 122.889 149.028 122.805C148.985 122.677 149.028 122.508 149.155 122.465C149.282 122.423 149.452 122.465 149.494 122.592C149.537 122.677 152.337 130.017 152.21 141.557C152.082 153.097 152.21 166.418 152.21 166.546C152.21 166.715 152.082 166.843 151.955 166.843Z" fill="#2F54BA"/>
<path d="M158.363 184.026C154.205 177.704 152.296 175.753 144.405 177.026C137.871 178.044 132.398 178.044 129.132 177.62C128.75 178.426 128.113 179.486 127.477 180.886C126.204 183.559 126.628 187.929 126.289 190.602C131.635 195.226 138.974 194.208 143.811 193.36C148.817 192.469 150.387 195.99 151.66 201.081C152.975 206.172 156.199 205.027 156.199 202.099C158.999 205.833 160.569 203.075 159.848 199.893C163.03 202.524 163.581 199.342 161.8 195.396C164.642 196.669 162.521 190.39 158.363 184.026Z" fill="#FFC094"/>
<path d="M155.945 203.711C155.902 203.711 155.902 203.711 155.86 203.711C155.733 203.668 155.648 203.541 155.69 203.371C156.242 201.717 155.563 197.983 153.993 194.038C152.423 190.219 148.266 188.225 148.223 188.183C148.096 188.14 148.054 187.971 148.096 187.843C148.138 187.716 148.308 187.674 148.435 187.716C148.605 187.801 152.848 189.795 154.46 193.825C156.114 197.941 156.793 201.717 156.199 203.499C156.114 203.626 156.03 203.711 155.945 203.711Z" fill="#E58973"/>
<path d="M160.059 201.42C160.059 201.42 160.016 201.42 160.059 201.42C159.889 201.42 159.804 201.293 159.804 201.165C159.889 200.147 159.041 196.753 156.453 191.662C153.992 186.783 150.343 184.704 150.301 184.662C150.174 184.577 150.131 184.45 150.216 184.322C150.301 184.195 150.428 184.153 150.555 184.238C150.725 184.322 154.374 186.444 156.919 191.45C159.38 196.329 160.441 199.935 160.313 201.208C160.271 201.335 160.186 201.42 160.059 201.42Z" fill="#E58973"/>
<path d="M162.35 196.965C162.266 196.965 162.138 196.881 162.096 196.796C158.447 185.977 151.659 181.438 151.574 181.395C151.447 181.31 151.405 181.141 151.489 181.056C151.574 180.928 151.702 180.886 151.829 180.971C151.914 181.013 158.829 185.68 162.563 196.626C162.605 196.753 162.52 196.923 162.393 196.965C162.435 196.965 162.393 196.965 162.35 196.965Z" fill="#E58973"/>
<path d="M183.563 181.438C183.393 181.438 183.309 181.311 183.309 181.183C183.309 181.098 183.69 172.91 189.545 163.067C189.63 162.94 189.757 162.898 189.885 162.983C190.012 163.067 190.054 163.195 189.969 163.322C184.2 173.08 183.818 181.098 183.818 181.183C183.775 181.311 183.69 181.438 183.563 181.438Z" fill="#2F54BA"/>
<path d="M66.1274 172.019C66.0849 172.019 66.0425 172.019 66.0001 171.976C65.8728 171.891 65.8304 171.764 65.9152 171.637C84.7523 137.696 85.2614 117.162 85.2614 116.95C85.2614 116.823 85.3887 116.695 85.516 116.695C85.6433 116.695 85.7705 116.823 85.7705 116.95C85.7705 117.162 85.2614 137.781 66.3819 171.849C66.2971 171.976 66.2122 172.019 66.1274 172.019Z" fill="#2F54BA"/>
<path d="M229.722 107.362C229.552 107.362 229.382 107.362 229.212 107.32C227.134 106.853 225.733 103.671 225.649 103.544C225.606 103.417 225.649 103.247 225.776 103.205C225.903 103.162 226.073 103.205 226.115 103.332C226.115 103.374 227.515 106.387 229.34 106.811C229.976 106.938 230.57 106.769 231.164 106.259C232.437 105.156 231.503 102.441 229.849 100.447C227.897 98.0712 224.503 96.1621 221.533 98.5803C221.406 98.6652 221.279 98.6652 221.194 98.5379C221.109 98.4106 221.109 98.2834 221.236 98.1985C224.291 95.6954 227.982 97.3924 230.273 100.15C232.055 102.314 233.116 105.326 231.503 106.684C230.909 107.15 230.315 107.362 229.722 107.362Z" fill="#E58973"/>
<path d="M228.619 99.1313C228.577 99.1313 228.577 99.1313 228.534 99.1313C228.407 99.0889 228.322 98.9616 228.365 98.7919L230.995 91.0704C231.037 90.9431 231.165 90.8583 231.334 90.9007C231.462 90.9431 231.546 91.0704 231.504 91.2401L228.874 98.9616C228.831 99.0889 228.746 99.1313 228.619 99.1313Z" fill="#E58973"/>
<path d="M231.717 103.543C231.59 103.543 231.463 103.416 231.463 103.289C231.463 103.162 231.548 103.034 231.717 103.034C232.608 102.992 235.451 97.222 235.621 93.9128C235.621 93.7855 235.748 93.6582 235.875 93.6582C236.002 93.6582 236.13 93.7855 236.13 93.9128C235.96 97.0098 233.245 103.501 231.717 103.543C231.76 103.543 231.76 103.543 231.717 103.543Z" fill="#E58973"/>
<path d="M235.196 106.301C234.942 106.301 234.645 106.259 234.39 106.174C233.118 105.75 232.439 104.307 232.566 102.313C232.566 102.186 232.693 102.059 232.821 102.059C232.948 102.059 233.075 102.186 233.075 102.313C232.948 104.095 233.499 105.283 234.56 105.665C235.621 106.047 236.936 105.41 237.784 104.18C239.609 101.55 240.584 97.2645 240.203 95.4826C240.16 95.3553 240.245 95.228 240.415 95.1856C240.542 95.1432 240.669 95.228 240.712 95.3977C241.136 97.3069 240.118 101.719 238.209 104.477C237.403 105.622 236.257 106.301 235.196 106.301Z" fill="#E58973"/>
<path d="M240.374 107.616C239.695 107.616 239.101 107.319 238.634 106.81C237.913 105.962 237.744 104.731 238.21 103.459C238.253 103.331 238.422 103.246 238.55 103.289C238.677 103.331 238.762 103.501 238.719 103.628C238.337 104.689 238.465 105.75 239.059 106.471C239.525 106.98 240.162 107.192 240.798 107.065C242.156 106.768 243.344 105.156 244.065 102.652C244.107 102.525 244.235 102.44 244.362 102.483C244.489 102.525 244.574 102.652 244.532 102.78C243.429 106.471 241.774 107.319 240.883 107.531C240.713 107.616 240.544 107.616 240.374 107.616Z" fill="#E58973"/>
<path d="M223.442 117.12C223.4 117.12 223.4 117.12 223.357 117.12C223.23 117.077 220.684 116.059 218.733 111.307C218.69 111.18 218.733 111.01 218.86 110.968C218.987 110.926 219.157 110.968 219.199 111.095C221.066 115.592 223.484 116.611 223.527 116.611C223.654 116.653 223.739 116.823 223.654 116.95C223.612 117.077 223.527 117.12 223.442 117.12Z" fill="#E58973"/>
<path d="M232.226 119.369C231.632 119.369 231.251 119.284 231.208 119.284C231.081 119.242 230.996 119.114 230.996 118.987C231.039 118.86 231.166 118.775 231.293 118.775C231.335 118.775 234.984 119.411 238.633 116.399C238.76 116.314 238.887 116.314 238.972 116.441C239.057 116.569 239.057 116.696 238.93 116.781C236.257 119.029 233.626 119.369 232.226 119.369Z" fill="#E58973"/>
<path d="M93.0679 196.498C91.0739 196.498 88.9526 196.456 86.7041 196.414C86.5768 196.414 86.4495 196.286 86.4495 196.159C86.4495 196.032 86.5768 195.904 86.7041 195.904C112.881 196.456 122.342 193.656 125.227 192.468C126.075 192.129 126.118 189.965 126.203 187.674C126.287 185.298 126.33 182.625 127.221 180.758C127.56 179.995 127.942 179.358 128.239 178.764C128.875 177.534 129.342 176.685 129.13 176.261C128.96 175.964 128.409 175.752 127.433 175.667C121.408 175.031 115.935 174.267 110.59 173.504C100.45 172.061 90.9042 170.661 79.1523 170.661C61.5031 170.661 56.3696 176.558 56.2847 176.601C56.1999 176.728 56.0302 176.728 55.9453 176.643C55.818 176.558 55.818 176.389 55.9029 176.304C56.115 176.049 61.291 170.194 79.1523 170.194C90.9042 170.194 100.492 171.552 110.632 173.037C115.935 173.801 121.451 174.607 127.433 175.201C128.663 175.328 129.3 175.582 129.512 176.049C129.851 176.728 129.384 177.576 128.621 179.061C128.324 179.613 127.984 180.292 127.603 181.013C126.754 182.795 126.669 185.425 126.627 187.716C126.542 190.389 126.5 192.468 125.354 192.977C122.808 194.038 114.578 196.498 93.0679 196.498Z" fill="#2F54BA"/>
</svg>
