<svg width="1440" height="1188" viewBox="0 0 1440 1188" fill="none" xmlns="http://www.w3.org/2000/svg">
<rect y="44" width="1440" height="583" fill="#F0F6FF"/>
<circle opacity="0.15" cx="111.945" cy="153.948" r="112" transform="rotate(31.3953 111.945 153.948)" fill="#99C2FF"/>
<path opacity="0.15" d="M0 1146C3.15714e-06 1109.75 7.11309 1073.87 20.9331 1040.38C34.7532 1006.89 55.0096 976.467 80.5457 950.838C106.082 925.209 136.398 904.879 169.762 891.009C203.127 877.139 238.887 870 275 870C311.114 870 346.874 877.139 380.238 891.009C413.603 904.88 443.918 925.21 469.454 950.839C494.991 976.468 515.247 1006.89 529.067 1040.38C542.887 1073.87 550 1109.76 550 1146L0 1146Z" fill="#99C2FF"/>
<circle opacity="0.15" cx="245.105" cy="235.214" r="112" transform="rotate(31.3953 245.105 235.214)" fill="#99C2FF"/>
<circle opacity="0.15" cx="1194.94" cy="951.948" r="112" transform="rotate(31.3953 1194.94 951.948)" fill="#99C2FF"/>
<circle opacity="0.15" cx="1328.1" cy="1033.21" r="112" transform="rotate(31.3953 1328.1 1033.21)" fill="#99C2FF"/>
</svg>
