<svg width="639" height="396" viewBox="0 0 639 396" fill="none" xmlns="http://www.w3.org/2000/svg">
<path fill-rule="evenodd" clip-rule="evenodd" d="M300.445 26.8149C268.108 37.9526 237.362 61.7724 213.121 84.0011C162.674 130.284 155.14 140.017 92.9461 178.859C56.6782 201.509 28.0851 220.649 13.9991 246.247C-25.5913 318.174 21.5803 395.905 120.322 395.905C124.347 395.905 521.843 395.905 521.843 395.905C521.843 395.905 569.061 396.887 603.55 358.42C720.31 228.09 526.616 -51.0089 300.445 26.8149Z" fill="#E9EFF8"/>
<path d="M577.344 394.22H7.91553V395.062H577.344V394.22Z" fill="#000446"/>
<path fill-rule="evenodd" clip-rule="evenodd" d="M174.28 84.0479H538.409C544.352 84.0479 549.266 88.9148 549.266 94.9048V325.475C549.266 331.418 544.399 336.332 538.409 336.332H174.28C168.337 336.332 163.423 331.465 163.423 325.475V94.858C163.423 88.9148 168.29 84.0479 174.28 84.0479Z" fill="#3D67DA"/>
<path d="M534.01 98.2744H178.21V295.946H534.01V98.2744Z" fill="url(#paint0_linear_2_20675)"/>
<path fill-rule="evenodd" clip-rule="evenodd" d="M327.166 332.448C325.622 366.329 321.457 374.893 292.817 394.22H356.274H419.731C391.091 374.893 386.973 366.329 385.382 332.448L356.227 329.687L327.166 332.448Z" fill="#3D67DA"/>
<path d="M386.458 336.285H326.184V347.002H386.458V336.285Z" fill="#2A4589"/>
<path fill-rule="evenodd" clip-rule="evenodd" d="M356.321 305.633C361.047 305.633 364.885 309.47 364.885 314.197C364.885 318.923 361.047 322.761 356.321 322.761C351.594 322.761 347.757 318.923 347.757 314.197C347.804 309.47 351.594 305.633 356.321 305.633Z" fill="#B1D2FC"/>
<path d="M467.558 26.2998H246.394V295.945H467.558V26.2998Z" fill="#6699D8"/>
<path d="M246.394 295.945V26.2998H467.558L272.413 295.945H246.394Z" fill="#7B97E3"/>
<path d="M455.063 260.286L455.438 295.945H258.983V40.9941H455.063V260.286Z" fill="white"/>
<path fill-rule="evenodd" clip-rule="evenodd" d="M356.976 5.28809C353.513 5.28809 350.705 8.09592 350.705 11.5589C350.705 15.0219 353.513 17.8297 356.976 17.8297C360.439 17.8297 363.246 15.0219 363.246 11.5589C363.246 8.09592 360.439 5.28809 356.976 5.28809ZM339.146 11.6057C341.252 5.28809 347.101 0 356.976 0C366.85 0 372.7 5.28809 374.805 11.6057C386.785 11.6057 406.113 20.076 408.359 33.7408V40.9944H356.976H305.592V33.7408C307.792 20.076 327.166 11.6057 339.146 11.6057Z" fill="#3D67DA"/>
<path d="M408.406 33.7412H305.592V40.9948H408.406V33.7412Z" fill="#0E57BF"/>
<path d="M408.406 33.7412H305.592V40.9948H408.406V33.7412Z" stroke="#71BDF8" stroke-width="0.216" stroke-miterlimit="2.6131"/>
<path fill-rule="evenodd" clip-rule="evenodd" d="M269.184 56.25H445.423C446.406 56.25 447.201 57.0456 447.201 58.0283V95.0449C447.201 96.0276 446.406 96.8232 445.423 96.8232H269.184C268.202 96.8232 267.406 96.0276 267.406 95.0449V58.0283C267.359 57.0456 268.202 56.25 269.184 56.25Z" fill="#3D67DA"/>
<path d="M294.595 113.249H273.068V286.492H294.595V113.249Z" fill="#C3D2FA"/>
<path d="M316.076 113.249H294.549V286.492H316.076V113.249Z" fill="#DDEAF8"/>
<path d="M442.147 139.456H273.068V140.766H442.147V139.456Z" fill="#8B9FD7"/>
<path d="M442.147 168.61H273.068V169.921H442.147V168.61Z" fill="#8B9FD7"/>
<path d="M442.147 197.765H273.068V199.075H442.147V197.765Z" fill="#8B9FD7"/>
<path d="M442.147 226.92H273.068V228.23H442.147V226.92Z" fill="#8B9FD7"/>
<path d="M442.147 256.074H273.068V257.385H442.147V256.074Z" fill="#8B9FD7"/>
<path fill-rule="evenodd" clip-rule="evenodd" d="M302.457 128.927L313.829 118.304C314.718 117.461 316.122 117.508 316.918 118.397C317.76 119.287 317.713 120.69 316.824 121.486L303.768 133.653L303.721 133.7C302.832 134.496 301.428 134.402 300.632 133.513L294.361 126.306C293.566 125.417 293.659 124.013 294.549 123.217C295.438 122.422 296.842 122.516 297.637 123.405L302.457 128.927Z" fill="#3D67DA"/>
<path fill-rule="evenodd" clip-rule="evenodd" d="M301.849 158.689L313.221 148.066C314.11 147.224 315.514 147.271 316.309 148.16C317.152 149.049 317.105 150.453 316.216 151.249L303.159 163.416L303.112 163.463C302.223 164.258 300.819 164.165 300.024 163.276L293.753 156.069C292.957 155.18 293.051 153.776 293.94 152.98C294.829 152.185 296.233 152.278 297.029 153.167L301.849 158.689Z" fill="#3D67DA"/>
<path fill-rule="evenodd" clip-rule="evenodd" d="M281.726 185.691L293.098 175.068C293.987 174.226 295.391 174.273 296.186 175.162C297.029 176.051 296.982 177.455 296.093 178.251L283.036 190.418L282.989 190.465C282.1 191.26 280.696 191.167 279.901 190.278L273.63 183.071C272.834 182.182 272.928 180.778 273.817 179.982C274.706 179.187 276.11 179.28 276.906 180.169L281.726 185.691Z" fill="#3D67DA"/>
<path fill-rule="evenodd" clip-rule="evenodd" d="M329.974 117.695H396.566C397.83 117.695 398.813 118.725 398.813 119.942C398.813 121.205 397.783 122.188 396.566 122.188H329.974C328.71 122.188 327.728 121.158 327.728 119.942C327.728 118.725 328.757 117.695 329.974 117.695Z" fill="#3D67DA"/>
<path fill-rule="evenodd" clip-rule="evenodd" d="M329.974 127.288H433.957C435.221 127.288 436.203 128.318 436.203 129.534C436.203 130.798 435.174 131.781 433.957 131.781H329.974C328.71 131.781 327.728 130.751 327.728 129.534C327.728 128.271 328.757 127.288 329.974 127.288Z" fill="#7B97E3"/>
<path fill-rule="evenodd" clip-rule="evenodd" d="M329.974 147.505H396.566C397.83 147.505 398.813 148.534 398.813 149.751C398.813 151.015 397.783 151.997 396.566 151.997H329.974C328.71 151.997 327.728 150.968 327.728 149.751C327.728 148.534 328.757 147.505 329.974 147.505Z" fill="#3D67DA"/>
<path fill-rule="evenodd" clip-rule="evenodd" d="M329.974 177.314H396.566C397.83 177.314 398.813 178.344 398.813 179.561C398.813 180.824 397.783 181.807 396.566 181.807H329.974C328.71 181.807 327.728 180.777 327.728 179.561C327.728 178.297 328.757 177.314 329.974 177.314Z" fill="#3D67DA"/>
<path fill-rule="evenodd" clip-rule="evenodd" d="M329.974 207.078H396.566C397.83 207.078 398.813 208.108 398.813 209.324C398.813 210.588 397.783 211.571 396.566 211.571H329.974C328.71 211.571 327.728 210.541 327.728 209.324C327.728 208.108 328.757 207.078 329.974 207.078Z" fill="#3D67DA"/>
<path fill-rule="evenodd" clip-rule="evenodd" d="M329.974 236.888H396.566C397.83 236.888 398.813 237.917 398.813 239.134C398.813 240.397 397.783 241.38 396.566 241.38H329.974C328.71 241.38 327.728 240.351 327.728 239.134C327.728 237.87 328.757 236.888 329.974 236.888Z" fill="#3D67DA"/>
<path fill-rule="evenodd" clip-rule="evenodd" d="M329.974 266.65H396.566C397.83 266.65 398.813 267.68 398.813 268.897C398.813 270.16 397.783 271.143 396.566 271.143H329.974C328.71 271.143 327.728 270.113 327.728 268.897C327.728 267.68 328.757 266.65 329.974 266.65Z" fill="#3D67DA"/>
<path fill-rule="evenodd" clip-rule="evenodd" d="M329.974 157.052H433.957C435.221 157.052 436.203 158.081 436.203 159.298C436.203 160.562 435.174 161.544 433.957 161.544H329.974C328.71 161.544 327.728 160.515 327.728 159.298C327.728 158.081 328.757 157.052 329.974 157.052Z" fill="#7B97E3"/>
<path fill-rule="evenodd" clip-rule="evenodd" d="M329.974 186.861H433.957C435.221 186.861 436.203 187.891 436.203 189.108C436.203 190.371 435.174 191.354 433.957 191.354H329.974C328.71 191.354 327.728 190.324 327.728 189.108C327.728 187.891 328.757 186.861 329.974 186.861Z" fill="#7B97E3"/>
<path fill-rule="evenodd" clip-rule="evenodd" d="M329.974 216.671H433.957C435.221 216.671 436.203 217.7 436.203 218.917C436.203 220.181 435.174 221.163 433.957 221.163H329.974C328.71 221.163 327.728 220.134 327.728 218.917C327.728 217.654 328.757 216.671 329.974 216.671Z" fill="#7B97E3"/>
<path fill-rule="evenodd" clip-rule="evenodd" d="M329.974 246.435H433.957C435.221 246.435 436.203 247.464 436.203 248.681C436.203 249.898 435.174 250.927 433.957 250.927H329.974C328.71 250.927 327.728 249.898 327.728 248.681C327.728 247.464 328.757 246.435 329.974 246.435Z" fill="#7B97E3"/>
<path fill-rule="evenodd" clip-rule="evenodd" d="M329.974 276.244H433.957C435.221 276.244 436.203 277.274 436.203 278.49C436.203 279.754 435.174 280.737 433.957 280.737H329.974C328.71 280.737 327.728 279.707 327.728 278.49C327.728 277.227 328.757 276.244 329.974 276.244Z" fill="#7B97E3"/>
<path d="M290.625 70.9406C290.511 70.8286 290.299 70.6767 289.989 70.4849C289.695 70.293 289.328 70.1091 288.887 69.9333C288.463 69.7414 287.998 69.5815 287.492 69.4536C286.987 69.3257 286.473 69.2617 285.951 69.2617C285.021 69.2617 284.327 69.4296 283.87 69.7654C283.413 70.1011 283.185 70.5728 283.185 71.1804C283.185 71.5322 283.267 71.8279 283.43 72.0678C283.609 72.2916 283.862 72.4915 284.188 72.6674C284.515 72.8432 284.923 73.0031 285.412 73.147C285.918 73.2909 286.497 73.4428 287.15 73.6027C287.998 73.8266 288.765 74.0664 289.45 74.3222C290.152 74.578 290.739 74.8978 291.212 75.2815C291.702 75.6653 292.077 76.129 292.338 76.6726C292.599 77.2002 292.73 77.8558 292.73 78.6392C292.73 79.5506 292.55 80.334 292.191 80.9896C291.849 81.6291 291.376 82.1488 290.772 82.5485C290.185 82.9482 289.499 83.244 288.716 83.4359C287.949 83.6117 287.142 83.6997 286.293 83.6997C284.988 83.6997 283.699 83.5078 282.426 83.1241C281.154 82.7404 280.012 82.1967 279 81.4932L280.493 78.6392C280.64 78.7831 280.901 78.975 281.276 79.2148C281.668 79.4387 282.124 79.6705 282.647 79.9103C283.169 80.1342 283.748 80.326 284.384 80.4859C285.021 80.6458 285.673 80.7258 286.342 80.7258C288.202 80.7258 289.132 80.1422 289.132 78.975C289.132 78.6072 289.026 78.2954 288.814 78.0396C288.602 77.7838 288.3 77.56 287.908 77.3681C287.517 77.1762 287.044 77.0003 286.489 76.8405C285.934 76.6806 285.314 76.5047 284.629 76.3128C283.797 76.089 283.071 75.8491 282.451 75.5933C281.847 75.3215 281.341 75.0097 280.933 74.658C280.526 74.2902 280.216 73.8745 280.003 73.4108C279.808 72.9312 279.71 72.3636 279.71 71.708C279.71 70.8446 279.873 70.0772 280.199 69.4056C280.526 68.7341 280.974 68.1745 281.545 67.7268C282.133 67.2791 282.81 66.9433 283.577 66.7195C284.343 66.4797 285.167 66.3597 286.048 66.3597C287.272 66.3597 288.398 66.5516 289.426 66.9353C290.454 67.3031 291.351 67.7428 292.118 68.2544L290.625 70.9406Z" fill="white"/>
<path d="M302.505 82.8603C302.065 83.0521 301.526 83.244 300.89 83.4359C300.254 83.6277 299.585 83.7237 298.883 83.7237C298.426 83.7237 297.994 83.6677 297.586 83.5558C297.194 83.4439 296.844 83.268 296.534 83.0282C296.24 82.7723 296.003 82.4526 295.824 82.0688C295.644 81.6691 295.555 81.1894 295.555 80.6298V73.4108H293.866V70.9406H295.555V66.8634H298.834V70.9406H301.526V73.4108H298.834V79.5506C298.834 79.9983 298.948 80.318 299.177 80.5099C299.421 80.6858 299.715 80.7737 300.058 80.7737C300.4 80.7737 300.735 80.7178 301.061 80.6058C301.388 80.4939 301.649 80.398 301.844 80.318L302.505 82.8603Z" fill="white"/>
<path d="M308.129 83.7477C306.807 83.7477 305.804 83.3319 305.119 82.5005C304.433 81.6691 304.091 80.438 304.091 78.8071V70.9406H307.37V78.1116C307.37 80.0462 308.08 81.0136 309.499 81.0136C310.136 81.0136 310.748 80.8297 311.335 80.4619C311.939 80.0782 312.428 79.5026 312.803 78.7351V70.9406H316.083V79.8144C316.083 80.1502 316.14 80.39 316.254 80.5339C316.385 80.6778 316.589 80.7577 316.866 80.7737V83.5078C316.54 83.5718 316.262 83.6117 316.034 83.6277C315.822 83.6437 315.626 83.6517 315.447 83.6517C314.859 83.6517 314.378 83.5238 314.003 83.268C313.644 82.9962 313.432 82.6284 313.366 82.1648L313.293 81.1575C312.722 82.0209 311.988 82.6684 311.09 83.1001C310.193 83.5318 309.206 83.7477 308.129 83.7477Z" fill="white"/>
<path d="M324.653 83.7477C323.772 83.7477 322.956 83.5798 322.205 83.244C321.455 82.9082 320.81 82.4446 320.272 81.853C319.734 81.2614 319.309 80.5739 318.999 79.7904C318.706 78.991 318.559 78.1356 318.559 77.2242C318.559 76.3128 318.697 75.4654 318.975 74.682C319.269 73.8985 319.668 73.211 320.174 72.6194C320.68 72.0278 321.284 71.5641 321.985 71.2284C322.687 70.8926 323.454 70.7247 324.286 70.7247C325.232 70.7247 326.08 70.9486 326.831 71.3962C327.598 71.8439 328.193 72.4275 328.618 73.147V66H331.897V79.8144C331.897 80.1502 331.954 80.39 332.068 80.5339C332.183 80.6778 332.378 80.7577 332.656 80.7737V83.5078C332.085 83.6197 331.62 83.6757 331.261 83.6757C330.673 83.6757 330.192 83.5318 329.817 83.244C329.441 82.9562 329.229 82.5805 329.18 82.1168L329.107 81.3253C328.634 82.1248 327.989 82.7324 327.174 83.1481C326.374 83.5478 325.534 83.7477 324.653 83.7477ZM325.509 81.0136C325.819 81.0136 326.138 80.9656 326.464 80.8697C326.79 80.7577 327.092 80.6058 327.369 80.414C327.647 80.2221 327.891 79.9983 328.104 79.7424C328.332 79.4866 328.503 79.2068 328.618 78.903V75.9051C328.487 75.5534 328.299 75.2336 328.055 74.9458C327.826 74.642 327.557 74.3862 327.247 74.1783C326.953 73.9545 326.635 73.7786 326.292 73.6507C325.966 73.5228 325.64 73.4588 325.314 73.4588C324.824 73.4588 324.367 73.5627 323.943 73.7706C323.535 73.9784 323.184 74.2662 322.891 74.634C322.597 74.9857 322.369 75.3935 322.205 75.8571C322.042 76.3208 321.961 76.8005 321.961 77.2961C321.961 77.8238 322.05 78.3114 322.23 78.7591C322.409 79.2068 322.654 79.5985 322.964 79.9343C323.274 80.2701 323.641 80.5339 324.065 80.7258C324.506 80.9176 324.987 81.0136 325.509 81.0136Z" fill="white"/>
<path d="M335.385 85.9541C335.663 86.0341 335.932 86.09 336.193 86.122C336.454 86.17 336.674 86.194 336.854 86.194C337.066 86.194 337.262 86.154 337.441 86.074C337.621 85.9941 337.784 85.8502 337.931 85.6423C338.077 85.4505 338.224 85.1787 338.371 84.8269C338.518 84.4751 338.673 84.0355 338.836 83.5078L333.77 70.9406H337.147L340.623 80.7258L343.706 70.9406H346.79L341.406 86.0021C341.096 86.8815 340.566 87.601 339.815 88.1606C339.064 88.7202 338.134 89 337.025 89C336.764 89 336.495 88.976 336.217 88.9281C335.956 88.8961 335.679 88.8321 335.385 88.7362V85.9541Z" fill="white"/>
<path d="M358.279 66.4797H361.265L367.873 83.5078H364.398L362.782 79.2628H356.713L355.122 83.5078H351.647L358.279 66.4797ZM362.17 76.9364L359.772 70.245L357.276 76.9364H362.17Z" fill="white"/>
<path d="M376.754 83.7477C375.775 83.7477 374.902 83.5318 374.135 83.1001C373.368 82.6684 372.765 82.0768 372.324 81.3253V83.5078H369.461V66H372.74V73.147C373.197 72.3796 373.792 71.788 374.527 71.3723C375.277 70.9406 376.15 70.7247 377.145 70.7247C377.977 70.7247 378.736 70.9006 379.421 71.2523C380.107 71.6041 380.694 72.0758 381.184 72.6674C381.689 73.2589 382.073 73.9545 382.334 74.7539C382.611 75.5534 382.75 76.3928 382.75 77.2722C382.75 78.1835 382.595 79.0309 382.285 79.8144C381.991 80.5978 381.575 81.2854 381.037 81.877C380.498 82.4526 379.862 82.9082 379.128 83.244C378.394 83.5798 377.602 83.7477 376.754 83.7477ZM375.848 81.0136C376.37 81.0136 376.852 80.9176 377.292 80.7258C377.733 80.5179 378.108 80.2461 378.418 79.9103C378.728 79.5746 378.965 79.1828 379.128 78.7351C379.307 78.2875 379.397 77.8078 379.397 77.2961C379.397 76.7845 379.315 76.2968 379.152 75.8332C378.989 75.3695 378.752 74.9618 378.442 74.61C378.149 74.2583 377.798 73.9784 377.39 73.7706C376.982 73.5627 376.534 73.4588 376.044 73.4588C375.31 73.4588 374.649 73.6986 374.062 74.1783C373.491 74.642 373.05 75.2176 372.74 75.9051V78.903C372.854 79.2228 373.017 79.5106 373.23 79.7664C373.458 80.0222 373.711 80.2461 373.988 80.438C374.266 80.6138 374.567 80.7577 374.894 80.8697C375.22 80.9656 375.538 81.0136 375.848 81.0136Z" fill="white"/>
<path d="M392.608 73.7226C391.612 73.7386 390.723 73.9305 389.94 74.2982C389.157 74.65 388.594 75.1856 388.251 75.9051V83.5078H384.972V70.9406H387.982V73.6267C388.211 73.195 388.48 72.8113 388.79 72.4755C389.1 72.1237 389.434 71.82 389.793 71.5641C390.152 71.3083 390.511 71.1164 390.87 70.9885C391.245 70.8446 391.604 70.7727 391.947 70.7727C392.126 70.7727 392.257 70.7727 392.338 70.7727C392.436 70.7727 392.526 70.7807 392.608 70.7967V73.7226Z" fill="white"/>
<path d="M399.714 83.7477C398.669 83.7477 397.731 83.5718 396.899 83.22C396.067 82.8683 395.357 82.3966 394.77 81.805C394.199 81.1974 393.758 80.5019 393.448 79.7185C393.138 78.935 392.983 78.1116 392.983 77.2482C392.983 76.3688 393.138 75.5374 393.448 74.7539C393.758 73.9705 394.199 73.2829 394.77 72.6913C395.357 72.0838 396.067 71.6041 396.899 71.2523C397.731 70.9006 398.669 70.7247 399.714 70.7247C400.758 70.7247 401.688 70.9006 402.504 71.2523C403.336 71.6041 404.037 72.0838 404.608 72.6913C405.196 73.2829 405.644 73.9705 405.954 74.7539C406.264 75.5374 406.419 76.3688 406.419 77.2482C406.419 78.1116 406.264 78.935 405.954 79.7185C405.644 80.5019 405.204 81.1974 404.633 81.805C404.062 82.3966 403.36 82.8683 402.528 83.22C401.696 83.5718 400.758 83.7477 399.714 83.7477ZM396.361 77.2482C396.361 77.8078 396.442 78.3194 396.605 78.7831C396.785 79.2308 397.022 79.6225 397.315 79.9583C397.625 80.2941 397.984 80.5579 398.392 80.7497C398.8 80.9256 399.24 81.0136 399.714 81.0136C400.187 81.0136 400.627 80.9256 401.035 80.7497C401.443 80.5579 401.794 80.2941 402.088 79.9583C402.398 79.6225 402.634 79.2228 402.797 78.7591C402.977 78.2954 403.067 77.7838 403.067 77.2242C403.067 76.6806 402.977 76.1769 402.797 75.7132C402.634 75.2496 402.398 74.8498 402.088 74.5141C401.794 74.1783 401.443 73.9225 401.035 73.7466C400.627 73.5547 400.187 73.4588 399.714 73.4588C399.24 73.4588 398.8 73.5547 398.392 73.7466C397.984 73.9385 397.625 74.2023 397.315 74.5381C397.022 74.8738 396.785 75.2735 396.605 75.7372C396.442 76.2009 396.361 76.7046 396.361 77.2482Z" fill="white"/>
<path d="M412.133 83.7477C411.513 83.7477 410.934 83.6517 410.395 83.4599C409.857 83.252 409.392 82.9722 409 82.6204C408.609 82.2527 408.298 81.829 408.07 81.3493C407.858 80.8697 407.752 80.342 407.752 79.7664C407.752 79.1748 407.882 78.6312 408.143 78.1356C408.421 77.6239 408.796 77.1922 409.269 76.8405C409.759 76.4887 410.338 76.2169 411.007 76.025C411.676 75.8172 412.41 75.7132 413.21 75.7132C413.781 75.7132 414.335 75.7612 414.874 75.8571C415.429 75.9531 415.918 76.089 416.342 76.2649V75.5454C416.342 74.7139 416.097 74.0744 415.608 73.6267C415.135 73.179 414.425 72.9552 413.479 72.9552C412.794 72.9552 412.125 73.0751 411.472 73.3149C410.819 73.5547 410.15 73.9065 409.465 74.3702L408.462 72.3316C410.11 71.2603 411.888 70.7247 413.797 70.7247C415.641 70.7247 417.068 71.1724 418.08 72.0678C419.108 72.9472 419.622 74.2263 419.622 75.9051V79.8144C419.622 80.1502 419.679 80.39 419.793 80.5339C419.924 80.6778 420.127 80.7577 420.405 80.7737V83.5078C419.85 83.6197 419.369 83.6757 418.961 83.6757C418.341 83.6757 417.86 83.5398 417.517 83.268C417.191 82.9962 416.987 82.6364 416.905 82.1887L416.832 81.4932C416.261 82.2287 415.567 82.7883 414.751 83.1721C413.936 83.5558 413.063 83.7477 412.133 83.7477ZM413.063 81.3973C413.617 81.3973 414.14 81.3014 414.629 81.1095C415.135 80.9176 415.526 80.6618 415.804 80.342C416.163 80.0702 416.342 79.7664 416.342 79.4307V77.9917C415.951 77.8478 415.526 77.7358 415.07 77.6559C414.613 77.56 414.172 77.512 413.748 77.512C412.9 77.512 412.206 77.7039 411.668 78.0876C411.129 78.4553 410.86 78.927 410.86 79.5026C410.86 80.0462 411.072 80.5019 411.496 80.8697C411.921 81.2214 412.443 81.3973 413.063 81.3973Z" fill="white"/>
<path d="M427.997 83.7477C427.116 83.7477 426.3 83.5798 425.55 83.244C424.799 82.9082 424.155 82.4446 423.616 81.853C423.078 81.2614 422.654 80.5739 422.344 79.7904C422.05 78.991 421.903 78.1356 421.903 77.2242C421.903 76.3128 422.042 75.4654 422.319 74.682C422.613 73.8985 423.013 73.211 423.518 72.6194C424.024 72.0278 424.628 71.5641 425.329 71.2284C426.031 70.8926 426.798 70.7247 427.63 70.7247C428.576 70.7247 429.425 70.9486 430.175 71.3962C430.942 71.8439 431.538 72.4275 431.962 73.147V66H435.241V79.8144C435.241 80.1502 435.298 80.39 435.413 80.5339C435.527 80.6778 435.723 80.7577 436 80.7737V83.5078C435.429 83.6197 434.964 83.6757 434.605 83.6757C434.018 83.6757 433.536 83.5318 433.161 83.244C432.786 82.9562 432.574 82.5805 432.525 82.1168L432.451 81.3253C431.978 82.1248 431.334 82.7324 430.518 83.1481C429.718 83.5478 428.878 83.7477 427.997 83.7477ZM428.854 81.0136C429.164 81.0136 429.482 80.9656 429.808 80.8697C430.134 80.7577 430.436 80.6058 430.714 80.414C430.991 80.2221 431.236 79.9983 431.448 79.7424C431.676 79.4866 431.848 79.2068 431.962 78.903V75.9051C431.831 75.5534 431.644 75.2336 431.399 74.9458C431.171 74.642 430.901 74.3862 430.591 74.1783C430.298 73.9545 429.979 73.7786 429.637 73.6507C429.311 73.5228 428.984 73.4588 428.658 73.4588C428.168 73.4588 427.712 73.5627 427.287 73.7706C426.879 73.9784 426.529 74.2662 426.235 74.634C425.941 74.9857 425.713 75.3935 425.55 75.8571C425.387 76.3208 425.305 76.8005 425.305 77.2961C425.305 77.8238 425.395 78.3114 425.574 78.7591C425.754 79.2068 425.998 79.5985 426.308 79.9343C426.618 80.2701 426.985 80.5339 427.41 80.7258C427.85 80.9176 428.332 81.0136 428.854 81.0136Z" fill="white"/>
<path fill-rule="evenodd" clip-rule="evenodd" d="M292.021 290.704H170.442C162.019 290.704 155.093 302.357 155.093 316.583C155.093 330.809 161.972 342.462 170.442 342.462H292.021C300.445 342.462 307.371 330.809 307.371 316.583C307.324 302.357 300.445 290.704 292.021 290.704Z" fill="#FF8000"/>
<path fill-rule="evenodd" clip-rule="evenodd" d="M256.69 290.704H213.122C221.545 290.704 228.471 302.357 228.471 316.583C228.471 330.809 221.592 342.462 213.122 342.462H256.69C265.113 342.462 272.039 330.809 272.039 316.583C272.039 302.357 265.113 290.704 256.69 290.704Z" fill="#EC7600"/>
<path fill-rule="evenodd" clip-rule="evenodd" d="M176.105 334.6H61.124C65.8973 325.335 67.7692 312.184 61.124 298.613H176.105C179.942 298.613 183.124 306.709 183.124 316.63C183.124 326.458 179.989 334.6 176.105 334.6Z" fill="white"/>
<path fill-rule="evenodd" clip-rule="evenodd" d="M65.4294 317.285C65.523 311.389 64.3062 305.025 61.124 298.613H176.105C179.942 298.613 183.124 306.709 183.124 316.583C183.124 316.817 183.124 317.051 183.124 317.285H65.4294Z" fill="#D7D7D8"/>
<path fill-rule="evenodd" clip-rule="evenodd" d="M57.5674 342.462H176.526C182.048 342.462 187.944 330.669 187.944 316.443C187.944 302.216 182.095 290.704 176.526 290.704H57.5674L57.6142 298.472L176.152 298.613C179.989 298.613 183.171 306.709 183.171 316.63C183.171 326.504 180.036 334.647 176.152 334.647L57.6142 334.506L57.5674 342.462Z" fill="#FF8000"/>
<path fill-rule="evenodd" clip-rule="evenodd" d="M167.915 306.475C163.095 306.475 159.586 306.475 154.765 306.475C149.711 309.657 151.162 322.386 148.167 330.716L155.935 323.836L161.598 330.248C165.95 322.76 163.423 309.891 167.915 306.475Z" fill="#F48120"/>
<path fill-rule="evenodd" clip-rule="evenodd" d="M143.861 316.489C139.041 316.489 135.531 316.489 130.711 316.489C125.657 317.8 127.108 322.994 124.113 326.41L131.881 323.602L137.544 326.223C141.896 323.134 139.415 317.846 143.861 316.489Z" fill="#F48120"/>
<path fill-rule="evenodd" clip-rule="evenodd" d="M303.019 342.462H164.218C154.578 342.462 146.716 354.114 146.716 368.341C146.716 382.567 154.578 394.22 164.218 394.22H303.019C312.659 394.22 320.521 382.567 320.521 368.341C320.521 354.114 312.659 342.462 303.019 342.462Z" fill="#345095"/>
<path fill-rule="evenodd" clip-rule="evenodd" d="M217.754 342.462H187.897C197.538 342.462 205.4 354.114 205.4 368.341C205.4 382.567 197.538 394.22 187.897 394.22H217.754C227.394 394.22 235.256 382.567 235.256 368.341C235.256 354.114 227.394 342.462 217.754 342.462Z" fill="#193170"/>
<path fill-rule="evenodd" clip-rule="evenodd" d="M170.676 386.358H39.4102C44.8386 377.092 46.9913 363.942 39.4102 350.371H170.723C175.122 350.371 178.725 358.467 178.725 368.388C178.679 378.262 175.075 386.358 170.676 386.358Z" fill="white"/>
<path fill-rule="evenodd" clip-rule="evenodd" d="M44.277 369.043C44.3706 363.147 42.9667 356.782 39.3633 350.371H170.676C175.075 350.371 178.679 358.467 178.679 368.388C178.679 368.622 178.679 368.856 178.679 369.09H44.277V369.043Z" fill="#D7D7D8"/>
<path fill-rule="evenodd" clip-rule="evenodd" d="M35.292 394.22H171.144C177.462 394.22 184.154 382.427 184.154 368.2C184.154 353.974 177.462 342.462 171.144 342.462H35.292L35.3388 350.23L170.676 350.371C175.075 350.371 178.679 358.467 178.679 368.388C178.679 378.262 175.075 386.405 170.676 386.405L35.3388 386.264L35.292 394.22Z" fill="#345095"/>
<path fill-rule="evenodd" clip-rule="evenodd" d="M161.317 358.279C155.794 358.279 151.817 358.279 146.295 358.279C140.539 361.462 142.176 374.19 138.76 382.52L147.652 375.641L154.11 382.052C159.07 374.518 156.216 361.649 161.317 358.279Z" fill="#105DC4"/>
<path fill-rule="evenodd" clip-rule="evenodd" d="M286.734 342.462H256.877C266.517 342.462 274.379 354.114 274.379 368.341C274.379 382.567 266.517 394.22 256.877 394.22H286.734C296.374 394.22 304.236 382.567 304.236 368.341C304.236 354.114 296.374 342.462 286.734 342.462Z" fill="#193170"/>
<path fill-rule="evenodd" clip-rule="evenodd" d="M561.433 378.356C549.078 390.523 529.236 390.383 517.069 378.028C504.902 365.674 505.042 345.832 517.396 333.665C529.751 321.497 549.593 321.638 561.76 333.992C573.927 346.347 573.787 366.189 561.433 378.356ZM566.44 383.41C551.324 398.292 526.99 398.151 512.062 383.036C497.18 367.92 497.32 343.586 512.436 328.657C527.551 313.776 551.886 313.916 566.814 329.032C581.743 344.147 581.555 368.528 566.44 383.41Z" fill="#F7A12E"/>
<path fill-rule="evenodd" clip-rule="evenodd" d="M501.252 370.821L499.333 364.457L434.004 382.334C431.665 382.989 430.261 385.984 430.963 388.277C431.665 390.57 434.566 392.442 436.859 391.693L501.252 370.821Z" fill="#F48120"/>
<path fill-rule="evenodd" clip-rule="evenodd" d="M504.481 370.072L502.375 363.006C502.094 362.164 501.205 361.649 500.316 361.883C499.474 362.164 498.959 363.053 499.193 363.942L501.299 371.008C501.579 371.851 502.469 372.365 503.358 372.131C504.247 371.851 504.715 370.961 504.481 370.072Z" fill="#F48120"/>
<path fill-rule="evenodd" clip-rule="evenodd" d="M561.761 334.038C572.477 344.942 573.647 361.648 565.271 373.816L565.224 373.769L564.428 375.032C563.539 376.202 562.556 377.325 561.48 378.402C549.126 390.569 529.283 390.429 517.116 378.074C504.949 365.72 505.089 345.878 517.444 333.71C529.751 321.543 549.593 321.684 561.761 334.038Z" fill="#CCEBFB"/>
<path d="M560.45 341.151C559.655 340.215 558.204 340.122 557.315 340.964C556.379 341.76 556.285 343.21 557.128 344.1C561.199 348.686 562.322 356.454 560.17 362.116C559.702 363.286 560.31 364.55 561.433 365.018C562.603 365.486 563.867 364.878 564.334 363.754C565.738 360.104 566.066 355.892 565.364 351.821C564.662 347.89 562.977 344.1 560.45 341.151Z" fill="white"/>
<path d="M520.766 343.538C519.409 345.504 518.333 347.797 517.818 349.996C517.537 351.213 516.601 351.915 515.385 351.587C514.168 351.306 513.326 350.09 513.606 348.92C514.402 345.597 515.993 342.321 518.286 339.607C519.596 338.344 521.328 339.139 521.936 340.403C522.592 341.713 521.468 342.509 520.766 343.538Z" fill="white"/>
<path fill-rule="evenodd" clip-rule="evenodd" d="M214.338 144.931C214.338 144.931 214.946 146.849 214.806 150.125C214.619 153.401 215.602 156.209 217.286 158.876C218.924 161.544 217.801 167.3 217.239 167.674C216.678 168.048 209.144 171.652 207.459 171.979C205.774 172.307 195.76 165.475 195.76 165.475L194.449 157.426L214.338 144.931Z" fill="black"/>
<path d="M214.338 179.795L220.749 232.723L217.473 282.702C217.567 282.842 217.707 282.983 217.801 283.123C217.895 283.217 217.988 283.357 218.035 283.451C218.222 283.732 218.409 283.966 218.643 284.2C218.737 284.293 218.83 284.387 218.924 284.527C220.375 286.165 222.293 286.539 223.838 286.914C225.055 287.195 225.99 287.335 226.786 288.973C226.833 289.02 226.833 289.066 226.833 289.113C227.02 289.675 226.552 290.283 225.944 290.283L211.671 289.815C210.969 289.815 210.407 289.254 210.313 288.598C210.313 288.505 210.313 288.411 210.313 288.318L211.249 282.094C211.249 282.094 211.249 282.094 211.249 282.047C210.922 269.88 208.161 252.097 210.407 237.87C210.407 237.87 196.929 211.243 196.976 210.587C197.117 209.979 214.338 179.795 214.338 179.795Z" fill="#F7AAAC"/>
<path d="M205.306 227.388C204.698 232.723 208.441 235.905 207.786 241.24C207.786 254.624 198.38 270.067 195.198 283.592C195.104 284.06 195.9 288.271 195.806 288.739C194.402 290.237 190.378 292.389 189.957 285.417C191.735 273.717 193.981 254.858 198.614 240.632L195.713 226.452L205.306 227.388Z" fill="#F7AAAC"/>
<path fill-rule="evenodd" clip-rule="evenodd" d="M224.446 198.046C227.535 208.295 225.897 227.949 224.306 244.796C212.7 247.791 195.666 246.949 191.407 243.346C194.262 221.398 195.713 200.292 200.252 196.408C209.799 174.086 223.042 192.337 224.446 198.046Z" fill="#476CD2"/>
<path fill-rule="evenodd" clip-rule="evenodd" d="M222.481 169.593C222.481 169.593 218.316 178.812 221.451 186.206C221.498 186.346 237.549 187.797 246.581 186.814C251.682 186.253 253.835 184.521 251.401 182.462C248.874 180.309 229.734 182.088 228.424 179.046C224.68 170.342 225.756 165.054 219.158 160.701C218.409 160.187 220.281 166.317 222.481 169.593Z" fill="#0F1C40"/>
<path fill-rule="evenodd" clip-rule="evenodd" d="M193.045 163.275C190.331 174.413 201.235 175.77 198.755 198.233C206.944 199.356 217.38 199.777 224.399 198.046C223.276 189.809 224.212 181.339 224.54 176.847C225.008 170.061 223.136 165.615 220.703 161.871C218.316 158.128 197.678 156.396 193.045 163.275Z" fill="#15234A"/>
<path fill-rule="evenodd" clip-rule="evenodd" d="M211.624 156.115L211.671 158.877L212.092 159.204C213.636 160.889 211.951 164.305 210.173 164.211C205.681 164.399 202.218 160.702 203.575 158.736L204.183 158.081L204.323 154.197C204.089 154.197 202.405 153.214 201.89 153.074C201.375 152.933 200.673 151.951 200.626 150.921C200.58 149.891 202.171 150.219 202.171 150.219C200.252 147.598 198.099 145.446 200.907 143.106C203.715 140.766 210.173 139.409 210.173 139.409L214.057 138.052C213.542 139.409 213.73 142.264 214.712 145.071C216.116 149.002 214.946 154.431 211.624 156.115Z" fill="#F7AAAC"/>
<path fill-rule="evenodd" clip-rule="evenodd" d="M206.102 154.712C206.102 154.712 208.301 158.502 210.079 158.83C211.904 159.158 210.968 158.924 211.624 158.83L211.577 156.069C210.36 156.303 209.143 156.209 206.102 154.712Z" fill="#EA8287"/>
<path fill-rule="evenodd" clip-rule="evenodd" d="M206.851 146.709C206.851 146.709 212.607 146.803 214.713 145.024C218.316 141.936 216.257 132.764 205.072 136.039C196.181 138.66 199.691 149.236 188.272 153.214C182.235 155.32 179.849 161.544 184.294 169.499C184.294 169.499 184.482 166.551 186.868 166.224C184.341 171.558 187.711 174.553 188.506 175.255C187.757 167.721 191.735 161.825 203.201 159.344C207.319 156.349 200.533 147.645 206.851 146.709Z" fill="black"/>
<path fill-rule="evenodd" clip-rule="evenodd" d="M223.417 286.446C223.417 286.446 228.377 287.803 228.143 289.348C227.675 292.436 210.641 290.377 210.548 290.284C209.939 289.535 209.893 286.025 210.688 284.996C211.296 284.247 217.988 288.412 223.417 286.446Z" fill="#2A4589"/>
<path fill-rule="evenodd" clip-rule="evenodd" d="M197.444 290.891C197.351 292.857 190.144 292.295 189.068 291.734C187.476 290.845 189.395 284.621 190.003 285.276C190.003 285.276 191.875 288.224 194.075 287.616C196.274 287.007 195.526 286.352 195.9 287.101C196.602 288.552 197.538 289.066 197.444 290.891Z" fill="#2A4589"/>
<path fill-rule="evenodd" clip-rule="evenodd" d="M294.782 152.325L295.672 154.01L288.278 159.158L286.125 155.086L294.782 152.325Z" fill="#3D67DA"/>
<path fill-rule="evenodd" clip-rule="evenodd" d="M265.815 160.561L287.529 154.524C288.746 155.601 289.307 157.005 289.588 158.409L272.086 172.401L266.844 165.007L265.815 160.561Z" fill="#F7A12E"/>
<path fill-rule="evenodd" clip-rule="evenodd" d="M272.133 172.354L178.538 222.24L172.221 210.447L265.815 160.561C267.032 159.906 269.419 162.058 271.15 165.287C272.928 168.563 273.349 171.699 272.133 172.354Z" fill="#193170"/>
<path fill-rule="evenodd" clip-rule="evenodd" d="M177.602 215.174C179.334 218.45 179.755 221.585 178.538 222.24C177.322 222.896 174.935 220.743 173.203 217.514C171.472 214.238 171.051 211.103 172.267 210.448C173.437 209.792 175.871 211.898 177.602 215.174Z" fill="#2A4589"/>
<path fill-rule="evenodd" clip-rule="evenodd" d="M196.976 161.45C186.821 164.586 183.358 183.211 184.762 189.435C185.979 194.489 201.422 201.743 205.774 200.339C207.88 199.683 206.897 197.016 206.897 196.22C202.639 193.834 193.935 188.125 193.794 186.908C193.654 183.445 195.151 177.923 196.883 175.396C199.503 171.652 202.779 161.076 196.976 161.45Z" fill="#15234A"/>
<path fill-rule="evenodd" clip-rule="evenodd" d="M206.429 196.642L207.927 197.344C208.489 197.437 214.619 197.999 213.543 199.028C213.355 199.215 213.262 199.215 212.981 199.169C212.42 199.122 211.671 198.888 211.718 198.935C212.092 199.871 213.777 200.76 213.823 200.853C214.104 201.415 210.548 202.304 210.08 202.21C206.429 201.275 208.91 201.275 204.745 200.339C202.405 199.777 205.587 196.922 206.429 196.642Z" fill="#F7AAAC"/>
<path fill-rule="evenodd" clip-rule="evenodd" d="M246.581 186.815C246.254 186.487 246.3 185.364 245.926 184.896C245.411 184.194 245.552 184.288 245.552 184.1C245.505 183.773 248.64 180.45 251.355 182.463C251.401 182.556 252.992 182.041 253.086 182.088C253.46 182.509 252.712 184.241 252.478 184.943C252.01 187.002 247.798 187.095 246.581 186.815Z" fill="#F7AAAC"/>
<path fill-rule="evenodd" clip-rule="evenodd" d="M137.778 206.843L134.549 206.048C133.192 205.72 132.209 204.504 132.209 203.146C132.115 200.479 131.741 197.858 131.039 195.331C130.665 193.974 131.226 192.57 132.443 191.868L135.298 190.137C136.795 189.248 137.263 187.329 136.374 185.878L133.098 180.45C132.209 178.952 130.29 178.484 128.793 179.373L125.938 181.105C124.768 181.807 123.224 181.667 122.194 180.731C120.276 178.906 118.17 177.361 115.83 176.051C114.613 175.396 114.005 173.945 114.379 172.588L115.175 169.359C115.596 167.674 114.566 165.989 112.882 165.568L106.704 164.024C105.02 163.603 103.335 164.632 102.914 166.317L102.118 169.546C101.791 170.903 100.621 171.886 99.2169 171.886C96.5494 171.933 93.9288 172.354 91.4017 173.056C90.0446 173.43 88.6407 172.869 87.9387 171.652L86.2072 168.797C85.3181 167.3 83.3994 166.832 81.9487 167.721L76.5202 170.997C75.0227 171.886 74.5547 173.805 75.4439 175.302L77.1754 178.157C77.8773 179.327 77.7369 180.871 76.801 181.901C74.9759 183.819 73.4316 185.925 72.1213 188.265C71.4661 189.482 70.0154 190.09 68.7051 189.762L65.4761 188.967C63.7914 188.546 62.1067 189.575 61.6855 191.26L60.1412 197.437C59.72 199.122 60.7495 200.807 62.4342 201.228L65.6632 202.023C67.0204 202.351 68.0031 203.521 68.0031 204.925C68.0499 207.592 68.4711 210.213 69.173 212.74C69.5474 214.097 68.9858 215.501 67.7691 216.203L64.9145 217.934C63.417 218.824 62.949 220.742 63.8382 222.24L67.114 227.668C68.0031 229.166 69.9218 229.634 71.4193 228.745L74.2739 227.013C75.4907 226.311 76.9882 226.451 78.0177 227.387C79.9364 229.213 82.0423 230.757 84.3821 232.067C85.5989 232.722 86.2072 234.173 85.8796 235.53L85.0841 238.759C84.6629 240.444 85.6925 242.129 87.3772 242.55L93.5544 244.094C95.2391 244.515 96.9238 243.486 97.345 241.801L98.1405 238.572C98.4681 237.215 99.638 236.232 101.042 236.232C103.709 236.185 106.33 235.764 108.857 235.062C110.214 234.688 111.618 235.249 112.32 236.466L114.052 239.321C114.941 240.818 116.859 241.286 118.357 240.397L123.785 237.121C125.283 236.232 125.751 234.313 124.862 232.863L123.13 230.008C122.428 228.838 122.569 227.294 123.505 226.264C125.33 224.346 126.921 222.24 128.184 219.9C128.886 218.683 130.29 218.075 131.601 218.449L134.83 219.245C136.514 219.666 138.199 218.636 138.62 216.952L140.164 210.774C140.492 208.949 139.462 207.265 137.778 206.843ZM115.877 210.915C113.022 217.56 106.049 221.772 98.7957 221.21C86.8624 220.274 79.5152 208.06 84.2417 197.063C87.0964 190.418 94.0692 186.206 101.323 186.767C113.209 187.75 120.556 199.917 115.877 210.915Z" fill="#C3D2FA"/>
<defs>
<linearGradient id="paint0_linear_2_20675" x1="356.111" y1="600.763" x2="356.111" y2="156.863" gradientUnits="userSpaceOnUse">
<stop stop-color="#007DF9"/>
<stop offset="1" stop-color="#EBF6FC"/>
</linearGradient>
</defs>
</svg>
