<svg width="656" height="378" viewBox="0 0 656 378" fill="none" xmlns="http://www.w3.org/2000/svg">
<path d="M218.31 321.624L217.141 320.979C215.899 320.287 215.446 318.736 216.114 317.494L221.485 307.708C222.177 306.466 223.729 306.013 224.97 306.681L226.641 307.588C226.88 307.731 226.975 308.018 226.832 308.28C226.689 308.519 226.402 308.615 226.14 308.471L224.469 307.564C223.705 307.159 222.75 307.421 222.344 308.185L216.974 317.972C216.568 318.736 216.83 319.69 217.594 320.096L218.764 320.741C219.528 321.146 220.482 320.884 220.888 320.12L224.445 313.627C224.588 313.389 224.875 313.293 225.137 313.436C225.376 313.58 225.471 313.866 225.328 314.129L221.771 320.621C221.127 321.839 219.552 322.316 218.31 321.624Z" fill="#AFCDFB"/>
<path d="M213.346 331.912L211.245 330.766C209.312 329.692 208.643 327.138 209.789 325.061L217.857 310.333C218 310.095 218.287 309.999 218.549 310.142C218.788 310.286 218.883 310.572 218.74 310.835L210.672 325.563C209.789 327.162 210.266 329.095 211.722 329.907L213.823 331.053C215.279 331.84 217.165 331.196 218.048 329.597L227.238 312.84C228.121 311.24 227.644 309.307 226.188 308.495C225.949 308.352 225.854 308.066 225.997 307.803C226.14 307.564 226.426 307.469 226.689 307.612C228.622 308.686 229.291 311.24 228.145 313.317L218.955 330.074C217.785 332.151 215.279 332.962 213.346 331.912Z" fill="#AFCDFB"/>
<path d="M414.809 267.176H158.086C151.784 267.176 146.652 262.068 146.652 255.742V40.2902C146.652 33.9885 151.761 28.8564 158.086 28.8564H414.809C421.111 28.8564 426.243 33.9647 426.243 40.2902V255.766C426.243 262.068 421.135 267.176 414.809 267.176Z" fill="white"/>
<path d="M426.243 55.3051H146.676V37.4025C146.676 32.7001 150.495 28.8809 155.198 28.8809H417.722C422.424 28.8809 426.243 32.7001 426.243 37.4025V55.3051Z" fill="#699DEE"/>
<path d="M157.967 41.9136C157.967 40.171 159.375 38.7627 161.118 38.7627C162.86 38.7627 164.269 40.171 164.269 41.9136C164.269 43.6561 162.86 45.0644 161.118 45.0644C159.399 45.0883 157.967 43.6561 157.967 41.9136Z" fill="#DDE7FE"/>
<path d="M171.238 41.9136C171.238 40.171 172.647 38.7627 174.389 38.7627C176.132 38.7627 177.54 40.171 177.54 41.9136C177.54 43.6561 176.132 45.0644 174.389 45.0644C172.67 45.0883 171.238 43.6561 171.238 41.9136Z" fill="#DDE7FE"/>
<path d="M184.51 41.9136C184.51 40.171 185.919 38.7627 187.661 38.7627C189.404 38.7627 190.812 40.171 190.812 41.9136C190.812 43.6561 189.404 45.0644 187.661 45.0644C185.942 45.0883 184.51 43.6561 184.51 41.9136Z" fill="#DDE7FE"/>
<path opacity="0.5" d="M248.076 76.2861H168.828V155.535H248.076V76.2861Z" fill="#CDE0FB"/>
<path opacity="0.5" d="M332.672 82.1824H269.631C267.984 82.1824 266.647 80.8457 266.647 79.1986C266.647 77.5516 267.984 76.2148 269.631 76.2148H332.672C334.319 76.2148 335.656 77.5516 335.656 79.1986C335.656 80.8457 334.319 82.1824 332.672 82.1824Z" fill="#7C9AF2"/>
<path opacity="0.5" d="M408.054 78.1716H345.013C343.366 78.1716 342.029 76.8349 342.029 75.1879C342.029 73.5408 343.366 72.2041 345.013 72.2041H408.054C409.701 72.2041 411.038 73.5408 411.038 75.1879C411.038 76.8349 409.701 78.1716 408.054 78.1716Z" fill="#7C9AF2"/>
<g opacity="0.3">
<path d="M345.133 105.241H268.557C267.483 105.241 266.624 104.382 266.624 103.307C266.624 102.233 267.483 101.374 268.557 101.374H345.133C346.207 101.374 347.066 102.233 347.066 103.307C347.09 104.382 346.207 105.241 345.133 105.241Z" fill="#BDD1F9"/>
<path d="M374.255 105.241H354.037C352.962 105.241 352.103 104.382 352.103 103.307C352.103 102.233 352.962 101.374 354.037 101.374H374.255C375.329 101.374 376.188 102.233 376.188 103.307C376.188 104.382 375.329 105.241 374.255 105.241Z" fill="#BDD1F9"/>
<path d="M297.464 117.296H268.581C267.507 117.296 266.648 116.436 266.648 115.362C266.648 114.288 267.507 113.429 268.581 113.429H297.464C298.538 113.429 299.398 114.288 299.398 115.362C299.398 116.412 298.538 117.296 297.464 117.296Z" fill="#BDD1F9"/>
<path d="M344.25 117.296H304.673C303.599 117.296 302.74 116.436 302.74 115.362C302.74 114.288 303.599 113.429 304.673 113.429H344.25C345.324 113.429 346.183 114.288 346.183 115.362C346.207 116.412 345.324 117.296 344.25 117.296Z" fill="#BDD1F9"/>
<path d="M374.255 117.296H354.037C352.962 117.296 352.103 116.436 352.103 115.362C352.103 114.288 352.962 113.429 354.037 113.429H374.255C375.329 113.429 376.188 114.288 376.188 115.362C376.188 116.412 375.329 117.296 374.255 117.296Z" fill="#BDD1F9"/>
<path d="M307.776 127.703H268.581C267.507 127.703 266.648 126.844 266.648 125.769C266.648 124.695 267.507 123.836 268.581 123.836H307.776C308.85 123.836 309.71 124.695 309.71 125.769C309.71 126.82 308.85 127.703 307.776 127.703Z" fill="#BDD1F9"/>
<path d="M382.633 127.703H318.518C317.444 127.703 316.584 126.844 316.584 125.769C316.584 124.695 317.444 123.836 318.518 123.836H382.633C383.707 123.836 384.567 124.695 384.567 125.769C384.567 126.82 383.707 127.703 382.633 127.703Z" fill="#BDD1F9"/>
</g>
<g opacity="0.3">
<path d="M345.133 143.505H268.557C267.483 143.505 266.624 142.645 266.624 141.571C266.624 140.497 267.483 139.638 268.557 139.638H345.133C346.207 139.638 347.066 140.497 347.066 141.571C347.09 142.621 346.207 143.505 345.133 143.505Z" fill="#BDD1F9"/>
<path d="M374.255 143.505H354.037C352.962 143.505 352.103 142.645 352.103 141.571C352.103 140.497 352.962 139.638 354.037 139.638H374.255C375.329 139.638 376.188 140.497 376.188 141.571C376.188 142.621 375.329 143.505 374.255 143.505Z" fill="#BDD1F9"/>
<path d="M297.464 155.535H268.581C267.507 155.535 266.648 154.676 266.648 153.601C266.648 152.527 267.507 151.668 268.581 151.668H297.464C298.538 151.668 299.398 152.527 299.398 153.601C299.398 154.676 298.538 155.535 297.464 155.535Z" fill="#BDD1F9"/>
<path d="M344.25 155.535H304.673C303.599 155.535 302.74 154.676 302.74 153.601C302.74 152.527 303.599 151.668 304.673 151.668H344.25C345.324 151.668 346.183 152.527 346.183 153.601C346.207 154.676 345.324 155.535 344.25 155.535Z" fill="#BDD1F9"/>
</g>
<path d="M213.107 171.504H168.828V180.049H213.107V171.504Z" fill="#4563B9"/>
<path d="M213.107 180.05H168.828V188.595H213.107V180.05Z" fill="#FF8000"/>
<path d="M213.107 188.595H168.828V197.14H213.107V188.595Z" fill="#474FEA"/>
<path d="M245.713 176.326H221.365C220.339 176.326 219.527 175.491 219.527 174.488C219.527 173.462 220.363 172.65 221.365 172.65H245.713C246.739 172.65 247.551 173.486 247.551 174.488C247.551 175.515 246.739 176.326 245.713 176.326Z" fill="#BDD1F9"/>
<path d="M237.502 182.843H221.342C220.315 182.843 219.504 182.008 219.504 181.005C219.504 179.979 220.339 179.167 221.342 179.167H237.502C238.528 179.167 239.34 180.002 239.34 181.005C239.364 182.008 238.528 182.843 237.502 182.843Z" fill="#BDD1F9"/>
<path d="M213.107 215.688H168.828V233.16H213.107V215.688Z" fill="#4563B9"/>
<path d="M213.107 228.84H168.828V241.324H213.107V228.84Z" fill="#474FEA"/>
<path d="M168.828 215.688L184.701 229.031L168.828 241.324V215.688Z" fill="#FF8000"/>
<path d="M245.713 220.533H221.365C220.339 220.533 219.527 219.698 219.527 218.695C219.527 217.669 220.363 216.857 221.365 216.857H245.713C246.739 216.857 247.551 217.693 247.551 218.695C247.551 219.698 246.739 220.533 245.713 220.533Z" fill="#BDD1F9"/>
<path d="M237.502 227.026H221.342C220.315 227.026 219.504 226.19 219.504 225.188C219.504 224.161 220.339 223.35 221.342 223.35H237.502C238.528 223.35 239.34 224.185 239.34 225.188C239.364 226.214 238.528 227.026 237.502 227.026Z" fill="#BDD1F9"/>
<path d="M429.06 50.4355C429.06 50.4355 430.205 64.1847 427.078 63.9698C423.951 63.755 417.769 57.7159 405.285 58.6945C392.801 59.6732 377.548 62.4183 368.334 46.0911C359.12 29.7639 380.126 25.0615 380.126 25.0615L429.06 50.4355Z" fill="#233862"/>
<path d="M402.54 49.4331L465.414 54.6129L466.703 51.7963L406.455 7.32619L345.586 0.212891L344.417 2.71926L402.54 49.4331Z" fill="#2B478B"/>
<path d="M445.339 96.7675C444.957 95.4785 443.62 94.7147 442.331 95.0966C441.043 95.4785 440.279 96.8153 440.661 98.1042C441.019 99.3932 442.379 100.157 443.668 99.7752C444.957 99.4171 445.697 98.0565 445.339 96.7675Z" fill="#F99746"/>
<path d="M443.239 97.4358C445.769 97.2448 446.342 120.184 446.342 120.184C446.342 120.184 444.695 120.948 443.883 120.781C443.072 120.59 442.666 117.511 442.666 117.511L442.594 120.757C442.594 120.757 439.825 120.852 438.871 120.184C438.871 120.16 439.253 97.7461 443.239 97.4358Z" fill="#F99746"/>
<path d="M444.05 97.9613L443.597 47.8578L443.263 47.5953L410.441 23.3193L409.271 24.9186L441.759 48.9559L442.499 97.8658L444.05 97.9613Z" fill="#F99746"/>
<path d="M486.42 334.419H348.331V281.952H486.873C498.068 281.952 507.139 291.023 507.139 302.218V313.676C507.139 325.133 497.877 334.419 486.42 334.419Z" fill="#FCECDB"/>
<path d="M625.607 303.531V311.432C625.607 315.657 624.557 319.596 622.695 322.985C618.971 329.812 612.049 334.419 604.124 334.419H344.083C342.364 334.419 340.979 332.915 340.979 331.077V329.884C340.979 328.046 342.364 326.542 344.083 326.542H502.604C503.463 325.444 504.203 324.25 504.824 322.961C506.304 319.978 507.139 316.564 507.139 312.936V302.911C507.139 301.073 506.925 299.282 506.495 297.564C505.779 294.675 504.514 292.026 502.819 289.782H344.059C342.34 289.782 340.956 288.278 340.956 286.44V285.271C340.956 283.433 342.34 281.929 344.059 281.929H605.413C614.627 281.929 622.384 288.541 624.795 297.564C625.344 299.473 625.607 301.478 625.607 303.531Z" fill="#699DEE"/>
<path d="M624.819 297.587H506.495C505.779 294.699 504.514 292.049 502.819 289.805H344.059C342.34 289.805 340.956 288.302 340.956 286.464V285.294C340.956 283.456 342.34 281.952 344.059 281.952H605.413C614.651 281.952 622.408 288.564 624.819 297.587Z" fill="#548EE2"/>
<path d="M348.331 308.186L367.594 309.069L348.331 309.594V308.186Z" fill="#F4D2B8"/>
<path d="M348.331 316.397L394.138 317.281L348.331 317.83V316.397Z" fill="#F4D2B8"/>
<path d="M328.161 375.118H463.696V334.3H326.944C316.799 334.3 308.564 342.535 308.564 352.68V355.52C308.564 366.334 317.348 375.118 328.161 375.118Z" fill="#15234A"/>
<path d="M457.179 375.118H611.667V334.3H456.749C446.414 334.3 438.059 342.678 438.059 352.99V355.974C438.059 366.548 446.605 375.118 457.179 375.118Z" fill="#FCECDB"/>
<path d="M427.843 375.118H616.871C618.446 375.118 619.711 373.852 619.711 372.277V371.847C619.711 370.272 618.446 369.007 616.871 369.007H427.843C426.268 369.007 425.002 370.272 425.002 371.847V372.277C425.002 373.829 426.268 375.118 427.843 375.118Z" fill="#15234A"/>
<path d="M427.843 340.411H616.871C618.446 340.411 619.711 339.145 619.711 337.57V337.14C619.711 335.565 618.446 334.3 616.871 334.3H427.843C426.268 334.3 425.002 335.565 425.002 337.14V337.57C425.002 339.122 426.268 340.411 427.843 340.411Z" fill="#15234A"/>
<path d="M611.667 354.709L590.613 355.377L611.667 355.807V354.709Z" fill="#F4D2B8"/>
<path d="M611.667 345.304L561.587 345.996L611.667 346.402V345.304Z" fill="#F4D2B8"/>
<path d="M562.112 345.853C562.112 345.853 564.261 347.595 564.977 350.483C565.096 350.985 565.192 351.534 565.192 352.107C565.311 355.926 565.192 364.591 565.192 364.591L571.517 360.246L577.843 364.591V352.846C577.843 350.627 577.294 348.454 576.291 347.046C575.814 346.354 575.217 345.853 574.549 345.853H562.112Z" fill="#699DEE"/>
<path d="M562.112 345.853C562.112 345.853 564.261 347.595 564.977 350.483L577.676 350.65C577.676 350.65 577.174 346.521 574.549 345.853H562.112Z" fill="#568CDB"/>
<path d="M446.891 282.048H313.481V222.086H447.392C459.232 222.086 468.828 231.682 468.828 243.521V260.111C468.828 272.237 459.017 282.048 446.891 282.048Z" fill="#FCECDB"/>
<path d="M468.9 245.359V258.273C468.876 263.787 466.322 268.561 462.55 271.115C460.712 272.38 458.564 273.096 456.296 273.096H309.399C307.681 273.096 306.272 274.767 306.272 276.82V278.347C306.272 280.4 307.657 282.071 309.399 282.071H563.187C570.467 282.071 576.912 277.751 580.803 271.139C583.262 266.961 584.694 261.901 584.694 256.411V246.218C584.694 242.471 583.978 238.914 582.689 235.739C579.418 227.671 572.52 222.109 564.5 222.109H309.399C307.681 222.109 306.272 223.78 306.272 225.833V227.361C306.272 229.414 307.657 231.085 309.399 231.085H456.75C460.283 231.085 463.457 232.875 465.677 235.739C467.658 238.269 468.876 241.635 468.9 245.359Z" fill="#AFCDFB"/>
<path d="M306.272 276.82V278.347C306.272 280.4 307.657 282.071 309.399 282.071H563.187C570.467 282.071 576.912 277.751 580.803 271.139H462.574C460.736 272.404 458.588 273.12 456.32 273.12H309.423C307.681 273.096 306.272 274.743 306.272 276.82Z" fill="#A4C4F4"/>
<path d="M313.481 252.066L332.315 253.093L313.481 253.69V252.066Z" fill="#F4D2B8"/>
<path d="M313.481 238.27L358.285 239.296L313.481 239.893V238.27Z" fill="#F4D2B8"/>
<path d="M357.832 239.081C357.832 239.081 354.872 240.991 353.893 244.118C353.726 244.667 353.607 245.24 353.583 245.86C353.416 250.014 353.583 259.418 353.583 259.418L344.846 254.716L336.134 259.418V246.672C336.134 244.261 336.874 241.922 338.258 240.394C338.927 239.654 339.738 239.081 340.669 239.081H357.832Z" fill="#ED7D2B"/>
<path d="M357.832 239.081C357.832 239.081 354.872 240.991 353.893 244.118L336.396 244.309C336.396 244.309 337.089 239.845 340.693 239.105H357.832V239.081Z" fill="#FF8000"/>
<path d="M134.813 276.748C134.813 276.748 162.168 288.659 167.133 288.444C172.098 288.23 202.676 279.135 202.676 279.135L201.888 284.386C201.888 284.386 178.28 297.969 170.021 298.732C161.905 299.496 134.121 291.452 131.423 289.733C128.726 288.015 127.031 278.467 134.813 276.748Z" fill="#ED985F"/>
<path d="M130.707 232.923C130.707 232.923 120.61 231.013 115.597 234.665C106.503 241.301 106.001 264.217 102.588 267.63C99.1746 271.043 90.9633 269.587 90.2233 287.251C89.4833 304.915 93.4935 306.395 88.7195 314.272C83.9455 322.149 90.7484 330.05 90.7484 330.05C90.7484 330.05 87.9795 325.706 89.1491 322.555C89.1491 322.555 90.2949 329.478 94.7109 331.125C99.1269 332.748 99.7713 333.941 100.464 336.328C100.464 336.328 138.035 317.065 138.083 303.411C138.131 289.758 145.483 276.223 141.878 270.303C141.878 270.303 143.478 272.834 143.692 275.65C143.692 275.65 145.865 271.497 142.093 267.63C138.345 263.763 146.509 255.767 145.292 246.505C144.48 240.155 140.016 233.185 130.707 232.923Z" fill="black"/>
<path d="M138.155 289.757C135.744 291.428 132.736 292.789 128.965 293.672C114.786 296.942 109.367 284.959 107.314 276.748C109.248 275.65 111.062 275.388 112.112 275.268C113.139 275.149 114.213 275.077 115.096 275.029C116.695 273.812 119.059 268.823 119.584 261.065L120.252 261.233L131.423 264.288C131.423 264.288 130.922 267.845 130.659 271.186C130.468 273.812 130.445 276.318 130.922 276.939C131.805 277.13 132.306 277.249 132.306 277.249C132.497 277.536 135.72 282.859 138.155 289.757Z" fill="#FFB27D"/>
<path d="M131.423 264.312C131.423 264.312 130.898 267.869 130.659 271.211C124.334 270.566 121.398 264.551 120.252 261.257L131.423 264.312Z" fill="#ED985F"/>
<path d="M133.309 267.654C133.309 267.654 118.295 266.819 118.939 257.485C119.607 248.128 118.104 241.731 127.723 241.874C137.343 242.018 138.942 245.718 139.491 248.868C140.04 252.043 137.248 267.63 133.309 267.654Z" fill="#FFB27D"/>
<path d="M139.42 243.64C137.295 240.656 135.505 241.158 134.455 241.922C126.578 236.837 120.825 243.115 120.825 243.115C119.345 249.751 114.237 253.236 114.237 253.236C114.237 253.236 116.839 255.122 123.26 253.952C125.217 253.594 127.031 252.353 128.607 250.801C125.742 254.883 122.066 257.724 122.066 257.724C129.848 254.788 133.619 244.523 134.001 243.449C134.861 244.332 136.532 246.242 136.961 248.032C137.534 250.467 140.017 254.262 141.473 254.215C141.473 254.215 142.618 248.104 139.42 243.64Z" fill="black"/>
<path d="M103.042 320.311C101.681 313.389 97.2654 285.676 101.681 276.772C103.281 273.574 109.511 273.287 116.338 273.574C118.462 274.958 126.578 280.138 129.896 279.493C129.92 279.493 129.991 279.47 130.087 279.446C131.662 279.064 132.259 277.942 130.946 277.011C130.946 277.011 134.336 276.677 138.537 277.464C140.924 277.918 147.321 281.236 147.321 281.236C147.321 281.236 144.099 287.06 139.348 289.065C140.16 296.298 138.943 299.497 131.447 316.206C125.098 330.337 132.307 343.06 132.307 343.06C132.307 343.06 94.95 373.088 94.759 357.788C94.568 346.258 104.761 329.167 103.042 320.311Z" fill="#15234A"/>
<path d="M134.144 375.69C136.173 375.452 138.011 374.353 139.133 372.659C139.324 372.396 139.515 372.11 139.706 371.799C143.955 365.354 145.602 345.662 155.174 324.656C157.513 319.548 165.868 318.617 168.136 312.84C168.136 312.84 173.745 294.102 157.394 293.553C141.043 293.004 113.616 345.662 113.163 351.199C112.757 356.523 102.373 379.271 134.144 375.69Z" fill="#4467C6"/>
<path d="M199.119 375.26H175.845C175.845 375.26 174.986 371.561 176.514 369.03C177.874 366.787 177.349 365.521 176.347 363.683C177.397 364.113 178.757 364.519 180.261 364.423C181.431 364.352 182.648 363.827 183.722 363.206C184.725 364.352 189.022 369.197 190.358 370.176C191.862 371.25 198.641 370.844 199.119 375.26Z" fill="#233862"/>
<path d="M168.685 298.947C170.093 309.45 175.559 342.606 185.203 358.79C188.306 363.993 177.373 366.929 177.302 366.905C175.822 366.524 173.387 364.184 172.265 363.158C164.436 356.092 148.514 336.089 148.514 320.072C148.514 312.243 148.371 297.324 154.052 293.529C157.561 291.213 168.112 294.794 168.685 298.947Z" fill="#4467C6"/>
<path d="M120.252 375.26C120.252 375.26 121.111 374.067 122.615 371.775C124.405 369.054 126.387 363.731 128.798 356.88C131.328 349.695 134.312 340.863 138.059 331.673C139.205 328.833 140.446 325.968 141.735 323.104C144.074 317.996 150.472 318.688 152.739 312.911C152.739 312.911 161.643 292.884 145.292 292.335C128.941 291.786 97.8619 345.924 96.0955 351.175C94.1382 356.928 84.614 380.75 120.252 375.26Z" fill="#476CD2"/>
<path d="M182.028 375.26H158.755C158.755 375.26 157.895 371.561 159.423 369.03C160.783 366.787 160.258 365.521 159.256 363.683C160.306 364.113 161.667 364.519 163.17 364.423C164.34 364.352 165.558 363.827 166.632 363.206C167.634 364.352 171.931 369.197 173.268 370.176C174.795 371.25 181.574 370.844 182.028 375.26Z" fill="#2B478B"/>
<path d="M128.797 356.881C131.328 349.696 134.311 340.864 138.059 331.674C137.08 324.704 134.98 318.617 131.423 316.158C131.423 316.182 122.83 342.821 128.797 356.881Z" fill="#3D60C1"/>
<path d="M155.079 298.207C156.487 308.71 158.444 342.606 168.112 358.79C171.215 363.993 160.282 366.929 160.211 366.906C158.731 366.524 156.296 364.184 155.174 363.158C147.345 356.092 131.423 336.089 131.423 320.072C131.423 312.243 140.589 297.945 146.294 294.149C149.779 291.834 154.53 294.03 155.079 298.207Z" fill="#476CD2"/>
<path d="M205.611 268.132L200.79 259.419L190.334 288.541L196.493 295.153L205.611 268.132Z" fill="#163560"/>
<path d="M180.405 273.216L170.713 300.929L196.493 295.153L205.612 268.132L180.405 273.216Z" fill="#1C468A"/>
<path d="M171.214 299.544L170.761 298.757L179.951 272.523L180.404 273.216L171.214 299.544Z" fill="#EFDECE"/>
<path d="M179.951 272.524L204.394 267.773L205.611 268.131L180.404 273.216L179.951 272.524Z" fill="#FCECDB"/>
<path d="M205.611 268.132L200.384 259.849L197.066 269.182L204.394 267.774L205.611 268.132Z" fill="#EFDECE"/>
<path d="M187.852 277.226C187.017 277.059 185.203 276.39 183.389 275.889C183.938 275.459 184.534 274.958 184.701 274.409C185.036 273.383 185.251 273.049 184.152 273.383C183.078 273.717 179.283 275.436 179.283 275.436C177.135 276.056 175.153 279.112 175.153 279.112C175.153 279.112 148.49 288.493 145.292 288.636C140.327 288.874 107.291 276.725 107.291 276.725C99.4851 278.443 101.251 288.015 103.925 289.734C106.598 291.429 130.373 300.07 144.456 300.237C151.594 300.308 177.54 283.647 177.54 283.647C177.54 283.647 180.572 282.262 182.959 282.692C185.346 283.122 190.86 282.692 192.053 280.735C193.271 278.801 189.261 277.512 187.852 277.226Z" fill="#FFB27D"/>
<path d="M124.334 282.74C124.334 282.74 121.374 292.097 111.229 294.221C111.229 294.221 94.4724 289.065 102.827 277.655C102.803 277.655 111.062 271.521 124.334 282.74Z" fill="#15234A"/>
<path d="M205.182 277.941C205.182 277.679 205.158 277.44 205.086 277.178C205.086 277.178 202.699 273.406 201.912 273.239C199.525 272.762 199.525 275.912 200.026 277.941C200.384 279.35 201.267 280.71 202.007 281.426L201.912 284.386C205.946 282.19 205.182 277.941 205.182 277.941Z" fill="#FFB27D"/>
<path d="M464.101 271.545C468.494 279.303 474.055 282.31 474.055 282.31L497.281 282.477C497.257 282.477 460.76 265.625 464.101 271.545Z" fill="#141414"/>
<path d="M481.503 331.412C482.1 332.104 482.171 332.891 481.861 333.703C481.288 335.231 479.45 336.926 477.326 338.62C477.063 338.835 476.801 339.026 476.61 339.217C476.562 339.265 476.49 339.313 476.443 339.36C476.395 339.408 476.347 339.432 476.323 339.48C474.318 341.294 475.082 341.723 471.478 345.399C467.396 349.601 464.603 349.648 463.791 349.266C463.123 348.932 464.507 346.712 466.035 344.206C466.107 344.087 466.178 343.967 466.25 343.848C466.465 343.514 466.656 343.18 466.871 342.845C468.661 339.838 468.231 338.405 467.825 333.894C467.515 330.218 462.264 313.39 462.264 313.39L470.045 312.101C470.045 312.101 472.289 325.492 474.867 327.592C476.252 328.69 477.779 328.714 479.116 329.55C479.211 329.597 479.307 329.669 479.402 329.717C480.142 330.194 480.906 330.719 481.503 331.412Z" fill="#FFB27D"/>
<path d="M481.503 331.411C482.1 332.103 482.171 332.891 481.861 333.703C481.169 335.23 479.378 336.925 477.302 338.596C477.039 338.811 476.8 339.026 476.586 339.217C476.538 339.264 476.466 339.312 476.418 339.36C476.371 339.408 476.323 339.431 476.299 339.479C474.294 341.293 475.058 341.723 471.453 345.399C467.372 349.6 464.579 349.648 463.767 349.266C463.099 348.932 464.483 346.712 466.011 344.206C466.799 343.919 470.475 342.463 473.291 338.93C475.75 335.827 477.421 331.841 479.092 329.525C479.187 329.573 479.283 329.645 479.378 329.692C480.142 330.194 480.906 330.719 481.503 331.411Z" fill="#233862"/>
<path d="M418.82 326.112C418.318 328.499 414.905 328.094 411.086 327.115C407.267 326.16 408.174 327.282 402.731 326.637C397.289 325.993 395.666 323.964 395.499 323.152C395.355 322.436 398.053 322.198 400.941 321.887C401.299 321.84 401.657 321.816 402.039 321.768C405.309 321.386 407.696 319.309 410.68 317.591C413.497 315.967 417.722 309.355 417.722 309.355L425.193 310C425.193 310 421.231 315.92 419.703 318.498C418.796 320.002 418.844 322.031 418.939 323.582C418.939 324.394 418.987 325.277 418.82 326.112Z" fill="#FFB27D"/>
<path d="M411.086 327.114C407.267 326.159 408.174 327.281 402.731 326.637C397.289 325.992 395.666 323.963 395.499 323.152C395.355 322.436 398.053 322.197 400.941 321.887L400.965 321.934C400.965 321.934 404.211 324.274 408.747 324.417C412.446 324.536 416.361 323.51 418.915 323.558C418.963 324.393 419.011 325.276 418.844 326.112C418.318 328.499 414.905 328.093 411.086 327.114Z" fill="#233862"/>
<path d="M447.75 278.586L454.601 297.42L463.529 322.006C463.529 322.006 465.987 322.269 468.374 321.6C470.546 320.98 473.077 319.356 473.077 319.356C473.077 319.356 470.737 293.028 466.13 277.87C464.937 273.979 463.624 270.828 462.144 269.062C454.864 260.349 447.75 278.586 447.75 278.586Z" fill="#141414"/>
<path d="M455.055 248.821C459.638 247.389 472.671 249.37 485.728 252.019L488.497 247.508L516.807 245.503C516.807 245.503 525.997 266.27 520.793 279.422C520.029 281.356 518.167 282.167 515.613 282.191C515.613 282.191 498.737 282.478 493.271 282.454C479.211 282.358 463.576 272.572 461.547 272.142C458.229 271.45 456.845 278.086 453.479 285.056C450.113 292.026 421.994 315.753 421.994 315.753C421.994 315.753 417.698 315.777 415.931 315.084C414.022 314.344 413.33 313.413 413.33 313.413C413.33 313.413 444.719 252.067 455.055 248.821Z" fill="black"/>
<path d="M488.951 208.552C498.976 214.161 519.337 225.81 519.457 225.738C519.457 225.738 526.952 228.626 531.225 225.81C538.362 221.155 542.253 208.48 529.339 197.452C522.894 191.962 518.311 190.601 517.666 181.889C517.332 177.162 510.983 161.551 500.241 162.912C499.334 163.031 498.451 163.103 497.544 163.079C496.303 163.031 494.226 163.198 492.101 164.44C486.015 168.044 473.865 206.308 488.951 208.552Z" fill="#233862"/>
<path d="M497.424 203.896C497.377 203.92 502.366 205.663 505.731 204.207C508.882 202.846 511.317 197.69 511.269 197.666C509.837 197.595 508.285 196.329 507.116 188.118L506.495 188.333L496.231 191.937C496.231 191.937 496.947 195.231 497.401 198.358C497.806 201.008 497.997 203.538 497.424 203.896Z" fill="#FFB27D"/>
<path d="M496.231 191.962C496.231 191.962 496.661 194.277 497.281 197.571C503.177 196.545 505.66 191.532 506.495 188.357L496.231 191.962Z" fill="#ED975D"/>
<path d="M494.679 195.208C494.679 195.208 508.715 193.418 507.474 184.705C506.233 175.992 507.211 169.882 498.188 170.645C489.189 171.409 487.924 174.99 487.614 177.997C487.327 181.005 491.003 195.447 494.679 195.208Z" fill="#FFB27D"/>
<path d="M488.163 173.224C488.163 173.224 497.09 181.029 503.177 181.698C509.288 182.366 511.603 180.433 511.603 180.433C511.603 180.433 508.023 177.425 505.898 172.579C505.277 171.147 503.917 170.168 502.389 170.025C498.021 169.619 489.762 169.381 488.163 173.224Z" fill="#233862"/>
<path d="M493.772 172.58C493.772 172.58 490.741 175.468 489.786 177.616C488.855 179.693 488.545 184.658 489.261 186.639C489.261 186.639 484.654 177.521 487.327 173.105C490.192 168.426 493.772 172.58 493.772 172.58Z" fill="#233862"/>
<path d="M485.489 224.472C485.704 252.854 485.441 246.91 488.521 249.632C489.261 250.276 491.361 250.682 494.13 250.897C502.819 251.541 518.12 250.204 518.716 248.605C520.769 243.067 519.361 241.325 521.103 232.803C521.294 231.896 521.509 230.917 521.772 229.843C523.204 223.995 524.588 222.014 519.695 212.585C515.255 204.04 510.648 197.093 510.219 197.332C498.307 204.278 497.4 198.359 497.4 198.359C497.4 198.359 485.37 210.628 485.489 224.472Z" fill="#476CD2"/>
<path d="M454.601 297.42L463.529 322.006C463.529 322.006 465.987 322.269 468.374 321.6C470.546 320.98 473.077 319.356 473.077 319.356C473.077 319.356 470.737 293.028 466.13 277.87L454.601 297.42Z" fill="black"/>
<path d="M497.4 198.383C497.4 198.383 485.202 200.364 483.722 205.615C482.243 210.867 473.602 241.659 473.602 241.659C473.602 241.659 479.784 242.805 482.672 239.965C485.561 237.124 492.817 213.469 492.817 213.469L497.4 198.383Z" fill="#476CD2"/>
<path d="M494.13 250.874C502.819 251.518 518.12 250.181 518.717 248.582C520.769 243.044 519.361 241.302 521.104 232.78L516.998 220.94C516.998 220.94 517.595 234.093 513.704 237.53C509.813 240.967 497.759 244.094 495.873 246.983C494.918 248.367 494.321 249.752 494.13 250.874Z" fill="#4568CA"/>
<path d="M504.156 245.407C504.156 245.407 495.586 243.426 494.202 244.19C492.817 244.954 489.404 247.699 488.974 248.654C488.545 249.608 492.054 247.937 493.199 247.651C493.939 247.46 495.873 248.152 496.851 248.486C500.885 249.871 503.392 249.179 503.392 249.179L504.156 245.407Z" fill="#FFB27D"/>
<path d="M510.242 197.333C510.242 197.333 521.772 198.121 525.71 203.706C531.272 211.583 542.181 245.049 535.76 249.442C528.527 254.407 503.034 250.516 503.034 250.516C503.034 250.516 502.222 246.529 503.416 244.62C504.609 242.71 523.848 239.75 524.732 238.867C525.615 237.984 513.775 221.49 513.799 218.84C513.799 216.214 510.242 197.333 510.242 197.333Z" fill="#476CD2"/>
<path d="M493.748 246.576C493.748 246.576 491.934 248.892 491.338 249.154C490.741 249.417 490.359 249.345 490.359 249.345L491.576 247.173L493.748 246.576Z" fill="#FFB27D"/>
<path d="M494.178 244.189L488.927 246.696C488.927 246.696 489.142 247.054 489.786 247.03C490.431 247.006 492.054 246.433 492.054 246.433L494.178 244.189Z" fill="#FFB27D"/>
<path d="M492.46 252.903L451.093 252.616L438.871 221.585L480.166 221.871L492.46 252.903Z" fill="#FF8000"/>
<path d="M450.615 251.398L505.254 251.78L505.23 252.998L451.092 252.616L450.615 251.398Z" fill="#E37200"/>
<path d="M461.643 237.22C461.333 236.122 461.977 235.263 463.051 235.263C464.149 235.263 465.271 236.17 465.582 237.244C465.892 238.342 465.247 239.201 464.173 239.201C463.075 239.201 461.953 238.318 461.643 237.22Z" fill="white"/>
<path d="M241.089 350.543L241.084 375.535L366.76 375.56L366.765 350.568L241.089 350.543Z" fill="#548EE2"/>
<path d="M241.082 375.523L222.607 367.622L211.865 363.015L222.869 358.313L241.082 350.531C241.082 350.531 243.517 356.618 243.541 362.347C243.613 371.322 241.082 375.523 241.082 375.523Z" fill="#FCECDB"/>
<path d="M381.367 358.862V366.763C381.367 371.632 377.429 375.571 372.559 375.547H366.735V350.555H373.06C377.667 350.579 381.367 354.278 381.367 358.862Z" fill="#FCECDB"/>
<path d="M222.869 358.337C223.323 360.867 223.729 364.734 222.607 367.622L211.865 363.015L222.869 358.337Z" fill="#2B478B"/>
<path d="M268.104 220.463C268.104 220.463 270.347 230.226 276.912 230.226C282.545 230.226 290.255 217.503 290.255 217.503L268.104 220.463Z" fill="#F99746"/>
<path d="M343.438 364.733L339.213 367.622C339.213 367.622 318.947 346.019 314.054 325.3C313.171 321.6 312.836 317.948 313.194 314.487C313.194 314.487 312.908 313.556 312.383 311.885C312.359 311.813 312.335 311.742 312.311 311.67C312.096 310.954 311.81 310.095 311.5 309.116C310.521 305.989 309.16 301.692 307.633 296.823C304.1 285.604 295.984 260.278 292.523 249.751L317.419 240.752C317.419 240.752 320.236 247.197 324.318 264.718C324.939 267.009 325.559 269.539 326.156 272.284C326.824 275.411 327.445 278.825 327.946 282.501C328.829 288.755 329.402 295.773 329.45 303.483C329.474 306.61 329.378 309.88 329.211 313.222C329.068 315.68 329.45 318.951 330.118 322.698C333.245 339.765 343.438 364.733 343.438 364.733Z" fill="#15234A"/>
<path d="M356.709 375.141H336.587C336.587 375.141 335.823 371.943 337.16 369.747C338.329 367.813 337.876 366.715 337.017 365.116C337.924 365.498 339.117 365.832 340.406 365.76C341.409 365.713 342.459 365.259 343.39 364.71C344.249 365.689 347.973 369.89 349.119 370.725C350.432 371.68 356.304 371.346 356.709 375.141Z" fill="#233862"/>
<path d="M327.946 282.525L312.311 311.67C312.096 310.954 311.81 310.095 311.5 309.116C310.521 305.989 309.16 301.692 307.633 296.823C304.1 285.604 295.984 260.278 292.523 249.751L317.419 240.752C317.419 240.752 320.236 247.197 324.318 264.718C324.939 267.009 325.559 269.539 326.156 272.284C326.824 275.435 327.445 278.849 327.946 282.525Z" fill="#121E41"/>
<path d="M292.117 368.839C292.117 368.839 290.733 372.252 292.045 375.14H303.002C303.002 375.14 303.241 372.539 299.254 369.531C296.247 367.239 292.117 368.839 292.117 368.839Z" fill="#233862"/>
<path d="M304.052 146.346C304.052 145.797 304.338 139.925 313.266 139.399C313.266 139.399 308.874 140.02 308.181 141.977C308.181 141.977 311.118 139.519 313.576 140.235C316.035 140.951 317.562 145.176 317.61 146.584C317.658 147.993 316.417 152.552 314.889 152.958C314.316 153.125 313.624 153.101 313.027 153.005C313.457 153.626 313.863 154.342 314.268 155.13C318.016 162.362 314.794 170.884 311.738 170.168C309.781 169.714 308.611 173.08 308.611 173.08L289.873 156.968C289.849 156.944 296.414 142.503 304.052 146.346Z" fill="#2C3A64"/>
<path d="M292.26 195.279C294.337 196.711 296.939 197.905 300.209 198.669C312.454 201.509 317.157 191.15 318.923 184.036C317.252 183.082 315.677 182.867 314.77 182.771C313.887 182.676 312.956 182.604 312.192 182.556C310.807 181.506 308.755 177.186 308.301 170.502L307.728 170.645L298.061 173.295C298.061 173.295 298.514 176.374 298.729 179.262C298.896 181.53 298.92 183.702 298.49 184.227C297.727 184.394 297.273 184.49 297.273 184.49C297.154 184.705 294.361 189.312 292.26 195.279Z" fill="#FFB27D"/>
<path d="M298.084 173.271C298.084 173.271 298.538 176.35 298.753 179.238C304.219 178.689 306.773 173.486 307.752 170.621L298.084 173.271Z" fill="#ED985F"/>
<path d="M297.965 177.878C297.965 177.878 310.569 174.632 308.42 166.826C306.272 159.021 306.463 153.34 298.347 155.058C290.207 156.801 289.467 160.214 289.539 162.983C289.634 165.776 294.623 178.523 297.965 177.878Z" fill="#FFB27D"/>
<path d="M288.727 158.567C290.016 155.678 291.616 155.798 292.642 156.275C298.466 150.618 304.41 154.986 304.41 154.986C306.797 160.357 311.714 162.458 311.714 162.458C311.714 162.458 309.805 164.487 304.171 164.582C302.453 164.606 300.686 163.866 299.087 162.816C302.19 165.799 305.818 167.59 305.818 167.59C298.729 166.42 293.788 158.352 293.286 157.493C292.714 158.4 291.616 160.309 291.544 161.885C291.472 164.057 292.308 168.21 291.067 168.401C291.09 168.401 286.794 162.887 288.727 158.567Z" fill="#2C3A64"/>
<path d="M294.337 183.845C294.337 183.845 315.486 178.713 324.7 186.304L320.093 250.419L278.702 240.418C278.702 240.418 279.872 236.36 287.797 225.57C295.745 214.781 292.308 198.955 294.337 183.845Z" fill="#FFB27D"/>
<path d="M306.678 243.283C306.678 243.283 306.654 243.497 306.606 243.903C306.582 244.07 306.558 244.285 306.535 244.548C306.367 246.219 306.009 249.393 305.58 253.547C304.434 264.432 302.668 281.881 301.45 295.678C300.495 306.467 299.899 314.989 300.233 316.349C301.211 320.479 300.233 369.747 300.233 369.747C296.724 371.441 291.377 369.747 291.377 369.747C291.377 369.747 282.02 325.348 283.309 319.166C284.622 312.983 282.426 307.732 282.426 307.732C275.145 273.86 275.957 255.074 277.389 246.099C277.819 243.474 278.296 241.707 278.63 240.609C278.917 239.678 279.132 239.249 279.132 239.249C295.196 234.952 306.678 243.283 306.678 243.283Z" fill="#15234A"/>
<path d="M327.54 204.589C326.514 212.299 322.432 221.752 320.976 226.836C320.976 226.836 323.411 244.476 321.095 249.322C320.833 249.871 320.499 250.253 320.093 250.444C311.476 254.191 277.867 250.563 276.434 239.702C275.909 235.763 289.229 221.919 290.017 220.224C290.351 219.532 290.685 217.264 289.109 212.609C286.89 219.436 274.692 217.479 274.692 217.479C276.124 215.02 279.705 198.049 283.691 190.386C286.699 184.634 294.695 183.798 294.695 183.798C294.695 183.798 298.037 189.073 306.081 188.333C314.149 187.593 315.605 182.652 315.605 182.652C315.605 182.652 322.743 183.607 324.962 185.374C325.344 185.66 328.901 194.468 327.54 204.589Z" fill="#FF8000"/>
<path d="M320.976 226.812C320.976 226.812 323.411 244.452 321.095 249.297C314.818 246.146 309.853 237.601 310.998 228.101C311.834 221.083 313.099 219.46 316.87 215.449C319.639 212.489 326.013 212.322 325.511 213.731C324.031 217.932 321.764 224.138 320.976 226.812Z" fill="#ED7D2B"/>
<path d="M294.743 205.949L309.16 229.079H284.646L270.896 206.451L294.743 205.949Z" fill="#1C468A"/>
<path d="M308.396 227.91L308.659 227.098L295.005 205.233L294.743 205.95L308.396 227.91Z" fill="#EFDECE"/>
<path d="M295.005 205.233L271.923 205.878L270.896 206.451L294.743 205.95L295.005 205.233Z" fill="#FCECDB"/>
<path d="M270.897 206.451L257.959 199.457L273.045 223.16L284.646 229.08L270.897 206.451Z" fill="#163560"/>
<path d="M339.475 222.658C338.091 223.303 334.534 227.48 333.245 227.91C327.54 229.819 303.193 224.735 303.193 224.735L303.957 220.462C303.957 220.462 327.827 221.107 330.453 220.391C330.954 220.248 333.532 216.214 334.511 215.641L339.475 222.658Z" fill="#FFB27D"/>
<path d="M303.957 220.462C303.957 220.462 301.069 218.123 299.135 218.648C297.178 219.173 294.337 221.632 293.263 222.229C292.189 222.802 289.301 224.902 290.781 226.167C292.237 227.432 296.796 226.334 298.61 225.379C300.424 224.425 303.217 224.735 303.217 224.735L303.957 220.462Z" fill="#FFB27D"/>
<path d="M299.684 218.577C299.684 218.577 296.175 218.171 295.22 218.171C294.265 218.195 294.528 218.41 295.053 219.15C295.578 219.89 297.392 220.176 297.488 220.439C297.583 220.701 299.684 218.577 299.684 218.577Z" fill="#FFB27D"/>
<path d="M315.629 182.628C315.629 182.628 326.013 183.869 328.853 188.309C332.458 193.942 341.003 216.356 340.717 221.99C340.717 221.99 334.487 232.588 313.099 230.893C313.099 230.893 310.879 223.04 315.367 220.438C315.367 220.438 326.347 218.481 327.612 217.383L318.661 201.103L315.629 182.628Z" fill="#FF8000"/>
<path d="M274.238 214.901C273.928 213.588 271.064 214.399 270.109 215.163C269.87 215.354 269.631 215.665 269.369 216.023C269.345 215.808 269.321 215.593 269.297 215.426C269.249 214.805 268.533 213.707 268.342 214.543C268.175 215.378 267.865 218.815 267.865 218.815C267.841 221.608 269.631 222.754 270.777 221.847C271.923 220.964 274.549 216.214 274.238 214.901Z" fill="#FFB27D"/>
<path d="M655.158 377.385H1.49805C1.04452 377.385 0.662598 377.003 0.662598 376.55V376C0.662598 375.547 1.04452 375.165 1.49805 375.165H655.158C655.611 375.165 655.993 375.547 655.993 376V376.55C655.993 377.003 655.611 377.385 655.158 377.385Z" fill="#2E3552"/>
</svg>
