<svg width="570" height="412" viewBox="0 0 570 412" fill="none" xmlns="http://www.w3.org/2000/svg">
<path opacity="0.7" d="M389.556 122.233C-15.1635 -37.4001 -20.6362 243.565 14.0001 401.5L570 400V0.499731C542.285 -2.62307 436.288 28.4431 399.128 118.233C397.613 121.892 393.239 123.686 389.556 122.233Z" fill="#DFE8F4"/>
<ellipse cx="291.5" cy="401.5" rx="278.5" ry="10.5" fill="#D9D9D9"/>
<path d="M323.109 309.906H424.181C428.005 309.906 431.151 306.8 431.151 302.937V298.397H323.109V309.906Z" fill="#77A4E5"/>
<path d="M374.681 392.858H381.212L383.044 309.906H373.088L374.681 392.858Z" fill="#44474E"/>
<path d="M346.327 392.858H409.766V387.123L377.429 384.216L346.327 387.123V392.858Z" fill="#44474E"/>
<path d="M415.938 391.982C415.938 389.115 413.589 386.765 410.721 386.765C407.854 386.765 405.504 389.115 405.504 391.982C405.504 394.849 407.854 397.199 410.721 397.199C413.589 397.199 415.938 394.849 415.938 391.982Z" fill="#44474E"/>
<path d="M352.499 391.982C352.499 389.115 350.149 386.765 347.282 386.765C344.415 386.765 342.065 389.115 342.065 391.982C342.065 394.849 344.415 397.199 347.282 397.199C350.189 397.199 352.499 394.849 352.499 391.982Z" fill="#44474E"/>
<path d="M356.123 315.322H399.969C402.597 315.322 404.748 313.171 404.748 310.543V309.906H351.384V310.583C351.384 313.211 353.495 315.322 356.123 315.322Z" fill="#44474E"/>
<path d="M422.11 309.906C427.128 309.906 431.15 305.844 431.15 300.866V228.507C431.15 214.17 421.792 202.582 410.243 202.582H362.972C351.423 202.582 342.065 214.17 342.065 228.507V309.906H422.11Z" fill="#C2BDBD"/>
<path d="M421.194 309.906C423.942 309.906 426.172 307.676 426.172 304.928V228.507C426.172 214.17 416.813 202.582 405.265 202.582H357.954C346.405 202.582 337.047 214.17 337.047 228.507V248.179V309.906H421.194Z" fill="#A7A7A7"/>
<path d="M311.601 309.906H427.248C430.434 309.906 432.983 307.357 432.983 304.171C432.983 300.985 430.434 298.437 427.248 298.437H311.601C308.415 298.437 305.866 300.985 305.866 304.171C305.866 307.317 308.455 309.906 311.601 309.906Z" fill="#C2BDBD"/>
<path d="M245.016 399.23H288.065C290.136 396.722 291.291 384.814 290.972 381.788C290.893 381.19 290.136 378.323 290.136 378.323C290.136 378.323 274.247 371.633 272.216 380.633C272.136 380.912 272.096 381.19 272.016 381.469C269.468 389.912 258.038 393.735 251.468 394.77C247.206 395.447 245.613 397.677 245.016 399.23Z" fill="black"/>
<path d="M362.416 264.826C360.863 264.826 303.478 272.831 291.531 286.291C285.557 292.981 269.946 380.872 269.946 380.872C269.946 380.872 277.194 386.009 293.124 381.19C293.124 381.19 314.15 324.323 313.314 308.274C313.075 303.813 364.328 301.982 373.408 299.831C382.488 297.681 393.758 292.464 388.859 283.742C384.001 274.981 362.416 264.826 362.416 264.826Z" fill="#121F42"/>
<path d="M273.689 399.231H316.738C318.809 396.722 318.052 387.363 317.734 384.337C317.654 383.739 317.614 383.381 317.614 383.381C317.614 383.381 302.919 371.633 300.888 380.633C300.809 380.912 300.769 381.191 300.689 381.469C298.141 389.912 286.711 393.735 280.14 394.77C275.879 395.447 274.286 397.678 273.689 399.231Z" fill="#000718"/>
<path d="M385.275 269.485C383.722 269.485 315.185 272.87 303.238 287.685C297.265 295.052 296.389 380.354 296.389 380.354C296.389 380.354 303.756 389.514 319.725 384.177C319.725 384.177 334.38 338.938 333.305 308.114C333.146 303.216 375.956 302.658 387.744 301.703C402.678 300.508 406.421 275.459 401.563 265.862C396.664 256.264 385.275 269.485 385.275 269.485Z" fill="#15234A"/>
<path d="M339.956 268.569C348.557 282.309 402.24 286.45 402.24 286.45C403.155 284.26 407.217 248.857 407.934 246.428C409.687 240.335 410.802 233.604 411.518 226.994C411.518 226.914 411.518 226.834 411.558 226.755C412.793 215.325 412.793 204.334 412.633 197.723C412.554 193.9 412.395 191.551 412.395 191.431C412.275 191.392 412.116 191.312 411.996 191.272C408.731 189.918 405.625 188.723 402.638 187.728H402.598C400.089 186.891 397.66 186.135 395.35 185.498C391.248 184.383 387.465 183.586 383.961 183.029C379.819 182.391 376.075 182.073 372.69 181.993C372.531 181.993 372.372 181.993 372.252 181.993C371.376 181.993 370.5 181.993 369.664 181.993C361.301 182.192 355.686 183.825 352.898 184.94C352.5 185.099 352.181 185.259 351.903 185.378C351.863 185.378 351.823 185.418 351.783 185.418C351.465 185.577 351.226 185.697 351.026 185.776C350.987 185.776 350.987 185.816 350.947 185.816C350.867 185.856 350.788 185.896 350.708 185.936L346.287 232.33L339.956 268.569Z" fill="#476CD2"/>
<path d="M283.247 243.361C289.38 246.229 325.858 248.618 329.363 247.583C331.155 247.065 338.682 240.454 346.248 232.29C353.416 224.565 360.624 215.485 363.054 208.954C368.071 195.533 363.77 183.626 363.77 183.626C363.77 183.626 354.452 183.586 350.669 185.896C346.885 188.206 325.181 228.149 322.274 229.224C319.367 230.299 285 232.251 281.057 234.122C281.057 234.122 277.114 240.534 283.247 243.361Z" fill="#476CD2"/>
<path d="M372.213 183.546V185.816C372.213 185.816 371.576 192.865 380.297 193.94C388.978 194.976 395.589 191.192 395.35 185.737C394.554 181.515 393.717 178.608 393.678 175.104C393.678 173.789 393.757 172.435 393.996 170.882L377.151 170.524L372.173 171.32L372.213 183.546Z" fill="#F6B78D"/>
<path d="M372.173 171.32L372.213 183.546C374.005 184.383 376.036 184.9 378.306 184.9C386.071 184.9 393.757 172.435 393.996 170.882L372.173 171.32Z" fill="#EFAD80"/>
<path d="M371.178 177.254C371.178 177.254 392.762 181.635 395.311 168.174C397.859 154.674 402.32 146.152 388.66 142.807C375.001 139.422 371.337 144.081 369.385 148.382C367.434 152.683 365.602 175.781 371.178 177.254Z" fill="#F6B78D"/>
<path d="M365.164 138.307C365.164 138.307 371.177 137.869 378.306 134.763C384.08 132.254 391.328 135.041 393.717 136.276C393.638 135.878 393.518 135.36 393.16 134.842C393.16 134.842 394.235 135.599 394.355 136.634C394.474 136.714 394.514 136.754 394.474 136.794C394.474 136.794 395.669 136.594 396.465 136.913C396.465 136.913 395.908 136.833 395.748 137.192C395.709 137.232 395.709 137.271 395.669 137.271C404.669 141.612 405.465 155.829 402.558 159.135C399.054 163.077 394.872 171.998 394.872 171.998C394.872 171.998 393.359 169.887 393.996 166.422C394.633 162.958 391.647 162.918 387.824 161.365C384.04 159.772 387.186 155.351 383.881 152.643C380.576 149.935 368.39 151.528 368.549 149.457C364.009 147.825 365.164 138.785 365.164 138.307Z" fill="#33353A"/>
<path d="M404.231 273.349C405.266 266.379 407.735 257.499 408.89 249.932C409.846 243.64 410.762 233.565 411.479 226.954C411.479 226.875 411.479 226.795 411.518 226.715C411.479 226.755 411.399 226.875 411.359 226.795C408.97 223.888 402.478 220.742 394.593 232.251C393.04 234.56 386.589 248.698 386.828 251.565C387.823 264.826 404.231 273.349 404.231 273.349Z" fill="#4468CC"/>
<path d="M399.094 253.397C399.253 252.361 399.094 251.047 398.258 249.414C398.258 249.414 397.262 248.777 395.908 247.981C393.917 246.866 391.169 245.472 389.935 245.711C389.696 245.75 389.417 245.83 389.058 245.91C386.111 246.627 379.262 248.737 378.226 249.972C377.39 251.007 376.195 252.281 375.399 253.397H399.094Z" fill="#F6B78D"/>
<path d="M394.554 253.397H452.258C452.417 252.64 452.417 251.963 452.218 251.446C450.506 247.105 447.121 239.937 443.258 232.251C440.43 226.596 437.284 220.662 434.337 215.365C430.236 207.998 426.492 201.825 424.302 199.317C422.55 197.325 420.359 195.653 418.089 194.299C416.138 193.144 414.147 192.188 412.315 191.392C412.196 191.352 412.036 191.272 411.917 191.232C407.895 189.6 404.709 188.883 404.709 188.883C404.709 188.883 404.669 190.715 404.669 193.502C404.669 201.626 404.987 218.034 407.576 222.016C408.293 223.131 409.647 224.804 411.319 226.795C411.359 226.835 411.399 226.914 411.479 226.954C412.395 228.029 413.39 229.184 414.465 230.339C420.479 237.069 428.125 244.994 429.041 245.99C429.121 246.069 429.121 246.069 429.121 246.069H429.001L412.833 246.308L407.855 246.388L397.58 246.547C396.863 246.866 396.306 247.344 395.908 247.981C394.912 249.454 394.594 251.565 394.554 253.397Z" fill="#476CD2"/>
<path d="M283.247 243.361C289.38 246.229 325.858 248.618 329.363 247.583C331.155 247.065 338.681 240.454 346.248 232.29C345.889 232.33 342.425 226.556 326.615 240.375C326.615 240.375 322.473 242.206 311.243 241.171C300.013 240.175 285.557 239.777 283.247 243.361Z" fill="#4468CC"/>
<path d="M471.253 399.628H471.333C471.771 399.628 472.129 398.672 472.089 397.478L470.935 259.131L467.51 258.016L470.417 397.438C470.457 398.672 470.815 399.628 471.253 399.628Z" fill="#33353A"/>
<path d="M477.148 261.68H278.229C276.636 261.68 275.362 260.405 275.362 258.812V256.224C275.362 254.631 276.636 253.356 278.229 253.356H477.148C478.74 253.356 480.015 254.631 480.015 256.224V258.812C480.015 260.405 478.74 261.68 477.148 261.68Z" fill="#33353A"/>
<path d="M30.4072 399.628H30.3275C29.8895 399.628 29.5311 398.672 29.5709 397.478L30.7258 259.131L34.1506 258.016L31.2435 397.438C31.2037 398.672 30.8453 399.628 30.4072 399.628Z" fill="#33353A"/>
<path d="M291.888 261.68H26.3054C24.4735 261.68 23 260.206 23 258.374V256.662C23 254.83 24.4735 253.356 26.3054 253.356H291.848C293.68 253.356 295.154 254.83 295.154 256.662V258.374C295.194 260.206 293.72 261.68 291.888 261.68Z" fill="#33353A"/>
<path d="M316.062 253.277H357.797C357.797 251.445 356.323 249.932 354.451 249.932H316.062V253.277Z" fill="#444444"/>
<path d="M251.707 207.838L267.158 253.277H332.07L316.181 207.838H251.707Z" fill="#444444"/>
<path d="M251.707 207.838L267.039 252.879L267.158 253.277H331.115L315.225 207.838H251.707Z" fill="#797979"/>
<path d="M285.517 230.14C285.915 231.892 287.667 233.286 289.38 233.286C291.132 233.286 292.207 231.892 291.809 230.14C291.411 228.387 289.659 226.994 287.946 226.994C286.194 226.994 285.119 228.427 285.517 230.14Z" fill="#FFFFF8"/>
<path d="M251.707 207.838L267.039 252.879H296.428L260.587 207.838H251.707Z" fill="#797979"/>
<path d="M142.629 383.58C142.629 383.58 143.545 397.797 146.293 397.996C146.652 398.036 160.271 397.996 160.271 397.996L177.634 397.876C177.634 397.876 177.515 393.695 172.417 392.819C167.36 391.943 158.838 388.398 155.731 381.708C152.506 374.619 142.629 383.58 142.629 383.58Z" fill="black"/>
<path d="M92.9299 266.499C92.2529 267.056 74.5712 286.211 76.0447 300.946C76.4828 305.287 80.1864 308.512 84.5271 308.512H106.072C106.072 308.512 128.054 312.455 128.572 317.194C129.09 321.933 133.59 347.539 142.51 383.938C142.51 383.938 149.081 386.208 153.063 384.575C158.32 382.425 159.077 380.155 159.077 380.155C159.077 380.155 153.78 298.676 149.559 292.941C145.377 287.207 102.169 270.162 88.1511 268.45C74.2128 266.777 92.9299 266.499 92.9299 266.499Z" fill="#476CD2"/>
<path d="M217.856 246.189C217.856 246.189 230.361 243.281 233.546 246.189C236.732 249.096 237.768 253.317 237.768 253.317H217.856V246.189Z" fill="#F6B78D"/>
<path d="M173.055 383.58C173.055 383.58 173.971 397.797 176.718 397.996C177.077 398.036 190.697 397.996 190.697 397.996L208.06 397.876C208.06 397.876 207.94 393.695 202.843 392.819C197.785 391.943 189.263 388.398 186.157 381.708C182.931 374.619 173.055 383.58 173.055 383.58Z" fill="black"/>
<path d="M76.6022 266.499C76.0845 266.937 72.2615 277.211 69.7128 288.919C67.5225 298.995 75.1686 308.512 85.4829 308.512H135.581C135.581 308.512 157.563 312.455 158.081 317.194C158.599 321.933 163.099 347.539 172.019 383.938C172.019 383.938 178.59 385.65 183.767 383.46C186.515 382.305 188.666 379.478 188.666 379.478C188.666 379.478 183.289 298.676 179.108 292.941C174.926 287.207 131.718 270.162 117.7 268.45C103.722 266.777 76.6022 266.499 76.6022 266.499Z" fill="#476CD2"/>
<path d="M104.359 193.661L112.124 201.108H125.346C125.346 200.033 125.306 195.613 125.266 191.591C125.266 191.352 125.266 191.113 125.266 190.874C125.266 189.998 125.226 189.122 125.226 188.325C125.187 186.095 125.187 184.502 125.187 184.502L121.802 182.192L114.275 177.015L110.213 174.228C110.213 174.307 109.894 177.931 109.815 178.489C108.859 187.967 104.359 193.661 104.359 193.661Z" fill="#F6B78D"/>
<path d="M123.554 192.347C123.315 192.228 109.018 185.816 107.345 186.374C105.673 186.931 103.602 192.029 103.602 192.029L128.771 197.723C128.771 197.723 126.779 193.701 123.554 192.347Z" fill="#FF8000"/>
<path d="M61.7878 235.158C64.4958 218.392 76.0048 205.808 80.903 201.109C84.2084 196.131 103.602 192.029 103.602 192.029C103.602 192.029 119.651 195.653 128.771 197.724C128.771 197.724 142.948 199.277 150.953 212.498C155.891 220.662 170.068 239.379 179.347 239.976C188.665 240.574 217.856 246.229 217.856 246.229V253.397L173.333 254.631C172.776 254.631 172.258 254.592 171.701 254.512C167.878 253.795 151.43 250.53 143.267 246.268C141.952 267.295 140.439 299.433 133.072 304.53C125.306 309.906 70.6684 310.663 64.8542 302.42C61.9072 298.198 65.5312 273.309 70.0711 249.255C64.4559 246.547 60.6329 242.167 61.7878 235.158Z" fill="#FF8000"/>
<path d="M112.244 181.476L112.921 181.874C112.921 181.874 119.134 186.334 125.187 188.365C125.147 186.135 125.147 184.542 125.147 184.542L121.762 182.232L112.244 181.476Z" fill="#EFAD80"/>
<path d="M129.806 184.662C129.806 184.662 109.496 187.051 108.182 174.387C106.868 161.723 103.363 153.48 116.306 151.409C129.208 149.338 132.235 153.918 133.709 158.059C135.142 162.201 135.023 183.746 129.806 184.662Z" fill="#F6B78D"/>
<path d="M133.151 156.785C133.151 156.785 129.328 170.524 126.541 169.369C123.753 168.214 121.244 167.298 120.846 171.559C120.487 175.86 118.855 180.878 109.815 179.962C100.775 179.046 96.9517 154.276 100.217 150.373C109.655 139.143 146.213 143.364 133.151 156.785Z" fill="#33353A"/>
<path d="M147.528 311.26H47.0533C43.2303 311.26 40.124 308.154 40.124 304.331V299.831H147.528V311.26Z" fill="#77A4E5"/>
<path d="M159.594 311.261H83.5315C80.704 311.261 78.4341 308.991 78.4341 306.163V304.968C78.4341 302.141 80.704 299.871 83.5315 299.871H159.594C162.422 299.871 164.692 302.141 164.692 304.968V306.163C164.692 308.951 162.382 311.261 159.594 311.261Z" fill="#C2BDBD"/>
<path d="M96.2755 393.735H89.7842L87.9922 311.261H97.8684L96.2755 393.735Z" fill="#44474E"/>
<path d="M124.471 393.735H61.4302V388.04L93.5279 385.133L124.471 388.04V393.735Z" fill="#44474E"/>
<path d="M55.2974 392.819C55.2974 389.952 57.6071 387.642 60.4744 387.642C63.3417 387.642 65.6515 389.952 65.6515 392.819C65.6515 395.686 63.3417 397.996 60.4744 397.996C57.6071 398.036 55.2974 395.686 55.2974 392.819Z" fill="#44474E"/>
<path d="M118.337 392.819C118.337 389.952 120.647 387.642 123.514 387.642C126.382 387.642 128.692 389.952 128.692 392.819C128.692 395.686 126.382 397.996 123.514 397.996C120.647 398.036 118.337 395.686 118.337 392.819Z" fill="#44474E"/>
<path d="M122.201 316.637H63.6601C60.6734 316.637 58.2441 314.207 58.2441 311.221H127.577C127.617 314.247 125.187 316.637 122.201 316.637Z" fill="#44474E"/>
<path d="M50.0397 311.26C47.3317 311.26 45.1016 309.07 45.1016 306.322V230.339C45.1016 216.122 54.4203 204.573 65.8894 204.573H112.881C124.35 204.573 133.669 216.122 133.669 230.339V311.221H50.0397V311.26Z" fill="#C2BDBD"/>
<path d="M49.1241 311.26C44.1462 311.26 40.124 307.238 40.124 302.26V230.339C40.124 216.122 49.4427 204.573 60.9119 204.573H107.904C119.373 204.573 128.692 216.122 128.692 230.339V311.221H49.1241V311.26Z" fill="#797979"/>
<path d="M443.045 241.144H431.496C430.181 241.144 429.11 240.058 429.11 238.725V237.433C429.096 236.086 430.167 235 431.496 235H443.058V241.144H443.045Z" fill="#15234A"/>
<path d="M464.408 236.017H440.036V235H464.408C464.625 235 464.801 235.179 464.801 235.399V235.619C464.801 235.838 464.625 236.017 464.408 236.017Z" fill="#15234A"/>
<path d="M464.408 241.144H440.036V240.127H464.408C464.625 240.127 464.801 240.306 464.801 240.526V240.746C464.801 240.965 464.625 241.144 464.408 241.144Z" fill="#15234A"/>
<path d="M464.069 240.127H442.801C441.676 240.127 440.781 239.206 440.781 238.079C440.781 236.938 441.689 236.031 442.801 236.031H464.069C463.5 237.392 463.5 238.766 464.069 240.127Z" fill="#F5F5F5"/>
<path opacity="0.3" d="M440.768 241.144H431.537C430.195 241.144 429.097 240.031 429.097 238.67V237.447C429.097 236.1 430.181 235 431.523 235H440.998C438.802 236.347 438.965 239.577 440.768 241.144Z" fill="black"/>
<path d="M461.48 238.272C461.48 238.285 457.115 238.313 451.734 238.313C446.352 238.313 441.987 238.299 441.987 238.272C441.987 238.258 446.352 238.23 451.734 238.23C457.115 238.23 461.48 238.244 461.48 238.272Z" fill="#263238"/>
<path d="M463.486 239.178C463.486 239.192 459.121 239.22 453.74 239.22C448.358 239.22 443.994 239.206 443.994 239.178C443.994 239.165 448.358 239.137 453.74 239.137C459.121 239.137 463.486 239.165 463.486 239.178Z" fill="#263238"/>
<path d="M462.89 236.966C462.89 236.979 458.525 237.007 453.144 237.007C447.762 237.007 443.397 236.993 443.397 236.966C443.397 236.952 447.762 236.924 453.144 236.924C458.525 236.938 462.89 236.952 462.89 236.966Z" fill="#263238"/>
<path d="M439.697 240.718C439.697 240.732 437.65 240.759 435.129 240.759C432.607 240.759 430.561 240.745 430.561 240.718C430.561 240.704 432.607 240.677 435.129 240.677C437.663 240.677 439.697 240.704 439.697 240.718Z" fill="#263238"/>
<path d="M439.696 235.509C439.696 235.522 437.65 235.55 435.128 235.55C432.621 235.55 430.574 235.536 430.574 235.509C430.574 235.495 432.621 235.467 435.142 235.467C437.663 235.467 439.696 235.495 439.696 235.509Z" fill="#263238"/>
<path d="M441.961 253.392H426.386C425.071 253.392 424 252.306 424 250.972V247.893C424 246.546 425.071 245.46 426.386 245.46H441.961V253.392Z" fill="#15234A"/>
<path d="M469.586 246.78H438.07V245.46H469.572C469.789 245.46 469.965 245.639 469.965 245.859V246.368C469.979 246.601 469.803 246.78 469.586 246.78Z" fill="#15234A"/>
<path d="M469.586 253.392H438.07V252.072H469.572C469.789 252.072 469.965 252.251 469.965 252.471V252.979C469.979 253.213 469.803 253.392 469.586 253.392Z" fill="#15234A"/>
<path d="M469.03 252.072H441.635C440.198 252.072 439.033 250.89 439.033 249.433C439.033 247.976 440.198 246.794 441.635 246.794H469.03C468.285 248.54 468.285 250.313 469.03 252.072Z" fill="#F5F5F5"/>
<path opacity="0.3" d="M439.019 253.392H426.359C425.057 253.392 424 252.319 424 250.986V247.948C424 246.574 425.098 245.474 426.44 245.474H439.317C436.498 247.206 436.701 251.371 439.019 253.392Z" fill="black"/>
<path d="M465.695 249.667C465.695 249.68 460.07 249.708 453.143 249.708C446.203 249.708 440.591 249.694 440.591 249.667C440.591 249.653 446.216 249.625 453.143 249.625C460.07 249.639 465.695 249.653 465.695 249.667Z" fill="#263238"/>
<path d="M468.285 250.849C468.285 250.863 462.66 250.89 455.733 250.89C448.793 250.89 443.181 250.876 443.181 250.849C443.181 250.835 448.806 250.808 455.733 250.808C462.66 250.808 468.285 250.835 468.285 250.849Z" fill="#263238"/>
<path d="M467.526 248.581C467.526 248.595 461.9 248.622 454.974 248.622C448.033 248.622 442.421 248.608 442.421 248.581C442.421 248.567 448.047 248.54 454.974 248.54C461.9 248.54 467.526 248.567 467.526 248.581Z" fill="#263238"/>
<path d="M437.65 252.828C437.65 252.842 435.02 252.87 431.767 252.87C428.514 252.87 425.884 252.856 425.884 252.828C425.884 252.815 428.514 252.787 431.767 252.787C435.02 252.801 437.65 252.815 437.65 252.828Z" fill="#263238"/>
<path d="M437.65 246.12C437.65 246.134 435.02 246.162 431.767 246.162C428.514 246.162 425.884 246.148 425.884 246.12C425.884 246.107 428.514 246.079 431.767 246.079C435.02 246.093 437.65 246.107 437.65 246.12Z" fill="#263238"/>
<path d="M446.624 245.501H433.801C432.825 245.501 432.039 244.704 432.039 243.714V242.752C432.039 241.763 432.825 240.965 433.801 240.965H446.638V245.501H446.624Z" fill="#FFD3A7"/>
<path d="M468.976 242.024H443.465V240.952H468.976C469.207 240.952 469.396 241.144 469.396 241.378V241.598C469.383 241.845 469.207 242.024 468.976 242.024Z" fill="#FFD3A7"/>
<path d="M468.976 245.501H443.465V244.429H468.976C469.207 244.429 469.396 244.622 469.396 244.855V245.075C469.383 245.309 469.207 245.501 468.976 245.501Z" fill="#FFD3A7"/>
<path d="M468.61 244.429H445.431C444.78 244.429 444.251 243.893 444.251 243.233C444.251 242.574 444.78 242.038 445.431 242.038H468.624C468.014 242.835 468.014 243.632 468.61 244.429Z" fill="#F5F5F5"/>
<path d="M444.238 245.501H433.801C432.825 245.501 432.025 244.69 432.025 243.701V242.807C432.025 241.79 432.838 240.965 433.841 240.965H444.482C442.191 241.955 442.354 244.333 444.238 245.501Z" fill="#FF8000"/>
<path d="M465.913 243.041C465.913 243.055 461.345 243.082 455.706 243.082C450.067 243.082 445.499 243.069 445.499 243.041C445.499 243.027 450.067 243 455.706 243C461.345 243 465.913 243.014 465.913 243.041Z" fill="#263238"/>
<path d="M468.014 243.687C468.014 243.701 463.446 243.728 457.807 243.728C452.168 243.728 447.6 243.715 447.6 243.687C447.6 243.673 452.168 243.646 457.807 243.646C463.446 243.646 468.014 243.66 468.014 243.687Z" fill="#263238"/>
<path d="M443.127 245.048C443.127 245.062 440.985 245.089 438.355 245.089C435.712 245.089 433.584 245.076 433.584 245.048C433.584 245.034 435.726 245.007 438.355 245.007C440.985 245.007 443.127 245.021 443.127 245.048Z" fill="#263238"/>
<path d="M443.127 241.502C443.127 241.515 440.985 241.543 438.355 241.543C435.712 241.543 433.584 241.529 433.584 241.502C433.584 241.488 435.726 241.46 438.355 241.46C440.985 241.46 443.127 241.474 443.127 241.502Z" fill="#263238"/>
<path d="M469.085 240.966C469.085 240.979 461.236 241.007 451.571 241.007C441.893 241.007 434.058 240.993 434.058 240.966C434.058 240.952 441.907 240.924 451.571 240.924C461.236 240.924 469.085 240.938 469.085 240.966Z" fill="#476CD2"/>
<path d="M455.014 236.897V239.371L455.855 238.821L456.803 239.371V236.897H455.014Z" fill="#15234A"/>
</svg>
