<svg width="602" height="453" viewBox="0 0 602 453" fill="none" xmlns="http://www.w3.org/2000/svg">
<path d="M554.085 453C613.65 426.346 617.541 297.104 502.345 266.855C387.15 236.605 408.488 160.27 311.573 103.213C223.228 51.1986 77.0855 95.2862 28.4043 230.55C-6.30706 327 34.1963 447.99 61.8357 452.997C330.594 453 554.085 453 554.085 453Z" fill="white"/>
<path d="M462.162 219.346C463.991 214.948 465.851 210.541 470.592 208.311C474.428 206.509 478.438 207.187 481.85 209.752C491.511 217.017 483.095 225.024 494.094 238.797C497.511 243.079 501.645 246.536 503.697 251.549C506.565 258.57 503.149 261.942 497.68 265.305C471.502 281.398 457.778 248.356 458.273 240.8C458.63 235.184 460.985 222.178 462.162 219.346Z" fill="#2D2861"/>
<path d="M446.399 365.856C447.688 371.695 449.722 376.802 449.994 377.399C450.123 377.689 451.328 378.715 451.475 379.01C451.096 386.2 446.675 390.611 442.496 393.796C443.299 390.152 445.23 385.932 444.936 385.138C444.468 383.871 442.608 378.091 438.825 370.869C442.376 370.343 443.571 368.131 446.399 365.856Z" fill="#F7A491"/>
<path d="M462.559 280.484L484.843 297.411C484.843 297.411 473.808 308.027 469.669 311.975C465.529 315.922 439.989 334.294 439.628 335.2C439.36 335.869 445.44 356.993 449.361 368.269C447.005 370.677 441.818 373.037 438.745 373.813C431.02 359.067 421.523 333.906 421.523 330.489C421.523 324.927 462.559 280.484 462.559 280.484Z" fill="#FF8000"/>
<path d="M525.075 314.253C524.348 314.962 519.509 324.387 517.666 329.432C514.972 327.737 513.34 325.712 510.329 324.57C512.702 321.131 517.336 312.862 517.715 310.894C518.621 306.224 519.678 305.538 519.678 305.538C519.678 305.538 535.334 310.836 536.378 312.317C537.426 313.803 528.001 311.399 525.075 314.253Z" fill="#F7A491"/>
<path d="M517.537 311.934C516.324 311.939 517.644 306.448 517.921 305.181C518.233 303.758 519.058 303.33 519.264 303.281C519.817 303.143 537.221 309.031 540.16 311.145C540.357 311.288 540.718 311.743 540.771 311.845C542.382 314.847 528.037 315.418 525.972 314.106C524.134 312.938 523.001 311.916 517.537 311.934Z" fill="#8019B0"/>
<path d="M457.795 285.485C457.795 285.485 477.247 277.626 477.251 277.626C477.176 277.662 477.367 278.415 477.385 278.478C479.21 285.583 488.946 282.84 492.961 295.177C495.798 303.893 499.955 336.498 499.955 336.498C499.955 336.498 502.903 330.892 512.051 320.584C512.76 319.785 521.779 325.976 521.779 325.976C515.075 343.751 498.608 358.198 496.377 357.176C481.315 350.267 463.224 295.739 463.246 295.744C461.533 292.403 457.795 285.485 457.795 285.485Z" fill="#FF8000"/>
<path d="M457.078 228.097C457.078 228.097 447.956 213.65 446.368 208.846C444.78 204.042 446.355 181.156 446.507 179.528C446.658 177.9 452.171 173.453 451.301 172.177C450.432 170.897 442.822 169.858 441.542 170.108C440.267 170.357 437.782 170.13 436.765 171.16C436.631 171.294 439.187 177.32 439.134 178.252C438.772 184.631 435.151 204.934 436.333 210.425C437.697 216.736 451.243 236.91 451.243 236.91L457.078 228.097Z" fill="#F7A491"/>
<path d="M490.213 236.514C490.213 236.514 514.62 237.12 519.977 237.562C525.334 238.003 544.781 236.384 545.535 236.295C546.289 236.206 551.271 227.771 552.096 228.677C552.926 229.582 549.326 232.861 550.437 233.708C551.552 234.56 563.51 232.656 563.35 233.539C563.051 235.193 556.075 234.984 556.084 235.782C556.093 236.581 563.385 235.336 563.881 236.661C564.376 237.986 556.864 237.201 556.561 237.794C556.262 238.387 563.528 239.471 562.783 240.702C562.377 241.371 556.343 239.582 556.374 240.497C556.405 241.411 560.807 243.485 560.268 244.212C559.728 244.939 556.811 241.982 554.255 241.942C551.699 241.906 549.871 240.573 545.794 241.692C541.717 242.812 527.814 248.418 519.112 248.004C510.41 247.593 491.181 246.732 491.181 246.732L490.213 236.514Z" fill="#F7A491"/>
<path d="M454.388 262.001C454.058 257.973 453.496 247.112 453.674 245.774C452.457 241.595 448.014 235.395 447.082 233.642C447.082 233.642 453.108 226.813 457.577 226.871C457.577 226.871 462.332 232.875 465.86 234.717C465.913 234.703 467.109 235.252 467.635 235.248C471.043 235.225 482.947 234.864 485.169 235.524L483.911 253.919C483.269 254.976 482.492 276.127 481.177 277.866C479.861 279.606 460.699 287.532 457.523 285.489C457.394 285.409 455.061 270.136 454.388 262.001Z" fill="#8019B0"/>
<path d="M478.969 235.952C481.163 234.904 497.207 234.935 497.207 234.935C497.207 234.935 499.428 246.001 497.635 248.66C497.635 248.66 483.429 250.774 483.831 251.938L478.969 235.952Z" fill="#8019B0"/>
<path d="M475.4 228.471C475.4 228.471 474.165 234.854 474.415 237.369C474.66 239.885 473.474 247.998 468.143 248.025C462.813 248.052 467.131 237.708 467.635 235.242C468.139 232.775 468.255 225.139 468.255 225.139L475.4 228.471Z" fill="#F7A491"/>
<path d="M468.148 228.976C468.229 226.889 468.26 225.145 468.26 225.145L475.405 228.472C475.405 228.472 475.151 229.779 474.901 231.438C471.77 232.067 469.5 230.912 468.148 228.976Z" fill="#F47458"/>
<path d="M478.015 210.86C478.015 210.86 480.767 212.385 481.775 215.699C482.783 219.009 481.636 227.555 474.522 229.615C467.408 231.676 464.33 224.914 465.793 219.624C467.256 214.334 470.445 207.635 478.015 210.86Z" fill="#F7A491"/>
<path d="M464.905 217.571C465.044 218.99 465.829 220.078 466.654 219.998C467.483 219.917 468.041 218.7 467.898 217.277C467.76 215.858 466.975 214.77 466.15 214.85C465.32 214.931 464.763 216.148 464.905 217.571Z" fill="#F7A491"/>
<path d="M450.057 377.572C450.467 376.431 455.124 379.865 456.217 380.561C457.448 381.341 457.568 382.26 457.546 382.47C457.488 383.023 446.444 397.631 443.139 399.709C442.827 399.905 442.158 399.932 441.957 399.865C440.057 399.21 442.706 387.479 445.088 385.097C446.627 383.558 448.215 382.715 450.057 377.572Z" fill="#8019B0"/>
<path d="M490.579 159.35L470.985 166.317C469.986 166.669 469.227 167.494 468.955 168.525L463.594 188.668C462.907 191.25 459.562 191.919 457.934 189.796L445.244 173.253C444.597 172.41 443.58 171.941 442.523 171.995L421.756 173.074C419.093 173.213 417.42 170.229 418.928 168.021L430.681 150.831C431.279 149.956 431.408 148.841 431.029 147.847L423.558 128.373C422.599 125.875 424.914 123.364 427.469 124.122L447.421 130.041C448.438 130.344 449.535 130.121 450.36 129.456L466.511 116.339C468.585 114.657 471.685 116.089 471.756 118.765L472.336 139.617C472.367 140.679 472.916 141.66 473.804 142.24L491.257 153.609C493.492 155.059 493.095 158.458 490.579 159.35Z" fill="#FF8000"/>
<path d="M451.172 172.383C451.903 173.458 447.943 176.857 446.845 178.735L444.356 175.35C445.583 175.109 450.338 171.157 451.172 172.383Z" fill="#F7A491"/>
<path d="M477.18 210.425C477.18 210.425 478.469 219.957 481.551 221.674C484.633 223.396 483.344 227.62 483.344 227.62C483.344 227.62 486.141 217.803 483.701 214.649C481.261 211.5 477.18 210.425 477.18 210.425Z" fill="#2D2861"/>
<path d="M479.727 223.045C478.893 224.285 478.893 225.752 479.732 226.314C480.57 226.881 481.931 226.332 482.765 225.088C483.599 223.848 483.599 222.38 482.756 221.818C481.917 221.256 480.561 221.805 479.727 223.045Z" fill="#F7A491"/>
<path d="M445.187 173.181C445.204 173.203 445.227 173.226 445.245 173.248L446.146 174.421C445.481 174.243 444.219 173.886 442.988 174.724C442.988 174.729 443.393 173.859 445.187 173.181Z" fill="#F47257"/>
<path d="M391.949 133.328C391.949 133.328 380.013 135.17 371.195 143.961C362.377 152.752 357.109 166.878 357.109 166.878L375.164 172.142C375.169 172.146 367.952 155.308 391.949 133.328Z" fill="#FF8000"/>
<path d="M395.258 141.99L393.965 131.82L384.852 127.119C383.813 126.584 383.84 125.09 384.897 124.595L394.17 120.224L395.825 110.107C396.012 108.957 397.439 108.52 398.242 109.372L405.267 116.838L415.401 115.286C416.556 115.108 417.413 116.334 416.851 117.356L411.922 126.343L416.53 135.5C417.056 136.544 416.155 137.735 415.009 137.516L404.937 135.603L397.653 142.815C396.819 143.636 395.405 143.15 395.258 141.99Z" fill="#FF8000"/>
<path d="M44.9807 201.124C44.9807 201.124 56.9166 202.966 65.7347 211.758C74.5528 220.549 79.8205 234.675 79.8205 234.675L61.765 239.938C61.765 239.938 68.9819 223.1 44.9807 201.124Z" fill="#FF8000"/>
<path d="M41.6755 209.786L42.969 199.617L52.0815 194.916C53.1208 194.38 53.094 192.886 52.0369 192.391L42.7638 188.02L41.109 177.904C40.9217 176.753 39.4899 176.316 38.6915 177.168L31.6665 184.635L21.5326 183.082C20.3773 182.904 19.5209 184.131 20.0829 185.152L25.0161 194.14L20.4085 203.297C19.8822 204.34 20.7832 205.531 21.9295 205.313L32.001 203.399L39.2848 210.612C40.1144 211.428 41.5283 210.942 41.6755 209.786Z" fill="#FF8000"/>
<path d="M253.135 61.9948L256.659 56.0447L253.755 49.769C253.425 49.0553 254.058 48.2703 254.825 48.4443L261.574 49.9563L266.645 45.2551C267.221 44.7199 268.162 45.0767 268.238 45.8617L268.884 52.7485L274.924 56.1161C275.611 56.4997 275.561 57.5077 274.839 57.8199L268.492 60.5631L267.154 67.3473C267.002 68.1189 266.03 68.3821 265.508 67.7933L260.936 62.6059L254.072 63.4311C253.282 63.5158 252.733 62.6728 253.135 61.9948Z" fill="white"/>
<path d="M448.947 44L439.642 50.2088L444.848 59.2366L435.954 65.7576L439.861 75.0039L434 80.9719L437.024 83.938L444.856 75.954L441.154 67.1938L450.405 60.4096L445.289 51.5291L453.719 45.9046L448.947 44Z" fill="white"/>
<path d="M516.589 94.2543L510.005 85.2132L501.192 90.7753L494.318 82.1534L485.241 86.4309L479.041 80.8242L476.2 83.9598L484.492 91.4666L493.096 87.4122L500.246 96.3775L508.917 90.9046L514.876 99.1027L516.589 94.2543Z" fill="white"/>
<path d="M192.657 36.7756L194.887 25.8165L184.838 23.0689L186.559 12.1768L177.277 8.36316L177.233 0L173 0.0223014L173.058 11.2044L181.854 14.8218L180.061 26.151L189.949 28.854L187.924 38.7872L192.657 36.7756Z" fill="white"/>
<path d="M155.063 71L159.319 78.9484L168.502 78.4354L172.646 87.6862L182.254 84.1224L187.401 94.3767L196.656 92.1867L203.217 101.241L199.792 103.726L194.885 96.9548L185.117 99.2653L180.171 89.4079L170.398 93.0297L165.831 82.8244L156.861 83.324L152.918 75.9555L147.097 77.5166L146 73.4309L155.063 71Z" fill="#FF8000"/>
<path d="M105.791 57.1225L99.0112 57.8139L96.7007 47.0287L86.6694 46.8102L83.6185 39.0269L79.6755 40.5701L83.7523 50.9851L93.2618 51.1902L95.6659 62.408L105.867 61.3688L105.791 57.1225Z" fill="white"/>
<path d="M26.78 109L24.2465 115.325L13.6219 112.368L8.77352 121.154L0.459429 120.24L0 124.446L11.1152 125.668L15.7094 117.341L26.7621 120.419L30.5802 110.905L26.78 109Z" fill="white"/>
<path d="M99.76 123.716C107.28 130.929 107.53 142.874 100.318 150.394C93.1051 157.914 81.1603 158.164 73.6401 150.951C66.12 143.739 65.8702 131.794 73.0826 124.274C80.295 116.749 92.2398 116.499 99.76 123.716Z" fill="#FFF3D9"/>
<path d="M99.3453 139.488L91.3167 141.955L88.7966 149.966C88.5914 150.613 87.735 150.746 87.347 150.189L82.5209 143.315L74.122 143.396C73.4441 143.4 73.0515 142.629 73.4619 142.084L78.5066 135.367L75.8348 127.405C75.6207 126.763 76.2362 126.152 76.8741 126.371L84.818 129.091L91.5665 124.091C92.1106 123.685 92.8823 124.082 92.8734 124.76L92.7395 133.159L99.5817 138.03C100.135 138.431 99.9965 139.288 99.3453 139.488Z" fill="#FF8000"/>
<path d="M595.345 171.604C602.865 178.816 603.115 190.761 595.903 198.281C588.69 205.801 576.746 206.051 569.225 198.839C561.705 191.626 561.455 179.681 568.668 172.161C575.88 164.641 587.825 164.391 595.345 171.604Z" fill="#FFF3D9"/>
<path d="M594.935 187.379L586.906 189.846L584.386 197.856C584.181 198.503 583.325 198.637 582.937 198.079L578.11 191.206L569.712 191.286C569.034 191.291 568.641 190.519 569.047 189.975L574.092 183.258L571.42 175.296C571.206 174.654 571.821 174.043 572.459 174.261L580.403 176.982L587.152 171.982C587.696 171.576 588.467 171.973 588.458 172.651L588.325 181.05L595.167 185.921C595.72 186.322 595.582 187.178 594.935 187.379Z" fill="#FF8000"/>
<path d="M318.169 23.8487L321.465 29.3261C321.822 29.9193 322.705 29.8479 322.959 29.2012L325.301 23.2511L331.532 21.8059C332.206 21.6498 332.411 20.7889 331.876 20.3474L326.942 16.2795L327.496 9.91014C327.554 9.21879 326.8 8.75938 326.215 9.13404L320.823 12.573L314.935 10.0796C314.297 9.80756 313.628 10.3874 313.798 11.0609L315.399 17.2519L311.206 22.0824C310.751 22.6043 311.095 23.4206 311.786 23.4652L318.169 23.8487Z" fill="white"/>
<path d="M36.66 39.7454C36.66 41.8551 34.8045 43.5679 32.5208 43.5679C30.2326 43.5679 28.3816 41.8551 28.3816 39.7454C28.3816 37.6356 30.2371 35.9229 32.5208 35.9229C34.8045 35.9229 36.66 37.6356 36.66 39.7454Z" fill="white"/>
<path d="M299.363 67.0535L304.381 68.0437C304.381 68.0437 311.718 64.6181 312.276 62.9678C312.833 61.3174 312.579 57.5083 313.654 57.2719C314.729 57.0355 316.874 57.1247 317.695 59.6493C318.293 61.4825 316.214 67.2497 316.718 67.776C317.031 68.1061 319.899 68.7573 322.004 69.1989C323.387 69.4888 324.488 70.537 324.867 71.9197V71.9242C325.122 72.8608 324.698 73.851 323.85 74.306L322.53 75.0152L323.15 76.3934C323.614 77.4193 323.168 78.637 322.16 79.1187L321.13 79.6138L321.58 80.4434C322.16 81.5139 321.696 82.8654 320.585 83.3427L319.68 83.7307L319.751 83.976C320.041 84.9975 319.515 86.0813 318.534 86.4738L317.633 86.8351L304.269 84.1946C303.016 83.9448 301.83 83.4408 300.781 82.7093L296.236 80.9876C295.746 80.8047 295.469 80.2829 295.581 79.761L298.119 67.8875C298.248 67.3122 298.801 66.9419 299.363 67.0535Z" fill="white"/>
<path d="M370.539 433.771C370.539 433.771 375.584 432.879 375.287 426.208C374.99 419.536 372.769 410.338 368.318 407.663C363.868 404.996 360.623 408.852 360.623 408.852L370.539 433.771Z" fill="#476CD2"/>
<path d="M350.656 407.663C350.805 409.884 352.877 413.154 357.328 415.523C361.778 417.901 364.156 426.357 366.154 430.064C367.071 431.765 368.07 432.69 368.888 433.193C369.845 433.78 370.539 433.78 370.539 433.78C370.539 433.78 370.564 433.193 370.572 432.186C370.588 429.775 370.481 424.953 369.622 419.842C368.409 412.576 364.098 410.049 364.098 410.049C363.314 408.711 361.621 407.754 359.689 407.151C356.535 406.168 352.753 406.119 351.284 406.862C350.863 407.052 350.64 407.324 350.656 407.663Z" fill="#476CD2"/>
<path d="M367.905 418.635C368.954 423.086 369.433 430.434 368.896 433.184C369.854 433.77 370.548 433.77 370.548 433.77C370.548 433.77 370.845 427.099 369.623 419.824C368.409 412.558 364.099 410.032 364.099 410.032C363.315 408.694 361.622 407.736 359.69 407.133C362.233 409.685 367.014 414.862 367.905 418.635Z" fill="#425FB5"/>
<path opacity="0.2" d="M350.656 407.664C350.805 409.885 352.877 413.155 357.328 415.524C361.778 417.902 364.156 426.358 366.154 430.065C367.071 431.766 368.07 432.691 368.888 433.194C369.845 433.78 370.539 433.781 370.539 433.781C370.539 433.781 370.564 433.194 370.572 432.187C370.473 432.096 370.366 432.03 370.242 432.005C368.764 431.634 366.757 431.064 365.568 425.548C364.379 420.041 362.381 416.053 358.971 414.352C355.858 412.8 351.944 407.746 351.284 406.863C350.863 407.053 350.64 407.325 350.656 407.664Z" fill="#2C2A40"/>
<path d="M314.821 268.245C314.821 268.245 349.17 263.085 358.5 277.675C367.822 292.265 355.296 341.022 345.19 348.404C335.083 355.786 318.28 351.963 311.997 347.322C305.705 342.682 302.79 275.288 314.821 268.245Z" fill="#2C2A40"/>
<path d="M354.612 328.956C354.612 328.956 358.963 327.916 360.524 322.796L355.33 320.501C355.33 320.501 353.299 325.769 354.612 328.956Z" fill="#00497B"/>
<path d="M354.611 319.99C361.729 330.823 377.805 333.638 377.805 333.638C381.133 332.664 385.567 328.04 389.951 322.392C398.282 311.667 406.432 297.258 406.432 297.258L399.76 295.037C399.76 295.037 388.044 307.984 382.999 310.8C377.954 313.615 376.468 316.291 376.468 316.291C375.939 315.721 375.336 315.159 374.684 314.623C371.101 311.667 366.163 309.355 366.163 309.355C360.449 307.745 354.611 319.99 354.611 319.99Z" fill="#F9B587"/>
<path d="M354.611 319.989C361.729 330.823 377.805 333.638 377.805 333.638C381.133 332.664 385.567 328.04 389.951 322.392C389.951 322.392 382.115 330.715 377.136 331.417C372.157 332.119 362.72 325.332 361.77 322.739C360.821 320.146 362.224 313.532 366.155 309.346C360.449 307.744 354.611 319.989 354.611 319.989Z" fill="#F3AA79"/>
<path d="M286.294 348.401C286.294 348.401 285.922 370.291 288.994 384.113C292.065 397.935 305.194 361.48 305.194 361.48C305.194 361.48 293.428 351.151 286.294 348.401Z" fill="#2C2A40"/>
<path d="M332.177 361.224C332.177 361.224 331.888 374.13 323.433 383.254C314.977 392.378 311.344 403.054 311.344 403.054C311.344 403.054 324.002 397.266 332.168 398.826C332.168 398.826 336.446 399.049 338.006 397.266C339.567 395.482 340.013 393.369 342.457 394.037C344.901 394.706 348.352 393.93 349.244 393.814C350.136 393.707 355.808 402.715 354.694 408.611C354.694 408.611 350.243 409.833 349.69 410.617C349.137 411.393 345.908 414.738 343.902 414.622C341.895 414.515 336.561 417.628 336.561 417.628C336.561 417.628 309.041 428.097 306.522 429.864C302.278 432.837 282.272 436.098 280.488 424.861C278.705 413.623 296.176 360.217 298.62 354.437C301.073 348.649 329.237 354.214 332.177 361.224Z" fill="#2C2A40"/>
<path d="M307.158 398.266L307.934 398.547C308.215 397.779 308.562 396.954 308.958 396.111L308.215 395.756C307.802 396.623 307.447 397.466 307.158 398.266Z" fill="#5B5B6C"/>
<path d="M347.841 397.143L348.014 397.952C348.832 397.771 349.715 397.597 350.632 397.44L350.491 396.623C349.567 396.788 348.675 396.962 347.841 397.143Z" fill="#5B5B6C"/>
<path d="M306.936 404.616L306.118 404.707L306.127 404.797C306.267 405.937 306.614 406.787 307.175 407.398L307.778 406.837C307.34 406.366 307.06 405.64 306.944 404.69L306.936 404.616Z" fill="#5B5B6C"/>
<path d="M313.458 407.042L313.681 407.834C314.532 407.595 315.423 407.314 316.266 407.042L316.01 406.257C315.176 406.53 314.292 406.811 313.458 407.042Z" fill="#5B5B6C"/>
<path d="M312.806 387.854C312.286 388.638 311.791 389.398 311.345 390.116L312.047 390.554C312.492 389.843 312.98 389.084 313.5 388.308L312.806 387.854Z" fill="#5B5B6C"/>
<path d="M311.08 392.139L310.37 391.718C309.891 392.535 309.445 393.328 309.049 394.079L309.776 394.467C310.172 393.724 310.61 392.94 311.08 392.139Z" fill="#5B5B6C"/>
<path d="M328.198 360.35L327.381 360.209C327.232 361.085 327.05 361.96 326.852 362.819L327.653 363C327.86 362.125 328.041 361.233 328.198 360.35Z" fill="#5B5B6C"/>
<path d="M316.068 384.584L315.399 384.105C314.837 384.898 314.334 385.616 313.855 386.31L314.532 386.781C315.011 386.087 315.514 385.369 316.068 384.584Z" fill="#5B5B6C"/>
<path d="M318.066 380.424C317.545 381.142 317.017 381.861 316.489 382.595L317.157 383.083C317.686 382.356 318.214 381.629 318.734 380.911L318.066 380.424Z" fill="#5B5B6C"/>
<path d="M307.373 400.281L306.572 400.066C306.316 401.024 306.151 401.932 306.085 402.774L306.911 402.84C306.977 402.048 307.134 401.189 307.373 400.281Z" fill="#5B5B6C"/>
<path d="M309.173 407.571L309.016 408.38C309.33 408.438 309.668 408.471 310.04 408.471C310.576 408.471 311.163 408.413 311.84 408.281L311.691 407.472C310.651 407.662 309.833 407.695 309.173 407.571Z" fill="#5B5B6C"/>
<path d="M331.277 403.988L331.418 404.805C332.318 404.657 333.209 404.458 334.076 404.227L333.862 403.426C333.02 403.649 332.153 403.839 331.277 403.988Z" fill="#5B5B6C"/>
<path d="M335.612 402.89L335.885 403.666C336.793 403.353 337.643 402.997 338.411 402.609L338.04 401.875C337.305 402.246 336.487 402.585 335.612 402.89Z" fill="#5B5B6C"/>
<path d="M317.778 405.689L318.025 406.474C319.057 406.143 319.842 405.921 320.585 405.731L320.379 404.93C319.627 405.128 318.826 405.359 317.778 405.689Z" fill="#5B5B6C"/>
<path d="M326.827 404.384L326.835 405.21C327.727 405.201 328.644 405.152 329.552 405.053L329.469 404.235C328.586 404.326 327.694 404.376 326.827 404.384Z" fill="#5B5B6C"/>
<path d="M343.415 398.406L343.712 399.174C344.414 398.902 345.264 398.629 346.23 398.373L346.016 397.572C345.025 397.845 344.141 398.125 343.415 398.406Z" fill="#5B5B6C"/>
<path d="M340.831 399.932C340.517 400.279 340.096 400.626 339.592 400.972L340.055 401.658C340.608 401.278 341.07 400.89 341.434 400.493C341.599 400.312 341.822 400.138 342.102 399.957L341.665 399.255C341.326 399.47 341.037 399.701 340.831 399.932Z" fill="#5B5B6C"/>
<path d="M326.406 364.604C326.174 365.47 325.91 366.321 325.629 367.147L326.414 367.411C326.695 366.569 326.959 365.702 327.198 364.818L326.406 364.604Z" fill="#5B5B6C"/>
<path d="M319.164 378.919L319.833 379.406C320.37 378.671 320.898 377.945 321.418 377.235L320.75 376.748C320.229 377.458 319.701 378.184 319.164 378.919Z" fill="#5B5B6C"/>
<path d="M323.863 373.354L323.136 372.966C322.715 373.758 322.261 374.526 321.79 375.245L322.484 375.699C322.963 374.948 323.433 374.163 323.863 373.354Z" fill="#5B5B6C"/>
<path d="M323.962 371.323L324.705 371.679C325.085 370.878 325.44 370.035 325.77 369.185L325.002 368.888C324.68 369.722 324.333 370.539 323.962 371.323Z" fill="#5B5B6C"/>
<path d="M322.228 404.533L322.368 405.351C323.334 405.186 324.168 405.128 324.953 405.161L324.994 404.335C324.143 404.294 323.26 404.36 322.228 404.533Z" fill="#5B5B6C"/>
<path d="M285.278 201.908L288.631 216.209L288.647 216.3C288.647 216.3 288.87 218.95 289.588 222.443C290.398 226.34 291.826 231.295 294.27 234.812C294.642 235.349 295.046 235.861 295.467 236.323C295.467 236.323 297.589 244.489 299.885 251.541C301.231 255.694 302.634 259.467 303.7 260.945C303.7 260.945 317.258 258.394 314.013 250.286C314.013 250.286 309.397 239.717 305.764 231.922C305.764 231.914 305.764 231.914 305.764 231.914C305.062 230.403 304.393 228.999 303.807 227.794L299.654 218.306L297.664 213.757L291.62 199.959L285.278 201.908Z" fill="#F9B587"/>
<path d="M299.892 251.54C301.238 255.694 302.642 259.467 303.707 260.945C303.707 260.945 317.265 258.394 314.02 250.285C314.02 250.285 309.404 239.716 305.771 231.922C305.862 232.227 309.033 243.366 308.083 246.495C307.125 249.674 304.302 252.663 299.892 251.54Z" fill="#F3AA79"/>
<path d="M299.975 261.473C300.173 267.369 302.601 274.387 305.417 278.574C307.109 280.357 309.231 280.357 311.403 279.424C316.919 277.063 322.748 268.723 322.748 268.723L314.805 251.937L314.029 250.293C309.545 251.515 304.995 254.711 302.361 256.8C300.933 257.931 300.066 258.74 300.066 258.74C299.967 259.607 299.942 260.524 299.975 261.473Z" fill="#133D73"/>
<path opacity="0.2" d="M299.975 261.474C300.173 267.37 302.601 274.388 305.417 278.574C307.109 280.358 309.231 280.358 311.403 279.425C306.647 274.702 303.385 261.466 302.361 256.801C300.933 257.932 300.066 258.741 300.066 258.741C299.967 259.608 299.942 260.525 299.975 261.474Z" fill="#2C2A40"/>
<path d="M299.975 261.473C303.691 257.783 312.187 253.274 314.797 251.937L314.021 250.293C307.109 252.184 300.058 258.74 300.058 258.74C299.967 259.607 299.942 260.524 299.975 261.473Z" fill="#2C2A40"/>
<path d="M281.942 351.209C292.28 364.585 335.431 365.452 335.431 365.452C335.431 365.452 333.903 347.741 335.431 338.972C337.115 329.328 338.568 315.159 338.568 315.159C342.515 318.049 348.543 323.416 351.978 326.537C353.571 327.991 354.612 328.957 354.612 328.957C355.693 323.986 357.196 320.221 358.757 317.389C362.299 310.965 366.155 309.338 366.155 309.338L364.347 306.977L351.251 289.868L337.173 278.209L334.754 276.203L323.673 269.11L319.14 266.204C319.14 266.204 307.415 271.108 304.079 276.203C300.743 281.297 293.073 304.912 290.728 316.497C287.689 331.533 284.031 344.257 282.578 349.104L282.57 349.112C282.173 350.474 281.942 351.209 281.942 351.209Z" fill="#133D73"/>
<path opacity="0.2" d="M281.942 351.209C292.28 364.586 335.431 365.453 335.431 365.453C335.431 365.453 333.903 347.741 335.431 338.972C337.115 329.328 338.568 315.159 338.568 315.159C342.515 318.049 348.543 323.416 351.978 326.537C353.571 327.991 354.612 328.957 354.612 328.957C355.693 323.986 357.196 320.221 358.757 317.389C358.757 317.389 343.63 309.19 337.165 302.031C337.165 302.031 329.106 324.325 326.332 335.554C322.74 350.095 310.561 356.023 299.381 355.28C288.209 354.537 282.578 349.096 282.578 349.096L282.57 349.104C282.173 350.474 281.942 351.209 281.942 351.209Z" fill="#2C2A40"/>
<path d="M330.286 280.818C332.846 280.315 334.142 278.894 336.091 277.309L334.753 276.203L322.938 266.823C321.369 267.814 319.412 268.796 319.139 272.776C318.735 278.779 325.068 281.842 330.286 280.818Z" fill="#2C2A40"/>
<path d="M351.987 326.547C353.58 328 354.621 328.966 354.621 328.966C358.155 312.724 366.164 309.347 366.164 309.347L364.356 306.986C361.053 309.339 354.183 315.449 351.987 326.547Z" fill="#2C2A40"/>
<path d="M343.63 262.464C343.63 262.464 343.861 268.912 336.43 270.233C336.43 270.225 338.288 261.795 343.63 262.464Z" fill="#2C2A40"/>
<path d="M331.45 248.642C335.941 255.859 343.191 261.928 343.191 261.928C343.191 261.928 358.673 254.455 353.587 242.169C352.224 238.874 350.548 236.463 348.723 234.729C340.978 227.331 330.657 232.112 330.657 232.112C326.157 236.777 327.973 243.052 331.45 248.642Z" fill="#133D73"/>
<path opacity="0.2" d="M331.451 248.641C335.943 255.858 343.192 261.926 343.192 261.926C343.192 261.926 358.674 254.454 353.588 242.168C352.225 238.873 350.549 236.462 348.725 234.728C348.815 234.868 353.084 241.705 348.725 246.263C344.315 250.854 336.686 252.505 331.451 248.641Z" fill="#2C2A40"/>
<path d="M343.11 245.363C343.11 245.363 339.064 224.432 326.109 225.381C313.979 226.273 323.433 242.317 323.433 242.317C323.433 242.317 340.938 247.32 343.11 245.363Z" fill="#2C2A40"/>
<path d="M327.099 237.958C327.099 237.958 321.542 239.064 322.062 244.183C322.062 244.183 326.769 241.392 327.099 237.958Z" fill="#2C2A40"/>
<path d="M336.793 268.952L334.754 276.202C334.539 277.193 333.779 277.969 332.788 278.183C324.284 280.058 320.238 273.816 321.088 271.636C322.187 271.248 341.112 265.187 344.555 257.913C344.563 257.913 343.357 264.411 336.793 268.952Z" fill="#F9B587"/>
<path d="M322.071 268.638C324.796 269.686 328.627 270.636 332.615 269.926C340.145 268.588 344.067 259.679 344.067 259.679C344.067 259.679 345.322 253.627 343.63 248.028C343.176 246.509 342.498 245.023 341.524 243.702C337.982 238.913 332.095 238.062 328.858 237.749C327.248 237.592 325.687 238.368 324.845 239.747L323.425 242.067L322.475 243.619C322.269 243.949 322.087 244.296 321.922 244.643C321.369 245.824 321.03 247.087 320.931 248.392L320.824 249.911C320.089 250.852 319.528 251.901 319.148 253.007C318.817 253.965 318.619 254.981 318.578 256.005L318.281 262.841C318.173 265.393 319.693 267.721 322.071 268.638Z" fill="#F9B587"/>
<path d="M329.857 245.907C329.857 245.907 335.884 243.628 337.164 248.616L336.223 249.334C336.223 249.334 334.398 245.494 329.609 247.204L329.857 245.907Z" fill="#2C2A40"/>
<path d="M320.815 249.92C320.08 250.861 319.519 251.91 319.139 253.016C320.328 252.768 322.384 253.033 325.836 255.13C325.836 255.13 324.564 252.669 322.615 251.778C322.095 251.538 321.947 250.861 322.335 250.432L324.903 247.55C324.903 247.55 324.803 246.708 324.077 246.089C323.631 245.709 322.706 245.089 321.922 244.652C321.369 245.824 321.03 247.096 320.931 248.401L320.815 249.92Z" fill="#F3AA79"/>
<path d="M322.542 243.719C323.929 244.438 324.895 245.346 324.895 245.346L324.548 246.502C323.681 245.718 322.839 245.206 322.046 244.892C321.658 244.735 321.46 244.306 321.634 243.975C321.634 243.967 321.642 243.967 321.642 243.967C321.79 243.645 322.203 243.538 322.542 243.719Z" fill="#2C2A40"/>
<path d="M320.213 255.889L330.666 259.324C330.666 259.324 327.149 264.236 321.873 261.768C317.728 259.827 320.213 255.889 320.213 255.889Z" fill="white"/>
<path d="M322.74 268.721C322.74 268.721 329.304 270.662 336.43 263.461C336.43 263.461 336.586 267.334 332.763 271.124C329.981 273.89 324.721 273.428 322.062 272.973C321.262 272.833 320.84 271.95 321.253 271.248L322.74 268.721Z" fill="#F3AA79"/>
<path d="M342.127 257.086C342.127 257.086 345.595 254.311 347.642 257.135C349.69 259.959 344.563 267.514 341.235 264.22C337.899 260.925 342.127 257.086 342.127 257.086Z" fill="#F9B587"/>
<path d="M329.716 249.623C329.716 249.623 331.087 248.087 332.689 248.78C335.034 249.788 334.621 251.968 334.621 251.968C334.621 251.968 333.713 247.856 329.716 249.623Z" fill="#2C2A40"/>
<path d="M323.903 248.573C323.903 248.573 323.127 245.956 321.154 247.863C321.162 247.863 322.888 246.847 323.903 248.573Z" fill="#2C2A40"/>
<path d="M323.342 242.033C323.35 242.108 323.16 242.405 323.169 242.479C323.169 242.479 326.554 239.647 332.507 241.951C338.461 244.246 341.375 249.886 341.375 249.886L343.629 248.028C343.175 246.509 342.498 245.022 341.524 243.701C337.982 238.912 332.095 238.062 328.858 237.748C327.248 237.591 325.687 238.367 324.845 239.746L323.342 242.033Z" fill="#F3AA79"/>
<path d="M340.31 257.534L342.267 258.425L345.116 255.866C345.562 253.405 343.572 246.841 343.101 245.363C342.853 245.123 342.441 244.884 342.143 244.653C342.143 244.653 340.178 251.44 342.308 253.958L340.31 257.534Z" fill="#2C2A40"/>
<path d="M288.63 216.207L288.646 216.298C288.646 216.298 288.869 218.949 289.588 222.441L299.645 218.313L297.655 213.763L288.63 216.207Z" fill="#F3AA79"/>
<path opacity="0.2" d="M303.393 285.139L311.353 292.248C311.353 292.248 308.504 303.42 302.41 300.926C295.07 297.921 303.393 285.139 303.393 285.139Z" fill="#2C2A40"/>
<path d="M277.991 223.719L313.425 210.487L304.665 187.027L269.231 200.258L277.991 223.719Z" fill="#2C2A40"/>
<path d="M269.218 200.246L277.979 223.712L313.418 210.484L312.088 210.104L270.225 198.223L269.548 199.585L269.218 200.246Z" fill="#2C2A40"/>
<path d="M269.549 199.585L277.913 222.085C278.401 221.903 278.186 221.986 278.987 221.68L291.711 203.663L270.226 198.214L269.549 199.585Z" fill="white"/>
<path d="M278.997 221.689L312.884 209.036L304.124 185.575L270.237 198.229L278.997 221.689Z" fill="#2C2A40"/>
<path d="M281.686 191.998C281.694 191.998 281.694 191.99 281.686 191.998C282.099 191.511 282.842 191.189 283.304 191.214C283.403 190.751 283.948 190.405 284.559 190.281C284.914 190.206 285.286 190.272 285.608 190.438C285.889 189.901 286.59 189.579 286.97 189.793C286.97 189.793 287.061 189.835 287.226 189.909C287.358 189.513 287.656 189.298 287.656 189.298C288.052 188.745 289.175 188.448 289.604 188.687C289.604 188.687 293.353 190.198 293.716 193.096C294.071 195.986 294.6 199.355 293.262 198.876C292.882 198.736 292.502 198.257 292.164 197.613C292.313 199.347 292.222 200.643 291.355 200.338C290.876 200.164 290.397 199.454 290.009 198.538C290.091 200.007 289.943 201.031 289.167 200.75C288.465 200.495 287.779 199.099 287.35 197.596C287.482 199.273 287.383 200.503 286.533 200.197C285.492 199.826 285.203 197.497 284.477 195.615C283.626 193.41 283.428 194.566 282.181 193.757L281.058 194.178C280.835 192.89 281.62 192.072 281.686 191.998Z" fill="#F9B587"/>
<path d="M397.837 298.77C396.26 297.788 395.121 296.252 394.625 294.46C394.485 293.948 394.32 293.403 394.121 292.867C393.378 290.786 393.973 286.335 394.121 284.56C394.27 282.777 395.533 279.366 395.905 278.995C396.277 278.623 398.498 280.209 397.614 282.496C396.722 284.783 397.366 287.326 397.821 288.061C398.283 288.796 400.355 287.458 400.876 286.121C401.396 284.783 405.921 274.701 406.812 274.404C407.704 274.107 408.447 274.33 407.853 276.922C407.258 279.515 404.443 284.04 404.814 285.303C405.186 286.567 405.855 285.526 406.078 284.857C406.301 284.189 409.934 274.644 410.528 274.297C411.123 273.95 412.824 273.355 411.94 277.401C411.048 281.447 408.29 286.377 408.456 287.268C408.621 288.16 412.402 278.31 413.459 277.756C414.516 277.203 415.292 278.202 414.458 280.646C413.624 283.09 411.395 287.838 411.205 288.375C411.048 288.829 411.139 289.209 411.527 288.986C411.915 288.763 414.268 282.983 414.805 282.653C415.342 282.322 416.68 282.934 415.235 286.88C413.79 290.827 412.824 294.328 408.893 297.961C406.466 300.207 405.277 301.561 402.998 301.231C401.627 301.025 399.546 299.827 397.837 298.77Z" fill="#F9B587"/>
<path d="M348.725 287.665C348.725 287.665 349.691 276.972 341.293 274.742C335.274 273.149 325.068 284.238 322.484 296.698C317.918 318.727 328.503 337.941 335.423 340.46C335.423 340.46 341.739 335.563 336.925 328.966C336.925 328.966 323.896 315.829 329.709 296.921C334.547 281.175 342.276 277.12 345.182 284.849L348.725 287.665Z" fill="#2C2A40"/>
<path d="M295.046 300.182L298.646 289.11C298.646 289.11 298.142 269.772 318.554 264.892C318.347 264.248 318.248 263.554 318.281 262.853L318.405 259.905C315.854 260.07 289.844 267.592 295.046 300.182Z" fill="#2C2A40"/>
<path d="M376.476 322.732C376.088 319.256 376.476 316.275 376.476 316.275C375.948 315.706 375.345 315.144 374.693 314.607C373.801 321.436 376.476 322.732 376.476 322.732Z" fill="#F3AA79"/>
<path d="M294.278 234.812C294.649 235.349 295.054 235.861 295.475 236.323C295.475 236.323 298.91 234.317 299.901 233.796C299.901 233.796 296.73 233.854 294.278 234.812Z" fill="#F3AA79"/>
<path d="M349.252 394.342C351.094 396.084 352.588 400.155 353.554 403.45C353.554 403.458 353.554 403.458 353.563 403.466C354.347 406.141 354.785 408.305 354.785 408.305C356.42 410.088 360.16 409.576 366.163 410.228C371.571 410.815 375.353 414.572 379.382 416.19C379.382 416.19 379.382 416.19 379.39 416.19C379.836 416.372 380.29 416.52 380.745 416.644C383.139 417.272 384.832 416.884 385.748 415.719C386.582 414.671 386.78 412.995 386.31 410.881C385.311 406.422 374.073 396.629 370.844 395.325C367.616 394.02 365.618 393.26 361.778 390.106C357.947 386.952 354.041 386.737 353.265 387.918C353.133 388.116 352.935 388.43 352.696 388.81C351.49 390.701 349.252 394.342 349.252 394.342Z" fill="#476CD2"/>
<path d="M352.687 388.801C353.959 388.66 356.106 388.594 357.633 389.486C359.929 390.824 363.198 393.937 366.683 395.571C370.167 397.206 376.847 401.805 380.332 405.067C383.816 408.328 385.864 413.464 384.856 415.157C383.841 416.85 381.999 416.784 379.39 416.197C379.836 416.379 380.29 416.528 380.744 416.651C385.302 417.849 387.309 415.347 386.31 410.888C385.311 406.429 374.073 396.637 370.844 395.332C367.616 394.027 365.618 393.268 361.778 390.114C357.947 386.959 354.041 386.745 353.265 387.925C353.125 388.107 352.927 388.421 352.687 388.801Z" fill="#2C2A40"/>
<path opacity="0.2" d="M353.554 403.458C354.338 406.134 354.776 408.297 354.776 408.297C356.411 410.081 360.151 409.569 366.154 410.221C371.562 410.807 375.344 414.564 379.374 416.182C379.374 416.182 379.373 416.182 379.382 416.182C379.828 416.364 380.282 416.513 380.736 416.637C383.13 417.264 384.823 416.876 385.74 415.712L386.037 413.961C386.037 413.961 382.032 415.968 377.433 413.293C373.916 411.253 372.322 409.255 369.498 408.47C370.027 406.332 368.829 404.02 368.829 404.02C368.606 406.398 367.954 408.107 367.954 408.107C367.393 408.025 366.806 408 366.162 408.033C361.571 408.248 354.404 406.043 353.554 403.458Z" fill="#2C2A40"/>
<path d="M85.2014 361.035C86.605 360.953 87.761 360.243 88.7519 359.202C88.7849 359.169 88.8179 359.136 88.8427 359.103C90.5766 357.245 91.8152 354.405 93.0455 352.275C93.4005 351.647 93.7638 351.077 94.1354 350.615C95.2914 349.154 97.3143 345.314 99.0731 341.764C99.1639 341.582 99.2547 341.408 99.3373 341.227C101.046 337.759 102.45 334.729 102.45 334.729C102.45 334.729 101.798 332.829 100.766 330.873C100.444 330.27 100.089 329.667 99.7089 329.114C98.941 327.999 98.0492 327.074 97.0914 326.785C94.1271 325.869 91.3776 327.842 89.0904 330.493C86.8528 333.094 80.7013 344.067 79.7022 348.625C79.6774 348.724 79.6609 348.815 79.6444 348.906C78.6123 354.636 80.5692 361.299 85.2014 361.035Z" fill="#FF8000"/>
<path d="M85.2011 361.035C86.6461 360.953 87.8351 360.193 88.8507 359.103C85.6222 360.647 83.6571 359.714 82.5259 358.434C81.1139 356.832 80.5772 352.44 80.9488 350.582C81.8488 346.065 85.1929 338.981 86.8938 336.157C88.5947 333.333 91.9718 328.684 95.2499 328.23C97.1242 327.966 98.7095 328.561 99.7251 329.114C98.9572 327.999 98.0655 327.074 97.1077 326.785C94.1434 325.869 91.3939 327.842 89.1067 330.493C86.8278 333.151 80.4534 344.546 79.6607 348.906C78.6121 354.636 80.569 361.299 85.2011 361.035Z" fill="#2C2A40"/>
<path opacity="0.2" d="M85.2016 361.034C86.6053 360.952 87.7613 360.242 88.7521 359.201C88.7851 359.168 88.8182 359.135 88.8429 359.102C90.5769 357.245 91.8155 354.404 93.0457 352.274C93.4008 351.646 93.7641 351.077 94.1357 350.614C95.2916 349.153 97.3146 345.313 99.0733 341.763C99.1642 341.581 99.255 341.408 99.3376 341.226C98.7843 340.574 98.0495 340.293 97.0917 340.557C97.0917 340.557 94.788 342.679 92.6164 347.047C90.2219 351.844 88.9668 356.402 84.4915 356.435C80.0162 356.477 80.8254 353.537 80.2227 349.31C80.1401 348.723 79.9502 348.525 79.6942 348.633C79.6695 348.732 79.6529 348.822 79.6364 348.913C78.6126 354.635 80.5695 361.299 85.2016 361.034Z" fill="#2C2A40"/>
<path d="M159.259 401.18C159.308 403.657 161.257 420.072 166.608 423.391C169.308 425.067 170.86 425.001 171.636 423.746C172.082 423.028 172.28 421.93 172.288 420.543C172.297 419.552 172.214 418.412 172.065 417.174C171.33 411.154 171.24 397.225 176.532 394.203C176.532 394.203 175.566 387.011 173.089 382.585C172.346 381.248 171.463 380.166 170.43 379.604C170.43 379.604 166.74 379.629 164.411 379.943C163.404 380.075 162.058 380.034 160.786 380.381C159.118 380.835 157.599 381.958 157.211 385.046C156.517 390.487 159.209 398.703 159.259 401.18Z" fill="#FF8000"/>
<path d="M159.259 401.179C159.308 403.656 161.257 420.071 166.607 423.39C169.308 425.066 170.86 425 171.636 423.745C170.274 423.803 168.383 423.349 166.69 421.895C164.362 419.897 161.439 408.626 161.612 404.993C161.785 401.36 160.283 394.747 158.97 389.668C157.971 385.829 159.829 382.006 160.786 380.379C159.118 380.834 157.599 381.956 157.211 385.045C156.517 390.486 159.209 398.702 159.259 401.179Z" fill="#2C2A40"/>
<path opacity="0.2" d="M159.259 401.18C159.309 403.657 161.257 420.072 166.608 423.391C169.308 425.067 170.86 425.001 171.636 423.746C172.082 423.028 172.28 421.93 172.289 420.543C171.265 420.774 169.729 420.386 167.954 419.387C164.816 417.628 164.197 408.008 164.643 401.659C165.097 395.309 161.299 390.322 163.478 386.326C165.658 382.329 172.867 383.229 172.867 383.229C172.957 383.006 173.024 382.792 173.081 382.585C172.338 381.248 171.455 380.166 170.423 379.604C170.423 379.604 166.732 379.629 164.403 379.943C163.396 380.075 162.05 380.034 160.778 380.381C159.111 380.835 157.591 381.958 157.203 385.046C156.518 390.487 159.21 398.703 159.259 401.18Z" fill="#2C2A40"/>
<path d="M159.729 227.239C159.729 227.239 127.519 228.114 121.367 242.952C115.224 257.79 134.587 300.289 145.023 305.383C155.46 310.486 170.174 304.26 175.161 298.992C180.148 293.741 171.85 231.723 159.729 227.239Z" fill="#2C2A40"/>
<path d="M139.616 266.782C139.616 266.782 139.566 272.777 137.114 279.292C137.114 279.292 136.395 283.643 135.272 289.027C133.951 295.376 132.663 300.041 130.764 303.897C129.162 307.142 127.998 310.264 127.205 312.691C127.106 312.988 127.016 313.269 126.933 313.542C126.182 315.969 125.843 317.53 125.843 317.53L118.775 315.176C118.775 315.176 118.337 307.729 118.461 303.675C118.618 298.646 118.09 288.828 121.31 280.695C121.566 280.043 121.847 279.449 122.144 278.92C122.144 278.92 123.052 270.903 124.357 265.602C124.794 263.843 125.265 262.39 125.769 261.622C125.769 261.638 136.23 260.54 139.616 266.782Z" fill="#F9B587"/>
<path d="M126.71 279.663C126.71 279.663 122.598 279.704 121.31 280.703C121.566 280.051 121.847 279.457 122.144 278.928C122.144 278.928 125.306 278.747 126.71 279.663Z" fill="#F3AA79"/>
<path d="M139.616 266.781C139.616 266.781 139.567 272.776 137.114 279.29C137.114 279.29 136.396 283.642 135.273 289.025C135.711 284.971 135.405 277.688 135.488 272.379C135.545 268.754 132.284 267.904 129.427 266.88C128.238 266.451 125.909 266.013 124.531 265.559C124.473 265.542 124.415 265.6 124.357 265.617C124.795 263.858 125.265 262.405 125.769 261.637C125.769 261.637 136.231 260.539 139.616 266.781Z" fill="#F3AA79"/>
<path d="M124.794 312.039L131.565 316.836C132.284 317.348 132.713 318.165 132.729 319.04L132.837 325.563C132.853 326.34 132.234 326.984 131.45 326.992C130.797 327 130.228 326.563 130.062 325.935L128.502 319.792L126.908 319.206L127.907 322.872L129.138 326.199L132.226 330.064C132.672 330.625 132.564 331.451 131.978 331.872C131.466 332.243 130.764 332.177 130.335 331.723L126.264 327.496L123.539 324.16L125.678 328.354L129.806 334.522C130.079 334.927 130.079 335.464 129.806 335.868C129.385 336.496 128.494 336.578 127.957 336.05L123.482 331.599L120.938 327.636L123.176 334.63L125.158 339.105C125.381 339.6 125.199 340.178 124.737 340.467C124.225 340.781 123.556 340.624 123.242 340.121L120.369 335.472L118.296 330.08L119.634 334.72L120.369 336.306C120.526 336.636 120.377 337.024 120.047 337.181C119.758 337.313 119.419 337.222 119.237 336.966L118.139 335.447L116.513 331.599L118.792 315.118C118.808 315.118 119.758 312.864 124.794 312.039Z" fill="#F9B587"/>
<path d="M126.933 313.558C126.933 313.558 124.844 312.311 122.392 312.624C122.392 312.624 125.034 311.625 127.206 312.699L126.933 313.558Z" fill="#F3AA79"/>
<path d="M191.445 214.706C198.653 200.496 195.722 181.835 195.21 177.12C195.168 176.707 194.987 176.129 194.681 175.428C191.948 168.938 179.579 151.433 176.764 147.486C176.574 147.222 176.425 147.015 176.326 146.875C176.235 146.751 176.194 146.685 176.194 146.685L167.516 150.723C167.516 150.723 173.354 156.825 175.641 164.479C177.928 172.133 183.419 182.174 183.419 182.174C181 191.058 180.818 202.676 180.818 202.676C185.021 212.526 191.445 214.706 191.445 214.706Z" fill="#F9B587"/>
<path d="M191.445 214.706C198.653 200.495 195.722 181.835 195.21 177.12C195.169 176.707 194.987 176.129 194.682 175.427C194.673 175.658 194.467 190.686 193.493 195.541C192.51 200.438 190.933 205.573 188.084 206.259C185.227 206.944 182.379 205.326 180.826 202.683C185.021 212.526 191.445 214.706 191.445 214.706Z" fill="#F3AA79"/>
<path d="M176.169 147.379C175.005 148.609 169.968 152.028 169.234 152.358C168.978 152.474 168.631 152.308 168.292 152.044C167.954 152.053 165.741 152.086 164.535 151.508C163.875 151.186 163.908 150.244 164.106 149.245C162.512 148.816 159.441 146.289 159.548 143.961C159.655 141.418 162.389 141.302 162.389 141.302C162.512 138.387 165.27 138.924 165.27 138.924C165.444 137.661 167.764 137.149 167.764 137.149C168.028 136.075 169.539 135.918 170.423 136.364C171.306 136.81 176.467 143.11 176.673 144.241C176.871 145.381 176.169 147.379 176.169 147.379Z" fill="#F9B587"/>
<path d="M168.251 147.94C168.598 149.41 167.368 149.567 167.368 149.567C167.623 149.385 167.615 148.758 167.557 148.221C167.557 148.221 167.557 147.858 167.434 147.412C167.293 146.933 167.004 146.363 166.401 146.074C165.312 145.554 164.808 145.876 164.808 145.876L162.694 142.854C163.809 143.564 165.27 145.224 165.27 145.224C167.219 145.191 167.904 146.644 168.144 147.437C168.524 147.42 168.953 147.263 169.118 146.735C169.448 145.686 168.771 144.646 168.771 144.646L165.84 140.534C165.84 140.534 169.886 144.497 169.944 146C170.01 148.006 168.251 147.94 168.251 147.94Z" fill="#F3AA79"/>
<path d="M168.903 139.344C168.903 139.344 171.528 142.647 171.867 143.539C172.23 144.513 171.594 145.463 170.884 145.636C170.174 145.809 169.778 145.438 169.778 145.438L169.753 146.453C169.753 146.453 172.478 146.949 172.519 144.348C172.544 143.043 168.903 139.344 168.903 139.344Z" fill="#F3AA79"/>
<path d="M172.371 143.737C172.371 143.737 173.015 144.389 173.824 144.15C174.634 143.911 174.807 143.374 174.634 142.878C174.634 142.878 175.104 143.366 174.675 144.059C174.113 144.959 172.768 144.761 172.346 144.637L172.371 143.737Z" fill="#F3AA79"/>
<path d="M175.12 148.559C175.12 148.559 176.111 148.378 176.755 147.478C176.565 147.213 176.416 147.007 176.317 146.867C176.326 146.867 175.929 147.734 175.12 148.559Z" fill="#F3AA79"/>
<path d="M168.945 152.381C168.945 152.381 170.216 152.274 170.935 151.82C170.935 151.82 170.266 152.695 169.366 152.901L168.945 152.381Z" fill="#F3AA79"/>
<path d="M183.419 182.173C183.419 182.173 187.217 181.595 188.513 180.514C188.513 180.514 187.126 183.783 182.989 183.899L183.419 182.173Z" fill="#F3AA79"/>
<path d="M96.3902 346.381C97.9177 347.521 97.2159 347.777 98.7269 348.594C100.188 349.387 104.036 352.533 104.276 352.731C104.284 352.739 104.284 352.739 104.284 352.739C114.333 363.407 131.259 380.004 140.441 381.267C149.094 382.456 161.984 358.197 170.216 340.387C170.307 340.255 173.659 335.309 178.679 336.762C183.757 338.24 202.484 355.811 211.096 360.261C211.096 360.261 199.545 360.856 195.771 365.694C191.998 370.533 181.478 375.165 179.571 375.925C177.664 376.693 176.664 375.834 174.889 377.006C173.114 378.179 170.43 379.624 170.43 379.624C170.356 385.016 172.371 389.681 176.309 394.363C176.309 394.363 177.953 393.479 179.521 393.008C181.709 392.364 186.317 391.151 187.134 389.64C187.952 388.128 216.413 382.142 216.413 382.142C216.413 382.142 238.278 377.807 239.979 367.437C241.68 357.058 197.282 310.43 197.282 310.43L193.847 295.477L177.82 298.128V298.119L148.574 300.332C148.574 300.332 143.571 313.774 142.167 325.904C141.226 334.021 135.85 353.301 135.85 353.301C135.85 353.301 130.904 348.214 121.277 344.094C118.816 343.037 116.281 341.889 113.87 340.767C113.87 340.767 110.221 338.933 108.949 337.166C107.677 335.399 106.901 336.077 105.522 335.664C104.143 335.251 102.988 333.583 102.063 333.748C101.146 333.922 100.874 334.376 100.874 334.376C98.5287 336.58 97.4719 338.033 95.9113 343.434C95.903 343.434 94.8544 345.242 96.3902 346.381Z" fill="#2C2A40"/>
<path d="M122.549 349.427L122.218 349.947C122.904 350.385 123.638 350.896 124.398 351.474L124.77 350.979C123.994 350.393 123.25 349.864 122.549 349.427Z" fill="#5B5B6C"/>
<path d="M118.536 347.247L118.247 347.792C118.907 348.139 119.543 348.469 120.138 348.758C120.303 348.841 120.468 348.923 120.641 349.014L120.93 348.469C120.757 348.378 120.584 348.287 120.41 348.205C119.824 347.916 119.188 347.594 118.536 347.247Z" fill="#5B5B6C"/>
<path d="M114.267 345.572C115.059 346.043 115.844 346.488 116.603 346.909L116.901 346.365C116.149 345.943 115.365 345.498 114.572 345.035L114.267 345.572Z" fill="#5B5B6C"/>
<path d="M125.859 352.605C126.503 353.126 127.172 353.687 127.907 354.323L128.312 353.852C127.569 353.208 126.891 352.647 126.247 352.118L125.859 352.605Z" fill="#5B5B6C"/>
<path d="M133.092 358.121L132.688 358.583C133.571 359.36 134.157 359.83 134.587 360.111C134.686 360.177 134.785 360.227 134.884 360.276L135.148 359.715C135.074 359.682 135 359.64 134.925 359.591C134.521 359.335 133.959 358.881 133.092 358.121Z" fill="#5B5B6C"/>
<path d="M136.635 359.608L136.932 360.153C137.584 359.79 138.245 359.121 138.905 358.163L138.394 357.816C137.799 358.692 137.204 359.294 136.635 359.608Z" fill="#5B5B6C"/>
<path d="M129.715 355.084L129.302 355.546C129.888 356.067 130.45 356.57 130.978 357.049L131.3 357.338L131.713 356.876L131.391 356.595C130.863 356.116 130.301 355.612 129.715 355.084Z" fill="#5B5B6C"/>
<path d="M110.386 343.185C111.121 343.656 111.889 344.135 112.673 344.614L112.995 344.085C112.219 343.615 111.451 343.136 110.725 342.665L110.386 343.185Z" fill="#5B5B6C"/>
<path d="M99.6601 336.744C99.5033 336.926 99.3464 337.116 99.1978 337.306C99.6849 337.372 100.395 337.487 101.163 337.669L101.303 337.066C100.692 336.918 100.123 336.81 99.6601 336.744Z" fill="#5B5B6C"/>
<path d="M103.128 337.595L102.913 338.173C103.822 338.511 104.515 338.899 104.978 339.329C105.019 339.37 105.068 339.411 105.118 339.453L105.531 338.99C105.481 338.949 105.44 338.908 105.399 338.875C104.878 338.396 104.111 337.958 103.128 337.595Z" fill="#5B5B6C"/>
<path d="M106.967 340.13L106.604 340.634C107.232 341.096 107.983 341.608 108.825 342.169L109.172 341.657C108.33 341.096 107.587 340.584 106.967 340.13Z" fill="#5B5B6C"/>
<path d="M147.626 321.022L148.228 321.179C148.46 320.312 148.691 319.445 148.922 318.586L148.328 318.421C148.08 319.28 147.849 320.155 147.626 321.022Z" fill="#5B5B6C"/>
<path d="M148.814 316.621L149.409 316.787C149.648 315.92 149.896 315.053 150.144 314.202L149.549 314.029C149.301 314.888 149.054 315.755 148.814 316.621Z" fill="#5B5B6C"/>
<path d="M145.462 329.866L146.065 329.999C146.255 329.156 146.453 328.273 146.667 327.381L146.065 327.241C145.85 328.132 145.652 329.016 145.462 329.866Z" fill="#5B5B6C"/>
<path d="M146.502 325.431L147.104 325.58C147.311 324.737 147.534 323.862 147.757 322.979L147.154 322.822C146.931 323.705 146.708 324.581 146.502 325.431Z" fill="#5B5B6C"/>
<path d="M150.069 312.247L150.664 312.42C150.92 311.545 151.176 310.686 151.432 309.844L150.837 309.662C150.581 310.504 150.325 311.371 150.069 312.247Z" fill="#5B5B6C"/>
<path d="M139.327 356.247L139.88 356.536C140.26 355.802 140.64 354.968 141.003 354.059L140.425 353.828C140.07 354.72 139.698 355.529 139.327 356.247Z" fill="#5B5B6C"/>
<path d="M152.794 303.551L153.38 303.75C153.694 302.825 153.991 301.974 154.263 301.215L153.685 301C153.405 301.768 153.107 302.627 152.794 303.551Z" fill="#5B5B6C"/>
<path d="M151.39 307.886L151.984 308.068C152.257 307.184 152.537 306.326 152.802 305.508L152.215 305.318C151.943 306.136 151.662 307.003 151.39 307.886Z" fill="#5B5B6C"/>
<path d="M141.061 352.102L141.647 352.3C141.928 351.483 142.2 350.616 142.448 349.716L141.854 349.551C141.606 350.434 141.334 351.293 141.061 352.102Z" fill="#5B5B6C"/>
<path d="M144.537 334.333L145.148 334.448C145.305 333.623 145.478 332.739 145.677 331.814L145.074 331.69C144.867 332.615 144.694 333.507 144.537 334.333Z" fill="#5B5B6C"/>
<path d="M142.316 347.759L142.919 347.908C143.133 347.049 143.323 346.157 143.505 345.274L142.894 345.15C142.721 346.033 142.531 346.909 142.316 347.759Z" fill="#5B5B6C"/>
<path d="M143.224 343.334L143.835 343.433C143.984 342.541 144.116 341.649 144.223 340.766L143.612 340.691C143.505 341.567 143.373 342.458 143.224 343.334Z" fill="#5B5B6C"/>
<path d="M143.819 338.841L144.43 338.915C144.52 338.122 144.653 337.231 144.818 336.273L144.207 336.174C144.05 337.14 143.918 338.04 143.819 338.841Z" fill="#5B5B6C"/>
<path d="M181.634 333.708C180.71 333.683 179.785 333.815 178.893 334.088L179.075 334.682C179.909 334.426 180.767 334.303 181.618 334.327L181.634 333.708Z" fill="#5B5B6C"/>
<path d="M185.797 335.55L186.102 335.014C185.854 334.873 185.623 334.749 185.4 334.65C184.789 334.361 184.162 334.138 183.542 333.981L183.394 334.584C183.972 334.733 184.558 334.939 185.144 335.212C185.342 335.303 185.557 335.418 185.797 335.55Z" fill="#5B5B6C"/>
<path d="M187.398 375.142L187.671 375.695C188.48 375.29 189.289 374.877 190.073 374.473L189.784 373.928C189.008 374.332 188.199 374.745 187.398 375.142Z" fill="#5B5B6C"/>
<path d="M191.427 373.051L191.724 373.596C192.558 373.142 193.351 372.696 194.069 372.267L193.755 371.73C193.037 372.151 192.253 372.597 191.427 373.051Z" fill="#5B5B6C"/>
<path d="M195.342 370.774L195.672 371.294C196.597 370.708 197.348 370.179 197.91 369.742L197.522 369.263C196.977 369.692 196.25 370.196 195.342 370.774Z" fill="#5B5B6C"/>
<path d="M171.908 382.96C172.461 382.572 173.006 382.217 173.526 381.895L173.196 381.366C172.734 381.655 172.263 381.961 171.776 382.299C171.825 382.522 171.867 382.745 171.908 382.96Z" fill="#5B5B6C"/>
<path d="M174.839 380.435L175.128 380.98C176.02 380.509 176.838 380.162 177.539 379.948L177.358 379.353C176.615 379.576 175.764 379.939 174.839 380.435Z" fill="#5B5B6C"/>
<path d="M190.907 339.313C191.534 339.834 192.22 340.42 192.946 341.056L193.351 340.585C192.616 339.949 191.931 339.363 191.303 338.834L190.907 339.313Z" fill="#5B5B6C"/>
<path d="M179.125 378.815L179.331 379.401C180.041 379.145 180.891 378.815 181.849 378.41L181.61 377.84C180.66 378.237 179.826 378.567 179.125 378.815Z" fill="#5B5B6C"/>
<path d="M183.302 377.091L183.558 377.652C184.343 377.297 185.168 376.917 186.002 376.513L185.738 375.951C184.904 376.356 184.078 376.736 183.302 377.091Z" fill="#5B5B6C"/>
<path d="M176.755 335.798C176.962 335.666 177.185 335.525 177.424 335.393L177.127 334.848C176.689 335.088 176.309 335.335 175.996 335.566C176.252 335.649 176.508 335.723 176.755 335.798Z" fill="#5B5B6C"/>
<path d="M187.687 336.028L187.332 336.532C187.959 336.978 188.678 337.515 189.462 338.134L189.85 337.647C189.057 337.027 188.331 336.482 187.687 336.028Z" fill="#5B5B6C"/>
<path d="M214.39 363.524C214.093 363.747 213.391 364.003 212.235 364.317L212.4 364.911C213.664 364.564 214.398 364.292 214.77 364.011C214.844 363.953 214.919 363.896 214.993 363.83L214.588 363.367C214.514 363.425 214.456 363.475 214.39 363.524Z" fill="#5B5B6C"/>
<path d="M208.354 353.871L207.966 354.35C208.792 355.019 209.502 355.547 210.129 355.985L210.476 355.473C209.865 355.052 209.172 354.523 208.354 353.871Z" fill="#5B5B6C"/>
<path d="M212.054 356.415L212.037 356.406L211.773 356.968L211.798 356.976C212.673 357.389 213.408 357.843 213.986 358.33L214.382 357.859C213.755 357.331 212.97 356.844 212.054 356.415Z" fill="#5B5B6C"/>
<path d="M215.661 359.322L215.125 359.636C215.331 359.991 215.471 360.354 215.537 360.717C215.612 361.138 215.587 361.568 215.471 361.972L216.066 362.146C216.214 361.642 216.239 361.122 216.148 360.61C216.066 360.172 215.901 359.743 215.661 359.322Z" fill="#5B5B6C"/>
<path d="M209.106 365.093C208.685 365.192 208.256 365.291 207.818 365.399L207.967 366.001C208.404 365.894 208.834 365.795 209.255 365.696C209.717 365.588 210.163 365.481 210.584 365.382L210.436 364.779C210.014 364.878 209.569 364.986 209.106 365.093Z" fill="#5B5B6C"/>
<path d="M203.408 366.562L203.59 367.156C204.358 366.925 205.2 366.694 206.166 366.446L206.009 365.843C205.035 366.091 204.184 366.33 203.408 366.562Z" fill="#5B5B6C"/>
<path d="M199.115 368.207L199.404 368.752C200.064 368.405 200.882 368.058 201.831 367.72L201.625 367.133C200.634 367.497 199.817 367.843 199.115 368.207Z" fill="#5B5B6C"/>
<path d="M199.552 346.144C199.081 345.714 198.611 345.285 198.14 344.855L197.727 345.318C198.198 345.747 198.668 346.177 199.139 346.598L199.717 347.118L200.13 346.655L199.552 346.144Z" fill="#5B5B6C"/>
<path d="M201.088 348.372C201.765 348.983 202.434 349.585 203.087 350.172L203.499 349.709C202.847 349.123 202.178 348.52 201.501 347.909L201.088 348.372Z" fill="#5B5B6C"/>
<path d="M206.918 352.69C206.298 352.17 205.63 351.592 204.887 350.939L204.482 351.402C205.233 352.062 205.894 352.632 206.521 353.161L206.918 352.69Z" fill="#5B5B6C"/>
<path d="M196.754 343.608C196.076 342.997 195.408 342.403 194.747 341.816L194.334 342.279C194.995 342.865 195.664 343.46 196.332 344.071L196.754 343.608Z" fill="#5B5B6C"/>
<path d="M199.775 309.374C199.775 309.374 170.463 318.919 154.634 314.641C153.454 314.319 143.826 312.371 143.826 312.371C143.826 312.371 149.259 291.745 147.74 278.047C147.344 274.414 146.485 267.246 143.917 260.74C143 258.412 142.059 256.042 141.134 253.738C138.385 246.918 135.825 240.7 134.694 237.976C137.047 236.349 138.971 235.928 139.417 235.845C139.483 235.837 139.508 235.837 139.508 235.837C142.109 235.399 145.428 234.714 148.97 233.649H148.978C153.536 232.262 158.466 230.247 162.735 227.308L166.698 225.103L170.859 222.783C170.859 222.783 175.979 224.632 181.296 232.229C179.926 233.855 178.456 235.358 176.879 236.654C179.224 238.124 181.181 238.818 181.181 238.818C182.196 238.248 183.154 237.546 184.062 236.729C187.431 242.971 190.519 251.872 192.03 264.464C193.393 275.9 195.795 289.243 197.571 298.4C198.834 304.964 199.775 309.374 199.775 309.374Z" fill="#FF8000"/>
<path d="M156.823 238.47C151.39 238.008 150.143 235.415 148.979 233.648C153.537 232.261 158.466 230.246 162.735 227.307L165.336 225.845C166.079 225.845 167.912 227.216 167.912 229.957C167.912 233.648 164.048 239.089 156.823 238.47Z" fill="#2C2A40"/>
<path opacity="0.2" d="M174.204 246.322L183.741 242.053C183.741 242.053 191.156 253.192 185.112 255.372C178.613 257.708 174.204 246.322 174.204 246.322Z" fill="#2C2A40"/>
<path d="M164.023 200.257C164.023 200.257 168.028 197.227 166.385 191.141C166.385 191.141 165.039 193.453 163.817 193.685C163.817 193.685 166.913 185.304 157.451 180.639C157.451 180.639 158.557 185.246 157.434 186.782C157.434 186.782 154.932 181.448 151.233 180.35C151.233 180.35 151.786 189.688 145.998 191.579C141.87 192.925 136.527 197.722 135.058 205.608C135.058 205.608 132.655 204.914 131.763 205.855C131.763 205.855 134.835 206.376 135.264 208.332C135.264 208.332 133.976 207.68 133.002 208.506C133.002 208.506 135.173 208.952 135.512 210.653C135.85 212.354 144.074 225.35 149.037 227.513C153.991 229.693 164.023 200.257 164.023 200.257Z" fill="#2C2A40"/>
<path d="M151.183 229.499L151.844 233.313C152.009 234.279 152.727 235.072 153.677 235.32C161.884 237.458 165.501 232.355 165.914 230.382C164.857 229.961 146.056 222.356 142.976 215.14C142.976 215.14 144.958 224.833 151.183 229.499Z" fill="#F9B587"/>
<path d="M166.401 208.245C167.078 209.186 167.59 210.227 167.921 211.325C168.21 212.274 168.358 213.265 168.358 214.264L168.391 220.928C168.4 223.405 166.831 225.618 164.486 226.419C161.794 227.335 158.029 228.12 154.173 227.277C146.89 225.692 143.406 216.874 143.406 216.874C143.406 216.874 140.367 207.725 146.477 201.417C150.705 197.049 156.386 196.19 159.474 196.074C160.795 196.025 162.042 196.718 162.686 197.874L165.022 202.052C165.204 202.383 165.377 202.721 165.518 203.068C166.013 204.232 166.294 205.479 166.335 206.759L166.401 208.245Z" fill="#F9B587"/>
<path d="M157.748 203.992C157.748 203.992 151.968 201.548 150.531 206.353L151.423 207.088C151.423 207.088 153.338 203.414 157.946 205.263L157.748 203.992Z" fill="#2C2A40"/>
<path d="M166.402 208.245C167.079 209.186 167.591 210.227 167.921 211.325C166.773 211.036 164.758 211.218 161.323 213.133C161.323 213.133 162.653 210.788 164.585 209.987C165.105 209.773 165.27 209.12 164.907 208.683L162.521 205.784C162.521 205.784 162.653 204.967 163.379 204.397C163.825 204.05 164.75 203.473 165.535 203.076C166.03 204.24 166.311 205.487 166.352 206.767L166.402 208.245Z" fill="#F3AA79"/>
<path d="M164.948 202.143C163.577 202.787 162.595 203.637 162.595 203.637L162.892 204.769C163.767 204.034 164.609 203.571 165.386 203.299C165.774 203.158 165.972 202.754 165.823 202.415C165.823 202.415 165.823 202.407 165.815 202.407C165.683 202.102 165.295 201.978 164.948 202.143Z" fill="#2C2A40"/>
<path d="M166.764 214.074L156.46 217.03C156.46 217.03 159.705 221.943 164.931 219.738C169.035 218.005 166.764 214.074 166.764 214.074Z" fill="white"/>
<path d="M163.824 226.476C163.824 226.476 157.368 228.12 150.688 220.845C150.688 220.845 150.39 224.61 153.974 228.45C157.557 232.289 165.914 230.382 165.914 230.382L163.824 226.476Z" fill="#F3AA79"/>
<path d="M145.387 214.421C145.387 214.421 142.117 211.589 140.012 214.264C137.906 216.939 142.621 224.486 145.99 221.406C149.35 218.326 145.387 214.421 145.387 214.421Z" fill="#F9B587"/>
<path d="M157.748 207.623C157.748 207.623 156.468 206.079 154.883 206.69C152.563 207.582 152.885 209.72 152.885 209.72C152.885 209.72 153.925 205.749 157.748 207.623Z" fill="#2C2A40"/>
<path d="M163.445 206.823C163.445 206.823 164.295 204.297 166.145 206.229C166.145 206.229 164.493 205.172 163.445 206.823Z" fill="#2C2A40"/>
<path d="M144.123 204.156C144.123 204.156 146.633 207.186 144.594 210.348L146.699 215.203L144.519 215.765L142.703 213.073L141.299 206.121C141.299 206.112 142.992 202.934 144.123 204.156Z" fill="#2C2A40"/>
<path d="M197.134 208.952C197.134 208.952 196.87 210.273 196.325 212.37C194.549 219.141 189.785 233.995 181.181 238.817C181.181 238.817 179.224 238.123 176.879 236.654C173.255 234.383 168.713 230.279 169.126 224.07C169.126 224.07 176.508 211.808 179.637 203.18C179.926 202.395 180.174 201.636 180.38 200.917L194.103 207.498L197.134 208.952Z" fill="#FF8000"/>
<path d="M197.133 208.952C197.133 208.952 196.869 210.273 196.324 212.37C193.104 209.876 182.873 204.773 179.637 203.18C179.926 202.395 180.173 201.636 180.38 200.917L194.103 207.498L197.133 208.952Z" fill="#2C2A40"/>
<path opacity="0.2" d="M197.133 208.954C197.133 208.954 193.252 228.465 184.062 236.73C183.154 235.046 182.221 233.551 181.296 232.23C188.29 223.891 192.575 212.166 194.103 207.5L197.133 208.954Z" fill="#2C2A40"/>
<path d="M145.304 248.718C145.048 250.336 144.735 251.443 144.735 251.443L143.917 260.74L142.992 269.69L142.728 272.283C141.168 274.471 135.883 274.669 130.888 274.306V274.298C125.644 273.918 120.715 272.911 120.715 272.911C120.715 272.911 120.847 271.903 121.144 270.178C121.855 266.016 123.531 257.66 126.685 249.089C128.898 243.095 132.06 239.784 134.694 237.975C137.047 236.349 138.971 235.928 139.417 235.845C139.483 235.837 139.508 235.837 139.508 235.837C146.295 236.473 145.981 244.416 145.304 248.718Z" fill="#FF8000"/>
<path d="M142.992 269.69L142.728 272.283C141.168 274.471 135.883 274.669 130.888 274.306V274.297C125.644 273.918 120.715 272.91 120.715 272.91C120.715 272.91 120.847 271.903 121.144 270.177C123.333 270.755 128.543 271.506 133.175 271.564C138.385 271.63 141.407 270.4 142.992 269.69Z" fill="#2C2A40"/>
<path d="M163.899 226.655C163.899 226.655 174.616 225.02 181.42 231.073C188.232 237.133 194.986 249.841 190.874 257.462L192.542 268.51C192.542 268.51 203.747 250.906 191.725 233.847C183.633 222.37 173.287 222.089 168.06 222.865C167.49 224.5 166.211 225.731 164.51 226.317L163.899 226.655Z" fill="#2C2A40"/>
<path d="M138.054 236.225C138.054 236.225 141.126 229.215 146.84 230.024C152.562 230.833 169.687 254.101 166.062 271.21C162.437 288.318 147.633 290.143 147.633 290.143C147.633 290.143 144.767 285.8 147.988 281.762C147.988 281.762 157.714 279.376 160.34 268.237C162.966 257.099 149.73 234.499 144.866 233.806C143.116 233.558 141.803 235.416 141.803 235.416C141.803 235.416 139.747 235.977 138.054 236.225Z" fill="#2C2A40"/>
<path opacity="0.2" d="M199.775 309.373C199.775 309.373 170.455 318.918 154.635 314.641C153.454 314.319 143.826 312.378 143.826 312.378C143.826 312.378 149.268 291.744 147.748 278.046C147.344 274.413 146.485 267.246 143.925 260.739L142.736 272.291C141.176 274.471 135.891 274.677 130.896 274.305C130.896 274.305 138.872 270.061 139.731 260.525C139.978 257.75 140.515 255.521 141.143 253.746C142.678 249.427 144.784 247.85 144.784 247.85C144.784 247.85 144.982 248.164 145.304 248.725C146.856 251.384 151.365 259.575 151.885 266.181C152.529 274.173 155.056 291.191 167.392 301.273C174.253 306.879 197.183 306.004 197.546 298.63C197.546 298.556 197.554 298.482 197.563 298.408C198.834 304.964 199.775 309.373 199.775 309.373Z" fill="#2C2A40"/>
</svg>
