<svg width="34" height="34" viewBox="0 0 34 34" fill="none" xmlns="http://www.w3.org/2000/svg">
<path d="M31.9991 24.4608V28.977C32.0008 29.3962 31.9147 29.8112 31.7464 30.1954C31.5781 30.5795 31.3313 30.9243 31.0218 31.2078C30.7122 31.4912 30.3467 31.707 29.9488 31.8413C29.5508 31.9756 29.1292 32.0255 28.7108 31.9878C24.0692 31.4844 19.6106 29.9015 15.6934 27.3662C12.0488 25.0549 8.95889 21.9711 6.64301 18.3338C4.09379 14.4065 2.50736 9.93512 2.01224 5.28192C1.97455 4.86563 2.02412 4.44607 2.1578 4.04994C2.29149 3.65381 2.50635 3.28981 2.78871 2.9811C3.07108 2.67239 3.41475 2.42574 3.79786 2.25685C4.18097 2.08796 4.59512 2.00054 5.01394 2.00015H9.53912C10.2712 1.99296 10.9808 2.25167 11.5359 2.72806C12.0909 3.20445 12.4534 3.86601 12.5559 4.58944C12.7469 6.03473 13.1011 7.45381 13.6118 8.81962C13.8147 9.35844 13.8586 9.94403 13.7383 10.507C13.618 11.07 13.3386 11.5867 12.933 11.996L11.0173 13.9079C13.1646 17.6767 16.2914 20.7973 20.0677 22.9403L21.9833 21.0284C22.3935 20.6237 22.9112 20.3448 23.4753 20.2247C24.0394 20.1046 24.6262 20.1485 25.1661 20.351C26.5346 20.8607 27.9565 21.2142 29.4046 21.4048C30.1374 21.508 30.8065 21.8763 31.2849 22.4398C31.7633 23.0032 32.0174 23.7225 31.9991 24.4608Z" stroke="#FF8000" stroke-width="3" stroke-linecap="round" stroke-linejoin="round"/>
</svg>
