<svg width="34" height="40" viewBox="0 0 34 40" fill="none" xmlns="http://www.w3.org/2000/svg">
<path d="M31.9989 16.6674C31.9989 28.3337 16.9995 38.3333 16.9995 38.3333C16.9995 38.3333 2 28.3337 2 16.6674C2 12.6893 3.5803 8.87416 6.39324 6.06121C9.20619 3.24826 13.0214 1.66797 16.9995 1.66797C20.9776 1.66797 24.7927 3.24826 27.6057 6.06121C30.4186 8.87416 31.9989 12.6893 31.9989 16.6674Z" stroke="#FF8000" stroke-width="3" stroke-linecap="round" stroke-linejoin="round"/>
<path d="M16.9998 21.6666C19.7611 21.6666 21.9996 19.4281 21.9996 16.6668C21.9996 13.9055 19.7611 11.667 16.9998 11.667C14.2385 11.667 12 13.9055 12 16.6668C12 19.4281 14.2385 21.6666 16.9998 21.6666Z" stroke="#FF8000" stroke-width="3" stroke-linecap="round" stroke-linejoin="round"/>
</svg>
