<svg width="15" height="23" viewBox="0 0 15 23" fill="none" xmlns="http://www.w3.org/2000/svg">
<path d="M1 21.6818H14M1 1H4.54545M14 1H4.54545M4.54545 1C1.2848 4.26066 2.52224 5.52215 6.87886 10.3002C7.56833 11.0564 7.56858 12.2166 6.87854 12.9722C2.51843 17.7468 1.23734 18.9646 3.95455 21.6818M10.4545 1C13.7152 4.26066 12.4778 5.52215 8.12114 10.3002C7.43167 11.0564 7.43141 12.2166 8.12146 12.9722C12.4816 17.7468 13.7627 18.9646 11.0455 21.6818" stroke="#FF8000" stroke-width="1.5" stroke-linecap="round"/>
<path d="M9.38738 19.3179H6.07098C5.67163 19.3179 5.43343 18.8728 5.65495 18.5406L7.12891 16.3296C7.3143 16.0515 7.71508 16.0301 7.92904 16.2869L9.77149 18.4978C10.0429 18.8235 9.8113 19.3179 9.38738 19.3179Z" fill="#FF8000"/>
</svg>
