<svg width="82" height="64" viewBox="0 0 82 64" fill="none" xmlns="http://www.w3.org/2000/svg">
<path d="M73.7925 45.9235C86.351 28.8662 82.5121 13.7453 75.4365 3.56957C70.6319 -3.34007 62.0146 1.42482 55.2692 4.19661C47.7352 7.29245 37.9828 5.39619 32.2949 3.22446C20.3571 1.40517 -2.76042 4.50857 0.271392 31.4764C4.06115 65.1863 50.8644 77.065 73.7925 45.9235Z" fill="#17A2B8"/>
<path d="M28.5 30.5V42.955C28.5 43.6097 28.8146 44.2285 29.3783 44.5615C33.5848 47.0461 42.5604 49.7711 51.565 44.5691C52.1555 44.2279 52.5 43.5874 52.5 42.9055V30.5M59.25 27.5L40.5 35L17.5 26L40.5 18L63 26L59.25 27.5ZM59.25 27.5V35M59.25 35L62 41.5L59.25 45.5L56.5 41.5L59.25 35Z" stroke="white" stroke-width="3"/>
</svg>
