<svg width="82" height="64" viewBox="0 0 82 64" fill="none" xmlns="http://www.w3.org/2000/svg">
<path d="M73.7925 45.9235C86.351 28.8662 82.5121 13.7453 75.4365 3.56957C70.6319 -3.34007 62.0146 1.42482 55.2692 4.19661C47.7352 7.29245 37.9828 5.39619 32.2949 3.22446C20.3571 1.40517 -2.76042 4.50857 0.271392 31.4764C4.06115 65.1863 50.8644 77.065 73.7925 45.9235Z" fill="#8019B0"/>
<circle cx="40.9969" cy="24.3573" r="5.92857" stroke="white" stroke-width="3"/>
<path d="M28 40.7852V45.4994C28 47.1563 29.3431 48.4994 31 48.4994H51C52.6569 48.4994 54 47.1563 54 45.4994V40.7852C54 35.8146 49.9706 31.7852 45 31.7852H37C32.0294 31.7852 28 35.8146 28 40.7852Z" stroke="white" stroke-width="3"/>
</svg>
