<svg width="82" height="64" viewBox="0 0 82 64" fill="none" xmlns="http://www.w3.org/2000/svg">
<path d="M73.7925 45.9235C86.351 28.8662 82.5121 13.7453 75.4365 3.56957C70.6319 -3.34007 62.0146 1.42482 55.2692 4.19661C47.7352 7.29245 37.9828 5.39619 32.2949 3.22446C20.3571 1.40517 -2.76042 4.50857 0.271392 31.4764C4.06115 65.1863 50.8644 77.065 73.7925 45.9235Z" fill="#FF8000"/>
<path d="M24.1819 32.1523C24.6388 27.8494 26.6737 23.8682 29.8937 20.9776C33.1137 18.0869 37.2905 16.4917 41.6176 16.5C45.9448 16.5083 50.1154 18.1195 53.3243 21.0224C56.5332 23.9254 58.5529 27.9143 58.9932 32.219" stroke="white" stroke-width="3"/>
<path d="M24.1819 37.8477C24.6388 42.1506 26.6737 46.1318 29.8937 49.0224C33.1137 51.9131 37.2905 53.5083 41.6176 53.5C45.9448 53.4917 50.1154 51.8805 53.3243 48.9776C56.5332 46.0746 58.5529 42.0857 58.9932 37.781" stroke="white" stroke-width="3"/>
<path d="M60.7145 34.9616L62.0494 42.8692L54.0834 39.4717L60.7145 34.9616Z" fill="white"/>
<path d="M22.3302 34.5371L21.9552 26.5264L29.4552 30.8565L22.3302 34.5371Z" fill="white"/>
<path d="M47.0838 30.7778H37.1393V35.5H46.0282V40.2222H36.0841M41.5838 28V30.5M41.5838 43V40.7778" stroke="white" stroke-width="2"/>
</svg>
