<svg width="82" height="64" viewBox="0 0 82 64" fill="none" xmlns="http://www.w3.org/2000/svg">
<path d="M73.7925 45.9235C86.351 28.8662 82.5121 13.7453 75.4365 3.56957C70.6319 -3.34007 62.0146 1.42482 55.2692 4.19661C47.7352 7.29245 37.9828 5.39619 32.2949 3.22446C20.3571 1.40517 -2.76042 4.50857 0.271392 31.4764C4.06115 65.1863 50.8644 77.065 73.7925 45.9235Z" fill="#1D4C8C"/>
<rect x="28" y="38.6672" width="25" height="6.66667" rx="1" stroke="white" stroke-width="3"/>
<path d="M30.5 37.8333V22.5C30.5 20.8431 31.8431 19.5 33.5 19.5H48.3333C49.9902 19.5 51.3333 20.8431 51.3333 22.5V37.8333M40.5 45.3333V54.5M40.5 54.5H46.5M40.5 54.5H34.5" stroke="white" stroke-width="3"/>
</svg>
