<svg width="35" height="40" viewBox="0 0 35 40" fill="none" xmlns="http://www.w3.org/2000/svg">
<path d="M2 14.8334L17.5 2.77783L33 14.8334V33.7778C33 34.6914 32.6371 35.5675 31.9911 36.2134C31.3452 36.8594 30.4691 37.2223 29.5556 37.2223H5.44444C4.53092 37.2223 3.65481 36.8594 3.00885 36.2134C2.3629 35.5675 2 34.6914 2 33.7778V14.8334Z" stroke="#000C2E" stroke-width="4" stroke-linecap="round" stroke-linejoin="round"/>
<path d="M17.1209 26.9445C17.4361 26.9445 17.7334 26.9107 18.0129 26.8429C18.2983 26.7689 18.5451 26.6611 18.7532 26.5194C18.9673 26.3715 19.1368 26.1898 19.2616 25.9741C19.3865 25.7585 19.449 25.5059 19.449 25.2163C19.449 24.8651 19.3627 24.5662 19.1903 24.3198C19.0178 24.0733 18.7919 23.8546 18.5124 23.6636C18.2329 23.4726 17.9118 23.3001 17.5491 23.146C17.1923 22.9858 16.8266 22.8226 16.4519 22.6562C16.0833 22.4898 15.7175 22.3081 15.3548 22.1109C14.998 21.9076 14.6799 21.6673 14.4004 21.39C14.1209 21.1128 13.8949 20.7862 13.7225 20.4104C13.55 20.0345 13.4638 19.5847 13.4638 19.061C13.4638 18.5619 13.5441 18.106 13.7047 17.6932C13.8652 17.2742 14.0912 16.9076 14.3826 16.5933C14.6739 16.2791 15.0248 16.0173 15.4351 15.8078C15.8454 15.5921 16.3003 15.435 16.7998 15.3364V12H18.664V15.2255C18.8484 15.2317 19.0535 15.2471 19.2795 15.2717C19.5055 15.2964 19.7433 15.3303 19.9931 15.3734C20.2428 15.4104 20.4985 15.4596 20.7602 15.5213C21.0278 15.5829 21.2894 15.6506 21.5451 15.7246L21.1348 17.7116L20.9653 17.7948C20.668 17.6593 20.3736 17.5453 20.0823 17.4529C19.7968 17.3543 19.5233 17.2742 19.2616 17.2126C19 17.151 18.7562 17.1078 18.5302 17.0832C18.3043 17.0585 18.111 17.0462 17.9504 17.0462C17.665 17.0462 17.4004 17.0801 17.1566 17.1479C16.9187 17.2157 16.7106 17.3173 16.5322 17.4529C16.3598 17.5823 16.223 17.7455 16.1219 17.9427C16.0208 18.1337 15.9703 18.3555 15.9703 18.6081C15.9703 18.9532 16.0565 19.2489 16.2289 19.4954C16.4014 19.7357 16.6274 19.9544 16.9068 20.1516C17.1923 20.3426 17.5164 20.5182 17.8791 20.6784C18.2418 20.8324 18.6105 20.9957 18.9851 21.1682C19.3598 21.3346 19.7284 21.5163 20.0912 21.7135C20.4539 21.9107 20.775 22.1479 21.0545 22.4251C21.3399 22.6962 21.5689 23.0166 21.7413 23.3863C21.9138 23.756 22 24.1935 22 24.6987C22 25.1731 21.9227 25.6168 21.7681 26.0296C21.6135 26.4424 21.3935 26.8182 21.108 27.1571C20.8226 27.4898 20.4718 27.7794 20.0555 28.0259C19.6452 28.2662 19.1814 28.451 18.664 28.5804V32H16.7998V28.7652C16.5263 28.7652 16.2289 28.7468 15.9078 28.7098C15.5927 28.6667 15.2686 28.6081 14.9356 28.5342C14.6085 28.4603 14.2785 28.3709 13.9455 28.2662C13.6184 28.1553 13.3033 28.029 13 27.8872L13.4014 25.8909L13.5887 25.7985C14.2309 26.1374 14.8404 26.4147 15.4172 26.6303C16 26.8398 16.5679 26.9445 17.1209 26.9445Z" fill="#000C2E"/>
</svg>
