<svg width="50" height="50" viewBox="0 0 50 50" fill="none" xmlns="http://www.w3.org/2000/svg">
<g filter="url(#filter0_d_1065_458)">
<circle cx="25" cy="25" r="19" fill="white"/>
</g>
<path d="M28.8325 23.5688C28.8325 23.1297 28.4766 22.7738 28.0375 22.7738H19.8487C19.4096 22.7738 19.0537 23.1297 19.0537 23.5688C19.0537 24.0079 19.4096 24.3638 19.8487 24.3638H28.0375C28.4766 24.3638 28.8325 24.0079 28.8325 23.5688Z" fill="#000C2E"/>
<path d="M19.8487 25.9539C19.4096 25.9539 19.0537 26.3098 19.0537 26.7489C19.0537 27.188 19.4096 27.5439 19.8487 27.5439H24.822C25.2611 27.5439 25.6171 27.188 25.6171 26.7489C25.6171 26.3098 25.2611 25.9539 24.822 25.9539H19.8487Z" fill="#000C2E"/>
<path d="M21.7169 33.5861H19.058C18.1813 33.5861 17.468 32.8728 17.468 31.9961V18.0037C17.468 17.1269 18.1813 16.4137 19.058 16.4137H28.8324C29.7091 16.4137 30.4224 17.1269 30.4224 18.0037V22.8931C30.4224 23.3322 30.7784 23.6881 31.2174 23.6881C31.6565 23.6881 32.0125 23.3322 32.0125 22.8931V18.0037C32.0125 16.2502 30.5859 14.8236 28.8324 14.8236H19.058C17.3045 14.8236 15.8779 16.2502 15.8779 18.0037V31.9961C15.8779 33.7496 17.3045 35.1762 19.058 35.1762H21.7169C22.156 35.1762 22.512 34.8202 22.512 34.3812C22.512 33.9421 22.156 33.5861 21.7169 33.5861Z" fill="#000C2E"/>
<path d="M33.4202 26.3345C32.4903 25.4046 30.9772 25.4045 30.0479 26.3339L25.6831 30.689C25.5904 30.7815 25.522 30.8954 25.4839 31.0207L24.5334 34.1501C24.4491 34.4276 24.5225 34.7289 24.725 34.9364C24.8767 35.0919 25.0828 35.1763 25.2941 35.1763C25.3648 35.1763 25.4362 35.1668 25.5063 35.1474L28.7152 34.2585C28.8473 34.2219 28.9676 34.1518 29.0646 34.055L33.4203 29.7076C34.3502 28.7776 34.3502 27.2645 33.4202 26.3345ZM28.0893 32.782L26.4749 33.2292L26.9474 31.6738L29.8925 28.7352L31.0171 29.8597L28.0893 32.782ZM32.2965 28.5828L32.1425 28.7365L31.0181 27.6121L31.1716 27.4589C31.4816 27.1489 31.986 27.1489 32.296 27.4589C32.6059 27.7689 32.6059 28.2733 32.2965 28.5828Z" fill="#000C2E"/>
<path d="M28.0375 19.5938H19.8487C19.4096 19.5938 19.0537 19.9497 19.0537 20.3888C19.0537 20.8279 19.4096 21.1838 19.8487 21.1838H28.0375C28.4766 21.1838 28.8325 20.8279 28.8325 20.3888C28.8325 19.9497 28.4766 19.5938 28.0375 19.5938Z" fill="#000C2E"/>
<defs>
<filter id="filter0_d_1065_458" x="0" y="0" width="50" height="50" filterUnits="userSpaceOnUse" color-interpolation-filters="sRGB">
<feFlood flood-opacity="0" result="BackgroundImageFix"/>
<feColorMatrix in="SourceAlpha" type="matrix" values="0 0 0 0 0 0 0 0 0 0 0 0 0 0 0 0 0 0 127 0" result="hardAlpha"/>
<feOffset/>
<feGaussianBlur stdDeviation="3"/>
<feComposite in2="hardAlpha" operator="out"/>
<feColorMatrix type="matrix" values="0 0 0 0 0 0 0 0 0 0 0 0 0 0 0 0 0 0 0.1 0"/>
<feBlend mode="normal" in2="BackgroundImageFix" result="effect1_dropShadow_1065_458"/>
<feBlend mode="normal" in="SourceGraphic" in2="effect1_dropShadow_1065_458" result="shape"/>
</filter>
</defs>
</svg>
