<svg width="16" height="21" viewBox="0 0 16 21" fill="none" xmlns="http://www.w3.org/2000/svg">
<path d="M13.2336 11.4677V1.22115H1V16.4548H5.94797" stroke="#535968" stroke-width="1.5" stroke-miterlimit="22.926" stroke-linecap="round" stroke-linejoin="round"/>
<path d="M10.4682 20C13.0432 20 15.1435 17.8998 15.1435 15.3247C15.1435 12.7497 13.0432 10.6495 10.4682 10.6495C7.89317 10.6495 5.79297 12.7497 5.79297 15.3247C5.79297 17.8998 7.89317 20 10.4682 20Z" stroke="#535968" stroke-width="1.5" stroke-miterlimit="22.926" stroke-linecap="round" stroke-linejoin="round"/>
<path d="M10.2673 15.2468C10.9054 15.4729 11.6283 15.6472 11.6216 16.3989C11.6096 17.7423 9.35156 17.5925 9.35156 16.4031" stroke="#535968" stroke-miterlimit="22.926" stroke-linecap="round" stroke-linejoin="round"/>
<path d="M10.3322 15.271C9.80115 15.0834 9.30897 14.8565 9.3145 14.2356C9.32654 12.8922 11.5845 13.042 11.5845 14.2314" stroke="#535968" stroke-miterlimit="22.926" stroke-linecap="round" stroke-linejoin="round"/>
<path d="M10.498 17.3815V18.1611" stroke="#535968" stroke-miterlimit="22.926" stroke-linecap="round" stroke-linejoin="round"/>
<path d="M10.4355 12.4883V13.2678" stroke="#535968" stroke-miterlimit="22.926" stroke-linecap="round" stroke-linejoin="round"/>
<path d="M3.33594 3.55908H10.8941" stroke="#535968" stroke-miterlimit="22.926" stroke-linecap="round" stroke-linejoin="round"/>
<path d="M3.33594 5.89648H10.8941" stroke="#535968" stroke-miterlimit="22.926" stroke-linecap="round" stroke-linejoin="round"/>
<path d="M3.33594 8.23438H10.8941" stroke="#535968" stroke-miterlimit="22.926" stroke-linecap="round" stroke-linejoin="round"/>
<path d="M3.33594 10.5718H5.19552" stroke="#535968" stroke-miterlimit="22.926" stroke-linecap="round" stroke-linejoin="round"/>
</svg>
