<svg width="37" height="47" viewBox="0 0 37 47" fill="none" xmlns="http://www.w3.org/2000/svg">
<path d="M30.1232 25.3854V1.83003H2V36.85H13.3747" stroke="#000C2E" stroke-width="3" stroke-miterlimit="22.926" stroke-linecap="round" stroke-linejoin="round"/>
<path d="M23.7643 45C29.6839 45 34.512 40.1719 34.512 34.2523C34.512 28.3326 29.6839 23.5046 23.7643 23.5046C17.8446 23.5046 13.0166 28.3326 13.0166 34.2523C13.0166 40.1719 17.8446 45 23.7643 45Z" stroke="#000C2E" stroke-width="3" stroke-miterlimit="22.926" stroke-linecap="round" stroke-linejoin="round"/>
<path d="M23.2995 34.0721C24.7664 34.5919 26.4283 34.9926 26.4128 36.7205C26.3851 39.8088 21.1943 39.4645 21.1943 36.7302" stroke="#000C2E" stroke-width="2" stroke-miterlimit="22.926" stroke-linecap="round" stroke-linejoin="round"/>
<path d="M23.4519 34.129C22.2312 33.6979 21.0997 33.1761 21.1124 31.7489C21.1401 28.6606 26.3309 29.0049 26.3309 31.7392" stroke="#000C2E" stroke-width="2" stroke-miterlimit="22.926" stroke-linecap="round" stroke-linejoin="round"/>
<path d="M23.833 38.9809V40.7731" stroke="#000C2E" stroke-width="2" stroke-miterlimit="22.926" stroke-linecap="round" stroke-linejoin="round"/>
<path d="M23.6924 27.7317V29.5238" stroke="#000C2E" stroke-width="2" stroke-miterlimit="22.926" stroke-linecap="round" stroke-linejoin="round"/>
<path d="M7.37402 7.2041H24.749" stroke="#000C2E" stroke-width="3" stroke-miterlimit="22.926" stroke-linecap="round" stroke-linejoin="round"/>
<path d="M7.37402 12.5778H24.749" stroke="#000C2E" stroke-width="3" stroke-miterlimit="22.926" stroke-linecap="round" stroke-linejoin="round"/>
<path d="M7.37402 17.9518H24.749" stroke="#000C2E" stroke-width="3" stroke-miterlimit="22.926" stroke-linecap="round" stroke-linejoin="round"/>
<path d="M7.37402 23.3256H11.6489" stroke="#000C2E" stroke-width="3" stroke-miterlimit="22.926" stroke-linecap="round" stroke-linejoin="round"/>
</svg>
