<svg width="20" height="25" viewBox="0 0 20 25" fill="none" xmlns="http://www.w3.org/2000/svg">
<path d="M16.1276 13.6706V1H1V19.8374H7.11848" stroke="#15234A" stroke-width="1.5" stroke-miterlimit="22.926" stroke-linecap="round" stroke-linejoin="round"/>
<path d="M12.707 24.2213C15.8912 24.2213 18.4883 21.6242 18.4883 18.44C18.4883 15.2558 15.8912 12.6588 12.707 12.6588C9.52281 12.6588 6.92578 15.2558 6.92578 18.44C6.92578 21.6242 9.52281 24.2213 12.707 24.2213Z" stroke="#15234A" stroke-width="1.5" stroke-miterlimit="22.926" stroke-linecap="round" stroke-linejoin="round"/>
<path d="M12.4575 18.3432C13.2466 18.6227 14.1406 18.8383 14.1322 19.7678C14.1173 21.429 11.3252 21.2438 11.3252 19.773" stroke="#15234A" stroke-width="1.5" stroke-miterlimit="22.926" stroke-linecap="round" stroke-linejoin="round"/>
<path d="M12.5388 18.3737C11.8821 18.1418 11.2735 17.8611 11.2803 17.0934C11.2952 15.4323 14.0874 15.6174 14.0874 17.0882" stroke="#15234A" stroke-width="1.5" stroke-miterlimit="22.926" stroke-linecap="round" stroke-linejoin="round"/>
<path d="M12.7441 20.9835V21.9476" stroke="#15234A" stroke-width="1.5" stroke-miterlimit="22.926" stroke-linecap="round" stroke-linejoin="round"/>
<path d="M12.668 14.9326V15.8965" stroke="#15234A" stroke-width="1.5" stroke-miterlimit="22.926" stroke-linecap="round" stroke-linejoin="round"/>
<path d="M3.89062 3.89066H13.2367" stroke="#15234A" stroke-width="1.5" stroke-miterlimit="22.926" stroke-linecap="round" stroke-linejoin="round"/>
<path d="M3.89062 6.78125H13.2367" stroke="#15234A" stroke-width="1.5" stroke-miterlimit="22.926" stroke-linecap="round" stroke-linejoin="round"/>
<path d="M3.89062 9.67191H13.2367" stroke="#15234A" stroke-width="1.5" stroke-miterlimit="22.926" stroke-linecap="round" stroke-linejoin="round"/>
<path d="M3.89062 12.5625H6.19011" stroke="#15234A" stroke-width="1.5" stroke-miterlimit="22.926" stroke-linecap="round" stroke-linejoin="round"/>
</svg>
