<svg width="50" height="50" viewBox="0 0 50 50" fill="none" xmlns="http://www.w3.org/2000/svg">
<g filter="url(#filter0_d_1065_344)">
<circle cx="25" cy="25" r="19" fill="white"/>
</g>
<path d="M32.2 20.6H17.8C16.8059 20.6 16 21.4059 16 22.4V31.4C16 32.3941 16.8059 33.2 17.8 33.2H32.2C33.1941 33.2 34 32.3941 34 31.4V22.4C34 21.4059 33.1941 20.6 32.2 20.6Z" stroke="#000C2E" stroke-width="1.5" stroke-linecap="round" stroke-linejoin="round"/>
<path d="M28.6004 20.6V18.8C28.6004 18.3226 28.4107 17.8648 28.0732 17.5272C27.7356 17.1896 27.2778 17 26.8004 17H23.2004C22.723 17 22.2652 17.1896 21.9276 17.5272C21.59 17.8648 21.4004 18.3226 21.4004 18.8V20.6" stroke="#000C2E" stroke-width="1.5" stroke-linecap="round" stroke-linejoin="round"/>
<defs>
<filter id="filter0_d_1065_344" x="0" y="0" width="50" height="50" filterUnits="userSpaceOnUse" color-interpolation-filters="sRGB">
<feFlood flood-opacity="0" result="BackgroundImageFix"/>
<feColorMatrix in="SourceAlpha" type="matrix" values="0 0 0 0 0 0 0 0 0 0 0 0 0 0 0 0 0 0 127 0" result="hardAlpha"/>
<feOffset/>
<feGaussianBlur stdDeviation="3"/>
<feComposite in2="hardAlpha" operator="out"/>
<feColorMatrix type="matrix" values="0 0 0 0 0 0 0 0 0 0 0 0 0 0 0 0 0 0 0.1 0"/>
<feBlend mode="normal" in2="BackgroundImageFix" result="effect1_dropShadow_1065_344"/>
<feBlend mode="normal" in="SourceGraphic" in2="effect1_dropShadow_1065_344" result="shape"/>
</filter>
</defs>
</svg>
