<svg width="50" height="50" viewBox="0 0 50 50" fill="none" xmlns="http://www.w3.org/2000/svg">
<g filter="url(#filter0_d_1065_337)">
<circle cx="25" cy="25" r="19" fill="white"/>
</g>
<path d="M25 33C23.303 30.6379 17.6263 31.0834 15 31.6014V18.6173C15 18.1056 15.2979 17.6384 15.7729 17.4971C18.5958 16.6576 22.5116 17.0325 24.2917 17.518C24.7372 17.6395 25 18.0724 25 18.5494M25 33V18.5494M25 33C26.697 30.6379 32.3737 31.0834 35 31.6014V18.6173C35 18.1056 34.7021 17.6384 34.2271 17.4971C31.4042 16.6576 27.4884 17.0325 25.7083 17.518C25.2628 17.6395 25 18.0724 25 18.5494M17.5 22.3333H22.5M17.5 25.8889H22.5M27.5 22.3333H32.5M27.5 25.8889H32.5" stroke="#000C2E" stroke-width="1.5" stroke-linecap="round" stroke-linejoin="round"/>
<defs>
<filter id="filter0_d_1065_337" x="0" y="0" width="50" height="50" filterUnits="userSpaceOnUse" color-interpolation-filters="sRGB">
<feFlood flood-opacity="0" result="BackgroundImageFix"/>
<feColorMatrix in="SourceAlpha" type="matrix" values="0 0 0 0 0 0 0 0 0 0 0 0 0 0 0 0 0 0 127 0" result="hardAlpha"/>
<feOffset/>
<feGaussianBlur stdDeviation="3"/>
<feComposite in2="hardAlpha" operator="out"/>
<feColorMatrix type="matrix" values="0 0 0 0 0 0 0 0 0 0 0 0 0 0 0 0 0 0 0.1 0"/>
<feBlend mode="normal" in2="BackgroundImageFix" result="effect1_dropShadow_1065_337"/>
<feBlend mode="normal" in="SourceGraphic" in2="effect1_dropShadow_1065_337" result="shape"/>
</filter>
</defs>
</svg>
