<svg width="26" height="24" viewBox="0 0 26 24" fill="none" xmlns="http://www.w3.org/2000/svg">
<path d="M12.25 17.5C12.25 17.9142 12.5858 18.25 13 18.25C13.4142 18.25 13.75 17.9142 13.75 17.5H12.25ZM13 10.5L13.5303 9.96967C13.2374 9.67678 12.7626 9.67678 12.4697 9.96967L13 10.5ZM14.9697 13.5303C15.2626 13.8232 15.7374 13.8232 16.0303 13.5303C16.3232 13.2374 16.3232 12.7626 16.0303 12.4697L14.9697 13.5303ZM9.96967 12.4697C9.67678 12.7626 9.67678 13.2374 9.96967 13.5303C10.2626 13.8232 10.7374 13.8232 11.0303 13.5303L9.96967 12.4697ZM9 23.25H17V21.75H9V23.25ZM19 5.25H7V6.75H19V5.25ZM5.75 1.75H20.25V0.25H5.75V1.75ZM20.75 19.5V10.5H19.25V19.5H20.75ZM20.75 10.5V7H19.25V10.5H20.75ZM20.25 9.75H20V11.25H20.25V9.75ZM5.25 7V10.5H6.75V7H5.25ZM5.25 10.5V19.5H6.75V10.5H5.25ZM5.75 11.25H6V9.75H5.75V11.25ZM13.75 17.5V10.5H12.25V17.5H13.75ZM12.4697 11.0303L14.9697 13.5303L16.0303 12.4697L13.5303 9.96967L12.4697 11.0303ZM12.4697 9.96967L9.96967 12.4697L11.0303 13.5303L13.5303 11.0303L12.4697 9.96967ZM0.25 5.75C0.25 8.78757 2.71243 11.25 5.75 11.25V9.75C3.54086 9.75 1.75 7.95914 1.75 5.75H0.25ZM24.25 5.75C24.25 7.95914 22.4591 9.75 20.25 9.75V11.25C23.2876 11.25 25.75 8.78757 25.75 5.75H24.25ZM20.25 1.75C22.4591 1.75 24.25 3.54086 24.25 5.75H25.75C25.75 2.71243 23.2876 0.25 20.25 0.25V1.75ZM5.75 0.25C2.71243 0.25 0.25 2.71243 0.25 5.75H1.75C1.75 3.54086 3.54086 1.75 5.75 1.75V0.25ZM19 6.75C19.1381 6.75 19.25 6.86193 19.25 7H20.75C20.75 6.0335 19.9665 5.25 19 5.25V6.75ZM17 23.25C19.0711 23.25 20.75 21.5711 20.75 19.5H19.25C19.25 20.7426 18.2426 21.75 17 21.75V23.25ZM9 21.75C7.75736 21.75 6.75 20.7426 6.75 19.5H5.25C5.25 21.5711 6.92893 23.25 9 23.25V21.75ZM7 5.25C6.0335 5.25 5.25 6.0335 5.25 7H6.75C6.75 6.86193 6.86193 6.75 7 6.75V5.25Z" fill="#17A2B8"/>
</svg>
