<svg width="46" height="42" viewBox="0 0 46 42" fill="none" xmlns="http://www.w3.org/2000/svg">
<path d="M21.5 31.1628C21.5 31.9912 22.1716 32.6628 23 32.6628C23.8284 32.6628 24.5 31.9912 24.5 31.1628H21.5ZM23 18.7907L24.0659 17.7353C23.7842 17.4508 23.4004 17.2907 23 17.2907C22.5996 17.2907 22.2158 17.4508 21.9341 17.7353L23 18.7907ZM26.3091 24.2647C26.892 24.8534 27.8417 24.8581 28.4304 24.2752C29.0191 23.6923 29.0238 22.7426 28.4409 22.1539L26.3091 24.2647ZM17.5591 22.1539C16.9762 22.7426 16.9809 23.6923 17.5696 24.2752C18.1583 24.8581 19.108 24.8534 19.6909 24.2647L17.5591 22.1539ZM13.75 41.5H32.25V38.5H13.75V41.5ZM34.25 9.33721H11.75V12.3372H34.25V9.33721ZM7 3.5H39V0.5H7V3.5ZM42.5 7V13.7907H45.5V7H42.5ZM36.75 37V18.7907H33.75V37H36.75ZM36.75 18.7907V11.8372H33.75V18.7907H36.75ZM39 17.2907H35.25V20.2907H39V17.2907ZM0.5 7V13.7907H3.5V7H0.5ZM9.25 11.8372V18.7907H12.25V11.8372H9.25ZM9.25 18.7907V37H12.25V18.7907H9.25ZM7 20.2907H10.75V17.2907H7V20.2907ZM24.5 31.1628V18.7907H21.5V31.1628H24.5ZM21.9341 19.8461L26.3091 24.2647L28.4409 22.1539L24.0659 17.7353L21.9341 19.8461ZM21.9341 17.7353L17.5591 22.1539L19.6909 24.2647L24.0659 19.8461L21.9341 17.7353ZM0.5 13.7907C0.5 17.3806 3.41015 20.2907 7 20.2907V17.2907C5.067 17.2907 3.5 15.7237 3.5 13.7907H0.5ZM42.5 13.7907C42.5 15.7237 40.933 17.2907 39 17.2907V20.2907C42.5899 20.2907 45.5 17.3806 45.5 13.7907H42.5ZM39 3.5C40.933 3.5 42.5 5.067 42.5 7H45.5C45.5 3.41015 42.5899 0.5 39 0.5V3.5ZM7 0.5C3.41015 0.5 0.5 3.41015 0.5 7H3.5C3.5 5.067 5.067 3.5 7 3.5V0.5ZM34.25 12.3372C33.9739 12.3372 33.75 12.1134 33.75 11.8372H36.75C36.75 10.4565 35.6307 9.33721 34.25 9.33721V12.3372ZM32.25 41.5C34.7353 41.5 36.75 39.4853 36.75 37H33.75C33.75 37.8284 33.0784 38.5 32.25 38.5V41.5ZM13.75 38.5C12.9216 38.5 12.25 37.8284 12.25 37H9.25C9.25 39.4853 11.2647 41.5 13.75 41.5V38.5ZM11.75 9.33721C10.3693 9.33721 9.25 10.4565 9.25 11.8372H12.25C12.25 12.1134 12.0261 12.3372 11.75 12.3372V9.33721Z" fill="#000C2E"/>
</svg>
