<svg width="23" height="17" viewBox="0 0 23 17" fill="none" xmlns="http://www.w3.org/2000/svg">
<path d="M20.1142 0.085457C19.2149 0.085457 18.4493 0.666992 18.1724 1.47358L16.9499 1.47572V0.640928C16.9499 0.286965 16.6629 0 16.309 0H6.14812C5.79416 0 5.50719 0.286965 5.50719 0.640928V1.49554L4.29268 1.49721C4.02276 0.678358 3.25095 0.085457 2.34289 0.085457C1.21097 0.085457 0.290039 1.00638 0.290039 2.13831C0.290039 3.27023 1.21097 4.19116 2.34289 4.19116C3.25108 4.19116 4.02293 3.59808 4.29276 2.77911L5.50715 2.77744V13.7383C5.50715 13.9797 5.64281 14.2007 5.85808 14.3099L10.9385 16.8876C11.0296 16.9339 11.1291 16.957 11.2285 16.957C11.3279 16.957 11.4274 16.9339 11.5185 16.8876L16.5989 14.3099C16.8142 14.2007 16.9498 13.9797 16.9498 13.7383V2.75757L18.1562 2.75552C18.4189 3.5868 19.1972 4.1912 20.1142 4.1912C21.2461 4.1912 22.167 3.27027 22.167 2.13835C22.167 1.00643 21.2461 0.085457 20.1142 0.085457ZM2.34289 2.9093C1.91778 2.9093 1.57189 2.56341 1.57189 2.13831C1.57189 1.7132 1.91778 1.36731 2.34289 1.36731C2.76799 1.36731 3.11388 1.7132 3.11388 2.13831C3.11388 2.56341 2.76799 2.9093 2.34289 2.9093ZM15.668 13.3448L11.2285 15.5973L6.78905 13.3448V1.28186H15.668V13.3448ZM20.1142 2.9093C19.6891 2.9093 19.3432 2.56341 19.3432 2.13831C19.3432 1.7132 19.6891 1.36731 20.1142 1.36731C20.5393 1.36731 20.8852 1.7132 20.8852 2.13831C20.8852 2.56341 20.5393 2.9093 20.1142 2.9093Z" fill="#1D4C8C"/>
<path d="M9.87538 11.3844C10.2685 11.6357 10.7123 11.7633 11.1942 11.764H11.1984C11.6136 11.764 12.0034 11.6737 12.3569 11.4957C13.4721 10.9341 13.7062 10.0842 13.7062 9.47005V5.83531C13.7062 5.48134 13.4192 5.19438 13.0652 5.19438C12.7113 5.19438 12.4243 5.48134 12.4243 5.83531V9.47005C12.4243 9.72911 12.3511 10.0634 11.7804 10.3508C11.6049 10.4392 11.4145 10.4822 11.1984 10.4822C11.1976 10.4822 11.1968 10.4822 11.196 10.4822C10.9586 10.4818 10.7524 10.4237 10.5656 10.3042C10.1226 10.0213 10.0319 9.76761 10.0319 9.47385V5.83526C10.0319 5.4813 9.74489 5.19434 9.39093 5.19434C9.03696 5.19434 8.75 5.4813 8.75 5.83526V9.47385C8.75 10.2645 9.12862 10.9074 9.87538 11.3844Z" fill="#1D4C8C"/>
</svg>
