<svg width="540" height="395" viewBox="0 0 540 395" fill="none" xmlns="http://www.w3.org/2000/svg">
<path d="M523.854 5.71257V337.343C523.854 338.817 523.269 340.231 522.226 341.273C521.184 342.316 519.77 342.901 518.296 342.901H64.5088C63.7784 342.903 63.0548 342.76 62.3796 342.482C61.7044 342.203 61.0909 341.794 60.5744 341.277C60.0579 340.76 59.6485 340.147 59.3698 339.472C59.091 338.797 58.9485 338.073 58.9502 337.343V5.71257C58.9502 4.2371 59.5354 2.82186 60.5775 1.7773C61.6195 0.73274 63.0334 0.144146 64.5088 0.140625H518.296C519.166 0.141628 520.023 0.346697 520.799 0.739333C521.575 1.13197 522.248 1.70122 522.764 2.40132C523.479 3.35645 523.862 4.51938 523.854 5.71257Z" fill="#2E3062"/>
<path d="M523.856 5.71322V337.343C523.856 338.817 523.27 340.231 522.228 341.274C521.185 342.316 519.771 342.902 518.297 342.902H64.51C63.1419 342.905 61.8209 342.403 60.7998 341.492L522.765 2.38867C523.483 3.34743 523.866 4.51549 523.856 5.71322Z" fill="#001030"/>
<path d="M504.507 13.3593H78.3004C74.9146 13.3593 72.1699 16.104 72.1699 19.4898V323.553C72.1699 326.938 74.9146 329.683 78.3004 329.683H504.507C507.893 329.683 510.637 326.938 510.637 323.553V19.4898C510.637 16.104 507.893 13.3593 504.507 13.3593Z" fill="white"/>
<path d="M510.69 19.4887V40.7657H72.1692V19.4887C72.1622 18.6791 72.3155 17.8762 72.6205 17.1263C72.9254 16.3764 73.3759 15.6943 73.9458 15.1193C74.5158 14.5444 75.194 14.0881 75.9413 13.7767C76.6885 13.4653 77.4901 13.305 78.2996 13.305H504.506C505.32 13.2979 506.128 13.453 506.881 13.7613C507.634 14.0695 508.319 14.5247 508.895 15.1003C509.47 15.676 509.925 16.3605 510.234 17.1139C510.542 17.8673 510.697 18.6746 510.69 19.4887Z" fill="#E8E8F9"/>
<path d="M146.493 27.8146C146.493 28.2931 146.587 28.7669 146.771 29.209C146.954 29.6511 147.222 30.0528 147.56 30.3911C147.899 30.7295 148.3 30.9979 148.742 31.181C149.185 31.3641 149.658 31.4583 150.137 31.4583H469.745C470.224 31.4583 470.698 31.3641 471.14 31.181C471.582 30.9979 471.983 30.7295 472.322 30.3911C472.66 30.0528 472.928 29.6511 473.112 29.209C473.295 28.7669 473.389 28.2931 473.389 27.8146C473.389 26.8483 473.005 25.9215 472.322 25.2381C471.638 24.5548 470.712 24.1709 469.745 24.1709H150.137C149.17 24.1709 148.244 24.5548 147.56 25.2381C146.877 25.9215 146.493 26.8483 146.493 27.8146Z" fill="white"/>
<path d="M96.5438 27.8136V30.4732C96.5446 30.6493 96.4988 30.8225 96.4109 30.9751C96.3231 31.1278 96.1964 31.2545 96.0438 31.3423C95.8911 31.4301 95.7179 31.4759 95.5418 31.4751C95.3657 31.4743 95.193 31.4268 95.0411 31.3376L92.7006 30.0078L90.3602 28.678C90.2051 28.5914 90.0759 28.4651 89.986 28.312C89.8961 28.1589 89.8486 27.9845 89.8486 27.8069C89.8486 27.6293 89.8961 27.455 89.986 27.3019C90.0759 27.1487 90.2051 27.0224 90.3602 26.9359L92.7006 25.6061L95.0411 24.2763C95.1939 24.1864 95.3679 24.1389 95.5452 24.1387C95.7224 24.1384 95.8966 24.1854 96.0496 24.2748C96.2027 24.3642 96.3292 24.4928 96.416 24.6473C96.5029 24.8018 96.547 24.9767 96.5438 25.1539V27.8136Z" fill="#2E3062"/>
<path d="M108.713 27.8133V30.473C108.715 30.6495 108.763 30.8224 108.852 30.9745C108.942 31.1266 109.07 31.2527 109.223 31.3401C109.376 31.4275 109.55 31.4733 109.726 31.4728C109.903 31.4723 110.076 31.4256 110.229 31.3374L112.569 30.0075L114.91 28.6777C115.062 28.5885 115.187 28.4612 115.275 28.3084C115.362 28.1556 115.408 27.9827 115.408 27.8067C115.408 27.6307 115.362 27.4578 115.275 27.305C115.187 27.1522 115.062 27.0249 114.91 26.9357L112.569 25.6058L110.229 24.276C110.075 24.1872 109.901 24.1405 109.723 24.1406C109.545 24.1407 109.371 24.1876 109.217 24.2766C109.063 24.3656 108.936 24.4935 108.847 24.6475C108.759 24.8015 108.712 24.9761 108.713 25.1537V27.8133Z" fill="#2E3062"/>
<path d="M152.551 104.457C162.329 104.457 167.24 99.5909 167.24 93.8233C167.24 82.1979 149.802 85.352 149.802 81.567C149.802 80.4856 150.794 79.5844 153.903 79.5844C156.651 79.5844 159.58 80.3504 162.689 81.9275L165.889 74.2223C162.599 72.3748 158.228 71.4736 153.993 71.4736C144.215 71.4736 139.303 76.25 139.303 82.1077C139.303 93.8683 156.741 90.6691 156.741 94.6343C156.741 95.7158 155.66 96.3466 152.641 96.3466C149.171 96.3466 145.206 95.2201 142.232 93.4628L138.808 101.213C141.962 103.151 147.279 104.457 152.551 104.457Z" fill="#524E84"/>
<path d="M180.859 95.7158V91.5703H194.196V83.9101H180.859V80.2152H196.044V72.1946H170.405V103.736H196.629V95.7158H180.859Z" fill="#524E84"/>
<path d="M224.335 103.736H235.329L221.541 72.1946H211.087L197.299 103.736H208.113L210.231 98.2391H222.217L224.335 103.736ZM213.16 90.579L216.224 82.6484L219.288 90.579H213.16Z" fill="#524E84"/>
<path d="M255.906 103.736H267.261L260.638 94.0035C264.423 92.0659 266.585 88.6414 266.585 84.0904C266.585 76.7907 260.998 72.1946 252.211 72.1946H237.026V103.736H247.66V95.8059H250.544L255.906 103.736ZM255.861 84.0904C255.861 86.3884 254.464 87.7853 251.535 87.7853H247.66V80.3955H251.535C254.464 80.3955 255.861 81.7923 255.861 84.0904Z" fill="#524E84"/>
<path d="M286.913 104.457C293.086 104.457 297.952 102.204 301.061 98.149L294.347 92.156C292.5 94.4992 290.292 95.851 287.453 95.851C283.037 95.851 280.064 92.7869 280.064 87.9655C280.064 83.1441 283.037 80.08 287.453 80.08C290.292 80.08 292.5 81.4318 294.347 83.7749L301.061 77.782C297.952 73.7266 293.086 71.4736 286.913 71.4736C276.774 71.4736 269.339 78.2777 269.339 87.9655C269.339 97.6533 276.774 104.457 286.913 104.457Z" fill="#524E84"/>
<path d="M324.589 72.1946V83.3694H314.766V72.1946H304.132V103.736H314.766V92.111H324.589V103.736H335.223V72.1946H324.589Z" fill="#524E84"/>
<path d="M442.936 177.883C442.936 179.949 442.53 181.995 441.739 183.904C440.948 185.812 439.79 187.547 438.329 189.007C436.868 190.468 435.134 191.627 433.225 192.418C431.316 193.208 429.271 193.615 427.205 193.615H154.592C152.526 193.615 150.48 193.208 148.572 192.418C146.663 191.627 144.929 190.468 143.468 189.007C142.007 187.547 140.848 185.812 140.058 183.904C139.267 181.995 138.86 179.949 138.86 177.883C138.86 175.818 139.267 173.773 140.058 171.865C140.849 169.957 142.008 168.224 143.469 166.764C144.93 165.304 146.664 164.147 148.573 163.358C150.481 162.568 152.527 162.163 154.592 162.165H427.205C431.375 162.165 435.374 163.82 438.324 166.768C441.274 169.715 442.933 173.713 442.936 177.883Z" fill="#E8E8F9"/>
<path d="M427.204 162.165H383.998V193.615H427.204C429.27 193.615 431.315 193.208 433.224 192.418C435.133 191.627 436.867 190.468 438.328 189.008C439.789 187.547 440.947 185.812 441.738 183.904C442.529 181.995 442.936 179.949 442.936 177.883C442.932 173.713 441.273 169.715 438.323 166.768C435.373 163.821 431.374 162.165 427.204 162.165Z" fill="#FF8001"/>
<path d="M416.274 180.995C415.197 180.002 414.438 178.712 414.094 177.288C413.75 175.864 413.836 174.37 414.341 172.995C414.846 171.62 415.748 170.425 416.932 169.562C418.116 168.7 419.529 168.207 420.993 168.148C422.457 168.088 423.905 168.464 425.155 169.228C426.406 169.992 427.401 171.109 428.016 172.439C428.631 173.768 428.838 175.251 428.611 176.698C428.384 178.145 427.733 179.493 426.739 180.57C425.406 182.011 423.556 182.864 421.595 182.944C419.633 183.024 417.72 182.323 416.274 180.995ZM424.665 171.899C423.944 171.235 423.042 170.8 422.073 170.649C421.105 170.497 420.113 170.636 419.223 171.047C418.334 171.459 417.586 172.125 417.074 172.961C416.563 173.798 416.311 174.767 416.35 175.746C416.389 176.726 416.717 177.672 417.293 178.465C417.869 179.258 418.668 179.862 419.587 180.202C420.507 180.542 421.507 180.601 422.46 180.373C423.413 180.145 424.278 179.64 424.944 178.921C425.827 177.944 426.288 176.657 426.225 175.341C426.163 174.026 425.583 172.789 424.612 171.899H424.665Z" fill="white"/>
<path d="M408.042 189.853C407.923 189.746 407.827 189.616 407.759 189.472C407.691 189.328 407.652 189.171 407.645 189.012C407.637 188.852 407.662 188.693 407.716 188.543C407.771 188.393 407.854 188.255 407.962 188.137L416.154 179.268C416.262 179.147 416.394 179.05 416.54 178.98C416.687 178.911 416.845 178.872 417.007 178.865C417.169 178.857 417.331 178.882 417.483 178.938C417.635 178.994 417.775 179.079 417.894 179.189C418.012 179.299 418.108 179.432 418.176 179.579C418.243 179.727 418.28 179.886 418.285 180.048C418.29 180.21 418.263 180.371 418.206 180.523C418.148 180.674 418.061 180.812 417.949 180.93L409.757 189.786C409.65 189.905 409.52 190.002 409.376 190.07C409.231 190.138 409.074 190.176 408.914 190.182C408.754 190.188 408.594 190.162 408.444 190.106C408.295 190.049 408.158 189.963 408.042 189.853Z" fill="white"/>
<path d="M139.019 230.704C139.019 231.343 139.145 231.975 139.389 232.565C139.634 233.154 139.993 233.69 140.445 234.141C140.897 234.592 141.434 234.949 142.024 235.192C142.615 235.435 143.247 235.56 143.886 235.558H437.549C438.187 235.56 438.819 235.435 439.409 235.192C439.999 234.949 440.534 234.591 440.985 234.14C441.436 233.689 441.794 233.153 442.037 232.564C442.281 231.974 442.405 231.342 442.403 230.704C442.405 230.066 442.281 229.433 442.038 228.842C441.794 228.252 441.437 227.715 440.986 227.263C440.535 226.811 440 226.452 439.41 226.208C438.82 225.963 438.188 225.837 437.549 225.837H143.886C142.595 225.837 141.357 226.35 140.444 227.262C139.531 228.175 139.019 229.413 139.019 230.704Z" fill="#E8E8F9"/>
<path d="M139.019 254.588C139.019 255.226 139.145 255.859 139.389 256.448C139.634 257.038 139.993 257.574 140.445 258.025C140.897 258.476 141.434 258.833 142.024 259.076C142.615 259.319 143.247 259.443 143.886 259.442H437.549C438.187 259.443 438.819 259.319 439.409 259.076C439.999 258.832 440.534 258.475 440.985 258.024C441.436 257.573 441.794 257.037 442.037 256.447C442.281 255.858 442.405 255.226 442.403 254.588C442.405 253.949 442.281 253.317 442.038 252.726C441.794 252.136 441.437 251.599 440.986 251.147C440.535 250.695 440 250.336 439.41 250.091C438.82 249.847 438.188 249.721 437.549 249.721H143.886C142.595 249.721 141.357 250.233 140.444 251.146C139.531 252.059 139.019 253.297 139.019 254.588Z" fill="#E8E8F9"/>
<path d="M139.019 278.457C139.019 279.748 139.531 280.986 140.444 281.899C141.357 282.812 142.595 283.324 143.886 283.324H437.549C438.188 283.324 438.82 283.199 439.41 282.954C440 282.709 440.535 282.35 440.986 281.898C441.437 281.446 441.794 280.909 442.038 280.319C442.281 279.728 442.405 279.096 442.403 278.457C442.403 277.17 441.892 275.935 440.982 275.025C440.071 274.115 438.837 273.604 437.549 273.604H143.886C142.597 273.604 141.361 274.114 140.449 275.024C139.536 275.934 139.022 277.169 139.019 278.457Z" fill="#E8E8F9"/>
<path d="M131.825 225.173L133.154 218.444L126.851 217.207C126.843 215.532 126.56 213.87 126.013 212.287L131.213 208.803L127.383 203.111L122.383 206.449C120.93 204.973 119.193 203.805 117.276 203.018L118.513 196.715L111.784 195.385L110.454 201.874C109.059 201.955 107.682 202.223 106.359 202.672L102.874 197.473L97.1829 201.302L100.521 206.263C99.0444 207.716 97.8773 209.453 97.0898 211.369L91.571 210.292L90.2412 217.008L95.9461 218.138C96.0411 219.924 96.4508 221.68 97.1563 223.324L92.1827 226.662L96.0126 232.354L101.199 228.856C102.668 230.139 104.37 231.128 106.212 231.769L104.962 238.112L111.691 239.442L113.021 232.566C114.52 232.407 115.986 232.021 117.369 231.423L120.707 236.396L126.399 232.566L122.902 227.38C123.824 226.332 124.594 225.159 125.189 223.896L131.825 225.173ZM114.936 222.513C113.906 223.206 112.694 223.579 111.452 223.583C110.211 223.588 108.996 223.224 107.961 222.537C106.927 221.851 106.119 220.874 105.64 219.728C105.161 218.583 105.032 217.321 105.27 216.103C105.508 214.884 106.102 213.764 106.977 212.883C107.852 212.002 108.969 211.401 110.186 211.154C111.402 210.908 112.665 211.028 113.814 211.5C114.962 211.971 115.945 212.773 116.638 213.803C117.551 215.182 117.884 216.864 117.566 218.487C117.247 220.11 116.302 221.542 114.936 222.473V222.513Z" fill="#E8E8F9"/>
<path d="M484.2 80.3814L484.932 76.6978L481.487 76.0196C481.481 75.1134 481.324 74.2145 481.022 73.36L483.868 71.4583L481.78 68.3466L479.054 70.1684C478.265 69.3605 477.319 68.7224 476.274 68.2934L476.953 64.8491L473.269 64.131L472.578 67.6816C471.817 67.7242 471.066 67.8673 470.343 68.1072L468.428 65.2747L465.33 67.3625L467.152 70.0221C466.346 70.8183 465.709 71.7679 465.277 72.8147L462.258 72.2296L461.54 75.8999L464.665 76.5116C464.719 77.4861 464.939 78.4442 465.317 79.3442L462.657 81.166L464.745 84.2778L467.591 82.3761C468.391 83.0708 469.316 83.6078 470.317 83.9586L469.639 87.4294L473.322 88.1475L474.054 84.3975C474.872 84.3008 475.673 84.0904 476.434 83.7724L478.256 86.4321L481.368 84.3443L479.466 81.4985C479.966 80.9261 480.382 80.2858 480.703 79.5968L484.2 80.3814ZM474.971 78.9053C474.407 79.2824 473.744 79.4838 473.065 79.484C472.387 79.4843 471.724 79.2833 471.159 78.9066C470.595 78.5299 470.155 77.9944 469.895 77.3676C469.635 76.7409 469.567 76.0512 469.699 75.3857C469.831 74.7202 470.157 74.1087 470.637 73.6286C471.116 73.1486 471.727 72.8214 472.393 72.6886C473.058 72.5558 473.748 72.6232 474.375 72.8823C475.002 73.1415 475.538 73.5807 475.915 74.1446C476.418 74.9021 476.601 75.8277 476.424 76.7195C476.247 77.6113 475.725 78.3971 474.971 78.9053Z" fill="#E8E8F9"/>
<path d="M116.119 118.055L116.837 114.371L113.393 113.693C113.385 112.788 113.232 111.89 112.941 111.033L115.733 109.052L113.646 105.94L110.986 107.762C110.192 106.954 109.242 106.316 108.193 105.887L108.872 102.443L105.201 101.725L104.496 105.275C103.736 105.319 102.985 105.462 102.262 105.701L100.361 102.868L97.2357 105.062L99.0575 107.722C98.2565 108.522 97.6195 109.471 97.1825 110.515L94.1771 109.93L93.459 113.6L96.5708 114.212C96.6224 115.188 96.8476 116.147 97.2357 117.044L94.576 118.866L96.6771 121.978L99.5097 120.076C100.313 120.774 101.243 121.311 102.249 121.659L101.571 125.129L105.241 125.848L105.973 122.097C106.791 122.001 107.592 121.79 108.353 121.472L110.188 124.132L113.287 122.044L111.385 119.198C111.889 118.626 112.31 117.986 112.635 117.297L116.119 118.055ZM106.89 116.579C106.327 116.958 105.664 117.161 104.986 117.164C104.307 117.166 103.643 116.967 103.078 116.592C102.512 116.217 102.07 115.682 101.809 115.056C101.547 114.43 101.477 113.74 101.607 113.074C101.737 112.408 102.062 111.796 102.54 111.314C103.019 110.833 103.629 110.504 104.294 110.37C104.959 110.235 105.649 110.301 106.277 110.559C106.905 110.817 107.442 111.255 107.821 111.818C108.322 112.575 108.505 113.498 108.331 114.389C108.156 115.28 107.639 116.066 106.89 116.579Z" fill="#E8E8F9"/>
<path d="M135.296 379.459C135.296 384.432 105.029 388.475 67.6879 388.475C30.3466 388.475 0.0400391 384.432 0.0400391 379.459C0.0400391 374.485 30.3067 370.442 67.648 370.442C104.989 370.442 135.296 374.472 135.296 379.459Z" fill="#E8E8F9"/>
<path d="M87.0365 157.71C88.8857 164.348 92.2873 170.451 96.9603 175.515C101.633 180.578 107.444 184.458 113.912 186.833C120.418 185.496 126.667 183.125 132.423 179.812C130.953 175.88 129.936 171.793 129.391 167.631C121.798 169.745 115.229 170.875 115.229 170.875C99.2043 163.442 89.4834 127.869 89.4834 127.869C79.9486 136.978 87.0365 157.71 87.0365 157.71Z" fill="#542BDA"/>
<path d="M33.1118 340.667L26.3164 349.75C27.5442 352.775 29.7491 355.303 32.5799 356.931L40.6917 346.492L33.1118 340.667Z" fill="#FBA691"/>
<path d="M31.4644 354.112C31.4644 354.112 34.6294 353.42 35.7199 354.524C36.8103 355.628 39.5231 370.549 42.0764 373.807C44.6296 377.065 42.0764 378.807 40.4939 379.472C38.9114 380.137 16.4375 357.729 16.4375 357.729C16.4375 357.729 21.9961 350.043 24.6824 348.553C27.3686 347.064 28.6186 352.53 31.4644 354.112Z" fill="#FF8001"/>
<path d="M31.8763 362.822C31.8034 362.795 31.7372 362.752 31.6821 362.697C31.6271 362.642 31.5844 362.576 31.5571 362.503C31.4944 362.358 31.4914 362.195 31.5487 362.048C31.606 361.901 31.7189 361.782 31.863 361.718C33.2041 361.129 34.6722 360.886 36.1317 361.014C36.8422 361.134 37.5068 361.446 38.0547 361.914C38.6026 362.382 39.0134 362.99 39.2435 363.673C39.2658 363.747 39.2733 363.825 39.2653 363.902C39.2573 363.979 39.2341 364.054 39.1969 364.122C39.1598 364.19 39.1095 364.25 39.049 364.299C38.9886 364.347 38.919 364.383 38.8445 364.405C38.772 364.427 38.6958 364.434 38.6205 364.425C38.5452 364.417 38.4724 364.394 38.4065 364.356C38.3405 364.319 38.2829 364.269 38.237 364.208C38.1912 364.148 38.1581 364.079 38.1397 364.006C37.9697 363.533 37.6769 363.113 37.2913 362.791C36.9057 362.468 36.4412 362.254 35.9455 362.17C34.7059 362.087 33.4645 362.306 32.3284 362.809C32.2586 362.844 32.182 362.864 32.1038 362.866C32.0257 362.868 31.948 362.853 31.8763 362.822Z" fill="white"/>
<path d="M31.5024 360.388C31.4303 360.359 31.3649 360.316 31.31 360.261C31.2552 360.206 31.212 360.141 31.1833 360.069C31.1247 359.925 31.1238 359.765 31.1808 359.621C31.2378 359.477 31.3483 359.361 31.4891 359.297C32.8328 358.7 34.306 358.453 35.7711 358.579C36.4831 358.692 37.1497 359.001 37.6967 359.471C38.2437 359.94 38.6497 360.552 38.8696 361.239C38.9153 361.387 38.9004 361.547 38.8281 361.684C38.7558 361.821 38.632 361.924 38.484 361.97C38.3359 362.011 38.1775 361.993 38.0431 361.918C37.9088 361.843 37.8092 361.719 37.7659 361.571C37.6 361.091 37.305 360.665 36.9132 360.342C36.5215 360.018 36.0481 359.808 35.5451 359.736C34.3133 359.663 33.082 359.886 31.9546 360.388C31.8838 360.421 31.8066 360.438 31.7285 360.438C31.6503 360.438 31.5732 360.421 31.5024 360.388Z" fill="white"/>
<path d="M32.9133 365.334C32.7709 365.271 32.6571 365.157 32.5942 365.015C32.535 364.87 32.5337 364.708 32.5906 364.562C32.6475 364.416 32.7583 364.297 32.9 364.23C34.2455 363.64 35.7182 363.397 37.182 363.526C37.8926 363.646 38.5571 363.958 39.1051 364.426C39.653 364.894 40.0638 365.502 40.2938 366.185C40.3354 366.335 40.317 366.495 40.2425 366.632C40.1681 366.768 40.0434 366.871 39.8949 366.917C39.8215 366.939 39.7445 366.946 39.6683 366.938C39.5921 366.93 39.5183 366.907 39.4513 366.869C39.3843 366.832 39.3255 366.782 39.2783 366.721C39.2312 366.661 39.1966 366.592 39.1768 366.518C39.0071 366.04 38.7109 365.617 38.3199 365.293C37.9288 364.97 37.4575 364.759 36.956 364.683C35.7205 364.596 34.4828 364.815 33.3522 365.321C33.2837 365.353 33.2095 365.37 33.1341 365.372C33.0587 365.375 32.9836 365.362 32.9133 365.334Z" fill="white"/>
<path d="M74.709 356.239L75.7462 367.53C78.6791 368.965 82.0107 369.368 85.2012 368.673L84.2438 355.481L74.709 356.239Z" fill="#FBA691"/>
<path d="M83.1407 367.038C83.1407 367.038 85.1354 364.285 86.7445 364.378C88.3536 364.471 100.88 374.206 105.096 375.017C109.312 375.828 108.567 378.9 107.756 380.509C106.944 382.118 74.0314 381.2 74.0314 381.2C74.0314 381.2 72.8213 370.562 73.8586 367.53C74.8958 364.498 79.8294 367.849 83.1407 367.038Z" fill="#FF8001"/>
<path d="M91.3048 374.272C91.2338 374.304 91.1567 374.321 91.0787 374.321C91.0007 374.321 90.9236 374.304 90.8527 374.272C90.7157 374.201 90.6115 374.079 90.562 373.933C90.5124 373.787 90.5212 373.627 90.5867 373.487C91.2425 372.17 92.2216 371.039 93.4325 370.203C94.0515 369.832 94.7592 369.637 95.4804 369.637C96.2016 369.637 96.9094 369.832 97.5283 370.203C97.6551 370.294 97.7423 370.43 97.772 370.583C97.8016 370.736 97.7716 370.895 97.6879 371.027C97.6465 371.091 97.5926 371.145 97.5294 371.187C97.4662 371.229 97.3951 371.258 97.3205 371.272C97.2458 371.286 97.1691 371.284 97.0951 371.267C97.0211 371.25 96.9513 371.218 96.89 371.173C96.4546 370.911 95.9557 370.772 95.4472 370.772C94.9386 370.772 94.4397 370.911 94.0043 371.173C92.9992 371.901 92.1829 372.858 91.624 373.966C91.5974 374.038 91.5549 374.103 91.4996 374.156C91.4443 374.209 91.3777 374.248 91.3048 374.272Z" fill="white"/>
<path d="M89.4971 372.676C89.3521 372.735 89.1898 372.735 89.0449 372.676C88.907 372.602 88.8025 372.478 88.7531 372.33C88.7036 372.181 88.7129 372.02 88.779 371.878C89.4405 370.567 90.4186 369.443 91.6248 368.606C92.2497 368.246 92.9606 368.062 93.6819 368.074C94.4031 368.085 95.1077 368.293 95.7206 368.673C95.8465 368.762 95.9333 368.895 95.963 369.046C95.9927 369.198 95.9631 369.354 95.8802 369.484C95.8388 369.548 95.7849 369.602 95.7217 369.644C95.6585 369.686 95.5874 369.715 95.5127 369.729C95.438 369.743 95.3614 369.741 95.2874 369.724C95.2134 369.707 95.1436 369.675 95.0823 369.63C94.6445 369.374 94.1465 369.24 93.6395 369.24C93.1324 369.24 92.6344 369.374 92.1966 369.63C91.1858 370.357 90.3686 371.321 89.8162 372.436C89.7404 372.55 89.6277 372.635 89.4971 372.676Z" fill="white"/>
<path d="M93.7123 375.548C93.6413 375.58 93.5642 375.597 93.4862 375.597C93.4082 375.597 93.3311 375.58 93.2601 375.548C93.1197 375.476 93.0131 375.353 92.9633 375.203C92.9135 375.054 92.9246 374.891 92.9942 374.75C93.6486 373.439 94.6227 372.314 95.8267 371.478C96.4516 371.118 97.1625 370.934 97.8838 370.946C98.605 370.958 99.3096 371.165 99.9225 371.545C100.051 371.632 100.14 371.764 100.172 371.916C100.205 372.067 100.177 372.225 100.095 372.356C100.007 372.483 99.8719 372.569 99.7199 372.596C99.568 372.624 99.4113 372.59 99.2842 372.502C98.8489 372.246 98.353 372.111 97.848 372.111C97.343 372.111 96.8471 372.246 96.4118 372.502C95.401 373.229 94.5837 374.193 94.0314 375.308C93.9555 375.422 93.8429 375.507 93.7123 375.548Z" fill="white"/>
<path d="M68.3925 233.79L61.5439 290.493C57.1788 296.583 53.1822 302.929 49.5755 309.497C44.6153 318.459 31.5166 341.771 31.5166 341.771L39.4955 347.809L82.9008 302.821L94.4569 233.231L68.3925 233.79Z" fill="#001030"/>
<path d="M41.3979 347.596C40.6443 349.271 39.3837 350.666 37.7941 351.586L28.5918 343.82C29.3528 342.207 30.4185 340.758 31.7302 339.551L41.3979 347.596Z" fill="#2E3062"/>
<path d="M33.2852 236.13C33.2852 236.13 45.5062 266.184 61.3975 289.629C61.3975 289.629 63.7646 312.435 67.8205 324.576C69.6025 329.895 73.0334 355.082 73.0334 355.082L85.0949 354.537L81.9831 284.495L69.2301 233.763L33.2852 236.13Z" fill="#2E3062"/>
<path d="M86.265 354.111C86.9301 356.146 86.9301 358.34 86.265 360.375L72.3152 360.76C71.7356 358.786 71.5415 356.718 71.7434 354.67L86.265 354.111Z" fill="#524E84"/>
<path d="M89.4845 127.87C91.293 130.144 94.9367 153.242 95.5085 176.687V178.31C95.575 180.796 95.6282 183.283 95.6814 185.783C95.7346 188.283 95.7745 190.703 95.8144 193.137C95.8144 197.126 95.9341 201.116 95.9873 204.839C95.9873 205.265 95.9873 205.69 95.9873 206.169C95.9873 209.866 96.0671 213.403 96.0937 216.701V218.031C96.0937 222.978 96.0937 227.34 96.0937 230.904V232.327C96.0937 234.787 96.0937 236.742 96.0937 238.058C90.3444 239.612 84.4917 240.754 78.5799 241.476H78.1145L77.3432 241.569H77.1437C76.1331 241.675 75.1224 241.782 74.1118 241.862C69.1049 242.276 64.0765 242.364 59.0582 242.127L57.7284 242.061C57.3295 242.061 56.9305 242.061 56.5316 241.981H55.9996L55.0023 241.901C47.5273 241.287 40.1246 239.987 32.8874 238.018C32.8874 235.119 32.8076 229.202 32.8076 221.568C32.8076 221.156 32.8076 220.731 32.8076 220.305C32.8076 211.887 32.8076 201.555 32.9273 190.93C32.9273 190.078 32.9273 189.241 32.9273 188.403C32.9273 187.565 32.9273 186.448 32.9273 185.464C32.9273 185.291 32.9273 185.131 32.9273 184.959C32.9273 184.786 32.9273 184.506 32.9273 184.267C32.9273 183.815 32.9273 183.35 32.9273 182.937C32.9273 182.259 32.9273 181.607 32.9273 180.929C32.9273 180.251 32.9273 179.905 32.9273 179.4V176.368C33.2864 155.25 34.0045 135.848 35.3609 130.915C35.4336 130.568 35.5639 130.235 35.7465 129.931C35.9071 129.692 36.0849 129.465 36.2784 129.253C36.5507 128.94 36.8439 128.647 37.1561 128.375C40.3115 125.782 43.7145 123.506 47.3159 121.579L48.6458 120.782C48.7122 120.782 59.4572 117.125 59.5237 117.071L70.7606 117.869C70.7606 117.869 86.8115 124.545 89.4845 127.87Z" fill="#6B5EFF"/>
<path d="M44.1634 158.257C44.1643 158.134 44.1266 158.014 44.0555 157.914C43.9845 157.814 43.8837 157.738 43.7675 157.699C43.6513 157.659 43.5255 157.657 43.408 157.692C43.2905 157.728 43.1872 157.8 43.1128 157.898C39.1781 163.231 36.187 169.2 34.2695 175.544C33.8573 176.874 33.4982 178.137 33.1924 179.348C33.1924 179.853 33.1924 180.358 33.1924 180.877C33.1924 181.396 33.1924 182.207 33.1924 182.885C33.1924 183.35 33.1924 183.816 33.1924 184.215C33.1924 184.454 33.1924 184.68 33.1924 184.906C33.1924 185.132 33.1924 185.239 33.1924 185.412C33.7317 182.162 34.496 178.954 35.4797 175.81C37.3699 169.638 40.2975 163.832 44.1368 158.642C44.2153 158.544 44.2576 158.422 44.2565 158.297L44.1634 158.257Z" fill="#542BDA"/>
<path d="M46.4504 219.574C58.5783 219.574 68.9243 214.002 75.4803 209.374C79.6602 206.451 83.4928 203.06 86.9034 199.268C87.0039 199.148 87.0527 198.993 87.039 198.837C87.0253 198.681 86.9502 198.537 86.8303 198.437C86.7104 198.336 86.5554 198.287 86.3996 198.301C86.2437 198.315 86.0997 198.39 85.9991 198.51C82.6557 202.245 78.8891 205.579 74.7755 208.444C68.379 212.965 58.2591 218.351 46.4504 218.404C46.2952 218.404 46.1463 218.466 46.0366 218.575C45.9269 218.685 45.8652 218.834 45.8652 218.989C45.8652 219.144 45.9269 219.293 46.0366 219.403C46.1463 219.513 46.2952 219.574 46.4504 219.574Z" fill="#542BDA"/>
<path d="M59.0842 223.696C69.6163 223.696 80.1086 217.699 80.5873 217.419C80.7109 217.337 80.7984 217.21 80.8321 217.065C80.8658 216.921 80.8431 216.768 80.7686 216.64C80.6941 216.511 80.5734 216.416 80.4311 216.373C80.2887 216.33 80.1354 216.343 80.0022 216.409C79.8825 216.409 67.5285 223.537 56.5841 222.393C56.4289 222.375 56.2731 222.42 56.1509 222.517C56.0287 222.615 55.9501 222.756 55.9325 222.912C55.9148 223.067 55.9596 223.223 56.0568 223.345C56.1541 223.467 56.2959 223.546 56.4511 223.563C57.3288 223.643 58.2065 223.696 59.0842 223.696Z" fill="#542BDA"/>
<path d="M56.0777 136.207C66.2109 133.401 74.6951 124.811 75.1074 124.425C75.2018 124.313 75.2508 124.17 75.2445 124.023C75.2383 123.877 75.1773 123.738 75.0737 123.634C74.97 123.531 74.8313 123.47 74.6848 123.463C74.5384 123.457 74.395 123.506 74.2829 123.601C74.1765 123.707 64.163 133.8 53.3116 135.635C53.2361 135.647 53.1636 135.673 53.0984 135.713C53.0332 135.752 52.9766 135.805 52.932 135.867C52.8874 135.929 52.8556 135.999 52.8386 136.074C52.8216 136.148 52.8196 136.225 52.8329 136.3C52.8442 136.376 52.8705 136.448 52.9102 136.514C52.95 136.579 53.0024 136.635 53.0644 136.68C53.1263 136.725 53.1966 136.756 53.2711 136.773C53.3455 136.79 53.4226 136.792 53.4978 136.779C54.3673 136.634 55.2285 136.444 56.0777 136.207Z" fill="#542BDA"/>
<path d="M47.5811 88.8654C47.5811 99.1183 53.8977 106.153 64.1506 106.153C74.4035 106.153 81.5579 98.5465 81.5579 88.2936C81.5579 78.0407 75.4806 70.3145 65.2011 70.3145C52.9269 70.3145 47.5811 78.6125 47.5811 88.8654Z" fill="#2E3062"/>
<path d="M47.8196 91.5922C47.8196 91.5922 44.2291 86.1665 46.1307 81.9909C48.0324 77.8153 47.1015 78.6132 47.5802 75.3418C48.059 72.0705 50.4393 70.754 53.2719 70.2885C56.1044 69.8231 54.1628 66.5517 58.0858 65.3815C62.0088 64.2112 65.1604 68.3204 67.6871 66.4719C70.2137 64.6235 76.4107 63.7325 78.1527 66.4719C78.5931 67.424 79.3381 68.2023 80.27 68.6839C81.202 69.1656 82.2677 69.323 83.2991 69.1316C85.5332 69.0252 88.5253 72.5625 86.504 75.7807C84.4827 78.9988 81.0783 77.7355 81.5571 79.9696C82.0358 82.2037 84.9082 86.1399 81.0385 91.1401C79.8283 92.6826 47.8196 91.5922 47.8196 91.5922Z" fill="#2E3062"/>
<path d="M49.8816 93.2812C49.8816 93.2812 47.0358 89.4779 44.9214 92.6296C42.807 95.7812 45.7991 105.05 50.9854 102.776L49.8816 93.2812Z" fill="#FB876B"/>
<path d="M49.8552 99.9169C49.7591 99.9177 49.6654 99.8868 49.5885 99.8292C49.5116 99.7715 49.4558 99.6902 49.4296 99.5978C49.111 98.7032 48.6077 97.8857 47.9524 97.1984C47.2972 96.5111 46.5047 95.9693 45.6263 95.6083C45.5187 95.5639 45.4323 95.4796 45.3853 95.3731C45.3382 95.2666 45.334 95.146 45.3737 95.0365C45.4181 94.9288 45.5024 94.8425 45.6089 94.7954C45.7154 94.7483 45.836 94.7442 45.9455 94.7838C46.9574 95.1972 47.8677 95.825 48.6138 96.6239C49.3599 97.4228 49.924 98.3738 50.2674 99.4116C50.2836 99.4657 50.2889 99.5225 50.283 99.5787C50.277 99.6349 50.2599 99.6894 50.2327 99.7389C50.2054 99.7884 50.1686 99.832 50.1243 99.8671C50.0801 99.9023 50.0293 99.9282 49.9748 99.9435L49.8552 99.9169Z" fill="#D45C48"/>
<path d="M46.8498 98.4152C46.7756 98.4344 46.6978 98.4344 46.6237 98.4152C46.5744 98.3842 46.5318 98.3436 46.4984 98.2959C46.4649 98.2481 46.4413 98.1942 46.429 98.1373C46.4166 98.0803 46.4157 98.0215 46.4263 97.9642C46.4369 97.9069 46.4588 97.8523 46.4907 97.8035C46.9105 97.2197 47.4802 96.7603 48.1397 96.4737C48.1911 96.4493 48.2468 96.4355 48.3037 96.433C48.3605 96.4305 48.4172 96.4395 48.4706 96.4593C48.5239 96.4792 48.5727 96.5095 48.614 96.5485C48.6554 96.5875 48.6886 96.6344 48.7115 96.6865C48.7568 96.7943 48.7586 96.9155 48.7165 97.0246C48.6743 97.1337 48.5915 97.2223 48.4855 97.2716C47.9655 97.4871 47.5081 97.8301 47.1556 98.269C47.1174 98.313 47.0705 98.3487 47.0179 98.3739C46.9653 98.399 46.9081 98.4131 46.8498 98.4152Z" fill="#D45C48"/>
<path d="M79.2447 93.2812C79.2447 93.2812 82.1039 89.4779 84.2183 92.6296C86.3327 95.7812 83.3406 105.05 78.1543 102.776L79.2447 93.2812Z" fill="#FB876B"/>
<path d="M79.2845 99.9169C79.3806 99.9177 79.4743 99.8868 79.5511 99.8292C79.628 99.7715 79.6838 99.6902 79.71 99.5978C80.0264 98.702 80.5289 97.8834 81.1844 97.1957C81.84 96.5081 82.6337 95.9671 83.5133 95.6083C83.621 95.5639 83.7073 95.4796 83.7544 95.3731C83.8015 95.2666 83.8056 95.146 83.766 95.0365C83.7215 94.9288 83.6373 94.8425 83.5308 94.7954C83.4242 94.7483 83.3037 94.7442 83.1942 94.7838C82.1812 95.1979 81.2695 95.8258 80.5213 96.6244C79.7732 97.4231 79.2061 98.3738 78.8589 99.4116C78.8337 99.5225 78.8512 99.6388 78.9078 99.7374C78.9645 99.8359 79.0563 99.9096 79.1648 99.9435L79.2845 99.9169Z" fill="#D45C48"/>
<path d="M82.276 98.4152C82.3544 98.4361 82.4369 98.4361 82.5153 98.4152C82.5646 98.3842 82.6072 98.3436 82.6407 98.2959C82.6741 98.2481 82.6977 98.1942 82.7101 98.1373C82.7224 98.0803 82.7234 98.0215 82.7128 97.9642C82.7022 97.9069 82.6803 97.8523 82.6483 97.8035C82.2243 97.2237 81.6558 96.7652 80.9993 96.4737C80.9479 96.4493 80.8922 96.4355 80.8354 96.433C80.7785 96.4305 80.7218 96.4395 80.6685 96.4593C80.6152 96.4792 80.5664 96.5095 80.525 96.5485C80.4836 96.5875 80.4505 96.6344 80.4275 96.6865C80.4029 96.7388 80.3888 96.7955 80.3862 96.8534C80.3836 96.9112 80.3924 96.9689 80.4122 97.0233C80.4319 97.0777 80.4623 97.1276 80.5014 97.1702C80.5406 97.2129 80.5878 97.2473 80.6403 97.2716C81.1609 97.4861 81.6184 97.8293 81.9701 98.269C82.0083 98.313 82.0552 98.3487 82.1078 98.3739C82.1604 98.399 82.2177 98.4131 82.276 98.4152Z" fill="#D45C48"/>
<path d="M71.5836 110.648V120.408C71.0373 121.138 70.3493 121.749 69.561 122.206C68.7726 122.663 67.9001 122.956 66.9957 123.068C62.727 123.573 58.0859 119.079 58.0859 119.079V111.352L71.5836 110.648Z" fill="#FBA691"/>
<path d="M71.5836 110.648V114.743C69.0835 117.509 64.6552 118.201 58.0859 117.23V111.299L71.5836 110.648Z" fill="#FB876B"/>
<path d="M48.3793 93.0953C48.3793 93.6272 48.4591 94.1725 48.5123 94.7177C48.6453 96.0475 48.8314 97.497 49.0841 98.9066C49.0841 98.9066 49.0841 98.9997 49.0841 99.0529C50.3208 105.848 53.0736 112.537 59.1109 114.692C72.715 119.545 77.5688 107.883 79.5103 101.087C79.7231 100.33 79.9226 99.4917 80.0822 98.6007C80.0822 98.6007 80.0822 98.521 80.0822 98.4811C80.2683 97.4704 80.4279 96.4066 80.5742 95.3028C80.6806 94.4783 80.7604 93.6538 80.8402 92.816C81.0396 90.7814 81.1726 88.7468 81.2524 86.9382C81.3498 84.9219 80.8084 82.9263 79.7052 81.2357C78.6021 79.5452 76.9935 78.2459 75.1086 77.5231C69.5367 75.3821 61.0658 73.68 53.0337 78.2279C51.5841 79.06 50.3765 80.2557 49.53 81.6968C48.6835 83.138 48.2273 84.7749 48.2064 86.4462C48.1665 88.3213 48.1931 90.6218 48.3793 93.0953Z" fill="#FBA691"/>
<path d="M48.3789 93.0957C48.3789 93.6276 48.4587 94.1728 48.5119 94.7181C48.6449 96.0479 48.831 97.4974 49.0837 98.907C49.0837 98.907 49.0837 99.0001 49.0837 99.0533C50.3204 105.849 53.0732 112.538 59.1105 114.692C72.7146 119.546 77.5684 107.883 79.5099 101.088C79.7227 100.33 79.9222 99.4921 80.0818 98.6011C80.0818 98.6011 80.0818 98.5213 80.0818 98.4814C80.2679 97.4708 80.4275 96.4069 80.5738 95.3032C80.6802 94.4787 80.76 93.6542 80.8398 92.8164L78.8051 93.3483C78.22 96.4202 77.3556 100.915 76.1455 103.003C74.3636 98.6543 64.4431 102.245 64.4431 102.245C64.4431 102.245 55.6131 99.1065 52.621 102.245C51.569 99.3404 50.6811 96.3791 49.9614 93.3749L48.3789 93.0957ZM64.3367 103.854C71.4778 102.87 73.2465 104.692 73.6454 106.806C72.0227 108.595 69.9091 109.867 67.5682 110.463C65.6685 110.852 63.7089 110.845 61.812 110.443C59.9151 110.04 58.1217 109.25 56.544 108.123C56.052 106.487 55.6397 101.686 64.2835 103.867L64.3367 103.854Z" fill="#2E3062"/>
<path d="M59.9478 93.8269C59.9478 94.8109 59.4425 95.6088 58.8175 95.6088C58.1925 95.6088 57.6738 94.8109 57.6738 93.8269C57.6738 92.8428 58.1792 92.0449 58.8175 92.0449C59.4558 92.0449 59.9478 92.8428 59.9478 93.8269Z" fill="#2E3062"/>
<path d="M73.1002 93.8269C73.1002 94.8109 72.5948 95.6088 71.9698 95.6088C71.3448 95.6088 70.8262 94.8109 70.8262 93.8269C70.8262 92.8428 71.3448 92.0449 71.9698 92.0449C72.5948 92.0449 73.1002 92.8428 73.1002 93.8269Z" fill="#2E3062"/>
<path d="M75.1756 87.7754C75.1756 87.7754 71.5984 86.3525 68.8457 87.5494L69.125 89.0786C71.1631 88.8836 73.2197 89.0456 75.2022 89.5574C75.4065 88.9793 75.3971 88.3472 75.1756 87.7754Z" fill="#2E3062"/>
<path d="M54.3373 87.7754C54.3373 87.7754 57.9145 86.3525 60.6672 87.5494L60.3879 89.0786C58.3498 88.8836 56.2932 89.0456 54.3107 89.5574C54.1064 88.9793 54.1159 88.3472 54.3373 87.7754Z" fill="#2E3062"/>
<path d="M65.0148 101.552C64.4704 101.599 63.9219 101.554 63.3924 101.419C63.281 101.385 63.1871 101.309 63.1301 101.208C63.0731 101.106 63.0575 100.986 63.0866 100.874C63.1206 100.762 63.1962 100.668 63.2978 100.611C63.3994 100.554 63.519 100.539 63.6318 100.568C64.1987 100.774 64.8202 100.774 65.3871 100.568C65.4495 100.514 65.4978 100.446 65.5279 100.37C65.558 100.293 65.5691 100.211 65.56 100.129C65.316 97.8955 64.9565 95.6762 64.4829 93.4799C64.477 93.3746 64.5093 93.2708 64.5737 93.1874C64.6381 93.104 64.7304 93.0465 64.8337 93.0256C64.937 93.0046 65.0444 93.0215 65.1362 93.0731C65.2281 93.1248 65.2983 93.2078 65.3339 93.307C65.829 95.5497 66.1975 97.8184 66.4377 100.102C66.4537 100.32 66.4159 100.538 66.3278 100.737C66.2397 100.937 66.1039 101.111 65.9324 101.246C65.6597 101.429 65.3426 101.534 65.0148 101.552Z" fill="#FB876B"/>
<path d="M59.0176 104.186C59.3766 105.994 60.5735 109.305 64.5762 109.305C68.579 109.305 69.7226 106.273 70.1216 104.186H59.0176Z" fill="white"/>
<path d="M80.84 93.3607H78.8585C78.9282 91.3009 78.5517 89.2505 77.7548 87.3499C76.425 83.7062 79.2841 82.0306 76.9569 80.2753C74.6297 78.5199 68.8051 79.238 64.7492 79.105C60.6825 78.9139 56.6075 79.0116 52.5547 79.3976C50.9722 79.7566 51.8366 82.403 52.4217 84.4509C53.0069 86.4988 50.4802 88.7595 50.0547 90.8739C49.9333 91.6984 49.9333 92.5362 50.0547 93.3607H48.3924C48.1929 90.7808 48.1663 88.3871 48.2062 86.4456C48.2374 84.772 48.7038 83.1353 49.5596 81.6966C50.4153 80.258 51.6309 79.0669 53.0867 78.2406C61.0656 73.6927 69.5897 75.3948 75.1616 77.5358C77.0464 78.2586 78.6551 79.5579 79.7582 81.2485C80.8614 82.939 81.4028 84.9346 81.3054 86.9509C81.1591 88.9191 81.066 91.1532 80.84 93.3607Z" fill="#2E3062"/>
<path d="M66.7305 94.7028C66.7305 93.6691 67.037 92.6587 67.6112 91.7992C68.1855 90.9398 69.0017 90.2699 69.9567 89.8744C70.9116 89.4788 71.9624 89.3753 72.9762 89.577C73.99 89.7786 74.9212 90.2764 75.6521 91.0073C76.383 91.7382 76.8808 92.6694 77.0824 93.6832C77.2841 94.697 77.1806 95.7478 76.785 96.7027C76.3895 97.6577 75.7196 98.4739 74.8602 99.0482C74.0007 99.6224 72.9903 99.9289 71.9567 99.9289C70.5717 99.9254 69.2444 99.3737 68.2651 98.3943C67.2857 97.415 66.734 96.0877 66.7305 94.7028ZM67.5417 94.7028C67.539 95.5765 67.7957 96.4314 68.2792 97.1592C68.7628 97.887 69.4514 98.4549 70.2579 98.7911C71.0644 99.1273 71.9525 99.2167 72.8098 99.0478C73.6671 98.879 74.455 98.4595 75.0738 97.8426C75.6926 97.2257 76.1144 96.4391 76.2858 95.5823C76.4572 94.7255 76.3706 93.8371 76.0368 93.0296C75.7031 92.2221 75.1372 91.5318 74.4109 91.046C73.6845 90.5603 72.8304 90.301 71.9567 90.301C70.788 90.301 69.6671 90.7644 68.8395 91.5895C68.0119 92.4146 67.5452 93.5341 67.5417 94.7028Z" fill="white"/>
<path d="M52.4609 94.7027C52.4609 93.6685 52.7678 92.6576 53.3426 91.7978C53.9175 90.9381 54.7345 90.2683 55.6902 89.8731C56.646 89.4779 57.6975 89.3752 58.7116 89.578C59.7257 89.7807 60.6569 90.2798 61.3873 91.012C62.1177 91.7442 62.6144 92.6767 62.8145 93.6913C63.0147 94.706 62.9093 95.7572 62.5117 96.7119C62.1141 97.6667 61.4421 98.482 60.581 99.0546C59.7198 99.6273 58.708 99.9315 57.6738 99.9289C56.2901 99.9254 54.9642 99.3732 53.987 98.3935C53.0097 97.4138 52.4609 96.0865 52.4609 94.7027ZM53.2721 94.7027C53.2695 95.5771 53.5265 96.4325 54.0106 97.1606C54.4948 97.8886 55.1842 98.4566 55.9914 98.7924C56.7987 99.1282 57.6875 99.2168 58.5452 99.0468C59.4028 98.8769 60.1907 98.4561 60.809 97.8379C61.4272 97.2196 61.848 96.4317 62.0179 95.5741C62.1878 94.7164 62.0993 93.8276 61.7635 93.0203C61.4277 92.2131 60.8597 91.5237 60.1317 91.0396C59.4036 90.5554 58.5482 90.2984 57.6738 90.301C57.0929 90.2975 56.517 90.4087 55.9792 90.6282C55.4413 90.8477 54.9521 91.1711 54.5394 91.58C54.1268 91.9889 53.799 92.4753 53.5747 93.0111C53.3503 93.547 53.234 94.1218 53.2322 94.7027H53.2721Z" fill="white"/>
<path d="M76.2919 93.0959C76.3461 93.0962 76.3999 93.0858 76.4501 93.0652C76.5003 93.0447 76.546 93.0144 76.5844 92.9762C77.3136 92.2986 78.1914 91.8012 79.1475 91.5241C80.1036 91.2469 81.1114 91.1978 82.0899 91.3804C82.1954 91.401 82.3047 91.3809 82.396 91.3242C82.4873 91.2674 82.5537 91.1783 82.5819 91.0746C82.6025 90.9691 82.5824 90.8597 82.5257 90.7685C82.4689 90.6772 82.3798 90.6108 82.2761 90.5826C81.1613 90.3674 80.0115 90.4191 78.9206 90.7334C77.8297 91.0477 76.8287 91.6158 75.9993 92.3911C75.9245 92.4701 75.8828 92.5748 75.8828 92.6837C75.8828 92.7925 75.9245 92.8972 75.9993 92.9762C76.0378 93.0144 76.0835 93.0447 76.1337 93.0652C76.1839 93.0858 76.2376 93.0962 76.2919 93.0959Z" fill="white"/>
<path d="M53.2329 93.0952C53.2997 93.0957 53.3654 93.0787 53.4237 93.0461C53.482 93.0134 53.5308 92.9662 53.5653 92.9091C53.6268 92.8191 53.6501 92.7084 53.6302 92.6012C53.6102 92.494 53.5487 92.3991 53.4589 92.3372C53.2994 92.2442 49.6025 89.8638 46.4641 90.3824C46.3568 90.3989 46.2603 90.4569 46.1956 90.5441C46.1308 90.6312 46.1031 90.7404 46.1184 90.8479C46.1379 90.9527 46.1972 91.0459 46.284 91.1079C46.3708 91.1699 46.4783 91.1959 46.5838 91.1803C49.4163 90.7149 52.9669 93.0022 53.0068 93.0288C53.075 93.0705 53.153 93.0935 53.2329 93.0952Z" fill="white"/>
<path d="M62.6086 93.5336C62.8756 93.1702 63.2137 92.8649 63.6023 92.6363C63.9909 92.4077 64.422 92.2605 64.8693 92.2038C65.3007 92.2589 65.7152 92.4062 66.0846 92.6357C66.454 92.8651 66.7697 93.1714 67.0103 93.5336L67.6886 93.0815C67.3755 92.6064 66.9596 92.2079 66.4715 91.9155C65.9835 91.6232 65.4359 91.4444 64.8693 91.3926C64.289 91.4464 63.7276 91.6266 63.2244 91.9207C62.7213 92.2148 62.2887 92.6155 61.957 93.0947L62.6086 93.5336Z" fill="white"/>
<path d="M114.112 184.027L125.748 192.95C126.098 193.219 126.497 193.417 126.923 193.531C127.35 193.645 127.794 193.674 128.232 193.616C128.669 193.558 129.091 193.414 129.472 193.192C129.854 192.971 130.188 192.676 130.456 192.325L153.062 162.87L162.371 150.676L145.416 137.67L139.911 144.957L113.5 179.386C112.98 180.088 112.753 180.965 112.867 181.831C112.981 182.697 113.428 183.485 114.112 184.027Z" fill="#FF8001"/>
<path d="M139.91 144.957C142.762 151.93 147.272 158.102 153.049 162.936L162.357 150.742L145.402 137.736L139.91 144.957Z" fill="#F88800"/>
<path d="M80.1801 241.05L79.4837 240.516C78.1796 239.516 77.3263 238.038 77.1115 236.409C76.8967 234.779 77.338 233.131 78.3382 231.827L114.686 184.44L125.238 192.534L88.8898 239.921C88.3932 240.568 87.7735 241.111 87.0664 241.519C86.3594 241.926 85.5788 242.19 84.7695 242.295C83.9603 242.4 83.1382 242.344 82.3506 242.13C81.5631 241.917 80.8254 241.549 80.1801 241.05Z" fill="#2E3062"/>
<path d="M139.378 64.3984C132.091 73.7885 127.752 85.1287 126.91 96.9848C126.068 108.841 128.761 120.681 134.648 131.006C140.535 141.332 149.352 149.68 159.983 154.994C170.615 160.309 182.584 162.351 194.377 160.863C206.169 159.375 217.255 154.424 226.234 146.635C235.212 138.846 241.679 128.569 244.816 117.105C247.954 105.64 247.621 93.503 243.86 82.2277C240.1 70.9523 233.08 61.0454 223.688 53.7598C211.095 43.9951 195.141 39.6305 179.331 41.6255C163.521 43.6204 149.15 51.8116 139.378 64.3984ZM146.652 70.0501C152.817 62.097 161.202 56.1506 170.746 52.9628C180.291 49.7751 190.566 49.4891 200.273 52.1412C209.98 54.7933 218.683 60.2643 225.281 67.8623C231.878 75.4604 236.075 84.8442 237.34 94.8272C238.604 104.81 236.88 114.944 232.385 123.947C227.891 132.95 220.827 140.419 212.088 145.407C203.349 150.396 193.327 152.681 183.289 151.974C173.251 151.267 163.648 147.599 155.695 141.435C145.044 133.157 138.111 120.994 136.416 107.612C134.721 94.2299 138.402 80.7218 146.652 70.0501Z" fill="#2E3062"/>
<path opacity="0.4" d="M137.715 88.0821C134.243 101.119 136.087 115.001 142.841 126.68C149.595 138.358 160.709 146.879 173.74 150.371C176.032 150.981 178.366 151.426 180.722 151.701C186.628 152.427 192.615 152.103 198.408 150.743C204.318 149.351 209.933 146.919 214.991 143.562C223.159 138.152 229.59 130.497 233.511 121.518C237.431 112.539 238.675 102.619 237.092 92.9508C235.509 83.2822 231.166 74.2768 224.587 67.0174C218.007 59.7581 209.471 54.5539 200.004 52.0308C197.456 51.3491 194.86 50.8645 192.238 50.5813C180.176 49.3077 168.055 52.3831 158.059 59.2535C148.063 66.1239 140.849 76.3378 137.715 88.0555V88.0821Z" fill="white"/>
<path opacity="0.4" d="M164.18 55.7001L214.992 143.628C223.092 138.282 229.485 130.721 233.41 121.845L192.186 50.6468C182.559 49.6248 172.842 51.3783 164.18 55.7001Z" fill="white"/>
<path opacity="0.4" d="M140.029 81.3531L180.722 151.727C186.628 152.454 192.615 152.129 198.408 150.77L149.684 66.499C145.616 70.8432 142.348 75.8718 140.029 81.3531Z" fill="white"/>
<path d="M89.3903 209.375H91.4383C92.2872 209.357 93.1134 209.097 93.8199 208.626C94.5265 208.155 95.0842 207.492 95.4277 206.716C95.7824 205.862 96.1819 205.027 96.6245 204.215C97.582 202.886 100.188 200.798 101.173 200.731C102.157 200.665 101.97 202.487 101.279 203.285C100.379 204.174 99.5846 205.165 98.9118 206.237C98.3267 207.354 103.699 209.641 105.88 210.226C108.061 210.811 111.891 209.588 112.263 211.396C112.636 213.205 109.763 213.471 109.763 213.471C109.763 213.471 110.601 215.107 108.221 216.45C108.33 216.924 108.28 217.421 108.078 217.863C107.876 218.305 107.533 218.669 107.104 218.897C107.157 219.44 107.028 219.987 106.736 220.449C106.445 220.911 106.008 221.263 105.494 221.45C103.699 221.982 98.1139 223.604 87.1562 216.955L89.3903 209.375Z" fill="#FBA691"/>
<path d="M51.7963 162.871C55.932 178.497 59.988 185.412 59.988 185.412C63.889 190.794 68.6891 195.464 74.1771 199.215C79.7534 202.909 85.5243 206.301 91.4648 209.375C89.6296 211.769 88.3397 216.49 89.0445 217.899C66.9163 217.899 47.5542 196.928 47.5542 196.928C32.0751 169.986 31.0644 148.044 31.3171 140.038C31.3805 137.202 32.2324 134.439 33.7773 132.06C34.4985 130.852 35.5261 129.856 36.7561 129.174C38.9048 130.129 40.8183 131.543 42.3621 133.316C43.906 135.09 45.0427 137.18 45.6924 139.44C47.9797 147.286 51.7963 162.871 51.7963 162.871Z" fill="#542BDA"/>
<path d="M152.038 165.478C152.038 165.478 147.118 163.736 144.844 164.68C142.57 165.624 148.834 169.015 148.834 169.015C148.834 169.015 141.227 165.026 139.924 166.595C138.621 168.164 145.881 172.366 145.881 172.366C145.881 172.366 140.309 170.411 139.232 171.568C138.155 172.725 143.222 175.957 143.222 175.957C143.222 175.957 138.66 174.853 137.703 175.624C136.746 176.396 140.801 179.614 143.368 180.518C145.935 181.422 146.36 177.765 146.36 177.765C146.36 177.765 148.767 175.638 148.448 174.162C148.448 174.162 150.961 172.459 151.108 170.731C151.174 170.731 154.711 167.566 152.038 165.478Z" fill="#FBA691"/>
<path d="M280.179 379.459C280.179 384.432 252.346 388.475 218.01 388.475C183.675 388.475 155.828 384.485 155.828 379.459C155.828 374.432 183.675 370.442 218.01 370.442C252.346 370.442 280.179 374.472 280.179 379.459Z" fill="#E8E8F9"/>
<path d="M171.667 360.92C165.052 360.92 158.586 358.959 153.086 355.284C147.586 351.609 143.299 346.385 140.768 340.274C138.236 334.163 137.574 327.438 138.864 320.95C140.155 314.463 143.34 308.503 148.017 303.826C152.695 299.149 158.654 295.963 165.142 294.673C171.63 293.382 178.354 294.045 184.465 296.576C190.577 299.108 195.8 303.394 199.475 308.894C203.15 314.394 205.112 320.86 205.112 327.475C205.101 336.342 201.574 344.843 195.304 351.113C189.034 357.383 180.534 360.91 171.667 360.92ZM171.667 307.342C167.685 307.342 163.792 308.523 160.481 310.735C157.17 312.947 154.59 316.092 153.066 319.77C151.542 323.449 151.143 327.498 151.92 331.403C152.697 335.309 154.614 338.896 157.43 341.712C160.246 344.527 163.833 346.445 167.739 347.222C171.644 347.999 175.692 347.6 179.371 346.076C183.05 344.552 186.195 341.972 188.407 338.661C190.619 335.35 191.8 331.457 191.8 327.475C191.797 322.137 189.674 317.018 185.899 313.243C182.124 309.468 177.005 307.345 171.667 307.342Z" fill="#F88800"/>
<path d="M264.342 379.112V273.431C264.342 260.904 171.667 260.904 171.667 273.431V379.112C171.667 387.211 264.342 387.211 264.342 379.112Z" fill="#FF8001"/>
<path d="M259.687 272.103C259.687 275.095 241.07 277.529 218.01 277.529C194.951 277.529 176.334 275.095 176.334 272.103C176.334 269.111 194.951 266.691 218.01 266.691C241.07 266.691 259.687 269.111 259.687 272.103Z" fill="#2E3062"/>
<path d="M472.392 394.204C509.731 394.204 540 390.168 540 385.188C540 380.209 509.731 376.172 472.392 376.172C435.053 376.172 404.784 380.209 404.784 385.188C404.784 390.168 435.053 394.204 472.392 394.204Z" fill="#E8E8F9"/>
<path d="M493.762 373.553H493.655C493.655 373.553 481.687 371.997 481.687 362.197V294.442H470.344V362.197C470.344 371.997 458.375 373.553 458.375 373.553H458.282C455.498 373.557 452.83 374.665 450.862 376.635C448.895 378.605 447.79 381.275 447.79 384.059H504.294C504.294 382.677 504.021 381.309 503.492 380.032C502.962 378.756 502.186 377.597 501.208 376.621C500.229 375.645 499.068 374.872 497.79 374.345C496.513 373.819 495.144 373.55 493.762 373.553Z" fill="#542BDA"/>
<path d="M530.344 294.442H421.658C422.526 289.636 425.058 285.289 428.81 282.162C432.561 279.036 437.294 277.329 442.177 277.341L475.995 277.434L509.812 277.341C514.698 277.326 519.433 279.031 523.188 282.158C526.942 285.285 529.476 289.634 530.344 294.442Z" fill="#6B5EFF"/>
<path d="M450.848 170.37C450.848 170.37 434.332 192.379 432.138 211.594C430.529 225.145 450.848 245.412 450.848 245.412L457.816 241.941L450.848 226.249C448.375 218.616 445.329 215.611 447.577 207.884L452.617 197.033L450.848 170.37Z" fill="#542BDA"/>
<path d="M502.817 170.038C502.817 170.038 519.107 193.509 520.463 212.792C521.62 229.414 501.673 245.412 501.673 245.412L495.915 242.54L503.894 226.702C506.367 219.055 507.551 214.454 504.173 206.143L499.891 197.033L502.817 170.038Z" fill="#542BDA"/>
<path d="M454.159 220.505L443.215 255.333C443.215 255.333 490.596 261.384 505.078 257.474L497.724 219.548L502.817 170.052C495.737 167.025 488.207 165.183 480.53 164.6C469.332 163.789 462.245 165.637 450.795 170.384L454.159 220.505Z" fill="#6B5EFF"/>
<path d="M465.995 180.863C476.447 179.639 486.181 172.458 486.62 172.126C486.742 172.033 486.823 171.896 486.846 171.745C486.868 171.593 486.83 171.438 486.74 171.314C486.694 171.252 486.636 171.199 486.569 171.16C486.503 171.12 486.429 171.093 486.352 171.082C486.276 171.071 486.198 171.075 486.123 171.095C486.047 171.114 485.977 171.148 485.915 171.195C485.809 171.275 474.359 179.719 463.308 179.865C463.231 179.867 463.156 179.884 463.085 179.915C463.015 179.946 462.952 179.99 462.898 180.046C462.845 180.102 462.804 180.167 462.776 180.239C462.748 180.31 462.735 180.387 462.736 180.464C462.738 180.54 462.755 180.616 462.786 180.687C462.817 180.757 462.862 180.82 462.917 180.874C462.973 180.927 463.038 180.968 463.11 180.996C463.182 181.024 463.258 181.037 463.335 181.035C464.224 181.026 465.112 180.968 465.995 180.863Z" fill="#542BDA"/>
<path d="M474.427 367.384L475.278 375.07L483.456 375.256L484.134 368.873L474.427 367.384Z" fill="#FBA691"/>
<path d="M473.135 245.506C473.135 245.506 451.965 244.349 444.797 250.213C437.629 256.078 439.065 272.913 446.366 277.515C453.667 282.116 466.127 291.145 466.127 291.145L474.106 369.884L484.572 370.243C484.572 370.243 494.213 291.145 489.319 275.826C484.425 260.506 473.135 245.506 473.135 245.506Z" fill="#001030"/>
<path d="M485.424 366.334C485.91 368.116 485.817 370.007 485.158 371.733L473.189 371.467C472.768 369.726 472.687 367.919 472.95 366.147L485.424 366.334Z" fill="#2E3062"/>
<path d="M503.098 244.906H447.538L442.405 214.892C442.3 214.281 442.33 213.654 442.493 213.056C442.656 212.457 442.948 211.902 443.349 211.428C443.749 210.954 444.248 210.574 444.811 210.313C445.374 210.052 445.987 209.918 446.607 209.919H504.042C504.662 209.918 505.275 210.052 505.838 210.313C506.401 210.574 506.9 210.954 507.3 211.428C507.701 211.902 507.992 212.457 508.155 213.056C508.318 213.654 508.349 214.281 508.244 214.892L503.098 244.906Z" fill="#FF8001"/>
<path d="M447.536 244.906H503.149V246.622C503.149 247.898 502.642 249.123 501.739 250.026C500.836 250.928 499.612 251.436 498.335 251.436H452.35C451.073 251.436 449.849 250.928 448.946 250.026C448.043 249.123 447.536 247.898 447.536 246.622V244.906Z" fill="#F88800"/>
<path d="M480.264 228.656C480.264 229.611 479.981 230.544 479.45 231.338C478.92 232.132 478.166 232.751 477.284 233.116C476.402 233.481 475.431 233.577 474.495 233.391C473.558 233.205 472.698 232.745 472.023 232.07C471.348 231.395 470.888 230.534 470.702 229.598C470.516 228.662 470.611 227.691 470.977 226.809C471.342 225.927 471.961 225.173 472.755 224.643C473.549 224.112 474.482 223.829 475.437 223.829C476.717 223.829 477.945 224.338 478.85 225.243C479.755 226.148 480.264 227.376 480.264 228.656Z" fill="#FDCC50"/>
<path d="M439.691 345.761L437.883 353.367L445.223 354.817L448.202 348.021L439.691 345.761Z" fill="#FBA691"/>
<path d="M483.894 244.201C483.894 244.201 469.718 239.308 461.406 249.587C453.095 259.867 439.172 346.517 439.172 346.517L448.72 350.507L479.386 273.537C479.386 273.537 504.36 287.793 507.392 267.526C509.785 251.436 483.894 244.201 483.894 244.201Z" fill="#2E3062"/>
<path d="M450.848 346.492C450.741 348.393 450.038 350.212 448.84 351.692L437.124 347.543C437.271 345.714 437.768 343.931 438.587 342.29L450.848 346.492Z" fill="#524E84"/>
<path d="M443.481 352.117C441.624 351.142 439.7 350.302 437.723 349.604C436.393 349.351 425.608 357.011 422.549 356.944C416.991 356.798 415.209 364.923 418.374 366.067C427.496 369.285 444.398 368.886 444.398 368.886C444.398 368.886 448.148 358.74 448.215 355.309C448.281 351.878 445.888 353.646 443.481 352.117Z" fill="#FF8001"/>
<path d="M433.774 359.364C433.94 359.432 434.126 359.432 434.292 359.364C434.373 359.335 434.446 359.29 434.509 359.231C434.571 359.173 434.621 359.102 434.656 359.024C434.691 358.946 434.709 358.862 434.711 358.776C434.712 358.691 434.697 358.606 434.665 358.527C434.025 356.977 433.016 355.607 431.726 354.537C431.052 354.056 430.264 353.76 429.439 353.681C428.615 353.602 427.785 353.741 427.032 354.085C426.955 354.126 426.887 354.181 426.833 354.248C426.778 354.315 426.737 354.392 426.712 354.475C426.687 354.558 426.679 354.645 426.688 354.731C426.698 354.817 426.724 354.9 426.766 354.976C426.853 355.129 426.995 355.242 427.164 355.292C427.333 355.341 427.514 355.324 427.67 355.242C428.204 355.01 428.79 354.922 429.369 354.987C429.948 355.053 430.499 355.269 430.968 355.614C432.047 356.553 432.89 357.733 433.428 359.059C433.499 359.202 433.623 359.312 433.774 359.364Z" fill="white"/>
<path d="M435.981 357.822C436.065 357.861 436.155 357.881 436.247 357.881C436.339 357.881 436.43 357.861 436.513 357.822C436.594 357.792 436.667 357.747 436.73 357.689C436.792 357.63 436.842 357.56 436.877 357.482C436.912 357.404 436.93 357.319 436.932 357.234C436.933 357.148 436.918 357.063 436.886 356.984C436.249 355.433 435.24 354.062 433.947 352.995C433.277 352.505 432.487 352.205 431.662 352.126C430.836 352.046 430.004 352.19 429.253 352.543C429.177 352.582 429.109 352.636 429.054 352.701C429 352.767 428.958 352.843 428.934 352.925C428.909 353.007 428.901 353.093 428.91 353.178C428.919 353.263 428.945 353.345 428.987 353.42C429.073 353.573 429.216 353.686 429.385 353.736C429.554 353.786 429.735 353.768 429.891 353.686C430.426 353.458 431.011 353.372 431.589 353.437C432.167 353.503 432.718 353.717 433.189 354.059C434.267 354.982 435.111 356.149 435.649 357.463C435.709 357.621 435.828 357.75 435.981 357.822Z" fill="white"/>
<path d="M430.902 360.455C430.986 360.491 431.076 360.51 431.168 360.51C431.259 360.51 431.35 360.491 431.434 360.455C431.513 360.423 431.586 360.375 431.647 360.315C431.708 360.255 431.757 360.183 431.79 360.104C431.823 360.025 431.841 359.94 431.841 359.854C431.842 359.768 431.825 359.683 431.793 359.604C431.164 358.048 430.153 356.676 428.854 355.614C428.186 355.125 427.399 354.825 426.575 354.745C425.752 354.665 424.922 354.809 424.173 355.162C424.095 355.2 424.027 355.253 423.971 355.319C423.915 355.384 423.873 355.46 423.848 355.543C423.823 355.625 423.815 355.712 423.826 355.797C423.836 355.883 423.863 355.965 423.907 356.04C423.994 356.193 424.137 356.306 424.305 356.356C424.474 356.405 424.655 356.387 424.811 356.306C425.346 356.077 425.931 355.992 426.509 356.057C427.087 356.122 427.638 356.336 428.109 356.678C429.183 357.606 430.026 358.771 430.569 360.082C430.597 360.163 430.641 360.238 430.698 360.302C430.755 360.366 430.825 360.418 430.902 360.455Z" fill="white"/>
<path d="M478.429 374.75C480.335 374.144 482.281 373.673 484.253 373.341C485.517 373.341 494.4 382.317 497.286 382.756C502.525 383.541 502.844 391.493 499.693 392.065C490.597 393.567 474.785 390.389 474.785 390.389C474.785 390.389 472.95 380.243 473.455 377.011C473.961 373.78 475.902 375.788 478.429 374.75Z" fill="#FF8001"/>
<path d="M486.342 383.168C486.174 383.208 485.997 383.179 485.85 383.088C485.781 383.046 485.72 382.99 485.672 382.925C485.625 382.859 485.59 382.784 485.572 382.705C485.553 382.625 485.551 382.543 485.564 382.463C485.578 382.383 485.607 382.306 485.651 382.237C486.502 380.884 487.676 379.764 489.069 378.979C489.78 378.636 490.569 378.487 491.356 378.547C492.143 378.608 492.9 378.876 493.55 379.325C493.615 379.375 493.67 379.438 493.71 379.51C493.75 379.582 493.775 379.662 493.784 379.744C493.792 379.826 493.784 379.909 493.76 379.988C493.736 380.066 493.696 380.139 493.643 380.203C493.537 380.332 493.383 380.414 493.217 380.432C493.05 380.449 492.883 380.4 492.752 380.296C492.288 379.994 491.754 379.818 491.201 379.786C490.648 379.753 490.097 379.864 489.601 380.109C488.434 380.793 487.449 381.746 486.728 382.889C486.641 383.029 486.503 383.129 486.342 383.168Z" fill="white"/>
<path d="M484.519 381.346C484.437 381.371 484.351 381.379 484.266 381.367C484.181 381.356 484.099 381.325 484.027 381.279C483.887 381.194 483.786 381.056 483.746 380.897C483.706 380.738 483.731 380.569 483.814 380.428C484.67 379.07 485.848 377.946 487.245 377.157C487.956 376.811 488.747 376.662 489.535 376.725C490.323 376.788 491.08 377.061 491.727 377.516C491.792 377.566 491.846 377.629 491.886 377.701C491.926 377.773 491.952 377.853 491.96 377.935C491.969 378.017 491.961 378.099 491.937 378.178C491.913 378.257 491.873 378.33 491.82 378.393C491.713 378.523 491.56 378.605 491.393 378.622C491.227 378.64 491.06 378.591 490.929 378.486C490.467 378.179 489.933 377.998 489.38 377.963C488.826 377.928 488.274 378.04 487.777 378.287C486.609 378.973 485.623 379.931 484.905 381.08C484.81 381.21 484.674 381.303 484.519 381.346Z" fill="white"/>
<path d="M488.854 384.671C488.686 384.711 488.509 384.682 488.362 384.591C488.222 384.506 488.121 384.368 488.081 384.209C488.041 384.05 488.066 383.881 488.149 383.74C489.007 382.388 490.185 381.268 491.58 380.482C492.291 380.138 493.08 379.99 493.868 380.05C494.655 380.111 495.412 380.379 496.062 380.828C496.19 380.932 496.272 381.083 496.29 381.247C496.307 381.412 496.259 381.577 496.155 381.705C496.048 381.834 495.896 381.917 495.73 381.936C495.565 381.956 495.398 381.912 495.264 381.812C494.793 381.505 494.249 381.33 493.688 381.304C493.127 381.279 492.569 381.403 492.072 381.665C490.906 382.348 489.921 383.302 489.2 384.445C489.113 384.557 488.992 384.637 488.854 384.671Z" fill="white"/>
<path d="M459.798 142.645C459.798 142.645 453.003 131.022 458.735 122.046C464.466 113.069 476.647 113.934 479.799 114.639C482.951 115.343 501.076 123.854 490.118 144.493L459.798 142.645Z" fill="#2E3062"/>
<path d="M460.941 139.346C460.941 139.346 458.188 135.689 456.14 138.721C454.092 141.753 456.991 150.69 461.991 148.522L460.941 139.346Z" fill="#FB876B"/>
<path d="M460.901 145.756C460.808 145.757 460.718 145.728 460.644 145.672C460.569 145.617 460.515 145.539 460.489 145.45C460.188 144.576 459.705 143.776 459.073 143.102C458.44 142.428 457.672 141.896 456.819 141.541C456.715 141.499 456.632 141.419 456.588 141.317C456.543 141.215 456.54 141.099 456.579 140.995C456.621 140.892 456.701 140.809 456.803 140.764C456.905 140.72 457.02 140.717 457.124 140.756C458.102 141.153 458.983 141.757 459.706 142.526C460.429 143.294 460.977 144.21 461.313 145.211C461.343 145.32 461.328 145.436 461.274 145.536C461.219 145.635 461.129 145.709 461.021 145.743L460.901 145.756Z" fill="#D45C48"/>
<path d="M458.016 144.36C457.932 144.356 457.85 144.333 457.776 144.293C457.683 144.231 457.619 144.135 457.597 144.025C457.574 143.916 457.596 143.802 457.657 143.708C458.052 143.128 458.599 142.667 459.239 142.378C459.338 142.347 459.446 142.353 459.541 142.396C459.636 142.439 459.712 142.515 459.755 142.61C459.797 142.705 459.804 142.813 459.772 142.912C459.741 143.012 459.674 143.096 459.585 143.149C459.106 143.365 458.686 143.694 458.361 144.107C458.334 144.178 458.287 144.239 458.225 144.284C458.164 144.328 458.091 144.355 458.016 144.36Z" fill="#D45C48"/>
<path d="M489.294 139.346C489.294 139.346 492.047 135.689 494.082 138.721C496.116 141.753 493.244 150.69 488.23 148.522L489.294 139.346Z" fill="#FB876B"/>
<path d="M489.319 145.756C489.412 145.757 489.502 145.728 489.577 145.672C489.651 145.617 489.705 145.539 489.731 145.45C490.038 144.579 490.523 143.782 491.155 143.109C491.787 142.436 492.552 141.902 493.402 141.541C493.454 141.521 493.502 141.492 493.542 141.454C493.583 141.416 493.615 141.37 493.638 141.319C493.66 141.268 493.672 141.213 493.673 141.158C493.673 141.102 493.662 141.047 493.641 140.995C493.6 140.892 493.519 140.809 493.417 140.764C493.315 140.72 493.2 140.717 493.096 140.756C492.119 141.152 491.24 141.756 490.519 142.525C489.798 143.294 489.253 144.21 488.92 145.211C488.904 145.265 488.899 145.322 488.905 145.378C488.911 145.434 488.928 145.489 488.955 145.538C488.982 145.588 489.019 145.631 489.063 145.666C489.108 145.702 489.158 145.728 489.213 145.743L489.319 145.756Z" fill="#D45C48"/>
<path d="M492.218 144.359C492.298 144.358 492.376 144.335 492.445 144.293C492.539 144.233 492.607 144.137 492.632 144.028C492.657 143.918 492.637 143.803 492.578 143.708C492.172 143.131 491.622 142.673 490.982 142.378C490.882 142.347 490.775 142.353 490.68 142.396C490.585 142.439 490.509 142.515 490.466 142.61C490.423 142.705 490.417 142.812 490.448 142.912C490.48 143.011 490.546 143.096 490.636 143.149C491.121 143.356 491.543 143.686 491.859 144.107C491.889 144.178 491.939 144.24 492.002 144.285C492.066 144.33 492.141 144.355 492.218 144.359Z" fill="#D45C48"/>
<path d="M481.887 156.114V165.024C481.887 165.024 479.227 169.572 475.637 169.878C472.046 170.184 468.854 165.968 468.854 165.968V156.753L481.887 156.114Z" fill="#FBA691"/>
<path d="M481.887 156.114V160.104C479.48 162.763 475.238 163.442 468.854 162.511V156.779L481.887 156.114Z" fill="#FB876B"/>
<path d="M491.275 133.243C491.14 137.014 490.753 140.773 490.118 144.493C489.958 145.357 489.772 146.169 489.559 146.9C487.684 153.469 483.003 164.72 469.865 160.025C464.067 157.964 461.38 151.501 460.184 144.932C459.504 140.909 459.21 136.83 459.306 132.751C459.327 131.124 459.774 129.532 460.602 128.132C461.431 126.732 462.611 125.573 464.027 124.772C471.78 120.383 479.985 122.019 485.304 124.094C487.136 124.795 488.7 126.057 489.773 127.7C490.845 129.343 491.371 131.283 491.275 133.243Z" fill="#FBA691"/>
<path d="M471.579 120.555C471.579 120.555 488.867 148.349 491.287 138.149C494.731 123.681 484.319 114.771 471.579 120.555Z" fill="#2E3062"/>
<path d="M470.795 120.555C459.279 120.634 453.507 133.733 458.826 135.289C466.273 137.443 472.723 126.911 474.704 123.321C473.454 122.35 472.125 121.499 470.795 120.555Z" fill="#2E3062"/>
<path d="M484.793 124.826C490.613 122.429 493.388 115.769 490.992 109.949C488.595 104.129 481.934 101.353 476.114 103.75C470.294 106.146 467.519 112.807 469.915 118.627C472.312 124.447 478.973 127.222 484.793 124.826Z" fill="#2E3062"/>
<path d="M461.327 134.053C461.327 134.053 462.218 137.537 460.994 139.878C459.771 142.218 460.449 146.234 460.994 150.742C459.669 148.589 458.956 146.116 458.933 143.588C458.826 139.186 459.545 135.516 458.933 133.747L461.327 134.053Z" fill="#2E3062"/>
<path d="M488.549 134.053C488.549 134.053 487.645 137.537 488.882 139.878C490.119 142.218 489.427 146.234 488.882 150.742C490.206 148.59 490.914 146.115 490.93 143.588C491.049 139.186 490.331 135.516 490.93 133.747L488.549 134.053Z" fill="#2E3062"/>
<path d="M469.333 140.729C469.333 141.673 468.841 142.444 468.242 142.444C467.644 142.444 467.139 141.673 467.139 140.729C467.139 139.785 467.631 139 468.242 139C468.854 139 469.333 139.771 469.333 140.729Z" fill="#2E3062"/>
<path d="M482.856 140.729C482.856 141.673 482.364 142.444 481.753 142.444C481.141 142.444 480.662 141.673 480.662 140.729C480.662 139.785 481.154 139 481.753 139C482.351 139 482.856 139.771 482.856 140.729Z" fill="#2E3062"/>
<path d="M466.075 134.745C467.598 134.312 469.172 134.08 470.756 134.054C470.874 134.052 470.992 134.077 471.1 134.125C471.208 134.174 471.305 134.246 471.382 134.336C471.459 134.426 471.516 134.532 471.548 134.647C471.58 134.761 471.586 134.881 471.567 134.998C471.534 135.193 471.431 135.369 471.276 135.492C471.121 135.614 470.926 135.675 470.729 135.663C468.565 135.588 466.402 135.852 464.319 136.447C464.326 136.122 464.46 135.812 464.692 135.583C465.063 135.177 465.543 134.886 466.075 134.745Z" fill="#2E3062"/>
<path d="M483.761 134.784C482.237 134.354 480.664 134.117 479.08 134.079C478.96 134.077 478.841 134.102 478.732 134.152C478.623 134.201 478.526 134.274 478.448 134.366C478.371 134.458 478.314 134.565 478.283 134.681C478.252 134.797 478.248 134.919 478.269 135.037C478.304 135.23 478.409 135.405 478.563 135.527C478.717 135.649 478.91 135.711 479.107 135.702C481.272 135.62 483.436 135.885 485.517 136.486C485.505 136.158 485.373 135.845 485.144 135.609C484.774 135.205 484.293 134.918 483.761 134.784Z" fill="#2E3062"/>
<path d="M475.263 147.737C474.942 147.746 474.625 147.668 474.345 147.51C474.166 147.399 474.016 147.247 473.908 147.067C473.799 146.887 473.735 146.683 473.72 146.473C473.689 144.254 473.774 142.035 473.973 139.824C473.986 139.712 474.042 139.61 474.128 139.538C474.215 139.467 474.326 139.431 474.438 139.439C474.549 139.449 474.651 139.502 474.723 139.586C474.795 139.671 474.831 139.78 474.824 139.891C474.622 142.048 474.538 144.214 474.571 146.38C474.571 146.633 474.691 146.726 474.771 146.766C475.339 146.913 475.941 146.857 476.473 146.606C476.577 146.567 476.692 146.57 476.794 146.615C476.896 146.659 476.976 146.742 477.018 146.846C477.04 146.896 477.051 146.951 477.051 147.006C477.052 147.061 477.041 147.115 477.02 147.166C476.999 147.217 476.968 147.263 476.929 147.301C476.889 147.34 476.843 147.37 476.792 147.391C476.308 147.6 475.789 147.717 475.263 147.737Z" fill="#FB876B"/>
<path d="M469.892 150.409C470.007 151.649 470.578 152.801 471.494 153.644C472.411 154.487 473.607 154.959 474.852 154.97C478.442 154.97 479.453 152.311 479.799 150.409H469.892Z" fill="#F6F6F6"/>
<path d="M474.784 157.445C474.085 157.42 473.403 157.219 472.803 156.86C472.755 156.833 472.713 156.796 472.68 156.752C472.647 156.708 472.623 156.657 472.611 156.603C472.598 156.549 472.597 156.494 472.607 156.439C472.618 156.385 472.639 156.334 472.67 156.288C472.697 156.24 472.734 156.199 472.778 156.165C472.822 156.132 472.872 156.108 472.925 156.094C472.978 156.081 473.034 156.078 473.088 156.086C473.143 156.094 473.195 156.113 473.242 156.142C473.712 156.415 474.241 156.57 474.784 156.594C475.353 156.572 475.909 156.417 476.407 156.142C476.504 156.084 476.62 156.066 476.73 156.094C476.839 156.121 476.934 156.191 476.992 156.288C477.05 156.385 477.067 156.501 477.04 156.611C477.012 156.721 476.942 156.815 476.845 156.873C476.214 157.225 475.507 157.421 474.784 157.445Z" fill="#FB876B"/>
</svg>
