<svg width="16" height="15" viewBox="0 0 16 15" fill="none" xmlns="http://www.w3.org/2000/svg">
<path d="M14.0475 2.80774C13.7139 2.47403 13.3179 2.20931 12.882 2.0287C12.4461 1.84809 11.9789 1.75513 11.5071 1.75513C11.0353 1.75513 10.5681 1.84809 10.1322 2.0287C9.69631 2.20931 9.30028 2.47403 8.96673 2.80774L8.27449 3.49998L7.58225 2.80774C6.9085 2.13399 5.99469 1.75548 5.04186 1.75548C4.08904 1.75548 3.17523 2.13399 2.50148 2.80774C1.82773 3.48149 1.44922 4.39529 1.44922 5.34812C1.44922 6.30095 1.82773 7.21475 2.50148 7.88851L3.19372 8.58074L8.27449 13.6615L13.3553 8.58074L14.0475 7.88851C14.3812 7.55495 14.6459 7.15892 14.8265 6.72303C15.0071 6.28715 15.1001 5.81995 15.1001 5.34812C15.1001 4.8763 15.0071 4.4091 14.8265 3.97321C14.6459 3.53732 14.3812 3.14129 14.0475 2.80774Z" stroke="white" stroke-width="1.72971" stroke-linecap="round" stroke-linejoin="round"/>
</svg>
