<svg width="22" height="20" viewBox="0 0 22 20" fill="none" xmlns="http://www.w3.org/2000/svg">
<path d="M10.25 14.814C10.25 15.2282 10.5858 15.564 11 15.564C11.4142 15.564 11.75 15.2282 11.75 14.814H10.25ZM11 8.95349L11.5316 8.42439C11.3908 8.28298 11.1995 8.20349 11 8.20349C10.8005 8.20349 10.6092 8.28298 10.4684 8.42439L11 8.95349ZM12.5518 11.5756C12.844 11.8692 13.3189 11.8703 13.6124 11.5781C13.906 11.2859 13.9071 10.811 13.6149 10.5174L12.5518 11.5756ZM8.38511 10.5174C8.09289 10.811 8.094 11.2859 8.38757 11.5781C8.68114 11.8703 9.15601 11.8692 9.44823 11.5756L8.38511 10.5174ZM8.16667 19.75H13.8333V18.25H8.16667V19.75ZM15.8333 4.43605H6.16667V5.93605H15.8333V4.43605ZM4.97674 1.75H17.0233V0.25H4.97674V1.75ZM17.5833 16V8.95349H16.0833V16H17.5833ZM17.5833 8.95349V6.18605H16.0833V8.95349H17.5833ZM17.0233 8.20349H16.8333V9.70349H17.0233V8.20349ZM4.41667 6.18605V8.95349H5.91667V6.18605H4.41667ZM4.41667 8.95349V16H5.91667V8.95349H4.41667ZM4.97675 9.70349H5.16667V8.20349H4.97675V9.70349ZM11.75 14.814V8.95349H10.25V14.814H11.75ZM10.4684 9.48259L12.5518 11.5756L13.6149 10.5174L11.5316 8.42439L10.4684 9.48259ZM10.4684 8.42439L8.38511 10.5174L9.44823 11.5756L11.5316 9.48259L10.4684 8.42439ZM0.25 4.97674C0.25 7.58725 2.36624 9.70349 4.97675 9.70349V8.20349C3.19466 8.20349 1.75 6.75883 1.75 4.97674H0.25ZM20.25 4.97674C20.25 6.75883 18.8053 8.20349 17.0233 8.20349V9.70349C19.6338 9.70349 21.75 7.58725 21.75 4.97674H20.25ZM17.0233 1.75C18.8053 1.75 20.25 3.19466 20.25 4.97674H21.75C21.75 2.36623 19.6338 0.25 17.0233 0.25V1.75ZM4.97674 0.25C2.36624 0.25 0.25 2.36623 0.25 4.97674H1.75C1.75 3.19466 3.19466 1.75 4.97674 1.75V0.25ZM15.8333 5.93605C15.9714 5.93605 16.0833 6.04798 16.0833 6.18605H17.5833C17.5833 5.21955 16.7998 4.43605 15.8333 4.43605V5.93605ZM13.8333 19.75C15.9044 19.75 17.5833 18.0711 17.5833 16H16.0833C16.0833 17.2426 15.076 18.25 13.8333 18.25V19.75ZM8.16667 18.25C6.92403 18.25 5.91667 17.2426 5.91667 16H4.41667C4.41667 18.0711 6.0956 19.75 8.16667 19.75V18.25ZM6.16667 4.43605C5.20017 4.43605 4.41667 5.21955 4.41667 6.18605H5.91667C5.91667 6.04798 6.0286 5.93605 6.16667 5.93605V4.43605Z" fill="#535968"/>
</svg>
