<svg width="27" height="21" viewBox="0 0 27 21" fill="none" xmlns="http://www.w3.org/2000/svg">
<path d="M22.0022 6.23577V16.0345L14.3155 19.2534L6.62891 16.0345V6.18604" stroke="#535968" stroke-width="1.5" stroke-miterlimit="10" stroke-linecap="round" stroke-linejoin="round"/>
<path d="M14.1852 15.1986C14.2928 15.1986 14.3944 15.1869 14.4899 15.1635C14.5874 15.1379 14.6717 15.1006 14.7428 15.0516C14.8159 15.0004 14.8738 14.9375 14.9165 14.8629C14.9592 14.7884 14.9805 14.701 14.9805 14.6008C14.9805 14.4793 14.951 14.376 14.8921 14.2907C14.8332 14.2055 14.756 14.1298 14.6605 14.0637C14.5651 13.9977 14.4554 13.938 14.3314 13.8847C14.2095 13.8293 14.0846 13.7728 13.9566 13.7153C13.8307 13.6577 13.7057 13.5949 13.5818 13.5267C13.4599 13.4563 13.3512 13.3732 13.2558 13.2773C13.1603 13.1814 13.0831 13.0684 13.0242 12.9384C12.9653 12.8084 12.9358 12.6529 12.9358 12.4717C12.9358 12.2991 12.9632 12.1414 13.0181 11.9986C13.0729 11.8536 13.1501 11.7268 13.2497 11.6181C13.3492 11.5094 13.4691 11.4189 13.6092 11.3464C13.7494 11.2718 13.9048 11.2175 14.0755 11.1834V10.0293H14.7123V11.145C14.7753 11.1471 14.8454 11.1525 14.9226 11.161C14.9998 11.1695 15.0811 11.1812 15.1664 11.1962C15.2517 11.2089 15.3391 11.226 15.4284 11.2473C15.5199 11.2686 15.6092 11.2921 15.6966 11.3176L15.5564 12.005L15.4985 12.0337C15.397 11.9868 15.2964 11.9474 15.1969 11.9154C15.0993 11.8813 15.0059 11.8536 14.9165 11.8323C14.8271 11.811 14.7438 11.7961 14.6666 11.7876C14.5894 11.779 14.5234 11.7748 14.4686 11.7748C14.3711 11.7748 14.2806 11.7865 14.1974 11.8099C14.1161 11.8334 14.045 11.8686 13.9841 11.9154C13.9251 11.9602 13.8784 12.0167 13.8439 12.0849C13.8093 12.1509 13.7921 12.2277 13.7921 12.3151C13.7921 12.4344 13.8215 12.5367 13.8804 12.6219C13.9394 12.7051 14.0166 12.7807 14.112 12.8489C14.2095 12.915 14.3203 12.9757 14.4442 13.0311C14.5681 13.0844 14.6941 13.1409 14.822 13.2006C14.95 13.2581 15.076 13.321 15.1999 13.3892C15.3238 13.4574 15.4335 13.5394 15.529 13.6354C15.6265 13.7291 15.7047 13.84 15.7636 13.9678C15.8226 14.0957 15.852 14.247 15.852 14.4218C15.852 14.5859 15.8256 14.7393 15.7728 14.8821C15.72 15.0249 15.6448 15.1549 15.5473 15.2721C15.4498 15.3872 15.3299 15.4874 15.1877 15.5726C15.0475 15.6558 14.8891 15.7197 14.7123 15.7645V16.9473H14.0755V15.8284C13.982 15.8284 13.8804 15.822 13.7707 15.8092C13.6631 15.7943 13.5524 15.7741 13.4386 15.7485C13.3269 15.7229 13.2141 15.692 13.1004 15.6558C12.9886 15.6174 12.8809 15.5737 12.7773 15.5247L12.9145 14.8342L12.9785 14.8022C13.1979 14.9194 13.4061 15.0153 13.6031 15.0899C13.8022 15.1624 13.9962 15.1986 14.1852 15.1986Z" fill="#535968"/>
<path d="M2.46289 11.1573V4.58044" stroke="#535968" stroke-width="1.5" stroke-miterlimit="10" stroke-linecap="round" stroke-linejoin="round"/>
<path d="M3.92299 15.5417H1V12.6186L2.46153 11.1571L3.92299 12.6186V15.5417Z" stroke="#535968" stroke-width="1.5" stroke-miterlimit="10" stroke-linecap="round" stroke-linejoin="round"/>
<path d="M14.1917 1L2.46289 4.58038L14.1917 8.23413L25.8471 4.58038L14.1917 1Z" stroke="#535968" stroke-width="1.5" stroke-miterlimit="10" stroke-linecap="round" stroke-linejoin="round"/>
</svg>
