<svg width="51" height="34" viewBox="0 0 51 34" fill="none" xmlns="http://www.w3.org/2000/svg">
<path d="M41.6706 10.8025V26.7586L27.2752 32.0001L12.8799 26.7586V10.7216" stroke="#000C2E" stroke-width="3" stroke-miterlimit="10" stroke-linecap="round" stroke-linejoin="round"/>
<path d="M27.033 25.3974C27.2347 25.3974 27.4249 25.3783 27.6037 25.3401C27.7863 25.2985 27.9442 25.2377 28.0774 25.1579C28.2143 25.0746 28.3227 24.9722 28.4026 24.8508C28.4825 24.7293 28.5225 24.587 28.5225 24.4239C28.5225 24.2261 28.4673 24.0578 28.357 23.919C28.2467 23.7801 28.1021 23.6569 27.9233 23.5494C27.7445 23.4418 27.539 23.3446 27.3069 23.2578C27.0787 23.1676 26.8447 23.0756 26.605 22.9819C26.3691 22.8882 26.1351 22.7859 25.9031 22.6748C25.6748 22.5603 25.4713 22.4249 25.2924 22.2688C25.1136 22.1126 24.9691 21.9287 24.8587 21.717C24.7484 21.5053 24.6932 21.2519 24.6932 20.9569C24.6932 20.6758 24.7446 20.419 24.8473 20.1865C24.95 19.9505 25.0946 19.744 25.281 19.567C25.4675 19.39 25.6919 19.2425 25.9544 19.1245C26.2169 19.0031 26.508 18.9146 26.8276 18.859V16.9798H28.0203V18.7966C28.1382 18.8 28.2695 18.8087 28.4141 18.8226C28.5586 18.8365 28.7108 18.8556 28.8706 18.8799C29.0304 18.9007 29.194 18.9285 29.3614 18.9632C29.5326 18.9979 29.7 19.036 29.8636 19.0777L29.6011 20.1969L29.4926 20.2438C29.3024 20.1674 29.1141 20.1032 28.9277 20.0511C28.745 19.9956 28.57 19.9505 28.4026 19.9158C28.2352 19.8811 28.0793 19.8568 27.9347 19.8429C27.7901 19.829 27.6665 19.8221 27.5637 19.8221C27.3811 19.8221 27.2118 19.8412 27.0558 19.8794C26.9037 19.9175 26.7705 19.9748 26.6564 20.0511C26.546 20.124 26.4585 20.216 26.3939 20.327C26.3292 20.4346 26.2968 20.5596 26.2968 20.7019C26.2968 20.8962 26.352 21.0628 26.4623 21.2016C26.5727 21.3369 26.7172 21.4602 26.8961 21.5712C27.0787 21.6788 27.286 21.7777 27.5181 21.8679C27.7502 21.9547 27.986 22.0467 28.2257 22.1438C28.4654 22.2375 28.7013 22.3399 28.9334 22.451C29.1654 22.562 29.3709 22.6956 29.5497 22.8518C29.7323 23.0045 29.8788 23.185 29.9891 23.3932C30.0995 23.6014 30.1546 23.8478 30.1546 24.1324C30.1546 24.3996 30.1052 24.6495 30.0062 24.882C29.9073 25.1145 29.7666 25.3262 29.5839 25.5171C29.4013 25.7045 29.1769 25.8676 28.9105 26.0064C28.648 26.1418 28.3513 26.2459 28.0203 26.3188V28.2449H26.8276V26.4229C26.6526 26.4229 26.4623 26.4125 26.2569 26.3917C26.0553 26.3674 25.8479 26.3344 25.6349 26.2928C25.4256 26.2511 25.2145 26.2008 25.0014 26.1418C24.7922 26.0793 24.5905 26.0082 24.3965 25.9284L24.6533 24.8039L24.7731 24.7519C25.184 24.9427 25.574 25.0989 25.943 25.2204C26.3159 25.3384 26.6792 25.3974 27.033 25.3974Z" fill="#000C2E"/>
<path d="M5.07617 18.8166V8.10706" stroke="#000C2E" stroke-width="3" stroke-miterlimit="10" stroke-linecap="round" stroke-linejoin="round"/>
<path d="M7.81197 25.9562H2.33789V21.1964L5.075 18.8165L7.81197 21.1964V25.9562Z" stroke="#000C2E" stroke-width="3" stroke-miterlimit="10" stroke-linecap="round" stroke-linejoin="round"/>
<path d="M27.0416 2.27679L5.07617 8.10699L27.0416 14.0567L48.8695 8.10699L27.0416 2.27679Z" stroke="#000C2E" stroke-width="3" stroke-miterlimit="10" stroke-linecap="round" stroke-linejoin="round"/>
</svg>
