<svg width="33" height="25" viewBox="0 0 33 25" fill="none" xmlns="http://www.w3.org/2000/svg">
<path d="M26.6321 7.37805V19.3367L17.2511 23.265L7.87012 19.3367V7.31735" stroke="#1D4C8C" stroke-width="1.5" stroke-miterlimit="10" stroke-linecap="round" stroke-linejoin="round"/>
<path d="M17.0931 18.3166C17.2245 18.3166 17.3485 18.3023 17.465 18.2737C17.584 18.2425 17.6869 18.197 17.7737 18.1371C17.863 18.0747 17.9336 17.998 17.9857 17.9069C18.0377 17.8159 18.0638 17.7093 18.0638 17.587C18.0638 17.4388 18.0278 17.3126 17.9559 17.2086C17.884 17.1045 17.7898 17.0122 17.6733 16.9316C17.5568 16.8509 17.4229 16.7781 17.2717 16.7131C17.1229 16.6454 16.9704 16.5765 16.8142 16.5063C16.6605 16.4361 16.508 16.3593 16.3568 16.2761C16.208 16.1903 16.0754 16.0888 15.9589 15.9718C15.8423 15.8547 15.7481 15.7169 15.6762 15.5582C15.6043 15.3996 15.5684 15.2097 15.5684 14.9886C15.5684 14.7779 15.6019 14.5854 15.6688 14.4112C15.7357 14.2343 15.8299 14.0795 15.9514 13.9469C16.0729 13.8142 16.2192 13.7037 16.3903 13.6153C16.5613 13.5242 16.751 13.4579 16.9593 13.4163V12.0078H17.7365V13.3695C17.8134 13.3721 17.8989 13.3786 17.9931 13.389C18.0873 13.3994 18.1865 13.4137 18.2906 13.4319C18.3948 13.4475 18.5014 13.4683 18.6105 13.4943C18.722 13.5203 18.8311 13.5489 18.9377 13.5802L18.7667 14.419L18.696 14.4541C18.572 14.3969 18.4493 14.3488 18.3278 14.3097C18.2088 14.2681 18.0948 14.2343 17.9857 14.2083C17.8766 14.1823 17.7749 14.1641 17.6807 14.1537C17.5865 14.1433 17.5059 14.1381 17.439 14.1381C17.32 14.1381 17.2097 14.1524 17.108 14.181C17.0088 14.2096 16.9221 14.2525 16.8477 14.3097C16.7758 14.3644 16.7188 14.4333 16.6766 14.5165C16.6345 14.5972 16.6134 14.6908 16.6134 14.7974C16.6134 14.9431 16.6494 15.0679 16.7212 15.172C16.7931 15.2734 16.8874 15.3657 17.0039 15.449C17.1229 15.5296 17.258 15.6037 17.4093 15.6714C17.5605 15.7364 17.7142 15.8053 17.8704 15.8781C18.0266 15.9484 18.1803 16.0251 18.3315 16.1083C18.4828 16.1916 18.6167 16.2917 18.7332 16.4088C18.8522 16.5232 18.9476 16.6585 19.0195 16.8145C19.0914 16.9706 19.1274 17.1552 19.1274 17.3685C19.1274 17.5688 19.0952 17.7561 19.0307 17.9303C18.9662 18.1046 18.8745 18.2633 18.7555 18.4063C18.6365 18.5468 18.4902 18.669 18.3167 18.7731C18.1456 18.8745 17.9522 18.9525 17.7365 19.0072V20.4507H16.9593V19.0852C16.8452 19.0852 16.7212 19.0774 16.5874 19.0618C16.456 19.0436 16.3208 19.0189 16.182 18.9877C16.0456 18.9564 15.908 18.9187 15.7692 18.8745C15.6328 18.8277 15.5014 18.7744 15.375 18.7146L15.5424 17.8718L15.6204 17.8328C15.8882 17.9759 16.1423 18.0929 16.3828 18.1839C16.6258 18.2724 16.8626 18.3166 17.0931 18.3166Z" fill="#1D4C8C"/>
<path d="M2.78418 13.3844V5.35788" stroke="#1D4C8C" stroke-width="1.5" stroke-miterlimit="10" stroke-linecap="round" stroke-linejoin="round"/>
<path d="M4.56728 18.7354H1V15.168L2.78368 13.3843L4.56728 15.168V18.7354Z" stroke="#1D4C8C" stroke-width="1.5" stroke-miterlimit="10" stroke-linecap="round" stroke-linejoin="round"/>
<path d="M17.0983 0.988281L2.78418 5.35786L17.0983 9.81698L31.3228 5.35786L17.0983 0.988281Z" stroke="#1D4C8C" stroke-width="1.5" stroke-miterlimit="10" stroke-linecap="round" stroke-linejoin="round"/>
</svg>
