<svg width="35" height="35" viewBox="0 0 35 35" fill="none" xmlns="http://www.w3.org/2000/svg">
<circle cx="17.6826" cy="17.6325" r="16.9794" fill="#FF8000"/>
<path d="M21.7404 14.9496C22.8224 14.9496 23.6996 14.0724 23.6996 12.9904C23.6996 11.9084 22.8224 11.0312 21.7404 11.0312C20.6584 11.0312 19.7812 11.9084 19.7812 12.9904C19.7812 14.0724 20.6584 14.9496 21.7404 14.9496Z" stroke="white" stroke-width="1.72971" stroke-linecap="round" stroke-linejoin="round"/>
<path d="M13.9045 19.5211C14.9865 19.5211 15.8636 18.644 15.8636 17.5619C15.8636 16.4799 14.9865 15.6028 13.9045 15.6028C12.8225 15.6028 11.9453 16.4799 11.9453 17.5619C11.9453 18.644 12.8225 19.5211 13.9045 19.5211Z" stroke="white" stroke-width="1.72971" stroke-linecap="round" stroke-linejoin="round"/>
<path d="M21.7404 24.0923C22.8224 24.0923 23.6996 23.2151 23.6996 22.1331C23.6996 21.0511 22.8224 20.174 21.7404 20.174C20.6584 20.174 19.7812 21.0511 19.7812 22.1331C19.7812 23.2151 20.6584 24.0923 21.7404 24.0923Z" stroke="white" stroke-width="1.72971" stroke-linecap="round" stroke-linejoin="round"/>
<path d="M15.5957 18.5479L20.0561 21.147" stroke="white" stroke-width="1.72971" stroke-linecap="round" stroke-linejoin="round"/>
<path d="M20.0495 13.9761L15.5957 16.5752" stroke="white" stroke-width="1.72971" stroke-linecap="round" stroke-linejoin="round"/>
</svg>
