<svg width="19" height="25" viewBox="0 0 19 25" fill="none" xmlns="http://www.w3.org/2000/svg">
<path d="M4.21875 9.71863V5.21863M4.21875 5.21863C5.71875 4.18738 9.9 2.74363 14.625 5.21863M4.21875 5.21863L1.125 3.53125M14.625 5.21863V9.71863M14.625 5.21863L17.096 3.8709C17.3288 3.74395 17.2945 3.39959 17.0413 3.321L9.85395 1.09045C9.66398 1.03149 9.46073 1.03053 9.27021 1.08769L1.125 3.53125M1.125 3.53125V9.15613" stroke="#8019B0" stroke-width="1.5"/>
<circle cx="1.125" cy="8.875" r="1.125" fill="#8019B0"/>
<circle cx="9.5625" cy="15.625" r="7.6875" stroke="#8019B0" stroke-width="1.5"/>
<path d="M10.1904 10V11.7695H9.29089V10H10.1904ZM10.0794 19.664V21.25H9.18575V19.664H10.0794ZM10.9614 17.7525C10.9614 17.5237 10.9147 17.3244 10.8213 17.1548C10.7317 16.9812 10.5837 16.8254 10.3773 16.6873C10.171 16.5452 9.89447 16.4131 9.5479 16.2908C9.04945 16.1132 8.61332 15.914 8.23949 15.6931C7.86955 15.4682 7.58139 15.192 7.375 14.8645C7.17251 14.5331 7.07126 14.1209 7.07126 13.6277C7.07126 13.1424 7.1803 12.7223 7.39836 12.3672C7.62033 12.0121 7.92796 11.7379 8.32126 11.5446C8.71456 11.3513 9.17407 11.2546 9.69977 11.2546C10.1048 11.2546 10.4688 11.3158 10.7921 11.4381C11.1192 11.5604 11.3976 11.7399 11.6273 11.9766C11.8571 12.2133 12.0323 12.5053 12.153 12.8524C12.2776 13.1957 12.34 13.5902 12.34 14.036H10.9381C10.9381 13.7835 10.9089 13.5587 10.8505 13.3614C10.796 13.1602 10.7142 12.9905 10.6051 12.8524C10.4961 12.7104 10.3637 12.6019 10.2079 12.527C10.0561 12.452 9.88279 12.4145 9.68808 12.4145C9.4116 12.4145 9.1838 12.4678 9.00467 12.5743C8.82555 12.6769 8.69315 12.8189 8.60748 13.0004C8.5257 13.1819 8.48481 13.389 8.48481 13.6218C8.48481 13.8467 8.52765 14.0439 8.61332 14.2136C8.69899 14.3832 8.84502 14.5371 9.0514 14.6752C9.26168 14.8093 9.54984 14.9454 9.91589 15.0835C10.4182 15.265 10.8524 15.4682 11.2185 15.6931C11.5884 15.914 11.8727 16.1882 12.0713 16.5156C12.2738 16.8392 12.375 17.2475 12.375 17.7407C12.375 18.2496 12.2582 18.6816 12.0245 19.0367C11.7948 19.3918 11.4716 19.662 11.0549 19.8474C10.6421 20.0289 10.1612 20.1197 9.61215 20.1197C9.26558 20.1197 8.92095 20.0743 8.57827 19.9836C8.23949 19.8889 7.93185 19.735 7.65537 19.522C7.37889 19.3089 7.15888 19.0268 6.99533 18.6757C6.83178 18.3206 6.75 17.8866 6.75 17.3738H8.16355C8.16355 17.6815 8.20444 17.9379 8.28621 18.1431C8.36799 18.3482 8.47897 18.51 8.61916 18.6284C8.75935 18.7467 8.91511 18.8315 9.08645 18.8828C9.26168 18.9341 9.43692 18.9598 9.61215 18.9598C9.90421 18.9598 10.1495 18.9104 10.3481 18.8118C10.5506 18.7092 10.7025 18.5672 10.8037 18.3857C10.9089 18.2003 10.9614 17.9892 10.9614 17.7525Z" fill="#8019B0"/>
</svg>
