<svg width="17" height="22" viewBox="0 0 17 22" fill="none" xmlns="http://www.w3.org/2000/svg">
<path d="M3.75 8.99989V4.99989M3.75 4.99989C5.08333 4.08322 8.8 2.79989 13 4.99989M3.75 4.99989L1 3.5M13 4.99989V8.99989M13 4.99989L15.1273 3.83965C15.36 3.7127 15.3258 3.36834 15.0725 3.28975L8.79145 1.34045C8.60148 1.28149 8.39823 1.28053 8.2077 1.33769L1 3.5M1 3.5V8.49989" stroke="#15234A" stroke-width="1.5"/>
<circle cx="1" cy="8.25" r="1" fill="#15234A"/>
<circle cx="8.5" cy="14.25" r="6.75" stroke="#15234A" stroke-width="1.5"/>
<path d="M9.05815 9.25V10.8229H8.25857V9.25H9.05815ZM8.9595 17.8402V19.25H8.16511V17.8402H8.9595ZM9.74351 16.1411C9.74351 15.9377 9.70197 15.7606 9.6189 15.6098C9.53929 15.4555 9.40775 15.317 9.2243 15.1942C9.04084 15.068 8.79508 14.9505 8.48702 14.8418C8.04396 14.684 7.65628 14.5069 7.32399 14.3105C6.99515 14.1106 6.73901 13.8651 6.55556 13.574C6.37556 13.2795 6.28557 12.913 6.28557 12.4746C6.28557 12.0433 6.38249 11.6698 6.57632 11.3542C6.77362 11.0385 7.04708 10.7948 7.39668 10.623C7.74628 10.4511 8.15472 10.3652 8.62201 10.3652C8.982 10.3652 9.30564 10.4196 9.59294 10.5283C9.8837 10.637 10.1312 10.7966 10.3354 11.007C10.5396 11.2174 10.6954 11.4769 10.8027 11.7855C10.9135 12.0906 10.9688 12.4413 10.9688 12.8376H9.72274C9.72274 12.6131 9.69678 12.4132 9.64486 12.2379C9.5964 12.059 9.52371 11.9083 9.42679 11.7855C9.32987 11.6593 9.21218 11.5628 9.07373 11.4962C8.93873 11.4296 8.7847 11.3962 8.61163 11.3962C8.36587 11.3962 8.16338 11.4436 8.00415 11.5383C7.84493 11.6294 7.72724 11.7557 7.65109 11.917C7.5784 12.0783 7.54206 12.2624 7.54206 12.4694C7.54206 12.6693 7.58013 12.8446 7.65628 12.9954C7.73243 13.1462 7.86224 13.283 8.04569 13.4057C8.23261 13.5249 8.48875 13.6459 8.81412 13.7687C9.26064 13.93 9.64659 14.1106 9.97196 14.3105C10.3008 14.5069 10.5535 14.7506 10.73 15.0417C10.91 15.3293 11 15.6922 11 16.1306C11 16.583 10.8962 16.967 10.6885 17.2826C10.4843 17.5982 10.197 17.8385 9.82658 18.0033C9.45967 18.1646 9.03219 18.2453 8.54413 18.2453C8.23607 18.2453 7.92973 18.2049 7.62513 18.1243C7.32399 18.0401 7.05054 17.9033 6.80478 17.714C6.55902 17.5246 6.36345 17.2738 6.21807 16.9617C6.07269 16.6461 6 16.2603 6 15.8044H7.25649C7.25649 16.078 7.29283 16.3059 7.36552 16.4883C7.43821 16.6707 7.53686 16.8144 7.66147 16.9196C7.78609 17.0249 7.92454 17.1003 8.07684 17.1458C8.23261 17.1914 8.38837 17.2142 8.54413 17.2142C8.80374 17.2142 9.02181 17.1704 9.19834 17.0827C9.37833 16.9915 9.51333 16.8653 9.60332 16.704C9.69678 16.5391 9.74351 16.3515 9.74351 16.1411Z" fill="#15234A"/>
</svg>
