<svg width="18" height="18" viewBox="0 0 18 18" fill="none" xmlns="http://www.w3.org/2000/svg">
<path d="M9 7.95367C9.45536 7.95367 9.90049 7.81864 10.2791 7.56566C10.6577 7.31268 10.9528 6.95312 11.1271 6.53243C11.3013 6.11174 11.3469 5.64883 11.2581 5.20223C11.1693 4.75563 10.95 4.3454 10.628 4.02342C10.306 3.70144 9.89577 3.48217 9.44916 3.39334C9.00255 3.3045 8.53963 3.35009 8.11894 3.52435C7.69824 3.6986 7.33867 3.99369 7.08569 4.3723C6.8327 4.75091 6.69767 5.19603 6.69767 5.65138C6.69812 6.26185 6.94083 6.84719 7.3725 7.27885C7.80417 7.71052 8.38952 7.95322 9 7.95367ZM9 4.60489C9.20698 4.60489 9.40931 4.66627 9.58141 4.78126C9.75351 4.89625 9.88764 5.05969 9.96685 5.25091C10.0461 5.44213 10.0668 5.65254 10.0264 5.85554C9.98602 6.05854 9.88635 6.24501 9.74 6.39137C9.59364 6.53772 9.40717 6.63739 9.20416 6.67777C9.00116 6.71815 8.79074 6.69742 8.59952 6.61822C8.40829 6.53901 8.24485 6.40488 8.12986 6.23278C8.01486 6.06069 7.95349 5.85836 7.95349 5.65138C7.95393 5.37397 8.06433 5.10805 8.26049 4.91189C8.45666 4.71573 8.72258 4.60533 9 4.60489ZM17.3721 16.7442H17.1628V9.41876C17.1864 9.16549 17.1539 8.91014 17.0676 8.67087C16.9813 8.4316 16.8433 8.2143 16.6634 8.03444C16.4835 7.85458 16.2662 7.71658 16.027 7.63027C15.7877 7.54396 15.5323 7.51145 15.2791 7.53507H14.6512V4.87447L15.3511 5.33743C15.4197 5.38585 15.4974 5.41999 15.5795 5.43785C15.6615 5.45571 15.7464 5.45691 15.8289 5.4414C15.9115 5.42589 15.9901 5.39397 16.0601 5.34753C16.1301 5.30109 16.19 5.24108 16.2364 5.17105C16.2828 5.10102 16.3147 5.0224 16.3301 4.93984C16.3456 4.85727 16.3443 4.77244 16.3264 4.69038C16.3085 4.60831 16.2743 4.53068 16.2258 4.46207C16.1774 4.39346 16.1156 4.33527 16.0443 4.29094L10.0448 0.31678C9.73583 0.110243 9.37251 0 9.00084 0C8.62916 0 8.26584 0.110243 7.95684 0.31678L1.95572 4.29094C1.82222 4.38509 1.73067 4.52755 1.7005 4.6881C1.67033 4.84865 1.70391 5.01463 1.79412 5.15082C1.88433 5.287 2.02407 5.38267 2.18367 5.41752C2.34327 5.45236 2.51017 5.42363 2.64893 5.33743L3.34884 4.87447V7.53507H2.72093C2.46766 7.51145 2.2123 7.54396 1.97303 7.63027C1.73376 7.71658 1.51645 7.85458 1.33659 8.03444C1.15672 8.2143 1.01872 8.4316 0.932409 8.67087C0.846095 8.91014 0.81359 9.16549 0.837209 9.41876V16.7442H0.627907C0.461376 16.7442 0.301665 16.8104 0.18391 16.9281C0.0661543 17.0459 0 17.2056 0 17.3721C0 17.5386 0.0661543 17.6983 0.18391 17.8161C0.301665 17.9338 0.461376 18 0.627907 18H17.3721C17.5386 18 17.6983 17.9338 17.8161 17.8161C17.9338 17.6983 18 17.5386 18 17.3721C18 17.2056 17.9338 17.0459 17.8161 16.9281C17.6983 16.8104 17.5386 16.7442 17.3721 16.7442ZM2.09302 9.41876C2.09302 8.92565 2.22781 8.79086 2.72093 8.79086H3.34884V16.7442H2.09302V9.41876ZM4.60465 4.04229L8.65172 1.36327C8.75499 1.29406 8.87651 1.2571 9.00084 1.2571C9.12516 1.2571 9.24668 1.29406 9.34995 1.36327L13.3953 4.04229V16.7442H11.3023V14.8605C11.3023 14.2499 11.0598 13.6643 10.628 13.2326C10.1962 12.8008 9.61061 12.5582 9 12.5582C8.38939 12.5582 7.80378 12.8008 7.37201 13.2326C6.94024 13.6643 6.69767 14.2499 6.69767 14.8605V16.7442H4.60465V4.04229ZM7.95349 16.7442V14.8605C7.95349 14.583 8.06375 14.3168 8.26 14.1205C8.45626 13.9243 8.72245 13.814 9 13.814C9.27755 13.814 9.54374 13.9243 9.74 14.1205C9.93625 14.3168 10.0465 14.583 10.0465 14.8605V16.7442H7.95349ZM14.6512 16.7442V8.79086H15.2791C15.7722 8.79086 15.907 8.92565 15.907 9.41876V16.7442H14.6512ZM11.5116 9.62806C11.6358 9.62806 11.7572 9.66488 11.8605 9.73388C11.9637 9.80287 12.0442 9.90093 12.0917 10.0157C12.1393 10.1304 12.1517 10.2566 12.1275 10.3784C12.1032 10.5002 12.0434 10.6121 11.9556 10.6999C11.8678 10.7878 11.7559 10.8476 11.6341 10.8718C11.5123 10.896 11.3861 10.8836 11.2713 10.8361C11.1566 10.7885 11.0585 10.708 10.9895 10.6048C10.9205 10.5015 10.8837 10.3801 10.8837 10.256C10.8837 10.0894 10.9499 9.92972 11.0676 9.81196C11.1854 9.69421 11.3451 9.62806 11.5116 9.62806ZM9.62791 10.256C9.62791 10.3801 9.59108 10.5015 9.52209 10.6048C9.45309 10.708 9.35502 10.7885 9.24029 10.8361C9.12555 10.8836 8.9993 10.896 8.8775 10.8718C8.7557 10.8476 8.64382 10.7878 8.556 10.6999C8.46819 10.6121 8.40839 10.5002 8.38416 10.3784C8.35993 10.2566 8.37236 10.1304 8.41989 10.0157C8.46741 9.90093 8.54789 9.80287 8.65115 9.73388C8.75441 9.66488 8.87581 9.62806 9 9.62806C9.16653 9.62806 9.32624 9.69421 9.444 9.81196C9.56175 9.92972 9.62791 10.0894 9.62791 10.256ZM6.48837 10.8838C6.36418 10.8838 6.24278 10.847 6.13953 10.778C6.03627 10.709 5.95579 10.611 5.90826 10.4962C5.86074 10.3815 5.8483 10.2553 5.87253 10.1335C5.89676 10.0117 5.95656 9.89978 6.04437 9.81196C6.13219 9.72415 6.24407 9.66435 6.36587 9.64012C6.48768 9.61589 6.61393 9.62833 6.72866 9.67585C6.8434 9.72338 6.94146 9.80385 7.01046 9.90711C7.07945 10.0104 7.11628 10.1318 7.11628 10.256C7.11628 10.4225 7.05012 10.5822 6.93237 10.6999C6.81461 10.8177 6.6549 10.8838 6.48837 10.8838Z" fill="#8019B0"/>
</svg>
