<svg width="50" height="50" viewBox="0 0 50 50" fill="none" xmlns="http://www.w3.org/2000/svg">
<g filter="url(#filter0_d_1065_453)">
<circle cx="25" cy="25" r="19" fill="white"/>
</g>
<path d="M36.1108 30.5727V23.6716L36.3134 23.5569C36.7435 23.3142 37 22.8813 37 22.3985C37 21.9157 36.7435 21.482 36.3134 21.2393L25.9189 15.3711C25.0442 14.8759 23.9558 14.8767 23.0811 15.3711L12.6857 21.2402C12.2565 21.4828 12 21.9157 12 22.3985C12 22.8813 12.2565 23.3142 12.6857 23.5577L15.8373 25.3376V29.475C15.8373 30.4356 16.3692 31.3288 17.2242 31.8083L21.5626 34.2388C22.468 34.7457 23.4838 35 24.4996 35C25.5153 35 26.5302 34.7466 27.4366 34.2388L31.7741 31.8083C32.63 31.3297 33.1618 30.4356 33.1618 29.475V25.3368L34.5717 24.5407V30.5727C34.2101 30.812 33.9724 31.215 33.9724 31.6728C33.9724 32.4074 34.5854 33.0032 35.3413 33.0032C36.0971 33.0032 36.7101 32.4074 36.7101 31.6728C36.7101 31.2158 36.4725 30.8128 36.1108 30.5727ZM31.6236 29.4741H31.6228C31.6228 29.9012 31.3876 30.2984 31.0063 30.5112L26.6688 32.9417C25.3315 33.6904 23.6685 33.6904 22.3321 32.9417L17.9937 30.5112C17.6132 30.2984 17.3772 29.9012 17.3772 29.4741V26.206L23.0811 29.4268C23.5189 29.6736 24.0096 29.7974 24.5004 29.7974C24.9912 29.7974 25.482 29.6744 25.9198 29.4268L31.6236 26.206V29.4741ZM25.146 28.1338C24.7475 28.359 24.2525 28.359 23.854 28.1338L13.6972 22.3985L23.8532 16.6633C24.2516 16.4381 24.7467 16.4381 25.1451 16.6633L35.3019 22.3977L25.146 28.1338Z" fill="#000C2E"/>
<defs>
<filter id="filter0_d_1065_453" x="0" y="0" width="50" height="50" filterUnits="userSpaceOnUse" color-interpolation-filters="sRGB">
<feFlood flood-opacity="0" result="BackgroundImageFix"/>
<feColorMatrix in="SourceAlpha" type="matrix" values="0 0 0 0 0 0 0 0 0 0 0 0 0 0 0 0 0 0 127 0" result="hardAlpha"/>
<feOffset/>
<feGaussianBlur stdDeviation="3"/>
<feComposite in2="hardAlpha" operator="out"/>
<feColorMatrix type="matrix" values="0 0 0 0 0 0 0 0 0 0 0 0 0 0 0 0 0 0 0.1 0"/>
<feBlend mode="normal" in2="BackgroundImageFix" result="effect1_dropShadow_1065_453"/>
<feBlend mode="normal" in="SourceGraphic" in2="effect1_dropShadow_1065_453" result="shape"/>
</filter>
</defs>
</svg>
