<svg width="452" height="311" viewBox="0 0 452 311" fill="none" xmlns="http://www.w3.org/2000/svg">
<path d="M9.73979 224.724L34.5074 256.539C43.0191 267.492 56.0657 273.841 69.9495 273.841H377.487C389.068 273.841 400.161 269.376 408.464 261.422L413.766 256.399C443.208 228.283 448.929 183.422 427.58 148.817C422.417 140.445 420.115 130.538 421.092 120.7C424.789 84.0025 400.371 50.3046 364.37 42.4208L295.719 27.3509C242.834 15.7694 187.508 27.5602 143.973 59.7232C136.02 65.5837 130.369 69.4907 129.462 69.4907C127.717 69.421 101.206 73.6071 75.81 77.7234C48.461 82.1187 28.1585 105.561 27.6701 133.259C27.4608 145.189 22.5073 156.491 13.9956 164.794C-2.53937 180.771 -4.35334 206.655 9.73979 224.724Z" fill="#F3F8FF"/>
<path d="M245.691 250.468H189.598V287.096H245.691V250.468Z" fill="#0058C6"/>
<path d="M245.691 250.468H189.598V266.724H245.691V250.468Z" fill="#0E35AF"/>
<path d="M352.016 237.98H83.3398V98.932C83.3398 91.5366 89.3399 85.4668 96.8051 85.4668H338.551C345.946 85.4668 352.016 91.4668 352.016 98.932V237.98Z" fill="#15234A"/>
<path d="M342.668 101.374H92.6895V230.863H342.668V101.374Z" fill="white"/>
<path d="M352.016 230.794H83.3398V244.398C83.3398 251.794 89.3399 257.864 96.8051 257.864H338.551C345.946 257.864 352.016 251.864 352.016 244.398V230.794Z" fill="#15234A"/>
<path d="M217.712 250.539C220.525 250.539 222.805 248.258 222.805 245.446C222.805 242.633 220.525 240.353 217.712 240.353C214.899 240.353 212.619 242.633 212.619 245.446C212.619 248.258 214.899 250.539 217.712 250.539Z" fill="white"/>
<path d="M318.877 293.794H116.48C114.596 293.794 113.131 292.259 113.131 290.445C113.131 285.003 117.526 280.538 123.038 280.538H312.458C317.9 280.538 322.365 284.933 322.365 290.445C322.295 292.259 320.76 293.794 318.877 293.794Z" fill="#57AFF7"/>
<path d="M162.529 132.002H106.714C105.04 132.002 103.645 130.607 103.645 128.932V115.816C103.645 114.141 105.04 112.746 106.714 112.746H162.529C164.203 112.746 165.598 114.141 165.598 115.816V128.932C165.598 130.607 164.203 132.002 162.529 132.002Z" fill="#AFD9FF"/>
<path d="M118.927 124.449C120.068 121.71 118.772 118.565 116.034 117.424C113.295 116.283 110.15 117.579 109.009 120.317C107.868 123.056 109.164 126.201 111.902 127.342C114.641 128.483 117.786 127.187 118.927 124.449Z" fill="#476DD2"/>
<path d="M110.342 126.35C111.319 127.187 112.574 127.745 113.97 127.745C115.365 127.745 116.621 127.187 117.598 126.35C117.458 124.954 116.551 123.768 115.295 123.28C115.853 122.861 116.202 122.233 116.202 121.466C116.202 120.21 115.226 119.233 113.97 119.233C112.714 119.233 111.737 120.21 111.737 121.466C111.737 122.164 112.086 122.861 112.644 123.28C111.388 123.768 110.481 124.954 110.342 126.35Z" fill="#F7F7F7"/>
<path d="M152.136 119.581H123.322V120.628H152.136V119.581Z" fill="#DCF1FF"/>
<path d="M160.718 121.884H123.322V122.93H160.718V121.884Z" fill="#DCF1FF"/>
<path d="M160.718 124.186H123.322V125.232H160.718V124.186Z" fill="#DCF1FF"/>
<path d="M137.479 148.467H105.246C104.409 148.467 103.711 147.769 103.711 146.932V141.141C103.711 140.304 104.409 139.606 105.246 139.606H137.479C138.316 139.606 139.014 140.304 139.014 141.141V146.932C139.014 147.769 138.316 148.467 137.479 148.467Z" fill="#AFD9FF"/>
<path d="M137.479 160.956H105.246C104.409 160.956 103.711 160.259 103.711 159.421V153.631C103.711 152.793 104.409 152.096 105.246 152.096H137.479C138.316 152.096 139.014 152.793 139.014 153.631V159.421C139.014 160.259 138.316 160.956 137.479 160.956Z" fill="#AFD9FF"/>
<path d="M137.479 173.445H105.246C104.409 173.445 103.711 172.747 103.711 171.91V166.119C103.711 165.282 104.409 164.584 105.246 164.584H137.479C138.316 164.584 139.014 165.282 139.014 166.119V171.91C139.014 172.747 138.316 173.445 137.479 173.445Z" fill="#DCF1FF"/>
<path d="M178.152 160.956H145.92C145.082 160.956 144.385 160.259 144.385 159.421V153.631C144.385 152.793 145.082 152.096 145.92 152.096H178.152C178.99 152.096 179.687 152.793 179.687 153.631V159.421C179.687 160.259 178.99 160.956 178.152 160.956Z" fill="#FF8000"/>
<path d="M178.152 173.445H145.92C145.082 173.445 144.385 172.747 144.385 171.91V166.119C144.385 165.282 145.082 164.584 145.92 164.584H178.152C178.99 164.584 179.687 165.282 179.687 166.119V171.91C179.687 172.747 178.99 173.445 178.152 173.445Z" fill="#AFD9FF"/>
<path d="M330.184 165.351H297.951C297.114 165.351 296.416 164.653 296.416 163.816V158.025C296.416 157.188 297.114 156.49 297.951 156.49H330.184C331.021 156.49 331.719 157.188 331.719 158.025V163.816C331.719 164.653 331.021 165.351 330.184 165.351Z" fill="#AFD9FF"/>
<path d="M330.184 177.84H297.951C297.114 177.84 296.416 177.143 296.416 176.305V170.515C296.416 169.677 297.114 168.98 297.951 168.98H330.184C331.021 168.98 331.719 169.677 331.719 170.515V176.305C331.719 177.143 331.021 177.84 330.184 177.84Z" fill="#AFD9FF"/>
<path d="M330.184 190.329H297.951C297.114 190.329 296.416 189.631 296.416 188.794V183.003C296.416 182.166 297.114 181.468 297.951 181.468H330.184C331.021 181.468 331.719 182.166 331.719 183.003V188.794C331.719 189.631 331.021 190.329 330.184 190.329Z" fill="#DCF1FF"/>
<path d="M175.297 110.027C173.692 150.283 154.994 154.4 175.297 183.423C195.599 212.447 265.646 202.191 266.832 180.214C268.018 158.237 253.228 144.981 262.925 117.423C272.623 89.8643 175.297 110.027 175.297 110.027Z" fill="#0C0835"/>
<path d="M180.53 120.772C178.158 139.051 171.878 157.121 175.088 167.028C175.088 167.028 175.437 155.865 177.53 153.144C177.53 153.144 175.437 168.842 181.855 181.54C188.274 194.237 257.274 191.865 257.274 191.865C257.274 191.865 258.67 177.912 257.274 167.865C255.879 157.749 253.158 153.842 252.391 148.47C252.391 148.47 256.646 157.26 258.321 160.609C259.995 163.958 260.205 168.912 260.205 168.912C260.205 168.912 260.623 159.981 257.135 153.074C253.646 146.237 255.74 127.33 256.786 119.935C257.833 112.609 208.088 103.888 202.716 106.818C197.274 109.748 180.53 120.772 180.53 120.772Z" fill="#0C0835"/>
<path d="M196.572 170.445C172.572 178.538 155.409 181.608 150.385 197.306C145.432 213.004 138.455 230.794 138.455 230.794H300.666C300.666 230.794 292.642 193.887 283.851 187.748C275.061 181.608 240.665 171.352 230.13 169.608C219.595 167.864 196.572 170.445 196.572 170.445Z" fill="#476DD2"/>
<path d="M262.642 205.957C262.642 205.957 263.27 220.678 261.107 230.794H266.619L262.642 205.957Z" fill="#2E53B7"/>
<path d="M177.316 211.749C177.316 211.749 176.828 223.051 178.502 230.796H174.316L177.316 211.749Z" fill="#2E53B7"/>
<path d="M158.06 192.841C160.153 187.33 166.92 180.771 166.92 180.771C158.688 184.539 152.897 189.283 150.385 197.306C145.432 213.004 138.455 230.795 138.455 230.795H151.571C150.944 214.121 155.967 198.353 158.06 192.841Z" fill="#476DD2"/>
<path d="M225.874 200.934C225.874 200.934 214.223 200.167 207.176 194.795C200.13 189.423 201.037 184.12 201.037 184.12C201.037 184.12 195.874 184.469 193.99 184.12C192.106 183.772 194.827 163.818 205.99 163.469C217.153 163.12 240.456 167.725 243.386 167.864C246.246 168.004 255.735 176.516 253.293 187.26C252.944 189.004 248.27 184.12 246.177 186.632C244.084 189.144 242.339 199.609 225.874 200.934Z" fill="#0058C6"/>
<path d="M222.038 197.724C222.038 197.724 208.014 188.305 201.735 169.887C200.759 166.956 202.433 165.352 205.503 164.863L222.038 197.724Z" fill="#0E35AF"/>
<path d="M226.502 200.586C234.735 195.353 242.27 182.446 244.572 178.12C246.874 173.795 246.944 169.748 239.967 169.051C232.851 168.283 226.502 200.586 226.502 200.586Z" fill="#0E35AF"/>
<path d="M240.944 142.887C238.851 159.911 237.595 169.05 243.316 176.097C243.316 176.097 233.13 196.748 225.874 200.934C225.874 200.934 208.501 188.516 203.688 168.632C203.688 168.632 206.548 164.236 206.967 157.748C207.315 151.259 206.408 139.957 206.408 139.957L240.944 142.887Z" fill="#FFD3B6"/>
<path d="M236.48 188.306C225.875 201.143 214.922 190.329 210.875 184.817C217.573 195.004 225.875 200.934 225.875 200.934C229.224 199.05 233.201 193.608 236.48 188.306Z" fill="#FFC29A"/>
<path d="M206.966 157.748C206.617 163.33 204.524 167.306 203.896 168.353C211.78 166.957 228.664 163.748 239.199 159.981C239.339 155.306 240.036 149.725 240.943 142.888L219.873 141.143L206.408 140.236C206.548 141.911 207.315 151.818 206.966 157.748Z" fill="#FFC29A"/>
<path d="M268.433 99.4226C269.13 88.6783 269.27 78.9108 260.898 66.3526C252.526 53.7944 254.27 86.9341 254.409 87.283C254.549 87.6318 261.874 101.585 261.874 101.585L268.433 99.4226Z" fill="#FFC182"/>
<path d="M263.687 116.446C262.641 122.655 263.338 127.748 266.338 128.237C269.269 128.725 272.548 124.121 273.664 117.981C274.711 111.772 273.176 106.399 270.246 105.841C267.176 105.353 264.734 110.237 263.687 116.446Z" fill="#FF8000"/>
<path d="M269.481 120.422L267.598 121.19L265.784 126.283C265.784 126.283 265.505 126.911 265.086 127.748C265.435 128.027 265.853 128.236 266.272 128.306C268.923 128.724 271.784 125.166 273.109 120.073C270.807 121.259 269.481 120.422 269.481 120.422Z" fill="#CB7E30"/>
<path d="M260.967 97.3992C263.27 96.9806 269.758 98.7248 270.525 102.074C272.2 109.748 269.409 127.539 264.246 131.934C262.363 133.539 257.2 133.19 255.316 132.632C250.642 131.167 250.642 123.702 252.316 113.725C254.06 103.748 257.758 98.0271 260.967 97.3992Z" fill="#FF8000"/>
<path d="M269.48 120.423C267.108 122.167 265.852 120.423 265.852 120.423C264.247 123.841 261.247 123.841 257.48 124.4L255.387 123.283C255.387 123.283 253.364 124.818 251.41 126.144C251.759 129.562 252.945 131.935 255.317 132.632C257.131 133.19 262.364 133.539 264.247 131.935C266.48 129.981 268.294 125.516 269.48 120.423Z" fill="#CB7E30"/>
<path d="M270.527 102.074C269.759 98.7248 263.271 96.9806 260.968 97.3992C260.759 97.4689 260.62 97.4689 260.41 97.5387C264.596 97.2596 266.829 100.19 267.317 103.539C267.806 106.888 267.317 122.237 262.364 128.934C261.736 129.772 260.62 132.283 256.922 132.841C259.294 133.12 262.782 133.12 264.317 131.795C269.41 127.539 272.201 109.748 270.527 102.074Z" fill="#FFC182"/>
<path d="M269.48 120.423C267.107 122.167 265.852 120.423 265.852 120.423C265.084 123.702 263.898 126.841 262.293 129.004C261.666 129.842 260.549 132.353 256.852 132.911C259.224 133.19 262.712 133.19 264.247 131.865C266.48 129.981 268.294 125.516 269.48 120.423Z" fill="#FF8000"/>
<path d="M261.316 115.12C260.409 120.492 258.456 124.678 256.991 124.469C255.525 124.19 255.107 119.655 256.084 114.213C256.99 108.841 258.944 104.655 260.409 104.864C261.804 105.143 262.223 109.748 261.316 115.12Z" fill="#CB7E30"/>
<path d="M189.037 132.282C189.106 132.422 189.176 132.631 189.246 132.771C191.618 138.213 195.804 143.864 199.99 148.05C206.13 154.329 214.432 159.701 223.293 160.887C232.781 162.143 241.502 156.911 247.851 150.143C250.781 147.004 253.014 143.166 253.99 138.98C254.967 134.515 254.479 129.771 255.177 125.236C255.595 122.794 256.572 120.492 257.409 118.189C259.921 111.073 261.177 103.05 260.339 95.3752C259.99 92.1659 259.432 87.5612 257.758 84.8403C255.735 81.631 251.2 79.1193 248.06 77.2356C238.083 71.0262 224.897 68.7239 213.595 72.2821C202.013 75.91 192.595 85.1194 187.711 96.1427C185.409 101.375 184.013 106.468 185.199 112.12C186.455 118.957 186.246 125.515 189.037 132.282Z" fill="#FFD3B6"/>
<path d="M186.734 105.909C186.734 105.909 204.735 110.863 220.572 105.909C236.409 100.956 241.851 91.0488 243.177 85.886C243.177 85.886 256.153 96.0721 258.735 111.002C258.735 111.002 259.642 84.4208 251.339 81.072C243.037 77.7929 225.735 73.3975 223.851 75.1417C221.967 76.8859 189.804 95.2349 189.804 95.2349L186.734 105.909Z" fill="#FFD3B6"/>
<path d="M205.014 106.328C206.339 105.701 207.665 105.142 209.06 104.654C210.456 104.166 211.921 103.817 213.386 103.677C214.851 103.468 216.456 103.259 217.921 103.677C220.084 104.235 220.921 104.724 221.967 105.701L221.897 105.91C221.13 105.98 220.363 105.91 219.665 105.91L217.572 105.77C216.177 105.701 214.851 105.352 213.456 105.352C212.06 105.352 210.665 105.491 209.27 105.701C207.874 105.91 206.479 106.259 205.014 106.538V106.328Z" fill="#0C0835"/>
<path d="M251.758 106.747C250.432 106.189 249.037 105.77 247.641 105.561C246.246 105.352 244.781 105.282 243.386 105.352C241.99 105.421 240.595 105.77 239.2 105.91C237.804 105.98 236.409 106.119 234.804 106.119L234.734 105.91C235.92 104.863 237.316 104.235 238.851 103.886C240.316 103.468 241.92 103.607 243.386 103.747C244.92 103.886 246.386 104.166 247.851 104.584C249.246 105.073 250.641 105.7 251.828 106.607L251.758 106.747Z" fill="#0C0835"/>
<path d="M213.735 117.143C214.506 117.143 215.131 115.894 215.131 114.352C215.131 112.811 214.506 111.562 213.735 111.562C212.965 111.562 212.34 112.811 212.34 114.352C212.34 115.894 212.965 117.143 213.735 117.143Z" fill="#0C0835"/>
<path d="M242.48 117.282C243.212 117.282 243.805 116.032 243.805 114.491C243.805 112.95 243.212 111.7 242.48 111.7C241.748 111.7 241.154 112.95 241.154 114.491C241.154 116.032 241.748 117.282 242.48 117.282Z" fill="#0C0835"/>
<path d="M232.294 127.748C231.875 128.795 231.247 129.771 230.271 130.329C229.294 130.888 228.108 131.097 227.061 130.678C225.387 129.981 224.968 128.027 227.201 128.446C228.108 128.585 228.945 128.725 229.852 128.585C230.271 128.585 232.085 128.306 232.294 127.748Z" fill="#FCB484"/>
<path d="M215.83 135.351C221.481 136.118 235.226 136.397 239.691 136.188C237.877 142.258 233.342 148.188 227.202 147.979C220.853 147.769 217.156 141.699 215.83 135.351Z" fill="#C31F2A"/>
<path d="M234.667 144.839C229.922 140.862 226.434 144.281 226.434 144.281C225.318 143.513 222.318 142.327 219.736 144.071C221.201 145.885 223.015 147.141 225.248 147.699C225.946 147.769 226.643 147.909 227.341 147.978C230.202 148.048 232.643 146.792 234.667 144.839Z" fill="#FB8384"/>
<path d="M217.295 135.56C217.365 136.606 217.574 137.583 217.923 138.56C224.062 140.792 230.969 141.211 237.318 139.536C237.528 138.49 237.737 137.374 237.876 136.257C232.644 136.327 222.807 136.048 217.295 135.56Z" fill="white"/>
<path d="M252.596 147.144C252.107 147.214 251.689 147.144 251.27 147.144C246.944 146.586 244.572 146.238 244.572 146.238L244.851 144.354C244.851 144.354 247.154 144.703 251.479 145.261C255.456 145.819 260.619 139.47 261.944 132.005C262.014 131.516 262.503 131.168 262.991 131.237C263.549 131.307 263.898 131.796 263.828 132.354C262.503 140.168 257.34 146.796 252.596 147.144Z" fill="#FFBF7F"/>
<path d="M263.689 131.518C263.689 131.587 263.689 131.657 263.689 131.727C262.294 139.611 257.131 146.239 252.387 146.657C251.898 146.727 251.48 146.657 251.061 146.657C247.643 146.169 245.48 145.89 244.712 145.82L244.643 146.378C244.643 146.378 246.945 146.727 251.34 147.285C251.759 147.355 252.247 147.355 252.666 147.285C257.34 146.936 262.573 140.239 263.968 132.355C263.968 132.006 263.829 131.727 263.689 131.518Z" fill="#FF8000"/>
<path d="M244.711 147.284L240.874 146.795C239.548 146.586 238.641 145.4 238.85 144.075C239.06 142.749 240.246 141.842 241.571 142.051L245.409 142.54C246.734 142.749 247.641 143.935 247.432 145.261C247.222 146.586 246.036 147.493 244.711 147.284Z" fill="#252384"/>
<path d="M246.872 143.377C246.872 143.516 246.872 143.726 246.872 143.865C246.663 145.191 245.477 146.098 244.151 145.888L240.802 145.4C239.895 145.26 239.198 144.633 238.918 143.865C238.918 143.935 238.918 144.005 238.849 144.005C238.639 145.33 239.616 146.516 240.872 146.726L244.709 147.214C246.035 147.423 247.221 146.447 247.43 145.191C247.5 144.563 247.291 143.865 246.872 143.377Z" fill="#261B60"/>
<path d="M239.476 81.213C239.476 81.213 258.592 89.2363 258.802 115.399C258.802 115.399 274.081 98.5852 265.081 73.3292C256.081 48.0732 230.127 49.05 230.127 49.05L239.476 81.213Z" fill="black"/>
<path d="M239.478 81.2143C239.478 81.2143 258.106 89.0283 258.734 114.494C258.734 114.354 258.734 114.215 258.734 114.075C258.455 88.4004 249.524 81.5631 240.734 76.8887L238.641 78.3538L239.478 81.2143Z" fill="black"/>
<path d="M185.616 104.516C185.616 104.516 238.291 107.586 242.547 80.7947C246.733 54.0039 233.268 47.5154 226.64 46.8875C220.012 46.2596 207.105 44.7247 196.081 55.3992C185.058 66.1435 172.709 72.6319 174.104 107.237L185.616 104.516Z" fill="black"/>
<path d="M184.568 97.2609C186.871 96.005 189.173 94.6794 191.406 93.2143C193.638 91.819 195.801 90.2841 197.964 88.7492C202.289 85.6096 206.406 82.2607 210.313 78.6328C206.755 82.6096 202.917 86.3771 198.871 89.9352C196.848 91.7492 194.824 93.4236 192.661 95.0981C190.568 96.7725 188.336 98.3074 186.103 99.912L184.568 97.2609Z" fill="black"/>
<path d="M214.501 57.7715C202.013 64.539 188.268 80.7949 187.989 94.1903C187.989 94.1903 182.687 89.3066 185.478 82.26C188.268 75.2135 196.431 67.4692 200.966 64.1204C205.501 60.7715 214.501 57.7715 214.501 57.7715Z" fill="black"/>
<path d="M188.755 98.7948C187.081 94.4692 188.197 79.6784 188.755 75.4923C189.313 71.3063 190.848 68.0969 190.988 67.3295C191.127 66.562 190.778 66.283 190.778 66.283C199.499 52.8875 211.779 51.0038 224.337 47.0968L223.639 46.748C216.593 46.1898 205.569 46.2596 196.011 55.5387C184.988 66.283 172.639 72.7714 174.034 107.376L185.685 104.586C185.685 104.586 203.685 105.632 219.523 101.167C201.871 104.516 190.43 103.12 188.755 98.7948Z" fill="#0C0835"/>
<path d="M235.987 80.7246C230.824 88.8177 224.405 96.2829 200.056 99.841C183.8 102.143 181.219 98.8643 181.219 98.8643C181.219 98.8643 209.614 96.9805 221.056 91.1898C232.498 85.3293 235.987 80.7246 235.987 80.7246Z" fill="black"/>
<path d="M189.246 66.8406C192.385 57.6312 208.223 47.166 226.572 46.887C226.572 46.887 217.153 44.5846 206.2 48.7009C195.246 52.7475 187.362 59.4452 183.037 66.9104C178.711 74.4453 189.246 66.8406 189.246 66.8406Z" fill="#FFC182"/>
<path d="M205.292 51.2119C195.245 55.2585 189.664 63.7004 189.664 63.7004C189.175 63.7701 184.571 64.6074 184.501 64.6074C184.013 65.3748 183.454 66.1423 183.036 66.9097C182.896 67.1888 182.757 67.3981 182.617 67.6772C184.082 67.6074 186.175 67.4678 186.733 67.7469C186.943 67.8167 187.431 67.8167 188.129 67.6074C188.827 67.119 189.245 66.8399 189.245 66.8399C192.385 57.6306 208.222 47.1654 226.571 46.8863C220.431 46.8165 215.269 47.1654 205.292 51.2119Z" fill="#FF8000"/>
<path d="M186.805 99.4221C185.968 82.2592 188.34 70.5381 190.503 67.3986C192.666 64.259 183.805 65.5846 181.991 68.0963C180.805 69.7009 176.898 83.3754 178.363 99.5616C179.828 115.748 186.805 99.4221 186.805 99.4221Z" fill="#FFC182"/>
<path d="M188.969 65.5156C189.736 65.7947 189.946 66.2133 189.387 66.9808C188.829 67.818 186.597 75.0738 186.039 81.4925C185.48 87.9111 185.76 94.6089 185.62 95.3763C185.48 96.1437 179.899 97.5391 178.225 96.7717C178.294 97.6786 178.364 98.5856 178.434 99.4926C178.573 100.679 178.643 101.725 178.853 102.562C180.527 102.772 182.899 102.841 185.062 102.841C186.108 101.097 186.876 99.3531 186.876 99.3531C186.039 82.1902 188.411 70.4691 190.574 67.3296C191.411 66.0738 190.504 65.5156 188.969 65.5156Z" fill="#FF8000"/>
<path d="M185.341 98.5842C183.109 97.9563 176.411 99.0028 175.365 102.282C172.923 109.747 173.83 127.677 178.504 132.561C180.179 134.375 185.411 134.584 187.295 134.166C192.109 133.189 192.876 125.724 192.248 115.677C191.551 105.631 188.481 99.4912 185.341 98.5842Z" fill="#FF8000"/>
<path d="M178.502 132.563C180.176 134.377 185.409 134.586 187.293 134.167C190.083 133.609 191.479 130.888 192.107 126.842C189.804 128.795 183.874 128.167 180.874 126.842C180.874 126.842 181.362 117.911 179.758 112.818C179.758 112.818 176.897 119.097 175.223 124.888C175.92 128.237 177.037 131.028 178.502 132.563Z" fill="#CB7E30"/>
<path d="M184.503 116.236C185.131 125.236 182.969 132.701 179.759 132.91C176.55 133.12 173.41 126.003 172.782 117.003C172.155 108.003 174.317 100.538 177.527 100.329C180.806 100.119 183.945 107.236 184.503 116.236Z" fill="#FFC182"/>
<path d="M180.387 120.004C180.387 120.004 176.271 120.492 174.666 126.771C175.992 130.609 177.875 133.051 179.759 132.911C181.433 132.771 182.759 130.818 183.596 127.678C182.55 127.469 181.573 127.19 180.806 126.841C180.875 126.841 181.224 125.376 180.387 120.004Z" fill="#FF8000"/>
<path d="M180.317 117.283C180.805 124.05 179.549 129.422 176.549 129.632C173.549 129.841 170.758 124.539 170.27 117.771C169.782 111.004 171.875 105.422 174.875 105.213C177.875 105.003 179.828 110.515 180.317 117.283Z" fill="#FF8000"/>
<path d="M175.782 127.259C174.387 127.329 173.061 126.562 171.875 125.097C173.061 127.957 174.735 129.701 176.48 129.631C179.061 129.422 180.317 125.445 180.317 120.073C179.759 124.259 178.224 127.12 175.782 127.259Z" fill="#CB7E30"/>
<path d="M321.466 152.582C320.838 154.884 322.792 156.907 323.49 157.326C324.118 157.675 328.443 159.489 331.164 159.558C333.815 159.628 337.792 153.977 336.397 153.349C335.001 152.721 325.164 152.023 324.118 152.023C323.071 152.023 321.466 152.582 321.466 152.582Z" fill="#FFD8BE"/>
<path d="M328.584 151.326C329.282 158.233 331.654 163.535 332.491 163.675C333.328 163.745 341.91 160.884 344.282 159.838C346.654 158.791 344.84 142.605 343.375 142.954C341.91 143.233 338.561 146.372 335.84 147.838C333.119 149.303 328.584 151.326 328.584 151.326Z" fill="#FC7E01"/>
<path d="M342.047 154.188C341.14 155.584 334.303 159.072 330.535 160.328C331.303 162.351 332.07 163.607 332.489 163.677C333.256 163.747 339.605 161.654 342.884 160.398C342.814 157.816 342.047 154.188 342.047 154.188Z" fill="#FC7E01"/>
<path d="M321.467 152.234C321.188 154.955 323.63 155.374 326.63 154.676C329.63 153.978 334.932 147.35 337.304 144.35C339.677 141.35 344.072 136.048 344.909 135.56C345.746 135.071 347.7 134.862 349.514 132.141C351.328 129.42 349.584 123.838 348.886 123.141C348.188 122.443 341.421 124.676 340.583 125.862C339.746 126.978 340.583 133.048 340.304 133.815C340.025 134.583 333.956 140.792 331.444 142.327C328.862 143.862 321.607 150.281 321.467 152.234Z" fill="#FFD8BE"/>
<path d="M345.118 127.606C345.885 127.257 346.234 125.513 345.746 125.792C345.257 126.071 344.42 126.071 343.234 126.071C342.118 126.071 341.629 125.931 341.629 125.931C341.629 125.931 341.49 126.699 341.42 127.327C341.42 127.327 344.35 128.024 345.118 127.606Z" fill="#FFCFAF"/>
<path d="M350.211 128.025C349.793 127.188 349.514 126.49 349.514 126.49L344.7 130.816C343.514 129.769 342.118 128.793 342.118 128.793L341.7 129.49C342.328 130.746 342.816 133.327 342.746 133.955C342.746 133.955 343.374 134.723 343.793 134.793C343.793 134.793 338.421 142.467 335.002 146.165C331.653 149.932 329.281 153.142 327.746 154.188C330.816 152.514 335.211 147.002 337.304 144.351C339.676 141.351 344.072 136.048 344.909 135.56C345.746 135.072 347.7 134.862 349.514 132.141C350.142 131.025 350.281 129.49 350.211 128.025Z" fill="#FFCFAF"/>
<path d="M340.792 128.443C340.792 128.862 345.047 132.769 345.466 133.187C345.466 133.187 345.815 133.257 345.954 133.187C347.21 132.141 353.141 122.652 353.21 122.373C353.35 122.024 350.071 118.815 349.094 117.908C348.954 117.769 348.327 117.838 348.257 117.978C347.071 119.583 340.722 127.885 340.792 128.443Z" fill="#0C0835"/>
<path d="M341.278 128.443C341.278 128.861 345.534 132.768 345.952 133.187C346.371 133.605 353.557 122.722 353.697 122.373C353.836 122.024 350.208 118.884 349.231 117.977C349.092 117.838 348.883 117.908 348.813 118.047C347.557 119.582 341.208 127.884 341.278 128.443Z" fill="#252384"/>
<path d="M342.047 127.815C342.047 128.234 346.024 131.862 346.372 132.28C346.791 132.699 353.489 122.513 353.628 122.164C353.698 121.885 350.349 118.885 349.442 118.048C349.303 117.908 349.093 117.978 349.024 118.118C347.977 119.513 342.047 127.257 342.047 127.815Z" fill="#AFD9FF"/>
<path d="M345.117 122.443C345.815 122.024 346.792 120.629 346.931 120.14C347.071 119.652 347.001 119.233 346.652 119.164C346.303 119.094 345.047 120.559 344.419 120.978C343.792 121.396 343.024 122.373 343.303 123.001C343.512 123.629 344.838 123.35 344.978 123.28C345.117 123.21 345.117 122.443 345.117 122.443Z" fill="#FFD8BE"/>
<path d="M346.862 119.303C347.071 119.861 345.466 122.024 344.141 122.652L344.559 123.21C344.559 123.21 344.769 123.14 345.048 123.07C345.117 122.861 345.117 122.512 345.117 122.512C345.815 122.093 346.792 120.698 346.931 120.21C347.001 119.791 347.001 119.442 346.862 119.303Z" fill="#FFCFAF"/>
<path d="M343.375 124.677C344.631 124.049 345.538 124.119 346.236 123.84C346.933 123.56 347.073 122.584 346.654 122.374C346.236 122.235 343.515 122.653 342.817 122.933C342.119 123.212 341.631 124.677 341.631 124.677H343.375Z" fill="#FFD8BE"/>
<path d="M343.932 123.908C343.234 124.048 343.025 123.908 343.025 123.908C343.025 124.187 342.746 124.327 342.467 124.676H343.374C344.63 124.048 345.537 124.117 346.234 123.838C346.513 123.699 346.723 123.42 346.862 123.141C346.444 123.699 344.63 123.838 343.932 123.908Z" fill="#FFCFAF"/>
<path d="M340.514 125.793C341.072 126.7 344.211 126.281 344.909 126.211C345.537 126.141 345.956 125.723 345.956 125.304C345.886 124.467 341.77 124.607 341.421 124.746C341.002 124.886 340.514 125.793 340.514 125.793Z" fill="#FFD8BE"/>
<path d="M345.886 125.513C345.398 125.931 344.351 126.21 343.235 126.28C342.258 126.35 341.7 126.35 341.561 126.28C342.747 126.489 344.421 126.28 344.84 126.21C345.398 126.141 345.816 125.862 345.886 125.513Z" fill="#FFCFAF"/>
<path d="M355.934 307.467C356.143 309.141 356.771 309.769 359.213 310.118C361.655 310.467 365.213 310.397 367.096 308.583C368.98 306.769 370.096 304.676 370.236 303.769C370.376 302.862 370.306 301.886 370.585 301.397C370.864 300.909 372.399 300.63 372.19 297.979C372.05 295.258 355.934 307.467 355.934 307.467Z" fill="#B4C8FF"/>
<path d="M371.699 291.56C371.42 287.862 362.629 289.258 362.629 290.792C362.56 292.258 360.536 298.467 358.513 300.351C355.862 301.537 354.885 304.537 355.932 307.467C356.839 309.909 363.606 309.351 365.281 308.444C367.025 307.467 368.699 305.025 369.188 303.7C369.537 302.932 369.746 301.746 370.513 300.7C371.35 299.723 371.769 299.862 372.118 298.676C372.536 297.49 371.978 295.258 371.699 291.56Z" fill="black"/>
<path d="M364.235 291.421C363.398 295.258 361.584 297.7 362.072 298.188C362.631 298.607 365.91 299.165 366.537 298.188C367.165 297.212 368.212 293.095 368.212 291.421C368.212 289.747 364.235 291.421 364.235 291.421Z" fill="#FFD8BE"/>
<path d="M344.841 294.56C345.051 292.885 345.051 290.443 343.655 287.723C342.26 284.932 342.33 284.723 340.725 284.443C339.12 284.164 333.19 283.327 333.19 283.327C333.19 283.327 332.213 286.118 328.725 288.002C325.236 289.885 324.539 290.583 322.306 290.583C320.074 290.583 315.12 290.862 317.074 296.792C317.074 296.792 318.678 297.49 322.585 297.42C326.562 297.42 330.539 297.071 332.004 296.513C333.469 295.955 334.934 295.676 335.771 296.025C336.609 296.374 339.469 296.234 341.004 296.025C342.539 295.816 344.841 294.56 344.841 294.56Z" fill="black"/>
<path d="M326.072 289.118C325.793 289.187 325.723 289.467 325.863 289.676C326.351 290.374 327.328 291.211 327.816 291.001C328.444 290.792 331.374 288.56 332.979 287.164C333.747 286.536 334.444 285.35 334.026 284.722C333.607 284.164 332.56 283.467 332.072 283.815C331.653 284.164 330.747 285.839 328.933 287.374C327.746 288.49 326.63 288.908 326.072 289.118Z" fill="#FFD8BE"/>
<path d="M316.935 296.792C320.842 297.141 329.912 296.444 331.725 295.955C333.539 295.467 334.586 294.699 336.33 295.327C338.074 296.025 343.516 294.978 344.423 294.63C345.26 294.281 345.051 295.606 344.423 295.746C343.795 295.885 339.888 296.723 337.865 296.862C335.842 297.071 335.772 295.537 333.4 296.653C331.028 297.769 327.121 297.769 325.377 297.769C323.632 297.769 318.749 298.118 317.842 297.769C316.865 297.351 316.935 296.792 316.935 296.792Z" fill="#B4C8FF"/>
<path d="M361.934 291.629C364.585 292.327 372.259 292.118 372.608 291.071C372.957 290.025 371.562 273.49 371.562 268.257C371.562 263.025 369.748 249.978 370.027 248.583C370.306 247.117 370.306 246.071 369.818 243.629C369.329 241.117 369.12 212.373 366.887 192.978L337.096 195.768C337.096 195.768 332.352 214.117 331.934 227.094C331.585 240.071 332.003 246.35 331.934 248.234C331.864 250.117 332.771 252.071 332.98 253.606C333.189 255.141 332.91 266.443 332.701 270.559C332.422 274.606 332.282 282.141 331.864 283.048C331.445 283.955 340.864 285.699 342.12 285.071C343.376 284.443 343.376 284.304 343.376 277.676C343.376 271.048 344.283 255.141 344.283 252.35C344.283 249.559 345.19 249.071 344.771 247.606C344.422 246.21 345.817 239.862 347.213 235.117C348.608 230.373 350.283 225.28 350.283 225.28C350.283 225.28 354.259 250.745 355.515 252.28C356.771 253.815 356.562 257.792 357.329 260.025C358.097 262.327 360.399 277.885 360.399 282.56C360.259 287.304 359.073 290.862 361.934 291.629Z" fill="#476DD2"/>
<path d="M368.282 292.048C369.537 291.979 370.723 291.839 371.561 291.63C371.91 290.304 372.189 288.56 372.537 286.537C372.258 280.955 371.561 271.886 371.561 268.188C371.561 262.955 369.747 249.909 370.026 248.513C370.305 247.048 370.305 246.002 369.817 243.56C369.328 241.048 369.119 212.304 366.886 192.908L360.886 193.466L343.305 200.094C351.747 200.304 361.584 198.978 361.584 198.978C361.584 198.978 362.979 214.536 362.979 216.839C363.049 219.141 364.654 240.56 364.654 242.513C364.654 244.467 365.421 245.025 365.561 247.188C365.7 249.35 364.026 250.118 364.026 250.118C364.026 250.118 366.328 250.885 366.328 251.234C366.328 251.583 366.816 257.792 366.816 260.164C366.816 262.537 367.863 265.816 368.142 273.002C368.421 280.188 369.398 288.7 369.398 289.607C369.468 290.514 369.468 291.49 368.282 292.048Z" fill="#2E53B7"/>
<path d="M348.885 210.839L342.466 209.234L347.42 211.606L343.373 211.676L346.443 212.793C346.443 212.793 347.42 220.746 345.397 226.118C343.234 231.979 342.187 246.979 341.559 248.095C340.862 249.211 339.187 248.932 339.187 248.932C339.187 248.932 341.001 249.142 341.071 250.467C341.141 251.793 340.722 255.56 340.722 259.467C340.722 263.444 340.373 269.653 339.955 272.374C339.606 275.026 339.397 281.584 339.187 283.328C338.978 285.072 336.396 284.654 336.396 284.654C337.722 284.933 339.048 285.072 340.164 285.142C344.071 285.491 343.304 284.026 343.304 276.281C343.373 269.095 344.211 254.863 344.211 252.281C344.211 249.49 345.117 249.002 344.699 247.537C344.35 246.142 345.745 239.793 347.141 235.049C348.536 230.304 350.211 225.211 350.211 225.211C350.211 225.211 349.513 218.723 349.443 217.188C349.304 215.653 348.885 210.839 348.885 210.839Z" fill="#2E53B7"/>
<path d="M354.259 138.14C347.352 141.489 346.306 141.419 343.306 142.884C340.375 144.419 340.026 160.536 340.026 163.047C340.026 165.559 340.026 175.396 339.399 178.117C338.84 180.768 336.608 190.745 335.84 192.28C335.073 193.815 333.608 196.396 335.492 197.931C337.305 199.466 341.282 200.513 350.213 199.954C359.143 199.396 369.05 193.954 369.538 193.187C370.027 192.42 366.399 178.396 366.399 175.675C366.399 172.954 366.05 171.001 365.841 169.745C365.631 168.489 368.91 162.698 369.608 158.931C370.306 155.233 375.12 144.908 374.492 143.024C373.864 141.14 366.957 139.047 362.352 136.675C357.678 134.233 354.259 138.14 354.259 138.14Z" fill="#FF8000"/>
<path d="M352.725 140.86C352.725 141.279 352.725 141.698 352.795 142.046C352.864 142.465 353.004 142.814 353.213 143.163C353.632 143.86 354.33 144.209 355.167 144.209C355.934 144.209 356.702 144 357.469 143.721C358.237 143.442 358.934 143.093 359.702 142.744C359.353 142.953 359.004 143.232 358.655 143.442C358.306 143.651 357.957 143.86 357.539 144C356.771 144.349 355.934 144.558 355.097 144.558H354.748L354.399 144.488C354.19 144.488 353.981 144.349 353.771 144.279C353.423 144.07 353.074 143.721 352.864 143.372C352.516 142.535 352.516 141.628 352.725 140.86Z" fill="#DCEDFF"/>
<path d="M369.537 193.116C370.026 192.349 366.398 178.325 366.398 175.604C366.398 172.953 366.049 170.93 365.84 169.674C365.63 168.418 368.909 162.627 369.607 158.86C369.747 158.232 369.956 157.395 370.305 156.418L367.444 154.186C365.351 159.069 363.607 167.651 361.793 169.814C359.979 171.907 355.793 172.744 355.793 172.744C355.793 172.744 359.839 173.721 361.653 173.302C361.653 173.302 362.979 180.837 362.77 184.604C362.491 188.302 361.793 193.953 361.653 194.721C361.584 195 361.584 195.977 361.584 197.163C365.979 195.488 369.258 193.535 369.537 193.116Z" fill="#F87C00"/>
<path d="M362.074 129.837C361.865 133.814 361.935 136.535 362.772 137.302C362.772 137.302 360.749 143.93 354.749 143.372C352.725 143.163 353.144 139.744 354.33 138.139L354.051 133.256L362.074 129.837Z" fill="#FFD8BE"/>
<path d="M362.353 136.604C361.934 135.349 361.934 132.976 362.074 129.837L353.98 133.256L354.12 136.395C355.515 137.023 362.353 136.604 362.353 136.604Z" fill="#FFCFAF"/>
<path d="M381.187 162.07C382.373 163.884 383.838 168.489 383.001 170.582C382.164 172.675 374.559 182.024 371.07 185.582C367.652 189.071 366.884 189.629 366.256 190.815C365.629 191.931 362.559 196.675 361.791 197.443C361.024 198.14 359.768 198.28 359.768 198.28C359.768 198.28 358.722 199.326 356.908 199.117C356.908 199.117 355.233 200.233 353.908 200.512C353.908 200.512 353.419 201.35 353.001 201.419C352.582 201.489 352.094 200.652 353.001 198.908C353.908 197.164 355.233 196.466 355.512 195.35C355.791 194.233 356.977 192.001 356.977 192.001C356.977 192.001 354.605 194.303 353.21 194.443C351.815 194.582 351.675 193.745 352.512 193.117C353.349 192.419 354.396 191.443 355.373 190.187C356.349 188.931 357.605 188.024 359.349 187.815C361.094 187.605 362.349 187.396 362.838 187.047C363.326 186.698 365.838 183.489 367.652 179.931C369.466 176.443 371.21 171.977 375.466 168.001L373.931 164.931L381.187 162.07Z" fill="#FFD8BE"/>
<path d="M354.049 200.234C354.467 199.258 355.165 198.42 355.863 197.723L356.142 197.444C356.212 197.374 356.351 197.234 356.421 197.234C356.56 197.025 356.7 196.816 356.84 196.606C357.119 196.188 357.398 195.769 357.677 195.351C357.537 195.839 357.328 196.327 357.049 196.816C356.909 197.025 356.84 197.304 356.63 197.513C356.491 197.653 356.421 197.723 356.351 197.792L356.072 198.072C355.723 198.42 355.374 198.769 355.026 199.188C354.677 199.467 354.398 199.886 354.049 200.234Z" fill="#FE8A8B"/>
<path d="M357.047 198.769C357.326 198.281 357.675 197.792 358.024 197.374C358.372 196.885 358.652 196.467 358.931 195.908C358.931 196.536 358.652 197.094 358.303 197.583C357.954 198.071 357.535 198.49 357.047 198.769Z" fill="#FE8A8B"/>
<path d="M358.441 198.978C359.348 198.699 359.837 198.21 359.837 198.21C359.837 198.21 361.093 198.141 361.86 197.373C362.139 197.094 362.837 196.117 363.604 195.001C363.604 195.001 362.697 195.908 362.069 196.606C361.162 197.582 360.046 197.303 360.046 197.303L360.255 196.396C360.325 196.396 359.348 198.489 358.441 198.978Z" fill="#FE8A8B"/>
<path d="M383.28 168.279C383.21 169.117 383.14 169.814 381.675 172.117C380.001 174.698 370.512 185.512 368.419 187.535C366.396 189.559 366.396 189.698 365.07 192.838C365.628 191.931 366.117 191.163 366.326 190.745C366.954 189.628 367.722 189 371.14 185.512C374.559 182.024 382.233 172.675 383.07 170.512C383.28 170.023 383.349 169.186 383.28 168.279Z" fill="#FFCFAF"/>
<path d="M376.584 165.768L377.212 166.954C377.212 166.954 376.235 167.233 375.467 167.931L374.281 165.559L376.584 165.768Z" fill="#FFCFAF"/>
<path d="M368.697 159.28C367.163 155.722 366.814 149.861 368.697 146.791C370.581 143.722 373.79 142.605 374.488 142.954C375.256 143.303 376.93 148.117 378.744 150.349C380.558 152.582 385.372 158.791 385.511 159.28C385.651 159.768 381.325 164.024 373.581 167.094C372.604 167.512 368.697 159.28 368.697 159.28Z" fill="#FC7E01"/>
<path d="M374.07 162.07L375.116 164.512C375.116 164.512 369.675 158.582 367.512 154.187C367.651 156 368.07 157.814 368.698 159.28C368.698 159.28 372.675 167.442 373.582 167.094C374.907 166.535 376.093 165.977 377.209 165.419L374.07 162.07Z" fill="#FD8003"/>
<path d="M366.188 124.675C367.584 121.257 369.328 117.629 367.165 115.675C367.165 115.675 369.607 114.908 370.863 115.187C370.863 115.187 369.607 114.419 367.026 114.14C367.026 114.14 367.514 108.35 366.188 105.838C366.188 105.838 366.188 108.419 365.491 109.396C365.491 109.396 364.095 106.396 359.979 105.28C355.863 104.163 351.816 104.024 348.956 106.954C346.095 109.884 342.746 113.652 347.56 119.303C352.374 124.954 358.793 126.419 361.514 126.838C364.165 127.187 366.188 124.675 366.188 124.675Z" fill="black"/>
<path d="M351.398 113.723C352.375 114.141 353.352 114.42 354.329 114.63C355.305 114.839 356.352 115.048 357.329 115.188C358.375 115.327 359.352 115.467 360.398 115.606C361.445 115.676 362.422 115.746 363.468 115.606C362.492 116.025 361.445 116.165 360.398 116.234C359.352 116.234 358.305 116.165 357.259 116.025C356.212 115.816 355.166 115.606 354.189 115.258C353.212 114.909 352.166 114.49 351.398 113.723Z" fill="#0C0835"/>
<path d="M362.562 118.745C363.678 118.466 365.492 116.722 365.492 116.722C365.492 116.722 363.608 118.048 359.701 117.769C355.794 117.42 353.213 116.652 353.213 116.652C353.213 116.652 357.259 119.024 358.725 119.373C360.19 119.652 362.562 118.745 362.562 118.745Z" fill="#0C0835"/>
<path d="M349.025 116.163C347.211 115.256 346.723 116.163 346.723 116.931C346.723 117.698 347.56 119.303 347.56 119.303L349.025 116.163Z" fill="#0C0835"/>
<path d="M368.072 118.954C366.607 121.815 363.398 124.047 363.398 124.047C363.398 124.047 362.142 125.722 363.537 126.419C363.607 126.419 363.677 126.489 363.747 126.489C365.212 125.861 366.119 124.675 366.119 124.675C366.956 122.722 367.863 120.698 368.072 118.954Z" fill="#0C0835"/>
<path d="M363.468 124.048C363.468 124.048 364.933 122.932 365.98 124.048C366.956 125.164 365.073 130.257 362.84 129.001C362.84 129.001 359.142 133.746 356.561 135.071C353.98 136.397 352.235 135.769 351.398 134.792C350.561 133.815 347.631 129.908 347.352 125.792C347.282 124.327 347.7 121.397 347.7 120.769C347.7 120.141 347.352 117.699 347.84 117.001C348.398 116.304 349.096 116.164 349.096 116.164C349.096 116.164 352.305 117.769 355.096 117.978C355.096 117.978 353.77 117.141 353.352 116.583C353.352 116.583 358.863 118.466 362.701 118.745C362.701 118.745 362.631 120.978 362.84 121.885C362.91 122.792 363.468 124.048 363.468 124.048Z" fill="#FFD8BE"/>
<path d="M365.422 125.442C365.282 124.535 364.515 124.326 363.887 124.954C363.259 125.651 362.98 127.744 363.119 128.023C363.259 128.303 364.305 128.303 364.515 127.675C364.794 127.047 364.166 126.628 363.608 126.837C363.608 126.837 363.538 125.861 364.026 125.303C364.584 124.675 365.003 124.954 365.142 125.093C365.212 125.233 365.422 125.442 365.422 125.442Z" fill="#FFBA8B"/>
<path d="M359.281 121.255C359.072 121.046 358.862 120.837 358.583 120.697C358.374 120.488 358.095 120.348 357.816 120.209C357.537 120.069 357.258 119.93 356.909 119.93C356.63 119.93 356.281 119.93 356.002 120.069V120.139C356.141 120.209 356.281 120.209 356.421 120.279L356.839 120.418C357.118 120.488 357.397 120.558 357.676 120.627C357.955 120.697 358.235 120.837 358.444 120.976C358.723 120.976 359.002 121.116 359.281 121.255Z" fill="#0C0835"/>
<path d="M348.746 120.209C349.025 120.07 349.304 120 349.583 119.93C349.862 119.86 350.141 119.86 350.421 119.86C350.7 119.86 350.979 119.93 351.258 119.93C351.537 119.93 351.816 119.93 352.165 119.93V119.86C351.886 119.651 351.607 119.581 351.327 119.511C351.048 119.442 350.7 119.511 350.421 119.511C350.141 119.581 349.793 119.651 349.514 119.721C349.234 119.791 348.955 119.93 348.746 120.209Z" fill="#0C0835"/>
<path d="M356.281 122.93C356.351 122.511 356.56 122.232 356.77 122.232C356.979 122.232 357.188 122.581 357.118 123C357.049 123.418 356.839 123.697 356.63 123.697C356.421 123.697 356.281 123.348 356.281 122.93Z" fill="#0C0835"/>
<path d="M349.932 122.441C350.001 122.022 350.141 121.743 350.35 121.743C350.56 121.743 350.699 122.092 350.629 122.511C350.56 122.929 350.42 123.208 350.211 123.208C350.071 123.208 349.932 122.859 349.932 122.441Z" fill="#0C0835"/>
<path d="M354.049 126.907C353.491 127.326 352.654 127.256 352.096 126.907C352.165 127.186 352.235 127.535 352.584 127.605C352.863 127.744 353.212 127.675 353.491 127.535C353.7 127.396 353.84 127.117 354.049 126.907Z" fill="#FFBA8B"/>
<path d="M356.072 129.28C354.746 129.28 351.537 129.07 350.49 128.931C350.769 130.256 351.816 131.582 353.281 131.582C354.676 131.582 355.653 130.466 356.072 129.28Z" fill="#C31F2A"/>
<path d="M354.676 131.094C354.187 130.955 353.629 131.024 353.42 131.094C353.42 131.094 352.722 130.606 351.676 130.955C352.094 131.304 352.653 131.583 353.28 131.583C353.839 131.583 354.327 131.373 354.676 131.094Z" fill="#FB8384"/>
<path d="M351.327 129.977C352.653 130.395 354.118 130.256 355.444 129.837C355.444 129.628 355.513 129.418 355.513 129.209C354.188 129.209 352.095 129 350.979 128.86C351.048 129.279 351.118 129.698 351.327 129.977Z" fill="white"/>
<path d="M281 20C281 8.95431 289.954 0 301 0H432C443.046 0 452 8.95431 452 20V46C452 57.0457 443.046 66 432 66H281V20Z" fill="#476DD2"/>
<circle cx="341" cy="33" r="8" fill="white"/>
<circle cx="367" cy="33" r="8" fill="white"/>
<circle cx="393" cy="33" r="8" fill="white"/>
</svg>
