<svg width="689" height="394" viewBox="0 0 689 394" fill="none" xmlns="http://www.w3.org/2000/svg">
<path d="M34.5097 393.506C34.5097 393.506 -44.5165 328.363 38.2474 265.593C121.011 202.823 32.3145 166.573 86.9565 108.964C141.598 51.3559 200.512 129.67 237.296 75.6215C284.581 6.14722 406.206 -39.1801 463.28 49.576C510.565 123.025 614.629 61.9165 614.629 199.026C614.629 296.503 738.329 271.288 666.66 393.506H34.5097Z" fill="#E2E9FB"/>
<mask id="mask0_2_71449" style="mask-type:alpha" maskUnits="userSpaceOnUse" x="0" y="0" width="689" height="394">
<path d="M34.5097 393.506C34.5097 393.506 -44.5165 328.363 38.2474 265.593C121.011 202.823 32.3145 166.573 86.9565 108.964C141.598 51.3559 200.512 129.67 237.296 75.6215C284.581 6.14722 406.206 -39.1801 463.28 49.576C510.565 123.025 614.629 61.9165 614.629 199.026C614.629 296.503 738.329 271.288 666.66 393.506H34.5097Z" fill="#EBF3FF"/>
</mask>
<g mask="url(#mask0_2_71449)">
<path d="M267.023 174.702H266.133V291.936H267.023V174.702Z" fill="white"/>
<path d="M252.667 174.702H251.777V291.936H252.667V174.702Z" fill="white"/>
<path d="M238.37 174.702H237.48V291.936H238.37V174.702Z" fill="white"/>
<path d="M224.007 174.702H223.117V291.936H224.007V174.702Z" fill="white"/>
<path d="M209.654 174.702H208.764V291.936H209.654V174.702Z" fill="white"/>
<path d="M195.296 174.702H194.406V291.936H195.296V174.702Z" fill="white"/>
<path d="M180.997 174.702H180.107V291.936H180.997V174.702Z" fill="white"/>
<path d="M166.64 174.702H165.75V291.936H166.64V174.702Z" fill="white"/>
<path d="M152.281 174.702H151.391V291.936H152.281V174.702Z" fill="white"/>
<path d="M137.984 174.702H137.094V291.936H137.984V174.702Z" fill="white"/>
<path d="M123.624 174.702H122.734V291.936H123.624V174.702Z" fill="white"/>
<path d="M109.269 174.702H108.379V291.936H109.269V174.702Z" fill="white"/>
<path d="M94.9681 174.702H94.0781V291.936H94.9681V174.702Z" fill="white"/>
<path d="M80.6126 174.702H79.7227V291.936H80.6126V174.702Z" fill="white"/>
<path d="M66.2532 174.702H65.3633V291.936H66.2532V174.702Z" fill="white"/>
<path d="M51.8938 174.702H51.0039V291.936H51.8938V174.702Z" fill="white"/>
<path d="M37.5989 174.702H36.709V291.936H37.5989V174.702Z" fill="white"/>
<path d="M266.546 276.391H37.1211V277.281H266.546V276.391Z" fill="white"/>
<path d="M266.546 262.033H37.1211V262.923H266.546V262.033Z" fill="white"/>
<path d="M266.546 247.675H37.1211V248.565H266.546V247.675Z" fill="white"/>
<path d="M266.546 233.378H37.1211V234.268H266.546V233.378Z" fill="white"/>
<path d="M266.546 219.019H37.1211V219.909H266.546V219.019Z" fill="white"/>
<path d="M266.546 204.662H37.1211V205.552H266.546V204.662Z" fill="white"/>
<path d="M266.546 190.363H37.1211V191.253H266.546V190.363Z" fill="white"/>
<path d="M378.44 -18.4141H369.6V393.507H378.44V-18.4141Z" fill="#D3DDF8"/>
<path d="M463.578 -18.4141H454.738V393.507H463.578V-18.4141Z" fill="#D3DDF8"/>
<path d="M548.713 -18.4141H539.873V393.507H548.713V-18.4141Z" fill="#D3DDF8"/>
<path d="M633.85 -18.4141H625.01V393.507H633.85V-18.4141Z" fill="#D3DDF8"/>
<path d="M629.463 191.663V183.357L371.322 183.357V191.663L629.463 191.663Z" fill="#D3DDF8"/>
<path d="M629.439 75.1788V10.1543L371.299 10.1543V75.1788L629.439 75.1788Z" fill="#D3DDF8"/>
<path d="M629.465 393.444V370.78L371.324 370.78V393.444L629.465 393.444Z" fill="#D3DDF8"/>
<path d="M268.291 393.523V283.111L-3.55441 283.111V393.523L268.291 393.523Z" fill="#D3DDF8"/>
<path d="M181.785 393.497L181.785 281.009H178.047L178.047 393.497H181.785Z" fill="#B3C0EC"/>
<path d="M85.1934 393.502L85.1934 281.015H81.4556L81.4556 393.502H85.1934Z" fill="#B3C0EC"/>
<path d="M273.85 283.134V275.837L-4.28467 275.837V283.134L273.85 283.134Z" fill="#B3C0EC"/>
<path d="M268.303 186.182V42.7246L-3.54269 42.7246V186.182L268.303 186.182Z" fill="#D3DDF8"/>
<path d="M181.779 186.135L181.779 73.6475H178.042L178.042 186.135H181.779Z" fill="#B3C0EC"/>
<path d="M85.1875 186.139L85.1875 73.6514H81.4498L81.4498 186.139H85.1875Z" fill="#B3C0EC"/>
<path d="M293.011 17.7764H291.824V86.954H293.011V17.7764Z" fill="#D3DDF8"/>
<path d="M298.468 124.509H286.365V93.0056C286.365 89.6832 289.094 86.9541 292.417 86.9541C295.739 86.9541 298.468 89.6832 298.468 93.0056V124.509Z" fill="#D3DDF8"/>
<path d="M340.767 1.87598H339.58V106.651H340.767V1.87598Z" fill="#D3DDF8"/>
<path d="M346.226 144.208H334.123V112.704C334.123 109.381 336.852 106.652 340.175 106.652C343.497 106.652 346.226 109.381 346.226 112.704V144.208Z" fill="#D3DDF8"/>
<path d="M318.042 -10.6436H316.855V58.534H318.042V-10.6436Z" fill="#D3DDF8"/>
<path d="M323.505 96.0318H311.402V64.5281C311.402 61.2057 314.131 58.4766 317.454 58.4766C320.776 58.4766 323.505 61.2057 323.505 64.5281V96.0318Z" fill="#D3DDF8"/>
<path d="M720.413 315.727H444.652V376.301H720.413V315.727Z" fill="#6F8FE4"/>
<path d="M607.687 212.257C607.39 212.257 607.034 212.257 606.738 212.257H507.183L493.953 327.652H593.507C601.398 327.652 607.746 322.253 607.746 315.608L620.442 228.394C621.57 220.266 615.756 212.731 607.687 212.257Z" fill="#B3C0EC"/>
<path d="M576.423 309.555C524.985 302.317 450.942 309.555 450.942 309.555C447.086 310.563 445.899 311.631 444.653 314.182V353.34C444.653 353.34 444.475 355.001 446.255 355.001H576.364C579.805 355.001 582.653 352.924 582.653 350.373V314.242C582.653 312.521 579.746 310.504 576.423 309.555Z" fill="white"/>
<path d="M573.694 314.598H444.653V353.34C444.653 353.34 444.475 355.001 446.255 355.001H576.364C579.805 355.001 582.653 352.924 582.653 350.373V323.675C582.653 318.632 578.618 314.598 573.694 314.598Z" fill="#D3DDF8"/>
<path d="M425.846 393.506H431.897L442.458 376.36H433.084L425.846 393.506Z" fill="#6F8FE4"/>
<path d="M482.799 393.506H488.85L499.352 376.36H489.978L482.799 393.506Z" fill="#6F8FE4"/>
<path d="M745.272 212.257C744.975 212.257 656.337 212.257 656.337 212.257C649.811 212.257 644.294 217.181 643.522 223.648L633.199 313.294C632.309 320.948 638.301 327.652 646.014 327.652H731.151C738.745 327.652 744.975 322.609 745.39 316.32C745.45 315.845 745.45 315.371 745.509 314.896L758.087 228.335C759.333 220.207 753.4 212.672 745.272 212.257Z" fill="#B3C0EC"/>
<path d="M720.888 212.257C720.592 212.257 720.236 212.257 719.939 212.257H632.666C624.775 212.257 618.368 217.656 618.368 224.301L605.078 315.549C605.078 322.193 611.486 327.592 619.376 327.592H706.649C714.54 327.592 720.888 322.193 720.888 315.549L733.585 228.276C734.712 220.266 728.957 212.731 720.888 212.257Z" fill="#D3DDF8"/>
<path d="M715.665 246.311C708.665 249.574 707.181 246.193 683.39 247.261C669.151 247.913 661.261 245.481 657.286 243.464C655.684 242.633 653.726 243.76 653.726 245.481C653.726 249.218 653.548 255.389 652.836 264.11C649.87 299.648 637.707 299.826 644.411 302.971C651.115 306.174 727.235 312.463 718.217 304.75C709.199 297.097 719.64 268.56 722.132 257.347C724.209 248.091 721.717 243.464 715.665 246.311Z" fill="white"/>
<path d="M684.399 254.796C659.659 257.051 634.8 255.389 625.011 254.499C622.697 254.321 620.739 255.983 620.68 258.178C620.264 272.773 614.45 293.775 611.84 302.615C611.187 304.81 612.729 307.184 615.162 307.54C644.648 312.523 667.372 311.811 676.093 311.277C678.229 311.159 679.831 309.497 679.831 307.48C679.653 292.114 685.704 270.044 688.849 259.78C689.679 257.11 687.365 254.499 684.399 254.796Z" fill="#E2E9FB"/>
<path d="M714.121 309.556C662.683 302.318 588.64 309.556 588.64 309.556C584.784 310.564 583.597 311.632 582.352 314.183V350.315C582.352 350.315 585.555 354.942 587.335 354.942H714.121C717.562 354.942 720.41 352.866 720.41 350.315V314.183C720.41 312.522 717.503 310.505 714.121 309.556Z" fill="white"/>
<path d="M582.352 323.557V349.84C582.352 352.569 584.487 354.883 587.217 354.942C587.276 354.942 587.276 354.942 587.335 354.942H714.121C717.562 354.942 720.41 352.866 720.41 350.315V314.599H591.37C586.386 314.599 582.352 318.633 582.352 323.557Z" fill="#D3DDF8"/>
<path d="M707.774 278.468H704.273C697.272 278.468 691.636 284.104 691.636 291.105V358.324H444.65V291.995C444.65 284.519 438.598 278.468 431.123 278.468H429.402C421.927 278.468 415.875 284.519 415.875 291.995V371.08C415.875 373.987 418.663 376.36 422.105 376.36H711.452C716.376 376.36 720.351 372.385 720.351 367.461V291.105C720.411 284.104 714.715 278.468 707.774 278.468Z" fill="#1C1B1B"/>
<path d="M241.086 308.784H271.166C274.132 308.784 276.921 311.276 277.336 314.361L287.422 393.506H284.871L274.844 314.717C274.607 312.937 272.946 311.395 271.166 311.395H241.086C239.366 311.395 237.645 312.937 237.408 314.717L227.381 393.506H224.83L234.916 314.361C235.331 311.276 238.12 308.784 241.086 308.784Z" fill="url(#paint0_linear_2_71449)"/>
<path d="M237.466 308.784L265.469 308.903C268.435 308.903 275.08 311.276 275.555 314.302L284.988 393.447H281.31L271.342 314.658C271.105 312.878 266.715 311.335 264.935 311.335H238.178C236.457 311.335 236.338 313.115 236.101 314.954L226.49 393.447H221.328L231.414 314.302C231.711 311.276 234.499 308.784 237.466 308.784Z" fill="#001A6C"/>
<path d="M178.132 308.608H212.484C215.45 308.608 219.306 311.16 219.722 314.363L229.155 393.508H225.477L215.45 314.779C215.213 312.939 213.492 311.338 211.772 311.338H178.844C177.123 311.338 177.895 312.524 177.657 314.363L163.181 393.508H158.494L171.962 314.363C172.377 311.219 175.166 308.608 178.132 308.608Z" fill="#001A6C"/>
<path d="M181.693 308.608H215.332C218.299 308.608 221.087 311.16 221.502 314.363L231.529 393.508H228.978L218.951 314.719C218.714 312.88 216.993 311.278 215.273 311.278H181.633C179.853 311.278 178.074 312.88 177.718 314.719L164.547 393.449H162.055L175.344 314.185C175.878 311.16 178.726 308.608 181.693 308.608Z" fill="url(#paint1_linear_2_71449)"/>
<path d="M176.127 305.937H172.746C170.61 301.013 166.872 282.324 165.092 268.085C164.855 266.364 164.736 265 164.617 264.288L164.439 262.983L166.931 262.567C169.245 277.4 175.653 305.344 176.127 305.937Z" fill="#001A6C"/>
<path d="M177.964 305.938H175.294C173.039 301.31 169.183 282.444 167.344 267.611C167.106 265.95 166.988 264.645 166.869 263.933L169.361 263.518C170.963 283.215 177.43 305.107 177.964 305.938Z" fill="#2647C8"/>
<path d="M220.805 267.254C221.339 271.407 224.958 290.927 226.144 296.919C227.093 301.784 227.983 304.454 228.636 305.937H226.085C223.949 300.716 220.211 281.849 218.313 267.61C218.135 266.127 217.66 262.983 217.66 262.983L220.152 262.567C220.093 262.567 220.567 265.712 220.805 267.254Z" fill="#001A6C"/>
<path d="M231.01 305.938H228.399C226.204 301.132 222.407 282.325 220.627 267.67C220.39 265.95 220.271 264.585 220.152 263.873L222.644 263.458C225.314 291.699 230.416 304.87 231.01 305.938Z" fill="#2647C8"/>
<path d="M154.948 210.833H205.318C210.064 210.833 214.573 214.511 215.226 218.961L221.812 264.763C221.812 264.763 205.496 267.848 185.028 267.848C164.559 267.848 156.846 264.763 156.846 264.763L147.532 218.961C146.82 214.511 150.142 210.833 154.948 210.833Z" fill="#1D3599"/>
<path d="M159.219 210.833H209.589C214.335 210.833 218.844 214.511 219.497 218.961L228.811 264.763C228.811 264.763 209.826 267.848 189.358 267.848C168.889 267.848 161.176 264.763 161.176 264.763L151.862 218.961C151.15 214.511 154.472 210.833 159.219 210.833Z" fill="#2647C8"/>
<path d="M230.592 305.108C230.592 305.227 230.592 305.405 230.592 305.524C230.592 308.787 228.752 311.397 226.498 311.397H173.873C171.618 311.397 169.779 308.787 169.779 305.524C169.779 305.405 169.779 305.227 169.779 305.108H230.592Z" fill="#1D3599"/>
<path d="M282.146 305.108C282.146 305.227 282.205 305.405 282.205 305.524C282.205 308.787 280.129 311.397 277.518 311.397H215.638C213.028 311.397 210.951 308.787 210.951 305.524C210.951 305.405 210.951 305.227 211.01 305.108H282.146Z" fill="#2647C8"/>
<path d="M224.422 206.856C230.948 212.789 261.74 223.765 267.91 226.316C275.327 229.401 282.09 222.045 278.234 215.756C274.971 210.357 238.305 191.431 233.5 190.185C224.956 187.99 216.235 199.44 224.422 206.856Z" fill="#FFD1B3"/>
<path d="M250.645 222.875C240.203 218.306 223.65 207.093 220.328 204.067C212.14 196.651 220.802 185.142 229.464 187.396C232.134 188.108 248.568 195.405 260.968 203C262.748 206.975 258.417 219.493 250.645 222.875Z" fill="#15234A"/>
<path d="M204.367 170.488C204.367 170.488 206.859 184.489 200.629 184.608C194.4 184.727 182.831 186.329 178.856 191.846C174.881 197.364 170.134 245.895 175.355 281.136C175.355 281.136 217.36 294.189 237.888 272.949C237.888 272.949 244.355 202.822 238.066 193.329C232.845 185.379 220.208 186.032 220.208 186.032C220.208 186.032 216.648 183.065 217.894 176.361C220.86 159.927 204.367 170.488 204.367 170.488Z" fill="#15234A"/>
<path d="M204.606 172.386C204.488 171.199 204.369 170.487 204.369 170.487C204.369 170.487 217.599 162.062 218.193 172.089L204.606 172.386Z" fill="url(#paint2_linear_2_71449)"/>
<path d="M178.857 191.846C179.688 190.718 180.815 189.769 182.18 188.938L193.867 236.876L237.889 273.008C217.302 294.188 175.297 281.195 175.297 281.195C170.136 245.894 174.882 197.363 178.857 191.846Z" fill="#15234A"/>
<path d="M195.648 184.965C200.573 193.686 209.175 198.551 216.77 196.059C221.16 194.635 224.364 191.135 226.144 186.507C222.762 185.914 220.151 186.033 220.151 186.033C220.151 186.033 216.592 183.066 217.837 176.362C220.863 159.987 204.37 170.488 204.37 170.488C204.37 170.488 206.862 184.49 200.632 184.609C199.208 184.668 197.488 184.727 195.648 184.965Z" fill="#FBBCBE"/>
<path d="M195.648 184.965C200.573 193.686 209.175 198.551 216.77 196.059C221.16 194.635 224.364 191.135 226.144 186.507C222.762 185.914 220.151 186.033 220.151 186.033C220.151 186.033 216.592 183.066 217.837 176.362C220.863 159.987 204.37 170.488 204.37 170.488C204.37 170.488 206.862 184.49 200.632 184.609C199.208 184.668 197.488 184.727 195.648 184.965Z" fill="#FFC6A0"/>
<path d="M200.632 184.608C206.862 184.489 204.37 170.487 204.37 170.487C204.37 170.487 205.2 169.953 206.506 169.301L206.624 175.827C206.802 184.786 214.218 191.846 223.177 191.668C221.457 193.744 219.321 195.287 216.77 196.117C209.175 198.55 200.573 193.744 195.648 185.023C197.488 184.726 199.208 184.667 200.632 184.608Z" fill="#FFC6A0"/>
<path d="M228.97 158.849L223.869 158.965L223.881 159.499L228.982 159.382L228.97 158.849Z" fill="#02126A"/>
<path d="M225.845 149.247L226.26 168.826C226.379 174.581 221.573 179.386 215.463 179.505C209.352 179.624 204.368 175.055 204.19 169.3V168.826C204.19 168.826 197.901 168.529 197.723 162.121C197.605 155.714 201.817 158.265 201.817 158.265L201.639 149.84L225.845 149.247Z" fill="#FFD1B3"/>
<path d="M201.936 158.206L201.758 149.781L210.301 149.603C210.301 149.663 210.301 149.722 210.301 149.781L210.776 171.911C210.835 175.767 214.573 178.853 218.31 178.615C219.497 178.556 220.565 178.2 221.455 177.666C219.734 178.793 217.717 179.446 215.463 179.505C209.352 179.624 204.368 175.056 204.19 169.301V168.826C204.19 168.826 197.901 168.529 197.723 162.122C197.664 155.714 201.936 158.206 201.936 158.206Z" fill="#FFD1B3"/>
<path d="M202.055 158.444C202.055 158.444 204.013 164.139 205.081 157.139C206.149 150.138 208.285 150.375 216.116 150.731C223.888 151.087 234.805 147.943 230.414 138.391C226.083 129.076 209.59 136.373 209.59 136.373C209.59 136.373 197.309 132.932 195.47 142.662C193.63 152.392 202.055 158.444 202.055 158.444Z" fill="#0C1540"/>
<path d="M178.501 193.745C173.221 200.864 165.33 233.317 163.372 239.666C161.058 247.378 167.347 253.549 173.221 249.099C178.264 245.302 196.774 205.136 197.486 200.212C198.792 191.431 185.087 184.846 178.501 193.745Z" fill="#FFD1B3"/>
<path d="M165.744 221.689C169.66 209.467 175.177 197.126 178.203 193.033C185.382 183.362 200.036 191.371 198.553 200.983C198.197 203.356 193.273 215.637 187.933 227.147C177.847 228.155 167.049 223.172 165.744 221.689Z" fill="#15234A"/>
<path d="M333.172 320.116L337.088 312.759C344.8 318.218 352.394 320.65 353.64 307.36C354.234 301.25 361.709 300.419 361.709 300.419L358.743 332.16C358.743 332.16 357.141 335.186 350.199 329.905C342.546 324.21 333.172 320.116 333.172 320.116Z" fill="#FFD1B2"/>
<path d="M352.926 320.235C351.264 318.04 347.527 319.938 347.645 317.15C350.73 316.853 352.985 314.124 353.578 307.42C354.172 301.309 361.647 300.478 361.647 300.478L358.681 332.219C358.681 332.219 357.197 335.067 350.73 330.439C351.086 327.117 355.477 323.498 352.926 320.235Z" fill="#0C1540"/>
<path d="M175.003 277.101C172.333 293.535 187.699 307.122 208.405 304.867C229.111 302.613 261.683 286.891 276.633 283.687C276.633 283.687 295.619 259.659 283.041 254.319C251.775 241.029 175.003 277.101 175.003 277.101Z" fill="#120D80"/>
<path d="M285.358 255.862C285.358 255.862 333.652 309.081 343.322 314.539C343.322 314.539 339.585 324.506 333.118 332.1C333.118 332.1 276.518 288.79 270.704 283.391C258.541 272.119 285.358 255.862 285.358 255.862Z" fill="#120D80"/>
<path d="M208.404 304.868C208.404 304.868 254.266 311.038 269.276 309.97C276.514 309.495 302.025 302.376 295.499 285.467C288.973 268.618 243.705 280.306 208.404 304.868Z" fill="#02126A"/>
<path d="M291.762 281.017C263.699 275.262 249.163 289.264 251.477 297.807C255.096 311.156 274.912 308.012 275.98 308.724C273.251 309.495 270.878 309.851 269.276 309.97C254.266 310.978 208.404 304.867 208.404 304.867C239.849 282.975 278.65 271.169 291.762 281.017Z" fill="#07035B"/>
<path d="M322.728 385.555C312.524 384.25 309.676 371.376 308.015 365.087L298.463 368.765C298.463 368.765 304.158 379.563 303.743 386.861C303.328 394.217 305.404 393.505 305.404 393.505H335.781C335.721 393.505 332.933 386.861 322.728 385.555Z" fill="#FFD1B2"/>
<path d="M322.726 385.555C319.641 385.14 316.497 383.241 314.895 381.224C313.886 379.8 308.903 381.402 308.072 384.131C308.072 384.131 306.055 385.555 303.682 385.377C303.682 385.911 303.682 386.385 303.682 386.86C303.267 394.217 305.343 393.505 305.343 393.505H335.72C335.72 393.505 332.931 386.86 322.726 385.555Z" fill="#0C1540"/>
<path d="M296.388 288.552C296.388 288.552 308.491 351.915 313 371.019C313 371.019 303.33 376.003 296.448 374.935C296.448 374.935 263.876 308.249 275.326 298.104C281.734 292.408 296.388 288.552 296.388 288.552Z" fill="#02126A"/>
<path d="M167.641 237.173C178.617 235.334 213.147 240.14 219.079 236.817C225.072 233.495 236.226 231.478 240.319 234.86C244.472 238.36 241.684 241.504 237.175 244.056C234.327 245.657 231.005 247.081 223.41 246.132C215.816 245.242 183.719 252.065 172.566 252.302C161.53 252.599 160.225 238.419 167.641 237.173Z" fill="#FFD1B3"/>
<path d="M266.07 214.035C275.503 208.161 305.82 200.805 310.092 195.465C314.364 190.125 320.534 185.379 325.577 186.981C330.738 188.642 332.993 193.863 326.17 196.711C323.144 197.957 321.602 201.813 314.245 203.89C306.888 205.966 286.598 221.748 276.393 226.197C266.307 230.588 259.662 218.01 266.07 214.035Z" fill="#FFD1B3"/>
<path d="M212.32 165.446C208.997 165.446 207.336 161.946 207.277 159.572C207.217 157.318 208.997 156.072 212.201 156.013C215.405 155.953 217.244 157.14 217.303 159.394C217.363 160.759 216.888 162.242 216.176 163.37C215.524 164.319 214.396 165.446 212.438 165.505C212.438 165.446 212.379 165.446 212.32 165.446ZM212.498 156.487C212.379 156.487 212.32 156.487 212.26 156.487C210.243 156.547 207.811 157.081 207.87 159.513C207.929 161.708 209.413 164.853 212.379 164.853C212.438 164.853 212.438 164.853 212.498 164.853C214.218 164.793 215.227 163.785 215.761 162.954C216.473 161.946 216.829 160.581 216.829 159.276C216.71 157.021 214.515 156.487 212.498 156.487Z" fill="#02126A"/>
<path d="M224.3 165.148C220.978 165.148 219.317 161.648 219.257 159.275C219.198 157.02 220.978 155.774 224.182 155.715C227.385 155.656 229.225 156.842 229.284 159.097C229.343 161.529 227.801 165.148 224.419 165.208C224.36 165.148 224.3 165.148 224.3 165.148ZM224.478 156.19C224.36 156.19 224.3 156.19 224.241 156.19C222.224 156.249 219.791 156.783 219.851 159.215C219.91 161.411 221.393 164.674 224.419 164.555C227.445 164.496 228.809 161.173 228.75 158.978C228.691 156.724 226.436 156.19 224.478 156.19Z" fill="#02126A"/>
<path d="M219.479 158.521L216.988 158.578L217 159.112L219.492 159.055L219.479 158.521Z" fill="#02126A"/>
<path d="M207.73 159.323L202.629 159.439L202.641 159.973L207.742 159.857L207.73 159.323Z" fill="#02126A"/>
<path d="M140.59 263.753H134.123V393.505H140.59V263.753Z" fill="#02126A"/>
<path d="M410.893 393.505H405.197V323.912V263.753H410.893V393.505Z" fill="#02126A"/>
<path d="M205.021 260.43H126.113V263.753H205.021V260.43Z" fill="#02126A"/>
<path d="M531.451 260.43H205.023V263.753H531.451V260.43Z" fill="#1D3599"/>
<path d="M222.404 263.753H215.166V393.505H222.404V263.753Z" fill="#1D3599"/>
<path d="M518.754 393.505H512.287V323.912V263.753H518.754V393.505Z" fill="#1D3599"/>
<path d="M187.757 254.499H108.85V260.432H187.757V254.499Z" fill="#2647C8"/>
<path d="M548.775 254.499H187.283V260.432H548.775V254.499Z" fill="#6F8FE4"/>
<path d="M288.497 254.084C288.497 254.321 288.319 254.499 288.081 254.499H219.556C219.141 254.499 218.785 254.143 218.785 253.728V251.829H288.556V254.084H288.497Z" fill="#151618"/>
<path d="M227.743 250.939V251.77H225.311V250.702H227.506C227.624 250.702 227.743 250.821 227.743 250.939Z" fill="#151618"/>
<path d="M230.532 250.939V251.77H228.1V250.702H230.295C230.413 250.702 230.532 250.821 230.532 250.939Z" fill="#151618"/>
<path d="M233.378 250.939V251.77H230.945V250.702H233.14C233.259 250.702 233.378 250.821 233.378 250.939Z" fill="#151618"/>
<path d="M245.246 250.939V251.77H242.754V250.702H244.949C245.127 250.702 245.246 250.821 245.246 250.939Z" fill="#151618"/>
<path d="M248.093 250.939V251.77H245.66V250.702H247.855C247.974 250.702 248.093 250.821 248.093 250.939Z" fill="#151618"/>
<path d="M281.378 250.939V251.77H278.945V250.702H281.14C281.259 250.702 281.378 250.821 281.378 250.939Z" fill="#151618"/>
<path d="M284.224 250.939V251.77H281.791V250.702H283.986C284.105 250.702 284.224 250.821 284.224 250.939Z" fill="#151618"/>
<path d="M242.278 250.939V251.77H233.854V250.702H241.982C242.16 250.702 242.278 250.821 242.278 250.939Z" fill="#151618"/>
<path d="M293.477 250.939V251.77H285.053V250.702H293.181C293.359 250.702 293.477 250.821 293.477 250.939Z" fill="#151618"/>
<path d="M278.292 250.939V251.77H249.043V250.702H277.996C278.174 250.702 278.292 250.821 278.292 250.939Z" fill="#151618"/>
<path d="M302.502 250.702H308.435C308.791 250.702 309.028 250.999 309.028 251.295V251.77H302.205V250.939C302.205 250.821 302.324 250.702 302.502 250.702Z" fill="url(#paint3_linear_2_71449)"/>
<path d="M310.689 250.702H316.622C316.978 250.702 317.215 250.999 317.215 251.295V251.77H310.393V250.939C310.452 250.821 310.571 250.702 310.689 250.702Z" fill="url(#paint4_linear_2_71449)"/>
<path d="M318.879 250.702H324.812C325.168 250.702 325.405 250.999 325.405 251.295V251.77H318.582V250.939C318.641 250.821 318.76 250.702 318.879 250.702Z" fill="url(#paint5_linear_2_71449)"/>
<path d="M327.062 250.702H332.995C333.351 250.702 333.588 250.999 333.588 251.295V251.77H326.766V250.939C326.825 250.821 326.944 250.702 327.062 250.702Z" fill="url(#paint6_linear_2_71449)"/>
<path d="M336.735 250.702H339.82C340.176 250.702 340.414 250.999 340.414 251.295V251.77H336.498V250.939C336.498 250.821 336.617 250.702 336.735 250.702Z" fill="url(#paint7_linear_2_71449)"/>
<path d="M341.599 250.702H344.684C345.04 250.702 345.278 250.999 345.278 251.295V251.77H341.303V250.939C341.303 250.821 341.421 250.702 341.599 250.702Z" fill="url(#paint8_linear_2_71449)"/>
<path d="M346.109 250.702H349.194C349.55 250.702 349.788 250.999 349.788 251.295V251.77H345.812V250.939C345.872 250.821 345.99 250.702 346.109 250.702Z" fill="url(#paint9_linear_2_71449)"/>
<path d="M292.888 200.213C293.481 198.018 295.083 196.713 297.634 196.713L282.031 254.143C282.031 254.143 279.005 253.253 279.776 250.346C280.37 247.914 289.625 211.901 292.888 200.213Z" fill="#151618"/>
<path d="M297.87 196.713H370.904C371.912 196.713 372.684 197.662 372.446 198.671L358.979 251.77H282.207L295.734 198.374C295.971 197.425 296.861 196.713 297.87 196.713Z" fill="#02126A"/>
<path d="M358.683 254.084C358.683 254.321 358.505 254.499 358.268 254.499H282.92C282.504 254.499 282.148 254.143 282.148 253.728V251.829H358.683V254.084Z" fill="#120D80"/>
<path d="M340.111 247.675H360.046L361.47 241.979H340.823C340.111 241.979 339.518 242.454 339.34 243.107L338.628 245.777C338.391 246.726 339.103 247.675 340.111 247.675Z" fill="#B3C0EC"/>
<path d="M99.3563 260.905C99.3563 260.905 75.9213 268.796 79.1251 295.731C82.3288 322.726 77.7012 355.594 77.7012 355.594H91.0502C91.0502 355.594 114.841 323.557 97.2797 299.528C79.837 275.56 99.3563 260.905 99.3563 260.905Z" fill="#FF8000"/>
<path d="M97.5171 262.566C93.2454 266.067 80.8456 278.882 94.1946 300.003C110.035 325.159 84.168 355.535 84.168 355.535L77.7605 355.12C77.7012 355.476 77.7012 355.654 77.7012 355.654H91.0502C91.0502 355.654 114.841 323.616 97.2797 299.588C83.2781 280.306 93.0674 267.075 97.5171 262.566Z" fill="#FFB56B"/>
<g opacity="0.44">
<path d="M98.4055 261.736C98.9988 261.202 99.3547 260.905 99.3547 260.905C99.3547 260.905 97.2782 261.617 94.3711 263.338C96.2696 262.389 97.7528 261.914 98.4055 261.736Z" fill="#4900BC"/>
</g>
<path d="M73.7256 325.752C74.9715 301.783 74.0222 298.817 64.7076 290.926C55.3929 283.035 42.2812 270.042 42.2812 270.042C51.2399 287.722 51.0619 295.791 52.7231 308.784C54.0284 318.87 69.2166 339.042 75.9208 347.585C74.4376 344.085 73.1323 337.677 73.7256 325.752Z" fill="#355ABF"/>
<path d="M79.1276 351.499C79.1276 351.499 77.8817 350.016 75.9238 347.524C77.4664 351.084 79.1276 351.499 79.1276 351.499Z" fill="url(#paint10_linear_2_71449)"/>
<path d="M69.2173 314.657C64.5896 334.532 74.4383 347.94 74.4383 347.94H84.1682C84.1089 341.058 84.6428 334.532 87.8466 327.828C88.0246 327.472 88.2026 327.175 88.4399 326.819C87.0753 326.167 85.5328 325.514 83.8122 324.861C65.8949 317.979 73.845 294.722 69.2173 314.657Z" fill="#120D80"/>
<path d="M94.4941 319.641C84.5862 324.624 87.4933 346.102 87.4933 346.102L96.8079 349.424C96.8079 349.424 95.1467 339.635 101.436 332.041C107.724 324.387 111.937 327.354 111.937 327.354C111.937 327.354 104.343 314.657 94.4941 319.641Z" fill="#3050A6"/>
<path d="M47.0862 309.495C30.4741 309.495 21.2188 319.522 21.2188 319.522C21.2188 319.522 27.6856 316.259 39.2548 316.674C50.8239 317.089 49.9933 326.938 59.2486 336.074C68.5633 345.27 76.276 346.576 76.276 346.576C76.276 346.576 63.9949 328.777 54.9769 316.674C53.3157 314.538 54.8583 309.495 47.0862 309.495Z" fill="#FF8000"/>
<path d="M17.9578 322.963C17.8984 323.141 17.8984 323.259 17.8984 323.259C17.8984 323.259 17.8984 323.141 17.9578 322.963Z" fill="#FAF9FC"/>
<path d="M60.5565 320.234C57.4713 316.081 60.6751 305.817 40.9186 308.191C22.8826 310.386 18.6109 321.065 18.0176 322.904C18.4922 321.718 21.34 316.853 38.7827 312.937C58.7766 308.428 48.216 318.751 57.234 325.337C66.3114 331.863 73.6682 344.144 73.6682 344.144C73.6682 344.144 78.7705 352.747 77.5839 345.568C76.3973 338.448 63.6416 324.387 60.5565 320.234Z" fill="#FFB56B"/>
<path d="M121.903 329.193C112.826 310.742 101.91 311.928 94.6121 315.963C84.2888 321.718 85.95 345.627 85.95 345.627L87.4333 346.102C87.4333 346.102 87.6706 341.474 88.4419 333.465C89.2131 325.455 93.1289 314.124 105.766 329.905C118.403 345.627 136.261 348.475 136.261 348.475C136.261 348.475 130.921 347.645 121.903 329.193Z" fill="#355ABF"/>
<path d="M97.9339 306.174C95.0861 304.097 92.179 304.453 89.9838 305.343C87.1953 306.53 83.9916 306.115 81.3811 304.572C71.8885 298.817 71.1172 306.708 71.1172 306.708L71.3545 308.844V308.903C72.0665 312.878 74.2616 321.125 83.8136 324.803C85.5341 325.456 100.485 331.923 100.485 331.923C98.5272 323.795 103.748 310.446 97.9339 306.174Z" fill="#221CA0"/>
<path d="M72.8972 393.505H88.7974C94.6116 393.505 99.358 388.759 99.358 382.945V344.084H62.2773V382.945C62.3367 388.759 67.0237 393.505 72.8972 393.505Z" fill="#2647C8"/>
<path d="M102.976 344.084H58.7168V349.424H102.976V344.084Z" fill="#1A35A2"/>
<path d="M337.679 247.677C343.908 247.677 346.578 253.432 351.74 251.118C356.961 248.863 359.334 248.982 359.096 244.651C358.859 240.32 355.359 240.676 348.299 240.676C341.357 240.676 328.423 247.677 337.679 247.677Z" fill="#FFD1B2"/>
<path d="M404.486 384.075C417.242 384.075 408.58 368.709 405.791 360.64L417.894 357.792C421.157 365.861 418.606 373.989 425.132 384.668C429.76 392.262 424.302 393.508 424.302 393.508H393.807C393.807 393.508 393.807 384.075 404.486 384.075Z" fill="#FFD1B2"/>
<path d="M404.486 384.074C408.105 384.074 410.003 382.828 410.775 380.87C413.148 380.395 413.029 381.819 414.69 383.006C419.496 386.566 424.42 383.481 425.132 384.667C429.76 392.261 424.302 393.507 424.302 393.507H393.807C393.807 393.507 393.807 384.074 404.486 384.074Z" fill="#3F4B6B"/>
<path d="M344.499 382.947C354.763 379.743 361.883 364.14 365.442 355.774L377.427 360.639C374.698 364.614 367.993 370.963 366.629 384.668C365.68 394.398 363.069 393.508 363.069 393.508H329.904C329.904 393.508 334.235 386.151 344.499 382.947Z" fill="#FFD1B2"/>
<path d="M344.499 382.948C347.584 381.998 350.373 379.863 352.924 377.193C353.695 376.362 354.526 379.922 355.356 381.109C357.136 383.422 364.612 384.431 366.866 382.829C366.748 383.482 366.688 384.075 366.629 384.728C365.68 394.458 363.069 393.568 363.069 393.568H329.904C329.904 393.508 334.235 386.151 344.499 382.948Z" fill="#3F4B6B"/>
<path d="M446.787 299.768H451.058L436.76 393.507H432.488L446.787 299.768Z" fill="#B3C0EC"/>
<path d="M396.83 299.768H401.101L386.744 393.507H382.531L396.83 299.768Z" fill="#B3C0EC"/>
<path d="M392.974 284.046C392.974 284.046 365.861 353.876 362.123 361.47C362.123 361.47 367.403 367.462 374.523 367.64C374.523 367.64 414.333 303.862 418.07 296.742C421.808 289.623 392.974 284.046 392.974 284.046Z" fill="#355ABF"/>
<path d="M382.531 294.249C382.531 294.249 404.958 359.57 407.509 367.639C407.509 367.639 415.459 368.351 420.798 363.545C420.798 363.545 412.67 306.174 410.416 298.402C408.161 290.689 382.531 294.249 382.531 294.249Z" fill="#355ABF"/>
<path d="M433.496 176.067C433.496 176.067 437.768 176.601 438.302 179.746C438.836 182.89 436.997 185.857 436.997 185.857C436.997 185.857 446.074 188.289 454.202 185.145C454.202 185.145 450.108 177.017 449.99 168.355C450.049 159.752 433.496 176.067 433.496 176.067Z" fill="#FFC6A0"/>
<path d="M442.631 181.821C442.572 177.727 439.309 174.761 435.512 174.167C439.902 170.133 450.047 161.59 450.107 168.353C450.166 177.015 454.319 185.143 454.319 185.143C450.344 186.686 446.072 186.864 442.809 186.686C442.75 185.084 442.631 183.482 442.631 181.821Z" fill="#FFC6A0"/>
<path d="M423.409 150.318C423.409 150.318 422.519 156.073 422.935 160.76C423.35 165.447 421.629 171.677 426.138 177.016C430.647 182.356 441.03 176.423 443.403 169.956C445.776 163.549 443.7 158.506 440.377 155.539C437.055 152.573 423.409 150.318 423.409 150.318Z" fill="#FFD1B2"/>
<path d="M430.826 170.608C430.767 168.294 428.037 151.207 428.037 151.207C432.309 152.156 438.301 153.699 440.378 155.538C443.7 158.504 445.777 163.547 443.404 169.955C441.149 176.066 431.775 181.643 426.91 177.727C429.343 176.244 430.945 173.455 430.826 170.608Z" fill="#FFD1B2"/>
<path d="M428.453 154.233C428.453 154.233 430.292 156.013 431.064 160.048C431.835 164.141 432.606 166.337 433.971 163.667C435.335 160.938 435.751 156.607 439.251 159.217C441.565 160.938 441.565 164.319 440.853 166.218C440.141 168.057 442.514 172.151 447.32 170.608C452.185 169.066 455.388 155.954 455.388 155.954C455.388 155.954 433.199 149.012 428.453 154.233Z" fill="#151618"/>
<path d="M426.257 137.74C426.257 137.74 419.731 139.342 419.137 144.859C418.604 149.784 421.273 154.53 429.935 154.174C438.657 153.818 439.191 159.217 443.818 160.641C448.446 162.065 453.074 160.759 455.269 156.191C457.583 151.504 456.871 145.749 451.234 141.122C445.539 136.494 426.85 129.849 426.257 137.74Z" fill="#151618"/>
<path d="M487.187 258.711C487.187 269.627 498.815 296.147 475.974 295.91C453.191 295.673 383.183 295.91 383.183 295.91C383.183 295.91 378.437 286.536 384.904 280.663C391.37 274.789 430.646 266.186 435.393 260.194C440.198 254.142 487.187 258.711 487.187 258.711Z" fill="#355ABF"/>
<path d="M447.379 291.342C488.197 291.342 476.687 259.364 477.043 257.881C483.036 258.296 487.189 258.711 487.189 258.711C487.189 269.628 498.817 296.148 475.975 295.911C459.66 295.733 419.138 295.792 397.424 295.851C399.916 295.258 441.861 291.342 447.379 291.342Z" fill="#3056BD"/>
<path d="M434.86 185.322C430.351 185.56 422.816 191.611 422.816 200.867C422.816 213.088 425.071 230.175 430.588 238.778C436.106 247.44 425.605 257.763 434.86 261.501C444.116 265.238 486.892 265.772 488.553 259.484C490.214 253.195 481.196 210.656 478.645 202.231C476.094 193.866 471.585 187.755 468.144 186.272C464.703 184.848 443.166 184.966 434.86 185.322Z" fill="#FF8000"/>
<path d="M482.384 248.684C482.622 243.404 483.096 237.709 481.91 232.547C473.782 196.772 464.764 192.975 461.145 189.83C456.873 186.152 451.711 188.584 446.075 188.406C438.422 188.169 435.514 185.262 435.455 185.262C444.176 184.906 464.764 184.846 468.145 186.27C471.586 187.754 476.095 193.864 478.647 202.23C481.198 210.655 490.216 253.193 488.555 259.482C487.843 262.211 479.181 263.695 468.917 264.11C476.214 262.389 481.969 257.406 482.384 248.684Z" fill="#FF8000"/>
<path d="M434.859 185.321C437.648 183.897 440.021 184.905 442.572 182.473C447.14 178.083 453.607 178.379 453.607 178.379L460.667 185.321C460.727 185.38 444.471 191.906 434.859 185.321Z" fill="#F87C00"/>
<path d="M436.164 186.746C432.486 183.424 423.112 187.992 416.704 196.18C410.296 204.367 396.947 235.396 393.566 242.456C390.421 249.042 399.973 260.492 410.415 249.932C420.857 239.371 428.748 223.056 432.486 211.427C436.223 199.739 440.139 190.365 436.164 186.746Z" fill="#FF8000"/>
<path d="M441.626 252.839H505.701C507.184 252.839 508.489 251.771 508.845 250.287L513.354 232.192C513.888 230.056 512.405 228.039 510.329 228.039H446.253C444.77 228.039 443.465 229.107 443.109 230.59L438.6 248.686C438.066 250.762 439.549 252.839 441.626 252.839Z" fill="#6F8FE4"/>
<path d="M443.463 252.838H505.818C507.242 252.838 508.488 251.889 508.844 250.465L512.937 233.734C513.412 231.776 511.929 229.878 509.912 229.878H447.557C446.133 229.878 444.887 230.827 444.531 232.251L440.437 248.982C440.022 250.94 441.446 252.838 443.463 252.838Z" fill="#D3DDF8"/>
<path d="M380.095 300.921H428.982V295.878H380.095V300.921Z" fill="#D3DDF8"/>
<path d="M438.894 299.768H434.682L448.98 393.507H453.192L438.894 299.768Z" fill="white"/>
<path d="M488.853 299.768H484.641L498.939 393.507H503.211L488.853 299.768Z" fill="white"/>
<path d="M428.962 300.921H493.928V295.878H428.962V300.921Z" fill="#6F8FE4"/>
<path d="M435.809 299.295C436.58 299.295 437.292 298.761 437.53 297.99L452.718 238.661C452.955 237.711 452.421 236.762 451.472 236.525C450.523 236.288 449.573 236.822 449.336 237.771L434.148 297.1C433.911 298.049 434.445 298.998 435.394 299.236C435.572 299.295 435.691 299.295 435.809 299.295Z" fill="#B3C0EC"/>
<path d="M437.588 299.295C438.36 299.295 439.072 298.761 439.309 297.99L454.497 238.661C454.735 237.711 454.201 236.762 453.251 236.525C452.302 236.288 451.353 236.822 451.115 237.771L435.927 297.1C435.69 298.049 436.224 298.998 437.173 299.236C437.292 299.295 437.47 299.295 437.588 299.295Z" fill="white"/>
<path d="M485.405 299.295C486.176 299.295 486.888 298.761 487.125 297.99L502.314 238.661C502.551 237.711 502.017 236.762 501.068 236.525C500.118 236.287 499.169 236.821 498.932 237.771L483.744 297.1C483.506 298.049 484.04 298.998 484.99 299.235C485.108 299.295 485.286 299.295 485.405 299.295Z" fill="#B3C0EC"/>
<path d="M487.186 299.295C487.957 299.295 488.669 298.761 488.907 297.99L504.095 238.661C504.332 237.711 503.798 236.762 502.849 236.525C501.9 236.287 500.95 236.821 500.713 237.771L485.525 297.1C485.288 298.049 485.822 298.998 486.771 299.235C486.889 299.295 487.008 299.295 487.186 299.295Z" fill="white"/>
<path d="M402.407 254.202C391.787 255.508 374.7 254.202 353.223 253.55C353.223 253.55 350.672 245.303 353.994 239.667C353.994 239.667 394.872 237.412 399.262 237.531C403.652 237.709 413.501 252.838 402.407 254.202Z" fill="#FF8000"/>
</g>
<defs>
<linearGradient id="paint0_linear_2_71449" x1="287.414" y1="351.158" x2="224.839" y2="351.158" gradientUnits="userSpaceOnUse">
<stop stop-color="#08339F"/>
<stop offset="0.2754" stop-color="#0E3AA4"/>
<stop offset="0.6812" stop-color="#1E4EB1"/>
<stop offset="0.9934" stop-color="#2E62BE"/>
</linearGradient>
<linearGradient id="paint1_linear_2_71449" x1="231.588" y1="351.07" x2="162.051" y2="351.07" gradientUnits="userSpaceOnUse">
<stop stop-color="#08339F"/>
<stop offset="0.2754" stop-color="#0E3AA4"/>
<stop offset="0.6812" stop-color="#1E4EB1"/>
<stop offset="0.9934" stop-color="#2E62BE"/>
</linearGradient>
<linearGradient id="paint2_linear_2_71449" x1="244.972" y1="168.949" x2="168.625" y2="170.675" gradientUnits="userSpaceOnUse">
<stop offset="1.09e-06" stop-color="#FFD000"/>
<stop offset="1" stop-color="#FF7300"/>
</linearGradient>
<linearGradient id="paint3_linear_2_71449" x1="309.039" y1="251.227" x2="302.234" y2="251.227" gradientUnits="userSpaceOnUse">
<stop stop-color="#AACEFF"/>
<stop offset="1" stop-color="#DBE9FF"/>
</linearGradient>
<linearGradient id="paint4_linear_2_71449" x1="317.235" y1="251.227" x2="310.431" y2="251.227" gradientUnits="userSpaceOnUse">
<stop stop-color="#AACEFF"/>
<stop offset="1" stop-color="#DBE9FF"/>
</linearGradient>
<linearGradient id="paint5_linear_2_71449" x1="325.435" y1="251.227" x2="318.629" y2="251.227" gradientUnits="userSpaceOnUse">
<stop stop-color="#AACEFF"/>
<stop offset="1" stop-color="#DBE9FF"/>
</linearGradient>
<linearGradient id="paint6_linear_2_71449" x1="333.628" y1="251.227" x2="326.822" y2="251.227" gradientUnits="userSpaceOnUse">
<stop stop-color="#AACEFF"/>
<stop offset="1" stop-color="#DBE9FF"/>
</linearGradient>
<linearGradient id="paint7_linear_2_71449" x1="340.453" y1="251.227" x2="336.475" y2="251.227" gradientUnits="userSpaceOnUse">
<stop stop-color="#AACEFF"/>
<stop offset="1" stop-color="#DBE9FF"/>
</linearGradient>
<linearGradient id="paint8_linear_2_71449" x1="345.285" y1="251.227" x2="341.307" y2="251.227" gradientUnits="userSpaceOnUse">
<stop stop-color="#AACEFF"/>
<stop offset="1" stop-color="#DBE9FF"/>
</linearGradient>
<linearGradient id="paint9_linear_2_71449" x1="349.834" y1="251.227" x2="345.857" y2="251.227" gradientUnits="userSpaceOnUse">
<stop stop-color="#AACEFF"/>
<stop offset="1" stop-color="#DBE9FF"/>
</linearGradient>
<linearGradient id="paint10_linear_2_71449" x1="78.0439" y1="350.49" x2="76.7943" y2="348.415" gradientUnits="userSpaceOnUse">
<stop stop-color="#DBEBFF"/>
<stop offset="0.5274" stop-color="#DDECFF"/>
<stop offset="0.7367" stop-color="#E4F0FF"/>
<stop offset="0.8889" stop-color="#F0F7FF"/>
<stop offset="1" stop-color="white"/>
</linearGradient>
</defs>
</svg>
