<svg width="180" height="55" viewBox="0 0 180 55" fill="none" xmlns="http://www.w3.org/2000/svg">
<path d="M51.1722 51.8809L49.6484 53.4046C50.4466 53.4772 51.3173 53.5498 52.1155 53.5498C52.3332 53.5498 52.4783 53.5498 52.696 53.5498L51.1722 51.8809Z" fill="white"/>
<path d="M15.5449 0L26.4291 13.6415L36.2974 13.5689L28.4608 6.45793L30.4199 6.31281L38.2565 12.9159C38.2565 12.9159 38.7645 13.5689 38.7645 15.3104C38.7645 17.9951 38.7645 19.1561 38.7645 19.1561C38.7645 19.1561 36.8779 20.825 38.7645 22.1311C38.1114 24.8884 37.4584 26.5573 37.4584 26.5573H41.0139L40.3608 22.1311C40.3608 22.1311 42.3199 20.7525 39.998 19.011C39.9254 15.7457 39.8529 13.2787 39.8529 13.2787L44.4968 13.3512L32.4516 0.870733L15.5449 0Z" fill="white"/>
<path d="M18.8101 7.03809L16.0527 13.7137C16.0527 13.7137 22.3655 16.8338 23.454 19.8814C24.0344 19.8814 31.0729 19.3735 33.1046 21.4777C34.5558 18.9381 36.5149 15.2375 36.5149 15.2375L25.4131 15.7454L18.8101 7.03809Z" fill="white"/>
<path d="M9.23189 52.9693V55.001H29.8392V52.9693C29.8392 52.9693 27.3722 51.0101 20.6965 50.5022C20.6965 48.1802 20.6965 48.1077 20.6965 48.1077C20.6965 48.1077 26.4289 47.89 29.6941 45.7857C31.0002 48.2528 31.0002 48.3254 31.0002 48.3254C31.0002 48.3254 32.6691 49.4138 32.8142 47.3095C32.4514 46.4388 31.4356 44.4071 31.4356 44.4071L33.3222 42.593C33.3222 42.593 34.4831 40.3436 31.9435 41.4321C30.1295 42.7382 27.8075 46.4388 17.8667 46.1485C16.7057 46.0034 8.79653 45.7132 3.71725 35.5546C3.35445 34.7564 -0.563848 26.9924 5.24104 18.793C6.25689 17.4144 7.56299 14.8747 14.8191 11.682C15.2545 11.5369 16.7057 10.1583 14.7465 9.65033C14.166 9.65033 13.0776 10.3759 10.9734 11.2467C10.538 9.94057 10.4654 8.77959 8.50628 8.70703C8.43372 8.77959 6.54714 9.72289 9.08677 12.2625C6.03921 14.5119 2.41116 17.632 0.597129 23.2192C0.0892019 25.7589 -1.43458 33.0875 3.86238 39.9083C6.9825 43.5363 9.37702 46.3662 18.6648 48.0351C18.6648 49.1235 18.6648 50.5748 18.6648 50.5748C18.6648 50.5748 12.4971 49.9217 9.23189 52.9693Z" fill="white"/>
<path d="M19.2448 42.6654C14.9637 42.6654 10.5375 41.0691 7.34484 36.1349C7.27228 35.9898 7.19972 35.9173 7.12715 35.8447L7.05459 35.7721C5.02288 31.9264 4.58752 28.2258 5.74849 24.7429C7.85277 18.2849 14.6009 14.8746 14.8912 14.7294C15.3266 14.5117 15.8345 14.7294 16.0522 15.0922C16.2698 15.5276 16.1247 16.0355 15.6894 16.2532C15.6168 16.2532 9.30399 19.5185 7.4174 25.3233C6.4741 28.3709 6.83691 31.5636 8.65094 34.9014C8.7235 34.974 8.79606 35.1191 8.86862 35.1916C12.3516 40.7063 18.0113 42.3026 25.6302 39.9081C26.8638 39.3276 35.426 34.7563 31.3625 23.074C31.2174 22.6386 31.4351 22.1307 31.8705 21.9855C32.3058 21.8404 32.8138 22.0581 32.9589 22.4935C36.6595 33.2325 30.4918 39.4727 26.2833 41.4319C26.2833 41.4319 26.2107 41.4319 26.2107 41.5045C23.9613 42.1575 21.6394 42.6654 19.2448 42.6654Z" fill="white"/>
<path d="M16.56 42.3023C16.2698 42.3023 15.9795 42.1571 15.8344 41.8669C6.11123 25.3955 16.0521 15.9626 16.1247 15.89C16.4875 15.5998 16.9954 15.5998 17.3582 15.9626C17.6484 16.3254 17.6484 16.8333 17.2856 17.1961C16.9228 17.5589 8.28806 25.8309 17.2856 41.0687C17.5033 41.5041 17.3582 42.012 16.9954 42.2297C16.8503 42.3023 16.7051 42.3023 16.56 42.3023Z" fill="white"/>
<path d="M19.6071 42.3755C19.1717 42.3755 18.7363 42.0126 18.7363 41.5047V18.4303C18.7363 17.9949 19.0991 17.5596 19.6071 17.5596C20.115 17.5596 20.4778 17.9224 20.4778 18.4303V41.5773C20.4052 42.0126 20.0424 42.3755 19.6071 42.3755Z" fill="white"/>
<path d="M22.4375 42.3029C22.2198 42.3029 22.0747 42.2303 21.857 42.0852C21.4942 41.795 21.4216 41.2145 21.7844 40.8517C28.1698 33.3779 25.2674 22.784 25.1948 22.6389C25.0497 22.2035 25.3399 21.6956 25.7753 21.5504C26.2106 21.4053 26.7186 21.6956 26.8637 22.1309C27.0088 22.5663 30.1289 33.6681 23.0905 41.8675C22.9454 42.2303 22.7277 42.3029 22.4375 42.3029Z" fill="white"/>
<path d="M6.11097 29.6045C5.6756 29.6045 5.24023 29.2417 5.24023 28.7337C5.24023 28.2984 5.60304 27.863 6.11097 27.863L32.9586 27.7179C33.3939 27.7179 33.8293 28.0807 33.8293 28.5886C33.8293 29.024 33.4665 29.4594 32.9586 29.4594L6.11097 29.6045Z" fill="white"/>
<path d="M19.3905 24.4523C12.4246 24.4523 9.52218 20.534 9.37706 20.3164C9.08681 19.9536 9.23194 19.3731 9.59474 19.1554C9.95755 18.8651 10.538 19.0103 10.7557 19.3731C10.9734 19.6633 15.4722 25.6859 27.8076 21.1145C28.2429 20.9694 28.7509 21.1871 28.896 21.6225C29.0411 22.0578 28.8234 22.5657 28.3881 22.7109C24.8326 23.9444 21.8576 24.4523 19.3905 24.4523Z" fill="white"/>
<path d="M29.8391 38.602C29.6214 38.602 29.4037 38.5295 29.2586 38.3844C20.4061 29.8947 10.6104 37.8764 10.175 38.2392C9.81223 38.5295 9.3043 38.4569 9.01406 38.1667C8.72381 37.7313 8.72381 37.2234 9.08662 36.9331C9.23174 36.8606 20.4787 27.5728 30.4196 37.1508C30.7824 37.4411 30.7824 38.0216 30.4196 38.3844C30.2744 38.5295 30.0568 38.602 29.8391 38.602Z" fill="white"/>
<path d="M38.4746 41.2154V29.3154H40.9417V41.1429H38.4746V41.2154Z" fill="white"/>
<path d="M43.4082 41.2154V29.3154H45.8027L50.882 37.2246V29.3154H53.2039V41.1429H50.7369L45.7302 33.3788V41.1429H43.4082V41.2154Z" fill="white"/>
<path d="M58.5734 41.2154V31.3471H54.9453V29.3154H64.7411V31.3471H61.113V41.2154H58.5734Z" fill="white"/>
<path d="M66.3379 41.2154V29.3154H75.4806V31.3471H68.805V33.9593H74.9727V35.991H68.805V39.1837H75.6983V41.2154H66.3379Z" fill="white"/>
<path d="M77.8027 41.2154V29.3154H83.0271C84.3332 29.3154 85.2765 29.388 85.9296 29.6057C86.5101 29.8234 87.018 30.1862 87.3808 30.7667C87.7436 31.3471 87.8887 31.9276 87.8887 32.6532C87.8887 33.524 87.5985 34.2496 87.0906 34.8301C86.5101 35.4106 85.7119 35.7734 84.6235 35.9185C85.1314 36.2087 85.6393 36.5715 85.9296 36.9343C86.2924 37.2971 86.7277 37.9502 87.3808 38.8935L88.9046 41.2154H85.9296L84.1155 38.6032C83.4625 37.66 83.0271 37.0795 82.8094 36.8618C82.5918 36.6441 82.3015 36.4264 82.0838 36.3538C81.7936 36.2813 81.4308 36.2087 80.8503 36.2087H80.3424V41.1429H77.8027V41.2154ZM80.3424 34.3221H82.1564C83.3174 34.3221 84.1156 34.2496 84.4058 34.177C84.696 34.1045 84.9137 33.8868 85.1314 33.6691C85.2765 33.4514 85.3491 33.1612 85.3491 32.7984C85.3491 32.4356 85.204 32.0727 84.9863 31.8551C84.7686 31.6374 84.4784 31.4197 84.043 31.4197C83.8253 31.4197 83.2448 31.3471 82.229 31.3471H80.2698V34.3221H80.3424Z" fill="white"/>
<path d="M90.2832 41.2154V29.3154H92.6777L97.757 37.2246V29.3154H100.079V41.1429H97.6119L92.6052 33.3788V41.1429H90.2832V41.2154Z" fill="white"/>
<path d="M113.866 41.215H111.181L110.092 38.5303H105.158L104.142 41.215H101.53L106.319 29.3876H108.932L113.866 41.215ZM109.294 36.4986L107.625 32.0723L105.957 36.4986H109.294Z" fill="white"/>
<path d="M116.695 41.2154V31.3471H113.067V29.3154H122.863V31.3471H119.235V41.2154H116.695Z" fill="white"/>
<path d="M124.314 41.2154V29.3154H126.782V41.1429H124.314V41.2154Z" fill="white"/>
<path d="M128.74 35.3376C128.74 34.1041 128.958 33.0882 129.321 32.29C129.611 31.7096 129.974 31.1291 130.482 30.6937C130.99 30.1858 131.498 29.823 132.078 29.6053C132.876 29.315 133.747 29.1699 134.763 29.1699C136.577 29.1699 138.028 29.6778 139.116 30.7663C140.205 31.8547 140.785 33.3785 140.785 35.265C140.785 37.1516 140.277 38.6754 139.189 39.7638C138.101 40.8523 136.649 41.3602 134.835 41.3602C133.021 41.3602 131.57 40.8523 130.482 39.7638C129.248 38.6754 128.74 37.2242 128.74 35.3376ZM131.28 35.265C131.28 36.5711 131.57 37.6596 132.223 38.3126C132.876 39.0382 133.674 39.3285 134.69 39.3285C135.706 39.3285 136.504 38.9657 137.157 38.3126C137.81 37.6596 138.101 36.5711 138.101 35.1925C138.101 33.8138 137.81 32.798 137.157 32.1449C136.504 31.4919 135.706 31.1291 134.69 31.1291C133.674 31.1291 132.804 31.4919 132.223 32.1449C131.57 32.8705 131.28 33.8864 131.28 35.265Z" fill="white"/>
<path d="M142.672 41.2154V29.3154H145.066L150.146 37.2246V29.3154H152.468V41.1429H150.001L144.994 33.3788V41.1429H142.672V41.2154Z" fill="white"/>
<path d="M166.182 41.215H163.497L162.409 38.5303H157.475L156.459 41.215H153.847L158.636 29.3876H161.248L166.182 41.215ZM161.611 36.4986L159.942 32.0723L158.273 36.4986H161.611Z" fill="white"/>
<path d="M167.923 41.2144V19.7363H170.39V38.8924H179.605V41.2144H167.923Z" fill="white"/>
<path d="M45.8748 54.6388H43.6979L42.8272 52.462H38.8363L38.0382 54.6388H35.8613L39.7071 44.9882H41.8839L45.8748 54.6388ZM42.1016 50.793L40.7229 47.2376L39.3443 50.793H42.1016Z" fill="white"/>
<path d="M46.8909 44.9882H50.5915C51.4623 44.9882 52.0428 45.0607 52.4781 45.2058C53.0586 45.351 53.5665 45.6412 54.0019 46.0766C54.4373 46.5119 54.7275 47.0199 54.9452 47.6729C55.1629 48.2534 55.308 49.0516 55.308 49.9223C55.308 50.7205 55.2354 51.3735 55.0178 51.954C54.8001 52.6796 54.4373 53.2601 53.9293 53.6229C53.5665 53.9857 53.1312 54.2034 52.4781 54.4211C52.0428 54.5662 51.4623 54.6388 50.6641 54.6388H46.8184V44.9882H46.8909ZM48.9226 46.5845V52.9699H50.4464C51.0269 52.9699 51.3897 52.9699 51.6799 52.8973C52.0428 52.8248 52.2604 52.6796 52.4781 52.462C52.6958 52.2443 52.8409 51.954 52.986 51.5187C53.1312 51.0833 53.2037 50.5028 53.2037 49.7772C53.2037 49.0516 53.1312 48.4711 52.986 48.0357C52.8409 47.6729 52.6232 47.3101 52.4056 47.0924C52.1879 46.8747 51.8251 46.7296 51.4623 46.6571C51.172 46.5845 50.5915 46.5845 49.7934 46.5845H48.9226Z" fill="white"/>
<path d="M57.0488 54.6388V44.9882H60.0964L61.9104 51.5912L63.7244 44.9882H66.772V54.6388H64.8854V47.0199L62.9263 54.6388H60.9671L59.008 47.0199V54.6388H57.0488Z" fill="white"/>
<path d="M68.6592 54.6388V44.9882H70.6909V54.6388H68.6592Z" fill="white"/>
<path d="M72.1416 51.5187L74.1007 51.301C74.2459 51.954 74.4636 52.3894 74.8264 52.6797C75.1892 52.9699 75.6971 53.115 76.2776 53.115C76.9306 53.115 77.4386 52.9699 77.7288 52.7522C78.0916 52.462 78.2367 52.1717 78.2367 51.8089C78.2367 51.5912 78.1642 51.3736 78.019 51.2284C77.8739 51.0833 77.6562 50.9382 77.2934 50.7931C77.0758 50.7205 76.4953 50.5754 75.6971 50.3577C74.6087 50.0675 73.8831 49.7772 73.3751 49.4144C72.7946 48.9065 72.4318 48.2534 72.4318 47.4553C72.4318 46.9473 72.577 46.512 72.8672 46.0766C73.1575 45.6412 73.5928 45.351 74.1007 45.1333C74.6812 44.9156 75.3343 44.7705 76.0599 44.7705C77.2934 44.7705 78.2367 45.0608 78.8898 45.5687C79.5428 46.0766 79.8331 46.8022 79.9056 47.6729L77.8739 47.7455C77.8014 47.2376 77.5837 46.8748 77.2934 46.6571C77.0032 46.4394 76.5678 46.3669 75.9873 46.3669C75.4068 46.3669 74.9715 46.512 74.6087 46.7297C74.391 46.8748 74.3184 47.0925 74.3184 47.3101C74.3184 47.5278 74.391 47.7455 74.6087 47.8906C74.8989 48.1083 75.4794 48.326 76.4953 48.5437C77.5111 48.7614 78.2367 48.979 78.6721 49.2693C79.18 49.487 79.5428 49.8498 79.7605 50.2851C80.0508 50.7205 80.1959 51.2284 80.1959 51.8089C80.1959 52.3894 80.0508 52.8973 79.688 53.3327C79.3977 53.8406 78.8898 54.2034 78.3093 54.4211C77.7288 54.6388 77.0032 54.7839 76.1325 54.7839C74.8264 54.7839 73.8831 54.4937 73.23 53.9132C72.6495 53.4053 72.2867 52.5345 72.1416 51.5187Z" fill="white"/>
<path d="M81.502 51.5187L83.4611 51.301C83.6062 51.954 83.8239 52.3894 84.1867 52.6797C84.5495 52.9699 85.0574 53.115 85.6379 53.115C86.291 53.115 86.7989 52.9699 87.0892 52.7522C87.452 52.462 87.5971 52.1717 87.5971 51.8089C87.5971 51.5912 87.5245 51.3736 87.3794 51.2284C87.2343 51.0833 87.0166 50.9382 86.6538 50.7931C86.4361 50.7205 85.8556 50.5754 85.0574 50.3577C83.969 50.0675 83.2434 49.7772 82.7355 49.4144C82.155 48.9065 81.7922 48.2534 81.7922 47.4553C81.7922 46.9473 81.9373 46.512 82.2276 46.0766C82.5178 45.6412 82.9532 45.351 83.4611 45.1333C84.0416 44.9156 84.6946 44.7705 85.4202 44.7705C86.6538 44.7705 87.5971 45.0608 88.2501 45.5687C88.9032 46.0766 89.1934 46.8022 89.266 47.6729L87.2343 47.7455C87.1617 47.2376 86.944 46.8748 86.6538 46.6571C86.3635 46.4394 85.9282 46.3669 85.3477 46.3669C84.7672 46.3669 84.3318 46.512 83.969 46.7297C83.7513 46.8748 83.6788 47.0925 83.6788 47.3101C83.6788 47.5278 83.7513 47.7455 83.969 47.8906C84.2593 48.1083 84.8398 48.326 85.8556 48.5437C86.8715 48.7614 87.5971 48.979 88.0324 49.2693C88.5404 49.487 88.9032 49.8498 89.1209 50.2851C89.4111 50.7205 89.5562 51.2284 89.5562 51.8089C89.5562 52.3894 89.4111 52.8973 89.0483 53.3327C88.7581 53.8406 88.2501 54.2034 87.6696 54.4211C87.0892 54.6388 86.3635 54.7839 85.4928 54.7839C84.1867 54.7839 83.2434 54.4937 82.5904 53.9132C82.0099 53.4053 81.6471 52.5345 81.502 51.5187Z" fill="white"/>
<path d="M91.2979 54.6388V44.9882H93.3296V54.6388H91.2979Z" fill="white"/>
<path d="M94.8535 49.8495C94.8535 48.8336 94.9986 48.0355 95.2889 47.3824C95.5066 46.8745 95.7968 46.4391 96.2322 46.0763C96.595 45.7135 97.0303 45.4233 97.5383 45.2056C98.1913 44.9153 98.9169 44.8428 99.7151 44.8428C101.166 44.8428 102.4 45.2781 103.271 46.1489C104.141 47.0196 104.577 48.2531 104.577 49.8495C104.577 51.3733 104.141 52.6068 103.271 53.4775C102.4 54.3483 101.239 54.7836 99.7151 54.7836C98.1913 54.7836 97.0303 54.3483 96.1596 53.4775C95.2889 52.6068 94.8535 51.3733 94.8535 49.8495ZM96.9578 49.7769C96.9578 50.8653 97.248 51.6635 97.756 52.244C98.2639 52.8245 98.9169 53.1147 99.7877 53.1147C100.586 53.1147 101.239 52.8245 101.747 52.244C102.255 51.6635 102.545 50.8653 102.545 49.7044C102.545 48.6159 102.327 47.7452 101.819 47.2373C101.311 46.7294 100.658 46.4391 99.7877 46.4391C98.9169 46.4391 98.2639 46.7294 97.756 47.2373C97.1755 47.8178 96.9578 48.6885 96.9578 49.7769Z" fill="white"/>
<path d="M106.173 54.6388V44.9882H108.132L112.268 51.4461V44.9882H114.155V54.6388H112.123L108.059 48.326V54.6388H106.173Z" fill="white"/>
<path d="M119.669 51.5187L121.628 51.301C121.773 51.954 121.991 52.3894 122.354 52.6797C122.717 52.9699 123.224 53.115 123.805 53.115C124.458 53.115 124.966 52.9699 125.256 52.7522C125.619 52.462 125.764 52.1717 125.764 51.8089C125.764 51.5912 125.692 51.3736 125.546 51.2284C125.401 51.0833 125.184 50.9382 124.821 50.7931C124.603 50.7205 124.023 50.5754 123.224 50.3577C122.136 50.0675 121.41 49.7772 120.902 49.4144C120.322 48.9065 119.959 48.2534 119.959 47.4553C119.959 46.9473 120.104 46.512 120.395 46.0766C120.685 45.6412 121.12 45.351 121.628 45.1333C122.209 44.9156 122.862 44.7705 123.587 44.7705C124.821 44.7705 125.764 45.0608 126.417 45.5687C127.07 46.0766 127.36 46.8022 127.433 47.6729L125.401 47.7455C125.329 47.2376 125.111 46.8748 124.821 46.6571C124.531 46.4394 124.095 46.3669 123.515 46.3669C122.934 46.3669 122.499 46.512 122.136 46.7297C121.918 46.8748 121.846 47.0925 121.846 47.3101C121.846 47.5278 121.918 47.7455 122.136 47.8906C122.426 48.1083 123.007 48.326 124.023 48.5437C125.038 48.7614 125.764 48.979 126.199 49.2693C126.707 49.487 127.07 49.8498 127.288 50.2851C127.578 50.7205 127.723 51.2284 127.723 51.8089C127.723 52.3894 127.578 52.8973 127.215 53.3327C126.925 53.8406 126.417 54.2034 125.837 54.4211C125.256 54.6388 124.531 54.7839 123.66 54.7839C122.354 54.7839 121.41 54.4937 120.757 53.9132C120.249 53.4053 119.814 52.5345 119.669 51.5187Z" fill="white"/>
<path d="M129.538 54.6388V44.9882H137.012V46.6571H131.57V48.7613H136.577V50.3577H131.57V52.9699H137.157V54.5662H129.538V54.6388Z" fill="white"/>
<path d="M138.898 54.6388V44.9882H143.18C144.268 44.9882 145.066 45.0607 145.501 45.2784C146.009 45.4235 146.372 45.7863 146.662 46.2217C146.953 46.6571 147.098 47.165 147.098 47.7455C147.098 48.4711 146.88 49.0516 146.445 49.5595C146.009 49.9949 145.356 50.3577 144.486 50.4302C144.921 50.6479 145.284 50.9382 145.574 51.2284C145.864 51.5187 146.227 52.0266 146.735 52.8248L147.969 54.7113H145.574L144.123 52.6071C143.615 51.8815 143.252 51.3735 143.034 51.1558C142.817 50.9382 142.672 50.793 142.454 50.7205C142.236 50.6479 141.873 50.5754 141.438 50.5754H141.003V54.5662H138.898V54.6388ZM140.93 49.0516H142.454C143.397 49.0516 144.05 48.979 144.268 48.9065C144.486 48.8339 144.703 48.6888 144.848 48.4711C144.994 48.2534 145.066 48.0357 145.066 47.7455C145.066 47.4552 144.994 47.165 144.776 46.9473C144.558 46.7296 144.341 46.6571 143.978 46.5845C143.833 46.5845 143.325 46.5845 142.526 46.5845H140.93V49.0516Z" fill="white"/>
<path d="M151.379 54.6388L147.751 44.9882H149.928L152.467 52.0991L154.935 44.9882H157.111L153.483 54.6388H151.379Z" fill="white"/>
<path d="M158.127 54.6389V44.9883H160.159V54.6389H158.127Z" fill="white"/>
<path d="M168.502 51.083L170.462 51.6635C170.171 52.7519 169.663 53.4775 168.938 53.9855C168.212 54.4934 167.341 54.7836 166.253 54.7836C164.947 54.7836 163.858 54.3483 162.988 53.4775C162.117 52.6068 161.682 51.3733 161.682 49.922C161.682 48.3257 162.117 47.0922 162.988 46.1489C163.858 45.2781 165.019 44.8428 166.398 44.8428C167.632 44.8428 168.647 45.2056 169.373 45.8586C169.808 46.294 170.171 46.8745 170.389 47.6001L168.357 48.0355C168.212 47.5275 167.994 47.1647 167.632 46.8745C167.269 46.5842 166.761 46.4391 166.253 46.4391C165.527 46.4391 164.874 46.7294 164.439 47.2373C164.004 47.7452 163.713 48.6159 163.713 49.7044C163.713 50.9379 163.931 51.8086 164.366 52.3166C164.802 52.8245 165.382 53.1147 166.18 53.1147C166.688 53.1147 167.196 52.9696 167.559 52.6068C167.994 52.3166 168.285 51.8086 168.502 51.083Z" fill="white"/>
<path d="M172.203 54.6388V44.9882H179.677V46.6571H174.235V48.7613H179.242V50.3577H174.235V52.9699H179.822V54.5662H172.203V54.6388Z" fill="white"/>
<path d="M103.779 26.2674L102.183 20.7528H102.981L103.924 24.3809C103.997 24.7437 104.142 25.1065 104.214 25.5418L104.505 24.526L105.666 20.8254H106.609L107.48 23.5827C107.697 24.2357 107.842 24.8888 107.915 25.5418C107.987 25.179 108.06 24.8162 108.205 24.3809L109.148 20.8254H109.947L108.278 26.34H107.48L106.246 22.1315L106.028 21.4784C105.956 21.6961 105.883 21.9138 105.883 22.1315L104.577 26.34H103.779V26.2674Z" fill="white"/>
<path d="M110.6 26.2674V20.7528H114.953V21.4059H111.398V23.0748H114.736V23.7278H111.398V25.6144H115.098V26.2674H110.6Z" fill="white"/>
<path d="M117.42 26.2674L119.742 20.7528H120.613L123.08 26.2674H122.136L121.411 24.5985H118.871L118.218 26.2674H117.42ZM119.161 24.0181H121.193L120.54 22.4943C120.322 22.0589 120.177 21.6235 120.105 21.3333C120.032 21.6961 119.887 22.0589 119.742 22.3492L119.161 24.0181Z" fill="white"/>
<path d="M123.66 26.2674V20.7528H126.345C126.925 20.7528 127.288 20.8254 127.578 20.8979C127.869 20.9705 128.086 21.1882 128.232 21.4059C128.377 21.6235 128.449 21.9138 128.449 22.204C128.449 22.6394 128.304 22.9296 128.014 23.2199C127.724 23.5101 127.288 23.6552 126.78 23.7278C126.998 23.8004 127.143 23.9455 127.288 24.0181C127.506 24.2357 127.724 24.4534 127.941 24.7437L128.957 26.2674H127.941L127.143 25.1065C126.853 24.6711 126.635 24.3809 126.417 24.2357C126.272 24.0906 126.127 23.9455 125.982 23.9455C125.837 23.8729 125.619 23.8729 125.329 23.8729H124.386V26.34H123.66V26.2674ZM124.458 23.2199H126.2C126.563 23.2199 126.853 23.2199 127.071 23.1473C127.288 23.0748 127.433 23.0022 127.506 22.8571C127.651 22.712 127.651 22.5668 127.651 22.3491C127.651 22.0589 127.578 21.8412 127.361 21.6961C127.143 21.551 126.853 21.4784 126.417 21.4784H124.531V23.2199H124.458Z" fill="white"/>
<path d="M129.756 26.2674V20.7528H134.11V21.4059H130.554V23.0748H133.892V23.7278H130.554V25.6144H134.255V26.2674H129.756Z" fill="white"/>
<path d="M140.422 24.0902V23.4372H142.962V25.4689C142.599 25.7591 142.163 25.9768 141.728 26.1219C141.293 26.2671 140.857 26.3396 140.422 26.3396C139.841 26.3396 139.333 26.1945 138.826 25.9768C138.39 25.7591 138.027 25.4689 137.737 25.0335C137.447 24.5982 137.302 24.0902 137.302 23.5097C137.302 22.9293 137.447 22.4213 137.737 21.9134C138.027 21.478 138.39 21.1152 138.826 20.8975C139.261 20.6799 139.769 20.6073 140.349 20.6073C140.785 20.6073 141.147 20.6799 141.51 20.825C141.873 20.9701 142.091 21.1152 142.308 21.3329C142.526 21.5506 142.671 21.8408 142.816 22.2762L142.091 22.4213C142.018 22.1311 141.873 21.9134 141.728 21.6957C141.583 21.5506 141.365 21.4055 141.147 21.3329C140.93 21.2603 140.64 21.1878 140.349 21.1878C139.914 21.1878 139.551 21.2603 139.261 21.4055C138.971 21.5506 138.68 21.8408 138.535 22.1311C138.318 22.4939 138.245 22.8567 138.245 23.3646C138.245 24.0902 138.463 24.6707 138.826 25.0335C139.261 25.3963 139.769 25.614 140.422 25.614C140.712 25.614 141.075 25.5415 141.365 25.4689C141.728 25.3238 141.946 25.2512 142.163 25.0335V24.0177H140.422V24.0902Z" fill="white"/>
<path d="M144.123 26.2674V20.7528H144.921V25.6144H147.896V26.2674H144.123Z" fill="white"/>
<path d="M148.549 23.582C148.549 22.6387 148.839 21.9131 149.347 21.4052C149.927 20.8972 150.581 20.6796 151.379 20.6796C151.887 20.6796 152.395 20.8247 152.83 21.0424C153.265 21.2601 153.628 21.6229 153.846 22.0582C154.063 22.4936 154.209 23.0015 154.209 23.582C154.209 24.3802 153.991 25.0332 153.483 25.5412C152.975 26.1216 152.249 26.4119 151.379 26.4119C150.508 26.4119 149.782 26.1216 149.274 25.5412C148.839 24.9607 148.549 24.3076 148.549 23.582ZM149.42 23.582C149.42 24.2351 149.637 24.8155 150 25.1784C150.363 25.5412 150.871 25.7588 151.451 25.7588C152.032 25.7588 152.54 25.5412 152.902 25.1784C153.265 24.8155 153.483 24.2351 153.483 23.5094C153.483 23.0015 153.41 22.6387 153.193 22.2759C153.048 21.9857 152.83 21.768 152.467 21.6229C152.177 21.4777 151.814 21.3326 151.451 21.3326C150.871 21.3326 150.363 21.5503 150 21.9131C149.565 22.2033 149.42 22.7838 149.42 23.582Z" fill="white"/>
<path d="M155.297 26.2674V20.7528H157.546C157.982 20.7528 158.344 20.8254 158.635 20.8979C158.925 20.9705 159.143 21.1882 159.288 21.4059C159.433 21.6235 159.578 21.9138 159.578 22.1315C159.578 22.3492 159.505 22.6394 159.36 22.7845C159.215 23.0022 158.997 23.1473 158.707 23.2924C159.07 23.365 159.36 23.5827 159.505 23.8004C159.723 24.0181 159.796 24.3083 159.796 24.6711C159.796 25.0339 159.723 25.3242 159.505 25.5418C159.288 25.7595 159.07 25.9772 158.78 26.1223C158.49 26.2674 158.054 26.2674 157.546 26.2674H155.297ZM156.095 23.0748H157.401C157.764 23.0748 157.982 23.0748 158.127 23.0022C158.344 22.9296 158.49 22.8571 158.635 22.712C158.78 22.5668 158.78 22.4217 158.78 22.204C158.78 21.9863 158.707 21.8412 158.635 21.6961C158.562 21.551 158.417 21.4784 158.199 21.4059C158.054 21.3333 157.764 21.3333 157.256 21.3333H156.022V23.0748H156.095ZM156.095 25.6144H157.619C157.982 25.6144 158.199 25.6144 158.344 25.5418C158.562 25.4693 158.707 25.3967 158.852 25.2516C158.997 25.1065 158.997 24.8888 158.997 24.6711C158.997 24.4534 158.925 24.3083 158.852 24.1632C158.707 24.0181 158.562 23.9455 158.417 23.8729C158.199 23.8004 157.909 23.8004 157.546 23.8004H156.168V25.6144H156.095Z" fill="white"/>
<path d="M160.231 26.2674L162.553 20.7528H163.424L165.891 26.2674H164.948L164.222 24.5985H161.683L161.03 26.2674H160.231ZM161.973 24.0181H164.005L163.352 22.4943C163.134 22.0589 162.989 21.6235 162.916 21.3333C162.844 21.6961 162.699 22.0589 162.553 22.3492L161.973 24.0181Z" fill="white"/>
</svg>
