<svg width="180" height="55" viewBox="0 0 180 55" fill="none" xmlns="http://www.w3.org/2000/svg">
<path d="M15.5449 0L26.4291 13.6415L36.2974 13.5689L28.4608 6.45793L30.4199 6.31281L38.2565 12.9159C38.2565 12.9159 38.7645 13.5689 38.7645 15.3104C38.7645 17.9951 38.7645 19.1561 38.7645 19.1561C38.7645 19.1561 36.8779 20.825 38.7645 22.1311C38.1114 24.8884 37.4584 26.5573 37.4584 26.5573H41.0139L40.3608 22.1311C40.3608 22.1311 42.3199 20.7525 39.998 19.011C39.9254 15.7457 39.8529 13.2787 39.8529 13.2787L44.4968 13.3512L32.4516 0.870733L15.5449 0Z" fill="#15234A"/>
<path d="M18.8101 7.03809L16.0527 13.7137C16.0527 13.7137 22.3655 16.8338 23.454 19.8814C24.0344 19.8814 31.0729 19.3735 33.1046 21.4777C34.5558 18.9381 36.5149 15.2375 36.5149 15.2375L25.4131 15.7454L18.8101 7.03809Z" fill="#15234A"/>
<path d="M9.23189 52.9693V55.001H29.8392V52.9693C29.8392 52.9693 27.3722 51.0101 20.6965 50.5022C20.6965 48.1802 20.6965 48.1077 20.6965 48.1077C20.6965 48.1077 26.4289 47.89 29.6941 45.7857C31.0002 48.2528 31.0002 48.3254 31.0002 48.3254C31.0002 48.3254 32.6691 49.4138 32.8142 47.3095C32.4514 46.4388 31.4356 44.4071 31.4356 44.4071L33.3222 42.593C33.3222 42.593 34.4831 40.3436 31.9435 41.4321C30.1295 42.7382 27.8075 46.4388 17.8667 46.1485C16.7057 46.0034 8.79653 45.7132 3.71725 35.5546C3.35445 34.7564 -0.563848 26.9924 5.24104 18.793C6.25689 17.4144 7.56299 14.8747 14.8191 11.682C15.2545 11.5369 16.7057 10.1583 14.7465 9.65033C14.166 9.65033 13.0776 10.3759 10.9734 11.2467C10.538 9.94057 10.4654 8.77959 8.50628 8.70703C8.43372 8.77959 6.54714 9.72289 9.08677 12.2625C6.03921 14.5119 2.41116 17.632 0.597129 23.2192C0.0892019 25.7589 -1.43458 33.0875 3.86238 39.9083C6.9825 43.5363 9.37702 46.3662 18.6648 48.0351C18.6648 49.1235 18.6648 50.5748 18.6648 50.5748C18.6648 50.5748 12.4971 49.9217 9.23189 52.9693Z" fill="#15234A"/>
<path d="M19.2458 42.6654C14.9647 42.6654 10.5385 41.0691 7.34581 36.1349C7.27325 35.9898 7.20069 35.9173 7.12813 35.8447L7.05557 35.7721C5.02386 31.9264 4.58849 28.2258 5.74947 24.7429C7.85374 18.2849 14.6019 14.8746 14.8922 14.7294C15.3275 14.5117 15.8355 14.7294 16.0531 15.0922C16.2708 15.5276 16.1257 16.0355 15.6903 16.2532C15.6178 16.2532 9.30496 19.5185 7.41838 25.3233C6.47508 28.3709 6.83789 31.5636 8.65191 34.9014C8.72447 34.974 8.79703 35.1191 8.8696 35.1916C12.3525 40.7063 18.0123 42.3026 25.6312 39.9081C26.8647 39.3276 35.4269 34.7563 31.3635 23.074C31.2184 22.6386 31.4361 22.1307 31.8715 21.9855C32.3068 21.8404 32.8147 22.0581 32.9599 22.4935C36.6605 33.2325 30.4928 39.4727 26.2842 41.4319C26.2842 41.4319 26.2117 41.4319 26.2117 41.5045C23.9623 42.1575 21.6403 42.6654 19.2458 42.6654Z" fill="#15234A"/>
<path d="M16.561 42.3023C16.2708 42.3023 15.9805 42.1571 15.8354 41.8669C6.11221 25.3955 16.0531 15.9626 16.1256 15.89C16.4884 15.5998 16.9964 15.5998 17.3592 15.9626C17.6494 16.3254 17.6494 16.8333 17.2866 17.1961C16.9238 17.5589 8.28904 25.8309 17.2866 41.0687C17.5043 41.5041 17.3592 42.012 16.9964 42.2297C16.8512 42.3023 16.7061 42.3023 16.561 42.3023Z" fill="#15234A"/>
<path d="M19.609 42.3755C19.1736 42.3755 18.7383 42.0126 18.7383 41.5047V18.4303C18.7383 17.9949 19.1011 17.5596 19.609 17.5596C20.1169 17.5596 20.4797 17.9224 20.4797 18.4303V41.5773C20.4072 42.0126 20.0444 42.3755 19.609 42.3755Z" fill="#15234A"/>
<path d="M22.4385 42.3029C22.2208 42.3029 22.0756 42.2303 21.858 42.0852C21.4952 41.795 21.4226 41.2145 21.7854 40.8517C28.1708 33.3779 25.2683 22.784 25.1958 22.6389C25.0506 22.2035 25.3409 21.6956 25.7763 21.5504C26.2116 21.4053 26.7196 21.6956 26.8647 22.1309C27.0098 22.5663 30.1299 33.6681 23.0915 41.8675C22.9464 42.2303 22.7287 42.3029 22.4385 42.3029Z" fill="#15234A"/>
<path d="M6.11194 29.6044C5.67658 29.6044 5.24121 29.2416 5.24121 28.7336C5.24121 28.2983 5.60402 27.8629 6.11194 27.8629L32.9595 27.7178C33.3949 27.7178 33.8303 28.0806 33.8303 28.5885C33.8303 29.0239 33.4675 29.4592 32.9595 29.4592L6.11194 29.6044Z" fill="#15234A"/>
<path d="M19.3905 24.4523C12.4246 24.4523 9.52218 20.534 9.37706 20.3164C9.08681 19.9536 9.23194 19.3731 9.59474 19.1554C9.95755 18.8651 10.538 19.0103 10.7557 19.3731C10.9734 19.6633 15.4722 25.6859 27.8076 21.1145C28.2429 20.9694 28.7509 21.1871 28.896 21.6225C29.0411 22.0578 28.8234 22.5657 28.3881 22.7109C24.8326 23.9444 21.8576 24.4523 19.3905 24.4523Z" fill="#15234A"/>
<path d="M29.8401 38.6022C29.6224 38.6022 29.4047 38.5296 29.2596 38.3845C20.4071 29.8948 10.6114 37.8766 10.176 38.2394C9.81321 38.5296 9.30528 38.457 9.01503 38.1668C8.72479 37.7314 8.72479 37.2235 9.0876 36.9333C9.23272 36.8607 20.4797 27.5729 30.4205 37.151C30.7833 37.4412 30.7833 38.0217 30.4205 38.3845C30.2754 38.5296 30.0577 38.6022 29.8401 38.6022Z" fill="#15234A"/>
<path d="M38.4736 41.2154V29.3154H40.9407V41.1429H38.4736V41.2154Z" fill="black"/>
<path d="M43.4082 41.2154V29.3154H45.8027L50.882 37.2246V29.3154H53.2039V41.1429H50.7369L45.7302 33.3788V41.1429H43.4082V41.2154Z" fill="black"/>
<path d="M58.5734 41.2154V31.3471H54.9453V29.3154H64.7411V31.3471H61.113V41.2154H58.5734Z" fill="black"/>
<path d="M66.3369 41.2154V29.3154H75.4796V31.3471H68.804V33.9593H74.9717V35.991H68.804V39.1837H75.6973V41.2154H66.3369Z" fill="black"/>
<path d="M77.8018 41.2154V29.3154H83.0262C84.3323 29.3154 85.2755 29.388 85.9286 29.6057C86.5091 29.8234 87.017 30.1862 87.3798 30.7667C87.7426 31.3471 87.8877 31.9276 87.8877 32.6532C87.8877 33.524 87.5975 34.2496 87.0896 34.8301C86.5091 35.4106 85.7109 35.7734 84.6225 35.9185C85.1304 36.2087 85.6384 36.5715 85.9286 36.9343C86.2914 37.2971 86.7268 37.9502 87.3798 38.8935L88.9036 41.2154H85.9286L84.1146 38.6032C83.4615 37.66 83.0262 37.0795 82.8085 36.8618C82.5908 36.6441 82.3005 36.4264 82.0829 36.3538C81.7926 36.2813 81.4298 36.2087 80.8493 36.2087H80.3414V41.1429H77.8018V41.2154ZM80.3414 34.3221H82.1554C83.3164 34.3221 84.1146 34.2496 84.4048 34.177C84.6951 34.1045 84.9127 33.8868 85.1304 33.6691C85.2756 33.4514 85.3481 33.1612 85.3481 32.7984C85.3481 32.4356 85.203 32.0727 84.9853 31.8551C84.7676 31.6374 84.4774 31.4197 84.042 31.4197C83.8243 31.4197 83.2438 31.3471 82.228 31.3471H80.2688V34.3221H80.3414Z" fill="black"/>
<path d="M90.2822 41.2154V29.3154H92.6767L97.756 37.2246V29.3154H100.078V41.1429H97.6109L92.6042 33.3788V41.1429H90.2822V41.2154Z" fill="black"/>
<path d="M113.865 41.2151H111.18L110.092 38.5304H105.157L104.141 41.2151H101.529L106.318 29.3877H108.931L113.865 41.2151ZM109.293 36.4987L107.624 32.0725L105.956 36.4987H109.293Z" fill="black"/>
<path d="M116.694 41.2154V31.3471H113.066V29.3154H122.862V31.3471H119.234V41.2154H116.694Z" fill="black"/>
<path d="M124.313 41.2154V29.3154H126.781V41.1429H124.313V41.2154Z" fill="black"/>
<path d="M128.739 35.3376C128.739 34.1041 128.957 33.0882 129.32 32.29C129.61 31.7096 129.973 31.1291 130.481 30.6937C130.989 30.1858 131.497 29.823 132.077 29.6053C132.875 29.315 133.746 29.1699 134.762 29.1699C136.576 29.1699 138.027 29.6778 139.115 30.7663C140.204 31.8547 140.784 33.3785 140.784 35.265C140.784 37.1516 140.276 38.6754 139.188 39.7638C138.1 40.8523 136.648 41.3602 134.834 41.3602C133.02 41.3602 131.569 40.8523 130.481 39.7638C129.247 38.6754 128.739 37.2242 128.739 35.3376ZM131.279 35.265C131.279 36.5711 131.569 37.6596 132.222 38.3126C132.875 39.0382 133.673 39.3285 134.689 39.3285C135.705 39.3285 136.503 38.9657 137.156 38.3126C137.809 37.6596 138.1 36.5711 138.1 35.1925C138.1 33.8138 137.809 32.798 137.156 32.1449C136.503 31.4919 135.705 31.1291 134.689 31.1291C133.673 31.1291 132.803 31.4919 132.222 32.1449C131.569 32.8705 131.279 33.8864 131.279 35.265Z" fill="black"/>
<path d="M142.671 41.2154V29.3154H145.065L150.145 37.2246V29.3154H152.467V41.1429H150L144.993 33.3788V41.1429H142.671V41.2154Z" fill="black"/>
<path d="M166.181 41.2151H163.496L162.408 38.5304H157.474L156.458 41.2151H153.846L158.635 29.3877H161.247L166.181 41.2151ZM161.61 36.4987L159.941 32.0725L158.272 36.4987H161.61Z" fill="black"/>
<path d="M167.923 41.2144V19.7363H170.39V38.8924H179.605V41.2144H167.923Z" fill="black"/>
<path d="M45.8748 54.6389H43.6979L42.8272 52.4621H38.8363L38.0382 54.6389H35.8613L39.7071 44.9883H41.8839L45.8748 54.6389ZM42.1016 50.7932L40.7229 47.2377L39.3443 50.7932H42.1016Z" fill="black"/>
<path d="M46.8909 44.9883H50.5915C51.4623 44.9883 52.0428 45.0608 52.4781 45.206C53.0586 45.3511 53.5665 45.6413 54.0019 46.0767C54.4373 46.5121 54.7275 47.02 54.9452 47.673C55.1629 48.2535 55.308 49.0517 55.308 49.9224C55.308 50.7206 55.2354 51.3737 55.0178 51.9541C54.8001 52.6798 54.4373 53.2602 53.9293 53.623C53.5665 53.9859 53.1312 54.2035 52.4781 54.4212C52.0428 54.5663 51.4623 54.6389 50.6641 54.6389H46.8184V44.9883H46.8909ZM48.9226 46.5846V52.97H50.4464C51.0269 52.97 51.3897 52.97 51.6799 52.8974C52.0428 52.8249 52.2604 52.6798 52.4781 52.4621C52.6958 52.2444 52.8409 51.9541 52.986 51.5188C53.1312 51.0834 53.2037 50.5029 53.2037 49.7773C53.2037 49.0517 53.1312 48.4712 52.986 48.0358C52.8409 47.673 52.6232 47.3102 52.4056 47.0926C52.1879 46.8749 51.8251 46.7297 51.4623 46.6572C51.172 46.5846 50.5915 46.5846 49.7934 46.5846H48.9226Z" fill="black"/>
<path d="M57.0488 54.6389V44.9883H60.0964L61.9104 51.5913L63.7244 44.9883H66.772V54.6389H64.8854V47.02L62.9263 54.6389H60.9671L59.008 47.02V54.6389H57.0488Z" fill="black"/>
<path d="M68.6592 54.6389V44.9883H70.6909V54.6389H68.6592Z" fill="black"/>
<path d="M72.1416 51.5187L74.1007 51.301C74.2459 51.954 74.4636 52.3894 74.8264 52.6797C75.1892 52.9699 75.6971 53.115 76.2776 53.115C76.9306 53.115 77.4386 52.9699 77.7288 52.7522C78.0916 52.462 78.2367 52.1717 78.2367 51.8089C78.2367 51.5912 78.1642 51.3736 78.019 51.2284C77.8739 51.0833 77.6562 50.9382 77.2934 50.7931C77.0758 50.7205 76.4953 50.5754 75.6971 50.3577C74.6087 50.0675 73.8831 49.7772 73.3751 49.4144C72.7946 48.9065 72.4318 48.2534 72.4318 47.4553C72.4318 46.9473 72.577 46.512 72.8672 46.0766C73.1575 45.6412 73.5928 45.351 74.1007 45.1333C74.6812 44.9156 75.3343 44.7705 76.0599 44.7705C77.2934 44.7705 78.2367 45.0608 78.8898 45.5687C79.5428 46.0766 79.8331 46.8022 79.9056 47.6729L77.8739 47.7455C77.8014 47.2376 77.5837 46.8748 77.2934 46.6571C77.0032 46.4394 76.5678 46.3669 75.9873 46.3669C75.4068 46.3669 74.9715 46.512 74.6087 46.7297C74.391 46.8748 74.3184 47.0925 74.3184 47.3101C74.3184 47.5278 74.391 47.7455 74.6087 47.8906C74.8989 48.1083 75.4794 48.326 76.4953 48.5437C77.5111 48.7614 78.2367 48.979 78.6721 49.2693C79.18 49.487 79.5428 49.8498 79.7605 50.2851C80.0508 50.7205 80.1959 51.2284 80.1959 51.8089C80.1959 52.3894 80.0508 52.8973 79.688 53.3327C79.3977 53.8406 78.8898 54.2034 78.3093 54.4211C77.7288 54.6388 77.0032 54.7839 76.1325 54.7839C74.8264 54.7839 73.8831 54.4937 73.23 53.9132C72.6495 53.4053 72.2867 52.5345 72.1416 51.5187Z" fill="black"/>
<path d="M81.502 51.5187L83.4611 51.301C83.6062 51.954 83.8239 52.3894 84.1867 52.6797C84.5495 52.9699 85.0574 53.115 85.6379 53.115C86.291 53.115 86.7989 52.9699 87.0892 52.7522C87.452 52.462 87.5971 52.1717 87.5971 51.8089C87.5971 51.5912 87.5245 51.3736 87.3794 51.2284C87.2343 51.0833 87.0166 50.9382 86.6538 50.7931C86.4361 50.7205 85.8556 50.5754 85.0574 50.3577C83.969 50.0675 83.2434 49.7772 82.7355 49.4144C82.155 48.9065 81.7922 48.2534 81.7922 47.4553C81.7922 46.9473 81.9373 46.512 82.2276 46.0766C82.5178 45.6412 82.9532 45.351 83.4611 45.1333C84.0416 44.9156 84.6946 44.7705 85.4202 44.7705C86.6538 44.7705 87.5971 45.0608 88.2501 45.5687C88.9032 46.0766 89.1934 46.8022 89.266 47.6729L87.2343 47.7455C87.1617 47.2376 86.944 46.8748 86.6538 46.6571C86.3635 46.4394 85.9282 46.3669 85.3477 46.3669C84.7672 46.3669 84.3318 46.512 83.969 46.7297C83.7513 46.8748 83.6788 47.0925 83.6788 47.3101C83.6788 47.5278 83.7513 47.7455 83.969 47.8906C84.2593 48.1083 84.8398 48.326 85.8556 48.5437C86.8715 48.7614 87.5971 48.979 88.0324 49.2693C88.5404 49.487 88.9032 49.8498 89.1209 50.2851C89.4111 50.7205 89.5562 51.2284 89.5562 51.8089C89.5562 52.3894 89.4111 52.8973 89.0483 53.3327C88.7581 53.8406 88.2501 54.2034 87.6696 54.4211C87.0892 54.6388 86.3635 54.7839 85.4928 54.7839C84.1867 54.7839 83.2434 54.4937 82.5904 53.9132C82.0099 53.4053 81.6471 52.5345 81.502 51.5187Z" fill="black"/>
<path d="M91.2979 54.6389V44.9883H93.3296V54.6389H91.2979Z" fill="black"/>
<path d="M94.8535 49.8495C94.8535 48.8336 94.9986 48.0355 95.2889 47.3824C95.5066 46.8745 95.7968 46.4391 96.2322 46.0763C96.595 45.7135 97.0303 45.4233 97.5383 45.2056C98.1913 44.9153 98.9169 44.8428 99.7151 44.8428C101.166 44.8428 102.4 45.2781 103.271 46.1489C104.141 47.0196 104.577 48.2531 104.577 49.8495C104.577 51.3733 104.141 52.6068 103.271 53.4775C102.4 54.3483 101.239 54.7836 99.7151 54.7836C98.1913 54.7836 97.0303 54.3483 96.1596 53.4775C95.2889 52.6068 94.8535 51.3733 94.8535 49.8495ZM96.9578 49.7769C96.9578 50.8653 97.248 51.6635 97.756 52.244C98.2639 52.8245 98.9169 53.1147 99.7877 53.1147C100.586 53.1147 101.239 52.8245 101.747 52.244C102.255 51.6635 102.545 50.8653 102.545 49.7044C102.545 48.6159 102.327 47.7452 101.819 47.2373C101.311 46.7294 100.658 46.4391 99.7877 46.4391C98.9169 46.4391 98.2639 46.7294 97.756 47.2373C97.1755 47.8178 96.9578 48.6885 96.9578 49.7769Z" fill="black"/>
<path d="M106.173 54.6389V44.9883H108.132L112.268 51.4462V44.9883H114.155V54.6389H112.123L108.059 48.3261V54.6389H106.173Z" fill="black"/>
<path d="M119.669 51.5187L121.628 51.301C121.773 51.954 121.991 52.3894 122.354 52.6797C122.717 52.9699 123.224 53.115 123.805 53.115C124.458 53.115 124.966 52.9699 125.256 52.7522C125.619 52.462 125.764 52.1717 125.764 51.8089C125.764 51.5912 125.692 51.3736 125.546 51.2284C125.401 51.0833 125.184 50.9382 124.821 50.7931C124.603 50.7205 124.023 50.5754 123.224 50.3577C122.136 50.0675 121.41 49.7772 120.902 49.4144C120.322 48.9065 119.959 48.2534 119.959 47.4553C119.959 46.9473 120.104 46.512 120.395 46.0766C120.685 45.6412 121.12 45.351 121.628 45.1333C122.209 44.9156 122.862 44.7705 123.587 44.7705C124.821 44.7705 125.764 45.0608 126.417 45.5687C127.07 46.0766 127.36 46.8022 127.433 47.6729L125.401 47.7455C125.329 47.2376 125.111 46.8748 124.821 46.6571C124.531 46.4394 124.095 46.3669 123.515 46.3669C122.934 46.3669 122.499 46.512 122.136 46.7297C121.918 46.8748 121.846 47.0925 121.846 47.3101C121.846 47.5278 121.918 47.7455 122.136 47.8906C122.426 48.1083 123.007 48.326 124.023 48.5437C125.038 48.7614 125.764 48.979 126.199 49.2693C126.707 49.487 127.07 49.8498 127.288 50.2851C127.578 50.7205 127.723 51.2284 127.723 51.8089C127.723 52.3894 127.578 52.8973 127.215 53.3327C126.925 53.8406 126.417 54.2034 125.837 54.4211C125.256 54.6388 124.531 54.7839 123.66 54.7839C122.354 54.7839 121.41 54.4937 120.757 53.9132C120.249 53.4053 119.814 52.5345 119.669 51.5187Z" fill="black"/>
<path d="M129.538 54.6389V44.9883H137.012V46.6572H131.57V48.7615H136.577V50.3578H131.57V52.97H137.157V54.5663H129.538V54.6389Z" fill="black"/>
<path d="M138.898 54.6389V44.9883H143.18C144.268 44.9883 145.066 45.0608 145.501 45.2785C146.009 45.4236 146.372 45.7865 146.662 46.2218C146.953 46.6572 147.098 47.1651 147.098 47.7456C147.098 48.4712 146.88 49.0517 146.445 49.5596C146.009 49.995 145.356 50.3578 144.486 50.4304C144.921 50.648 145.284 50.9383 145.574 51.2285C145.864 51.5188 146.227 52.0267 146.735 52.8249L147.969 54.7115H145.574L144.123 52.6072C143.615 51.8816 143.252 51.3737 143.034 51.156C142.817 50.9383 142.672 50.7932 142.454 50.7206C142.236 50.648 141.873 50.5755 141.438 50.5755H141.003V54.5663H138.898V54.6389ZM140.93 49.0517H142.454C143.397 49.0517 144.05 48.9791 144.268 48.9066C144.486 48.834 144.703 48.6889 144.848 48.4712C144.994 48.2535 145.066 48.0358 145.066 47.7456C145.066 47.4554 144.994 47.1651 144.776 46.9474C144.558 46.7297 144.341 46.6572 143.978 46.5846C143.833 46.5846 143.325 46.5846 142.526 46.5846H140.93V49.0517Z" fill="black"/>
<path d="M151.379 54.6389L147.751 44.9883H149.928L152.467 52.0993L154.935 44.9883H157.111L153.483 54.6389H151.379Z" fill="black"/>
<path d="M158.127 54.6389V44.9883H160.159V54.6389H158.127Z" fill="black"/>
<path d="M168.503 51.083L170.462 51.6635C170.172 52.7519 169.664 53.4775 168.939 53.9855C168.213 54.4934 167.342 54.7836 166.254 54.7836C164.948 54.7836 163.859 54.3483 162.989 53.4775C162.118 52.6068 161.683 51.3733 161.683 49.922C161.683 48.3257 162.118 47.0922 162.989 46.1489C163.859 45.2781 165.02 44.8428 166.399 44.8428C167.633 44.8428 168.648 45.2056 169.374 45.8586C169.809 46.294 170.172 46.8745 170.39 47.6001L168.358 48.0355C168.213 47.5275 167.995 47.1647 167.633 46.8745C167.27 46.5842 166.762 46.4391 166.254 46.4391C165.528 46.4391 164.875 46.7294 164.44 47.2373C164.005 47.7452 163.714 48.6159 163.714 49.7044C163.714 50.9379 163.932 51.8086 164.367 52.3166C164.803 52.8245 165.383 53.1147 166.181 53.1147C166.689 53.1147 167.197 52.9696 167.56 52.6068C167.995 52.3166 168.286 51.8086 168.503 51.083Z" fill="black"/>
<path d="M172.203 54.6389V44.9883H179.677V46.6572H174.235V48.7615H179.242V50.3578H174.235V52.97H179.822V54.5663H172.203V54.6389Z" fill="black"/>
<path d="M103.779 26.2676L102.183 20.7529H102.981L103.924 24.381C103.997 24.7438 104.142 25.1066 104.214 25.542L104.505 24.5261L105.666 20.8255H106.609L107.48 23.5828C107.697 24.2359 107.842 24.8889 107.915 25.542C107.987 25.1792 108.06 24.8163 108.205 24.381L109.148 20.8255H109.947L108.278 26.3401H107.48L106.246 22.1316L106.028 21.4785C105.956 21.6962 105.883 21.9139 105.883 22.1316L104.577 26.3401H103.779V26.2676Z" fill="black"/>
<path d="M110.6 26.2676V20.7529H114.953V21.406H111.398V23.0749H114.736V23.7279H111.398V25.6145H115.098V26.2676H110.6Z" fill="black"/>
<path d="M117.42 26.2676L119.742 20.7529H120.613L123.08 26.2676H122.136L121.411 24.5987H118.871L118.218 26.2676H117.42ZM119.161 24.0182H121.193L120.54 22.4944C120.322 22.059 120.177 21.6237 120.105 21.3334C120.032 21.6962 119.887 22.059 119.742 22.3493L119.161 24.0182Z" fill="black"/>
<path d="M123.661 26.2676V20.7529H126.346C126.926 20.7529 127.289 20.8255 127.579 20.8981C127.87 20.9706 128.087 21.1883 128.232 21.406C128.378 21.6237 128.45 21.9139 128.45 22.2042C128.45 22.6395 128.305 22.9298 128.015 23.22C127.725 23.5102 127.289 23.6554 126.781 23.7279C126.999 23.8005 127.144 23.9456 127.289 24.0182C127.507 24.2359 127.725 24.4535 127.942 24.7438L128.958 26.2676H127.942L127.144 25.1066C126.854 24.6712 126.636 24.381 126.418 24.2359C126.273 24.0907 126.128 23.9456 125.983 23.9456C125.838 23.8731 125.62 23.8731 125.33 23.8731H124.387V26.3401H123.661V26.2676ZM124.459 23.22H126.201C126.564 23.22 126.854 23.22 127.072 23.1474C127.289 23.0749 127.434 23.0023 127.507 22.8572C127.652 22.7121 127.652 22.567 127.652 22.3493C127.652 22.059 127.579 21.8413 127.362 21.6962C127.144 21.5511 126.854 21.4785 126.418 21.4785H124.532V23.22H124.459Z" fill="black"/>
<path d="M129.756 26.2676V20.7529H134.11V21.406H130.554V23.0749H133.892V23.7279H130.554V25.6145H134.255V26.2676H129.756Z" fill="black"/>
<path d="M140.422 24.0904V23.4373H142.962V25.469C142.599 25.7593 142.163 25.9769 141.728 26.1221C141.293 26.2672 140.857 26.3397 140.422 26.3397C139.841 26.3397 139.333 26.1946 138.826 25.9769C138.39 25.7593 138.027 25.469 137.737 25.0336C137.447 24.5983 137.302 24.0904 137.302 23.5099C137.302 22.9294 137.447 22.4214 137.737 21.9135C138.027 21.4782 138.39 21.1153 138.826 20.8977C139.261 20.68 139.769 20.6074 140.349 20.6074C140.785 20.6074 141.147 20.68 141.51 20.8251C141.873 20.9702 142.091 21.1153 142.308 21.333C142.526 21.5507 142.671 21.841 142.816 22.2763L142.091 22.4214C142.018 22.1312 141.873 21.9135 141.728 21.6958C141.583 21.5507 141.365 21.4056 141.147 21.333C140.93 21.2605 140.64 21.1879 140.349 21.1879C139.914 21.1879 139.551 21.2605 139.261 21.4056C138.971 21.5507 138.68 21.841 138.535 22.1312C138.318 22.494 138.245 22.8568 138.245 23.3647C138.245 24.0904 138.463 24.6708 138.826 25.0336C139.261 25.3965 139.769 25.6141 140.422 25.6141C140.712 25.6141 141.075 25.5416 141.365 25.469C141.728 25.3239 141.946 25.2513 142.163 25.0336V24.0178H140.422V24.0904Z" fill="black"/>
<path d="M144.123 26.2676V20.7529H144.921V25.6145H147.896V26.2676H144.123Z" fill="black"/>
<path d="M148.549 23.5821C148.549 22.6388 148.839 21.9132 149.347 21.4053C149.927 20.8974 150.581 20.6797 151.379 20.6797C151.887 20.6797 152.395 20.8248 152.83 21.0425C153.265 21.2602 153.628 21.623 153.846 22.0583C154.063 22.4937 154.209 23.0016 154.209 23.5821C154.209 24.3803 153.991 25.0334 153.483 25.5413C152.975 26.1218 152.249 26.412 151.379 26.412C150.508 26.412 149.782 26.1218 149.274 25.5413C148.839 24.9608 148.549 24.3077 148.549 23.5821ZM149.42 23.5821C149.42 24.2352 149.637 24.8157 150 25.1785C150.363 25.5413 150.871 25.759 151.451 25.759C152.032 25.759 152.54 25.5413 152.902 25.1785C153.265 24.8157 153.483 24.2352 153.483 23.5096C153.483 23.0016 153.41 22.6388 153.193 22.276C153.048 21.9858 152.83 21.7681 152.467 21.623C152.177 21.4779 151.814 21.3327 151.451 21.3327C150.871 21.3327 150.363 21.5504 150 21.9132C149.565 22.2035 149.42 22.784 149.42 23.5821Z" fill="black"/>
<path d="M155.297 26.2676V20.7529H157.546C157.982 20.7529 158.344 20.8255 158.635 20.8981C158.925 20.9706 159.143 21.1883 159.288 21.406C159.433 21.6237 159.578 21.9139 159.578 22.1316C159.578 22.3493 159.505 22.6395 159.36 22.7846C159.215 23.0023 158.997 23.1474 158.707 23.2926C159.07 23.3651 159.36 23.5828 159.505 23.8005C159.723 24.0182 159.796 24.3084 159.796 24.6712C159.796 25.034 159.723 25.3243 159.505 25.542C159.288 25.7596 159.07 25.9773 158.78 26.1224C158.49 26.2676 158.054 26.2676 157.546 26.2676H155.297ZM156.095 23.0749H157.401C157.764 23.0749 157.982 23.0749 158.127 23.0023C158.344 22.9298 158.49 22.8572 158.635 22.7121C158.78 22.567 158.78 22.4218 158.78 22.2042C158.78 21.9865 158.707 21.8413 158.635 21.6962C158.562 21.5511 158.417 21.4785 158.199 21.406C158.054 21.3334 157.764 21.3334 157.256 21.3334H156.022V23.0749H156.095ZM156.095 25.6145H157.619C157.982 25.6145 158.199 25.6145 158.344 25.542C158.562 25.4694 158.707 25.3968 158.852 25.2517C158.997 25.1066 158.997 24.8889 158.997 24.6712C158.997 24.4535 158.925 24.3084 158.852 24.1633C158.707 24.0182 158.562 23.9456 158.417 23.8731C158.199 23.8005 157.909 23.8005 157.546 23.8005H156.168V25.6145H156.095Z" fill="black"/>
<path d="M160.231 26.2676L162.553 20.7529H163.424L165.891 26.2676H164.948L164.222 24.5987H161.683L161.03 26.2676H160.231ZM161.973 24.0182H164.005L163.352 22.4944C163.134 22.059 162.989 21.6237 162.916 21.3334C162.844 21.6962 162.699 22.059 162.553 22.3493L161.973 24.0182Z" fill="black"/>
</svg>
