<svg width="24" height="24" viewBox="0 0 24 24" fill="none" xmlns="http://www.w3.org/2000/svg">
<circle cx="12" cy="12" r="12" fill="white"/>
<path d="M15.502 9.66797C16.4685 9.66797 17.252 8.88447 17.252 7.91797C17.252 6.95147 16.4685 6.16797 15.502 6.16797C14.5355 6.16797 13.752 6.95147 13.752 7.91797C13.752 8.88447 14.5355 9.66797 15.502 9.66797Z" stroke="#15234A" stroke-width="1.5" stroke-linecap="round" stroke-linejoin="round"/>
<path d="M8.5 13.75C9.4665 13.75 10.25 12.9665 10.25 12C10.25 11.0335 9.4665 10.25 8.5 10.25C7.5335 10.25 6.75 11.0335 6.75 12C6.75 12.9665 7.5335 13.75 8.5 13.75Z" stroke="#15234A" stroke-width="1.5" stroke-linecap="round" stroke-linejoin="round"/>
<path d="M15.502 17.8359C16.4685 17.8359 17.252 17.0524 17.252 16.0859C17.252 15.1194 16.4685 14.3359 15.502 14.3359C14.5355 14.3359 13.752 15.1194 13.752 16.0859C13.752 17.0524 14.5355 17.8359 15.502 17.8359Z" stroke="#15234A" stroke-width="1.5" stroke-linecap="round" stroke-linejoin="round"/>
<path d="M10.0117 12.8828L13.9959 15.2045" stroke="#15234A" stroke-width="1.5" stroke-linecap="round" stroke-linejoin="round"/>
<path d="M13.9901 8.79883L10.0117 11.1205" stroke="#15234A" stroke-width="1.5" stroke-linecap="round" stroke-linejoin="round"/>
</svg>
