<svg width="696" height="568" viewBox="0 0 696 568" fill="none" xmlns="http://www.w3.org/2000/svg">
<path d="M189.809 123.233C127 69.1276 27.5986 200.613 0 284.831V561H380.927C444.742 561 611.314 568.908 619 555C797.5 232 618.188 102.5 531.137 85.7096C469.46 73.8129 379.88 152.466 334.5 208C315.706 231 274.372 196.077 189.809 123.233Z" fill="#F2F7FF"/>
<path d="M335 568C492.953 568 621 562.404 621 555.5C621 548.596 492.953 543 335 543C177.047 543 49 548.596 49 555.5C49 562.404 177.047 568 335 568Z" fill="#E2E2E2"/>
<path d="M33.341 539.812C33.341 539.812 38.8885 527.792 32.532 516.004C26.291 504.215 24.4419 501.442 28.4869 499.015C32.532 496.588 34.2656 508.492 34.2656 508.492C34.2656 508.492 37.6172 500.286 34.8434 491.734C32.0697 483.181 30.3361 469.312 34.15 467.81C37.9639 466.307 34.8434 485.146 38.195 491.618C38.195 491.618 40.9688 484.452 41.4311 477.634C41.8934 470.815 41.1999 459.835 44.2048 457.062C47.2097 454.288 49.1744 456.253 46.1695 471.393C43.1646 486.533 43.2802 498.899 43.2802 498.899C43.2802 498.899 49.7523 479.021 54.1441 478.443C58.5359 477.865 58.5359 484.337 54.722 489.884C51.0236 495.432 43.7425 505.487 42.5868 510.572C42.5868 510.572 49.7523 495.663 56.2244 500.17C62.6965 504.793 50.6769 513.808 45.245 517.044C39.9286 520.28 36.1147 540.736 36.1147 540.736L33.341 539.812Z" fill="#407BFF"/>
<path d="M33.341 539.812C33.341 539.812 38.8885 527.792 32.532 516.004C26.291 504.215 24.4419 501.442 28.4869 499.015C32.532 496.588 34.2656 508.492 34.2656 508.492C34.2656 508.492 37.6172 500.286 34.8434 491.734C32.0697 483.181 30.3361 469.312 34.15 467.81C37.9639 466.307 34.8434 485.146 38.195 491.618C38.195 491.618 40.9688 484.452 41.4311 477.634C41.8934 470.815 41.1999 459.835 44.2048 457.062C47.2097 454.288 49.1744 456.253 46.1695 471.393C43.1646 486.533 43.2802 498.899 43.2802 498.899C43.2802 498.899 49.7523 479.021 54.1441 478.443C58.5359 477.865 58.5359 484.337 54.722 489.884C51.0236 495.432 43.7425 505.487 42.5868 510.572C42.5868 510.572 49.7523 495.663 56.2244 500.17C62.6965 504.793 50.6769 513.808 45.245 517.044C39.9286 520.28 36.1147 540.736 36.1147 540.736L33.341 539.812Z" fill="#15234A"/>
<path d="M37.6168 544.781C37.6168 544.781 32.3004 532.761 38.6569 520.973C45.0134 509.3 46.9782 506.526 42.9331 503.984C39.0037 501.557 37.0389 513.345 37.0389 513.345C37.0389 513.345 33.8029 505.14 36.6922 496.587C39.5815 488.035 41.5463 474.166 37.7324 472.664C33.9185 471.161 36.8078 490 33.4562 496.356C33.4562 496.356 30.798 489.19 30.4513 482.256C30.1046 475.437 30.9136 464.458 27.9087 461.569C24.9038 458.679 22.9391 460.644 25.7128 475.784C28.4865 490.924 28.2554 503.29 28.2554 503.29C28.2554 503.29 22.0145 483.296 17.6227 482.718C13.2309 482.025 13.2309 488.497 16.8137 494.16C20.512 499.823 27.562 509.878 28.7177 515.079C28.7177 515.079 21.7833 500.054 15.3113 504.562C8.83918 509.069 20.7432 518.199 26.0595 521.551C31.3759 524.902 34.843 545.359 34.843 545.359L37.6168 544.781Z" fill="#FF8000"/>
<path d="M13 536.229H57.1488L53.566 567.78H16.5828L13 536.229Z" fill="#878FA7"/>
<g filter="url(#filter0_d_2_10253)">
<path d="M502.667 160C502.667 237.872 439.613 301 361.833 301C284.053 301 221 237.872 221 160C221 82.1278 284.053 19 361.833 19C439.613 19 502.667 82.1278 502.667 160Z" fill="white"/>
<path d="M507 293.95L437.125 274.427L462.042 246.227L507 293.95Z" fill="white"/>
</g>
<path d="M272.041 210.861C300.891 260.556 364.503 277.396 414.198 248.609C444.828 230.815 463.002 199.867 465.672 167.076C467.387 146.614 463.066 125.516 452.009 106.452C423.158 56.8206 359.483 39.9168 309.788 68.7041C290.724 79.7614 276.425 96.0297 267.783 114.586C253.929 144.39 254.311 180.294 272.041 210.861Z" fill="#E7EDFF"/>
<path d="M297.397 77.9814C297.778 78.3627 298.668 78.6804 299.24 78.6804C299.621 78.6804 300.002 78.6169 300.384 78.5534C300.828 78.4263 301.909 77.8543 302.226 77.9814C302.544 78.1085 301.909 79.1253 301.464 79.6337C300.701 80.5233 299.557 81.2859 298.795 81.6672C297.27 82.4298 296.38 82.4933 295.427 82.1756C295.109 82.112 293.775 81.6672 293.203 82.112C292.694 82.5569 292.758 82.8746 293.012 83.0653C293.33 83.3195 294.092 83.383 294.474 83.4466C294.728 83.4466 294.918 83.5101 295.109 83.6372C295.617 84.082 294.41 85.4165 294.791 85.9249C294.982 86.2427 295.617 86.1791 296.062 86.1791C296.698 86.1791 297.333 86.3062 298.032 86.1791C298.477 86.1156 298.858 85.9249 299.303 85.7343C300.066 85.4165 301.4 85.1624 302.417 84.9717C303.18 84.7811 303.879 84.3998 303.942 83.3195C304.006 82.5569 303.37 82.5569 302.544 82.7475C301.464 83.0017 300.193 83.4466 299.875 83.5101C299.621 83.5737 299.43 83.5101 299.557 83.3195C299.812 82.9382 301.146 82.6204 301.337 82.4933C301.845 82.3027 302.417 82.112 302.925 81.9214C303.815 81.6037 304.768 81.3495 305.213 81.2224C305.467 81.1588 305.722 81.0317 305.976 80.9046C306.23 80.7775 306.802 80.4598 307.12 80.1421C307.755 79.443 307.31 79.0617 307.882 78.4898C308.391 77.9814 309.026 77.7272 309.534 77.473C310.106 77.1553 310.678 76.9011 311.25 76.5198C312.267 75.7572 312.331 74.804 313.093 73.8508C313.602 73.2789 314.11 72.834 314.618 72.5163C315.444 72.0079 316.588 71.3724 317.224 70.9276C317.605 70.6734 317.986 70.4192 318.368 70.165C318.749 69.9108 319.194 69.5295 319.639 69.0847C319.893 68.8305 320.147 68.4492 320.338 68.195C320.655 67.8773 320.846 67.7502 321.1 67.6231C321.672 67.3053 322.625 66.6699 323.197 65.5895C323.769 64.4457 322.88 64.6999 322.689 64.4457C322.371 64.0008 321.799 64.0644 321.227 64.1279C319.893 64.255 318.177 64.827 316.588 65.2083C314.364 66.2886 312.204 67.4324 310.043 68.7034C308.2 69.7837 306.421 70.9276 304.641 72.0715C304.959 72.3256 305.531 72.4527 305.722 72.5163C306.611 72.834 308.264 71.8808 309.471 71.5631C310.043 71.436 311.759 70.7369 311.822 71.3089C311.949 72.135 309.979 72.9611 309.598 73.0882C309.153 73.2789 308.899 73.406 308.645 73.6602C308.136 74.2321 307.31 74.9947 306.865 74.6769C306.548 74.4227 306.294 74.1685 305.976 74.105C305.658 74.0414 305.467 74.1685 305.277 74.4227C304.895 74.9947 303.752 75.8208 303.625 75.1853C303.561 74.804 303.625 74.2321 303.307 74.0414C303.053 73.9143 302.735 73.9143 302.481 73.7237C302.417 73.6602 302.417 73.6602 302.354 73.5966C300.574 74.804 298.858 76.1385 297.206 77.4095C297.143 77.6637 297.27 77.8543 297.397 77.9814Z" fill="#BBDAE1"/>
<path d="M409.241 86.1163C410.067 85.4172 411.529 84.6547 412.418 84.2734C412.99 84.0192 413.499 83.8285 414.071 83.7014C414.388 83.5744 414.77 83.5108 415.087 83.3837C415.342 83.3202 415.723 83.3837 415.914 83.2566C416.231 83.1295 416.676 82.4305 415.977 81.8586C415.85 81.795 415.786 81.7315 415.659 81.6679C415.342 81.5408 415.087 81.6044 414.833 81.7315C414.198 81.9857 413.435 82.1127 412.609 82.1127C409.495 82.1763 406.953 83.1931 405.746 85.9256C405.301 87.0059 404.729 88.2134 404.666 88.8488C404.602 89.2301 404.538 89.6114 404.157 89.675C403.903 89.675 403.776 89.8021 403.839 90.1198C404.03 91.0095 404.856 91.7085 405.492 92.1533C405.937 92.4711 406.318 92.8524 406.763 93.1066C407.398 93.4243 408.161 93.4879 408.606 93.1701C408.923 92.9159 408.542 92.2169 408.351 91.7085C408.288 91.5179 408.161 91.3272 408.097 91.1366C407.97 90.8188 407.716 89.9292 407.779 89.2937C407.779 88.8488 407.843 88.4676 407.97 88.1498C408.224 87.1966 408.669 86.5611 409.241 86.1163Z" fill="#BBDAE1"/>
<path d="M365.011 71.3088C365.266 71.6266 365.456 72.0078 365.71 72.3256C366.028 72.7069 366.346 73.0246 366.664 73.2788C367.236 73.7236 367.808 74.1685 367.871 74.2956C367.935 74.3591 367.935 74.4227 367.998 74.4862C368.125 74.7404 367.998 74.6769 367.998 74.931C367.935 75.3123 368.189 75.5665 368.507 75.7572C368.761 75.9478 369.079 76.202 369.396 76.3927C369.905 76.7739 370.794 76.9646 370.985 76.4562C371.112 76.1385 371.112 75.7572 371.176 75.3759C371.239 74.7404 371.176 74.1049 371.366 73.5965C371.366 73.533 371.43 73.4694 371.43 73.3423C371.43 73.2153 371.811 73.0246 372.256 73.2788C372.574 73.4694 372.828 73.7236 373.018 73.7872C373.146 73.8507 373.273 73.9143 373.336 73.9778C373.527 74.1049 373.463 74.3591 373.463 74.4862C373.463 74.5498 373.463 74.6133 373.527 74.6769C373.654 74.804 373.718 74.8675 373.845 74.931C374.226 75.1852 374.734 75.3759 375.116 75.503C375.243 75.503 375.433 75.5665 375.624 75.503C375.878 75.4394 376.132 74.931 375.751 74.6133C375.37 74.3591 374.544 74.0414 373.908 73.4694C373.527 73.1517 373.209 72.7069 372.891 72.262C372.383 71.3724 373.018 71.2453 373.527 71.3088C373.972 71.3088 374.353 71.3088 374.734 71.2453C375.37 71.1817 376.132 70.8004 376.323 70.4191C376.514 70.1014 376.387 69.5295 376.323 69.4659L376.259 69.4024C375.751 68.7669 375.116 68.8304 374.671 68.8304C374.035 68.8304 373.336 68.8304 372.637 68.7669C372.319 68.7669 372.065 68.7669 371.748 68.7033C371.493 68.6398 371.303 68.5127 371.048 68.5127C370.604 68.5127 370.222 68.7669 369.905 68.9575C369.523 69.1482 369.079 69.3388 368.57 69.2753C368.316 69.2117 367.808 69.0211 367.808 69.4024C367.744 69.9108 368.316 70.4191 368.443 70.9275C368.507 71.3088 368.062 71.1182 367.808 70.8004C367.553 70.4827 367.553 70.0378 367.363 69.7837C367.109 69.5295 366.918 69.593 366.918 69.7837C366.791 70.0378 366.854 70.4191 366.409 70.1014C366.155 69.9108 366.028 69.6566 365.71 69.5295C365.202 69.3388 363.995 69.6566 364.376 70.6098C364.567 70.9275 364.821 71.0546 365.011 71.3088Z" fill="#BBDAE1"/>
<path d="M362.533 118.716C362.089 117.89 360.881 117.382 361.135 116.111C361.199 115.73 361.771 115.348 361.644 114.904C361.58 114.649 361.326 114.586 361.135 114.459C360.945 114.268 360.182 113.569 360.309 113.188C360.373 112.934 358.339 112.616 358.53 113.378C358.784 114.459 357.068 114.649 357.767 115.412L357.831 115.476C357.894 115.539 357.64 116.111 357.704 116.81C357.704 117.573 358.721 117.89 358.784 118.526C358.848 119.161 359.864 118.716 360.119 119.288C360.436 119.86 360.309 121.068 359.737 121.258C359.165 121.449 359.356 122.656 358.911 122.974C358.657 123.165 358.403 123.292 358.593 123.737C358.721 123.991 359.42 123.546 359.42 124.182C359.42 124.69 358.657 124.754 358.848 125.325C358.975 125.77 359.61 125.643 359.928 125.643C361.262 125.58 363.105 125.325 364.059 124.118C364.44 123.673 365.202 122.529 364.567 122.085C364.313 121.894 364.059 121.894 363.804 121.64C363.55 121.386 363.36 120.877 363.232 120.559C363.042 119.924 362.851 119.288 362.533 118.716Z" fill="#BBDAE1"/>
<path d="M259.459 155.065C259.84 155.51 260.539 157.099 261.111 157.099C262.128 157.099 261.047 155.065 260.857 154.748C260.602 154.43 259.014 151.253 259.077 151.253C259.268 151.125 259.268 150.998 259.268 150.871C259.268 150.744 258.76 150.299 258.378 149.854C258.251 151.125 258.188 152.396 258.124 153.667C258.505 154.176 259.141 154.684 259.459 155.065Z" fill="#F5F5F5"/>
<path d="M403.141 214.356C404.031 212.131 404.857 209.653 405.238 207.111C405.302 206.603 405.365 206.094 405.429 205.65C405.492 204.823 405.365 203.934 405.175 203.68C405.111 203.552 404.984 203.425 404.857 203.235C404.793 203.108 404.73 202.98 404.73 202.79C404.666 202.599 404.603 202.472 404.539 202.345C404.412 202.154 403.649 202.345 403.459 203.044C403.332 203.489 403.268 203.997 403.205 204.315C402.887 206.158 401.298 206.92 400.345 208.191C399.01 209.971 399.265 211.941 399.074 213.911C398.947 215.182 398.248 216.898 398.629 218.041C399.837 221.918 402.442 216.198 403.141 214.356Z" fill="#BBDAE1"/>
<path d="M458.237 195.355C458.046 194.911 457.728 194.72 457.347 194.593C456.712 194.402 455.504 194.466 454.742 194.466C454.233 194.466 453.788 194.339 453.343 194.148C453.153 194.021 452.899 193.83 452.772 193.576C452.454 193.004 452.644 192.305 452.772 191.543C452.962 190.589 452.708 190.017 452.327 189.382C452.136 189.128 452.009 188.81 451.818 188.556C451.564 188.111 451.119 187.92 450.865 187.475C450.611 187.094 450.357 186.522 450.42 185.95C450.484 185.569 450.674 185.315 450.865 185.124C451.183 184.743 451.437 183.79 451.31 183.154C451.246 182.773 451.056 182.392 450.992 182.074C450.865 181.565 450.611 181.057 450.42 180.549C450.293 180.295 450.166 180.167 450.039 179.913C449.403 178.452 448.895 176.037 449.213 174.194C449.34 173.622 449.531 173.05 450.039 173.114C450.166 173.114 450.293 173.177 450.42 173.304C450.611 173.495 450.992 173.94 451.246 174.385C451.437 174.702 451.628 175.084 451.755 175.084C452.772 175.084 452.581 178.706 453.979 177.308C454.424 176.863 454.996 176.672 455.441 176.227C455.631 176.037 455.822 175.846 455.949 175.655C456.203 175.338 456.775 174.512 456.902 173.749C457.029 173.304 457.029 172.859 457.029 172.415C456.966 171.398 456.584 170.508 456.203 169.682C455.949 169.237 455.695 168.729 455.441 168.347C455.123 167.966 454.869 167.776 454.932 167.14C454.996 165.806 456.203 164.344 457.347 164.789C458.11 165.107 458.745 165.107 459.508 164.535C460.334 163.899 460.969 163.137 461.922 162.755C463.13 162.31 464.719 161.866 465.735 160.912C465.799 160.849 465.926 160.722 465.99 160.658C466.053 156.337 465.926 152.016 465.481 147.694C465.418 147.25 465.354 146.487 465.29 145.851C463.638 132.316 459.253 118.907 452.009 106.388C448.196 99.8426 443.811 93.8691 438.918 88.4675C438.727 88.4675 438.473 88.4675 438.283 88.4675C437.266 88.4675 436.249 88.2769 435.296 88.4675C434.533 88.5946 433.961 89.1666 433.516 89.9291C433.262 90.374 433.008 90.7553 432.563 91.0095C432.055 91.2637 431.61 91.2637 430.975 91.2001C430.53 91.1366 429.767 91.073 429.831 91.772C429.958 92.4075 430.911 93.4243 431.292 94.0598C432.055 95.5214 430.212 94.2504 429.704 93.9327C429.132 93.5514 428.56 93.1701 428.051 93.043C427.734 92.9795 426.971 92.6617 426.907 93.1066C426.844 93.4243 427.225 94.0598 427.416 94.4411C427.67 94.9494 427.734 95.1401 427.289 95.2672C426.907 95.3307 426.463 95.3943 426.018 95.4578C425.446 95.5849 424.62 95.6485 423.984 95.3943C423.095 95.0765 422.523 94.0598 422.141 93.1066C421.887 92.5346 421.824 92.2169 421.379 91.772C420.997 91.4543 420.553 91.2001 420.171 91.1366C419.282 91.0095 419.091 91.8356 419.218 92.7253C419.345 93.6149 418.519 93.8056 418.71 94.6317C418.9 95.4578 419.599 96.2204 420.171 96.8559C420.68 97.4278 421.506 98.1904 421.252 98.7623C420.87 99.5885 419.727 98.8894 418.9 98.2539C417.82 97.4914 416.74 96.8559 415.659 96.0298C414.706 95.3307 413.626 94.9494 412.673 94.7588C412.101 94.6953 411.783 94.9494 412.355 95.6485C412.609 95.9662 413.626 96.6652 413.499 97.1736C413.372 97.7456 412.101 97.4914 411.719 97.4914C410.576 97.5549 409.495 97.6185 408.288 97.3643C407.398 97.1736 406.509 96.7288 405.682 96.8559C405.365 96.9194 404.92 96.983 404.539 97.1736C403.967 97.4278 403.585 98.1268 403.458 98.3175C403.395 98.4446 403.331 98.5081 403.14 98.5717C403.013 98.6352 402.823 98.6352 402.696 98.6988C402.441 98.6988 401.552 98.2539 401.552 97.4914C401.552 96.983 401.615 96.411 401.17 96.0933C400.726 95.7756 399.772 95.6485 399.391 95.8391C399.201 95.9662 399.073 96.0933 399.01 96.3475C398.946 96.7288 399.073 97.8727 398.946 98.6352C398.883 99.0801 398.692 99.5249 398.374 99.7156C398.12 99.9062 397.739 99.9697 397.421 100.097C396.976 100.287 396.722 100.605 396.468 101.114C396.023 101.94 395.642 102.702 394.689 102.829C393.799 102.957 393.163 102.575 392.337 101.558C391.829 100.923 391.13 100.097 390.685 99.3978C389.986 98.1904 391.575 98.8894 392.02 99.0165C392.655 99.2072 393.291 99.2072 393.99 99.3343C394.561 99.4614 395.07 99.5249 395.578 99.4614C396.023 99.4614 396.786 99.3978 396.722 98.6988C396.659 97.1101 393.735 95.2672 392.846 94.6953C392.464 94.4411 392.02 94.1233 391.575 93.8691C390.876 93.4243 389.732 92.7888 388.969 92.344C388.461 92.0898 387.952 91.8356 387.571 91.772C386.809 91.7085 386.237 92.6617 385.474 91.1366C385.029 90.2469 384.775 89.9291 383.949 89.675C382.487 89.2301 380.835 89.2937 379.691 89.675C379.31 89.8021 378.992 89.9927 378.611 90.2469C378.103 90.6282 377.467 91.4543 377.086 91.6449C376.832 91.772 376.577 91.772 376.26 91.772C374.48 91.5179 373.781 93.043 373.527 95.2036C373.464 95.7756 373.464 96.411 373.336 96.983C373.273 97.3007 373.146 97.6185 373.019 97.8727C372.765 98.3175 372.193 99.3343 371.748 100.224C371.494 100.732 371.176 101.241 370.922 101.813C370.159 103.338 369.206 104.863 368.316 106.515C367.681 107.659 367.109 108.994 367.236 110.392C367.363 111.472 368.062 112.298 368.825 112.934C369.778 113.696 370.731 113.505 371.621 113.251C372.955 112.806 373.527 113.505 374.099 115.158C374.353 115.857 374.544 116.746 375.116 117.191C375.688 117.636 376.514 117.763 377.086 117.636C377.785 117.382 378.103 116.619 378.039 115.73C377.975 114.776 378.103 114.205 378.611 113.569C379.119 112.997 379.056 112.235 378.865 111.472C378.484 110.201 377.658 108.612 377.531 107.786C377.467 107.341 377.404 106.833 377.531 106.388C377.658 106.007 377.785 105.626 377.912 105.244C378.166 104.672 379.056 103.719 379.691 102.766C380.073 102.194 380.39 101.622 380.644 100.796C380.772 100.415 380.835 100.097 381.026 99.8426C381.28 99.3978 382.106 99.3343 382.551 99.5249C382.869 99.652 383.123 99.8426 383.313 100.287C383.631 101.05 383.25 102.067 382.996 102.575C382.614 103.274 381.979 103.465 381.534 104.1C381.153 104.736 381.153 105.943 381.153 106.896C381.153 107.786 381.089 109.057 381.598 109.82C382.233 110.836 383.441 110.582 384.267 110.582C384.648 110.582 385.029 110.519 385.474 110.582C386.173 110.582 386.936 110.836 387.253 111.027C387.508 111.218 387.762 112.044 387.508 112.171C387.317 112.235 387.126 112.235 386.936 112.298C386.11 112.362 385.283 112.235 384.457 112.298C383.949 112.298 383.123 112.235 382.996 113.061C382.932 113.696 383.504 114.205 383.822 114.586C384.14 114.967 384.521 115.412 384.394 115.984C384.33 116.302 384.076 116.429 383.822 116.365C383.441 116.302 382.996 115.92 382.742 115.539C382.551 115.285 382.297 114.84 381.979 114.967C381.534 115.158 381.725 116.746 381.725 117.255C381.725 118.081 381.725 119.034 381.28 119.67C380.327 121.004 378.547 120.941 377.213 120.814C376.387 120.75 375.497 120.432 374.671 120.242C374.163 120.114 373.527 119.987 373.082 119.67C372.002 118.78 372.637 116.683 372.447 115.412C372.193 113.95 370.922 114.904 370.667 115.793C370.286 117.191 371.303 118.844 370.858 120.114C370.54 121.004 369.396 121.004 368.697 121.258C367.744 121.64 367.172 122.656 366.982 123.8C366.855 124.436 366.41 124.753 366.028 125.198C365.52 125.77 364.948 126.215 364.44 126.723C364.058 127.105 363.614 127.359 363.042 127.359C362.724 127.359 362.216 127.105 361.961 127.295C361.644 127.613 361.834 128.058 361.326 128.249C360.754 128.439 360.055 128.185 359.483 128.249C359.102 128.312 358.53 128.566 358.911 129.075C359.229 129.52 359.991 129.774 360.436 130.092C361.326 130.663 361.58 131.744 361.707 132.888C361.834 134.476 361.389 135.684 359.928 135.747C358.466 135.874 357.132 135.493 355.67 136.129C354.399 136.637 354.399 139.115 354.336 140.45C354.336 141.149 354.399 141.467 354.717 142.039C354.907 142.42 355.035 142.992 355.352 143.31C355.734 143.691 356.369 143.818 356.877 143.818C357.513 143.818 357.894 143.945 358.403 144.39C358.53 144.517 358.593 144.58 358.72 144.644C358.911 144.771 359.229 144.199 359.61 144.136C359.864 144.072 360.118 144.136 360.373 144.199C360.627 144.199 360.881 144.326 361.135 144.263C361.389 144.199 361.517 143.945 361.644 143.881C362.343 143.627 362.66 142.928 362.915 142.166C363.042 141.784 363.105 141.403 363.232 141.085C363.423 140.641 363.677 140.323 363.868 139.941C363.995 139.624 364.058 139.306 364.249 139.052C364.63 138.543 365.075 138.607 365.584 138.48C366.219 138.289 366.537 137.844 366.727 137.082C366.855 136.51 366.855 135.874 367.363 135.684C367.808 135.493 368.316 135.874 368.761 135.874C369.524 135.938 370.159 135.366 370.858 135.048C372.193 134.349 373.209 134.794 373.972 136.192C374.29 136.828 374.671 137.463 375.116 138.035C375.497 138.48 375.942 138.671 376.26 139.115C376.704 139.624 377.276 140.069 377.658 140.577C378.166 141.149 378.039 142.166 377.848 142.865C377.785 143.182 377.531 143.627 377.721 143.881C377.975 144.199 378.23 143.881 378.42 143.691C378.992 143.119 378.929 142.356 378.929 141.467C378.929 141.085 378.865 140.577 379.246 140.513C379.374 140.45 379.564 140.577 379.691 140.641C379.945 140.704 379.945 139.878 379.374 139.433C378.992 139.179 378.611 138.925 378.357 138.925C378.103 138.925 377.404 137.908 377.213 137.654C376.704 137.082 376.133 136.446 375.688 135.811C375.37 135.366 374.925 134.667 374.989 134.032C374.989 133.078 375.942 133.142 376.45 133.587C376.832 133.968 376.895 134.476 377.149 134.985C377.658 136.065 378.802 136.319 379.564 136.891C380.136 137.272 380.136 137.844 380.327 138.543C380.517 139.115 380.835 139.56 380.899 140.132C380.962 140.577 380.962 140.577 381.153 140.895C381.407 141.212 381.661 141.403 381.915 141.657C382.17 141.848 382.487 142.039 382.678 142.356C382.869 142.674 382.805 142.61 382.742 142.992C382.614 143.691 382.551 144.39 383.186 144.771C383.885 145.216 384.013 143.881 384.267 143.373C384.457 142.992 384.648 142.738 384.457 142.229C384.33 141.848 383.949 141.594 383.822 141.212C383.441 140.259 384.33 140.386 384.712 140.132C385.22 139.751 385.855 139.115 386.554 139.687C386.936 140.005 386.872 140.323 386.809 140.768C386.745 141.34 386.999 141.721 387.126 142.293C387.253 142.801 387.19 143.373 387.444 143.818C388.08 144.898 389.287 145.597 390.304 145.597C390.749 145.597 391.193 145.28 391.638 145.407C391.829 145.47 391.956 145.661 392.147 145.724C392.464 145.851 392.846 145.851 393.163 145.851C393.608 145.851 394.053 145.724 394.561 145.724C395.324 145.724 395.515 145.979 395.324 146.805C395.006 148.139 394.689 149.347 394.498 150.745C394.434 151.253 394.561 152.524 394.244 152.842C393.862 153.287 393.163 152.46 392.782 152.27C391.765 151.698 390.494 151.571 389.351 151.634C388.715 151.634 388.143 151.698 387.508 151.634C387.063 151.571 386.237 151.571 385.792 151.253C384.902 150.554 382.742 148.457 381.725 149.982C381.089 150.999 381.343 152.842 379.818 152.524C379.056 152.333 378.484 151.825 377.848 151.444C376.895 150.872 375.815 150.427 374.798 150.109C374.099 149.855 373.336 149.537 372.828 148.838C372.129 147.885 373.336 147.631 373.464 146.741C373.591 145.979 373.336 144.962 372.765 144.517C372.256 144.136 371.494 144.136 370.922 144.136C370.604 144.136 370.286 144.072 369.968 144.009C369.587 144.009 369.269 144.199 368.888 144.263C368.125 144.453 367.299 144.453 366.537 144.453C366.092 144.453 365.711 144.453 365.329 144.453C365.075 144.453 364.44 144.39 364.249 144.517C363.232 145.407 361.898 146.36 360.5 146.233C359.61 146.169 358.847 145.851 357.958 146.169C357.068 146.487 356.306 147.122 355.607 147.758C355.035 148.266 354.463 148.838 353.891 149.41C353.255 150.109 353.255 150.999 353.255 151.952C353.255 152.651 353.065 152.969 352.747 153.541C352.175 154.367 351.539 154.939 350.713 155.384C349.824 155.828 348.934 156.337 348.362 157.29C347.854 158.18 347.409 159.006 347.091 159.959C346.519 161.802 346.329 164.09 347.218 165.933C347.472 166.441 346.773 167.966 346.646 168.475C346.392 169.428 346.392 170.445 346.71 171.398C346.964 172.097 347.282 172.605 347.79 173.114C348.68 174.067 349.252 175.401 350.014 176.545C350.777 177.625 351.539 178.706 352.493 179.595C353.7 180.803 355.162 181.565 356.623 181.756C357.386 181.82 358.148 181.82 358.847 181.502C359.229 181.311 359.61 181.248 360.055 181.248C360.69 181.184 361.834 181.057 362.533 180.676C362.915 180.485 363.359 180.231 363.741 179.977C364.567 179.468 365.393 179.278 366.346 179.659C366.727 179.85 367.045 180.104 367.363 180.358C367.871 180.803 368.697 181.565 369.269 181.883C369.587 182.01 369.968 182.137 370.35 182.201C370.985 182.264 371.621 182.582 372.065 183.027C373.336 184.298 372.574 186.014 371.811 187.475C371.112 188.81 371.621 190.272 372.193 191.415C372.447 191.987 372.701 192.496 372.955 193.068C373.273 193.576 373.654 194.148 373.781 194.847C373.908 195.482 374.035 196.054 374.163 196.626C374.353 197.643 374.353 199.295 374.226 200.312C374.163 200.884 374.035 201.52 373.908 202.091C373.845 202.409 373.781 202.663 373.718 202.981C373.591 203.49 373.4 204.189 373.209 204.57C373.082 204.76 373.019 205.015 372.892 205.269C372.701 205.841 372.637 206.476 372.574 207.048C372.447 208.065 372.256 209.844 372.129 210.861C372.065 211.497 372.065 212.132 372.129 212.704C372.447 215.437 373.273 217.915 374.035 220.457C374.417 221.664 374.671 222.872 375.052 224.079C375.243 224.651 375.37 225.35 375.561 225.922C375.815 226.621 375.751 227.193 375.878 227.956C376.069 229.354 376.514 230.18 377.594 230.561C378.484 230.879 379.501 230.561 380.39 230.307C382.297 229.735 384.14 228.655 385.728 226.939C386.682 225.858 387.317 224.651 388.016 223.253C388.334 222.617 388.588 222.046 388.779 221.347C388.969 220.648 389.033 219.885 389.287 219.186C389.605 218.106 389.922 216.962 390.304 215.881C390.939 214.229 391.193 212.831 392.464 211.56C393.036 210.988 393.608 210.543 394.244 210.035C395.197 209.209 397.04 207.938 397.103 206.222C397.612 198.088 395.451 191.733 402.95 186.014C404.983 183.917 407.589 180.422 408.415 177.117C408.796 175.528 407.779 174.512 406.763 174.893C406.127 175.147 405.555 175.338 404.92 175.465C404.348 175.592 403.776 175.655 403.204 175.783C402.632 175.91 402.124 175.592 401.552 175.338C400.98 175.084 400.726 174.766 400.535 174.13C400.344 173.495 400.471 172.923 400.281 172.287C400.154 171.652 399.709 171.334 399.328 170.953C398.501 170.063 397.802 169.046 397.231 167.839C396.659 166.632 396.595 165.361 396.404 164.026C396.277 163.073 395.896 162.437 395.451 161.675C395.006 160.912 394.689 160.15 394.307 159.26C393.99 158.434 392.846 155.574 393.926 155.066C394.816 154.621 395.388 157.227 395.705 157.862C396.277 159.197 396.913 160.467 397.548 161.675C397.866 162.31 398.184 162.946 398.565 163.581C399.137 164.598 399.772 165.869 400.027 166.441C400.154 166.759 400.344 167.076 400.471 167.394C400.726 167.903 401.234 168.665 401.298 169.301C401.615 171.843 402.314 173.304 403.776 173.241C405.047 173.177 407.017 171.906 408.224 171.271C410.449 170.127 412.609 168.792 414.325 167.394C414.77 167.013 415.215 166.187 415.596 165.678C416.041 165.043 416.549 164.344 416.74 163.581C416.93 162.882 416.74 162.31 416.231 161.929C415.85 161.675 415.469 161.802 415.151 161.548C414.77 161.23 414.77 160.531 414.452 160.086C413.944 159.26 413.308 159.832 412.673 160.15C412.101 160.467 410.766 161.23 410.131 160.722C409.686 160.34 409.94 159.959 409.749 159.514C409.559 159.133 409.305 159.26 408.987 159.133C408.224 158.879 407.907 157.671 407.525 156.909C407.271 156.337 406.636 155.002 406.89 154.303C407.271 153.096 408.479 154.748 408.796 155.193C409.241 155.701 409.749 156.083 410.131 156.655C410.449 157.163 410.893 157.417 411.338 157.608C411.783 157.798 412.355 158.18 412.8 158.307C413.181 158.434 413.562 158.243 414.007 158.434C414.261 158.498 414.452 158.688 414.579 158.879C414.833 159.197 415.914 160.213 417.185 160.213C418.265 160.277 419.472 160.023 420.489 159.959C421.252 159.896 422.268 159.896 422.967 160.277C423.794 160.722 424.683 161.548 425.065 162.565C425.382 163.391 425.636 164.471 426.399 164.916C427.225 165.361 427.734 163.518 428.178 163.963C428.433 164.217 428.369 164.979 428.369 165.297C428.369 165.742 428.433 166.123 428.496 166.568C428.623 167.521 428.814 168.538 428.941 169.491C429.259 171.525 429.576 173.558 430.212 175.528C430.466 176.482 430.911 177.88 431.737 178.197C432.118 178.325 432.69 177.88 432.945 177.498C433.199 177.117 433.326 176.672 433.516 176.227C433.707 175.655 433.834 175.084 433.961 174.512C434.152 173.558 434.533 172.16 434.915 171.398C435.105 170.953 435.359 170.508 435.614 170.127C436.058 169.364 436.63 168.602 437.266 168.03C437.774 167.585 438.283 167.267 438.664 166.695C438.854 166.441 438.982 166.25 439.172 165.996C439.426 165.615 439.871 165.043 440.189 164.662C440.38 164.471 440.57 164.28 440.824 164.217C441.079 164.09 441.396 164.153 441.651 164.153C442.223 164.09 442.413 163.645 442.858 163.391C443.303 163.2 443.811 163.581 444.065 163.899C444.892 164.916 444.828 166.441 444.892 167.712C444.955 168.347 444.955 169.174 445.591 169.301C446.163 169.364 446.607 169.046 447.052 169.555C447.561 170.127 447.561 171.144 447.815 171.906C448.069 172.605 448.641 172.923 448.704 173.749C448.768 174.257 448.514 174.321 448.323 174.702C448.069 175.147 448.196 175.401 448.323 175.783C448.45 176.291 448.45 176.672 448.323 177.181C448.196 177.625 447.942 178.007 447.942 178.452C447.942 178.833 448.133 178.96 448.323 179.024C448.641 179.151 449.022 179.723 449.086 180.231C449.149 180.549 449.149 180.866 449.213 181.121C449.276 181.502 449.276 181.883 449.403 182.201C449.467 182.328 449.531 182.392 449.531 182.519C449.594 182.709 449.721 183.218 449.658 183.663C449.594 183.98 449.531 184.234 449.276 184.298C449.086 184.362 448.832 184.234 448.641 184.044C448.323 183.79 447.815 183.408 447.561 183.218C447.37 183.091 447.179 182.964 446.989 182.964C445.908 182.836 446.989 185.442 447.243 185.887C447.433 186.204 447.688 186.522 447.878 186.84C448.132 187.221 448.132 187.539 448.196 188.047C448.323 188.937 448.768 189.827 449.086 190.589C449.403 191.415 449.785 192.178 450.23 192.75C450.484 193.068 450.738 193.322 450.992 193.576C451.056 193.64 451.882 194.084 451.882 194.148C451.564 197.198 454.233 195.419 455.313 196.436C456.14 197.325 457.156 197.071 458.237 197.008C458.554 197.008 458.809 196.944 459.063 196.881C459.19 196.626 459.253 196.372 459.381 196.118C458.745 195.864 458.364 195.737 458.237 195.355ZM398.311 139.878C397.421 139.814 396.531 139.37 395.578 139.052C394.307 138.543 392.274 138.988 391.003 139.179C390.304 139.306 389.668 139.306 389.096 139.115C387.825 138.671 388.715 135.811 389.287 134.476C389.605 133.65 389.986 132.888 390.494 132.506C391.511 131.617 393.418 132.951 393.1 133.269C392.782 133.587 393.227 133.968 393.291 134.349C393.354 134.731 393.735 135.112 394.053 134.794C394.434 134.476 394.053 132.824 395.261 132.252C395.388 132.189 395.578 132.125 395.705 132.062C396.913 131.617 397.485 132.316 397.231 133.841C397.167 134.222 397.167 134.603 397.231 134.921C397.548 136.51 399.073 136.764 399.073 136.891C399.073 137.082 399.645 137.272 400.09 137.908C400.599 138.48 399.582 140.005 398.311 139.878ZM411.847 145.152C411.529 146.296 410.194 146.487 408.923 145.788C407.716 145.152 407.652 142.928 407.716 141.594C407.779 140.196 405.682 138.798 405.492 137.272C405.174 134.476 407.589 132.443 409.305 132.697C410.639 132.888 409.622 134.731 408.987 136.001C408.733 136.446 408.923 136.828 409.368 137.463C410.258 138.734 411.338 139.306 411.91 139.878C412.418 140.45 411.719 141.149 411.02 141.34C410.258 141.467 412.228 143.691 411.847 145.152Z" fill="#BBDAE1"/>
<path d="M321.608 216.517C322.116 215.627 323.578 214.801 324.595 214.419C325.421 214.102 325.993 214.102 326.565 213.149C327.264 212.068 327.455 210.162 327.327 209.272C327.2 208.382 327.582 207.556 327.518 206.921C327.455 206.285 326.883 204.442 327.137 202.79C327.455 200.248 329.806 198.787 330.187 196.118C330.441 194.465 328.789 192.813 327.645 192.178C326.501 191.542 325.23 189.382 323.832 189.318C323.705 189.318 323.515 189.318 323.387 189.318C322.053 189.254 320.083 187.412 318.748 186.84C318.431 186.713 318.113 186.585 317.795 186.522C316.461 186.141 314.936 184.425 314.3 182.836C313.728 181.374 312.966 179.976 311.885 179.277C310.424 178.388 308.39 179.532 307.183 177.816C306.611 176.99 306.166 176.481 305.34 175.973C304.641 175.465 303.878 175.02 303.37 174.257C302.607 173.177 301.845 173.939 300.955 173.431C300.447 173.177 300.256 172.859 299.62 172.796C298.794 172.732 297.968 172.796 297.142 172.668C296.507 172.541 296.252 172.224 295.744 171.779C294.537 170.762 292.567 171.397 291.741 172.414C291.359 172.923 291.169 173.749 290.724 174.194C289.898 175.083 288.245 174.257 287.229 173.622C286.53 173.177 285.767 172.541 285.259 171.779C284.687 170.826 284.178 170.571 284.242 169.427C284.305 168.601 284.496 167.521 283.988 166.758C283.543 166.123 282.653 165.996 282.081 165.932C281.573 165.869 280.81 166.059 280.365 165.742C279.857 165.424 279.412 164.471 279.603 163.899C279.73 163.454 280.238 163.2 280.493 162.882C280.62 162.691 280.747 162.501 280.81 162.247C280.81 162.119 280.747 161.611 280.747 161.547C281.255 160.658 281.064 160.086 280.62 159.895C279.73 159.45 278.141 160.213 277.887 161.42C277.633 162.564 275.726 163.263 274.519 162.691C272.231 161.548 271.278 157.036 272.168 154.112C272.549 152.778 274.138 150.935 275.345 150.871C276.362 150.808 277.379 151.253 278.523 151.38C278.967 151.507 278.967 151.126 278.967 150.808C278.967 150.299 280.048 150.363 280.81 150.363C281.573 150.363 283.289 150.744 284.051 152.015C284.369 152.524 284.56 153.223 284.814 153.922C285.259 155.32 287.038 156.209 286.784 154.684C286.593 153.731 286.212 152.587 285.958 151.507C285.64 150.045 286.847 148.139 287.864 147.44C288.436 146.995 289.072 146.614 289.643 146.105C290.025 145.724 290.66 145.089 290.724 144.453C290.851 143.69 290.342 142.928 290.406 142.038C290.47 141.403 290.597 140.894 290.914 140.322C291.423 139.433 292.185 138.67 292.948 138.289C293.711 137.908 295.045 138.098 295.49 137.081C295.998 136.065 295.998 135.429 296.888 134.603C297.396 134.158 298.095 133.777 298.731 133.459C299.811 132.951 299.112 134.794 300.383 134.667C301.209 134.603 302.734 133.904 304.005 133.078C305.213 132.315 305.785 130.981 305.467 130.536C305.149 130.091 303.942 132.379 302.734 132.061C302.607 131.998 302.48 131.998 302.353 131.934C301.273 131.362 301.59 129.456 301.336 129.456C301.146 129.456 301.146 129.138 301.463 129.074C301.781 128.947 302.289 126.914 301.019 127.359C300.828 127.422 300.574 127.549 300.32 127.613C299.112 128.185 298.985 127.168 300.256 126.66C302.226 125.77 304.45 125.706 306.611 125.262C307.882 125.007 308.327 125.706 307.5 127.041C306.674 128.375 306.229 129.329 307.119 129.519C308.327 129.837 309.852 129.329 309.852 129.837C309.852 130.155 309.852 130.472 310.297 130.155C310.932 129.71 311.568 130.854 312.139 130.028C312.457 129.583 312.33 129.074 312.139 128.63C311.822 127.931 311.504 126.723 310.741 126.66C309.979 126.596 309.979 124.69 310.487 123.164C310.551 122.974 310.614 122.847 310.614 122.72C311.059 121.194 309.28 119.796 308.39 118.97C305.785 116.365 306.865 116.301 305.785 112.806C305.403 111.535 304.259 111.662 303.179 112.679C302.607 113.251 302.035 113.632 301.59 113.505C300.51 113.315 301.463 110.074 300.764 109.692C300.383 109.502 299.875 109.375 299.684 108.739C299.43 107.532 298.35 107.087 297.206 107.214C296.125 107.341 294.791 109.247 294.791 110.391C294.727 111.535 293.52 113.251 293.838 114.141C294.155 114.967 294.473 117.127 293.52 118.271C292.948 118.97 292.122 119.479 291.613 120.241C290.724 121.512 291.486 123.609 290.914 124.372C290.597 124.753 290.152 124.944 289.707 124.69C289.199 124.308 288.5 123.355 288.436 122.529C288.372 120.686 289.199 119.606 287.673 119.097C285.703 118.462 283.67 117.382 282.145 116.047C281.382 115.412 281.573 114.585 281.509 113.505C281.382 112.488 280.556 112.107 281.891 110.709C282.717 109.883 283.924 109.247 284.56 107.976C285.132 106.769 283.988 106.515 284.877 105.498C285.767 104.481 287.546 105.053 288.436 104.736C288.817 104.608 289.326 104.418 289.58 103.846C290.088 102.956 289.326 102.829 289.199 102.384C289.135 102.257 289.453 102.13 289.771 102.13C290.088 102.067 290.597 102.067 290.914 101.876C291.105 101.749 291.296 101.558 291.486 101.367C291.677 101.113 291.677 100.923 291.868 100.668C292.058 100.478 292.376 100.351 292.567 100.351C293.139 100.224 293.393 100.287 294.092 99.9059C294.791 99.461 295.553 99.0798 296.125 98.1265C296.38 97.6817 296.761 96.7285 296.761 96.4107C296.697 96.093 296.316 96.093 296.38 95.5846C296.697 93.9324 298.477 93.9959 299.112 93.9324C300.002 93.8053 301.146 93.6146 300.637 95.2669C300.447 95.9659 300.065 97.7452 301.082 96.8556C301.718 96.3472 301.908 96.093 302.226 96.6014C302.417 96.9827 302.734 97.364 302.48 98.1265C302.226 98.8891 301.781 99.1433 301.4 99.334C300.701 99.7152 299.748 102.067 298.667 102.194C298.477 102.194 298.35 102.257 298.159 102.257C297.079 102.384 296.824 104.863 297.905 104.418C298.985 104.037 300.129 104.799 300.701 105.689C301.59 106.96 302.925 108.358 303.624 108.421C304.704 108.485 304.323 106.07 304.831 105.879C305.149 105.752 305.53 105.689 305.848 105.689C306.039 105.689 306.293 104.291 306.293 104.164C306.293 103.719 306.166 103.274 305.975 103.02C305.594 102.384 304.895 102.321 304.768 101.304C304.641 100.224 305.785 99.3975 306.293 99.7788C306.547 99.9694 306.674 100.414 306.738 100.859C306.929 101.558 307.437 101.939 307.691 101.876C307.882 101.812 308.072 101.685 308.199 101.558C308.581 101.177 308.644 100.668 308.962 100.224C309.47 99.5246 310.106 99.7788 310.614 99.1433C311.186 98.4443 310.805 97.9994 310.487 97.7453C309.725 97.0462 308.835 96.6014 308.072 95.9659C307.945 95.8388 307.755 95.7753 307.628 95.5846C307.437 95.3304 307.437 94.5043 307.628 93.9324C307.755 93.5511 307.818 93.1698 307.882 92.852C307.945 92.2801 307.628 91.9624 307.373 91.7082C307.119 91.3269 306.801 91.0092 306.484 90.755C305.912 90.3101 304.577 90.1195 304.196 89.2934C303.815 88.4672 303.624 87.3869 302.861 87.3869C302.798 87.3869 302.48 87.6411 302.353 87.6411C302.162 87.7047 301.972 87.7047 301.845 87.6411C301.527 87.514 301.4 87.2598 301.146 87.0692C300.701 86.7514 300.065 86.6243 299.176 87.0692C298.858 87.2598 298.54 87.3869 298.286 87.4505C297.778 87.6411 297.142 87.5776 296.697 87.6411C296.252 87.7047 295.109 88.3401 294.346 88.9121C293.838 89.2934 293.393 89.7382 293.011 90.183C292.44 90.9456 291.931 92.2801 292.503 92.4708C293.075 92.6614 294.028 92.4708 294.664 92.5343C295.236 92.6614 296.697 92.6614 295.998 94.0595C295.426 95.0762 294.282 94.6949 294.028 95.9659C293.965 96.4107 294.028 96.7285 293.711 97.2369C293.456 97.6182 292.948 98.063 292.694 98.3172C292.376 98.5714 291.995 98.8891 291.677 99.0162C291.232 99.2704 290.66 99.0798 290.787 98.4443C290.914 97.9359 291.423 97.6182 291.613 97.1098C291.804 96.6014 291.55 96.4743 291.296 96.2836C291.169 96.2201 291.041 96.1565 290.851 96.093C290.597 96.0294 290.279 95.7117 290.152 95.4575C290.088 95.2669 290.025 95.0762 289.961 94.8856C289.898 94.5043 289.707 94.1866 289.643 93.8053C289.516 93.1698 290.025 92.0259 290.406 91.7082C290.597 91.5175 290.851 91.3904 291.105 91.1998C291.55 90.8185 292.122 90.183 292.567 89.6746C293.52 88.4672 293.838 87.2598 292.884 87.2598C291.868 87.2598 290.342 88.213 289.516 89.7382C289.072 90.5643 288.817 91.454 288.118 92.2801C287.864 92.9791 287.102 93.424 286.593 94.1866C286.021 94.8856 286.021 95.5211 285.64 96.2836C285.259 96.9827 285.132 96.792 284.687 97.0462C283.67 97.5546 283.606 99.2069 282.59 99.8423C282.272 100.033 281.827 100.097 281.573 100.097C280.937 100.16 280.365 100.16 279.921 99.9694C279.793 99.9059 279.539 99.8423 279.73 99.5246C279.984 99.0162 280.429 98.9527 280.747 98.762C281.7 98.1901 282.717 96.6014 282.717 95.7117C282.717 95.1398 282.208 95.1398 281.954 94.822C281.573 94.4408 281.382 93.5511 281.763 92.5343C279.984 94.6949 278.332 96.8556 276.743 99.1433C276.934 99.2069 277.061 99.2704 277.124 99.5246C277.188 99.7788 277.061 100.097 276.807 100.541C276.616 100.796 276.489 101.05 276.362 101.304C276.171 101.749 275.282 103.337 274.773 102.956C274.646 102.829 274.519 102.702 274.455 102.575C271.977 106.451 269.753 110.455 267.846 114.585C262.763 125.325 259.649 136.891 258.505 148.711C258.759 148.647 259.077 148.711 259.331 149.029C260.157 149.918 260.475 152.142 261.365 153.032C262.763 154.557 264.415 156.4 265.114 158.434C265.559 159.768 266.194 161.738 267.275 162.564C269.308 164.153 271.85 165.487 274.138 165.551C276.489 165.615 278.395 169.745 280.683 168.792C280.937 168.665 281.891 170.635 282.081 170.889C282.59 171.842 283.479 172.668 284.242 173.24C285.195 173.939 286.148 174.384 287.102 174.893C288.881 175.782 291.041 177.117 290.342 179.913C289.898 181.629 289.008 183.154 288.372 184.806C287.673 186.522 287.165 188.238 287.928 190.081C288.627 191.796 289.961 193.194 290.724 194.91C291.486 196.753 290.914 198.723 291.677 200.63C292.63 202.981 294.282 203.553 296.443 204.697C298.222 205.65 299.239 206.667 300.065 208.51C301.908 212.322 303.243 216.517 304.259 220.584C305.594 225.731 306.484 231.133 308.898 235.899C310.106 238.25 311.44 240.411 313.347 242.19C314.554 243.334 315.889 243.524 316.079 241.555C316.207 240.347 315.38 239.203 314.999 238.059C314.681 236.852 315.253 236.026 315.38 234.882C315.444 233.929 314.808 232.404 315.571 231.705C316.27 231.069 317.287 231.641 317.732 230.688C318.367 229.48 317.033 228.718 316.906 227.637C316.778 226.557 318.494 226.811 319.13 225.922C319.511 225.413 319.447 224.651 319.765 224.015C320.019 223.57 320.274 223.507 320.591 223.189C321.163 222.617 321.545 221.664 321.799 220.901C322.116 219.503 320.973 217.788 321.608 216.517ZM279.603 130.345C280.747 129.519 282.844 127.549 283.797 128.185C284.242 128.503 284.496 129.138 284.814 129.773C285.322 130.917 286.911 131.489 287.801 132.061C288.69 132.633 287.292 133.396 287.038 134.285C286.784 135.175 286.085 135.493 286.148 134.984C286.212 134.667 286.212 134.412 285.767 134.54C285.132 134.73 285.322 134.285 285.576 133.777C285.894 133.078 284.305 132.315 283.733 133.713C283.606 134.095 283.479 134.476 283.352 134.857C282.907 136.319 281.509 136.128 281.954 134.667C282.018 134.476 282.081 134.285 282.145 134.095C282.653 132.697 282.399 130.854 281.192 130.854C279.73 130.981 278.395 131.299 279.603 130.345Z" fill="#BBDAE1"/>
<path d="M289.008 85.8613C289.135 86.4333 289.961 86.052 290.088 85.7978C290.279 85.5436 291.232 84.2091 290.978 83.5736C290.851 83.2559 290.533 83.2559 290.152 83.4465C289.707 83.8913 289.199 84.3362 288.754 84.8446C288.754 85.1623 288.945 85.4801 289.008 85.8613Z" fill="#BBDAE1"/>
<path d="M353.954 123.482C354.272 124.499 355.416 123.927 355.988 123.8C356.687 123.609 357.449 122.783 357.703 122.021C357.894 121.449 357.831 120.686 357.576 120.114C357.322 119.542 356.56 118.589 355.988 118.97C355.733 119.097 355.797 119.415 355.606 119.606C355.352 119.796 354.844 119.606 354.526 119.669C353.636 119.86 354.272 120.813 354.399 121.322C354.463 121.703 354.399 122.084 354.272 122.402C354.081 122.783 353.827 123.101 353.954 123.482Z" fill="#BBDAE1"/>
<path d="M372.574 139.941C373.146 138.607 372.32 134.603 371.685 136.001C371.557 136.192 371.494 136.509 371.43 136.827C371.049 138.352 372.002 141.276 372.574 139.941Z" fill="#F5F5F5"/>
<path d="M463.003 182.518C463.639 181.629 463.83 180.358 462.813 180.167C461.796 179.976 461.288 180.993 460.525 181.756C459.572 182.645 458.428 183.471 457.475 184.17C456.839 184.615 455.759 184.043 455.505 185.187C455.251 186.331 455.441 187.348 455.695 188.301C455.95 189.127 456.077 189.763 456.585 190.335C457.475 191.351 459 191.923 460.334 190.779C460.525 190.589 460.716 190.398 460.906 190.144C461.161 189.763 461.478 188.937 461.796 188.428C462.177 187.094 462.559 185.696 462.94 184.298C462.559 183.789 462.432 183.281 463.003 182.518Z" fill="#F5F5F5"/>
<path d="M291.805 161.42C290.788 161.293 289.962 160.912 289.072 160.34C288.246 159.832 287.356 159.196 286.467 159.514C285.831 159.768 286.594 160.531 286.975 160.849C287.293 161.103 287.611 161.293 287.928 161.548C288.5 161.865 289.199 162.564 289.644 162.819C289.898 162.946 290.153 163.073 290.47 163.009C291.614 162.946 292.758 162.31 293.902 163.2C294.156 163.39 294.601 164.026 294.919 164.026H294.982C295.363 163.899 295.3 163.263 295.173 162.882C294.601 161.42 292.758 161.484 291.805 161.42Z" fill="#BBDAE1"/>
<path d="M376.832 143.944C377.023 143.5 376.959 142.864 376.197 142.483C375.879 142.292 375.752 142.737 375.752 143.182C375.688 143.817 376.451 144.898 376.832 143.944Z" fill="#F5F5F5"/>
<path d="M366.728 139.942C367.173 139.497 367.109 138.988 365.775 138.988C365.584 138.988 365.203 139.306 365.012 139.687C364.631 140.259 365.902 140.704 366.728 139.942Z" fill="#F5F5F5"/>
<path d="M350.205 101.177C350.968 99.7792 349.379 97.4915 348.617 97.555C348.172 97.6186 347.727 97.9998 347.346 98.1269C346.901 98.254 346.329 98.1905 345.884 98.1905C345.058 98.254 344.232 99.3344 343.66 98.5082C343.088 97.7457 342.452 100.16 343.215 101.559C344.931 104.99 348.998 103.274 350.205 101.177Z" fill="#BBDAE1"/>
<path d="M290.851 103.591C290.215 104.926 289.961 106.133 290.597 106.451C291.169 106.769 292.821 105.943 293.965 105.688C295.617 105.307 294.346 104.545 293.329 103.401C292.694 102.638 291.486 102.257 290.851 103.591Z" fill="#F5F5F5"/>
<path d="M341.435 84.8449C342.325 84.273 343.914 83.0656 343.659 81.4134C343.532 80.3966 342.96 80.0153 343.024 78.935C343.024 78.4901 343.151 78.1089 343.278 77.7276C343.532 77.1556 344.104 76.4566 344.422 75.9482C344.613 75.6305 344.74 75.3127 344.613 74.8679C344.422 74.1053 343.723 73.9782 343.342 73.5334C341.626 71.1186 348.044 66.8608 347.472 65.717C347.409 65.5263 347.155 65.3992 346.964 65.3357C346.646 65.2086 346.074 65.0815 345.629 65.0815C345.375 65.0815 345.121 65.0815 344.867 65.145C344.549 65.2721 344.231 65.5899 343.914 65.9076C343.405 66.4796 342.833 67.0515 342.643 66.8608C342.579 66.7973 342.579 66.6067 342.389 66.3525C342.007 65.6534 341.944 66.1618 341.372 66.416C341.118 66.5431 340.228 66.6067 340.228 65.7805C340.228 64.9544 341.054 64.1918 341.372 63.8105C341.626 63.4293 341.88 63.2386 342.134 63.1115C342.579 62.9209 342.579 61.8405 341.944 61.2051C341.245 60.506 340.355 60.2518 339.783 60.0612C338.258 59.6164 336.733 59.807 335.144 60.3789C334.381 60.6967 333.619 61.078 332.793 61.7135C331.712 62.476 330.632 64.3825 329.425 65.2721C328.599 65.8441 328.09 65.6534 327.582 65.4628C326.565 65.0815 325.231 64.6367 323.197 66.5431C321.99 67.687 322.752 67.8776 322.18 68.9579C321.608 70.1018 320.337 69.7841 319.829 69.9747C319.638 70.0382 319.384 70.1653 319.066 70.356C318.622 70.6737 318.05 71.8176 318.05 72.326C318.05 72.5802 317.986 72.7708 317.223 73.3427C316.207 74.1689 315.317 74.6137 314.3 75.1856C313.601 75.5669 312.902 76.0753 312.267 77.1556C311.758 78.0453 312.076 78.0453 312.33 78.2995C312.457 78.4266 312.521 78.6172 312.584 78.8079C312.648 79.1892 312.648 80.0788 313.093 80.2695C313.538 80.3966 314.872 79.8882 315.889 79.5705C317.605 78.9985 319.257 78.6808 319.956 80.0788C320.21 80.5237 320.274 81.0956 320.274 81.6675C320.274 82.7479 319.511 84.7179 319.13 85.7982C318.876 86.4972 318.685 87.1962 318.812 87.6411C319.13 88.6578 320.337 88.7214 320.719 89.8652C320.973 90.7549 320.592 92.0259 319.956 93.1062C319.257 94.3136 318.494 94.7584 317.732 95.7752C316.969 96.7284 317.16 97.9994 316.906 99.0797C316.652 100.478 316.715 101.749 316.969 103.02C317.223 104.418 317.605 105.816 317.986 107.15C318.177 107.722 318.367 108.231 318.685 108.612C319.193 109.247 320.719 109.502 321.799 109.311C322.498 109.184 323.197 108.866 323.705 108.294C324.913 106.96 324.786 104.863 325.358 103.21C325.866 101.622 326.756 100.859 327.836 100.351C328.853 99.9058 330.187 99.5881 331.14 98.6349C331.903 97.8088 332.348 96.5378 333.174 95.7752C334.191 94.7584 335.779 94.8855 336.86 94.4407C337.622 94.123 339.211 93.4239 339.402 92.3436C339.529 91.7717 339.275 91.3904 339.592 90.8185C339.783 90.4372 340.228 90.2465 340.482 90.0559C340.609 89.9923 340.863 89.9288 341.054 89.8652C341.372 89.7382 341.562 88.9756 341.308 88.5943C341.181 88.3401 340.99 88.0859 340.927 87.8953C340.419 86.6243 340.355 85.544 341.435 84.8449Z" fill="#BBDAE1"/>
<path d="M288.437 89.4838C288.882 89.1661 289.454 88.7212 289.263 88.467C289.199 88.4035 289.072 88.4035 289.009 88.2764C288.882 88.1493 288.246 88.1493 287.039 88.7212C285.831 89.2932 285.45 90.3735 284.56 90.6912C283.671 91.009 284.243 92.5977 284.942 93.0425C286.022 93.7415 287.42 92.5977 288.246 91.4538C289.39 90.1193 287.738 89.9922 288.437 89.4838Z" fill="#BBDAE1"/>
<path d="M431.161 55.4187C431.005 55.2634 430.772 55.341 430.617 55.4963C430.462 55.6515 430.54 55.8844 430.695 56.0397L431.238 56.4278L429.763 57.0488C425.572 53.8662 422.234 52.1584 421.458 53.1676C420.681 54.2543 423.243 56.9711 427.435 60.1537L427.202 61.7839L426.658 61.3957C426.503 61.2405 426.27 61.3181 426.115 61.4734C425.96 61.6286 426.037 61.8615 426.193 62.0167L427.124 62.7154L426.115 71.0212L426.503 71.3317L431.161 62.8706C434.809 65.277 438.535 67.2176 438.535 67.2176L438.845 71.1764L439.234 71.4869L440.398 68.5372C440.398 68.5372 441.329 69.1582 441.718 68.6148C442.106 68.0714 441.252 67.3728 441.252 67.3728L443.813 65.4322L443.425 65.1217L439.466 65.898C439.466 65.898 436.517 62.8706 433.256 59.9985L440.165 53.2452L439.777 52.9347L432.092 56.1949L431.161 55.4187Z" fill="#15234A"/>
<path d="M444.201 70.5557C444.201 70.5557 444.356 70.6333 444.589 70.8662C444.822 71.099 445.288 71.3319 445.754 71.72C446.219 72.1082 446.84 72.6515 447.461 73.1949C448.082 73.8159 448.859 74.4369 449.635 75.2131C450.411 75.9894 451.265 76.7656 452.119 77.6971C452.973 78.6286 453.827 79.5601 454.758 80.5692C455.612 81.5783 456.543 82.6651 457.397 83.8294C458.251 84.9162 459.105 86.1582 459.959 87.3225C460.735 88.4869 461.589 89.7289 462.365 90.8933C463.142 92.0576 463.84 93.2996 464.539 94.464C465.237 95.6283 465.781 96.7927 466.402 97.8795C466.945 98.9662 467.489 100.053 467.954 101.062C468.42 102.071 468.73 103.003 469.119 103.779C469.429 104.555 469.74 105.331 469.895 105.875C470.361 107.039 470.516 107.738 470.516 107.738C470.516 107.738 470.205 107.117 469.662 105.952C469.351 105.409 469.041 104.71 468.653 103.934C468.265 103.158 467.799 102.304 467.256 101.373C466.712 100.441 466.169 99.4319 465.548 98.3452C464.927 97.2585 464.306 96.1717 463.53 95.0074C463.142 94.464 462.831 93.843 462.443 93.2996C462.055 92.7562 461.667 92.1353 461.279 91.5143C460.502 90.3499 459.648 89.1855 458.872 88.0212C458.018 86.8568 457.242 85.6924 456.388 84.6057C456 84.0623 455.534 83.5189 455.146 82.9756C454.68 82.4322 454.292 81.8888 453.904 81.3455C453.05 80.3363 452.274 79.3272 451.42 78.3957C450.644 77.4642 449.868 76.6104 449.169 75.7565C448.471 74.9803 447.772 74.204 447.229 73.583C446.608 72.962 446.064 72.4186 445.676 71.9529C444.745 71.0214 444.201 70.5557 444.201 70.5557Z" fill="#15234A"/>
<path d="M481.383 129.007C481.306 128.774 481.073 128.697 480.917 128.774C480.685 128.852 480.607 129.085 480.685 129.24L480.917 129.861L479.365 129.551C477.735 124.505 475.949 121.245 474.708 121.633C473.466 122.021 474.009 125.747 475.639 130.792L474.552 131.957L474.319 131.336C474.242 131.103 474.009 131.025 473.854 131.103C473.621 131.181 473.543 131.413 473.621 131.569L474.009 132.655L468.42 138.865L468.575 139.331L477.191 134.984C478.899 139.021 480.762 142.747 480.762 142.747L478.744 146.24L478.899 146.706L481.538 144.92C481.538 144.92 481.927 146.007 482.548 145.774C483.169 145.541 482.858 144.454 482.858 144.454L486.041 144.299L485.885 143.833L482.237 142.203C482.237 142.203 481.538 138.012 480.452 133.82L490 132.19L489.844 131.724L481.694 130.016L481.383 129.007Z" fill="#5A84F6"/>
<path d="M483.635 148.802C483.635 148.802 483.712 148.957 483.79 149.268C483.868 149.578 484.023 150.044 484.101 150.665C484.256 151.286 484.411 152.062 484.566 152.916C484.722 153.77 484.877 154.779 485.032 155.866C485.187 156.952 485.265 158.117 485.42 159.359C485.498 160.601 485.575 161.92 485.653 163.24C485.653 164.56 485.731 166.034 485.653 167.432C485.653 168.829 485.575 170.304 485.498 171.779C485.343 173.253 485.265 174.651 485.11 176.048C484.954 177.445 484.722 178.842 484.566 180.162C484.411 181.482 484.101 182.801 483.868 184.043C483.635 185.285 483.324 186.372 483.091 187.459C482.859 188.545 482.548 189.477 482.315 190.331C482.082 191.185 481.772 191.883 481.617 192.504C481.228 193.669 480.918 194.367 480.918 194.367C480.918 194.367 481.073 193.669 481.306 192.427C481.461 191.806 481.617 191.107 481.772 190.176C481.927 189.322 482.16 188.313 482.315 187.303C482.47 186.217 482.703 185.13 482.859 183.888C483.014 182.646 483.247 181.404 483.402 180.084C483.48 179.386 483.557 178.765 483.635 178.066C483.712 177.368 483.79 176.669 483.868 175.97C484.023 174.573 484.101 173.176 484.178 171.701C484.256 170.304 484.333 168.829 484.411 167.432C484.411 166.733 484.489 166.034 484.489 165.336C484.489 164.637 484.489 163.939 484.489 163.318C484.489 161.998 484.489 160.678 484.489 159.436C484.489 158.194 484.411 157.03 484.333 155.943C484.256 154.856 484.178 153.925 484.178 152.993C484.101 152.14 484.023 151.363 483.945 150.742C483.712 149.5 483.635 148.802 483.635 148.802Z" fill="#5A84F6"/>
<path d="M493.923 371.938H509.521V442.515H493.923V371.938Z" stroke="#263238" stroke-width="2.9172" stroke-miterlimit="10"/>
<path d="M506.197 549.913C506.58 549.913 508.242 549.913 508.626 549.913C511.439 549.913 513.74 552.086 513.74 554.899C513.74 557.712 511.439 559.885 508.626 559.885C508.242 559.885 506.58 559.885 506.197 559.885C503.384 559.885 501.083 557.712 501.083 554.899C501.21 552.086 503.384 549.913 506.197 549.913Z" fill="#263238"/>
<path opacity="0.1" d="M501.21 554.771C501.21 557.584 503.511 559.885 506.324 559.885C509.137 559.885 511.438 557.584 511.438 554.771C511.438 551.958 509.137 549.657 506.324 549.657C503.384 549.785 501.21 552.086 501.21 554.771Z" fill="white"/>
<path d="M492.516 549.913C492.9 549.913 494.562 549.913 494.945 549.913C497.758 549.913 500.06 552.086 500.06 554.899C500.06 557.712 497.758 559.885 494.945 559.885C494.562 559.885 492.9 559.885 492.516 559.885C489.703 559.885 487.402 557.712 487.402 554.899C487.53 552.086 489.703 549.913 492.516 549.913Z" fill="#263238"/>
<path opacity="0.2" d="M487.529 554.771C487.529 557.584 489.831 559.885 492.644 559.885C495.456 559.885 497.758 557.584 497.758 554.771C497.758 551.958 495.456 549.657 492.644 549.657C489.831 549.657 487.529 552.086 487.529 554.771Z" fill="white"/>
<path d="M447 445.327V533.291C447 541.985 454.16 549.912 462.854 549.912H506.708V429.345H462.854C456.717 429.345 451.475 432.797 448.79 437.911C447.639 440.085 447 442.642 447 445.327Z" fill="#407BFF"/>
<path d="M490.342 551.575H509.776C511.566 551.575 513.101 550.041 513.101 548.251V430.368C513.101 428.578 511.566 427.044 509.776 427.044H490.342C488.552 427.044 487.018 428.578 487.018 430.368V548.251C487.018 550.168 488.552 551.575 490.342 551.575Z" fill="#263238"/>
<path opacity="0.2" d="M500.059 551.575H509.776C511.566 551.575 513.101 550.041 513.101 548.251V430.368C513.101 428.578 511.566 427.044 509.776 427.044H500.059C498.269 427.044 496.735 428.578 496.735 430.368V548.251C496.735 550.168 498.269 551.575 500.059 551.575Z" fill="white"/>
<path opacity="0.2" d="M447 445.327V533.291C447 541.985 454.16 549.912 462.854 549.912H480.498C481.137 548.634 481.904 546.46 481.904 544.926V446.733C481.904 441.875 477.685 438.039 472.827 438.039H448.918C447.639 440.596 447 442.642 447 445.327Z" fill="black"/>
<path opacity="0.2" d="M502.362 548.506H508.882C510.161 548.506 511.184 547.484 511.184 546.205V432.797C511.184 431.519 510.161 430.496 508.882 430.496H502.362C501.083 430.496 500.06 431.519 500.06 432.797V546.205C500.06 547.356 501.083 548.506 502.362 548.506Z" fill="black"/>
<path d="M493.667 374.239H509.905C511.311 374.239 512.334 373.089 512.334 371.81V370.276C512.334 368.87 511.183 367.847 509.905 367.847H493.539C492.133 367.847 491.11 368.997 491.11 370.276V371.81C491.11 373.217 492.261 374.239 493.667 374.239Z" fill="#263238"/>
<path opacity="0.2" d="M493.667 374.239H509.905C511.311 374.239 512.334 373.089 512.334 371.81V370.276C512.334 368.87 511.183 367.847 509.905 367.847H493.539C492.133 367.847 491.11 368.997 491.11 370.276V371.81C491.11 373.217 492.261 374.239 493.667 374.239Z" fill="white"/>
<path opacity="0.2" d="M493.667 374.239H495.074C496.48 374.239 497.503 373.089 497.503 371.81V370.276C497.503 368.87 496.352 367.847 495.074 367.847H493.667C492.261 367.847 491.238 368.997 491.238 370.276V371.81C491.11 373.217 492.261 374.239 493.667 374.239Z" fill="black"/>
<path d="M549.412 297.27C561.814 295.608 573.833 293.307 573.833 293.307L574.856 294.457C574.856 294.457 596.463 298.804 599.787 302.64C603.112 306.476 602.217 323.736 602.217 323.736L600.81 324.887C600.81 324.887 601.194 361.198 596.591 367.59C591.86 373.983 571.148 374.75 555.422 370.403C539.44 366.184 537.01 298.932 549.412 297.27Z" fill="#263238"/>
<path opacity="0.4" d="M555.166 370.531C557.723 371.298 560.536 371.81 563.221 372.193C577.285 374.367 592.5 372.96 596.463 367.718C601.066 361.326 600.682 325.015 600.682 325.015L602.089 323.864C602.089 323.864 603.112 306.731 599.787 302.768C596.975 299.444 581.632 295.992 576.518 294.841C575.495 294.585 574.856 294.457 574.856 294.457L573.833 293.307C573.833 293.307 561.814 295.608 549.413 297.27C537.011 298.932 539.44 366.184 555.166 370.531Z" fill="white"/>
<path opacity="0.2" d="M555.166 370.531C557.723 371.298 560.536 371.81 563.221 372.193C572.81 372.065 581.504 370.659 583.038 367.718C585.723 362.348 582.527 340.485 584.572 325.015C586.618 309.544 583.166 297.782 576.39 294.969V294.841C575.367 294.585 574.728 294.457 574.728 294.457L573.705 293.307C573.705 293.307 561.686 295.608 549.284 297.27C537.01 298.932 539.44 366.184 555.166 370.531Z" fill="black"/>
<path d="M508.115 358.769L499.165 362.604L493.923 368.741L500.699 370.531L504.407 368.23C504.407 368.23 510.8 367.974 512.462 362.988L508.115 358.769Z" fill="#FFD0B0"/>
<path d="M511.568 364.65C513.102 363.883 519.75 359.536 526.143 354.933C531.769 350.842 537.267 346.623 538.673 344.577C540.463 342.02 542.509 334.349 544.043 326.294C545.961 316.321 547.239 305.709 546.344 303.919C544.682 300.723 538.673 298.933 538.673 298.933C531.385 303.152 527.933 331.408 526.527 336.778C526.527 336.778 506.837 356.084 506.07 358.257C505.431 360.431 511.568 364.65 511.568 364.65Z" fill="#407BFF"/>
<path d="M511.568 364.65C513.102 363.883 519.75 359.536 526.143 354.933C531.769 350.842 537.267 346.623 538.673 344.577C540.463 342.02 542.509 334.349 544.043 326.294C545.961 316.321 547.239 305.709 546.344 303.919C544.682 300.723 538.673 298.933 538.673 298.933C531.385 303.152 527.933 331.408 526.527 336.778C526.527 336.778 506.837 356.084 506.07 358.257C505.431 360.431 511.568 364.65 511.568 364.65Z" fill="#0F1C40"/>
<path d="M497.12 559.885C504.663 559.885 505.686 559.757 509.905 559.629C513.485 559.501 514.38 560.013 517.321 559.885C519.75 559.885 519.622 557.456 518.983 554.771C518.599 553.364 518.088 550.552 517.448 548.378L506.325 547.611C504.791 550.552 501.211 554.899 496.992 555.41C493.028 555.921 494.051 559.885 497.12 559.885Z" fill="#407BFF"/>
<path d="M553.12 559.885C560.664 559.885 561.687 559.757 565.906 559.629C569.486 559.501 570.381 560.013 573.322 559.885C575.751 559.885 575.623 557.456 574.984 554.771C574.6 553.364 574.089 550.552 573.449 548.378L562.326 547.611C560.792 550.552 557.212 554.899 552.993 555.41C549.029 555.921 550.052 559.885 553.12 559.885Z" fill="#407BFF"/>
<path d="M497.12 559.885C504.663 559.885 505.686 559.757 509.905 559.629C513.485 559.501 514.38 560.013 517.321 559.885C519.75 559.885 519.622 557.456 518.983 554.771C518.599 553.364 518.088 550.552 517.448 548.378L506.325 547.611C504.791 550.552 501.211 554.899 496.992 555.41C493.028 555.921 494.051 559.885 497.12 559.885Z" fill="#142248"/>
<path d="M553.12 559.885C560.664 559.885 561.687 559.757 565.906 559.629C569.486 559.501 570.381 560.013 573.322 559.885C575.751 559.885 575.623 557.456 574.984 554.771C574.6 553.364 574.089 550.552 573.449 548.378L562.326 547.611C560.792 550.552 557.212 554.899 552.993 555.41C549.029 555.921 550.052 559.885 553.12 559.885Z" fill="#142248"/>
<path opacity="0.2" d="M526.27 354.933C531.896 350.842 537.394 346.623 538.8 344.577C540.59 342.02 542.636 334.349 544.17 326.294C542.124 322.075 540.462 319.262 540.462 319.262C540.462 319.262 531.129 331.664 526.27 354.933Z" fill="black"/>
<path d="M575.751 246.512C579.586 241.398 584.956 239.224 591.605 242.676C598.253 246.128 598.253 252.777 594.801 259.553C591.349 266.33 601.705 268.631 599.404 275.407C598.509 278.092 596.591 278.731 596.591 283.334C596.591 286.019 600.171 290.622 597.742 292.412C594.801 294.713 585.084 289.983 586.874 285.508C588.664 281.033 581.76 281.672 581.504 277.325C581.249 272.722 584.573 271.188 583.294 267.736C581.76 263.772 577.669 263.9 575.751 258.147C574.089 253.288 574.472 248.174 575.751 246.512Z" fill="#407BFF"/>
<path d="M575.751 246.512C579.586 241.398 584.956 239.224 591.605 242.676C598.253 246.128 598.253 252.777 594.801 259.553C591.349 266.33 601.705 268.631 599.404 275.407C598.509 278.092 596.591 278.731 596.591 283.334C596.591 286.019 600.171 290.622 597.742 292.412C594.801 294.713 585.084 289.983 586.874 285.508C588.664 281.033 581.76 281.672 581.504 277.325C581.249 272.722 584.573 271.188 583.294 267.736C581.76 263.772 577.669 263.9 575.751 258.147C574.089 253.288 574.472 248.174 575.751 246.512Z" fill="black"/>
<path d="M534.453 355.828C534.453 355.828 524.608 414.897 523.074 445.327C521.412 477.291 511.183 528.56 505.686 548.506C507.22 549.912 514.38 550.424 517.704 548.762C517.704 548.762 547.239 489.692 543.403 452.742C568.079 383.061 562.198 357.107 562.198 357.107L534.453 355.828Z" fill="black"/>
<path opacity="0.2" d="M550.819 430.623C554.399 418.989 556.828 409.016 558.618 400.322C556.828 393.545 554.271 387.792 550.947 384.34C550.947 384.34 545.961 403.135 550.819 430.623Z" fill="black"/>
<path d="M545.065 352.76C545.065 352.76 553.12 415.409 557.851 445.455C562.709 477.163 563.349 527.921 562.07 548.634C563.86 549.657 570.253 550.935 573.833 549.785C573.833 549.785 590.326 485.729 579.331 448.651C589.303 375.39 574.856 357.49 574.856 357.49L545.065 352.76Z" fill="black"/>
<path d="M533.942 348.924C533.558 339.718 533.303 333.326 533.303 326.805C533.047 317.216 533.686 314.147 533.942 310.184C534.453 303.024 540.079 294.841 547.239 294.074C549.284 293.818 551.33 293.69 553.376 293.563C559.513 293.179 565.139 293.69 571.915 294.202C573.705 294.33 575.367 294.585 577.029 294.713C583.038 295.48 586.618 301.49 584.7 307.371C578.819 325.654 576.262 337.545 575.367 347.006C576.39 349.947 581.888 365.673 579.714 367.463C577.285 369.381 535.988 370.915 532.791 367.463C530.234 364.906 532.663 353.782 533.942 348.924Z" fill="#407BFF"/>
<path d="M532.791 367.591C535.987 371.043 577.285 369.509 579.714 367.591C582.015 365.801 576.518 350.075 575.367 347.134C575.75 342.659 576.518 337.545 577.924 331.408C578.947 327.061 580.098 322.33 581.76 316.832C582.655 313.892 583.55 310.823 584.572 307.499C586.49 301.618 582.91 295.608 576.901 294.841C575.239 294.586 573.577 294.458 571.787 294.33C565.011 293.818 559.385 293.307 553.248 293.691C551.202 293.818 549.157 293.946 547.111 294.202C539.823 294.969 534.198 303.024 533.814 310.312C533.558 314.275 532.919 317.344 533.175 326.933C533.175 333.454 533.43 339.846 533.814 349.052C532.791 353.782 530.234 364.906 532.791 367.591Z" fill="#15234A"/>
<path d="M569.358 321.051C569.358 321.051 572.171 335.371 578.436 344.576L577.157 346.75C577.157 346.75 570.764 338.823 566.929 321.051H569.358Z" fill="#263238"/>
<path d="M569.358 321.051C569.358 321.051 572.171 335.371 578.436 344.576L577.157 346.75C577.157 346.75 570.764 338.823 566.929 321.051H569.358Z" fill="black"/>
<path d="M581.248 295.736C581.248 295.736 569.23 300.083 570.636 321.179C570.764 322.585 569.613 323.736 568.207 323.736C567.056 323.736 566.161 322.969 565.905 321.946C564.627 316.448 561.942 300.083 573.832 293.307C573.832 293.307 580.097 294.202 581.248 295.736Z" fill="black"/>
<path d="M535.731 321.052C535.731 321.052 534.964 331.28 533.558 340.486L532.663 338.824C532.663 338.824 533.174 330.129 533.814 321.052H535.731Z" fill="#263238"/>
<path d="M535.731 321.052C535.731 321.052 534.964 331.28 533.558 340.486L532.663 338.824C532.663 338.824 533.174 330.129 533.814 321.052H535.731Z" fill="black"/>
<path d="M547.75 294.074C547.75 294.074 538.289 300.339 536.371 321.308C536.243 322.203 535.604 322.842 534.709 322.842C533.814 322.842 533.047 322.075 533.047 321.18C533.047 316.833 533.686 304.942 540.334 296.376C540.462 296.376 545.704 293.052 547.75 294.074Z" fill="black"/>
<g opacity="0.2">
<path opacity="0.2" d="M545.96 368.358C546.216 368.358 546.344 368.102 546.216 367.974C544.17 361.07 547.622 350.458 547.622 350.33V350.202C547.622 349.947 545.321 330.385 547.622 316.065C549.412 305.453 553.248 300.467 553.248 300.467C553.376 300.339 553.376 300.083 553.248 300.083C553.12 299.955 552.864 299.955 552.864 300.083C552.736 300.339 548.901 305.197 547.111 316.065C544.809 330.001 546.983 348.924 547.111 350.202C546.727 351.225 543.659 361.198 545.704 368.102C545.704 368.358 545.704 368.358 545.96 368.358Z" fill="black"/>
</g>
<path d="M572.682 287.298C572.682 287.298 559.896 290.75 551.458 288.449C543.019 286.147 546.216 299.956 554.015 299.7C561.942 299.444 577.412 291.134 572.682 287.298Z" fill="#407BFF"/>
<path d="M571.275 273.361C569.485 279.243 567.056 290.11 570.892 294.202C570.892 294.202 565.266 293.179 552.992 300.211C549.668 295.097 552.353 293.562 552.353 293.562C559.129 292.156 559.513 287.298 558.873 282.567L571.275 273.361Z" fill="#FFD0B0"/>
<path opacity="0.2" d="M566.29 277.197L558.874 282.695C559.002 283.846 559.13 284.869 559.13 286.019C561.687 285.764 565.523 283.079 566.034 280.394C566.29 279.115 566.418 277.837 566.29 277.197Z" fill="#CFA487"/>
<path d="M576.773 261.599C574.6 271.188 573.96 275.28 568.335 279.627C559.769 286.275 548.645 282.184 547.878 272.339C547.239 263.517 550.819 249.325 560.791 246.512C570.764 243.699 578.947 252.01 576.773 261.599Z" fill="#FFD0B0"/>
<path d="M563.476 241.781C556.316 242.676 546.727 250.475 556.061 251.37C556.316 254.311 561.686 253.928 565.394 252.01C565.011 254.183 568.974 258.147 573.705 256.485C571.02 258.275 571.403 265.562 574.855 265.69C578.308 265.818 585.595 267.224 583.422 255.206C581.376 243.316 571.02 240.886 563.476 241.781Z" fill="#407BFF"/>
<path d="M563.476 241.781C556.316 242.676 546.727 250.475 556.061 251.37C556.316 254.311 561.686 253.928 565.394 252.01C565.011 254.183 568.974 258.147 573.705 256.485C571.02 258.275 571.403 265.562 574.855 265.69C578.308 265.818 585.595 267.224 583.422 255.206C581.376 243.316 571.02 240.886 563.476 241.781Z" fill="black"/>
<path d="M578.691 269.91C577.285 271.7 575.239 272.723 573.449 272.978C570.764 273.234 569.997 270.677 571.276 268.12C572.298 265.946 575.111 263.133 577.541 263.901C579.97 264.668 580.353 267.736 578.691 269.91Z" fill="#F6C9AA"/>
<path d="M552.992 300.211C552.992 300.211 572.043 281.288 581.632 287.936C587.13 291.772 583.806 295.863 581.121 295.863C578.308 295.863 574.728 294.585 574.728 294.585C574.728 294.585 568.335 299.06 552.992 300.211Z" fill="#407BFF"/>
<path d="M552.992 300.211C552.992 300.211 549.54 292.54 551.202 289.471C552.864 286.403 542.508 286.786 541.741 292.923C540.974 299.06 552.992 300.211 552.992 300.211Z" fill="#407BFF"/>
<path opacity="0.2" d="M552.992 300.211C552.992 300.211 572.043 281.288 581.632 287.936C587.13 291.772 583.806 295.863 581.121 295.863C578.308 295.863 574.728 294.585 574.728 294.585C574.728 294.585 568.335 299.06 552.992 300.211Z" fill="white"/>
<path opacity="0.2" d="M552.992 300.211C552.992 300.211 549.54 292.54 551.202 289.471C552.864 286.403 542.508 286.786 541.741 292.923C540.974 299.06 552.992 300.211 552.992 300.211Z" fill="white"/>
<path d="M544.043 333.709L558.362 361.837L576.134 354.677L576.006 354.549L577.413 352.887L578.436 352.504L563.476 323.353C563.476 323.353 547.878 329.745 546.216 330.768C544.554 331.663 544.043 333.709 544.043 333.709Z" fill="#407BFF"/>
<path d="M544.043 333.709L558.362 361.837L576.134 354.677L576.006 354.549L577.413 352.887L578.436 352.504L563.476 323.353C563.476 323.353 547.878 329.745 546.216 330.768C546.088 330.768 546.088 330.896 545.96 330.896C544.554 331.919 544.043 333.709 544.043 333.709Z" fill="#E1E9FF"/>
<path opacity="0.2" d="M544.043 333.709L558.363 361.837L576.135 354.678L576.007 354.55L577.413 352.888L559.897 359.408L545.833 330.896C544.554 331.919 544.043 333.709 544.043 333.709Z" fill="black"/>
<path opacity="0.6" d="M559.002 361.453L576.135 354.549L577.541 352.887L560.025 359.663C558.746 360.686 559.002 361.453 559.002 361.453Z" fill="white"/>
<path d="M567.823 347.261L554.015 326.037L546.983 330.256L560.535 351.352L567.823 347.261Z" fill="white"/>
<path opacity="0.1" d="M567.823 347.261L554.015 326.037L546.983 330.256L560.535 351.352L567.823 347.261Z" fill="black"/>
<path d="M567.695 347.134L555.293 325.015L548.006 328.85L560.152 350.714L567.695 347.134Z" fill="white"/>
<path d="M566.033 346.367L560.791 330.257L548.773 333.198L553.759 349.307L566.033 346.367Z" fill="#14A34D"/>
<path d="M554.015 340.357C554.526 342.275 556.572 343.426 558.362 342.914C560.152 342.403 561.302 340.613 560.791 338.695C560.28 336.777 558.234 335.627 556.444 336.138C554.654 336.65 553.375 338.439 554.015 340.357Z" stroke="white" stroke-width="0.2431" stroke-miterlimit="10"/>
<path d="M556.316 336.138L558.361 342.914" stroke="white" stroke-width="0.2431" stroke-miterlimit="10"/>
<path d="M555.421 339.974C555.933 341.891 557.339 343.17 558.362 342.914C559.385 342.659 559.768 340.869 559.257 339.079C558.745 337.161 557.339 335.882 556.316 336.138C555.293 336.394 554.91 338.056 555.421 339.974Z" stroke="white" stroke-width="0.2582" stroke-miterlimit="10"/>
<path d="M560.791 338.695L554.015 340.357" stroke="white" stroke-width="0.2582" stroke-miterlimit="10"/>
<path d="M550.051 346.495L551.841 344.066C552.481 343.171 553.631 342.659 554.782 342.659L560.152 342.787C562.326 342.787 564.243 343.938 565.522 345.728L566.289 346.878C563.476 351.098 557.467 353.655 557.467 353.655L555.805 354.55C554.271 355.317 552.609 354.933 551.714 353.527L549.796 350.203C549.156 349.052 549.284 347.518 550.051 346.495Z" fill="#FFD0B0"/>
<path opacity="0.2" d="M578.052 331.536C579.075 327.189 580.226 322.458 581.888 316.96C580.609 315.937 578.947 315.937 577.157 317.344C577.157 317.344 576.006 325.015 578.052 331.536Z" fill="black"/>
<path d="M581.376 297.398C585.339 295.096 602.728 328.978 600.554 340.485C598.38 351.992 562.709 350.33 562.709 350.33C562.709 350.33 560.535 345.471 561.047 342.531C561.047 342.531 577.668 335.882 585.211 334.22L576.262 317.343C576.262 317.343 574.599 301.234 581.376 297.398Z" fill="#407BFF"/>
<path d="M581.376 297.398C585.339 295.096 602.728 328.978 600.554 340.485C598.38 351.992 562.709 350.33 562.709 350.33C562.709 350.33 560.535 345.471 561.047 342.531C561.047 342.531 577.668 335.882 585.211 334.22L576.262 317.343C576.262 317.343 574.599 301.234 581.376 297.398Z" fill="#0F1C40"/>
<path d="M611.146 171.073C611.146 147.342 591.804 128 568.073 128C544.342 128 525 147.342 525 171.073C525 193.179 541.742 211.383 563.197 213.821L568.073 230.075L572.949 213.821C594.405 211.546 611.146 193.179 611.146 171.073Z" fill="#15234A"/>
<g filter="url(#filter1_d_2_10253)">
<path d="M611.146 171.073C611.146 147.342 591.804 128 568.073 128C544.342 128 525 147.342 525 171.073C525 193.179 541.742 211.383 563.197 213.821L568.073 230.075L572.949 213.821C594.405 211.546 611.146 193.179 611.146 171.073Z" fill="white"/>
</g>
<path d="M585.789 161.809V186.027C585.789 188.14 577.987 189.928 568.235 189.928C558.483 189.928 550.681 188.14 550.681 186.027V161.809H585.789Z" fill="#1B2E61"/>
<path opacity="0.2" d="M585.79 161.809V170.423L568.073 176.275L550.519 170.423V161.809H585.79Z" fill="black"/>
<path d="M568.073 150.918L536.215 161.808L568.073 172.536L600.093 161.808L568.073 150.918Z" fill="#1B2E61"/>
<path fill-rule="evenodd" clip-rule="evenodd" d="M567.511 158.367C567.616 158.057 567.953 157.89 568.263 157.995L588.906 164.985C589.146 165.066 589.308 165.292 589.308 165.546V179.85C589.308 180.177 589.043 180.443 588.715 180.443C588.388 180.443 588.122 180.177 588.122 179.85V165.972L567.883 159.119C567.572 159.014 567.406 158.677 567.511 158.367Z" fill="#5B7EE0"/>
<path d="M588.716 178.388C588.066 178.388 587.578 179.038 587.578 179.688V182.776H589.854V179.688C589.854 179.038 589.366 178.388 588.716 178.388Z" fill="#5B7EE0"/>
<path d="M95.4781 327.881C95.4781 344.058 119.41 372.748 118.316 404.626C117.222 436.551 111.417 458.437 127.118 459.246C142.819 460.055 212.57 459.246 212.57 459.246H243.544C243.544 459.246 249.443 428.225 229.222 425.941C209.001 423.657 186.972 426.607 183.214 414.189C179.074 400.582 181.786 375.793 182.405 360.52C183.023 345.247 188.78 314.083 168.987 302.141C149.195 290.151 125.929 293.767 111.417 300.476C99.8078 305.852 95.4781 313.702 95.4781 327.881Z" fill="#BBDBF3"/>
<path d="M207.194 559.019C205.956 559.019 204.957 558.02 204.957 556.783V554.308C204.957 553.071 205.956 552.072 207.194 552.072C208.431 552.072 209.43 553.071 209.43 554.308V556.783C209.382 558.02 208.383 559.019 207.194 559.019Z" fill="#BBDBF3"/>
<path d="M183.214 542.223L207.193 552.12L183.214 547.98V542.223Z" fill="#BBDBF3"/>
<path d="M280.16 559.782H274.07V399.679H280.16V559.782Z" fill="#586773"/>
<path d="M279.132 543.889L298.83 544.079L294.833 514.485L271.805 522.431L279.132 543.889Z" fill="#FDAE97"/>
<path d="M253.725 406.053C243.305 409.812 237.881 421.278 241.64 431.65L267.856 525.952L300.162 520.909L280.512 423.705C280.417 421.849 280.036 419.946 279.37 418.091C275.611 407.718 264.145 402.342 253.725 406.053Z" fill="#3E63C8"/>
<path d="M152.573 409.621C152.573 409.621 148.957 413.713 147.529 417.091C146.102 420.422 163.23 418.614 163.23 418.614L161.375 402.532L152.573 409.621Z" fill="#088CFF"/>
<path d="M280.798 425.797C280.798 437.312 271.377 446.685 259.911 446.685H179.645C168.131 446.685 158.758 437.264 158.758 425.797C158.758 414.283 168.179 404.91 179.645 404.91H259.911C271.425 404.863 280.798 414.283 280.798 425.797Z" fill="#3E63C8"/>
<path d="M266.667 436.075C265.573 447.494 255.343 455.963 243.877 454.917L163.992 447.304C152.573 446.21 144.104 435.98 145.15 424.514C146.245 413.095 156.474 404.626 167.941 405.672L247.826 413.285C259.245 414.379 267.761 424.609 266.667 436.075Z" fill="#476CD2"/>
<path d="M205.861 543.889L225.559 544.079L229.746 530.757L208.24 529.092L205.861 543.889Z" fill="#FDAE97"/>
<rect x="202.484" y="554.536" width="12.8463" height="4.75789" fill="#403534"/>
<path d="M205.453 544.069L202.484 554.536C202.484 554.536 240.31 560.483 245.067 556.915C249.825 553.347 244.592 550.968 237.931 546.686C231.27 542.403 205.453 544.069 205.453 544.069Z" fill="#403534"/>
<rect x="280.514" y="554.536" width="12.8463" height="4.75789" fill="#403534"/>
<path d="M278.849 543.831L280.514 554.774C280.514 554.774 315.009 560.327 319.766 556.758C324.524 553.19 319.291 550.811 312.63 546.529C305.969 542.247 278.849 543.831 278.849 543.831Z" fill="#403534"/>
<path d="M250.585 414.522C239.689 412.619 229.317 419.899 227.366 430.747L202.578 531.328L233.504 537.276L265.049 443.165C265.858 441.499 266.524 439.691 266.857 437.741C268.76 426.845 261.48 416.425 250.585 414.522Z" fill="#476CD2"/>
<path d="M141.951 406.574L141.809 387.732L163.885 391.015L141.951 406.574Z" fill="#2D628C"/>
<path d="M261.374 317.316L263.372 311.464C263.372 311.464 266.941 305.897 268.035 303.708C268.654 302.471 270.604 299.379 271.128 298.998C271.508 298.713 272.698 298.808 272.793 299.284C272.936 299.902 271.937 303.375 271.556 304.755C271.223 306.04 270.176 309.941 270.176 309.941C270.176 309.941 277.741 303.09 280.12 300.663C281.452 299.284 285.211 295.097 286.258 296.001C287.019 296.667 283.641 301.377 282.499 302.995C281.452 304.47 278.36 308.99 278.36 308.99C278.36 308.99 283.641 303.518 285.354 301.71C286.638 300.378 289.921 295.953 291.111 296.905C292.253 297.856 288.684 301.996 287.638 303.47C286.163 305.612 281.785 311.987 281.785 311.987C281.785 311.987 287.4 306.373 289.303 304.517C290.35 303.47 293.062 299.997 294.061 300.949C295.107 301.948 291.92 305.088 291.016 306.278C289.446 308.276 284.735 314.366 284.735 314.366C284.735 314.366 288.922 310.417 290.302 309.132C290.921 308.561 292.729 306.944 293.252 307.562C293.966 308.371 291.682 310.75 290.968 311.606L285.306 318.838C284.83 319.409 284.307 319.933 283.736 320.409L274.125 330.02L261.374 317.316Z" fill="#FDAE97"/>
<path d="M185.676 294.811L207.801 304.803L204.756 394.727L141.809 395.678L132.293 303.185L163.029 293.193L185.676 294.811Z" fill="#E5F0F8"/>
<path d="M185.629 281.822V295.858C185.629 295.858 184.773 298.903 177.636 298.903C170.499 298.903 162.981 294.192 162.981 294.192L165.17 263.504L185.629 281.822Z" fill="#FDAE97"/>
<path d="M185.676 293.955L171.069 278.825L185.676 278.635V293.955Z" fill="#E89780"/>
<path d="M191.623 253.608C191.623 253.608 191.623 262.22 191.623 268.31V273.353C191.623 277.35 190.482 283.25 186.009 284.629C181.537 286.009 175.351 284.154 171.069 279.491C166.787 274.828 157.224 253.751 170.498 245.948C183.773 238.145 191.338 251.514 191.623 253.608Z" fill="#FDAE97"/>
<path d="M221.646 376.647C226.309 380.501 233.065 380.311 237.537 376.504L276.885 330.971L271.461 325.262L261.517 314.747L260.375 313.51L219.838 359.138C215.556 364.467 216.365 372.317 221.646 376.647Z" fill="#15234A"/>
<path d="M236.205 377.218C229.258 381.167 220.409 378.693 216.46 371.794L190.339 325.785C186.39 318.839 188.864 309.989 195.763 306.04C202.709 302.091 211.559 304.565 215.508 311.464L241.629 357.473C245.578 364.419 243.151 373.316 236.205 377.218Z" fill="#15234A"/>
<path d="M171.879 245.186C171.879 245.186 187.913 237.764 191.624 242.665C195.335 247.518 189.15 249.231 189.15 249.231C189.15 249.231 196.81 248.327 196.525 253.465C196.239 258.604 177.065 251.562 177.065 251.562C177.065 251.562 183.393 254.417 179.729 256.7C176.066 258.984 171.879 255.987 171.879 255.987C171.879 255.987 168.215 258.08 168.834 267.644C169.452 277.207 163.743 279.3 163.743 279.3C163.743 279.3 164.409 264.789 161.649 260.935C158.795 257.129 162.934 242.76 171.879 245.186Z" fill="#322A28"/>
<path d="M169.737 269.927C171.307 272.354 171.688 274.067 169.785 275.304C167.882 276.541 164.694 276.16 163.124 273.686C161.554 271.26 161.839 268.262 163.79 267.073C165.693 265.836 168.167 267.453 169.737 269.927Z" fill="#FDAE97"/>
<path d="M164.741 269.737C164.741 269.737 166.692 269.452 168.072 271.973C168.072 271.973 166.835 271.688 165.312 271.973" stroke="#E89780" stroke-width="0.7413" stroke-miterlimit="10"/>
<path d="M118.638 382.499C110.93 380.5 106.267 372.555 108.265 364.847L121.54 313.604C123.538 305.897 131.484 301.234 139.192 303.232C146.899 305.23 151.562 313.176 149.564 320.884L136.289 372.126C134.291 379.834 126.345 384.497 118.638 382.499Z" fill="#15234A"/>
<path d="M181.442 270.926C181.156 271.783 179.539 272.021 177.874 271.45C176.161 270.879 175.066 269.737 175.352 268.88C175.637 268.024 177.255 267.786 178.92 268.357C180.585 268.928 181.727 270.07 181.442 270.926Z" fill="#FDAE97"/>
<path d="M191.624 268.31V271.593C190.244 271.735 189.102 271.355 188.912 270.641C188.721 269.785 189.911 268.738 191.624 268.31Z" fill="#FDAE97"/>
<path d="M181.584 301.425H176.446L176.018 302.424L178.349 304.184H180.395L182.06 302.138L181.584 301.425Z" fill="#15234A"/>
<path d="M163.076 293.003L179.205 298.95L176.255 305.659L162.362 294.478L163.076 293.003Z" fill="white"/>
<path d="M185.628 294.669L186.437 296.239L182.25 305.041L179.205 298.951L185.628 294.669Z" fill="white"/>
<path d="M180.395 304.185L188.007 363.373L182.06 371.033L174.305 364.086L178.349 304.185H180.395Z" fill="#15234A"/>
<path d="M146.614 333.351L138.145 368.369" stroke="#2C3447" stroke-width="0.9281" stroke-miterlimit="10"/>
<path d="M206.135 354.618L206.848 333.351" stroke="#2C3447" stroke-width="0.9281" stroke-miterlimit="10"/>
<path d="M188.008 295.905C188.008 295.905 189.53 311.749 191.957 335.634C194.431 359.566 194.241 396.868 201.948 404.052C201.948 404.052 209.894 404.623 226.023 409.381C226.023 409.381 221.503 394.251 215.984 385.687C210.465 377.122 207.753 304.803 207.753 304.803L188.008 295.905Z" fill="#15234A"/>
<path d="M189.292 309.275L191.148 327.926L185.2 322.883L185.628 309.656L189.292 309.275Z" fill="#E5F0F8"/>
<path d="M157.51 294.954C157.51 294.954 163.457 320.599 166.359 344.389C169.261 368.178 168.262 391.159 175.78 405.147C175.78 405.147 145.71 410.571 145.805 422.656C145.805 422.656 137.336 413.33 137.241 400.532C137.146 387.733 132.245 303.185 132.245 303.185L157.51 294.954Z" fill="#15234A"/>
<path d="M180.395 392.205L170.309 409.524L170.356 409.571C174.971 411.998 184.677 421.323 188.198 424.749C189.007 425.51 190.149 425.701 191.148 425.225L200.664 420.8C202.186 420.134 203.281 418.802 203.757 417.279L205.85 410.523C206.04 409.857 205.422 409.191 204.756 409.381L199.332 410.904C198.57 411.094 197.714 410.761 197.381 410L194.288 403.624L203.043 408.81C203.566 409.096 204.185 409 204.565 408.477L205.041 407.763C205.374 407.288 205.327 406.621 204.851 406.193L190.958 394.917L180.776 392.491C180.824 392.538 180.681 392.443 180.395 392.205Z" fill="#FDAE97"/>
<path d="M110.501 362.801C106.219 369.224 107.409 377.598 113.118 381.309L169.547 413.663L183.535 389.588L131.198 357.234C125.536 353.523 114.783 356.378 110.501 362.801Z" fill="#15234A"/>
<path fill-rule="evenodd" clip-rule="evenodd" d="M139.7 361.681L146.226 337.813L144.908 337.452L138.112 362.305L169.282 381.605L170.002 380.443L139.7 361.681Z" fill="#041136"/>
<path d="M163.421 460.769H170.034V547.981H163.421V460.769Z" fill="#BBDBF3"/>
<path d="M150.194 542.223H183.214V547.98H150.194V542.223Z" fill="#BBDBF3"/>
<path d="M157.14 459.483H176.267V465.145H157.14V459.483Z" fill="#BBDBF3"/>
<path d="M126.262 559.019C127.499 559.019 128.498 558.02 128.498 556.783V554.308C128.498 553.071 127.499 552.072 126.262 552.072C125.025 552.072 124.026 553.071 124.026 554.308V556.783C124.073 558.02 125.072 559.019 126.262 559.019Z" fill="#BBDBF3"/>
<path d="M150.241 542.223L126.261 552.12L150.241 547.98V542.223Z" fill="#BBDBF3"/>
<path d="M106.085 559.782H99.9951L99.9951 399.679H106.085L106.085 559.782Z" fill="#93ACBF"/>
<path d="M117.126 424.751C117.126 424.751 194.014 415.045 209.667 429.08C223.418 441.403 212.57 459.293 212.57 459.293L136.634 459.531L117.126 424.751Z" fill="#BBDBF3"/>
<path d="M178.33 559.782H172.24L172.24 399.679H178.33L178.33 559.782Z" fill="#93ACBF"/>
<path d="M352.453 559.782H346.363V399.679H352.453V559.782Z" fill="#586773"/>
<path d="M243.353 378.41H328.091C329.757 378.41 331.184 377.125 331.279 375.412L334.8 323.123C334.943 321.267 333.468 319.697 331.612 319.697H246.874C245.209 319.697 243.782 320.982 243.686 322.695L240.166 374.984C240.023 376.84 241.498 378.41 243.353 378.41Z" fill="#BBDBF3"/>
<path d="M240.784 377.078L243.116 379.361L247.255 373.081L241.355 372.558L240.784 377.078Z" fill="#BBDBF3"/>
<path d="M333.563 320.411L335.656 322.362L331.279 325.359L328.377 322.267L331.66 320.411H333.563Z" fill="#BBDBF3"/>
<path d="M245.257 380.17H329.995C331.66 380.17 333.087 378.886 333.183 377.173L336.703 324.884C336.846 323.028 335.371 321.458 333.516 321.458H248.778C247.112 321.458 245.685 322.743 245.59 324.455L242.069 376.745C241.926 378.6 243.401 380.17 245.257 380.17Z" fill="#93ACBF"/>
<path d="M279.656 367.561L282.178 392.207H302.589L298.64 353.906H280.893L279.656 367.561Z" fill="#93ACBF"/>
<path d="M284.843 392.207H305.254L301.305 353.906H280.894L284.843 392.207Z" fill="#BBDBF3"/>
<path d="M266.762 397.203H311.962V394.491C311.962 393.254 310.963 392.255 309.726 392.255H269.046C267.809 392.255 266.81 393.254 266.81 394.491V397.203H266.762Z" fill="#93ACBF"/>
<path d="M274.756 397.203H319.956V394.491C319.956 393.254 318.957 392.255 317.72 392.255H277.04C275.803 392.255 274.804 393.254 274.804 394.491V397.203H274.756Z" fill="#BBDBF3"/>
<path d="M360.581 403.737H146.429V397.171H360.581V403.737Z" fill="#586773"/>
<path d="M180.408 403.737H91.626V397.171H180.408V403.737Z" fill="#93ACBF"/>
<path d="M257.246 397.203H194.347V395.157C194.347 394.301 195.06 393.587 195.917 393.587H255.676C256.532 393.587 257.246 394.301 257.246 395.157V397.203Z" fill="#93ACBF"/>
<path d="M402.491 535.031H376.117C373.115 535.031 370.669 532.552 370.669 529.507V526.556C370.638 523.48 373.084 521 376.117 521H402.522V535.031H402.491Z" fill="#15234A"/>
<path d="M451.277 523.323H395.619V521H451.277C451.772 521 452.174 521.408 452.174 521.91V522.413C452.174 522.915 451.772 523.323 451.277 523.323Z" fill="#15234A"/>
<path d="M451.277 535.031H395.619V532.708H451.277C451.772 532.708 452.174 533.117 452.174 533.619V534.121C452.174 534.623 451.772 535.031 451.277 535.031Z" fill="#15234A"/>
<path d="M450.503 532.709H401.935C399.365 532.709 397.322 530.606 397.322 528.032C397.322 525.426 399.396 523.354 401.935 523.354H450.503C449.203 526.462 449.203 529.601 450.503 532.709Z" fill="#F5F5F5"/>
<path opacity="0.3" d="M397.291 535.031H376.211C373.146 535.031 370.639 532.489 370.639 529.381V526.587C370.639 523.511 373.115 521 376.18 521H397.817C392.803 524.076 393.174 531.453 397.291 535.031Z" fill="black"/>
<path d="M444.591 528.471C444.591 528.502 434.623 528.565 422.334 528.565C410.045 528.565 400.077 528.533 400.077 528.471C400.077 528.439 410.045 528.376 422.334 528.376C434.623 528.376 444.591 528.408 444.591 528.471Z" fill="#263238"/>
<path d="M449.172 530.542C449.172 530.574 439.204 530.637 426.915 530.637C414.626 530.637 404.658 530.605 404.658 530.542C404.658 530.511 414.626 530.448 426.915 530.448C439.204 530.448 449.172 530.511 449.172 530.542Z" fill="#263238"/>
<path d="M447.81 525.489C447.81 525.52 437.843 525.583 425.554 525.583C413.264 525.583 403.297 525.551 403.297 525.489C403.297 525.457 413.264 525.395 425.554 525.395C437.843 525.426 447.81 525.457 447.81 525.489Z" fill="#263238"/>
<path d="M394.845 534.059C394.845 534.09 390.171 534.153 384.413 534.153C378.656 534.153 373.981 534.121 373.981 534.059C373.981 534.027 378.656 533.964 384.413 533.964C390.202 533.964 394.845 534.027 394.845 534.059Z" fill="#263238"/>
<path d="M394.846 522.162C394.846 522.193 390.171 522.256 384.414 522.256C378.687 522.256 374.013 522.224 374.013 522.162C374.013 522.13 378.687 522.067 384.445 522.067C390.202 522.067 394.846 522.13 394.846 522.162Z" fill="#263238"/>
<path d="M400.016 563H364.448C361.445 563 359 560.52 359 557.475V550.444C359 547.368 361.445 544.888 364.448 544.888H400.016V563Z" fill="#15234A"/>
<path d="M463.103 547.901H391.132V544.888H463.072C463.567 544.888 463.969 545.296 463.969 545.798V546.959C464 547.493 463.598 547.901 463.103 547.901Z" fill="#15234A"/>
<path d="M463.103 563H391.132V559.986H463.072C463.567 559.986 463.969 560.394 463.969 560.897V562.058C464 562.592 463.598 563 463.103 563Z" fill="#15234A"/>
<path d="M461.833 559.986H399.272C395.991 559.986 393.329 557.287 393.329 553.96C393.329 550.632 395.991 547.933 399.272 547.933H461.833C460.13 551.919 460.13 555.968 461.833 559.986Z" fill="#F5F5F5"/>
<path opacity="0.3" d="M393.298 563H364.386C361.415 563 359 560.551 359 557.506V550.569C359 547.43 361.507 544.919 364.572 544.919H393.979C387.541 548.874 388.005 558.385 393.298 563Z" fill="black"/>
<path d="M454.218 554.493C454.218 554.524 441.371 554.587 425.553 554.587C409.704 554.587 396.889 554.556 396.889 554.493C396.889 554.462 409.735 554.399 425.553 554.399C441.371 554.43 454.218 554.462 454.218 554.493Z" fill="#263238"/>
<path d="M460.131 557.193C460.131 557.224 447.284 557.287 431.466 557.287C415.617 557.287 402.802 557.256 402.802 557.193C402.802 557.161 415.648 557.099 431.466 557.099C447.284 557.099 460.131 557.161 460.131 557.193Z" fill="#263238"/>
<path d="M458.397 552.013C458.397 552.045 445.551 552.107 429.733 552.107C413.884 552.107 401.068 552.076 401.068 552.013C401.068 551.982 413.915 551.919 429.733 551.919C445.551 551.919 458.397 551.982 458.397 552.013Z" fill="#263238"/>
<path d="M390.172 561.713C390.172 561.744 384.167 561.807 376.737 561.807C369.308 561.807 363.303 561.776 363.303 561.713C363.303 561.681 369.308 561.619 376.737 561.619C384.167 561.65 390.172 561.681 390.172 561.713Z" fill="#263238"/>
<path d="M390.172 546.394C390.172 546.426 384.167 546.489 376.737 546.489C369.308 546.489 363.303 546.457 363.303 546.394C363.303 546.363 369.308 546.3 376.737 546.3C384.167 546.332 390.172 546.363 390.172 546.394Z" fill="#263238"/>
<path d="M410.664 544.982H381.381C379.152 544.982 377.356 543.162 377.356 540.902V538.704C377.356 536.444 379.152 534.624 381.381 534.624H410.695V544.982H410.664Z" fill="#3056BD"/>
<path d="M461.709 537.041H403.451V534.592H461.709C462.235 534.592 462.668 535.032 462.668 535.565V536.068C462.637 536.633 462.235 537.041 461.709 537.041Z" fill="#3056BD"/>
<path d="M461.709 544.982H403.451V542.534H461.709C462.235 542.534 462.668 542.973 462.668 543.507V544.009C462.637 544.543 462.235 544.982 461.709 544.982Z" fill="#3056BD"/>
<path d="M460.874 542.534H407.94C406.454 542.534 405.247 541.309 405.247 539.803C405.247 538.296 406.454 537.072 407.94 537.072H460.905C459.512 538.892 459.512 540.713 460.874 542.534Z" fill="#F5F5F5"/>
<path d="M405.216 544.982H381.38C379.152 544.982 377.325 543.13 377.325 540.87V538.83C377.325 536.507 379.183 534.624 381.473 534.624H405.773C400.542 536.884 400.913 542.314 405.216 544.982Z" fill="#476CD2"/>
<path d="M454.713 539.363C454.713 539.395 444.281 539.457 431.404 539.457C418.527 539.457 408.095 539.426 408.095 539.363C408.095 539.332 418.527 539.269 431.404 539.269C444.281 539.269 454.713 539.3 454.713 539.363Z" fill="#263238"/>
<path d="M459.511 540.839C459.511 540.87 449.079 540.933 436.202 540.933C423.324 540.933 412.893 540.902 412.893 540.839C412.893 540.807 423.324 540.745 436.202 540.745C449.079 540.745 459.511 540.776 459.511 540.839Z" fill="#263238"/>
<path d="M402.677 543.946C402.677 543.978 397.786 544.04 391.781 544.04C385.745 544.04 380.885 544.009 380.885 543.946C380.885 543.915 385.776 543.852 391.781 543.852C397.786 543.852 402.677 543.883 402.677 543.946Z" fill="#263238"/>
<path d="M402.677 535.848C402.677 535.879 397.786 535.942 391.781 535.942C385.745 535.942 380.885 535.91 380.885 535.848C380.885 535.816 385.776 535.753 391.781 535.753C397.786 535.753 402.677 535.785 402.677 535.848Z" fill="#263238"/>
<path d="M461.957 534.623C461.957 534.655 444.034 534.718 421.963 534.718C399.861 534.718 381.969 534.686 381.969 534.623C381.969 534.592 399.892 534.529 421.963 534.529C444.034 534.529 461.957 534.561 461.957 534.623Z" fill="#476CD2"/>
<path d="M429.825 525.332V530.982L431.744 529.727L433.911 530.982V525.332H429.825Z" fill="#15234A"/>
<defs>
<filter id="filter0_d_2_10253" x="201" y="0" width="346" height="342" filterUnits="userSpaceOnUse" color-interpolation-filters="sRGB">
<feFlood flood-opacity="0" result="BackgroundImageFix"/>
<feColorMatrix in="SourceAlpha" type="matrix" values="0 0 0 0 0 0 0 0 0 0 0 0 0 0 0 0 0 0 127 0" result="hardAlpha"/>
<feOffset dx="10" dy="11"/>
<feGaussianBlur stdDeviation="15"/>
<feComposite in2="hardAlpha" operator="out"/>
<feColorMatrix type="matrix" values="0 0 0 0 0 0 0 0 0 0 0 0 0 0 0 0 0 0 0.18 0"/>
<feBlend mode="normal" in2="BackgroundImageFix" result="effect1_dropShadow_2_10253"/>
<feBlend mode="normal" in="SourceGraphic" in2="effect1_dropShadow_2_10253" result="shape"/>
</filter>
<filter id="filter1_d_2_10253" x="505" y="113" width="126.146" height="142.075" filterUnits="userSpaceOnUse" color-interpolation-filters="sRGB">
<feFlood flood-opacity="0" result="BackgroundImageFix"/>
<feColorMatrix in="SourceAlpha" type="matrix" values="0 0 0 0 0 0 0 0 0 0 0 0 0 0 0 0 0 0 127 0" result="hardAlpha"/>
<feOffset dy="5"/>
<feGaussianBlur stdDeviation="10"/>
<feComposite in2="hardAlpha" operator="out"/>
<feColorMatrix type="matrix" values="0 0 0 0 0 0 0 0 0 0 0 0 0 0 0 0 0 0 0.16 0"/>
<feBlend mode="normal" in2="BackgroundImageFix" result="effect1_dropShadow_2_10253"/>
<feBlend mode="normal" in="SourceGraphic" in2="effect1_dropShadow_2_10253" result="shape"/>
</filter>
</defs>
</svg>
