<svg width="710" height="390" viewBox="0 0 710 390" fill="none" xmlns="http://www.w3.org/2000/svg">
<g filter="url(#filter0_d_2_21465)">
<rect x="65" y="30" width="580" height="260" rx="20" fill="#476CD2"/>
</g>
<mask id="mask0_2_21465" style="mask-type:alpha" maskUnits="userSpaceOnUse" x="293" y="30" width="352" height="260">
<rect x="293" y="30" width="352" height="260" rx="20" fill="#476CD2"/>
</mask>
<g mask="url(#mask0_2_21465)">
<path opacity="0.66" d="M483.128 159.481C413.241 171.112 329.34 254.121 317.037 288.441V303.001H677.164V29.4814H597.546C574.698 90.4948 567.492 145.441 483.128 159.481Z" fill="white"/>
</g>
<path d="M413.355 243.441H409.748V243.613H413.355V243.441Z" fill="#EBEBEB"/>
<path d="M532.626 75.3862H531.596V155.777H532.626V75.3862Z" fill="#BBBBBB"/>
<path d="M596.812 75.3862H595.781V155.777H596.812V75.3862Z" fill="#BBBBBB"/>
<path d="M600.82 80.4261H527.587L526.041 76.8188H602.366L600.82 80.4261Z" fill="#EBEBEB"/>
<path d="M600.82 85.4076H527.587L526.041 81.8003H602.366L600.82 85.4076Z" fill="#EBEBEB"/>
<path d="M600.82 90.3314H527.587L526.041 86.7241H602.366L600.82 90.3314Z" fill="#EBEBEB"/>
<path d="M600.82 95.3128H527.587L526.041 91.7056H602.366L600.82 95.3128Z" fill="#EBEBEB"/>
<path d="M600.82 100.237H527.587L526.041 96.6294H602.366L600.82 100.237Z" fill="#EBEBEB"/>
<path d="M600.82 105.219H527.587L526.041 101.612H602.366L600.82 105.219Z" fill="#EBEBEB"/>
<path d="M600.82 110.143H527.587L526.041 106.536H602.366L600.82 110.143Z" fill="#EBEBEB"/>
<path d="M600.82 115.124H527.587L526.041 111.517H602.366L600.82 115.124Z" fill="#EBEBEB"/>
<path d="M600.82 120.048H527.587L526.041 116.441H602.366L600.82 120.048Z" fill="#EBEBEB"/>
<path d="M600.82 124.973H527.587L526.041 121.366H602.366L600.82 124.973Z" fill="#EBEBEB"/>
<path d="M600.82 129.953H527.587L526.041 126.346H602.366L600.82 129.953Z" fill="#EBEBEB"/>
<path d="M600.82 134.878H527.587L526.041 131.271H602.366L600.82 134.878Z" fill="#EBEBEB"/>
<path d="M600.82 139.86H527.587L526.041 136.252H602.366L600.82 139.86Z" fill="#EBEBEB"/>
<path d="M600.82 144.784H527.587L526.041 141.176H602.366L600.82 144.784Z" fill="#EBEBEB"/>
<path d="M600.82 149.765H527.587L526.041 146.158H602.366L600.82 149.765Z" fill="#EBEBEB"/>
<path d="M600.82 154.69H527.587L526.041 151.083H602.366L600.82 154.69Z" fill="#EBEBEB"/>
<path d="M602.424 154.69H526.041V156.751H602.424V154.69Z" fill="#BBBBBB"/>
<path d="M605 72.2944H523.35V77.1041H605V72.2944Z" fill="#BBBBBB"/>
<path d="M524.208 120.736C523.75 120.736 523.35 120.392 523.35 119.877V91.8201C523.35 91.362 523.693 90.9612 524.208 90.9612C524.667 90.9612 525.067 91.3047 525.067 91.8201V119.877C525.067 120.335 524.667 120.736 524.208 120.736Z" fill="#BBBBBB"/>
<path d="M524.494 76.1313H523.922V92.7935H524.494V76.1313Z" fill="#BBBBBB"/>
<path d="M474.737 71.4939H380.947V128.638H474.737V71.4939Z" fill="#C2C2C2"/>
<path d="M475.48 71.436H474.793V128.58H475.48V71.436Z" fill="#E0E0E0"/>
<path d="M384.383 73.9556H383.811V125.374H384.383V73.9556Z" fill="#E0E0E0"/>
<path d="M471.703 73.9556H383.754V125.374H471.703V73.9556Z" fill="white"/>
<path d="M443.301 91.0757H436.029V101.497H443.301V91.0757Z" fill="#F5F5F5"/>
<path d="M395.262 107.624H387.99V118.045H395.262V107.624Z" fill="#F5F5F5"/>
<path d="M394.518 85.8657H387.246V93.1375H394.518V85.8657Z" fill="#F5F5F5"/>
<path d="M430.59 110.945H423.318V118.217H430.59V110.945Z" fill="#F5F5F5"/>
<path d="M466.149 91.9927H447.598V118.103H466.149V91.9927Z" fill="#F5F5F5"/>
<path d="M463.515 95.771H450.174V96.0573H463.515V95.771Z" fill="#E0E0E0"/>
<path d="M456.987 96.0571H456.701V115.353H456.987V96.0571Z" fill="#E0E0E0"/>
<path d="M463.114 96.0571H462.828V115.353H463.114V96.0571Z" fill="#E0E0E0"/>
<path d="M451.548 96.0571H451.262V115.353H451.548V96.0571Z" fill="#E0E0E0"/>
<path d="M450.575 96.0571H450.289V115.353H450.575V96.0571Z" fill="#E0E0E0"/>
<path d="M462.827 97.0884H450.459V97.3747H462.827V97.0884Z" fill="#E0E0E0"/>
<path d="M417.408 84.1351V86.5972H423.134V84.1351H417.408Z" fill="#F5F5F5"/>
<path d="M418.508 102.562V104.452H424.234V102.562H418.508Z" fill="#F5F5F5"/>
<path d="M419.425 83.3452H400.873V109.455H419.425V83.3452Z" fill="#F0F0F0"/>
<path d="M417.244 106.816V108.706H422.97V106.816H417.244Z" fill="#F5F5F5"/>
<path d="M418.229 89.3571V91.2466H423.954V89.3571H418.229Z" fill="#F5F5F5"/>
<path d="M416.939 94.0963V95.9858H422.665V94.0963H416.939Z" fill="#F5F5F5"/>
<path d="M415.76 86.5522H403.105V88.7853H415.76V86.5522Z" fill="#E6E6E6"/>
<path d="M415.931 96.1141H403.277L403.105 95.0835H415.76L415.931 96.1141Z" fill="#E6E6E6"/>
<path d="M407.572 91.0171H403.105V93.2502H407.572V91.0171Z" fill="#E6E6E6"/>
<path d="M511.216 70.0255C512.25 63.6576 507.926 57.6576 501.558 56.6242C495.19 55.5907 489.19 59.9151 488.156 66.283C487.123 72.6508 491.447 78.6508 497.815 79.6842C504.183 80.7177 510.183 76.3933 511.216 70.0255Z" fill="#AAAAAA"/>
<path opacity="0.8" d="M499.529 77.5635C504.715 77.5635 508.919 73.3593 508.919 68.1731C508.919 62.9869 504.715 58.7827 499.529 58.7827C494.343 58.7827 490.139 62.9869 490.139 68.1731C490.139 73.3593 494.343 77.5635 499.529 77.5635Z" fill="white"/>
<path d="M500.445 68.9739C500.445 69.4892 500.044 69.9473 499.471 69.9473C498.956 69.9473 498.498 69.5465 498.498 68.9739C498.498 68.4586 498.899 68.0005 499.471 68.0005C500.044 68.0005 500.445 68.4013 500.445 68.9739Z" fill="#BBBBBB"/>
<path d="M499.413 69.3167L495.348 65.4803L495.748 65.0795L499.413 68.515L505.998 62.7319L506.341 63.1327L499.413 69.3167Z" fill="#BBBBBB"/>
<path d="M493.003 264.111C554.319 264.111 604.027 261.214 604.027 257.641C604.027 254.067 554.319 251.17 493.003 251.17C431.686 251.17 381.979 254.067 381.979 257.641C381.979 261.214 431.686 264.111 493.003 264.111Z" fill="#ADB8D2"/>
<path d="M552.896 220.538H571.734C571.734 220.538 567.497 222.255 564.463 223V226.034H560.168V223C557.134 222.255 552.896 220.538 552.896 220.538Z" fill="#263238"/>
<path d="M579.978 212.751C577.401 212.751 576.084 212.751 573.508 212.751C574.252 207.369 574.252 204.62 573.508 199.295C576.084 199.295 577.401 199.295 579.978 199.295C580.665 204.62 580.665 207.369 579.978 212.751Z" fill="#263238"/>
<path d="M565.092 226.034H559.48V248.594H565.092V226.034Z" fill="#263238"/>
<path opacity="0.2" d="M565.092 226.034H559.48V248.594H565.092V226.034Z" fill="white"/>
<path d="M590.686 200.783C581.41 200.783 572.192 200.783 562.916 200.783C559.652 200.783 557.362 198.034 557.877 194.771C559.194 184.75 559.938 177.593 559.996 167.516C559.996 164.596 562.172 162.305 565.092 162.305C572.879 162.305 580.666 162.305 588.453 162.305C591.373 162.305 594.122 164.596 594.58 167.516C595.954 177.536 596.698 184.693 596.87 194.771C596.87 198.034 593.95 200.783 590.686 200.783Z" fill="#889CCA"/>
<path d="M591.945 194.771C591.831 184.636 591.029 177.536 589.712 167.516C589.254 164.596 586.563 162.305 583.586 162.305C577.459 162.305 571.275 162.305 565.148 162.305C562.228 162.305 559.995 164.596 560.052 167.516C559.938 177.65 559.251 184.75 557.934 194.771C557.418 198.034 559.709 200.783 562.973 200.783C570.588 200.783 578.203 200.783 585.819 200.783C589.025 200.783 591.945 198.034 591.945 194.771Z" fill="#889CCA"/>
<path opacity="0.1" d="M591.945 194.771C591.831 184.636 591.029 177.536 589.712 167.516C589.254 164.596 586.563 162.305 583.586 162.305C577.459 162.305 571.275 162.305 565.148 162.305C562.228 162.305 559.995 164.596 560.052 167.516C559.938 177.65 559.251 184.75 557.934 194.771C557.418 198.034 559.709 200.783 562.973 200.783C570.588 200.783 578.203 200.783 585.819 200.783C589.025 200.783 591.945 198.034 591.945 194.771Z" fill="black"/>
<path d="M579.005 251.743C579.005 252.259 578.49 252.66 577.975 252.545C574.94 251.858 565.836 249.968 562.286 249.968C558.736 249.968 549.632 251.858 546.597 252.545C546.082 252.66 545.566 252.259 545.566 251.743C545.566 250.713 546.254 249.854 547.284 249.625C550.834 248.88 558.965 247.22 562.286 247.22C565.607 247.22 573.68 248.88 577.288 249.625C578.261 249.854 579.005 250.713 579.005 251.743Z" fill="#263238"/>
<path d="M575.285 253.977C575.285 255.18 576.259 256.153 577.461 256.153C578.663 256.153 579.637 255.18 579.637 253.977C579.637 252.775 578.663 251.801 577.461 251.801C576.259 251.801 575.285 252.775 575.285 253.977Z" fill="#263238"/>
<path d="M547.686 253.977C547.686 255.18 546.712 256.153 545.51 256.153C544.307 256.153 543.334 255.18 543.334 253.977C543.334 252.775 544.307 251.801 545.51 251.801C546.712 251.801 547.686 252.775 547.686 253.977Z" fill="#263238"/>
<path d="M564.234 253.29C564.234 254.492 563.261 255.465 562.059 255.465C560.856 255.465 559.883 254.492 559.883 253.29C559.883 252.087 560.856 251.114 562.059 251.114C563.261 251.114 564.234 252.087 564.234 253.29Z" fill="#263238"/>
<path d="M570.759 212.293C559.651 212.751 548.486 212.293 537.435 211.091C535.145 210.862 533.312 212.465 533.312 214.755C533.312 214.984 533.312 215.099 533.312 215.328C533.312 217.618 535.145 219.679 537.435 219.908C548.486 221.111 559.651 221.512 570.759 221.111C570.759 217.561 570.759 215.843 570.759 212.293Z" fill="#889CCA"/>
<path opacity="0.2" d="M570.759 212.292C559.651 212.75 548.486 212.292 537.435 211.09C535.145 210.861 533.312 212.464 533.312 214.754C533.312 214.983 533.312 215.098 533.312 215.327C533.312 217.617 535.145 219.678 537.435 219.907C548.486 221.11 559.651 221.511 570.759 221.11C570.759 217.56 570.759 215.842 570.759 212.292Z" fill="black"/>
<path d="M587.423 219.907C581.067 220.48 574.769 220.938 568.413 221.167C566.237 221.224 564.52 219.506 564.52 217.331C564.52 216.93 564.52 216.758 564.52 216.357C564.52 214.181 566.295 212.406 568.413 212.349C574.826 212.12 581.067 211.662 587.423 211.089C589.599 210.86 591.316 212.406 591.316 214.525C591.316 214.926 591.316 215.097 591.316 215.498C591.316 217.674 589.541 219.678 587.423 219.907Z" fill="#889CCA"/>
<path d="M527.3 238.287L522.834 238.574L526.728 225.977L530.392 231.359L527.3 238.287Z" fill="#FFC3BD"/>
<g opacity="0.2">
<path d="M526.785 225.806L525.182 231.188L529.533 233.364L530.507 231.188L526.785 225.806Z" fill="black"/>
</g>
<path d="M527.93 237.258C527.987 237.83 527.93 238.403 527.758 238.976C527.128 241.037 525.296 246.419 525.296 246.419L524.838 246.305C524.838 246.305 525.525 243.556 525.697 242.182C525.869 240.751 525.239 241.838 524.036 242.984C522.834 244.186 520.429 244.93 517.452 244.186C513.959 243.27 512.642 242.697 513.902 242.125C515.161 241.495 517.623 241.609 517.623 241.609C517.623 241.609 522.261 239.834 523.75 234.051C524.094 232.734 524.609 232.906 525.239 233.536C526.67 235.025 528.502 235.998 528.502 235.998C528.273 236.456 527.873 237.086 527.93 237.258Z" fill="#FF8000"/>
<path d="M556.675 243.383L553.583 246.589L548.086 234.565L554.442 236.168L556.675 243.383Z" fill="#FFC3BD"/>
<g opacity="0.2">
<path d="M548.029 234.394L550.377 239.49L555.072 238.23L554.385 235.997L548.029 234.394Z" fill="black"/>
</g>
<path d="M556.502 242.238C556.96 242.639 557.304 243.097 557.533 243.613C558.392 245.559 560.625 250.827 560.625 250.827L560.224 251.056C560.224 251.056 558.907 248.537 558.106 247.392C557.304 246.189 557.533 247.392 557.418 249.109C557.304 250.77 555.987 253.003 553.296 254.377C550.089 255.98 548.715 256.496 549.231 255.179C549.803 253.862 551.693 252.316 551.693 252.316C551.693 252.316 553.983 247.907 551.292 242.639C550.662 241.437 551.177 241.208 552.093 241.265C554.155 241.437 556.159 240.921 556.159 240.921C556.216 241.379 556.331 242.124 556.502 242.238Z" fill="#FF8000"/>
<path d="M569.386 212.351H547.056C550.72 214.927 555.014 236.399 555.014 236.399L549.002 238.461C549.002 238.461 547.285 234.739 544.078 225.978C542.418 221.512 540.471 216.989 539.326 212.522C538.982 211.148 538.696 209.717 538.524 208.343C538.467 208.114 538.467 207.942 538.467 207.713C538.467 207.598 538.467 207.426 538.467 207.312C538.467 207.197 538.467 207.083 538.467 206.968V206.911C538.467 206.797 538.467 206.739 538.524 206.625V206.568C538.524 206.453 538.581 206.396 538.581 206.281C538.581 206.281 538.581 206.281 538.581 206.224C538.639 206.11 538.639 205.995 538.696 205.938V205.88C538.753 205.766 538.81 205.651 538.81 205.594C538.81 205.594 538.81 205.537 538.868 205.537C538.925 205.422 538.982 205.365 539.039 205.251C539.154 205.022 539.268 204.85 539.44 204.678L539.497 204.621C539.555 204.564 539.669 204.449 539.726 204.335C539.898 204.163 540.07 203.991 540.299 203.819C540.299 203.819 540.299 203.819 540.356 203.819C540.471 203.762 540.585 203.647 540.7 203.533C540.814 203.476 540.929 203.361 541.043 203.304L541.444 203.075C541.731 202.903 541.96 202.789 542.246 202.617C542.246 202.617 542.246 202.617 542.303 202.617C542.532 202.502 542.818 202.388 543.047 202.273L543.334 202.159C543.334 202.159 543.334 202.159 543.391 202.159C545.91 202.96 550.491 205.079 555.358 207.14C560.912 209.488 566.924 211.893 570.761 212.351C570.245 212.351 569.844 212.351 569.386 212.351Z" fill="#407BFF"/>
<path opacity="0.4" d="M569.386 212.351H547.056C550.72 214.927 555.014 236.399 555.014 236.399L549.002 238.461C549.002 238.461 547.285 234.739 544.078 225.978C542.418 221.512 540.471 216.989 539.326 212.522C538.982 211.148 538.696 209.717 538.524 208.343C538.467 208.114 538.467 207.942 538.467 207.713C538.467 207.598 538.467 207.426 538.467 207.312C538.467 207.197 538.467 207.083 538.467 206.968V206.911C538.467 206.797 538.467 206.739 538.524 206.625V206.568C538.524 206.453 538.581 206.396 538.581 206.281C538.581 206.281 538.581 206.281 538.581 206.224C538.639 206.11 538.639 205.995 538.696 205.938V205.88C538.753 205.766 538.81 205.651 538.81 205.594C538.81 205.594 538.81 205.537 538.868 205.537C538.925 205.422 538.982 205.365 539.039 205.251C539.154 205.022 539.268 204.85 539.44 204.678L539.497 204.621C539.555 204.564 539.669 204.449 539.726 204.335C539.898 204.163 540.07 203.991 540.299 203.819C540.299 203.819 540.299 203.819 540.356 203.819C540.471 203.762 540.585 203.647 540.7 203.533C540.814 203.476 540.929 203.361 541.043 203.304L541.444 203.075C541.731 202.903 541.96 202.789 542.246 202.617C542.246 202.617 542.246 202.617 542.303 202.617C542.532 202.502 542.818 202.388 543.047 202.273L543.334 202.159C543.334 202.159 543.334 202.159 543.391 202.159C545.91 202.96 550.491 205.079 555.358 207.14C560.912 209.488 566.924 211.893 570.761 212.351C570.245 212.351 569.844 212.351 569.386 212.351Z" fill="#305ECC"/>
<path d="M570.647 212.292C566.811 211.777 560.798 209.43 555.244 207.082C550.32 204.963 545.739 202.902 543.277 202.1C550.721 198.951 564.005 199.066 564.005 199.066C564.005 199.066 567.44 195.802 571.277 195C571.792 194.886 572.307 194.829 572.823 194.829C572.88 194.886 572.88 194.943 572.937 195C579.522 203.818 577.117 211.434 570.647 212.292Z" fill="#407BFF"/>
<path d="M545.395 182.919C548.658 185.897 555.014 178.854 556.045 178.052C558.22 176.277 564.691 170.208 564.347 168.147C563.316 161.963 553.182 170.723 550.261 176.735L545.395 182.919Z" fill="#FF8000"/>
<path d="M573.796 164.368C575.4 164.711 577.175 164.139 578.32 165.341C579.465 166.543 579.923 168.261 580.095 169.922C580.324 172.212 580.038 174.56 579.751 176.85C579.408 179.656 579.007 182.404 578.663 185.21C578.434 187.099 578.549 190.191 578.95 192.081C579.064 192.539 578.778 193.111 578.32 193.283C578.32 193.283 565.666 193.741 562.001 193.569C560.054 193.512 561.371 188.359 560.799 185.381C560.684 184.694 559.367 181.946 559.138 181.259C558.222 177.938 558.852 175.648 559.654 172.327C560.283 169.922 560.512 166.429 561.772 166.143C564.005 165.685 569.273 163.451 573.796 164.368Z" fill="#FF8000"/>
<path d="M575.571 166.772C575.743 166.543 580.209 162.764 581.011 167.116C582.156 173.128 579.808 179.025 579.808 179.025C579.808 179.025 579.293 185.553 577.403 186.183C575.514 186.812 573.739 186.984 573.052 185.896C572.422 184.808 572.422 183.091 572.422 183.091C572.422 183.091 572.651 171.238 575.571 166.772Z" fill="#FF8000"/>
<path d="M572.536 156.122C572.078 158.87 571.677 163.966 573.681 165.741C573.681 165.741 568.814 168.261 565.665 172.67C563.833 171.238 563.833 169.406 564.176 167.974C564.463 166.886 565.264 166.028 566.238 165.512C568.127 164.482 567.955 162.535 567.44 160.702L572.536 156.122Z" fill="#E8BFBF"/>
<path opacity="0.2" d="M571.905 160.817L570.073 161.504C569.328 161.791 568.47 161.962 567.668 161.905C567.725 162.306 567.897 163.165 567.668 163.623C568.813 164.024 570.531 163.508 571.275 162.478C571.562 162.077 571.733 161.332 571.905 160.817Z" fill="black"/>
<path d="M579.062 193.283L579.578 194.944C579.635 195.058 579.52 195.23 579.291 195.23L560.282 195.803C560.11 195.803 559.995 195.745 559.938 195.631L559.709 193.97C559.709 193.856 559.824 193.741 559.995 193.741L578.719 193.169C578.833 193.169 578.948 193.226 579.062 193.283Z" fill="#407BFF"/>
<path d="M538.982 205.192C539.097 204.963 539.211 204.792 539.383 204.62C539.269 204.849 539.097 205.021 538.982 205.192Z" fill="#407BFF"/>
<path d="M540.243 203.818C540.013 203.99 539.842 204.162 539.67 204.333C539.842 204.162 540.071 203.933 540.243 203.818Z" fill="#407BFF"/>
<path opacity="0.6" d="M538.982 205.192C539.097 204.963 539.211 204.792 539.383 204.62C539.269 204.849 539.097 205.021 538.982 205.192Z" fill="black"/>
<path opacity="0.6" d="M540.243 203.818C540.013 203.99 539.842 204.162 539.67 204.333C539.842 204.162 540.071 203.933 540.243 203.818Z" fill="black"/>
<path d="M546.885 180.973C545.739 180.114 544.766 178.281 544.48 177.136C544.422 176.793 544.365 176.22 544.365 175.533C544.365 172.212 545.339 166.143 545.339 166.143L548.03 165.227C548.03 165.227 548.889 169.864 549.06 172.384C549.118 172.899 549.175 173.472 549.232 174.102C549.347 175.247 549.518 176.449 549.633 177.48L546.885 180.973Z" fill="#E8BFBF"/>
<path d="M545.396 182.919C544.595 182.174 544.423 181.258 544.022 179.312C543.621 177.479 544.079 175.246 544.48 175.532C544.537 175.532 544.537 175.59 544.595 175.704C545.224 177.25 547.801 175.876 548.488 175.132C548.774 174.845 549.118 174.502 549.29 174.158C549.462 173.872 549.519 173.528 549.29 173.242C550.091 172.899 550.721 175.991 550.32 176.735L550.149 177.307C549.862 178.224 549.347 179.082 548.717 179.827L547.286 181.545L545.396 182.919Z" fill="#FF8000"/>
<path d="M548.144 165.685L548.487 160.99C548.487 160.99 547.915 161.276 545.911 161.963C544.594 162.421 542.819 161.62 543.22 162.479C543.85 163.853 545.396 166.143 545.396 166.143L548.144 165.685Z" fill="#E8BFBF"/>
<path d="M548.43 160.989L546.426 156.294L543.792 157.897C543.048 159.443 543.163 162.478 543.163 162.478C543.163 162.478 546.827 162.649 548.43 160.989Z" fill="#E8BFBF"/>
<path d="M562.056 148.22C560.052 151.999 560.51 156.809 562.686 160.588C566.351 158.126 571.618 160.073 575.397 157.782C577.917 156.236 579.062 152.973 578.432 150.11C577.745 147.018 574.367 143.411 571.16 143.067C567.496 142.724 563.774 145.014 562.056 148.22Z" fill="#263238"/>
<path d="M574.424 149.71C573.278 146.675 569.9 145.186 566.865 146.331C562.628 147.935 561.827 154.29 562.628 158.184C563.487 162.536 568.698 163.967 572.076 160.703C574.309 158.528 574.424 156.695 574.767 152.401C574.882 151.485 574.767 150.569 574.424 149.71Z" fill="#E8BFBF"/>
<path d="M565.205 156.694C564.747 156.808 564.346 156.694 563.945 156.408C564.461 155.721 564.919 154.976 565.262 154.175L565.205 156.694Z" fill="#ED893E"/>
<path d="M568.469 157.096C568.526 157.039 568.469 156.982 568.469 156.925C568.412 156.867 568.355 156.925 568.297 156.925C567.725 157.612 566.866 158.013 566.007 157.955C565.95 157.955 565.893 158.013 565.893 158.07C565.893 158.127 565.95 158.184 566.007 158.184C566.179 158.184 566.351 158.184 566.522 158.184C567.267 158.127 567.954 157.726 568.469 157.096Z" fill="#263238"/>
<path d="M568.298 144.671C567.84 145.129 567.497 145.644 567.268 146.274C571.848 148.564 574.196 154.462 574.425 159.615C576.143 158.184 579.235 156.695 580.723 154.863C582.384 152.802 581.525 149.767 579.635 147.992C578.318 146.732 575.627 145.072 574.081 144.098C572.249 143.01 569.844 143.182 568.298 144.671Z" fill="#263238"/>
<path d="M576.027 155.378C576.027 154.577 575.454 153.947 574.653 153.889C573.565 153.889 572.878 155.206 572.706 156.122C572.534 157.153 573.164 158.069 574.195 157.611C574.939 157.268 575.569 156.638 575.855 155.893C575.97 155.722 576.027 155.55 576.027 155.378Z" fill="#E8BFBF"/>
<path d="M568.126 153.03C568.126 153.488 567.897 153.832 567.611 153.832C567.325 153.832 567.096 153.488 567.096 153.088C567.096 152.629 567.325 152.286 567.611 152.286C567.897 152.286 568.126 152.629 568.126 153.03Z" fill="#263238"/>
<path d="M564.117 153.488C564.117 153.946 563.888 154.29 563.601 154.29C563.315 154.29 563.086 153.946 563.086 153.546C563.086 153.087 563.315 152.744 563.601 152.744C563.888 152.744 564.117 153.03 564.117 153.488Z" fill="#263238"/>
<path d="M563.718 152.744L562.688 152.458C562.688 152.458 563.26 153.259 563.718 152.744Z" fill="#263238"/>
<path d="M569.328 151.37C569.385 151.37 569.385 151.37 569.443 151.313C569.5 151.255 569.557 151.084 569.443 151.026C568.927 150.454 568.126 150.167 567.324 150.225C567.21 150.225 567.152 150.339 567.152 150.454C567.152 150.568 567.267 150.626 567.381 150.626C568.011 150.568 568.698 150.797 569.156 151.313C569.214 151.37 569.271 151.427 569.328 151.37Z" fill="#263238"/>
<path d="M562.572 152.114C562.629 152.114 562.629 152.057 562.629 152.057C562.973 151.484 563.603 151.141 564.29 151.141C564.404 151.141 564.519 151.084 564.519 150.969C564.519 150.855 564.404 150.74 564.29 150.74C563.488 150.74 562.744 151.141 562.286 151.828C562.228 151.942 562.228 152.057 562.343 152.114C562.457 152.171 562.515 152.171 562.572 152.114Z" fill="#263238"/>
<path d="M567.724 152.286L566.693 152C566.693 152 567.266 152.801 567.724 152.286Z" fill="#263238"/>
<path d="M561.484 154.29C561.37 156.924 562.572 160.932 564.462 162.821C562.687 163.566 560.339 161.676 559.022 160.302C557.705 158.928 557.19 156.924 557.305 155.034C557.476 153.145 558.278 151.313 559.366 149.767C561.084 147.133 563.66 145.358 566.523 144.041C567.096 143.754 567.955 143.64 568.126 144.27C568.241 144.671 567.897 145.071 567.611 145.358C564.519 148.106 562.172 149.996 561.484 154.29Z" fill="#263238"/>
<path d="M571.848 161.677C571.733 161.62 571.676 161.505 571.733 161.448C574.997 155.149 569.042 148.336 567.152 146.389C567.095 146.332 567.095 146.217 567.152 146.16C567.21 146.103 567.324 146.103 567.381 146.16C569.328 148.164 575.398 155.092 572.019 161.562C572.019 161.677 571.962 161.677 571.848 161.677Z" fill="#263238"/>
<path d="M574.311 157.153L573.566 159.443L574.082 160.131L574.597 159.501L574.311 157.153Z" fill="#407BFF"/>
<path d="M573.967 163.05C573.967 162.878 573.91 162.707 573.91 162.478C573.852 161.504 574.539 160.588 575.513 160.416C575.799 160.359 576.028 160.187 576.143 159.901C576.486 158.87 576.658 158.584 577.002 157.553C577.918 157.324 579.006 157.668 579.979 157.782C580.265 158.928 580.265 160.13 580.036 161.275C579.979 161.504 579.922 161.79 579.75 162.02C579.578 162.191 577.689 163.508 576.887 163.795C576.028 163.966 574.883 163.165 573.967 163.05Z" fill="#E8BFBF"/>
<path d="M576.773 163.738C576.773 163.738 579.292 180 576.715 182.519C575.17 183.95 573.853 183.149 573.051 182.29C572.421 181.603 572.135 180.687 572.249 179.771L574.024 163.108C573.967 163.051 575.742 162.02 576.773 163.738Z" fill="#E8BFBF"/>
<path d="M577.803 211.034C577.116 211.435 576.315 211.721 575.513 211.893C575.284 211.95 575.112 212.007 574.883 212.064C573.967 212.293 572.936 212.351 571.963 212.351C571.677 212.351 571.333 212.351 570.99 212.293C570.875 212.293 570.76 212.293 570.646 212.236C570.531 212.236 570.417 212.179 570.302 212.179C569.959 212.122 569.558 212.064 569.157 211.95C568.756 211.835 568.298 211.778 567.84 211.606C567.669 211.549 567.554 211.549 567.382 211.492C566.81 211.32 566.237 211.148 565.664 210.976C565.435 210.919 565.264 210.862 565.035 210.805C563.889 210.461 562.744 210.003 561.542 209.545C561.37 209.488 561.256 209.43 561.084 209.373C559.538 208.801 557.992 208.114 556.446 207.484C556.045 207.312 555.644 207.14 555.243 206.968C550.319 204.85 545.739 202.788 543.276 201.987C543.276 201.987 543.276 201.987 543.219 201.987L542.933 202.101C542.647 202.216 542.418 202.33 542.189 202.445C542.189 202.445 542.189 202.445 542.131 202.445C541.845 202.617 541.559 202.731 541.33 202.903L540.929 203.132C540.814 203.189 540.7 203.304 540.585 203.361C540.471 203.476 540.356 203.533 540.242 203.647C540.242 203.647 540.242 203.647 540.184 203.647C539.955 203.819 539.784 203.991 539.612 204.163C539.555 204.22 539.44 204.334 539.383 204.449L539.326 204.506C539.154 204.678 539.039 204.907 538.925 205.079C538.868 205.136 538.81 205.251 538.753 205.365C538.753 205.365 538.753 205.422 538.696 205.422C538.638 205.537 538.581 205.651 538.581 205.709V205.766C538.524 205.88 538.524 205.995 538.467 206.052C538.467 206.052 538.467 206.052 538.467 206.109C538.409 206.224 538.409 206.281 538.409 206.396V206.453C538.409 206.568 538.409 206.625 538.352 206.739V206.797C538.352 206.911 538.352 207.026 538.352 207.14C538.352 207.255 538.352 207.426 538.352 207.541C538.352 207.77 538.409 207.942 538.409 208.171C538.581 209.545 538.868 210.976 539.211 212.351C538.409 214.355 537.608 216.301 536.806 218.191C536.52 218.821 536.291 219.451 536.005 220.023C535.088 222.142 534.23 224.089 533.428 225.806C533.313 226.035 533.199 226.322 533.084 226.551C532.741 227.238 532.455 227.925 532.168 228.498C532.054 228.727 531.997 228.898 531.882 229.07C531.481 229.986 531.138 230.731 530.851 231.303C530.794 231.36 530.794 231.475 530.737 231.532C530.68 231.589 530.68 231.704 530.622 231.761C530.622 231.819 530.565 231.876 530.508 231.933C530.279 232.448 530.336 232.277 530.336 232.277L524.896 229.127C524.896 229.127 528.962 214.641 531.653 201.3C532.626 196.261 536.749 192.425 541.845 191.852C552.323 190.65 566.695 194.772 566.695 194.772C566.695 194.772 566.81 194.772 567.039 194.772C567.153 194.772 567.268 194.772 567.382 194.772C567.497 194.772 567.554 194.772 567.669 194.772C568.241 194.772 569.043 194.772 569.959 194.715C570.302 194.715 570.703 194.715 571.047 194.715H571.219C571.505 194.715 571.791 194.715 572.135 194.715C572.306 194.715 572.535 194.715 572.707 194.715C572.822 194.715 572.936 194.715 573.108 194.715C573.28 194.715 573.452 194.715 573.566 194.715C575.398 194.715 577.231 194.658 578.777 194.658C583.93 203.59 582.04 208.801 577.803 211.034Z" fill="#407BFF"/>
<g opacity="0.3">
<path d="M577.803 211.034C577.116 211.435 576.315 211.721 575.513 211.893C575.284 211.95 575.112 212.007 574.883 212.064C573.967 212.293 572.936 212.351 571.963 212.351C571.677 212.351 571.333 212.351 570.99 212.293C570.875 212.293 570.76 212.293 570.646 212.236C570.531 212.236 570.417 212.179 570.302 212.179C569.959 212.122 569.558 212.064 569.157 211.95C568.756 211.835 568.298 211.778 567.84 211.606C567.669 211.549 567.554 211.549 567.382 211.492C566.81 211.32 566.237 211.148 565.664 210.976C565.435 210.919 565.264 210.862 565.035 210.805C563.889 210.461 562.744 210.003 561.542 209.545C561.37 209.488 561.256 209.43 561.084 209.373C559.538 208.801 557.992 208.114 556.446 207.484C556.045 207.312 555.644 207.14 555.243 206.968C550.319 204.85 545.739 202.788 543.276 201.987C543.276 201.987 543.276 201.987 543.219 201.987L542.933 202.101C542.647 202.216 542.418 202.33 542.189 202.445C542.189 202.445 542.189 202.445 542.131 202.445C541.845 202.617 541.559 202.731 541.33 202.903L540.929 203.132C540.814 203.189 540.7 203.304 540.585 203.361C540.471 203.476 540.356 203.533 540.242 203.647C540.242 203.647 540.242 203.647 540.184 203.647C539.955 203.819 539.784 203.991 539.612 204.163C539.555 204.22 539.44 204.334 539.383 204.449L539.326 204.506C539.154 204.678 539.039 204.907 538.925 205.079C538.868 205.136 538.81 205.251 538.753 205.365C538.753 205.365 538.753 205.422 538.696 205.422C538.638 205.537 538.581 205.651 538.581 205.709V205.766C538.524 205.88 538.524 205.995 538.467 206.052C538.467 206.052 538.467 206.052 538.467 206.109C538.409 206.224 538.409 206.281 538.409 206.396V206.453C538.409 206.568 538.409 206.625 538.352 206.739V206.797C538.352 206.911 538.352 207.026 538.352 207.14C538.352 207.255 538.352 207.426 538.352 207.541C538.352 207.77 538.409 207.942 538.409 208.171C538.581 209.545 538.868 210.976 539.211 212.351C538.409 214.355 537.608 216.301 536.806 218.191C536.52 218.821 536.291 219.451 536.005 220.023C535.088 222.142 534.23 224.089 533.428 225.806C533.313 226.035 533.199 226.322 533.084 226.551C532.741 227.238 532.455 227.925 532.168 228.498C532.054 228.727 531.997 228.898 531.882 229.07C531.481 229.986 531.138 230.731 530.851 231.303C530.794 231.36 530.794 231.475 530.737 231.532C530.68 231.589 530.68 231.704 530.622 231.761C530.622 231.819 530.565 231.876 530.508 231.933C530.279 232.448 530.336 232.277 530.336 232.277L524.896 229.127C524.896 229.127 528.962 214.641 531.653 201.3C532.626 196.261 536.749 192.425 541.845 191.852C552.323 190.65 566.695 194.772 566.695 194.772C566.695 194.772 566.81 194.772 567.039 194.772C567.153 194.772 567.268 194.772 567.382 194.772C567.497 194.772 567.554 194.772 567.669 194.772C568.241 194.772 569.043 194.772 569.959 194.715C570.302 194.715 570.703 194.715 571.047 194.715H571.219C571.505 194.715 571.791 194.715 572.135 194.715C572.306 194.715 572.535 194.715 572.707 194.715C572.822 194.715 572.936 194.715 573.108 194.715C573.28 194.715 573.452 194.715 573.566 194.715C575.398 194.715 577.231 194.658 578.777 194.658C583.93 203.59 582.04 208.801 577.803 211.034Z" fill="#476CD2"/>
</g>
<path d="M487.621 228.267H482.238V250.655H487.621V228.267Z" fill="#263238"/>
<path opacity="0.2" d="M487.621 228.267H482.238V250.655H487.621V228.267Z" fill="white"/>
<path d="M486.819 214.068H482.982V228.382H486.819V214.068Z" fill="#263238"/>
<path opacity="0.2" d="M486.819 216.702L482.982 218.133V214.068H486.819V216.702Z" fill="black"/>
<path d="M500.332 253.976C500.332 255.179 501.305 256.152 502.508 256.152C503.71 256.152 504.684 255.179 504.684 253.976C504.684 252.774 503.71 251.8 502.508 251.8C501.305 251.8 500.332 252.774 500.332 253.976Z" fill="#263238"/>
<path d="M468.096 253.976C468.096 255.179 467.122 256.152 465.92 256.152C464.718 256.152 463.744 255.179 463.744 253.976C463.744 252.774 464.718 251.8 465.92 251.8C467.122 251.8 468.096 252.774 468.096 253.976Z" fill="#263238"/>
<path d="M487.106 253.289C487.106 254.491 486.132 255.464 484.93 255.464C483.727 255.464 482.754 254.491 482.754 253.289C482.754 252.086 483.727 251.113 484.93 251.113C486.132 251.113 487.106 252.086 487.106 253.289Z" fill="#263238"/>
<path d="M461.111 251.056C461.226 251.572 461.684 251.915 462.199 251.915L485.045 251.629L506.46 252.087C506.975 252.087 507.434 251.743 507.548 251.228C507.663 250.655 507.262 250.083 506.689 249.968L495.008 247.678C493.806 247.449 492.546 247.334 491.344 247.334H478.747C477.487 247.334 476.285 247.449 475.083 247.678L461.913 249.797C461.398 249.911 460.997 250.484 461.111 251.056Z" fill="#263238"/>
<path d="M460.768 214.01L461.512 214.068C461.283 214.068 461.054 214.068 460.768 214.01Z" fill="#263238"/>
<path d="M491.4 170.264C491.4 170.322 491.4 170.322 491.4 170.379V209.544H456.301V169.978C456.301 169.692 456.301 169.405 456.358 169.062H456.301L456.644 163.565C456.759 162.019 457.389 160.53 458.477 159.385L461.969 155.721L463.802 146.559C464.088 145.128 465.348 144.097 466.779 144.097H474.853C476.169 144.097 477.315 144.956 477.715 146.158L481.094 156.064L487.564 160.072C489.224 161.103 490.312 162.821 490.599 164.71L491.457 170.322L491.4 170.264Z" fill="#666769"/>
<path opacity="0.1" d="M491.4 170.264C491.4 170.322 491.4 170.322 491.4 170.379V209.544H460.996V169.978C460.996 169.692 460.996 169.405 461.053 169.062H460.996L461.34 163.565C461.454 162.019 462.084 160.53 463.172 159.385L466.665 155.721L468.497 146.559C468.783 145.128 470.043 144.097 471.474 144.097H474.853C476.17 144.097 477.315 144.956 477.716 146.158L481.094 156.064L487.564 160.072C489.224 161.103 490.312 162.821 490.599 164.71L491.458 170.322L491.4 170.264Z" fill="black"/>
<path d="M494.434 215.957H475.596C475.596 215.957 479.833 217.674 482.868 218.419V221.453H487.162V218.419C490.197 217.674 494.434 215.957 494.434 215.957Z" fill="#263238"/>
<path d="M476.57 207.712C487.678 208.17 498.844 207.712 509.895 206.51C512.185 206.281 514.017 207.884 514.017 210.174C514.017 210.403 514.017 210.518 514.017 210.747C514.017 213.037 512.185 215.098 509.895 215.327C498.844 216.53 487.678 216.931 476.57 216.53C476.57 212.98 476.57 211.205 476.57 207.712Z" fill="#9E9E9E"/>
<path opacity="0.2" d="M476.57 207.712C487.678 208.17 498.844 207.712 509.895 206.51C512.185 206.281 514.017 207.884 514.017 210.174C514.017 210.403 514.017 210.518 514.017 210.747C514.017 213.037 512.185 215.098 509.895 215.327C498.844 216.53 487.678 216.931 476.57 216.53C476.57 212.98 476.57 211.205 476.57 207.712Z" fill="black"/>
<path d="M459.907 215.327C466.263 215.9 472.561 216.358 478.917 216.587C481.093 216.644 482.811 214.926 482.811 212.75C482.811 212.35 482.811 212.178 482.811 211.777C482.811 209.601 481.036 207.826 478.917 207.769C472.504 207.54 466.263 207.082 459.907 206.509C457.731 206.28 456.014 207.826 456.014 209.945C456.014 210.346 456.014 210.517 456.014 210.918C456.014 213.094 457.731 215.098 459.907 215.327Z" fill="#4D5159"/>
<path d="M512.299 160.531L512.814 162.306L511.784 163.795C511.784 163.795 510.295 165.398 508.062 165.913C507.318 166.085 506.516 165.742 506.058 165.054L505.829 164.711C505.714 164.539 505.657 164.425 505.6 164.253C505.313 163.337 505.543 162.764 506.287 162.134L508.806 159.443C508.978 159.271 512.127 158.699 512.127 158.699C512.585 158.756 512.356 160.187 512.299 160.531Z" fill="#FFB573"/>
<path d="M496.209 171.924C496.209 171.924 503.767 164.08 505.256 163.278L505.771 162.877L508.176 165.912C507.832 166.256 496.667 185.666 492.43 178.394C491.628 177.02 490.884 175.703 490.254 174.329C489.91 173.642 487.792 169.348 487.448 168.603C487.391 168.489 487.277 168.202 487.105 167.859C485.559 164.423 484.986 160.415 488.193 158.068C489.395 157.552 491.342 158.984 491.8 160.816L496.209 171.924Z" fill="#0F1A38"/>
<path d="M521.689 241.265L523.178 250.827H519.17L516.307 241.265H521.689Z" fill="#FFB573"/>
<path d="M523.292 250.199L519.112 250.313C518.94 250.313 518.768 250.428 518.768 250.6C518.425 251.573 518.31 252.604 518.539 253.577C518.711 254.379 518.94 255.123 519.169 255.123C521.058 255.123 526.04 255.18 531.021 255.123C533.083 255.18 533.083 253.004 531.479 253.004C527.586 252.89 525.525 251.516 524.093 250.485C523.921 250.313 523.578 250.199 523.292 250.199Z" fill="#407BFF"/>
<path opacity="0.2" d="M522.433 245.903L521.689 241.265H516.307L517.967 246.876L522.433 245.903Z" fill="black"/>
<path d="M489.852 240.464L486.76 248.481H482.352L484.356 240.579L489.852 240.464Z" fill="#FFB573"/>
<path opacity="0.2" d="M483.441 244.128L484.3 239.777L489.854 240.464L488.48 244.243L483.441 244.128Z" fill="black"/>
<path d="M486.876 247.792L483.154 246.075C483.039 245.96 482.81 245.96 482.696 246.075L479.947 248.537C479.661 248.88 479.776 249.396 480.119 249.682C481.551 250.77 482.524 251.743 484.356 253.175C485.444 254.034 487.563 255.866 489.052 257.068C490.597 258.271 491.685 256.782 491.113 256.152C488.651 253.289 487.792 250.083 487.334 248.48C487.276 248.25 487.105 247.964 486.876 247.792Z" fill="#407BFF"/>
<path d="M493.632 195.458C488.88 182.632 492.029 170.894 491.399 164.367C491.113 161.046 488.651 158.355 485.387 157.725C482.123 157.095 478.173 156.408 474.336 155.893C473.993 155.835 473.592 155.835 473.248 155.835C469.126 155.893 465.805 159.271 465.862 163.394C466.206 182.69 472.39 195.458 472.39 195.458L482.41 195.401L493.632 195.458Z" fill="#407BFF"/>
<path d="M482.81 150.511C482.123 153.145 481.894 156.466 485.616 157.783C486.646 159.443 487.162 161.161 483.211 160.531C480.062 160.13 477.199 158.527 475.252 156.008C477.6 153.946 477.199 147.591 476.569 144.041L482.81 150.511Z" fill="#FFB573"/>
<path d="M496.093 193.568C496.093 193.568 518.996 192.939 519.512 203.302C520.256 218.19 522.775 243.67 522.775 243.67L516.592 245.044C516.592 245.044 507.774 220.079 507.43 208.456C498.212 206.623 484.412 209.372 481.607 203.36C480.232 200.21 479.889 196.832 480.576 193.568H496.093Z" fill="#7B91C7"/>
<path d="M487.275 192.423C487.275 192.423 502.792 194.599 502.048 204.963C501.246 216.3 489.337 242.581 489.337 242.581H483.324C483.324 242.581 487.333 218.705 489.108 207.138C480.748 207.138 475.48 208.226 472.732 202.157C471.357 199.008 471.014 195.629 471.701 192.366L487.275 192.423Z" fill="#8CA4DD"/>
<path d="M488.881 157.954C490.198 159.099 492.316 160.874 492.717 171.638C492.832 175.074 492.316 178.509 492.373 181.945C492.488 185.896 493.461 188.701 494.778 192.423C494.778 193.282 493.461 193.797 492.316 194.027C489.969 188.873 488.48 183.949 488.537 178.28C488.881 157.954 482.525 156.064 482.754 155.32L488.881 157.954Z" fill="#15234A"/>
<path opacity="0.3" d="M479.891 152.457C480.693 152.973 481.666 153.259 482.41 153.087C482.41 152.457 482.468 151.828 482.525 151.14L478.402 147.762C478.288 148.22 478.23 148.621 478.23 149.079C478.23 150.396 478.803 151.713 479.891 152.457Z" fill="black"/>
<path d="M486.016 134.879C490.367 137.341 490.367 144.269 489.05 148.277C488.649 149.48 487.905 150.51 486.932 151.255C484.298 153.259 480.519 152.686 478.515 150.052C476.396 147.361 476.682 144.67 476.797 140.032C476.969 135.337 481.664 132.417 486.016 134.879Z" fill="#FFB573"/>
<path opacity="0.2" d="M485.329 146.56C486.703 147.19 489.337 147.361 489.337 147.361C488.936 149.251 487.906 150.511 486.99 151.198C484.356 153.202 480.577 152.629 478.573 149.995C476.855 147.82 476.282 146.331 476.798 142.323C480.176 144.27 482.294 145.243 485.329 146.56Z" fill="black"/>
<path d="M477.426 143.697C477.483 143.296 477.197 142.895 476.854 142.609C476.51 142.323 476.167 142.094 475.995 141.693C475.823 141.349 475.88 140.949 475.88 140.548C475.938 139.46 476.052 138.372 476.109 137.284C476.281 134.765 480.232 136.253 480.117 138.372C480.06 139.803 479.029 139.861 478.171 140.719C477.254 141.636 477.598 142.494 477.426 143.697Z" fill="#FFB573"/>
<path opacity="0.2" d="M477.426 143.697C477.483 143.296 477.197 142.895 476.854 142.609C476.51 142.323 476.167 142.094 475.995 141.693C475.823 141.349 475.88 140.949 475.88 140.548C475.938 139.46 476.052 138.372 476.109 137.284C476.281 134.765 480.232 136.253 480.117 138.372C480.06 139.803 479.029 139.861 478.171 140.719C477.254 141.636 477.598 142.494 477.426 143.697Z" fill="black"/>
<path d="M476.167 141.808C477.484 142.094 478 143.984 478 145.186C478 146.56 476.969 147.419 475.881 146.618C475.022 145.988 474.45 145.072 474.278 143.984C473.991 142.724 474.85 141.522 476.167 141.808Z" fill="#FFB573"/>
<path d="M483.038 140.376C483.439 139.975 484.412 139.803 484.985 139.861C485.1 139.861 485.214 139.803 485.214 139.689C485.214 139.574 485.157 139.46 485.042 139.402C484.355 139.288 483.21 139.517 482.752 140.032C482.695 140.147 482.695 140.261 482.752 140.319C482.752 140.319 482.809 140.376 482.866 140.376C482.924 140.433 482.981 140.433 483.038 140.376Z" fill="#263238"/>
<path d="M489.45 141.292C489.565 141.235 489.565 141.063 489.507 141.006C489.164 140.376 488.534 139.918 487.79 139.861C487.675 139.861 487.561 139.975 487.561 140.09C487.561 140.204 487.675 140.319 487.79 140.319C488.362 140.433 488.877 140.777 489.107 141.235C489.164 141.292 489.221 141.35 489.278 141.35C489.336 141.35 489.393 141.35 489.45 141.292Z" fill="#263238"/>
<path d="M485.271 148.106C484.756 148.736 483.954 149.995 483.954 149.995C483.84 149.938 483.725 149.938 483.668 149.881C482.294 149.251 481.893 148.449 481.836 147.705C481.836 147.304 481.95 146.903 482.065 146.617C482.179 146.273 482.351 146.044 482.351 146.044C482.867 146.903 484.069 147.59 484.756 147.934C485.1 148.048 485.271 148.106 485.271 148.106Z" fill="#2E353A"/>
<path d="M484.814 147.934L484.642 148.22C484.527 148.392 484.298 148.449 484.126 148.335C483.096 147.877 482.409 147.361 482.18 146.789C482.122 146.674 482.122 146.56 482.18 146.445C482.294 146.216 482.409 146.044 482.409 146.044C482.867 146.903 484.126 147.59 484.814 147.934Z" fill="white"/>
<path d="M483.668 149.881C482.294 149.252 481.893 148.45 481.836 147.706C482.294 147.935 482.809 148.278 483.21 148.736C483.554 149.137 483.611 149.538 483.668 149.881Z" fill="#DE5753"/>
<path d="M487.734 142.666C487.963 142.723 488.135 143.067 488.02 143.41C487.963 143.754 487.677 144.04 487.448 143.983C487.219 143.926 487.047 143.582 487.161 143.239C487.276 142.895 487.505 142.609 487.734 142.666Z" fill="#263238"/>
<path d="M483.095 141.521C483.324 141.578 483.496 141.922 483.382 142.265C483.324 142.609 483.038 142.895 482.809 142.838C482.58 142.781 482.408 142.437 482.523 142.094C482.58 141.75 482.866 141.521 483.095 141.521Z" fill="#263238"/>
<path d="M485.443 146.389C485.443 146.389 486.474 147.076 487.333 146.676C486.646 145.13 486.703 145.473 486.531 142.839L485.443 146.389Z" fill="#ED847E"/>
<path d="M487.734 194.886C487.734 194.886 482.123 197.062 480.806 197.52C479.317 198.036 477.771 198.551 476.168 198.608C474.565 198.665 472.904 198.207 471.759 196.948C470.385 195.516 469.984 193.34 469.641 191.279C468.61 185.267 467.579 179.255 466.549 173.3C466.033 170.323 464.774 165.914 464.888 164.196C465.117 161.104 467.064 157.382 472.103 155.378C474.05 154.577 475.996 154.92 477.657 156.867C478.63 158.069 481.55 160.875 482.237 165.914C482.81 169.922 483.669 175.132 483.612 179.198C483.554 184.465 485.673 191.222 487.734 194.886Z" fill="#15234A"/>
<path d="M465.118 162.535C464.546 167.746 467.409 180.915 467.981 181.66C470.329 189.275 476.856 185.152 477.772 184.809C479.433 184.179 481.093 183.034 482.639 182.232C485.674 180.743 488.537 179.541 491.343 177.651L489.739 174.502C486.647 175.533 477.944 177.823 476.513 178.167C475.883 178.339 473.478 179.598 473.478 177.938C473.134 177.365 472.676 166.486 471.588 162.65C471.474 162.192 471.245 161.791 470.959 161.447L470.844 161.333C469.241 159.272 465.863 159.901 465.118 162.535Z" fill="#0F1A38"/>
<path d="M488.594 175.59L488.25 177.365C489.052 179.427 493.575 178.854 493.575 178.854V173.586L489.567 174.503C489.109 174.674 488.708 175.075 488.594 175.59Z" fill="#FFB573"/>
<path d="M493.633 173.586L493.576 178.911L497.642 179.026L498.558 174.331L493.633 173.586Z" fill="#FFB573"/>
<path d="M491.227 137.971C491.342 138.429 491.113 139.002 490.712 139.231C490.368 139.402 489.91 139.345 489.51 139.288C488.193 139.059 486.876 138.83 485.559 138.601C483.268 138.2 481.035 137.799 478.802 137.284C477.772 137.055 476.34 136.768 476.283 135.738C475.997 130.814 484.07 131.787 485.788 132.36C491.514 134.364 491.17 137.456 491.227 137.971Z" fill="#263238"/>
<path d="M419.197 228.267H413.814V250.655H419.197V228.267Z" fill="#263238"/>
<path opacity="0.2" d="M419.197 228.267H413.814V250.655H419.197V228.267Z" fill="white"/>
<path d="M418.454 214.068H414.617V228.382H418.454V214.068Z" fill="#263238"/>
<path opacity="0.2" d="M418.396 216.702L414.617 218.133V214.068H418.396V216.702Z" fill="black"/>
<path d="M431.908 253.976C431.908 255.179 432.882 256.152 434.084 256.152C435.286 256.152 436.26 255.179 436.26 253.976C436.26 252.774 435.286 251.8 434.084 251.8C432.882 251.8 431.908 252.774 431.908 253.976Z" fill="#263238"/>
<path d="M399.729 253.976C399.729 255.179 398.755 256.152 397.553 256.152C396.35 256.152 395.377 255.179 395.377 253.976C395.377 252.774 396.35 251.8 397.553 251.8C398.698 251.8 399.729 252.774 399.729 253.976Z" fill="#263238"/>
<path d="M418.682 253.289C418.682 254.491 417.708 255.464 416.506 255.464C415.303 255.464 414.33 254.491 414.33 253.289C414.33 252.086 415.303 251.113 416.506 251.113C417.708 251.113 418.682 252.086 418.682 253.289Z" fill="#263238"/>
<path d="M392.743 251.056C392.857 251.572 393.315 251.915 393.831 251.915L416.677 251.629L438.091 252.087C438.607 252.087 439.065 251.743 439.179 251.228C439.294 250.655 438.893 250.083 438.32 249.968L426.64 247.678C425.437 247.449 424.178 247.334 422.975 247.334H410.378C409.119 247.334 407.916 247.449 406.714 247.678L393.544 249.797C392.972 249.911 392.628 250.484 392.743 251.056Z" fill="#263238"/>
<path d="M392.4 214.01L393.145 214.068C392.858 214.068 392.629 214.068 392.4 214.01Z" fill="#263238"/>
<path d="M422.976 170.264C422.976 170.322 422.976 170.322 422.976 170.379V209.544H387.877V169.978C387.877 169.692 387.877 169.405 387.934 169.062H387.877L388.221 163.565C388.335 162.019 388.965 160.53 390.053 159.385L393.546 155.721L395.378 146.559C395.664 145.128 396.924 144.097 398.355 144.097H406.429C407.746 144.097 408.891 144.956 409.292 146.158L412.67 156.064L419.14 160.072C420.801 161.103 421.888 162.821 422.175 164.71L423.034 170.322L422.976 170.264Z" fill="#B4B4B4"/>
<path opacity="0.1" d="M422.976 170.264C422.976 170.322 422.976 170.322 422.976 170.379V209.544H392.629V169.978C392.629 169.692 392.629 169.405 392.686 169.062H392.629L392.972 163.565C393.087 162.019 393.717 160.53 394.805 159.385L398.297 155.721L400.13 146.559C400.416 145.128 401.676 144.097 403.107 144.097H406.485C407.802 144.097 408.948 144.956 409.348 146.158L412.727 156.064L419.197 160.072C420.857 161.103 421.945 162.821 422.232 164.71L423.09 170.322L422.976 170.264Z" fill="white"/>
<path d="M426.068 215.957H407.23C407.23 215.957 411.468 217.674 414.502 218.419V221.453H418.797V218.419C421.831 217.674 426.068 215.957 426.068 215.957Z" fill="#263238"/>
<path d="M408.145 207.712C419.253 208.17 430.418 207.712 441.469 206.51C443.759 206.281 445.592 207.884 445.592 210.174C445.592 210.403 445.592 210.518 445.592 210.747C445.592 213.037 443.759 215.098 441.469 215.327C430.418 216.53 419.253 216.931 408.145 216.53C408.145 212.98 408.145 211.205 408.145 207.712Z" fill="#DEDEDE"/>
<path opacity="0.2" d="M408.145 207.712C419.253 208.17 430.418 207.712 441.469 206.51C443.759 206.281 445.592 207.884 445.592 210.174C445.592 210.403 445.592 210.518 445.592 210.747C445.592 213.037 443.759 215.098 441.469 215.327C430.418 216.53 419.253 216.931 408.145 216.53C408.145 212.98 408.145 211.205 408.145 207.712Z" fill="black"/>
<path d="M391.541 215.327C397.897 215.9 404.196 216.358 410.551 216.587C412.727 216.644 414.445 214.926 414.445 212.75C414.445 212.35 414.445 212.178 414.445 211.777C414.445 209.601 412.67 207.826 410.551 207.769C404.138 207.54 397.897 207.082 391.541 206.509C389.366 206.28 387.648 207.826 387.648 209.945C387.648 210.346 387.648 210.517 387.648 210.918C387.591 213.094 389.366 215.098 391.541 215.327Z" fill="#93959A"/>
<path d="M445.479 240.579V250.198L450.288 250.141L451.262 241.037L445.479 240.579Z" fill="#B55B52"/>
<path d="M451.091 250.026C451.034 250.026 451.034 249.969 450.977 249.912C450.977 249.854 450.977 249.797 451.034 249.797C451.091 249.74 452.752 248.824 453.496 249.053C453.668 249.11 453.782 249.167 453.839 249.339C453.954 249.454 453.954 249.683 453.839 249.797C453.668 250.026 453.038 250.141 452.465 250.141C452.064 250.141 451.549 250.083 451.091 250.026ZM451.492 249.854C452.351 249.969 453.553 249.969 453.725 249.683C453.782 249.625 453.782 249.568 453.725 249.454C453.668 249.396 453.61 249.339 453.496 249.282C453.439 249.282 453.381 249.225 453.267 249.225C452.637 249.339 452.007 249.568 451.492 249.854Z" fill="#407BFF"/>
<path d="M451.034 250.025C450.977 250.025 450.977 249.968 450.977 249.911C450.977 249.854 451.148 248.594 451.721 248.136C451.893 248.021 452.122 247.907 452.351 247.964C452.637 248.021 452.752 248.136 452.752 248.25C452.866 248.766 451.721 249.796 451.148 250.025H451.091C451.091 250.025 451.091 250.025 451.034 250.025ZM452.293 248.136C452.179 248.136 452.007 248.193 451.893 248.25C451.549 248.651 451.32 249.166 451.263 249.682C451.835 249.338 452.58 248.594 452.58 248.25C452.58 248.25 452.58 248.136 452.351 248.136H452.293Z" fill="#407BFF"/>
<path d="M450.632 249.339L445.536 249.282C445.365 249.282 445.193 249.396 445.136 249.568L444.162 253.691C444.048 254.034 444.277 254.435 444.678 254.492C444.735 254.492 444.792 254.492 444.792 254.492C446.624 254.492 448.228 254.378 450.518 254.435C453.209 254.492 452.522 254.779 455.671 254.836C457.561 254.893 457.962 252.717 457.16 252.603C453.495 252.087 453.095 250.999 451.663 249.625C451.434 249.511 451.033 249.339 450.632 249.339Z" fill="#263238"/>
<path opacity="0.1" d="M445.881 246.189L450.977 245.845L451.32 239.604L445.537 239.49L445.881 246.189Z" fill="black"/>
<path opacity="0.4" d="M444.048 203.99C444.048 204.104 444.105 204.162 444.105 204.276C443.99 202.845 443.761 201.642 443.532 200.726C441.872 194.371 424.809 193.283 417.823 193.111L409.406 194.027C409.406 194.027 408.605 200.726 410.609 205.021C412.67 209.258 444.048 203.99 444.048 203.99Z" fill="black"/>
<path d="M434.082 242.353L434.54 252.087L439.293 251.915L439.808 241.551L434.082 242.353Z" fill="#B55B52"/>
<path d="M440.038 250.599C439.981 250.599 439.981 250.542 439.924 250.542C439.924 250.484 439.924 250.427 439.981 250.427C440.038 250.37 441.584 249.339 442.386 249.454C442.558 249.454 442.672 249.568 442.729 249.683C442.844 249.797 442.844 250.026 442.787 250.141C442.615 250.427 442.042 250.542 441.47 250.599C440.954 250.656 440.496 250.656 440.038 250.599ZM440.382 250.427C441.241 250.484 442.443 250.37 442.615 250.026C442.615 249.969 442.672 249.912 442.558 249.797C442.5 249.74 442.443 249.683 442.329 249.683C442.271 249.683 442.214 249.683 442.1 249.683C441.47 249.797 440.897 250.026 440.382 250.427Z" fill="#407BFF"/>
<path d="M439.981 250.598C439.924 250.598 439.924 250.541 439.924 250.484C439.924 250.426 439.924 249.167 440.496 248.651C440.668 248.48 440.84 248.422 441.069 248.422C441.355 248.422 441.47 248.594 441.527 248.709C441.699 249.224 440.668 250.312 440.096 250.598H440.038C439.981 250.598 439.981 250.598 439.981 250.598ZM441.012 248.594C440.897 248.594 440.725 248.651 440.668 248.766C440.382 249.167 440.21 249.682 440.153 250.255C440.725 249.854 441.355 248.995 441.298 248.709C441.298 248.709 441.241 248.594 441.069 248.594H441.012Z" fill="#407BFF"/>
<path d="M439.466 249.969L434.427 250.427C434.256 250.427 434.084 250.599 434.084 250.771L433.511 254.951C433.454 255.294 433.74 255.638 434.084 255.695C434.141 255.695 434.198 255.695 434.256 255.695C436.088 255.523 437.691 255.294 439.981 255.065C442.673 254.836 441.985 255.237 445.135 255.008C447.024 254.893 447.196 252.66 446.394 252.66C442.673 252.489 442.215 251.458 440.669 250.255C440.268 250.026 439.867 249.912 439.466 249.969Z" fill="#263238"/>
<path opacity="0.1" d="M439.523 247.449L439.752 242.525L434.141 242.639L434.37 247.793L439.523 247.449Z" fill="black"/>
<path d="M422.747 192.596C422.747 192.596 452.522 190.306 454.583 198.322C456.644 206.338 452.064 244.243 452.064 244.243L444.677 244.873C444.677 244.873 443.704 222.542 443.589 204.048C443.589 204.048 412.269 209.316 410.265 205.079C408.261 200.842 409.063 194.085 409.063 194.085L422.747 192.596Z" fill="#111E44"/>
<path d="M415.188 193.741C415.188 193.741 445.191 192.596 445.592 200.841C445.936 207.312 440.439 245.789 440.439 245.789L433.568 246.305C433.568 246.305 432.308 223.172 433.167 207.426C433.167 207.426 407.286 210.404 402.706 206.739C398.354 203.246 401.732 193.684 401.732 193.684L415.188 193.741Z" fill="#182752"/>
<path d="M443.301 187.615V187.5C443.53 186.183 444.618 185.095 445.935 184.866L449.141 184.351C449.141 184.351 454.466 186.985 453.264 187.558H447.366L443.301 187.615Z" fill="#B55B52"/>
<path d="M447.594 184.58L443.3 187.558L430.76 179.37L425.263 173.873C425.263 173.873 414.842 157.898 419.996 156.982C422.343 156.524 430.531 167.116 435.742 175.705C441.983 180.744 447.594 184.58 447.594 184.58Z" fill="#407BFF"/>
<g opacity="0.3">
<path d="M447.594 184.58L443.3 187.558L430.76 179.37L425.263 173.873C425.263 173.873 414.842 157.898 419.996 156.982C422.343 156.524 430.531 167.116 435.742 175.705C441.983 180.744 447.594 184.58 447.594 184.58Z" fill="#2A51B0"/>
</g>
<path d="M425.265 193.169C420.913 194.314 416.332 194.772 411.809 194.543L402.075 193.97C401.846 191.966 400.357 187.557 398.296 176.22C395.719 158.126 398.754 157.153 400.357 156.867H400.415C401.846 156.638 403.678 156.351 405.453 156.237C408.832 155.951 412.267 155.836 415.645 155.951C416.791 156.008 417.936 156.18 419.024 156.409C420.627 156.638 421.887 157.726 422.402 159.1C423.948 163.623 424.52 174.56 425.265 193.169Z" fill="#407BFF"/>
<path opacity="0.4" d="M425.265 193.169C420.913 194.314 416.332 194.772 411.809 194.543L402.075 193.97C401.846 191.966 400.357 187.557 398.296 176.22C395.719 158.126 398.754 157.153 400.357 156.867H400.415C401.846 156.638 403.678 156.351 405.453 156.237C408.832 155.951 412.267 155.836 415.645 155.951C416.791 156.008 417.936 156.18 419.024 156.409C420.627 156.638 421.887 157.726 422.402 159.1C423.948 163.623 424.52 174.56 425.265 193.169Z" fill="#476CD2"/>
<path d="M412.038 158.813C407 159.271 405.053 156.293 405.053 156.293C407.229 154.003 406.198 148.048 405.339 144.784L408.145 146.96L411.981 149.938C411.866 150.453 411.809 150.968 411.809 151.426C411.809 151.77 411.809 152.171 411.809 152.514V152.572C411.981 154.118 412.84 155.377 415.245 155.835C415.13 155.835 416.333 158.412 412.038 158.813Z" fill="#B55B52"/>
<path opacity="0.2" d="M411.924 149.88C411.809 150.395 411.752 150.911 411.752 151.369C411.752 151.712 411.752 152.113 411.752 152.457V152.514C410.378 152.285 408.488 150.853 408.259 149.422C408.202 148.964 408.145 148.506 408.145 147.99L411.924 149.88Z" fill="black"/>
<path d="M403.965 155.893L405.511 155.263C407.286 156.924 409.347 158.126 411.637 158.813C410.664 159.5 409.92 160.474 409.519 161.562C404.137 159.901 403.965 155.893 403.965 155.893Z" fill="white"/>
<path d="M415.129 155.549L413.641 155.263C413.641 155.263 413.125 158.298 411.637 158.756C414.271 159.672 414.729 160.989 414.729 160.989C418.508 159.729 415.129 155.549 415.129 155.549Z" fill="white"/>
<path d="M414.156 135.107C414.901 136.024 415.13 138.199 415.931 139.058C416.16 138.657 416.847 136.768 416.962 136.253C417.019 135.794 416.905 135.222 416.504 134.936C415.989 134.535 414.786 134.821 414.156 135.107Z" fill="#263238"/>
<path d="M404.595 138.257C405.339 135.108 408.546 133.161 411.695 133.905C416.333 134.879 418.28 141.292 418.165 145.357C418.165 146.559 417.764 147.704 417.077 148.621C415.245 151.254 411.58 151.884 409.004 149.995C406.313 148.163 405.855 145.586 404.652 141.234C404.366 140.318 404.366 139.23 404.595 138.257Z" fill="#B55B52"/>
<path d="M415.988 145.7C415.988 145.7 414.786 145.471 411.465 145.7C411.866 146.788 412.667 147.647 414.385 147.532C415.244 147.589 415.988 146.845 416.046 145.872C415.988 145.814 415.988 145.757 415.988 145.7Z" fill="#263238"/>
<path d="M413.525 146.674C414.155 146.616 414.842 146.731 415.414 147.075C415.128 147.304 414.727 147.475 414.384 147.475C413.754 147.59 413.067 147.418 412.494 147.075C412.78 146.846 413.124 146.674 413.525 146.674Z" fill="#E83F3F"/>
<path d="M415.815 145.643C415.758 145.929 415.586 146.158 415.3 146.216C414.327 146.273 413.296 146.273 412.322 146.158C411.979 146.158 411.693 145.987 411.578 145.643C413.01 145.528 414.441 145.528 415.815 145.643Z" fill="white"/>
<path opacity="0.2" d="M415.016 144.384C415.646 144.441 416.218 144.212 416.619 143.754C415.703 142.952 414.959 142.036 414.271 141.005L415.016 144.384Z" fill="black"/>
<path d="M413.356 135.738C413.127 135.452 413.012 135.051 412.783 134.765C412.382 134.307 411.638 134.135 411.008 134.364C410.378 134.536 409.92 135.051 409.577 135.566C409.233 136.082 408.546 137.513 408.661 137.57C408.718 138.143 408.489 138.773 408.088 139.174C407.63 139.574 407.057 139.689 406.428 139.574C406.199 140.204 407.63 142.151 407.916 142.38C408.145 142.609 408.489 142.781 408.775 142.895C408.432 143.067 408.145 143.067 407.802 143.067C407.687 143.067 407.573 143.067 407.515 143.01C406.37 142.838 401.961 140.032 404.424 135.452C405.111 134.249 406.199 133.333 407.401 132.761C409.291 131.902 411.695 131.959 413.47 133.104C416.448 135.108 413.585 136.024 413.356 135.738Z" fill="#263238"/>
<path d="M406.312 143.81C406.312 145.184 406.484 148.162 406.197 149.88C404.651 148.62 403.163 145.872 402.476 143.982C401.674 141.921 401.674 139.459 402.705 137.455C403.106 136.653 403.678 135.966 404.365 135.393C405.396 134.534 406.713 134.019 408.087 134.019C408.087 135.737 408.087 137.397 408.03 139.058C407.572 139.459 406.999 139.573 406.369 139.459C406.14 140.088 406.77 141.405 407.056 141.978C407.228 142.264 407.457 142.608 407.686 142.837C407.686 143.066 407.629 143.295 407.629 143.524C407.572 144.039 407.514 144.555 407.4 145.127L406.312 143.81Z" fill="#263238"/>
<path d="M404.709 142.323C405.797 142.151 407 143.525 407.515 144.499C408.03 145.644 407.687 146.675 406.541 146.446C405.625 146.217 404.766 145.644 404.251 144.842C403.45 143.869 403.621 142.552 404.709 142.323Z" fill="#B55B52"/>
<path d="M411.75 141.006C411.979 140.949 412.265 141.235 412.323 141.578C412.38 141.922 412.265 142.208 412.036 142.266C411.807 142.323 411.578 142.037 411.464 141.693C411.407 141.349 411.521 141.063 411.75 141.006Z" fill="#263238"/>
<path d="M415.76 140.089C415.989 140.032 416.218 140.318 416.333 140.661C416.39 141.005 416.276 141.349 416.047 141.406C415.818 141.463 415.588 141.177 415.474 140.833C415.359 140.49 415.531 140.146 415.76 140.089Z" fill="#263238"/>
<path d="M414.844 138.772C414.901 138.83 414.959 138.83 415.016 138.83C415.531 138.658 416.104 138.715 416.562 139.001C416.676 139.059 416.791 139.059 416.848 139.001C416.905 138.887 416.905 138.772 416.791 138.715C416.218 138.314 415.474 138.2 414.844 138.429C414.729 138.486 414.672 138.601 414.729 138.715C414.787 138.715 414.844 138.715 414.844 138.772Z" fill="#263238"/>
<path d="M410.549 140.489C410.606 140.489 410.664 140.489 410.721 140.432C411.007 139.974 411.523 139.688 412.095 139.63C412.21 139.63 412.324 139.516 412.324 139.401C412.324 139.287 412.21 139.172 412.095 139.172C411.408 139.23 410.778 139.573 410.377 140.146C410.32 140.26 410.32 140.375 410.435 140.432C410.435 140.489 410.492 140.489 410.549 140.489Z" fill="#263238"/>
<path d="M402.82 168.374L403.393 167.172C404.137 165.626 407.229 159.384 408.718 158.697L409.291 158.354L411.409 161.56C411.066 161.847 407.058 172.096 406.141 174.272C405.97 174.615 405.855 174.959 405.798 175.302C405.168 177.65 401.16 181.257 398.469 174.501C397.782 173.069 397.209 171.695 396.637 170.264C396.35 169.519 396.121 168.832 395.835 168.088C395.778 167.973 395.72 167.687 395.549 167.343C394.289 163.793 394.117 159.785 397.495 157.667L399.786 156.922L402.82 168.374Z" fill="#407BFF"/>
<g opacity="0.3">
<path d="M402.82 168.374L403.393 167.172C404.137 165.626 407.229 159.384 408.718 158.697L409.291 158.354L411.409 161.56C411.066 161.847 407.058 172.096 406.141 174.272C405.97 174.615 405.855 174.959 405.798 175.302C405.168 177.65 401.16 181.257 398.469 174.501C397.782 173.069 397.209 171.695 396.637 170.264C396.35 169.519 396.121 168.832 395.835 168.088C395.778 167.973 395.72 167.687 395.549 167.343C394.289 163.793 394.117 159.785 397.495 157.667L399.786 156.922L402.82 168.374Z" fill="#2A51B0"/>
</g>
<path d="M414.787 156.122C414.787 156.294 414.844 156.409 414.902 156.58C414.959 156.809 415.073 156.981 415.188 157.21C415.36 157.496 415.531 157.668 415.761 157.897C415.761 157.897 415.875 158.012 415.932 158.012C416.047 158.126 416.219 158.241 416.333 158.355C416.619 158.527 416.906 158.699 417.249 158.813C417.306 158.813 417.364 158.871 417.421 158.928C417.478 158.985 417.536 159.1 417.536 159.157C417.593 159.214 417.593 159.271 417.65 159.386C417.707 159.501 417.765 159.558 417.879 159.615C418.051 159.73 418.28 159.787 418.452 159.844C418.967 159.959 419.54 160.016 420.055 159.959C420.341 159.959 420.627 159.901 420.914 159.901C421.2 159.844 421.486 159.787 421.83 159.73C422.059 159.672 422.288 159.558 422.517 159.443C422.574 159.386 422.689 159.329 422.746 159.214C422.746 159.157 422.746 159.1 422.803 159.042C422.861 158.871 422.918 158.756 422.975 158.584C423.09 158.355 423.147 158.126 423.204 157.897C423.261 157.668 423.319 157.439 423.376 157.21C423.433 156.981 423.49 156.752 423.49 156.523C423.548 156.122 423.605 155.721 423.662 155.321C423.662 155.149 423.662 154.92 423.662 154.748C423.662 154.576 423.662 154.462 423.605 154.29C423.548 154.175 423.548 154.118 423.433 154.004C423.204 153.775 422.975 153.66 422.689 153.546C422.402 153.431 422.173 153.374 421.887 153.317C421.773 153.317 421.658 153.259 421.544 153.259C419.54 152.973 418.108 153.488 417.879 153.546C417.65 153.603 417.421 153.717 417.192 153.775C417.02 153.889 416.791 154.004 416.619 154.118C416.505 154.233 416.39 154.347 416.333 154.519C416.333 154.576 416.276 154.634 416.276 154.691C416.276 154.748 416.276 154.748 416.161 154.748C415.761 154.691 415.417 154.748 415.131 155.092C415.016 155.206 414.959 155.378 414.902 155.492C414.844 155.721 414.787 155.893 414.787 156.122ZM417.822 155.149C417.593 155.092 417.364 155.034 417.135 154.92C417.077 154.92 417.02 154.863 416.963 154.805C416.963 154.805 417.077 154.576 417.249 154.462C417.306 154.405 417.421 154.347 417.536 154.29C417.707 154.233 417.879 154.118 418.051 154.061C418.337 154.004 418.623 153.889 418.852 153.889C419.139 153.832 419.368 153.832 419.654 153.775C419.883 153.775 420.112 153.775 420.341 153.775C420.627 153.775 420.971 153.775 421.315 153.832C421.658 153.889 421.944 153.946 422.231 154.061C422.46 154.175 422.746 154.29 422.918 154.462L422.861 154.519C422.803 154.576 422.746 154.576 422.689 154.634C422.46 154.748 422.173 154.863 421.887 154.92C421.83 154.92 421.773 154.977 421.715 154.977C421.658 154.977 421.658 154.977 421.601 154.977C421.372 155.034 421.2 155.034 420.971 155.092C420.742 155.149 420.57 155.149 420.341 155.149C420.169 155.149 419.998 155.149 419.883 155.206C419.883 155.206 419.883 155.206 419.826 155.206H419.711C419.482 155.206 419.311 155.206 419.081 155.206C418.91 155.206 418.681 155.206 418.509 155.206C418.223 155.263 417.994 155.206 417.822 155.149ZM415.761 155.893C415.818 155.721 415.932 155.55 416.104 155.55C416.104 155.55 416.161 155.55 416.219 155.55C416.276 155.836 416.333 156.122 416.39 156.466C416.505 156.867 416.619 157.21 416.734 157.611C416.791 157.726 416.848 158.012 416.963 158.126C416.906 158.126 416.791 158.012 416.734 157.955C416.505 157.783 416.333 157.554 416.161 157.325C415.99 157.096 415.818 156.867 415.761 156.58C415.761 156.351 415.703 156.122 415.761 155.893Z" fill="#407BFF"/>
<path opacity="0.7" d="M414.787 156.122C414.787 156.294 414.844 156.409 414.902 156.58C414.959 156.809 415.073 156.981 415.188 157.21C415.36 157.496 415.531 157.668 415.761 157.897C415.761 157.897 415.875 158.012 415.932 158.012C416.047 158.126 416.219 158.241 416.333 158.355C416.619 158.527 416.906 158.699 417.249 158.813C417.306 158.813 417.364 158.871 417.421 158.928C417.478 158.985 417.536 159.1 417.536 159.157C417.593 159.214 417.593 159.271 417.65 159.386C417.707 159.501 417.765 159.558 417.879 159.615C418.051 159.73 418.28 159.787 418.452 159.844C418.967 159.959 419.54 160.016 420.055 159.959C420.341 159.959 420.627 159.901 420.914 159.901C421.2 159.844 421.486 159.787 421.83 159.73C422.059 159.672 422.288 159.558 422.517 159.443C422.574 159.386 422.689 159.329 422.746 159.214C422.746 159.157 422.746 159.1 422.803 159.042C422.861 158.871 422.918 158.756 422.975 158.584C423.09 158.355 423.147 158.126 423.204 157.897C423.261 157.668 423.319 157.439 423.376 157.21C423.433 156.981 423.49 156.752 423.49 156.523C423.548 156.122 423.605 155.721 423.662 155.321C423.662 155.149 423.662 154.92 423.662 154.748C423.662 154.576 423.662 154.462 423.605 154.29C423.548 154.175 423.548 154.118 423.433 154.004C423.204 153.775 422.975 153.66 422.689 153.546C422.402 153.431 422.173 153.374 421.887 153.317C421.773 153.317 421.658 153.259 421.544 153.259C419.54 152.973 418.108 153.488 417.879 153.546C417.65 153.603 417.421 153.717 417.192 153.775C417.02 153.889 416.791 154.004 416.619 154.118C416.505 154.233 416.39 154.347 416.333 154.519C416.333 154.576 416.276 154.634 416.276 154.691C416.276 154.748 416.276 154.748 416.161 154.748C415.761 154.691 415.417 154.748 415.131 155.092C415.016 155.206 414.959 155.378 414.902 155.492C414.844 155.721 414.787 155.893 414.787 156.122ZM417.822 155.149C417.593 155.092 417.364 155.034 417.135 154.92C417.077 154.92 417.02 154.863 416.963 154.805C416.963 154.805 417.077 154.576 417.249 154.462C417.306 154.405 417.421 154.347 417.536 154.29C417.707 154.233 417.879 154.118 418.051 154.061C418.337 154.004 418.623 153.889 418.852 153.889C419.139 153.832 419.368 153.832 419.654 153.775C419.883 153.775 420.112 153.775 420.341 153.775C420.627 153.775 420.971 153.775 421.315 153.832C421.658 153.889 421.944 153.946 422.231 154.061C422.46 154.175 422.746 154.29 422.918 154.462L422.861 154.519C422.803 154.576 422.746 154.576 422.689 154.634C422.46 154.748 422.173 154.863 421.887 154.92C421.83 154.92 421.773 154.977 421.715 154.977C421.658 154.977 421.658 154.977 421.601 154.977C421.372 155.034 421.2 155.034 420.971 155.092C420.742 155.149 420.57 155.149 420.341 155.149C420.169 155.149 419.998 155.149 419.883 155.206C419.883 155.206 419.883 155.206 419.826 155.206H419.711C419.482 155.206 419.311 155.206 419.081 155.206C418.91 155.206 418.681 155.206 418.509 155.206C418.223 155.263 417.994 155.206 417.822 155.149ZM415.761 155.893C415.818 155.721 415.932 155.55 416.104 155.55C416.104 155.55 416.161 155.55 416.219 155.55C416.276 155.836 416.333 156.122 416.39 156.466C416.505 156.867 416.619 157.21 416.734 157.611C416.791 157.726 416.848 158.012 416.963 158.126C416.906 158.126 416.791 158.012 416.734 157.955C416.505 157.783 416.333 157.554 416.161 157.325C415.99 157.096 415.818 156.867 415.761 156.58C415.761 156.351 415.703 156.122 415.761 155.893Z" fill="white"/>
<path opacity="0.9" d="M416.906 154.862C416.906 154.862 417.021 154.633 417.193 154.518C417.307 154.461 417.364 154.404 417.479 154.347C417.651 154.289 417.822 154.175 417.994 154.118C418.28 154.06 418.567 153.946 418.796 153.946C419.082 153.889 419.311 153.889 419.597 153.831C419.826 153.831 420.055 153.831 420.284 153.831C420.571 153.831 420.914 153.831 421.258 153.889C421.601 153.946 421.888 154.003 422.174 154.118C422.403 154.232 422.689 154.347 422.861 154.518L422.804 154.576C422.747 154.633 422.689 154.633 422.632 154.69C422.403 154.805 422.117 154.919 421.83 154.976C421.773 154.976 421.716 155.034 421.659 155.034C421.601 155.034 421.601 155.034 421.544 155.034C421.315 155.091 421.143 155.091 420.914 155.148C420.685 155.206 420.514 155.206 420.284 155.206C420.113 155.206 419.941 155.206 419.826 155.263C419.826 155.263 419.826 155.263 419.769 155.263H419.712C419.483 155.263 419.311 155.263 419.082 155.263C418.91 155.263 418.681 155.263 418.509 155.263C418.28 155.263 418.051 155.206 417.88 155.148C417.651 155.091 417.422 155.034 417.193 154.919C417.021 154.976 416.964 154.919 416.906 154.862Z" fill="white"/>
<path d="M416.906 154.863C416.964 154.92 417.021 154.92 417.078 154.977C417.307 155.092 417.536 155.149 417.765 155.206C417.994 155.263 418.166 155.263 418.395 155.321C418.567 155.321 418.796 155.321 418.968 155.321C419.197 155.321 419.368 155.321 419.597 155.321H419.712C419.712 155.321 419.712 155.321 419.769 155.321C419.941 155.321 420.113 155.321 420.227 155.263C420.456 155.263 420.628 155.206 420.857 155.206C421.086 155.149 421.258 155.149 421.487 155.092C421.544 155.092 421.544 155.092 421.601 155.092C421.659 155.092 421.716 155.034 421.773 155.034C422.06 154.977 422.346 154.863 422.575 154.748C422.632 154.691 422.689 154.691 422.747 154.634L422.804 154.576C422.632 154.347 422.346 154.233 422.117 154.175C421.83 154.061 421.487 154.004 421.201 153.946C420.914 153.889 420.571 153.889 420.227 153.889C419.998 153.889 419.769 153.889 419.54 153.889C419.254 153.889 419.025 153.946 418.739 154.004C418.452 154.061 418.166 154.118 417.937 154.175C417.765 154.233 417.593 154.29 417.422 154.404C417.307 154.462 417.25 154.519 417.135 154.576C417.021 154.691 416.906 154.863 416.906 154.863Z" fill="#263238"/>
<path opacity="0.3" d="M416.905 154.346C416.963 154.289 417.02 154.174 417.077 154.174C417.363 153.945 417.993 153.602 419.196 153.43C419.596 153.373 420.055 153.316 420.513 153.373C421.6 153.43 422.345 153.716 422.688 153.888C422.746 153.945 422.803 154.003 422.917 154.06C423.089 154.174 423.089 154.403 422.975 154.575L422.917 154.633C422.23 154.003 420.513 153.945 419.94 153.945C419.367 154.003 417.65 154.232 417.077 154.919C417.02 154.919 417.02 154.862 417.02 154.862C416.791 154.747 416.791 154.518 416.905 154.346Z" fill="black"/>
<path d="M416.048 156.637L416.449 158.47L415.304 159.844C415.304 159.844 413.643 161.333 411.41 161.619C410.609 161.733 409.864 161.275 409.521 160.588L409.349 160.245C409.292 160.073 409.234 159.901 409.177 159.729C408.948 158.756 409.292 158.241 410.093 157.668L412.842 155.263C413.071 155.091 416.22 154.805 416.22 154.805C416.506 154.862 416.105 156.294 416.048 156.637Z" fill="#B55B52"/>
<g filter="url(#filter1_d_2_21465)">
<path d="M555.185 129.782L557.189 148.735C557.189 148.849 557.189 148.964 557.189 149.078C557.132 150.281 556.158 151.197 554.956 151.139H550.661C551.578 153.831 555.528 157.438 555.528 157.438C555.528 157.438 549.115 156.579 544.707 151.082L513.844 150.91C512.47 150.853 511.268 149.823 511.096 148.448L509.092 129.496C509.092 129.381 509.092 129.267 509.092 129.152C509.149 127.95 510.122 127.034 511.325 127.091L552.494 127.32C553.811 127.32 554.956 128.351 555.185 129.782Z" fill="white"/>
</g>
<path d="M551.349 132.072H528.445V132.644H551.349V132.072Z" fill="#407BFF"/>
<path d="M525.068 132.072H516.766V132.644H525.068V132.072Z" fill="#407BFF"/>
<path d="M552.436 137.054H542.244V137.627H552.436V137.054Z" fill="#407BFF"/>
<path d="M538.637 137.054H525.354V137.627H538.637V137.054Z" fill="#407BFF"/>
<path d="M522.262 137.054H514.131V137.627H522.262V137.054Z" fill="#407BFF"/>
<path d="M553.009 141.978H537.32V142.551H553.009V141.978Z" fill="#407BFF"/>
<path d="M534.343 141.978H527.186V142.551H534.343V141.978Z" fill="#407BFF"/>
<path d="M527.128 141.978H520.887V142.551H527.128V141.978Z" fill="#407BFF"/>
<path d="M519.227 141.978H514.703V142.551H519.227V141.978Z" fill="#407BFF"/>
<path d="M521.859 146.959H515.16V147.532H521.859V146.959Z" fill="#407BFF"/>
<g filter="url(#filter2_d_2_21465)">
<path d="M499.185 105.792L540.354 105.563C541.557 105.505 542.53 106.421 542.587 107.624C542.587 107.738 542.587 107.853 542.587 107.967L540.583 126.92C540.411 128.294 539.209 129.382 537.835 129.382L506.973 129.554C502.564 134.993 496.151 135.91 496.151 135.91C496.151 135.91 500.102 132.302 501.018 129.611H496.723C495.521 129.668 494.547 128.752 494.49 127.55C494.49 127.435 494.49 127.321 494.49 127.206L496.494 108.254C496.609 106.88 497.811 105.849 499.185 105.792Z" fill="white"/>
</g>
<path d="M523.575 109.627H505.023V110.2H523.575V109.627Z" fill="#407BFF"/>
<path d="M539.15 109.627H527.928V110.2H539.15V109.627Z" fill="#407BFF"/>
<path d="M509.778 114.609H499.586V115.181H509.778V114.609Z" fill="#407BFF"/>
<path d="M537.891 114.609H513.385V115.181H537.891V114.609Z" fill="#407BFF"/>
<path d="M524.837 119.533H499.014V120.105H524.837V119.533Z" fill="#407BFF"/>
<path d="M537.263 119.533H528.846V120.105H537.263V119.533Z" fill="#407BFF"/>
<path d="M505.254 124.515H498.555V125.088H505.254V124.515Z" fill="#407BFF"/>
<g filter="url(#filter3_d_2_21465)">
<path d="M426.469 112.089L467.637 111.86C468.84 111.803 469.813 112.719 469.871 113.922C469.871 114.036 469.871 114.151 469.871 114.265L467.866 133.218C467.695 134.592 466.492 135.68 465.118 135.68L434.256 135.852C429.847 141.291 423.434 142.207 423.434 142.207C423.434 142.207 427.385 138.6 428.301 135.909H424.007C422.804 135.966 421.831 135.05 421.773 133.848C421.773 133.733 421.773 133.619 421.773 133.504L423.777 114.552C423.892 113.177 425.037 112.147 426.469 112.089Z" fill="white"/>
</g>
<path d="M464.774 116.155H446.223V116.728H464.774V116.155Z" fill="#407BFF"/>
<path d="M441.928 116.155H430.705V116.727H441.928V116.155Z" fill="#407BFF"/>
<path d="M464.833 121.08H454.641V121.652H464.833V121.08Z" fill="#407BFF"/>
<path d="M450.975 121.079H426.469V121.652H450.975V121.079Z" fill="#407BFF"/>
<path d="M464.775 126.06H438.951V126.633H464.775V126.06Z" fill="#407BFF"/>
<path d="M434.886 126.06H426.469V126.633H434.886V126.06Z" fill="#407BFF"/>
<path d="M432.71 130.985H426.469V131.557H432.71V130.985Z" fill="#407BFF"/>
<path d="M503.994 187.614L508.002 187.557C508.689 187.557 509.205 186.984 509.205 186.355L509.147 180.171C509.147 179.484 508.575 178.968 507.945 178.968L503.937 179.026C503.25 179.026 502.734 179.598 502.734 180.228L502.792 186.412C502.792 187.099 503.307 187.614 503.994 187.614Z" fill="#407BFF"/>
<path d="M500.846 184.408V182.805C500.846 181.488 501.876 180.4 503.193 180.4H503.709L503.766 186.813H503.251C501.934 186.813 500.846 185.725 500.846 184.408ZM501.934 182.805V184.408C501.934 184.923 502.277 185.381 502.735 185.61L502.678 181.602C502.22 181.774 501.934 182.232 501.934 182.805Z" fill="#407BFF"/>
<g opacity="0.7">
<path d="M503.994 187.614L508.002 187.557C508.689 187.557 509.205 186.984 509.205 186.355L509.147 180.171C509.147 179.484 508.575 178.968 507.945 178.968L503.937 179.026C503.25 179.026 502.734 179.598 502.734 180.228L502.792 186.412C502.792 187.099 503.307 187.614 503.994 187.614Z" fill="#7A8CB5"/>
<path d="M500.846 184.408V182.805C500.846 181.488 501.876 180.4 503.193 180.4H503.709L503.766 186.813H503.251C501.934 186.813 500.846 185.725 500.846 184.408ZM501.934 182.805V184.408C501.934 184.923 502.277 185.381 502.735 185.61L502.678 181.602C502.22 181.774 501.934 182.232 501.934 182.805Z" fill="#7B8EB9"/>
</g>
<path d="M552.324 187.5H540.3C540.014 187.5 539.842 187.271 539.842 187.042C539.842 186.755 540.071 186.583 540.3 186.583H552.324C552.61 186.583 552.782 186.813 552.782 187.042C552.782 187.271 552.61 187.5 552.324 187.5Z" fill="#407BFF"/>
<path d="M552.324 187.5H540.3C540.014 187.5 539.842 187.271 539.842 187.042C539.842 186.755 540.071 186.583 540.3 186.583H552.324C552.61 186.583 552.782 186.813 552.782 187.042C552.782 187.271 552.61 187.5 552.324 187.5Z" fill="#7A8CB5"/>
<path d="M540.242 187.442L515.22 187.499C514.933 187.499 514.762 187.27 514.762 187.041C514.762 186.755 514.991 186.583 515.22 186.583L540.242 186.526C540.528 186.526 540.7 186.755 540.7 186.984C540.7 187.27 540.471 187.442 540.242 187.442Z" fill="#263238"/>
<path d="M539.553 186.526L516.535 186.641C515.734 186.641 514.989 185.954 514.932 185.152L513.959 173.357C513.901 172.555 514.531 171.868 515.333 171.868L538.351 171.753C539.152 171.753 539.897 172.441 539.954 173.242L540.927 185.037C540.985 185.839 540.355 186.526 539.553 186.526Z" fill="#407BFF"/>
<path opacity="0.4" d="M539.553 186.526L516.535 186.641C515.734 186.641 514.989 185.954 514.932 185.152L513.959 173.357C513.901 172.555 514.531 171.868 515.333 171.868L538.351 171.753C539.152 171.753 539.897 172.441 539.954 173.242L540.927 185.037C540.985 185.839 540.355 186.526 539.553 186.526Z" fill="black"/>
<path d="M539.307 186.586L515.736 186.721C514.915 186.721 514.153 185.91 514.094 184.963L513.097 171.035C513.039 170.089 513.684 169.277 514.505 169.277L538.076 169.142C538.897 169.142 539.659 169.953 539.718 170.9L540.715 184.828C540.773 185.775 540.128 186.586 539.307 186.586Z" fill="#7A8CB5"/>
<path d="M523.407 178.228C523.521 179.545 524.609 180.633 525.926 180.633C527.243 180.633 528.216 179.603 528.102 178.343C527.987 177.026 526.899 175.938 525.583 175.938C524.323 175.938 523.349 176.969 523.407 178.228Z" fill="white"/>
<path d="M560.281 181.314L560.51 181.715C560.625 181.944 560.739 182.231 560.739 182.46V184.864C560.739 186.353 562.343 187.556 564.347 187.556H564.862C566.293 187.556 567.553 186.926 568.126 186.01C568.297 185.952 568.469 185.895 568.584 185.781L569.958 184.75C570.187 184.578 570.301 184.406 570.301 184.177V182.86C570.301 182.402 569.786 182.059 569.214 182.059H568.469C568.412 181.944 568.526 181.83 568.641 181.715H568.698C568.813 181.543 568.985 181.429 569.099 181.372H569.156C569.156 181.372 569.099 181.085 568.355 181.2C568.126 181.257 567.954 181.314 567.782 181.372H567.725H567.668C567.038 181.143 566.408 181.143 565.778 181.314C565.205 181.143 564.576 181.143 564.003 181.314C564.06 181.314 563.946 181.314 564.003 181.314C563.373 181.143 562.743 181.143 562.171 181.372H561.713C561.541 181.314 561.312 181.257 561.083 181.2C560.339 181.028 560.281 181.314 560.281 181.314ZM568.355 185.437C568.355 185.38 568.412 183.49 568.412 182.689C568.412 182.517 568.641 182.345 568.927 182.345H569.214C569.614 182.345 569.901 182.574 569.901 182.86V184.063C569.901 184.464 569.901 184.464 569.5 184.693L568.355 185.437Z" fill="#407BFF"/>
<path opacity="0.7" d="M569.158 182.117H568.413C568.356 182.003 568.471 181.888 568.585 181.774L568.642 181.716C568.757 181.544 568.929 181.43 569.043 181.373C569.043 181.373 568.986 181.086 568.241 181.201C568.012 181.258 567.841 181.315 567.669 181.373H567.612H567.554C566.925 181.144 566.295 181.144 565.665 181.315C565.092 181.144 564.462 181.144 563.89 181.315C563.26 181.144 562.63 181.144 562.058 181.373H561.714C561.542 181.315 561.313 181.258 561.141 181.201C560.397 181.029 560.34 181.373 560.34 181.373L560.569 181.774C560.683 182.003 560.741 182.289 560.741 182.518V184.923C560.741 186.411 562.344 187.614 564.291 187.614H564.806C566.237 187.614 567.497 186.984 568.07 186.068C568.242 186.011 568.413 185.953 568.528 185.896L569.902 184.865C570.131 184.694 570.246 184.522 570.246 184.293V182.976C570.246 182.461 569.73 182.117 569.158 182.117ZM569.902 184.064C569.902 184.465 569.902 184.465 569.501 184.694L568.356 185.438C568.356 185.381 568.413 183.491 568.413 182.69C568.413 182.518 568.642 182.346 568.929 182.346H569.215C569.616 182.346 569.902 182.575 569.902 182.861V184.064Z" fill="white"/>
<path d="M401.846 191.22L394.918 259.472H397.151L408.775 191.22H401.846Z" fill="#407BFF"/>
<path d="M561.711 191.22L574.136 259.472H576.312L568.639 191.22H561.711Z" fill="#407BFF"/>
<path d="M409.004 259.587H411.237L423.834 191.22H416.906L409.004 259.587Z" fill="#407BFF"/>
<path d="M582.842 191.22H575.914L589.542 259.587H591.775L582.842 191.22Z" fill="#407BFF"/>
<path d="M596.869 189.731C596.869 188.586 595.895 187.613 594.636 187.613H390.051C388.792 187.613 387.818 188.586 387.818 189.731C387.818 190.877 388.792 191.85 390.051 191.85H594.693C595.895 191.85 596.869 190.934 596.869 189.731Z" fill="#407BFF"/>
<g opacity="0.6">
<path d="M401.846 191.22L394.918 259.472H397.151L408.775 191.22H401.846Z" fill="#0B0B0B"/>
<path d="M561.711 191.22L574.136 259.472H576.312L568.639 191.22H561.711Z" fill="#0B0B0B"/>
<path d="M409.004 259.587H411.237L423.834 191.22H416.906L409.004 259.587Z" fill="#0B0B0B"/>
<path d="M582.842 191.22H575.914L589.542 259.587H591.775L582.842 191.22Z" fill="#0B0B0B"/>
<path d="M596.869 189.731C596.869 188.586 595.895 187.613 594.636 187.613H390.051C388.792 187.613 387.818 188.586 387.818 189.731C387.818 190.877 388.792 191.85 390.051 191.85H594.693C595.895 191.85 596.869 190.934 596.869 189.731Z" fill="#434343"/>
</g>
<defs>
<filter id="filter0_d_2_21465" x="0" y="0" width="710" height="390" filterUnits="userSpaceOnUse" color-interpolation-filters="sRGB">
<feFlood flood-opacity="0" result="BackgroundImageFix"/>
<feColorMatrix in="SourceAlpha" type="matrix" values="0 0 0 0 0 0 0 0 0 0 0 0 0 0 0 0 0 0 127 0" result="hardAlpha"/>
<feMorphology radius="15" operator="erode" in="SourceAlpha" result="effect1_dropShadow_2_21465"/>
<feOffset dy="35"/>
<feGaussianBlur stdDeviation="40"/>
<feComposite in2="hardAlpha" operator="out"/>
<feColorMatrix type="matrix" values="0 0 0 0 0 0 0 0 0 0.0869497 0 0 0 0 0.329167 0 0 0 0.15 0"/>
<feBlend mode="normal" in2="BackgroundImageFix" result="effect1_dropShadow_2_21465"/>
<feBlend mode="normal" in="SourceGraphic" in2="effect1_dropShadow_2_21465" result="shape"/>
</filter>
<filter id="filter1_d_2_21465" x="501.092" y="123.088" width="64.0972" height="46.3496" filterUnits="userSpaceOnUse" color-interpolation-filters="sRGB">
<feFlood flood-opacity="0" result="BackgroundImageFix"/>
<feColorMatrix in="SourceAlpha" type="matrix" values="0 0 0 0 0 0 0 0 0 0 0 0 0 0 0 0 0 0 127 0" result="hardAlpha"/>
<feOffset dy="4"/>
<feGaussianBlur stdDeviation="4"/>
<feComposite in2="hardAlpha" operator="out"/>
<feColorMatrix type="matrix" values="0 0 0 0 0 0 0 0 0 0 0 0 0 0 0 0 0 0 0.25 0"/>
<feBlend mode="normal" in2="BackgroundImageFix" result="effect1_dropShadow_2_21465"/>
<feBlend mode="normal" in="SourceGraphic" in2="effect1_dropShadow_2_21465" result="shape"/>
</filter>
<filter id="filter2_d_2_21465" x="486.49" y="101.56" width="64.0972" height="46.3496" filterUnits="userSpaceOnUse" color-interpolation-filters="sRGB">
<feFlood flood-opacity="0" result="BackgroundImageFix"/>
<feColorMatrix in="SourceAlpha" type="matrix" values="0 0 0 0 0 0 0 0 0 0 0 0 0 0 0 0 0 0 127 0" result="hardAlpha"/>
<feOffset dy="4"/>
<feGaussianBlur stdDeviation="4"/>
<feComposite in2="hardAlpha" operator="out"/>
<feColorMatrix type="matrix" values="0 0 0 0 0 0 0 0 0 0 0 0 0 0 0 0 0 0 0.25 0"/>
<feBlend mode="normal" in2="BackgroundImageFix" result="effect1_dropShadow_2_21465"/>
<feBlend mode="normal" in="SourceGraphic" in2="effect1_dropShadow_2_21465" result="shape"/>
</filter>
<filter id="filter3_d_2_21465" x="413.773" y="107.858" width="64.0972" height="46.3496" filterUnits="userSpaceOnUse" color-interpolation-filters="sRGB">
<feFlood flood-opacity="0" result="BackgroundImageFix"/>
<feColorMatrix in="SourceAlpha" type="matrix" values="0 0 0 0 0 0 0 0 0 0 0 0 0 0 0 0 0 0 127 0" result="hardAlpha"/>
<feOffset dy="4"/>
<feGaussianBlur stdDeviation="4"/>
<feComposite in2="hardAlpha" operator="out"/>
<feColorMatrix type="matrix" values="0 0 0 0 0 0 0 0 0 0 0 0 0 0 0 0 0 0 0.25 0"/>
<feBlend mode="normal" in2="BackgroundImageFix" result="effect1_dropShadow_2_21465"/>
<feBlend mode="normal" in="SourceGraphic" in2="effect1_dropShadow_2_21465" result="shape"/>
</filter>
</defs>
</svg>
