<svg width="16" height="16" viewBox="0 0 16 16" fill="none" xmlns="http://www.w3.org/2000/svg">
<path d="M15.1108 11.4805V13.609C15.1116 13.8066 15.0712 14.0022 14.992 14.1833C14.9128 14.3643 14.7967 14.5268 14.6511 14.6604C14.5055 14.794 14.3336 14.8957 14.1464 14.959C13.9592 15.0223 13.7609 15.0458 13.5641 15.0281C11.3808 14.7908 9.28362 14.0448 7.44102 12.8499C5.72672 11.7605 4.27329 10.3071 3.18396 8.59279C1.98487 6.74182 1.23865 4.63443 1.00576 2.44133C0.988029 2.24513 1.01135 2.04738 1.07423 1.86069C1.13711 1.67399 1.23817 1.50243 1.37099 1.35693C1.50381 1.21143 1.66547 1.09519 1.84567 1.01559C2.02588 0.935989 2.22068 0.894786 2.41769 0.8946H4.54622C4.89055 0.891211 5.22436 1.01314 5.48544 1.23767C5.74652 1.4622 5.91705 1.774 5.96524 2.11496C6.05508 2.79614 6.22169 3.46496 6.4619 4.10868C6.55736 4.36263 6.57802 4.63863 6.52143 4.90396C6.46484 5.16929 6.33338 5.41284 6.14262 5.60575L5.24154 6.50683C6.25157 8.28312 7.72231 9.75387 9.4986 10.7639L10.3997 9.86281C10.5926 9.67205 10.8361 9.54059 11.1015 9.484C11.3668 9.42741 11.6428 9.44807 11.8967 9.54353C12.5405 9.78374 13.2093 9.95035 13.8905 10.0402C14.2351 10.0888 14.5499 10.2624 14.7749 10.528C14.9999 10.7935 15.1195 11.1325 15.1108 11.4805Z" stroke="white" stroke-width="1.41902" stroke-linecap="round" stroke-linejoin="round"/>
</svg>
