<svg width="225" height="211" viewBox="0 0 225 211" fill="none" xmlns="http://www.w3.org/2000/svg">
<path d="M33.3553 189.441H29.748V189.613H33.3553V189.441Z" fill="#EBEBEB"/>
<path d="M152.626 21.3862H151.596V101.777H152.626V21.3862Z" fill="#BBBBBB"/>
<path d="M216.812 21.3862H215.781V101.777H216.812V21.3862Z" fill="#BBBBBB"/>
<path d="M220.82 26.4261H147.587L146.041 22.8188H222.366L220.82 26.4261Z" fill="#EBEBEB"/>
<path d="M220.82 31.4076H147.587L146.041 27.8003H222.366L220.82 31.4076Z" fill="#EBEBEB"/>
<path d="M220.82 36.3314H147.587L146.041 32.7241H222.366L220.82 36.3314Z" fill="#EBEBEB"/>
<path d="M220.82 41.3128H147.587L146.041 37.7056H222.366L220.82 41.3128Z" fill="#EBEBEB"/>
<path d="M220.82 46.2367H147.587L146.041 42.6294H222.366L220.82 46.2367Z" fill="#EBEBEB"/>
<path d="M220.82 51.2191H147.587L146.041 47.6118H222.366L220.82 51.2191Z" fill="#EBEBEB"/>
<path d="M220.82 56.1429H147.587L146.041 52.5356H222.366L220.82 56.1429Z" fill="#EBEBEB"/>
<path d="M220.82 61.1244H147.587L146.041 57.5171H222.366L220.82 61.1244Z" fill="#EBEBEB"/>
<path d="M220.82 66.0482H147.587L146.041 62.4409H222.366L220.82 66.0482Z" fill="#EBEBEB"/>
<path d="M220.82 70.973H147.587L146.041 67.3657H222.366L220.82 70.973Z" fill="#EBEBEB"/>
<path d="M220.82 75.9535H147.587L146.041 72.3462H222.366L220.82 75.9535Z" fill="#EBEBEB"/>
<path d="M220.82 80.8783H147.587L146.041 77.271H222.366L220.82 80.8783Z" fill="#EBEBEB"/>
<path d="M220.82 85.8597H147.587L146.041 82.2524H222.366L220.82 85.8597Z" fill="#EBEBEB"/>
<path d="M220.82 90.7836H147.587L146.041 87.1763H222.366L220.82 90.7836Z" fill="#EBEBEB"/>
<path d="M220.82 95.765H147.587L146.041 92.1577H222.366L220.82 95.765Z" fill="#EBEBEB"/>
<path d="M220.82 100.69H147.587L146.041 97.0825H222.366L220.82 100.69Z" fill="#EBEBEB"/>
<path d="M222.424 100.69H146.041V102.751H222.424V100.69Z" fill="#BBBBBB"/>
<path d="M225 18.2944H143.35V23.1041H225V18.2944Z" fill="#BBBBBB"/>
<path d="M144.208 66.7356C143.75 66.7356 143.35 66.392 143.35 65.8767V37.8201C143.35 37.362 143.693 36.9612 144.208 36.9612C144.667 36.9612 145.067 37.3047 145.067 37.8201V65.8767C145.067 66.3347 144.667 66.7356 144.208 66.7356Z" fill="#BBBBBB"/>
<path d="M144.494 22.1313H143.922V38.7935H144.494V22.1313Z" fill="#BBBBBB"/>
<path d="M94.7365 17.4939H0.947266V74.6378H94.7365V17.4939Z" fill="#C2C2C2"/>
<path d="M95.4801 17.436H94.793V74.5799H95.4801V17.436Z" fill="#E0E0E0"/>
<path d="M4.38313 19.9556H3.81055V71.3736H4.38313V19.9556Z" fill="#E0E0E0"/>
<path d="M91.7028 19.9556H3.75391V71.3736H91.7028V19.9556Z" fill="white"/>
<path d="M63.3011 37.0757H56.0293V47.4967H63.3011V37.0757Z" fill="#F5F5F5"/>
<path d="M15.2621 53.6235H7.99023V64.0446H15.2621V53.6235Z" fill="#F5F5F5"/>
<path d="M14.5179 31.8657H7.24609V39.1375H14.5179V31.8657Z" fill="#F5F5F5"/>
<path d="M50.5902 56.9448H43.3184V64.2166H50.5902V56.9448Z" fill="#F5F5F5"/>
<path d="M86.1494 37.9927H67.5977V64.1025H86.1494V37.9927Z" fill="#F5F5F5"/>
<path d="M83.515 41.771H70.1738V42.0573H83.515V41.771Z" fill="#E0E0E0"/>
<path d="M76.9875 42.0571H76.7012V61.3532H76.9875V42.0571Z" fill="#E0E0E0"/>
<path d="M83.1144 42.0571H82.8281V61.3532H83.1144V42.0571Z" fill="#E0E0E0"/>
<path d="M71.548 42.0571H71.2617V61.3532H71.548V42.0571Z" fill="#E0E0E0"/>
<path d="M70.5754 42.0571H70.2891V61.3532H70.5754V42.0571Z" fill="#E0E0E0"/>
<path d="M82.8268 43.0884H70.459V43.3747H82.8268V43.0884Z" fill="#E0E0E0"/>
<path d="M37.4082 30.1351V32.5972H43.134V30.1351H37.4082Z" fill="#F5F5F5"/>
<path d="M38.5078 48.5621V50.4517H44.2337V48.5621H38.5078Z" fill="#F5F5F5"/>
<path d="M39.4248 29.3452H20.873V55.4551H39.4248V29.3452Z" fill="#F0F0F0"/>
<path d="M37.2441 52.816V54.7056H42.97V52.816H37.2441Z" fill="#F5F5F5"/>
<path d="M38.2285 35.3571V37.2466H43.9544V35.3571H38.2285Z" fill="#F5F5F5"/>
<path d="M36.9395 40.0963V41.9858H42.6653V40.0963H36.9395Z" fill="#F5F5F5"/>
<path d="M35.7596 32.5522H23.1055V34.7853H35.7596V32.5522Z" fill="#E6E6E6"/>
<path d="M35.9314 42.1141H23.2772L23.1055 41.0835H35.7596L35.9314 42.1141Z" fill="#E6E6E6"/>
<path d="M27.5716 37.0171H23.1055V39.2502H27.5716V37.0171Z" fill="#E6E6E6"/>
<path d="M131.216 16.0255C132.25 9.65759 127.926 3.65763 121.558 2.62417C115.19 1.59071 109.19 5.91509 108.156 12.283C107.123 18.6508 111.447 24.6508 117.815 25.6842C124.183 26.7177 130.183 22.3933 131.216 16.0255Z" fill="#AAAAAA"/>
<path opacity="0.8" d="M119.529 23.5635C124.715 23.5635 128.919 19.3593 128.919 14.1731C128.919 8.98693 124.715 4.78271 119.529 4.78271C114.343 4.78271 110.139 8.98693 110.139 14.1731C110.139 19.3593 114.343 23.5635 119.529 23.5635Z" fill="white"/>
<path d="M120.445 14.9739C120.445 15.4892 120.044 15.9473 119.471 15.9473C118.956 15.9473 118.498 15.5465 118.498 14.9739C118.498 14.4586 118.899 14.0005 119.471 14.0005C120.044 14.0005 120.445 14.4013 120.445 14.9739Z" fill="#BBBBBB"/>
<path d="M119.413 15.3167L115.348 11.4803L115.748 11.0795L119.413 14.515L125.998 8.73193L126.341 9.13274L119.413 15.3167Z" fill="#BBBBBB"/>
<path d="M113.003 210.111C174.319 210.111 224.027 207.214 224.027 203.641C224.027 200.067 174.319 197.17 113.003 197.17C51.6857 197.17 1.97852 200.067 1.97852 203.641C1.97852 207.214 51.6857 210.111 113.003 210.111Z" fill="#ADB8D2"/>
<path d="M172.896 166.538H191.734C191.734 166.538 187.497 168.255 184.463 169V172.034H180.168V169C177.134 168.255 172.896 166.538 172.896 166.538Z" fill="#263238"/>
<path d="M199.978 158.751C197.401 158.751 196.084 158.751 193.508 158.751C194.252 153.369 194.252 150.62 193.508 145.295C196.084 145.295 197.401 145.295 199.978 145.295C200.665 150.62 200.665 153.369 199.978 158.751Z" fill="#263238"/>
<path d="M185.092 172.034H179.48V194.594H185.092V172.034Z" fill="#263238"/>
<path opacity="0.2" d="M185.092 172.034H179.48V194.594H185.092V172.034Z" fill="white"/>
<path d="M210.686 146.783C201.41 146.783 192.192 146.783 182.916 146.783C179.652 146.783 177.362 144.034 177.877 140.771C179.194 130.75 179.938 123.593 179.996 113.516C179.996 110.596 182.172 108.305 185.092 108.305C192.879 108.305 200.666 108.305 208.453 108.305C211.373 108.305 214.122 110.596 214.58 113.516C215.954 123.536 216.698 130.693 216.87 140.771C216.87 144.034 213.95 146.783 210.686 146.783Z" fill="#889CCA"/>
<path d="M211.945 140.771C211.831 130.636 211.029 123.536 209.712 113.516C209.254 110.596 206.563 108.305 203.586 108.305C197.459 108.305 191.275 108.305 185.148 108.305C182.228 108.305 179.995 110.596 180.052 113.516C179.938 123.65 179.251 130.75 177.934 140.771C177.418 144.034 179.709 146.783 182.973 146.783C190.588 146.783 198.203 146.783 205.819 146.783C209.025 146.783 211.945 144.034 211.945 140.771Z" fill="#889CCA"/>
<path opacity="0.1" d="M211.945 140.771C211.831 130.636 211.029 123.536 209.712 113.516C209.254 110.596 206.563 108.305 203.586 108.305C197.459 108.305 191.275 108.305 185.148 108.305C182.228 108.305 179.995 110.596 180.052 113.516C179.938 123.65 179.251 130.75 177.934 140.771C177.418 144.034 179.709 146.783 182.973 146.783C190.588 146.783 198.203 146.783 205.819 146.783C209.025 146.783 211.945 144.034 211.945 140.771Z" fill="black"/>
<path d="M199.005 197.743C199.005 198.259 198.49 198.66 197.975 198.545C194.94 197.858 185.836 195.968 182.286 195.968C178.736 195.968 169.632 197.858 166.597 198.545C166.082 198.66 165.566 198.259 165.566 197.743C165.566 196.713 166.254 195.854 167.284 195.625C170.834 194.88 178.965 193.22 182.286 193.22C185.607 193.22 193.68 194.88 197.288 195.625C198.261 195.854 199.005 196.713 199.005 197.743Z" fill="#263238"/>
<path d="M195.285 199.977C195.285 201.18 196.259 202.153 197.461 202.153C198.663 202.153 199.637 201.18 199.637 199.977C199.637 198.775 198.663 197.801 197.461 197.801C196.259 197.801 195.285 198.775 195.285 199.977Z" fill="#263238"/>
<path d="M167.686 199.977C167.686 201.18 166.712 202.153 165.51 202.153C164.307 202.153 163.334 201.18 163.334 199.977C163.334 198.775 164.307 197.801 165.51 197.801C166.712 197.801 167.686 198.775 167.686 199.977Z" fill="#263238"/>
<path d="M184.234 199.29C184.234 200.492 183.261 201.465 182.059 201.465C180.856 201.465 179.883 200.492 179.883 199.29C179.883 198.087 180.856 197.114 182.059 197.114C183.261 197.114 184.234 198.087 184.234 199.29Z" fill="#263238"/>
<path d="M190.759 158.293C179.651 158.751 168.486 158.293 157.435 157.091C155.145 156.862 153.312 158.465 153.312 160.755C153.312 160.984 153.312 161.099 153.312 161.328C153.312 163.618 155.145 165.679 157.435 165.908C168.486 167.111 179.651 167.512 190.759 167.111C190.759 163.561 190.759 161.843 190.759 158.293Z" fill="#889CCA"/>
<path opacity="0.2" d="M190.759 158.292C179.651 158.75 168.486 158.292 157.435 157.09C155.145 156.861 153.312 158.464 153.312 160.754C153.312 160.983 153.312 161.098 153.312 161.327C153.312 163.617 155.145 165.678 157.435 165.907C168.486 167.11 179.651 167.511 190.759 167.11C190.759 163.56 190.759 161.842 190.759 158.292Z" fill="black"/>
<path d="M207.423 165.907C201.067 166.48 194.769 166.938 188.413 167.167C186.237 167.224 184.52 165.506 184.52 163.331C184.52 162.93 184.52 162.758 184.52 162.357C184.52 160.181 186.295 158.406 188.413 158.349C194.826 158.12 201.067 157.662 207.423 157.089C209.599 156.86 211.316 158.406 211.316 160.525C211.316 160.926 211.316 161.097 211.316 161.498C211.316 163.674 209.541 165.678 207.423 165.907Z" fill="#889CCA"/>
<path d="M147.3 184.287L142.834 184.574L146.728 171.977L150.392 177.359L147.3 184.287Z" fill="#FFC3BD"/>
<g opacity="0.2">
<path d="M146.785 171.806L145.182 177.188L149.533 179.364L150.507 177.188L146.785 171.806Z" fill="black"/>
</g>
<path d="M147.93 183.258C147.987 183.83 147.93 184.403 147.758 184.976C147.128 187.037 145.296 192.419 145.296 192.419L144.838 192.305C144.838 192.305 145.525 189.556 145.697 188.182C145.869 186.751 145.239 187.838 144.036 188.984C142.834 190.186 140.429 190.93 137.452 190.186C133.959 189.27 132.642 188.697 133.902 188.125C135.161 187.495 137.623 187.609 137.623 187.609C137.623 187.609 142.261 185.834 143.75 180.051C144.094 178.734 144.609 178.906 145.239 179.536C146.67 181.025 148.502 181.998 148.502 181.998C148.273 182.456 147.873 183.086 147.93 183.258Z" fill="#FF8000"/>
<path d="M176.675 189.383L173.583 192.589L168.086 180.565L174.442 182.168L176.675 189.383Z" fill="#FFC3BD"/>
<g opacity="0.2">
<path d="M168.029 180.394L170.377 185.49L175.072 184.23L174.385 181.997L168.029 180.394Z" fill="black"/>
</g>
<path d="M176.502 188.238C176.96 188.639 177.304 189.097 177.533 189.613C178.392 191.559 180.625 196.827 180.625 196.827L180.224 197.056C180.224 197.056 178.907 194.537 178.106 193.392C177.304 192.189 177.533 193.392 177.418 195.109C177.304 196.77 175.987 199.003 173.296 200.377C170.089 201.98 168.715 202.496 169.231 201.179C169.803 199.862 171.693 198.316 171.693 198.316C171.693 198.316 173.983 193.907 171.292 188.639C170.662 187.437 171.177 187.208 172.093 187.265C174.155 187.437 176.159 186.921 176.159 186.921C176.216 187.379 176.331 188.124 176.502 188.238Z" fill="#FF8000"/>
<path d="M189.386 158.351H167.056C170.72 160.927 175.014 182.399 175.014 182.399L169.002 184.461C169.002 184.461 167.285 180.739 164.078 171.978C162.418 167.512 160.471 162.989 159.326 158.522C158.982 157.148 158.696 155.717 158.524 154.343C158.467 154.114 158.467 153.942 158.467 153.713C158.467 153.598 158.467 153.426 158.467 153.312C158.467 153.197 158.467 153.083 158.467 152.968V152.911C158.467 152.797 158.467 152.739 158.524 152.625V152.568C158.524 152.453 158.581 152.396 158.581 152.281C158.581 152.281 158.581 152.281 158.581 152.224C158.639 152.11 158.639 151.995 158.696 151.938V151.88C158.753 151.766 158.81 151.651 158.81 151.594C158.81 151.594 158.81 151.537 158.868 151.537C158.925 151.422 158.982 151.365 159.039 151.251C159.154 151.022 159.268 150.85 159.44 150.678L159.497 150.621C159.555 150.564 159.669 150.449 159.726 150.335C159.898 150.163 160.07 149.991 160.299 149.819C160.299 149.819 160.299 149.819 160.356 149.819C160.471 149.762 160.585 149.647 160.7 149.533C160.814 149.476 160.929 149.361 161.043 149.304L161.444 149.075C161.731 148.903 161.96 148.789 162.246 148.617C162.246 148.617 162.246 148.617 162.303 148.617C162.532 148.502 162.818 148.388 163.047 148.273L163.334 148.159C163.334 148.159 163.334 148.159 163.391 148.159C165.91 148.96 170.491 151.079 175.358 153.14C180.912 155.488 186.924 157.893 190.761 158.351C190.245 158.351 189.844 158.351 189.386 158.351Z" fill="#407BFF"/>
<path opacity="0.4" d="M189.386 158.351H167.056C170.72 160.927 175.014 182.399 175.014 182.399L169.002 184.461C169.002 184.461 167.285 180.739 164.078 171.978C162.418 167.512 160.471 162.989 159.326 158.522C158.982 157.148 158.696 155.717 158.524 154.343C158.467 154.114 158.467 153.942 158.467 153.713C158.467 153.598 158.467 153.426 158.467 153.312C158.467 153.197 158.467 153.083 158.467 152.968V152.911C158.467 152.797 158.467 152.739 158.524 152.625V152.568C158.524 152.453 158.581 152.396 158.581 152.281C158.581 152.281 158.581 152.281 158.581 152.224C158.639 152.11 158.639 151.995 158.696 151.938V151.88C158.753 151.766 158.81 151.651 158.81 151.594C158.81 151.594 158.81 151.537 158.868 151.537C158.925 151.422 158.982 151.365 159.039 151.251C159.154 151.022 159.268 150.85 159.44 150.678L159.497 150.621C159.555 150.564 159.669 150.449 159.726 150.335C159.898 150.163 160.07 149.991 160.299 149.819C160.299 149.819 160.299 149.819 160.356 149.819C160.471 149.762 160.585 149.647 160.7 149.533C160.814 149.476 160.929 149.361 161.043 149.304L161.444 149.075C161.731 148.903 161.96 148.789 162.246 148.617C162.246 148.617 162.246 148.617 162.303 148.617C162.532 148.502 162.818 148.388 163.047 148.273L163.334 148.159C163.334 148.159 163.334 148.159 163.391 148.159C165.91 148.96 170.491 151.079 175.358 153.14C180.912 155.488 186.924 157.893 190.761 158.351C190.245 158.351 189.844 158.351 189.386 158.351Z" fill="#305ECC"/>
<path d="M190.647 158.292C186.811 157.777 180.798 155.43 175.244 153.082C170.32 150.963 165.739 148.902 163.277 148.1C170.721 144.951 184.005 145.066 184.005 145.066C184.005 145.066 187.44 141.802 191.277 141C191.792 140.886 192.307 140.829 192.823 140.829C192.88 140.886 192.88 140.943 192.937 141C199.522 149.818 197.117 157.434 190.647 158.292Z" fill="#407BFF"/>
<path d="M165.395 128.919C168.658 131.897 175.014 124.854 176.045 124.052C178.22 122.277 184.691 116.208 184.347 114.147C183.316 107.963 173.182 116.723 170.261 122.735L165.395 128.919Z" fill="#FF8000"/>
<path d="M193.796 110.368C195.4 110.711 197.175 110.139 198.32 111.341C199.465 112.543 199.923 114.261 200.095 115.922C200.324 118.212 200.038 120.56 199.751 122.85C199.408 125.656 199.007 128.404 198.663 131.21C198.434 133.099 198.549 136.191 198.95 138.081C199.064 138.539 198.778 139.111 198.32 139.283C198.32 139.283 185.666 139.741 182.001 139.569C180.054 139.512 181.371 134.359 180.799 131.381C180.684 130.694 179.367 127.946 179.138 127.259C178.222 123.938 178.852 121.648 179.654 118.327C180.283 115.922 180.512 112.429 181.772 112.143C184.005 111.685 189.273 109.451 193.796 110.368Z" fill="#FF8000"/>
<path d="M195.571 112.772C195.743 112.543 200.209 108.764 201.011 113.116C202.156 119.128 199.808 125.025 199.808 125.025C199.808 125.025 199.293 131.553 197.403 132.183C195.514 132.812 193.739 132.984 193.052 131.896C192.422 130.808 192.422 129.091 192.422 129.091C192.422 129.091 192.651 117.238 195.571 112.772Z" fill="#FF8000"/>
<path d="M192.536 102.122C192.078 104.87 191.677 109.966 193.681 111.741C193.681 111.741 188.814 114.261 185.665 118.67C183.833 117.238 183.833 115.406 184.176 113.974C184.463 112.886 185.264 112.028 186.238 111.512C188.127 110.482 187.955 108.535 187.44 106.702L192.536 102.122Z" fill="#E8BFBF"/>
<path opacity="0.2" d="M191.905 106.817L190.073 107.504C189.328 107.791 188.47 107.962 187.668 107.905C187.725 108.306 187.897 109.165 187.668 109.623C188.813 110.024 190.531 109.508 191.275 108.478C191.562 108.077 191.733 107.332 191.905 106.817Z" fill="black"/>
<path d="M199.062 139.283L199.578 140.944C199.635 141.058 199.52 141.23 199.291 141.23L180.282 141.803C180.11 141.803 179.995 141.745 179.938 141.631L179.709 139.97C179.709 139.856 179.824 139.741 179.995 139.741L198.719 139.169C198.833 139.169 198.948 139.226 199.062 139.283Z" fill="#407BFF"/>
<path d="M158.982 151.192C159.097 150.963 159.211 150.792 159.383 150.62C159.269 150.849 159.097 151.021 158.982 151.192Z" fill="#407BFF"/>
<path d="M160.243 149.818C160.013 149.99 159.842 150.162 159.67 150.333C159.842 150.162 160.071 149.933 160.243 149.818Z" fill="#407BFF"/>
<path opacity="0.6" d="M158.982 151.192C159.097 150.963 159.211 150.792 159.383 150.62C159.269 150.849 159.097 151.021 158.982 151.192Z" fill="black"/>
<path opacity="0.6" d="M160.243 149.818C160.013 149.99 159.842 150.162 159.67 150.333C159.842 150.162 160.071 149.933 160.243 149.818Z" fill="black"/>
<path d="M166.885 126.973C165.739 126.114 164.766 124.281 164.48 123.136C164.422 122.793 164.365 122.22 164.365 121.533C164.365 118.212 165.339 112.143 165.339 112.143L168.03 111.227C168.03 111.227 168.889 115.864 169.06 118.384C169.118 118.899 169.175 119.472 169.232 120.102C169.347 121.247 169.518 122.449 169.633 123.48L166.885 126.973Z" fill="#E8BFBF"/>
<path d="M165.396 128.919C164.595 128.174 164.423 127.258 164.022 125.312C163.621 123.479 164.079 121.246 164.48 121.532C164.537 121.532 164.537 121.59 164.595 121.704C165.224 123.25 167.801 121.876 168.488 121.132C168.774 120.845 169.118 120.502 169.29 120.158C169.462 119.872 169.519 119.528 169.29 119.242C170.091 118.899 170.721 121.991 170.32 122.735L170.149 123.307C169.862 124.224 169.347 125.082 168.717 125.827L167.286 127.545L165.396 128.919Z" fill="#FF8000"/>
<path d="M168.144 111.685L168.487 106.99C168.487 106.99 167.915 107.276 165.911 107.963C164.594 108.421 162.819 107.62 163.22 108.479C163.85 109.853 165.396 112.143 165.396 112.143L168.144 111.685Z" fill="#E8BFBF"/>
<path d="M168.43 106.989L166.426 102.294L163.792 103.897C163.048 105.443 163.163 108.478 163.163 108.478C163.163 108.478 166.827 108.649 168.43 106.989Z" fill="#E8BFBF"/>
<path d="M182.056 94.2203C180.052 97.9994 180.51 102.809 182.686 106.588C186.351 104.126 191.618 106.073 195.397 103.782C197.917 102.236 199.062 98.9728 198.432 96.1098C197.745 93.0179 194.367 89.4106 191.16 89.0671C187.496 88.7235 183.774 91.0138 182.056 94.2203Z" fill="#263238"/>
<path d="M194.424 95.7097C193.278 92.675 189.9 91.1863 186.865 92.3315C182.628 93.9347 181.827 100.29 182.628 104.184C183.487 108.536 188.698 109.967 192.076 106.703C194.309 104.528 194.424 102.695 194.767 98.4009C194.882 97.4847 194.767 96.5686 194.424 95.7097Z" fill="#E8BFBF"/>
<path d="M185.205 102.694C184.747 102.808 184.346 102.694 183.945 102.408C184.461 101.721 184.919 100.976 185.262 100.175L185.205 102.694Z" fill="#ED893E"/>
<path d="M188.469 103.096C188.526 103.039 188.469 102.982 188.469 102.925C188.412 102.867 188.355 102.925 188.297 102.925C187.725 103.612 186.866 104.013 186.007 103.955C185.95 103.955 185.893 104.013 185.893 104.07C185.893 104.127 185.95 104.184 186.007 104.184C186.179 104.184 186.351 104.184 186.522 104.184C187.267 104.127 187.954 103.726 188.469 103.096Z" fill="#263238"/>
<path d="M188.298 90.6709C187.84 91.129 187.497 91.6443 187.268 92.2741C191.848 94.5645 194.196 100.462 194.425 105.615C196.143 104.184 199.235 102.695 200.723 100.863C202.384 98.8016 201.525 95.7669 199.635 93.9919C198.318 92.7322 195.627 91.0717 194.081 90.0983C192.249 89.0104 189.844 89.1822 188.298 90.6709Z" fill="#263238"/>
<path d="M196.027 101.378C196.027 100.577 195.454 99.9467 194.653 99.8894C193.565 99.8894 192.878 101.206 192.706 102.122C192.534 103.153 193.164 104.069 194.195 103.611C194.939 103.268 195.569 102.638 195.855 101.893C195.97 101.722 196.027 101.55 196.027 101.378Z" fill="#E8BFBF"/>
<path d="M188.126 99.0302C188.126 99.4883 187.897 99.8319 187.611 99.8319C187.325 99.8319 187.096 99.4883 187.096 99.0875C187.096 98.6294 187.325 98.2859 187.611 98.2859C187.897 98.2859 188.126 98.6294 188.126 99.0302Z" fill="#263238"/>
<path d="M184.117 99.4883C184.117 99.9463 183.888 100.29 183.601 100.29C183.315 100.29 183.086 99.9463 183.086 99.5455C183.086 99.0874 183.315 98.7439 183.601 98.7439C183.888 98.7439 184.117 99.0302 184.117 99.4883Z" fill="#263238"/>
<path d="M183.718 98.7441L182.688 98.4578C182.688 98.4578 183.26 99.2594 183.718 98.7441Z" fill="#263238"/>
<path d="M189.328 97.3699C189.385 97.3699 189.385 97.3699 189.443 97.3126C189.5 97.2554 189.557 97.0836 189.443 97.0263C188.927 96.4538 188.126 96.1675 187.324 96.2247C187.21 96.2247 187.152 96.3392 187.152 96.4538C187.152 96.5683 187.267 96.6255 187.381 96.6255C188.011 96.5683 188.698 96.7973 189.156 97.3126C189.214 97.3699 189.271 97.4271 189.328 97.3699Z" fill="#263238"/>
<path d="M182.572 98.1142C182.629 98.1142 182.629 98.0569 182.629 98.0569C182.973 97.4844 183.603 97.1408 184.29 97.1408C184.404 97.1408 184.519 97.0835 184.519 96.969C184.519 96.8545 184.404 96.74 184.29 96.74C183.488 96.74 182.744 97.1408 182.286 97.8279C182.228 97.9424 182.228 98.0569 182.343 98.1142C182.457 98.1714 182.515 98.1714 182.572 98.1142Z" fill="#263238"/>
<path d="M187.724 98.286L186.693 97.9998C186.693 97.9998 187.266 98.8014 187.724 98.286Z" fill="#263238"/>
<path d="M181.484 100.29C181.37 102.924 182.572 106.932 184.462 108.821C182.687 109.566 180.339 107.676 179.022 106.302C177.705 104.928 177.19 102.924 177.305 101.034C177.476 99.1448 178.278 97.3125 179.366 95.7665C181.084 93.1327 183.66 91.3576 186.523 90.0407C187.096 89.7544 187.955 89.6399 188.126 90.2697C188.241 90.6705 187.897 91.0714 187.611 91.3576C184.519 94.106 182.172 95.9956 181.484 100.29Z" fill="#263238"/>
<path d="M191.848 107.677C191.733 107.62 191.676 107.505 191.733 107.448C194.997 101.149 189.042 94.3357 187.152 92.3889C187.095 92.3317 187.095 92.2171 187.152 92.1599C187.21 92.1026 187.324 92.1026 187.381 92.1599C189.328 94.1639 195.398 101.092 192.019 107.562C192.019 107.677 191.962 107.677 191.848 107.677Z" fill="#263238"/>
<path d="M194.311 103.153L193.566 105.443L194.082 106.131L194.597 105.501L194.311 103.153Z" fill="#407BFF"/>
<path d="M193.967 109.05C193.967 108.878 193.91 108.707 193.91 108.478C193.852 107.504 194.539 106.588 195.513 106.416C195.799 106.359 196.028 106.187 196.143 105.901C196.486 104.87 196.658 104.584 197.002 103.553C197.918 103.324 199.006 103.668 199.979 103.782C200.265 104.928 200.265 106.13 200.036 107.275C199.979 107.504 199.922 107.79 199.75 108.02C199.578 108.191 197.689 109.508 196.887 109.795C196.028 109.966 194.883 109.165 193.967 109.05Z" fill="#E8BFBF"/>
<path d="M196.773 109.738C196.773 109.738 199.292 126 196.715 128.519C195.17 129.95 193.853 129.149 193.051 128.29C192.421 127.603 192.135 126.687 192.249 125.771L194.024 109.108C193.967 109.051 195.742 108.02 196.773 109.738Z" fill="#E8BFBF"/>
<path d="M197.803 157.034C197.116 157.435 196.315 157.721 195.513 157.893C195.284 157.95 195.112 158.007 194.883 158.064C193.967 158.293 192.936 158.351 191.963 158.351C191.677 158.351 191.333 158.351 190.99 158.293C190.875 158.293 190.76 158.293 190.646 158.236C190.531 158.236 190.417 158.179 190.302 158.179C189.959 158.122 189.558 158.064 189.157 157.95C188.756 157.835 188.298 157.778 187.84 157.606C187.669 157.549 187.554 157.549 187.382 157.492C186.81 157.32 186.237 157.148 185.664 156.976C185.435 156.919 185.264 156.862 185.035 156.805C183.889 156.461 182.744 156.003 181.542 155.545C181.37 155.488 181.256 155.43 181.084 155.373C179.538 154.801 177.992 154.114 176.446 153.484C176.045 153.312 175.644 153.14 175.243 152.968C170.319 150.85 165.739 148.788 163.276 147.987C163.276 147.987 163.276 147.987 163.219 147.987L162.933 148.101C162.647 148.216 162.418 148.33 162.189 148.445C162.189 148.445 162.189 148.445 162.131 148.445C161.845 148.617 161.559 148.731 161.33 148.903L160.929 149.132C160.814 149.189 160.7 149.304 160.585 149.361C160.471 149.476 160.356 149.533 160.242 149.647C160.242 149.647 160.242 149.647 160.184 149.647C159.955 149.819 159.784 149.991 159.612 150.163C159.555 150.22 159.44 150.334 159.383 150.449L159.326 150.506C159.154 150.678 159.039 150.907 158.925 151.079C158.868 151.136 158.81 151.251 158.753 151.365C158.753 151.365 158.753 151.422 158.696 151.422C158.638 151.537 158.581 151.651 158.581 151.709V151.766C158.524 151.88 158.524 151.995 158.467 152.052C158.467 152.052 158.467 152.052 158.467 152.109C158.409 152.224 158.409 152.281 158.409 152.396V152.453C158.409 152.568 158.409 152.625 158.352 152.739V152.797C158.352 152.911 158.352 153.026 158.352 153.14C158.352 153.255 158.352 153.426 158.352 153.541C158.352 153.77 158.409 153.942 158.409 154.171C158.581 155.545 158.868 156.976 159.211 158.351C158.409 160.355 157.608 162.301 156.806 164.191C156.52 164.821 156.291 165.451 156.005 166.023C155.088 168.142 154.23 170.089 153.428 171.806C153.313 172.035 153.199 172.322 153.084 172.551C152.741 173.238 152.455 173.925 152.168 174.498C152.054 174.727 151.997 174.898 151.882 175.07C151.481 175.986 151.138 176.731 150.851 177.303C150.794 177.36 150.794 177.475 150.737 177.532C150.68 177.589 150.68 177.704 150.622 177.761C150.622 177.819 150.565 177.876 150.508 177.933C150.279 178.448 150.336 178.277 150.336 178.277L144.896 175.127C144.896 175.127 148.962 160.641 151.653 147.3C152.626 142.261 156.749 138.425 161.845 137.852C172.323 136.65 186.695 140.772 186.695 140.772C186.695 140.772 186.81 140.772 187.039 140.772C187.153 140.772 187.268 140.772 187.382 140.772C187.497 140.772 187.554 140.772 187.669 140.772C188.241 140.772 189.043 140.772 189.959 140.715C190.302 140.715 190.703 140.715 191.047 140.715H191.219C191.505 140.715 191.791 140.715 192.135 140.715C192.306 140.715 192.535 140.715 192.707 140.715C192.822 140.715 192.936 140.715 193.108 140.715C193.28 140.715 193.452 140.715 193.566 140.715C195.398 140.715 197.231 140.658 198.777 140.658C203.93 149.59 202.04 154.801 197.803 157.034Z" fill="#407BFF"/>
<g opacity="0.3">
<path d="M197.803 157.034C197.116 157.435 196.315 157.721 195.513 157.893C195.284 157.95 195.112 158.007 194.883 158.064C193.967 158.293 192.936 158.351 191.963 158.351C191.677 158.351 191.333 158.351 190.99 158.293C190.875 158.293 190.76 158.293 190.646 158.236C190.531 158.236 190.417 158.179 190.302 158.179C189.959 158.122 189.558 158.064 189.157 157.95C188.756 157.835 188.298 157.778 187.84 157.606C187.669 157.549 187.554 157.549 187.382 157.492C186.81 157.32 186.237 157.148 185.664 156.976C185.435 156.919 185.264 156.862 185.035 156.805C183.889 156.461 182.744 156.003 181.542 155.545C181.37 155.488 181.256 155.43 181.084 155.373C179.538 154.801 177.992 154.114 176.446 153.484C176.045 153.312 175.644 153.14 175.243 152.968C170.319 150.85 165.739 148.788 163.276 147.987C163.276 147.987 163.276 147.987 163.219 147.987L162.933 148.101C162.647 148.216 162.418 148.33 162.189 148.445C162.189 148.445 162.189 148.445 162.131 148.445C161.845 148.617 161.559 148.731 161.33 148.903L160.929 149.132C160.814 149.189 160.7 149.304 160.585 149.361C160.471 149.476 160.356 149.533 160.242 149.647C160.242 149.647 160.242 149.647 160.184 149.647C159.955 149.819 159.784 149.991 159.612 150.163C159.555 150.22 159.44 150.334 159.383 150.449L159.326 150.506C159.154 150.678 159.039 150.907 158.925 151.079C158.868 151.136 158.81 151.251 158.753 151.365C158.753 151.365 158.753 151.422 158.696 151.422C158.638 151.537 158.581 151.651 158.581 151.709V151.766C158.524 151.88 158.524 151.995 158.467 152.052C158.467 152.052 158.467 152.052 158.467 152.109C158.409 152.224 158.409 152.281 158.409 152.396V152.453C158.409 152.568 158.409 152.625 158.352 152.739V152.797C158.352 152.911 158.352 153.026 158.352 153.14C158.352 153.255 158.352 153.426 158.352 153.541C158.352 153.77 158.409 153.942 158.409 154.171C158.581 155.545 158.868 156.976 159.211 158.351C158.409 160.355 157.608 162.301 156.806 164.191C156.52 164.821 156.291 165.451 156.005 166.023C155.088 168.142 154.23 170.089 153.428 171.806C153.313 172.035 153.199 172.322 153.084 172.551C152.741 173.238 152.455 173.925 152.168 174.498C152.054 174.727 151.997 174.898 151.882 175.07C151.481 175.986 151.138 176.731 150.851 177.303C150.794 177.36 150.794 177.475 150.737 177.532C150.68 177.589 150.68 177.704 150.622 177.761C150.622 177.819 150.565 177.876 150.508 177.933C150.279 178.448 150.336 178.277 150.336 178.277L144.896 175.127C144.896 175.127 148.962 160.641 151.653 147.3C152.626 142.261 156.749 138.425 161.845 137.852C172.323 136.65 186.695 140.772 186.695 140.772C186.695 140.772 186.81 140.772 187.039 140.772C187.153 140.772 187.268 140.772 187.382 140.772C187.497 140.772 187.554 140.772 187.669 140.772C188.241 140.772 189.043 140.772 189.959 140.715C190.302 140.715 190.703 140.715 191.047 140.715H191.219C191.505 140.715 191.791 140.715 192.135 140.715C192.306 140.715 192.535 140.715 192.707 140.715C192.822 140.715 192.936 140.715 193.108 140.715C193.28 140.715 193.452 140.715 193.566 140.715C195.398 140.715 197.231 140.658 198.777 140.658C203.93 149.59 202.04 154.801 197.803 157.034Z" fill="#476CD2"/>
</g>
<path d="M107.621 174.267H102.238V196.655H107.621V174.267Z" fill="#263238"/>
<path opacity="0.2" d="M107.621 174.267H102.238V196.655H107.621V174.267Z" fill="white"/>
<path d="M106.819 160.068H102.982V174.382H106.819V160.068Z" fill="#263238"/>
<path opacity="0.2" d="M106.819 162.702L102.982 164.133V160.068H106.819V162.702Z" fill="black"/>
<path d="M120.332 199.976C120.332 201.179 121.305 202.152 122.508 202.152C123.71 202.152 124.684 201.179 124.684 199.976C124.684 198.774 123.71 197.8 122.508 197.8C121.305 197.8 120.332 198.774 120.332 199.976Z" fill="#263238"/>
<path d="M88.0958 199.976C88.0958 201.179 87.1224 202.152 85.92 202.152C84.7175 202.152 83.7441 201.179 83.7441 199.976C83.7441 198.774 84.7175 197.8 85.92 197.8C87.1224 197.8 88.0958 198.774 88.0958 199.976Z" fill="#263238"/>
<path d="M107.106 199.289C107.106 200.491 106.132 201.464 104.93 201.464C103.727 201.464 102.754 200.491 102.754 199.289C102.754 198.086 103.727 197.113 104.93 197.113C106.132 197.113 107.106 198.086 107.106 199.289Z" fill="#263238"/>
<path d="M81.1115 197.056C81.226 197.572 81.6841 197.915 82.1994 197.915L105.045 197.629L126.46 198.087C126.975 198.087 127.434 197.743 127.548 197.228C127.663 196.655 127.262 196.083 126.689 195.968L115.008 193.678C113.806 193.449 112.546 193.334 111.344 193.334H98.7471C97.4874 193.334 96.2849 193.449 95.0825 193.678L81.9131 195.797C81.3978 195.911 80.997 196.484 81.1115 197.056Z" fill="#263238"/>
<path d="M80.7676 160.01L81.5119 160.068C81.2829 160.068 81.0539 160.068 80.7676 160.01Z" fill="#263238"/>
<path d="M111.4 116.264C111.4 116.322 111.4 116.322 111.4 116.379V155.544H76.3008V115.978C76.3008 115.692 76.3008 115.405 76.358 115.062H76.3008L76.6443 109.565C76.7589 108.019 77.3887 106.53 78.4766 105.385L81.9694 101.721L83.8016 92.5593C84.0879 91.1278 85.3476 90.0972 86.7791 90.0972H94.8525C96.1695 90.0972 97.3146 90.956 97.7154 92.1585L101.094 102.064L107.564 106.072C109.224 107.103 110.312 108.821 110.599 110.71L111.457 116.322L111.4 116.264Z" fill="#666769"/>
<path opacity="0.1" d="M111.4 116.264C111.4 116.322 111.4 116.322 111.4 116.379V155.544H80.9961V115.978C80.9961 115.692 80.9961 115.405 81.0533 115.062H80.9961L81.3396 109.565C81.4542 108.019 82.084 106.53 83.1719 105.385L86.6647 101.721L88.4969 92.5593C88.7832 91.1278 90.0429 90.0972 91.4744 90.0972H94.8526C96.1696 90.0972 97.3147 90.956 97.7155 92.1585L101.094 102.064L107.564 106.072C109.224 107.103 110.312 108.821 110.599 110.71L111.458 116.322L111.4 116.264Z" fill="black"/>
<path d="M114.434 161.957H95.5957C95.5957 161.957 99.8328 163.674 102.868 164.419V167.453H107.162V164.419C110.197 163.674 114.434 161.957 114.434 161.957Z" fill="#263238"/>
<path d="M96.5703 153.712C107.678 154.17 118.844 153.712 129.895 152.51C132.185 152.281 134.017 153.884 134.017 156.174C134.017 156.403 134.017 156.518 134.017 156.747C134.017 159.037 132.185 161.098 129.895 161.327C118.844 162.53 107.678 162.931 96.5703 162.53C96.5703 158.98 96.5703 157.205 96.5703 153.712Z" fill="#9E9E9E"/>
<path opacity="0.2" d="M96.5703 153.712C107.678 154.17 118.844 153.712 129.895 152.51C132.185 152.281 134.017 153.884 134.017 156.174C134.017 156.403 134.017 156.518 134.017 156.747C134.017 159.037 132.185 161.098 129.895 161.327C118.844 162.53 107.678 162.931 96.5703 162.53C96.5703 158.98 96.5703 157.205 96.5703 153.712Z" fill="black"/>
<path d="M79.9072 161.327C86.2629 161.9 92.5614 162.358 98.917 162.587C101.093 162.644 102.811 160.926 102.811 158.75C102.811 158.35 102.811 158.178 102.811 157.777C102.811 155.601 101.036 153.826 98.917 153.769C92.5041 153.54 86.2629 153.082 79.9072 152.509C77.7314 152.28 76.0137 153.826 76.0137 155.945C76.0137 156.346 76.0137 156.517 76.0137 156.918C76.0137 159.094 77.7314 161.098 79.9072 161.327Z" fill="#4D5159"/>
<path d="M132.299 106.531L132.814 108.306L131.784 109.795C131.784 109.795 130.295 111.398 128.062 111.913C127.318 112.085 126.516 111.742 126.058 111.054L125.829 110.711C125.714 110.539 125.657 110.425 125.6 110.253C125.313 109.337 125.543 108.764 126.287 108.134L128.806 105.443C128.978 105.271 132.127 104.699 132.127 104.699C132.585 104.756 132.356 106.187 132.299 106.531Z" fill="#FFB573"/>
<path d="M116.209 117.924C116.209 117.924 123.767 110.08 125.256 109.278L125.771 108.877L128.176 111.912C127.832 112.256 116.667 131.666 112.43 124.394C111.628 123.02 110.884 121.703 110.254 120.329C109.91 119.642 107.792 115.348 107.448 114.603C107.391 114.489 107.277 114.202 107.105 113.859C105.559 110.423 104.986 106.415 108.193 104.068C109.395 103.552 111.342 104.984 111.8 106.816L116.209 117.924Z" fill="#0F1A38"/>
<path d="M141.689 187.265L143.178 196.827H139.17L136.307 187.265H141.689Z" fill="#FFB573"/>
<path d="M143.292 196.199L139.112 196.313C138.94 196.313 138.768 196.428 138.768 196.6C138.425 197.573 138.31 198.604 138.539 199.577C138.711 200.379 138.94 201.123 139.169 201.123C141.058 201.123 146.04 201.18 151.021 201.123C153.083 201.18 153.083 199.004 151.479 199.004C147.586 198.89 145.525 197.516 144.093 196.485C143.921 196.313 143.578 196.199 143.292 196.199Z" fill="#407BFF"/>
<path opacity="0.2" d="M142.433 191.903L141.689 187.265H136.307L137.967 192.876L142.433 191.903Z" fill="black"/>
<path d="M109.852 186.464L106.76 194.481H102.352L104.356 186.579L109.852 186.464Z" fill="#FFB573"/>
<path opacity="0.2" d="M103.441 190.128L104.3 185.777L109.854 186.464L108.48 190.243L103.441 190.128Z" fill="black"/>
<path d="M106.876 193.792L103.154 192.075C103.039 191.96 102.81 191.96 102.696 192.075L99.9474 194.537C99.6611 194.88 99.7756 195.396 100.119 195.682C101.551 196.77 102.524 197.743 104.356 199.175C105.444 200.034 107.563 201.866 109.052 203.068C110.597 204.271 111.685 202.782 111.113 202.152C108.651 199.289 107.792 196.083 107.334 194.48C107.276 194.25 107.105 193.964 106.876 193.792Z" fill="#407BFF"/>
<path d="M113.632 141.458C108.88 128.632 112.029 116.894 111.399 110.367C111.113 107.046 108.651 104.355 105.387 103.725C102.123 103.095 98.1726 102.408 94.3363 101.893C93.9927 101.835 93.5919 101.835 93.2484 101.835C89.1258 101.893 85.8048 105.271 85.8621 109.394C86.2056 128.69 92.3895 141.458 92.3895 141.458L102.41 141.401L113.632 141.458Z" fill="#407BFF"/>
<path d="M102.81 96.5107C102.123 99.1446 101.894 102.466 105.616 103.783C106.646 105.443 107.162 107.161 103.211 106.531C100.062 106.13 97.1987 104.527 95.252 102.008C97.5995 99.9462 97.1987 93.5905 96.5689 90.0405L102.81 96.5107Z" fill="#FFB573"/>
<path d="M116.093 139.568C116.093 139.568 138.996 138.939 139.512 149.302C140.256 164.19 142.775 189.67 142.775 189.67L136.592 191.044C136.592 191.044 127.774 166.079 127.43 154.456C118.212 152.623 104.412 155.372 101.607 149.36C100.232 146.21 99.8889 142.832 100.576 139.568H116.093Z" fill="#7B91C7"/>
<path d="M107.275 138.423C107.275 138.423 122.792 140.599 122.048 150.963C121.246 162.3 109.337 188.581 109.337 188.581H103.324C103.324 188.581 107.333 164.705 109.108 153.138C100.748 153.138 95.48 154.226 92.7316 148.157C91.3574 145.008 91.0139 141.629 91.701 138.366L107.275 138.423Z" fill="#8CA4DD"/>
<path d="M108.881 103.954C110.198 105.099 112.316 106.874 112.717 117.638C112.832 121.074 112.316 124.509 112.373 127.945C112.488 131.896 113.461 134.701 114.778 138.423C114.778 139.282 113.461 139.797 112.316 140.027C109.969 134.873 108.48 129.949 108.537 124.28C108.881 103.954 102.525 102.064 102.754 101.32L108.881 103.954Z" fill="#15234A"/>
<path opacity="0.3" d="M99.891 98.4574C100.693 98.9727 101.666 99.259 102.41 99.0872C102.41 98.4574 102.468 97.8276 102.525 97.1404L98.4022 93.7622C98.2877 94.2203 98.2305 94.6211 98.2305 95.0792C98.2305 96.3961 98.8031 97.713 99.891 98.4574Z" fill="black"/>
<path d="M106.016 80.8786C110.367 83.3407 110.367 90.269 109.05 94.2771C108.649 95.4795 107.905 96.5102 106.932 97.2545C104.298 99.2586 100.519 98.686 98.5147 96.0521C96.3961 93.361 96.6824 90.6698 96.7969 86.0319C96.9687 81.3367 101.664 78.4165 106.016 80.8786Z" fill="#FFB573"/>
<path opacity="0.2" d="M105.329 92.5599C106.703 93.1897 109.337 93.3615 109.337 93.3615C108.936 95.251 107.906 96.5107 106.99 97.1978C104.356 99.2019 100.577 98.6293 98.5726 95.9954C96.8548 93.8196 96.2822 92.3308 96.7976 88.3228C100.176 90.2695 102.294 91.2429 105.329 92.5599Z" fill="black"/>
<path d="M97.4262 89.6969C97.4835 89.2961 97.1972 88.8953 96.8536 88.609C96.5101 88.3227 96.1665 88.0937 95.9948 87.6929C95.823 87.3493 95.8803 86.9485 95.8803 86.5477C95.9375 85.4598 96.052 84.3719 96.1093 83.284C96.2811 80.7646 100.232 82.2533 100.117 84.3719C100.06 85.8033 99.0295 85.8606 98.1706 86.7195C97.2545 87.6356 97.598 88.4945 97.4262 89.6969Z" fill="#FFB573"/>
<path opacity="0.2" d="M97.4262 89.6969C97.4835 89.2961 97.1972 88.8953 96.8536 88.609C96.5101 88.3227 96.1665 88.0937 95.9948 87.6929C95.823 87.3493 95.8803 86.9485 95.8803 86.5477C95.9375 85.4598 96.052 84.3719 96.1093 83.284C96.2811 80.7646 100.232 82.2533 100.117 84.3719C100.06 85.8033 99.0295 85.8606 98.1706 86.7195C97.2545 87.6356 97.598 88.4945 97.4262 89.6969Z" fill="black"/>
<path d="M96.1673 87.8078C97.4842 88.0941 97.9996 89.9836 97.9996 91.186C97.9996 92.5603 96.9689 93.4191 95.881 92.6175C95.0221 91.9877 94.4495 91.0715 94.2778 89.9836C93.9915 88.7239 94.8503 87.5215 96.1673 87.8078Z" fill="#FFB573"/>
<path d="M103.038 86.3758C103.439 85.975 104.412 85.8032 104.985 85.8605C105.1 85.8605 105.214 85.8032 105.214 85.6887C105.214 85.5742 105.157 85.4597 105.042 85.4024C104.355 85.2879 103.21 85.517 102.752 86.0323C102.695 86.1468 102.695 86.2613 102.752 86.3186C102.752 86.3186 102.809 86.3758 102.866 86.3758C102.924 86.4331 102.981 86.4331 103.038 86.3758Z" fill="#263238"/>
<path d="M109.45 87.2923C109.565 87.235 109.565 87.0633 109.507 87.006C109.164 86.3762 108.534 85.9181 107.79 85.8608C107.675 85.8608 107.561 85.9754 107.561 86.0899C107.561 86.2044 107.675 86.3189 107.79 86.3189C108.362 86.4334 108.877 86.777 109.107 87.235C109.164 87.2923 109.221 87.3496 109.278 87.3496C109.336 87.3496 109.393 87.3496 109.45 87.2923Z" fill="#263238"/>
<path d="M105.271 94.1057C104.756 94.7356 103.954 95.9953 103.954 95.9953C103.84 95.938 103.725 95.938 103.668 95.8807C102.294 95.2509 101.893 94.4493 101.836 93.7049C101.836 93.3041 101.95 92.9033 102.065 92.617C102.179 92.2735 102.351 92.0444 102.351 92.0444C102.867 92.9033 104.069 93.5904 104.756 93.934C105.1 94.0485 105.271 94.1057 105.271 94.1057Z" fill="#2E353A"/>
<path d="M104.814 93.934L104.642 94.2203C104.527 94.392 104.298 94.4493 104.126 94.3348C103.096 93.8767 102.409 93.3614 102.18 92.7888C102.122 92.6743 102.122 92.5598 102.18 92.4452C102.294 92.2162 102.409 92.0444 102.409 92.0444C102.867 92.9033 104.126 93.5904 104.814 93.934Z" fill="white"/>
<path d="M103.668 95.8814C102.294 95.2515 101.893 94.4499 101.836 93.7056C102.294 93.9346 102.809 94.2782 103.21 94.7362C103.554 95.137 103.611 95.5378 103.668 95.8814Z" fill="#DE5753"/>
<path d="M107.734 88.666C107.963 88.7233 108.135 89.0668 108.02 89.4104C107.963 89.7539 107.677 90.0402 107.448 89.983C107.219 89.9257 107.047 89.5822 107.161 89.2386C107.276 88.8951 107.505 88.6088 107.734 88.666Z" fill="#263238"/>
<path d="M103.095 87.521C103.324 87.5783 103.496 87.9218 103.382 88.2654C103.324 88.6089 103.038 88.8952 102.809 88.8379C102.58 88.7807 102.408 88.4371 102.523 88.0936C102.58 87.75 102.866 87.521 103.095 87.521Z" fill="#263238"/>
<path d="M105.443 92.3894C105.443 92.3894 106.474 93.0765 107.333 92.6757C106.646 91.1297 106.703 91.4732 106.531 88.8394L105.443 92.3894Z" fill="#ED847E"/>
<path d="M107.734 140.886C107.734 140.886 102.123 143.062 100.806 143.52C99.3173 144.036 97.7713 144.551 96.1681 144.608C94.5649 144.665 92.9044 144.207 91.7592 142.948C90.385 141.516 89.9842 139.34 89.6406 137.279C88.61 131.267 87.5793 125.255 86.5487 119.3C86.0334 116.323 84.7737 111.914 84.8882 110.196C85.1172 107.104 87.064 103.382 92.1027 101.378C94.0495 100.577 95.9963 100.92 97.6568 102.867C98.6302 104.069 101.55 106.875 102.237 111.914C102.81 115.922 103.669 121.132 103.612 125.198C103.554 130.465 105.673 137.222 107.734 140.886Z" fill="#15234A"/>
<path d="M85.1183 108.535C84.5457 113.746 87.4086 126.915 87.9812 127.66C90.3288 135.275 96.8562 131.152 97.7724 130.809C99.4329 130.179 101.093 129.034 102.639 128.232C105.674 126.743 108.537 125.541 111.343 123.651L109.739 120.502C106.647 121.533 97.9441 123.823 96.5127 124.167C95.8828 124.339 93.478 125.598 93.478 123.938C93.1344 123.365 92.6764 112.486 91.5885 108.65C91.4739 108.192 91.2449 107.791 90.9586 107.447L90.8441 107.333C89.2409 105.272 85.8626 105.901 85.1183 108.535Z" fill="#0F1A38"/>
<path d="M108.594 121.59L108.25 123.365C109.052 125.427 113.575 124.854 113.575 124.854V119.586L109.567 120.503C109.109 120.674 108.708 121.075 108.594 121.59Z" fill="#FFB573"/>
<path d="M113.633 119.586L113.576 124.911L117.642 125.026L118.558 120.331L113.633 119.586Z" fill="#FFB573"/>
<path d="M111.227 83.9709C111.342 84.429 111.113 85.0016 110.712 85.2306C110.368 85.4024 109.91 85.3451 109.51 85.2879C108.193 85.0588 106.876 84.8298 105.559 84.6008C103.268 84.1999 101.035 83.7991 98.8022 83.2838C97.7715 83.0548 96.3401 82.7685 96.2828 81.7378C95.9965 76.8136 104.07 77.787 105.788 78.3596C111.514 80.3636 111.17 83.4556 111.227 83.9709Z" fill="#263238"/>
<path d="M39.1967 174.267H33.8145V196.655H39.1967V174.267Z" fill="#263238"/>
<path opacity="0.2" d="M39.1967 174.267H33.8145V196.655H39.1967V174.267Z" fill="white"/>
<path d="M38.4535 160.068H34.6172V174.382H38.4535V160.068Z" fill="#263238"/>
<path opacity="0.2" d="M38.3962 162.702L34.6172 164.133V160.068H38.3962V162.702Z" fill="black"/>
<path d="M51.9082 199.976C51.9082 201.179 52.8816 202.152 54.084 202.152C55.2865 202.152 56.2598 201.179 56.2598 199.976C56.2598 198.774 55.2865 197.8 54.084 197.8C52.8816 197.8 51.9082 198.774 51.9082 199.976Z" fill="#263238"/>
<path d="M19.7286 199.976C19.7286 201.179 18.7552 202.152 17.5528 202.152C16.3503 202.152 15.377 201.179 15.377 199.976C15.377 198.774 16.3503 197.8 17.5528 197.8C18.6979 197.8 19.7286 198.774 19.7286 199.976Z" fill="#263238"/>
<path d="M38.6817 199.289C38.6817 200.491 37.7083 201.464 36.5059 201.464C35.3035 201.464 34.3301 200.491 34.3301 199.289C34.3301 198.086 35.3035 197.113 36.5059 197.113C37.7083 197.113 38.6817 198.086 38.6817 199.289Z" fill="#263238"/>
<path d="M12.7426 197.056C12.8572 197.572 13.3152 197.915 13.8306 197.915L36.6767 197.629L58.0913 198.087C58.6066 198.087 59.0647 197.743 59.1792 197.228C59.2937 196.655 58.8929 196.083 58.3203 195.968L46.6396 193.678C45.4372 193.449 44.1775 193.334 42.9751 193.334H30.3782C29.1185 193.334 27.9161 193.449 26.7137 193.678L13.5443 195.797C12.9717 195.911 12.6281 196.484 12.7426 197.056Z" fill="#263238"/>
<path d="M12.4004 160.01L13.1447 160.068C12.8585 160.068 12.6294 160.068 12.4004 160.01Z" fill="#263238"/>
<path d="M42.9764 116.264C42.9764 116.322 42.9764 116.322 42.9764 116.379V155.544H7.87695V115.978C7.87695 115.692 7.87695 115.405 7.93421 115.062H7.87695L8.2205 109.565C8.33502 108.019 8.96486 106.53 10.0528 105.385L13.5455 101.721L15.3778 92.5593C15.6641 91.1278 16.9238 90.0972 18.3552 90.0972H26.4287C27.7456 90.0972 28.8908 90.956 29.2916 92.1585L32.6698 102.064L39.14 106.072C40.8005 107.103 41.8884 108.821 42.1747 110.71L43.0336 116.322L42.9764 116.264Z" fill="#B4B4B4"/>
<path opacity="0.1" d="M42.9759 116.264C42.9759 116.322 42.9759 116.322 42.9759 116.379V155.544H12.6289V115.978C12.6289 115.692 12.6289 115.405 12.6862 115.062H12.6289L12.9725 109.565C13.087 108.019 13.7168 106.53 14.8047 105.385L18.2975 101.721L20.1298 92.5593C20.4161 91.1278 21.6757 90.0972 23.1072 90.0972H26.4854C27.8024 90.0972 28.9476 90.956 29.3484 92.1585L32.7266 102.064L39.1968 106.072C40.8573 107.103 41.9452 108.821 42.2315 110.71L43.0904 116.322L42.9759 116.264Z" fill="white"/>
<path d="M46.0685 161.957H27.2305C27.2305 161.957 31.4676 163.674 34.5023 164.419V167.453H38.7967V164.419C41.8314 163.674 46.0685 161.957 46.0685 161.957Z" fill="#263238"/>
<path d="M28.1445 153.712C39.2527 154.17 50.4181 153.712 61.4689 152.51C63.7593 152.281 65.5915 153.884 65.5915 156.174C65.5915 156.403 65.5915 156.518 65.5915 156.747C65.5915 159.037 63.7593 161.098 61.4689 161.327C50.4181 162.53 39.2527 162.931 28.1445 162.53C28.1445 158.98 28.1445 157.205 28.1445 153.712Z" fill="#DEDEDE"/>
<path opacity="0.2" d="M28.1445 153.712C39.2527 154.17 50.4181 153.712 61.4689 152.51C63.7593 152.281 65.5915 153.884 65.5915 156.174C65.5915 156.403 65.5915 156.518 65.5915 156.747C65.5915 159.037 63.7593 161.098 61.4689 161.327C50.4181 162.53 39.2527 162.931 28.1445 162.53C28.1445 158.98 28.1445 157.205 28.1445 153.712Z" fill="black"/>
<path d="M11.5414 161.327C17.8971 161.9 24.1955 162.358 30.5512 162.587C32.727 162.644 34.4448 160.926 34.4448 158.75C34.4448 158.35 34.4448 158.178 34.4448 157.777C34.4448 155.601 32.6698 153.826 30.5512 153.769C24.1383 153.54 17.8971 153.082 11.5414 152.509C9.36559 152.28 7.64783 153.826 7.64783 155.945C7.64783 156.346 7.64783 156.517 7.64783 156.918C7.59057 159.094 9.36559 161.098 11.5414 161.327Z" fill="#93959A"/>
<path d="M65.4785 186.579V196.198L70.2882 196.141L71.2616 187.037L65.4785 186.579Z" fill="#B55B52"/>
<path d="M71.0911 196.026C71.0338 196.026 71.0338 195.969 70.9766 195.912C70.9766 195.854 70.9766 195.797 71.0338 195.797C71.0911 195.74 72.7516 194.824 73.4959 195.053C73.6677 195.11 73.7822 195.167 73.8395 195.339C73.954 195.454 73.954 195.683 73.8395 195.797C73.6677 196.026 73.0379 196.141 72.4653 196.141C72.0645 196.141 71.5491 196.083 71.0911 196.026ZM71.4919 195.854C72.3508 195.969 73.5532 195.969 73.725 195.683C73.7822 195.625 73.7822 195.568 73.725 195.454C73.6677 195.396 73.6104 195.339 73.4959 195.282C73.4387 195.282 73.3814 195.225 73.2669 195.225C72.6371 195.339 72.0072 195.568 71.4919 195.854Z" fill="#407BFF"/>
<path d="M71.0338 196.025C70.9766 196.025 70.9766 195.968 70.9766 195.911C70.9766 195.854 71.1483 194.594 71.7209 194.136C71.8927 194.021 72.1217 193.907 72.3508 193.964C72.6371 194.021 72.7516 194.136 72.7516 194.25C72.8661 194.766 71.7209 195.796 71.1483 196.025H71.0911C71.0911 196.025 71.0911 196.025 71.0338 196.025ZM72.2935 194.136C72.179 194.136 72.0072 194.193 71.8927 194.25C71.5491 194.651 71.3201 195.166 71.2629 195.682C71.8354 195.338 72.5798 194.594 72.5798 194.25C72.5798 194.25 72.5798 194.136 72.3508 194.136H72.2935Z" fill="#407BFF"/>
<path d="M70.6325 195.339L65.5365 195.282C65.3647 195.282 65.1929 195.396 65.1357 195.568L64.1623 199.691C64.0478 200.034 64.2768 200.435 64.6776 200.492C64.7349 200.492 64.7921 200.492 64.7921 200.492C66.6244 200.492 68.2276 200.378 70.518 200.435C73.2091 200.492 72.522 200.779 75.6712 200.836C77.5608 200.893 77.9616 198.717 77.1599 198.603C73.4954 198.087 73.0946 196.999 71.6631 195.625C71.4341 195.511 71.0333 195.339 70.6325 195.339Z" fill="#263238"/>
<path opacity="0.1" d="M65.8807 192.189L70.9767 191.845L71.3202 185.604L65.5371 185.49L65.8807 192.189Z" fill="black"/>
<path opacity="0.4" d="M64.0477 149.99C64.0477 150.104 64.105 150.162 64.105 150.276C63.9905 148.845 63.7614 147.642 63.5324 146.726C61.8719 140.371 44.8089 139.283 37.8234 139.111L29.4064 140.027C29.4064 140.027 28.6048 146.726 30.6088 151.021C32.6701 155.258 64.0477 149.99 64.0477 149.99Z" fill="black"/>
<path d="M54.082 188.353L54.5401 198.087L59.2925 197.915L59.8079 187.551L54.082 188.353Z" fill="#B55B52"/>
<path d="M60.0383 196.599C59.9811 196.599 59.9811 196.542 59.9238 196.542C59.9238 196.484 59.9238 196.427 59.9811 196.427C60.0383 196.37 61.5843 195.339 62.3859 195.454C62.5577 195.454 62.6722 195.568 62.7295 195.683C62.844 195.797 62.844 196.026 62.7867 196.141C62.615 196.427 62.0424 196.542 61.4698 196.599C60.9545 196.656 60.4964 196.656 60.0383 196.599ZM60.3819 196.427C61.2408 196.484 62.4432 196.37 62.615 196.026C62.615 195.969 62.6722 195.912 62.5577 195.797C62.5005 195.74 62.4432 195.683 62.3287 195.683C62.2714 195.683 62.2142 195.683 62.0996 195.683C61.4698 195.797 60.8972 196.026 60.3819 196.427Z" fill="#407BFF"/>
<path d="M59.9811 196.598C59.9238 196.598 59.9238 196.541 59.9238 196.484C59.9238 196.426 59.9238 195.167 60.4964 194.651C60.6682 194.48 60.84 194.422 61.069 194.422C61.3553 194.422 61.4698 194.594 61.5271 194.709C61.6988 195.224 60.6682 196.312 60.0956 196.598H60.0383C59.9811 196.598 59.9811 196.598 59.9811 196.598ZM61.0117 194.594C60.8972 194.594 60.7254 194.651 60.6682 194.766C60.3819 195.167 60.2101 195.682 60.1529 196.255C60.7254 195.854 61.3553 194.995 61.298 194.709C61.298 194.709 61.2408 194.594 61.069 194.594H61.0117Z" fill="#407BFF"/>
<path d="M59.4661 195.969L54.4274 196.427C54.2556 196.427 54.0838 196.599 54.0838 196.771L53.5112 200.951C53.454 201.294 53.7403 201.638 54.0838 201.695C54.1411 201.695 54.1983 201.695 54.2556 201.695C56.0879 201.523 57.6911 201.294 59.9814 201.065C62.6726 200.836 61.9855 201.237 65.1347 201.008C67.0242 200.893 67.196 198.66 66.3944 198.66C62.6726 198.489 62.2145 197.458 60.6685 196.255C60.2677 196.026 59.8669 195.912 59.4661 195.969Z" fill="#263238"/>
<path opacity="0.1" d="M59.5229 193.449L59.752 188.525L54.1406 188.639L54.3697 193.793L59.5229 193.449Z" fill="black"/>
<path d="M42.7474 138.596C42.7474 138.596 72.5218 136.306 74.5831 144.322C76.6444 152.338 72.0637 190.243 72.0637 190.243L64.6774 190.873C64.6774 190.873 63.704 168.542 63.5895 150.048C63.5895 150.048 32.2691 155.316 30.2651 151.079C28.261 146.842 29.0626 140.085 29.0626 140.085L42.7474 138.596Z" fill="#111E44"/>
<path d="M35.188 139.741C35.188 139.741 65.1914 138.596 65.5922 146.841C65.9357 153.312 60.4389 191.789 60.4389 191.789L53.5679 192.305C53.5679 192.305 52.3082 169.172 53.1671 153.426C53.1671 153.426 27.2863 156.404 22.7056 152.739C18.354 149.246 21.7323 139.684 21.7323 139.684L35.188 139.741Z" fill="#182752"/>
<path d="M63.3008 133.615V133.5C63.5298 132.183 64.6177 131.095 65.9347 130.866L69.1411 130.351C69.1411 130.351 74.4662 132.985 73.2638 133.558H67.3661L63.3008 133.615Z" fill="#B55B52"/>
<path d="M67.5941 130.58L63.2997 133.558L50.7601 125.37L45.2633 119.873C45.2633 119.873 34.8423 103.898 39.9956 102.982C42.3431 102.524 50.5311 113.116 55.7416 121.705C61.9828 126.744 67.5941 130.58 67.5941 130.58Z" fill="#407BFF"/>
<g opacity="0.3">
<path d="M67.5941 130.58L63.2997 133.558L50.7601 125.37L45.2633 119.873C45.2633 119.873 34.8423 103.898 39.9956 102.982C42.3431 102.524 50.5311 113.116 55.7416 121.705C61.9828 126.744 67.5941 130.58 67.5941 130.58Z" fill="#2A51B0"/>
</g>
<path d="M45.2648 139.169C40.9132 140.314 36.3325 140.772 31.8091 140.543L22.0752 139.97C21.8461 137.966 20.3574 133.557 18.2961 122.22C15.7195 104.126 18.7542 103.153 20.3574 102.867H20.4147C21.8461 102.638 23.6784 102.351 25.4534 102.237C28.8316 101.951 32.2672 101.836 35.6454 101.951C36.7906 102.008 37.9357 102.18 39.0236 102.409C40.6269 102.638 41.8866 103.726 42.4019 105.1C43.9479 109.623 44.5205 120.56 45.2648 139.169Z" fill="#407BFF"/>
<path opacity="0.4" d="M45.2648 139.169C40.9132 140.314 36.3325 140.772 31.8091 140.543L22.0752 139.97C21.8461 137.966 20.3574 133.557 18.2961 122.22C15.7195 104.126 18.7542 103.153 20.3574 102.867H20.4147C21.8461 102.638 23.6784 102.351 25.4534 102.237C28.8316 101.951 32.2672 101.836 35.6454 101.951C36.7906 102.008 37.9357 102.18 39.0236 102.409C40.6269 102.638 41.8866 103.726 42.4019 105.1C43.9479 109.623 44.5205 120.56 45.2648 139.169Z" fill="#476CD2"/>
<path d="M32.0383 104.813C26.9995 105.271 25.0527 102.293 25.0527 102.293C27.2286 100.003 26.1979 94.0482 25.339 90.7844L28.1447 92.9602L31.981 95.9377C31.8665 96.453 31.8092 96.9683 31.8092 97.4264C31.8092 97.7699 31.8092 98.1708 31.8092 98.5143V98.5716C31.981 100.118 32.8399 101.377 35.2447 101.835C35.1302 101.835 36.3326 104.412 32.0383 104.813Z" fill="#B55B52"/>
<path opacity="0.2" d="M31.9236 95.88C31.8091 96.3953 31.7518 96.9107 31.7518 97.3687C31.7518 97.7123 31.7518 98.1131 31.7518 98.4566V98.5139C30.3776 98.2849 28.4881 96.8534 28.259 95.4219C28.2018 94.9639 28.1445 94.5058 28.1445 93.9905L31.9236 95.88Z" fill="black"/>
<path d="M23.9648 101.893L25.5108 101.263C27.2858 102.924 29.3471 104.126 31.6375 104.813C30.6641 105.5 29.9197 106.474 29.5189 107.562C24.1366 105.901 23.9648 101.893 23.9648 101.893Z" fill="white"/>
<path d="M35.1295 101.549L33.6408 101.263C33.6408 101.263 33.1254 104.298 31.6367 104.756C34.2706 105.672 34.7287 106.989 34.7287 106.989C38.5077 105.729 35.1295 101.549 35.1295 101.549Z" fill="white"/>
<path d="M34.1562 81.1074C34.9006 82.0235 35.1296 84.1994 35.9313 85.0582C36.1603 84.6574 36.8474 82.7679 36.9619 82.2526C37.0192 81.7945 36.9047 81.2219 36.5038 80.9356C35.9885 80.5348 34.7861 80.8211 34.1562 81.1074Z" fill="#263238"/>
<path d="M24.5949 84.2568C25.3393 81.1076 28.5457 79.1608 31.6949 79.9052C36.3329 80.8786 38.2797 87.2915 38.1651 91.3569C38.1651 92.5593 37.7643 93.7045 37.0772 94.6206C35.245 97.2545 31.5804 97.8843 29.0038 95.9948C26.3127 94.1625 25.8546 91.5859 24.6522 87.2342C24.3659 86.3181 24.3659 85.2302 24.5949 84.2568Z" fill="#B55B52"/>
<path d="M35.9883 91.6999C35.9883 91.6999 34.7858 91.4709 31.4648 91.6999C31.8657 92.7878 32.6673 93.6467 34.385 93.5322C35.2439 93.5895 35.9883 92.8451 36.0455 91.8717C35.9883 91.8145 35.9883 91.7572 35.9883 91.6999Z" fill="#263238"/>
<path d="M33.5248 92.6737C34.1546 92.6165 34.8417 92.731 35.4143 93.0745C35.128 93.3036 34.7272 93.4754 34.3837 93.4754C33.7538 93.5899 33.0667 93.4181 32.4941 93.0745C32.7804 92.8455 33.124 92.6737 33.5248 92.6737Z" fill="#E83F3F"/>
<path d="M35.8152 91.643C35.758 91.9293 35.5862 92.1583 35.2999 92.2156C34.3265 92.2729 33.2959 92.2729 32.3225 92.1583C31.9789 92.1583 31.6926 91.9866 31.5781 91.643C33.0096 91.5285 34.441 91.5285 35.8152 91.643Z" fill="white"/>
<path opacity="0.2" d="M35.0158 90.3836C35.6457 90.4409 36.2183 90.2118 36.6191 89.7538C35.7029 88.9522 34.9586 88.036 34.2715 87.0054L35.0158 90.3836Z" fill="black"/>
<path d="M33.3558 81.7381C33.1268 81.4518 33.0123 81.051 32.7833 80.7647C32.3825 80.3066 31.6381 80.1348 31.0083 80.3638C30.3784 80.5356 29.9203 81.051 29.5768 81.5663C29.2332 82.0816 28.5461 83.5131 28.6607 83.5703C28.7179 84.1429 28.4889 84.7728 28.0881 85.1736C27.63 85.5744 27.0574 85.6889 26.4276 85.5744C26.1985 86.2042 27.63 88.151 27.9163 88.38C28.1453 88.6091 28.4889 88.7808 28.7752 88.8954C28.4316 89.0671 28.1453 89.0671 27.8018 89.0671C27.6873 89.0671 27.5727 89.0671 27.5155 89.0099C26.3703 88.8381 21.9614 86.0324 24.4235 81.4518C25.1106 80.2493 26.1985 79.3332 27.401 78.7606C29.2905 77.9017 31.6954 77.959 33.4704 79.1042C36.4478 81.1082 33.5849 82.0243 33.3558 81.7381Z" fill="#263238"/>
<path d="M26.312 89.8102C26.312 91.1844 26.4838 94.1619 26.1975 95.8796C24.6515 94.6199 23.1628 91.8715 22.4757 89.982C21.674 87.9207 21.674 85.4586 22.7047 83.4545C23.1055 82.6529 23.6781 81.9658 24.3652 81.3932C25.3958 80.5344 26.7128 80.019 28.087 80.019C28.087 81.7368 28.087 83.3973 28.0297 85.0578C27.5717 85.4586 26.9991 85.5731 26.3692 85.4586C26.1402 86.0884 26.77 87.4054 27.0563 87.978C27.2281 88.2643 27.4571 88.6078 27.6862 88.8368C27.6862 89.0659 27.6289 89.2949 27.6289 89.5239C27.5717 90.0393 27.5144 90.5546 27.3999 91.1272L26.312 89.8102Z" fill="#263238"/>
<path d="M24.7092 88.323C25.7971 88.1512 26.9995 89.5254 27.5149 90.4988C28.0302 91.644 27.6866 92.6747 26.5415 92.4456C25.6253 92.2166 24.7665 91.644 24.2511 90.8424C23.4495 89.869 23.6213 88.5521 24.7092 88.323Z" fill="#B55B52"/>
<path d="M31.7501 87.0059C31.9791 86.9486 32.2654 87.2349 32.3227 87.5785C32.3799 87.922 32.2654 88.2083 32.0364 88.2656C31.8074 88.3228 31.5783 88.0365 31.4638 87.693C31.4066 87.3494 31.5211 87.0631 31.7501 87.0059Z" fill="#263238"/>
<path d="M35.7602 86.0889C35.9893 86.0316 36.2183 86.3179 36.3328 86.6615C36.3901 87.005 36.2756 87.3486 36.0465 87.4058C35.8175 87.4631 35.5885 87.1768 35.474 86.8332C35.3594 86.4897 35.5312 86.1461 35.7602 86.0889Z" fill="#263238"/>
<path d="M34.844 84.7723C34.9013 84.8296 34.9585 84.8295 35.0158 84.8295C35.5311 84.6578 36.1037 84.715 36.5618 85.0013C36.6763 85.0586 36.7908 85.0586 36.8481 85.0013C36.9053 84.8868 36.9053 84.7723 36.7908 84.715C36.2182 84.3142 35.4739 84.1997 34.844 84.4287C34.7295 84.486 34.6722 84.6005 34.7295 84.715C34.7868 84.715 34.844 84.715 34.844 84.7723Z" fill="#263238"/>
<path d="M30.5492 86.4893C30.6065 86.4893 30.6637 86.4893 30.721 86.432C31.0073 85.974 31.5226 85.6877 32.0952 85.6304C32.2097 85.6304 32.3242 85.5159 32.3242 85.4014C32.3242 85.2869 32.2097 85.1724 32.0952 85.1724C31.4081 85.2296 30.7783 85.5732 30.3775 86.1458C30.3202 86.2603 30.3202 86.3748 30.4347 86.432C30.4347 86.4893 30.492 86.4893 30.5492 86.4893Z" fill="#263238"/>
<path d="M22.8205 114.374L23.3931 113.172C24.1374 111.626 27.2294 105.384 28.7181 104.697L29.2907 104.354L31.4092 107.56C31.0657 107.847 27.0576 118.096 26.1415 120.272C25.9697 120.615 25.8552 120.959 25.7979 121.302C25.1681 123.65 21.16 127.257 18.4688 120.501C17.7817 119.069 17.2091 117.695 16.6366 116.264C16.3503 115.519 16.1212 114.832 15.8349 114.088C15.7777 113.973 15.7204 113.687 15.5487 113.343C14.289 109.793 14.1172 105.785 17.4954 103.667L19.7858 102.922L22.8205 114.374Z" fill="#407BFF"/>
<g opacity="0.3">
<path d="M22.8205 114.374L23.3931 113.172C24.1374 111.626 27.2294 105.384 28.7181 104.697L29.2907 104.354L31.4092 107.56C31.0657 107.847 27.0576 118.096 26.1415 120.272C25.9697 120.615 25.8552 120.959 25.7979 121.302C25.1681 123.65 21.16 127.257 18.4688 120.501C17.7817 119.069 17.2091 117.695 16.6366 116.264C16.3503 115.519 16.1212 114.832 15.8349 114.088C15.7777 113.973 15.7204 113.687 15.5487 113.343C14.289 109.793 14.1172 105.785 17.4954 103.667L19.7858 102.922L22.8205 114.374Z" fill="#2A51B0"/>
</g>
<path d="M34.7871 102.122C34.7871 102.294 34.8444 102.409 34.9016 102.58C34.9589 102.809 35.0734 102.981 35.1879 103.21C35.3597 103.496 35.5315 103.668 35.7605 103.897C35.7605 103.897 35.875 104.012 35.9323 104.012C36.0468 104.126 36.2186 104.241 36.3331 104.355C36.6194 104.527 36.9057 104.699 37.2492 104.813C37.3065 104.813 37.3637 104.871 37.421 104.928C37.4783 104.985 37.5355 105.1 37.5355 105.157C37.5928 105.214 37.5928 105.271 37.65 105.386C37.7073 105.501 37.7645 105.558 37.8791 105.615C38.0508 105.73 38.2799 105.787 38.4516 105.844C38.967 105.959 39.5396 106.016 40.0549 105.959C40.3412 105.959 40.6275 105.901 40.9138 105.901C41.2 105.844 41.4863 105.787 41.8299 105.73C42.0589 105.672 42.288 105.558 42.517 105.443C42.5743 105.386 42.6888 105.329 42.746 105.214C42.746 105.157 42.746 105.1 42.8033 105.042C42.8605 104.871 42.9178 104.756 42.9751 104.584C43.0896 104.355 43.1468 104.126 43.2041 103.897C43.2614 103.668 43.3186 103.439 43.3759 103.21C43.4331 102.981 43.4904 102.752 43.4904 102.523C43.5476 102.122 43.6049 101.721 43.6622 101.321C43.6622 101.149 43.6622 100.92 43.6622 100.748C43.6622 100.576 43.6622 100.462 43.6049 100.29C43.5476 100.175 43.5476 100.118 43.4331 100.004C43.2041 99.7747 42.9751 99.6602 42.6888 99.5456C42.4025 99.4311 42.1734 99.3739 41.8872 99.3166C41.7726 99.3166 41.6581 99.2594 41.5436 99.2594C39.5396 98.9731 38.1081 99.4884 37.8791 99.5456C37.65 99.6029 37.421 99.7174 37.192 99.7747C37.0202 99.8892 36.7912 100.004 36.6194 100.118C36.5049 100.233 36.3903 100.347 36.3331 100.519C36.3331 100.576 36.2758 100.634 36.2758 100.691C36.2758 100.748 36.2758 100.748 36.1613 100.748C35.7605 100.691 35.417 100.748 35.1307 101.092C35.0161 101.206 34.9589 101.378 34.9016 101.492C34.8444 101.721 34.7871 101.893 34.7871 102.122ZM37.8218 101.149C37.5928 101.092 37.3637 101.034 37.1347 100.92C37.0774 100.92 37.0202 100.863 36.9629 100.805C36.9629 100.805 37.0774 100.576 37.2492 100.462C37.3065 100.405 37.421 100.347 37.5355 100.29C37.7073 100.233 37.8791 100.118 38.0508 100.061C38.3371 100.004 38.6234 99.8892 38.8525 99.8892C39.1387 99.8319 39.3678 99.8319 39.6541 99.7747C39.8831 99.7747 40.1121 99.7747 40.3412 99.7747C40.6275 99.7747 40.971 99.7747 41.3146 99.8319C41.6581 99.8892 41.9444 99.9465 42.2307 100.061C42.4597 100.175 42.746 100.29 42.9178 100.462L42.8605 100.519C42.8033 100.576 42.746 100.576 42.6888 100.634C42.4597 100.748 42.1734 100.863 41.8872 100.92C41.8299 100.92 41.7726 100.977 41.7154 100.977C41.6581 100.977 41.6581 100.977 41.6009 100.977C41.3718 101.034 41.2 101.034 40.971 101.092C40.742 101.149 40.5702 101.149 40.3412 101.149C40.1694 101.149 39.9976 101.149 39.8831 101.206C39.8831 101.206 39.8831 101.206 39.8258 101.206H39.7113C39.4823 101.206 39.3105 101.206 39.0815 101.206C38.9097 101.206 38.6807 101.206 38.5089 101.206C38.2226 101.263 37.9936 101.206 37.8218 101.149ZM35.7605 101.893C35.8178 101.721 35.9323 101.55 36.1041 101.55C36.1041 101.55 36.1613 101.55 36.2186 101.55C36.2758 101.836 36.3331 102.122 36.3903 102.466C36.5049 102.867 36.6194 103.21 36.7339 103.611C36.7912 103.726 36.8484 104.012 36.9629 104.126C36.9057 104.126 36.7912 104.012 36.7339 103.955C36.5049 103.783 36.3331 103.554 36.1613 103.325C35.9895 103.096 35.8178 102.867 35.7605 102.58C35.7605 102.351 35.7032 102.122 35.7605 101.893Z" fill="#407BFF"/>
<path opacity="0.7" d="M34.7871 102.122C34.7871 102.294 34.8444 102.409 34.9016 102.58C34.9589 102.809 35.0734 102.981 35.1879 103.21C35.3597 103.496 35.5315 103.668 35.7605 103.897C35.7605 103.897 35.875 104.012 35.9323 104.012C36.0468 104.126 36.2186 104.241 36.3331 104.355C36.6194 104.527 36.9057 104.699 37.2492 104.813C37.3065 104.813 37.3637 104.871 37.421 104.928C37.4783 104.985 37.5355 105.1 37.5355 105.157C37.5928 105.214 37.5928 105.271 37.65 105.386C37.7073 105.501 37.7645 105.558 37.8791 105.615C38.0508 105.73 38.2799 105.787 38.4516 105.844C38.967 105.959 39.5396 106.016 40.0549 105.959C40.3412 105.959 40.6275 105.901 40.9138 105.901C41.2 105.844 41.4863 105.787 41.8299 105.73C42.0589 105.672 42.288 105.558 42.517 105.443C42.5743 105.386 42.6888 105.329 42.746 105.214C42.746 105.157 42.746 105.1 42.8033 105.042C42.8605 104.871 42.9178 104.756 42.9751 104.584C43.0896 104.355 43.1468 104.126 43.2041 103.897C43.2614 103.668 43.3186 103.439 43.3759 103.21C43.4331 102.981 43.4904 102.752 43.4904 102.523C43.5476 102.122 43.6049 101.721 43.6622 101.321C43.6622 101.149 43.6622 100.92 43.6622 100.748C43.6622 100.576 43.6622 100.462 43.6049 100.29C43.5476 100.175 43.5476 100.118 43.4331 100.004C43.2041 99.7747 42.9751 99.6602 42.6888 99.5456C42.4025 99.4311 42.1734 99.3739 41.8872 99.3166C41.7726 99.3166 41.6581 99.2594 41.5436 99.2594C39.5396 98.9731 38.1081 99.4884 37.8791 99.5456C37.65 99.6029 37.421 99.7174 37.192 99.7747C37.0202 99.8892 36.7912 100.004 36.6194 100.118C36.5049 100.233 36.3903 100.347 36.3331 100.519C36.3331 100.576 36.2758 100.634 36.2758 100.691C36.2758 100.748 36.2758 100.748 36.1613 100.748C35.7605 100.691 35.417 100.748 35.1307 101.092C35.0161 101.206 34.9589 101.378 34.9016 101.492C34.8444 101.721 34.7871 101.893 34.7871 102.122ZM37.8218 101.149C37.5928 101.092 37.3637 101.034 37.1347 100.92C37.0774 100.92 37.0202 100.863 36.9629 100.805C36.9629 100.805 37.0774 100.576 37.2492 100.462C37.3065 100.405 37.421 100.347 37.5355 100.29C37.7073 100.233 37.8791 100.118 38.0508 100.061C38.3371 100.004 38.6234 99.8892 38.8525 99.8892C39.1387 99.8319 39.3678 99.8319 39.6541 99.7747C39.8831 99.7747 40.1121 99.7747 40.3412 99.7747C40.6275 99.7747 40.971 99.7747 41.3146 99.8319C41.6581 99.8892 41.9444 99.9465 42.2307 100.061C42.4597 100.175 42.746 100.29 42.9178 100.462L42.8605 100.519C42.8033 100.576 42.746 100.576 42.6888 100.634C42.4597 100.748 42.1734 100.863 41.8872 100.92C41.8299 100.92 41.7726 100.977 41.7154 100.977C41.6581 100.977 41.6581 100.977 41.6009 100.977C41.3718 101.034 41.2 101.034 40.971 101.092C40.742 101.149 40.5702 101.149 40.3412 101.149C40.1694 101.149 39.9976 101.149 39.8831 101.206C39.8831 101.206 39.8831 101.206 39.8258 101.206H39.7113C39.4823 101.206 39.3105 101.206 39.0815 101.206C38.9097 101.206 38.6807 101.206 38.5089 101.206C38.2226 101.263 37.9936 101.206 37.8218 101.149ZM35.7605 101.893C35.8178 101.721 35.9323 101.55 36.1041 101.55C36.1041 101.55 36.1613 101.55 36.2186 101.55C36.2758 101.836 36.3331 102.122 36.3903 102.466C36.5049 102.867 36.6194 103.21 36.7339 103.611C36.7912 103.726 36.8484 104.012 36.9629 104.126C36.9057 104.126 36.7912 104.012 36.7339 103.955C36.5049 103.783 36.3331 103.554 36.1613 103.325C35.9895 103.096 35.8178 102.867 35.7605 102.58C35.7605 102.351 35.7032 102.122 35.7605 101.893Z" fill="white"/>
<path opacity="0.9" d="M36.9062 100.862C36.9062 100.862 37.0208 100.633 37.1925 100.518C37.3071 100.461 37.3643 100.404 37.4788 100.347C37.6506 100.289 37.8224 100.175 37.9942 100.118C38.2805 100.06 38.5667 99.9458 38.7958 99.9458C39.0821 99.8886 39.3111 99.8886 39.5974 99.8313C39.8264 99.8313 40.0555 99.8313 40.2845 99.8313C40.5708 99.8313 40.9143 99.8313 41.2579 99.8886C41.6014 99.9458 41.8877 100.003 42.174 100.118C42.4031 100.232 42.6894 100.347 42.8611 100.518L42.8039 100.576C42.7466 100.633 42.6893 100.633 42.6321 100.69C42.4031 100.805 42.1168 100.919 41.8305 100.976C41.7732 100.976 41.716 101.034 41.6587 101.034C41.6014 101.034 41.6014 101.034 41.5442 101.034C41.3151 101.091 41.1434 101.091 40.9143 101.148C40.6853 101.206 40.5135 101.206 40.2845 101.206C40.1127 101.206 39.9409 101.206 39.8264 101.263C39.8264 101.263 39.8264 101.263 39.7692 101.263H39.7119C39.4829 101.263 39.3111 101.263 39.0821 101.263C38.9103 101.263 38.6813 101.263 38.5095 101.263C38.2805 101.263 38.0514 101.206 37.8796 101.148C37.6506 101.091 37.4216 101.034 37.1925 100.919C37.0208 100.976 36.9635 100.919 36.9062 100.862Z" fill="white"/>
<path d="M36.9062 100.863C36.9635 100.92 37.0208 100.92 37.078 100.977C37.3071 101.092 37.5361 101.149 37.7651 101.206C37.9942 101.263 38.1659 101.263 38.395 101.321C38.5667 101.321 38.7958 101.321 38.9676 101.321C39.1966 101.321 39.3684 101.321 39.5974 101.321H39.7119C39.7119 101.321 39.7119 101.321 39.7692 101.321C39.9409 101.321 40.1127 101.321 40.2272 101.263C40.4563 101.263 40.628 101.206 40.8571 101.206C41.0861 101.149 41.2579 101.149 41.4869 101.092C41.5442 101.092 41.5442 101.092 41.6014 101.092C41.6587 101.092 41.716 101.034 41.7732 101.034C42.0595 100.977 42.3458 100.863 42.5748 100.748C42.6321 100.691 42.6894 100.691 42.7466 100.634L42.8039 100.576C42.6321 100.347 42.3458 100.233 42.1168 100.175C41.8305 100.061 41.4869 100.004 41.2006 99.9464C40.9143 99.8892 40.5708 99.8892 40.2272 99.8892C39.9982 99.8892 39.7692 99.8892 39.5401 99.8892C39.2538 99.8892 39.0248 99.9464 38.7385 100.004C38.4522 100.061 38.1659 100.118 37.9369 100.175C37.7651 100.233 37.5934 100.29 37.4216 100.404C37.3071 100.462 37.2498 100.519 37.1353 100.576C37.0208 100.691 36.9062 100.863 36.9062 100.863Z" fill="#263238"/>
<path opacity="0.3" d="M36.9053 100.346C36.9626 100.289 37.0198 100.174 37.0771 100.174C37.3634 99.9454 37.9932 99.6019 39.1956 99.4301C39.5964 99.3728 40.0545 99.3156 40.5126 99.3728C41.6005 99.4301 42.3448 99.7164 42.6884 99.8882C42.7457 99.9454 42.8029 100.003 42.9174 100.06C43.0892 100.174 43.0892 100.403 42.9747 100.575L42.9174 100.633C42.2303 100.003 40.5126 99.9454 39.94 99.9454C39.3674 100.003 37.6497 100.232 37.0771 100.919C37.0198 100.919 37.0198 100.862 37.0198 100.862C36.7908 100.747 36.7908 100.518 36.9053 100.346Z" fill="black"/>
<path d="M36.0481 102.637L36.4489 104.47L35.3037 105.844C35.3037 105.844 33.6432 107.333 31.4102 107.619C30.6085 107.733 29.8642 107.275 29.5206 106.588L29.3489 106.245C29.2916 106.073 29.2343 105.901 29.1771 105.729C28.948 104.756 29.2916 104.241 30.0932 103.668L32.8416 101.263C33.0706 101.091 36.2199 100.805 36.2199 100.805C36.5062 100.862 36.1053 102.294 36.0481 102.637Z" fill="#B55B52"/>
<g filter="url(#filter0_d_2_21471)">
<path d="M175.185 75.7821L177.189 94.7346C177.189 94.8491 177.189 94.9636 177.189 95.0782C177.132 96.2806 176.158 97.1967 174.956 97.1395H170.661C171.578 99.8306 175.528 103.438 175.528 103.438C175.528 103.438 169.115 102.579 164.707 97.0822L133.844 96.9104C132.47 96.8532 131.268 95.8225 131.096 94.4483L129.092 75.4958C129.092 75.3813 129.092 75.2667 129.092 75.1522C129.149 73.9498 130.122 73.0337 131.325 73.0909L172.494 73.32C173.811 73.32 174.956 74.3506 175.185 75.7821Z" fill="white"/>
</g>
<path d="M171.349 78.0718H148.445V78.6444H171.349V78.0718Z" fill="#407BFF"/>
<path d="M145.068 78.0718H136.766V78.6444H145.068V78.0718Z" fill="#407BFF"/>
<path d="M172.436 83.0542H162.244V83.6268H172.436V83.0542Z" fill="#407BFF"/>
<path d="M158.637 83.0542H145.354V83.6268H158.637V83.0542Z" fill="#407BFF"/>
<path d="M142.262 83.0542H134.131V83.6268H142.262V83.0542Z" fill="#407BFF"/>
<path d="M173.009 87.978H157.32V88.5506H173.009V87.978Z" fill="#407BFF"/>
<path d="M154.343 87.978H147.186V88.5506H154.343V87.978Z" fill="#407BFF"/>
<path d="M147.128 87.978H140.887V88.5506H147.128V87.978Z" fill="#407BFF"/>
<path d="M139.227 87.978H134.703V88.5506H139.227V87.978Z" fill="#407BFF"/>
<path d="M141.859 92.9595H135.16V93.5321H141.859V92.9595Z" fill="#407BFF"/>
<g filter="url(#filter1_d_2_21471)">
<path d="M119.185 51.7916L160.354 51.5626C161.557 51.5053 162.53 52.4215 162.587 53.6239C162.587 53.7384 162.587 53.8529 162.587 53.9675L160.583 72.92C160.411 74.2942 159.209 75.3821 157.835 75.3821L126.973 75.5539C122.564 80.9934 116.151 81.9096 116.151 81.9096C116.151 81.9096 120.102 78.3023 121.018 75.6111H116.723C115.521 75.6684 114.547 74.7523 114.49 73.5498C114.49 73.4353 114.49 73.3208 114.49 73.2063L116.494 54.2538C116.609 52.8795 117.811 51.8489 119.185 51.7916Z" fill="white"/>
</g>
<path d="M143.575 55.6274H125.023V56.2H143.575V55.6274Z" fill="#407BFF"/>
<path d="M159.15 55.6272H147.928V56.1998H159.15V55.6272Z" fill="#407BFF"/>
<path d="M129.778 60.6089H119.586V61.1815H129.778V60.6089Z" fill="#407BFF"/>
<path d="M157.891 60.6089H133.385V61.1815H157.891V60.6089Z" fill="#407BFF"/>
<path d="M144.837 65.5327H119.014V66.1053H144.837V65.5327Z" fill="#407BFF"/>
<path d="M157.263 65.5327H148.846V66.1053H157.263V65.5327Z" fill="#407BFF"/>
<path d="M125.254 70.5151H118.555V71.0877H125.254V70.5151Z" fill="#407BFF"/>
<g filter="url(#filter2_d_2_21471)">
<path d="M46.4686 58.0895L87.6374 57.8605C88.8398 57.8032 89.8132 58.7193 89.8705 59.9218C89.8705 60.0363 89.8705 60.1508 89.8705 60.2653L87.8665 79.2178C87.6947 80.592 86.4923 81.6799 85.118 81.6799L54.2558 81.8517C49.8469 87.2913 43.4339 88.2074 43.4339 88.2074C43.4339 88.2074 47.3848 84.6001 48.3009 81.909H44.0065C42.8041 81.9662 41.8307 81.0501 41.7734 79.8477C41.7734 79.7332 41.7734 79.6186 41.7734 79.5041L43.7775 60.5516C43.892 59.1774 45.0372 58.1467 46.4686 58.0895Z" fill="white"/>
</g>
<path d="M84.7744 62.155H66.2227V62.7276H84.7744V62.155Z" fill="#407BFF"/>
<path d="M61.9277 62.1548H50.7051V62.7274H61.9277V62.1548Z" fill="#407BFF"/>
<path d="M84.8326 67.0796H74.6406V67.6522H84.8326V67.0796Z" fill="#407BFF"/>
<path d="M70.9754 67.0793H46.4688V67.6519H70.9754V67.0793Z" fill="#407BFF"/>
<path d="M84.7747 72.0601H58.9512V72.6326H84.7747V72.0601Z" fill="#407BFF"/>
<path d="M54.8857 72.0601H46.4688V72.6326H54.8857V72.0601Z" fill="#407BFF"/>
<path d="M52.7099 76.9849H46.4688V77.5574H52.7099V76.9849Z" fill="#407BFF"/>
<path d="M123.994 133.614L128.002 133.557C128.689 133.557 129.205 132.984 129.205 132.355L129.147 126.171C129.147 125.484 128.575 124.968 127.945 124.968L123.937 125.026C123.25 125.026 122.734 125.598 122.734 126.228L122.792 132.412C122.792 133.099 123.307 133.614 123.994 133.614Z" fill="#407BFF"/>
<path d="M120.846 130.408V128.805C120.846 127.488 121.876 126.4 123.193 126.4H123.709L123.766 132.813H123.251C121.934 132.813 120.846 131.725 120.846 130.408ZM121.934 128.805V130.408C121.934 130.923 122.277 131.381 122.735 131.61L122.678 127.602C122.22 127.774 121.934 128.232 121.934 128.805Z" fill="#407BFF"/>
<g opacity="0.7">
<path d="M123.994 133.614L128.002 133.557C128.689 133.557 129.205 132.984 129.205 132.355L129.147 126.171C129.147 125.484 128.575 124.968 127.945 124.968L123.937 125.026C123.25 125.026 122.734 125.598 122.734 126.228L122.792 132.412C122.792 133.099 123.307 133.614 123.994 133.614Z" fill="#7A8CB5"/>
<path d="M120.846 130.408V128.805C120.846 127.488 121.876 126.4 123.193 126.4H123.709L123.766 132.813H123.251C121.934 132.813 120.846 131.725 120.846 130.408ZM121.934 128.805V130.408C121.934 130.923 122.277 131.381 122.735 131.61L122.678 127.602C122.22 127.774 121.934 128.232 121.934 128.805Z" fill="#7B8EB9"/>
</g>
<path d="M172.324 133.5H160.3C160.014 133.5 159.842 133.271 159.842 133.042C159.842 132.755 160.071 132.583 160.3 132.583H172.324C172.61 132.583 172.782 132.813 172.782 133.042C172.782 133.271 172.61 133.5 172.324 133.5Z" fill="#407BFF"/>
<path d="M172.324 133.5H160.3C160.014 133.5 159.842 133.271 159.842 133.042C159.842 132.755 160.071 132.583 160.3 132.583H172.324C172.61 132.583 172.782 132.813 172.782 133.042C172.782 133.271 172.61 133.5 172.324 133.5Z" fill="#7A8CB5"/>
<path d="M160.242 133.442L135.22 133.499C134.933 133.499 134.762 133.27 134.762 133.041C134.762 132.755 134.991 132.583 135.22 132.583L160.242 132.526C160.528 132.526 160.7 132.755 160.7 132.984C160.7 133.27 160.471 133.442 160.242 133.442Z" fill="#263238"/>
<path d="M159.553 132.526L136.535 132.641C135.734 132.641 134.989 131.954 134.932 131.152L133.959 119.357C133.901 118.555 134.531 117.868 135.333 117.868L158.351 117.753C159.152 117.753 159.897 118.441 159.954 119.242L160.927 131.037C160.985 131.839 160.355 132.526 159.553 132.526Z" fill="#407BFF"/>
<path opacity="0.4" d="M159.553 132.526L136.535 132.641C135.734 132.641 134.989 131.954 134.932 131.152L133.959 119.357C133.901 118.555 134.531 117.868 135.333 117.868L158.351 117.753C159.152 117.753 159.897 118.441 159.954 119.242L160.927 131.037C160.985 131.839 160.355 132.526 159.553 132.526Z" fill="black"/>
<path d="M159.307 132.586L135.736 132.721C134.915 132.721 134.153 131.91 134.094 130.963L133.097 117.035C133.039 116.089 133.684 115.277 134.505 115.277L158.076 115.142C158.897 115.142 159.659 115.953 159.718 116.9L160.715 130.828C160.773 131.775 160.128 132.586 159.307 132.586Z" fill="#7A8CB5"/>
<path d="M143.407 124.228C143.521 125.545 144.609 126.633 145.926 126.633C147.243 126.633 148.216 125.603 148.102 124.343C147.987 123.026 146.899 121.938 145.583 121.938C144.323 121.938 143.349 122.969 143.407 124.228Z" fill="white"/>
<path d="M180.281 127.314L180.51 127.715C180.625 127.944 180.739 128.231 180.739 128.46V130.864C180.739 132.353 182.343 133.556 184.347 133.556H184.862C186.293 133.556 187.553 132.926 188.126 132.01C188.297 131.952 188.469 131.895 188.584 131.781L189.958 130.75C190.187 130.578 190.301 130.406 190.301 130.177V128.86C190.301 128.402 189.786 128.059 189.214 128.059H188.469C188.412 127.944 188.526 127.83 188.641 127.715H188.698C188.813 127.543 188.985 127.429 189.099 127.372H189.156C189.156 127.372 189.099 127.085 188.355 127.2C188.126 127.257 187.954 127.314 187.782 127.372H187.725H187.668C187.038 127.143 186.408 127.143 185.778 127.314C185.205 127.143 184.576 127.143 184.003 127.314C184.06 127.314 183.946 127.314 184.003 127.314C183.373 127.143 182.743 127.143 182.171 127.372H181.713C181.541 127.314 181.312 127.257 181.083 127.2C180.339 127.028 180.281 127.314 180.281 127.314ZM188.355 131.437C188.355 131.38 188.412 129.49 188.412 128.689C188.412 128.517 188.641 128.345 188.927 128.345H189.214C189.614 128.345 189.901 128.574 189.901 128.86V130.063C189.901 130.464 189.901 130.464 189.5 130.693L188.355 131.437Z" fill="#407BFF"/>
<path opacity="0.7" d="M189.158 128.117H188.413C188.356 128.003 188.471 127.888 188.585 127.774L188.642 127.716C188.757 127.544 188.929 127.43 189.043 127.373C189.043 127.373 188.986 127.086 188.241 127.201C188.012 127.258 187.841 127.315 187.669 127.373H187.612H187.554C186.925 127.144 186.295 127.144 185.665 127.315C185.092 127.144 184.462 127.144 183.89 127.315C183.26 127.144 182.63 127.144 182.058 127.373H181.714C181.542 127.315 181.313 127.258 181.141 127.201C180.397 127.029 180.34 127.373 180.34 127.373L180.569 127.774C180.683 128.003 180.741 128.289 180.741 128.518V130.923C180.741 132.411 182.344 133.614 184.291 133.614H184.806C186.237 133.614 187.497 132.984 188.07 132.068C188.242 132.011 188.413 131.953 188.528 131.896L189.902 130.865C190.131 130.694 190.246 130.522 190.246 130.293V128.976C190.246 128.461 189.73 128.117 189.158 128.117ZM189.902 130.064C189.902 130.465 189.902 130.465 189.501 130.694L188.356 131.438C188.356 131.381 188.413 129.491 188.413 128.69C188.413 128.518 188.642 128.346 188.929 128.346H189.215C189.616 128.346 189.902 128.575 189.902 128.861V130.064Z" fill="white"/>
<path d="M21.8462 137.22L14.918 205.472H17.151L28.7745 137.22H21.8462Z" fill="#407BFF"/>
<path d="M181.711 137.22L194.136 205.472H196.312L188.639 137.22H181.711Z" fill="#407BFF"/>
<path d="M29.0039 205.587H31.237L43.8338 137.22H36.9056L29.0039 205.587Z" fill="#407BFF"/>
<path d="M202.842 137.22H195.914L209.542 205.587H211.775L202.842 137.22Z" fill="#407BFF"/>
<path d="M216.869 135.731C216.869 134.586 215.895 133.613 214.636 133.613H10.0514C8.79175 133.613 7.81836 134.586 7.81836 135.731C7.81836 136.877 8.79175 137.85 10.0514 137.85H214.693C215.895 137.85 216.869 136.934 216.869 135.731Z" fill="#407BFF"/>
<g opacity="0.6">
<path d="M21.8462 137.22L14.918 205.472H17.151L28.7745 137.22H21.8462Z" fill="#0B0B0B"/>
<path d="M181.711 137.22L194.136 205.472H196.312L188.639 137.22H181.711Z" fill="#0B0B0B"/>
<path d="M29.0039 205.587H31.237L43.8338 137.22H36.9056L29.0039 205.587Z" fill="#0B0B0B"/>
<path d="M202.842 137.22H195.914L209.542 205.587H211.775L202.842 137.22Z" fill="#0B0B0B"/>
<path d="M216.869 135.731C216.869 134.586 215.895 133.613 214.636 133.613H10.0514C8.79175 133.613 7.81836 134.586 7.81836 135.731C7.81836 136.877 8.79175 137.85 10.0514 137.85H214.693C215.895 137.85 216.869 136.934 216.869 135.731Z" fill="#434343"/>
</g>
<defs>
<filter id="filter0_d_2_21471" x="121.092" y="69.0884" width="64.0972" height="46.3496" filterUnits="userSpaceOnUse" color-interpolation-filters="sRGB">
<feFlood flood-opacity="0" result="BackgroundImageFix"/>
<feColorMatrix in="SourceAlpha" type="matrix" values="0 0 0 0 0 0 0 0 0 0 0 0 0 0 0 0 0 0 127 0" result="hardAlpha"/>
<feOffset dy="4"/>
<feGaussianBlur stdDeviation="4"/>
<feComposite in2="hardAlpha" operator="out"/>
<feColorMatrix type="matrix" values="0 0 0 0 0 0 0 0 0 0 0 0 0 0 0 0 0 0 0.25 0"/>
<feBlend mode="normal" in2="BackgroundImageFix" result="effect1_dropShadow_2_21471"/>
<feBlend mode="normal" in="SourceGraphic" in2="effect1_dropShadow_2_21471" result="shape"/>
</filter>
<filter id="filter1_d_2_21471" x="106.49" y="47.5601" width="64.0972" height="46.3496" filterUnits="userSpaceOnUse" color-interpolation-filters="sRGB">
<feFlood flood-opacity="0" result="BackgroundImageFix"/>
<feColorMatrix in="SourceAlpha" type="matrix" values="0 0 0 0 0 0 0 0 0 0 0 0 0 0 0 0 0 0 127 0" result="hardAlpha"/>
<feOffset dy="4"/>
<feGaussianBlur stdDeviation="4"/>
<feComposite in2="hardAlpha" operator="out"/>
<feColorMatrix type="matrix" values="0 0 0 0 0 0 0 0 0 0 0 0 0 0 0 0 0 0 0.25 0"/>
<feBlend mode="normal" in2="BackgroundImageFix" result="effect1_dropShadow_2_21471"/>
<feBlend mode="normal" in="SourceGraphic" in2="effect1_dropShadow_2_21471" result="shape"/>
</filter>
<filter id="filter2_d_2_21471" x="33.7734" y="53.8579" width="64.0972" height="46.3496" filterUnits="userSpaceOnUse" color-interpolation-filters="sRGB">
<feFlood flood-opacity="0" result="BackgroundImageFix"/>
<feColorMatrix in="SourceAlpha" type="matrix" values="0 0 0 0 0 0 0 0 0 0 0 0 0 0 0 0 0 0 127 0" result="hardAlpha"/>
<feOffset dy="4"/>
<feGaussianBlur stdDeviation="4"/>
<feComposite in2="hardAlpha" operator="out"/>
<feColorMatrix type="matrix" values="0 0 0 0 0 0 0 0 0 0 0 0 0 0 0 0 0 0 0.25 0"/>
<feBlend mode="normal" in2="BackgroundImageFix" result="effect1_dropShadow_2_21471"/>
<feBlend mode="normal" in="SourceGraphic" in2="effect1_dropShadow_2_21471" result="shape"/>
</filter>
</defs>
</svg>
