<svg width="30" height="23" viewBox="0 0 30 23" fill="none" xmlns="http://www.w3.org/2000/svg">
<path d="M28.8507 5.87183L16.2451 0.537912C15.8577 0.374957 15.4417 0.291016 15.0214 0.291016C14.6012 0.291016 14.1852 0.374957 13.7978 0.537912L1.19215 5.87183C0.851435 6.01595 0.56073 6.25726 0.356348 6.56562C0.151967 6.87398 0.0429688 7.23573 0.0429688 7.60567C0.0429688 7.97561 0.151967 8.33736 0.356348 8.64572C0.56073 8.95408 0.851435 9.19539 1.19215 9.33951L5.60989 11.2076V17.2149C5.6065 17.7543 5.74358 18.2853 6.00764 18.7557C6.27171 19.226 6.65366 19.6196 7.11594 19.8975C9.51491 21.3001 12.2438 22.0393 15.0227 22.0393C17.8016 22.0393 20.5305 21.3001 22.9294 19.8975C23.3917 19.6196 23.7737 19.226 24.0377 18.7557C24.3018 18.2853 24.4389 17.7543 24.4355 17.2149V11.2076L26.3181 10.4107V13.3864C26.066 13.4955 25.8471 13.6692 25.6836 13.89C25.5202 14.1107 25.4178 14.3707 25.3869 14.6437C25.3561 14.9166 25.3978 15.1929 25.5078 15.4446C25.6179 15.6963 25.7924 15.9145 26.0137 16.0772C25.8168 16.222 25.6566 16.411 25.546 16.629C25.4354 16.8469 25.3774 17.0878 25.3768 17.3322V18.901C25.3768 19.0675 25.4429 19.2271 25.5606 19.3448C25.6783 19.4624 25.8379 19.5286 26.0043 19.5286H27.8869C28.0533 19.5286 28.2129 19.4624 28.3306 19.3448C28.4483 19.2271 28.5144 19.0675 28.5144 18.901V17.3322C28.5137 17.0878 28.4558 16.8469 28.3451 16.629C28.2345 16.411 28.0743 16.222 27.8774 16.0772C28.0988 15.9145 28.2733 15.6963 28.3833 15.4446C28.4934 15.1929 28.5351 14.9166 28.5042 14.6437C28.4733 14.3707 28.371 14.1107 28.2075 13.89C28.044 13.6692 27.8252 13.4955 27.5731 13.3864V9.8798L28.8507 9.33951C29.1914 9.19539 29.4821 8.95408 29.6865 8.64572C29.8909 8.33736 29.9999 7.97561 29.9999 7.60567C29.9999 7.23573 29.8909 6.87398 29.6865 6.56562C29.4821 6.25726 29.1914 6.01595 28.8507 5.87183ZM27.2593 14.8222C27.2593 14.8842 27.2409 14.9449 27.2065 14.9965C27.172 15.0481 27.123 15.0883 27.0656 15.112C27.0083 15.1358 26.9452 15.142 26.8844 15.1299C26.8235 15.1178 26.7676 15.0879 26.7237 15.044C26.6798 15.0001 26.6499 14.9442 26.6378 14.8834C26.6257 14.8225 26.6319 14.7594 26.6557 14.7021C26.6794 14.6447 26.7197 14.5957 26.7713 14.5613C26.8229 14.5268 26.8835 14.5084 26.9456 14.5084C27.0288 14.5084 27.1086 14.5414 27.1674 14.6003C27.2263 14.6591 27.2593 14.7389 27.2593 14.8222ZM27.2593 18.2735H26.6318V17.3322C26.6318 17.249 26.6649 17.1692 26.7237 17.1104C26.7826 17.0515 26.8624 17.0185 26.9456 17.0185C27.0288 17.0185 27.1086 17.0515 27.1674 17.1104C27.2263 17.1692 27.2593 17.249 27.2593 17.3322V18.2735ZM23.1805 17.2149C23.1841 17.5358 23.1041 17.8522 22.9484 18.1329C22.7928 18.4135 22.5667 18.6489 22.2925 18.8157C20.0865 20.1044 17.5776 20.7836 15.0227 20.7836C12.4678 20.7836 9.95889 20.1044 7.75287 18.8157C7.47868 18.6489 7.25262 18.4135 7.09694 18.1329C6.94125 17.8522 6.8613 17.5358 6.86493 17.2149V11.7385L13.8003 14.6728C14.1876 14.8359 14.6037 14.92 15.0239 14.92C15.4442 14.92 15.8603 14.8359 16.2476 14.6728L23.1805 11.7385V17.2149ZM28.3619 8.18362L15.7563 13.5175C15.524 13.6151 15.2746 13.6653 15.0227 13.6653C14.7708 13.6653 14.5214 13.6151 14.2891 13.5175L1.6835 8.18362C1.56993 8.13558 1.47303 8.05514 1.4049 7.95235C1.33677 7.84957 1.30044 7.72899 1.30044 7.60567C1.30044 7.48236 1.33677 7.36177 1.4049 7.25899C1.47303 7.1562 1.56993 7.07576 1.6835 7.02772L14.2891 1.6938C14.5213 1.59605 14.7707 1.5457 15.0227 1.5457C15.2746 1.5457 15.5241 1.59605 15.7563 1.6938L28.3619 7.02772C28.4755 7.07576 28.5724 7.1562 28.6405 7.25899C28.7086 7.36177 28.7449 7.48236 28.7449 7.60567C28.7449 7.72899 28.7086 7.84957 28.6405 7.95235C28.5724 8.05514 28.4755 8.13558 28.3619 8.18362Z" fill="white"/>
</svg>
