<svg width="35" height="33" viewBox="0 0 35 33" fill="none" xmlns="http://www.w3.org/2000/svg">
<path d="M27.3008 22V23.168H26.6992V22H27.3008ZM27.2266 28.3789V29.4258H26.6289V28.3789H27.2266ZM27.8164 27.1172C27.8164 26.9661 27.7852 26.8346 27.7227 26.7227C27.6628 26.6081 27.5638 26.5052 27.4258 26.4141C27.2878 26.3203 27.1029 26.2331 26.8711 26.1523C26.5378 26.0352 26.2461 25.9036 25.9961 25.7578C25.7487 25.6094 25.556 25.4271 25.418 25.2109C25.2826 24.9922 25.2148 24.7201 25.2148 24.3945C25.2148 24.0742 25.2878 23.7969 25.4336 23.5625C25.582 23.3281 25.7878 23.1471 26.0508 23.0195C26.3138 22.8919 26.6211 22.8281 26.9727 22.8281C27.2435 22.8281 27.487 22.8685 27.7031 22.9492C27.9219 23.0299 28.1081 23.1484 28.2617 23.3047C28.4154 23.4609 28.5326 23.6536 28.6133 23.8828C28.6966 24.1094 28.7383 24.3698 28.7383 24.6641H27.8008C27.8008 24.4974 27.7812 24.349 27.7422 24.2188C27.7057 24.0859 27.651 23.974 27.5781 23.8828C27.5052 23.7891 27.4167 23.7174 27.3125 23.668C27.2109 23.6185 27.0951 23.5938 26.9648 23.5938C26.7799 23.5938 26.6276 23.6289 26.5078 23.6992C26.388 23.7669 26.2995 23.8607 26.2422 23.9805C26.1875 24.1003 26.1602 24.237 26.1602 24.3906C26.1602 24.5391 26.1888 24.6693 26.2461 24.7812C26.3034 24.8932 26.401 24.9948 26.5391 25.0859C26.6797 25.1745 26.8724 25.2643 27.1172 25.3555C27.4531 25.4753 27.7435 25.6094 27.9883 25.7578C28.2357 25.9036 28.4258 26.0846 28.5586 26.3008C28.694 26.5143 28.7617 26.7839 28.7617 27.1094C28.7617 27.4453 28.6836 27.7305 28.5273 27.9648C28.3737 28.1992 28.1576 28.3776 27.8789 28.5C27.6029 28.6198 27.2812 28.6797 26.9141 28.6797C26.6823 28.6797 26.4518 28.6497 26.2227 28.5898C25.9961 28.5273 25.7904 28.4258 25.6055 28.2852C25.4206 28.1445 25.2734 27.9583 25.1641 27.7266C25.0547 27.4922 25 27.2057 25 26.8672H25.9453C25.9453 27.0703 25.9727 27.2396 26.0273 27.375C26.082 27.5104 26.1562 27.6172 26.25 27.6953C26.3438 27.7734 26.4479 27.8294 26.5625 27.8633C26.6797 27.8971 26.7969 27.9141 26.9141 27.9141C27.1094 27.9141 27.2734 27.8815 27.4062 27.8164C27.5417 27.7487 27.6432 27.6549 27.7109 27.5352C27.7812 27.4128 27.8164 27.2734 27.8164 27.1172Z" fill="white"/>
<path d="M1 13.5L5.8125 10M34 13.5L29.5 10.2273M5.8125 10L17.5 1.5L29.5 10.2273M5.8125 10V28.5H19M29.5 10.2273V17.5" stroke="white" stroke-width="2"/>
<circle cx="27" cy="26" r="6" stroke="white" stroke-width="2"/>
</svg>
