<svg width="34" height="26" viewBox="0 0 34 26" fill="none" xmlns="http://www.w3.org/2000/svg">
<path d="M5.00485 16.8202V14.7376C5.00485 14.5607 4.86141 14.4172 4.68447 14.4172H1.32039C1.14344 14.4172 1 14.5607 1 14.7376V24.6697C1 24.8466 1.14344 24.9901 1.32039 24.9901H4.68447C4.86141 24.9901 5.00485 24.8466 5.00485 24.6697V23.2279M5.00485 16.8202C6.71359 15.592 11.1563 13.6803 15.2573 15.859C17.842 17.2321 19.7564 17.235 20.9925 16.8221C21.9541 16.5009 23.1482 16.237 23.9078 16.9086V16.9086M5.00485 16.8202V23.2279M15.7379 20.1842C16.5922 20.2376 18.6214 20.3124 19.9029 20.1842C21.1324 20.0613 23.3448 18.6507 24.4184 17.8762C24.501 17.8166 24.5519 17.7186 24.5132 17.6244C24.4278 17.4169 24.1962 17.1636 23.9078 16.9086M23.9078 16.9086L30.0239 14.3298C30.623 14.0772 31.2957 14.0617 31.9058 14.2865L32.6742 14.5696C33.1909 14.7599 33.2427 15.4703 32.7591 15.7336L20.9414 22.1677C20.0578 22.6488 19.0473 22.8345 18.0446 22.7528C14.9349 22.4995 9.62134 22.369 5.00485 23.2279" stroke="white" stroke-width="1.5" stroke-linecap="round"/>
<circle cx="18.9419" cy="6.40764" r="5.65777" stroke="white" stroke-width="1.5"/>
<path d="M19.434 2.81921V3.92681H18.8483V2.81921H19.434ZM19.3626 8.9504V9.96037H18.7769V8.9504H19.3626ZM19.7756 7.7189C19.7756 7.57623 19.7494 7.45483 19.6968 7.35471C19.6467 7.25459 19.5641 7.16573 19.449 7.08814C19.3364 7.01054 19.1837 6.93545 18.9909 6.86287C18.6656 6.73771 18.379 6.60505 18.1312 6.46488C17.8859 6.32221 17.6944 6.14575 17.5567 5.93549C17.419 5.72273 17.3502 5.45366 17.3502 5.12826C17.3502 4.81789 17.424 4.54881 17.5717 4.32103C17.7194 4.09326 17.9234 3.91805 18.1837 3.7954C18.4465 3.67025 18.7519 3.60767 19.0998 3.60767C19.3651 3.60767 19.6054 3.64772 19.8207 3.72782C20.036 3.80541 20.2212 3.92055 20.3764 4.07323C20.5316 4.22342 20.6505 4.40739 20.7331 4.62515C20.8157 4.84292 20.857 5.09197 20.857 5.37231H19.7794C19.7794 5.22213 19.7631 5.08947 19.7306 4.97433C19.6981 4.85919 19.6505 4.76282 19.5879 4.68523C19.5278 4.60763 19.4553 4.55006 19.3702 4.51252C19.2851 4.47247 19.1912 4.45244 19.0886 4.45244C18.9359 4.45244 18.8107 4.48248 18.7131 4.54255C18.6155 4.60263 18.5442 4.68397 18.4991 4.7866C18.4565 4.88672 18.4353 5.00186 18.4353 5.13202C18.4353 5.25967 18.4578 5.37106 18.5029 5.46617C18.5504 5.56129 18.6318 5.64889 18.7469 5.72899C18.862 5.80659 19.0197 5.88668 19.22 5.96928C19.5454 6.09443 19.8307 6.2296 20.076 6.37477C20.3213 6.51995 20.5128 6.69767 20.6505 6.90792C20.7881 7.11818 20.857 7.386 20.857 7.71139C20.857 8.03429 20.7819 8.30962 20.6317 8.5374C20.4815 8.76267 20.2712 8.93538 20.0009 9.05552C19.7306 9.17317 19.4177 9.23199 19.0623 9.23199C18.832 9.23199 18.603 9.20195 18.3752 9.14188C18.1474 9.0793 17.9409 8.97918 17.7557 8.84151C17.5705 8.70385 17.4228 8.52113 17.3127 8.29335C17.2025 8.06307 17.1475 7.78023 17.1475 7.44482H18.2288C18.2288 7.62754 18.2526 7.78023 18.3001 7.90288C18.3477 8.02302 18.4102 8.11939 18.4878 8.19198C18.5679 8.26206 18.658 8.31212 18.7582 8.34216C18.8583 8.3722 18.9597 8.38721 19.0623 8.38721C19.2225 8.38721 19.3539 8.35843 19.4565 8.30086C19.5616 8.24329 19.6405 8.16444 19.693 8.06432C19.7481 7.9617 19.7756 7.84656 19.7756 7.7189Z" fill="white"/>
</svg>
