<svg width="27" height="36" viewBox="0 0 27 36" fill="none" xmlns="http://www.w3.org/2000/svg">
<path d="M6.09375 14.4373V7.93732M6.09375 7.93732C8.26042 6.44774 14.3 4.36232 21.125 7.93732M6.09375 7.93732L1.625 5.5M21.125 7.93732V14.4373M21.125 7.93732L24.971 5.83965C25.2038 5.7127 25.1695 5.36834 24.9163 5.28975L14.104 1.9342C13.914 1.87524 13.7107 1.87428 13.5202 1.93144L1.625 5.5M1.625 5.5V13.6248" stroke="white" stroke-width="2"/>
<circle cx="1.625" cy="13.2188" r="1.625" fill="white"/>
<circle cx="13.8125" cy="22.9688" r="11.1875" stroke="white" stroke-width="2"/>
<path d="M14.7195 14.8438V17.3996H13.4202V14.8438H14.7195ZM14.5592 28.8029V31.0938H13.2683V28.8029H14.5592ZM15.8332 26.0418C15.8332 25.7113 15.7657 25.4235 15.6307 25.1784C15.5013 24.9277 15.2876 24.7026 14.9895 24.5031C14.6914 24.298 14.292 24.1071 13.7914 23.9304C13.0714 23.674 12.4415 23.3862 11.9015 23.0671C11.3671 22.7422 10.9509 22.3433 10.6528 21.8703C10.3603 21.3916 10.214 20.7961 10.214 20.0838C10.214 19.3828 10.3715 18.7759 10.6865 18.263C11.0071 17.7501 11.4515 17.3541 12.0196 17.0748C12.5877 16.7956 13.2514 16.656 14.0108 16.656C14.5958 16.656 15.1217 16.7443 15.5885 16.9209C16.061 17.0976 16.4632 17.3569 16.795 17.6988C17.1269 18.0408 17.38 18.4625 17.5544 18.9639C17.7344 19.4597 17.8244 20.0296 17.8244 20.6736H15.7995C15.7995 20.3089 15.7573 19.984 15.6729 19.6991C15.5942 19.4085 15.476 19.1634 15.3185 18.9639C15.161 18.7588 14.9698 18.6021 14.7448 18.4938C14.5254 18.3855 14.2751 18.3314 13.9939 18.3314C13.5945 18.3314 13.2655 18.4083 13.0067 18.5622C12.748 18.7104 12.5568 18.9155 12.433 19.1777C12.3149 19.4398 12.2558 19.739 12.2558 20.0752C12.2558 20.4 12.3177 20.685 12.4415 20.93C12.5652 21.1751 12.7761 21.3973 13.0742 21.5968C13.378 21.7905 13.7942 21.9871 14.3229 22.1866C15.0485 22.4487 15.6757 22.7422 16.2044 23.0671C16.7388 23.3862 17.1494 23.7822 17.4363 24.2552C17.7288 24.7225 17.875 25.3124 17.875 26.0247C17.875 26.7598 17.7063 27.3839 17.3688 27.8967C17.0369 28.4096 16.5701 28.8 15.9682 29.0678C15.372 29.33 14.6773 29.4611 13.8842 29.4611C13.3836 29.4611 12.8858 29.3955 12.3908 29.2645C11.9015 29.1277 11.4571 28.9054 11.0578 28.5977C10.6584 28.29 10.3406 27.8825 10.1044 27.3753C9.86812 26.8624 9.75 26.2356 9.75 25.4947H11.7918C11.7918 25.9392 11.8509 26.3096 11.969 26.606C12.0871 26.9023 12.2474 27.136 12.4499 27.3069C12.6524 27.4779 12.8774 27.6004 13.1249 27.6745C13.378 27.7486 13.6311 27.7856 13.8842 27.7856C14.3061 27.7856 14.6604 27.7144 14.9473 27.5719C15.2398 27.4238 15.4592 27.2186 15.6054 26.9565C15.7573 26.6886 15.8332 26.3837 15.8332 26.0418Z" fill="white"/>
</svg>
