<svg width="1440" height="251" viewBox="0 0 1440 251" fill="none" xmlns="http://www.w3.org/2000/svg">
<path opacity="0.05" d="M499.5 77C292.5 220.145 184 174.469 0 150.065V-9.15527e-05H1440V174.469C1397.67 153.708 1228.39 134.392 1116 204C987.5 283.587 870.5 244.507 818 213C750.833 172.691 621.478 -7.35049 499.5 77Z" fill="white"/>
<path opacity="0.05" d="M490.5 96.4781C253 275 120.167 221.944 0 187.507V-9.15527e-05H1440V218C1397.67 192.058 1278.8 152.736 1142 202.981C1005.2 253.226 873.5 135.846 821 96.4781C753.833 46.112 617.55 0.978394 490.5 96.4781Z" fill="white"/>
<path opacity="0.05" d="M490.5 126.542C387.3 235.665 120.167 200.359 0 169.271V-0.000106812H1440V196.798C1397.67 173.38 1278.8 174.341 1142 219.699C1005.2 265.057 873.5 198.54 821 163.001C753.833 117.533 593.7 17.4197 490.5 126.542Z" fill="white"/>
</svg>
