<svg width="24" height="24" viewBox="0 0 24 24" fill="none" xmlns="http://www.w3.org/2000/svg">
<path d="M19.564 1.70099H3.65568C2.40054 1.70099 1.38306 2.71848 1.38306 3.97361V19.882C1.38306 21.1371 2.40054 22.1546 3.65568 22.1546H19.564C20.8192 22.1546 21.8367 21.1371 21.8367 19.882V3.97361C21.8367 2.71848 20.8192 1.70099 19.564 1.70099Z" stroke="white" stroke-width="2.5567" stroke-linecap="round" stroke-linejoin="round"/>
<path d="M7.63165 9.65405C8.573 9.65405 9.33612 8.89094 9.33612 7.94958C9.33612 7.00823 8.573 6.24512 7.63165 6.24512C6.6903 6.24512 5.92719 7.00823 5.92719 7.94958C5.92719 8.89094 6.6903 9.65405 7.63165 9.65405Z" stroke="white" stroke-width="2.5567" stroke-linecap="round" stroke-linejoin="round"/>
<path d="M21.8361 15.3348L16.1546 9.6532L3.65515 22.1526" stroke="white" stroke-width="2.5567" stroke-linecap="round" stroke-linejoin="round"/>
</svg>
