<svg width="26" height="31" viewBox="0 0 26 31" fill="none" xmlns="http://www.w3.org/2000/svg">
<path d="M9.52539 0L15.6321 7.65374L21.1688 7.61303L16.772 3.62331L17.8712 3.54189L22.2681 7.24663C22.2681 7.24663 22.553 7.61303 22.553 8.5901C22.553 10.0964 22.553 10.7478 22.553 10.7478C22.553 10.7478 21.4945 11.6842 22.553 12.417C22.1866 13.964 21.8202 14.9004 21.8202 14.9004H23.8151L23.4487 12.417C23.4487 12.417 24.5479 11.6435 23.2451 10.6664C23.2044 8.83437 23.1637 7.45018 23.1637 7.45018L25.7692 7.4909L19.0111 0.488537L9.52539 0Z" fill="#15234A"/>
<path d="M11.3561 3.94873L9.80908 7.69418C9.80908 7.69418 13.351 9.44477 13.9616 11.1546C14.2873 11.1546 18.2363 10.8697 19.3763 12.0503C20.1905 10.6254 21.2897 8.54912 21.2897 8.54912L15.0609 8.8341L11.3561 3.94873Z" fill="#15234A"/>
<path d="M5.98193 29.7202V30.8601H17.544V29.7202C17.544 29.7202 16.1598 28.621 12.4143 28.336C12.4143 27.0332 12.4143 26.9925 12.4143 26.9925C12.4143 26.9925 15.6305 26.8704 17.4625 25.6897C18.1953 27.0739 18.1953 27.1146 18.1953 27.1146C18.1953 27.1146 19.1317 27.7253 19.2131 26.5447C19.0096 26.0562 18.4396 24.9162 18.4396 24.9162L19.4981 23.8984C19.4981 23.8984 20.1495 22.6364 18.7246 23.2471C17.7068 23.9799 16.404 26.0562 10.8266 25.8933C10.1752 25.8119 5.73766 25.649 2.88786 19.9494C2.68431 19.5016 0.485891 15.1455 3.7428 10.5451C4.31276 9.7716 5.04557 8.3467 9.11671 6.5554C9.36097 6.47397 10.1752 5.70046 9.07599 5.41548C8.7503 5.41548 8.13963 5.82259 6.959 6.31113C6.71473 5.57832 6.67402 4.92694 5.57481 4.88623C5.5341 4.92694 4.47561 5.45619 5.90051 6.88109C4.19063 8.14314 2.15506 9.89373 1.13727 13.0285C0.852294 14.4534 -0.00264513 18.5653 2.96929 22.3921C4.71988 24.4277 6.06335 26.0154 11.2744 26.9518C11.2744 27.5625 11.2744 28.3767 11.2744 28.3767C11.2744 28.3767 7.81394 28.0103 5.98193 29.7202Z" fill="#15234A"/>
<path d="M11.6 23.9384C9.19801 23.9384 6.71461 23.0428 4.92331 20.2744C4.8826 20.193 4.84189 20.1523 4.80118 20.1116L4.76047 20.0709C3.62055 17.9131 3.37628 15.8369 4.02766 13.8827C5.20829 10.2594 8.99445 8.34597 9.1573 8.26455C9.40157 8.14242 9.68655 8.26455 9.80868 8.46811C9.93081 8.71237 9.84939 8.99735 9.60512 9.11949C9.56441 9.11949 6.02252 10.9515 4.96402 14.2084C4.43478 15.9183 4.63833 17.7096 5.65612 19.5823C5.69683 19.623 5.73754 19.7044 5.77825 19.7452C7.7324 22.8392 10.9079 23.7349 15.1826 22.3914C15.8747 22.0657 20.6786 19.5009 18.3988 12.9464C18.3174 12.7021 18.4395 12.4171 18.6838 12.3357C18.928 12.2543 19.213 12.3764 19.2944 12.6207C21.3707 18.646 17.9102 22.1471 15.549 23.2463C15.549 23.2463 15.5083 23.2463 15.5083 23.2871C14.2462 23.6535 12.9435 23.9384 11.6 23.9384Z" fill="#15234A"/>
<path d="M10.0964 23.7352C9.93352 23.7352 9.77067 23.6538 9.68925 23.491C4.23392 14.2495 9.81138 8.95701 9.85209 8.9163C10.0557 8.75345 10.3406 8.75345 10.5442 8.95701C10.707 9.16057 10.707 9.44555 10.5035 9.6491C10.2999 9.85266 5.45526 14.4938 10.5035 23.0431C10.6256 23.2874 10.5442 23.5724 10.3406 23.6945C10.2592 23.7352 10.1778 23.7352 10.0964 23.7352Z" fill="#15234A"/>
<path d="M11.8064 23.7749C11.5621 23.7749 11.3179 23.5713 11.3179 23.2863V10.3401C11.3179 10.0958 11.5214 9.85156 11.8064 9.85156C12.0914 9.85156 12.2949 10.0551 12.2949 10.3401V23.327C12.2542 23.5713 12.0507 23.7749 11.8064 23.7749Z" fill="#15234A"/>
<path d="M13.3938 23.7345C13.2717 23.7345 13.1902 23.6938 13.0681 23.6123C12.8645 23.4495 12.8238 23.1238 13.0274 22.9202C16.61 18.727 14.9815 12.7831 14.9408 12.7017C14.8594 12.4574 15.0222 12.1724 15.2665 12.091C15.5108 12.0096 15.7958 12.1724 15.8772 12.4167C15.9586 12.661 17.7092 18.8898 13.7602 23.4902C13.6788 23.6938 13.5566 23.7345 13.3938 23.7345Z" fill="#15234A"/>
<path d="M4.23072 16.6127C3.98646 16.6127 3.74219 16.4091 3.74219 16.1242C3.74219 15.8799 3.94574 15.6356 4.23072 15.6356L19.2939 15.5542C19.5382 15.5542 19.7825 15.7578 19.7825 16.0427C19.7825 16.287 19.5789 16.5313 19.2939 16.5313L4.23072 16.6127Z" fill="#15234A"/>
<path d="M11.6814 13.7192C7.77307 13.7192 6.14461 11.5208 6.06319 11.3987C5.90035 11.1951 5.98177 10.8694 6.18533 10.7473C6.38888 10.5844 6.71457 10.6659 6.83671 10.8694C6.95884 11.0323 9.48295 14.4113 16.4039 11.8465C16.6482 11.7651 16.9331 11.8872 17.0146 12.1315C17.096 12.3757 16.9738 12.6607 16.7296 12.7421C14.7347 13.4342 13.0656 13.7192 11.6814 13.7192Z" fill="#15234A"/>
<path d="M17.5438 21.6581C17.4217 21.6581 17.2996 21.6173 17.2181 21.5359C12.2513 16.7727 6.75531 21.2509 6.51104 21.4545C6.30748 21.6173 6.0225 21.5766 5.85966 21.4138C5.69681 21.1695 5.69681 20.8845 5.90037 20.7217C5.98179 20.681 12.2921 15.4699 17.8695 20.8438C18.0731 21.0067 18.0731 21.3324 17.8695 21.5359C17.7881 21.6173 17.666 21.6581 17.5438 21.6581Z" fill="#15234A"/>
</svg>
