<svg width="49" height="45" viewBox="0 0 49 45" fill="none" xmlns="http://www.w3.org/2000/svg">
<path d="M45.159 13H3.81899C3.60961 13 3.54099 12.719 3.72681 12.6225L24.0883 2.04717C24.1453 2.01755 24.2131 2.01714 24.2705 2.04607L45.249 12.6214C45.4371 12.7162 45.3696 13 45.159 13Z" stroke="white" stroke-width="3"/>
<path d="M2 43H47" stroke="white" stroke-width="3" stroke-linecap="round"/>
<path d="M5 36C4.17157 36 3.5 36.6716 3.5 37.5C3.5 38.3284 4.17157 39 5 39V36ZM44 39C44.8284 39 45.5 38.3284 45.5 37.5C45.5 36.6716 44.8284 36 44 36V39ZM39 37C39 37.8284 39.6716 38.5 40.5 38.5C41.3284 38.5 42 37.8284 42 37H39ZM31 37C31 37.8284 31.6716 38.5 32.5 38.5C33.3284 38.5 34 37.8284 34 37H31ZM39 16V37H42V16H39ZM31 16V37H34V16H31ZM24.5 39H44V36H24.5V39ZM23 16V37.5H26V16H23ZM16.5 39H24.5V36H16.5V39ZM15 16V37.5H18V16H15ZM5 39H8.5V36H5V39ZM8.5 39H16.5V36H8.5V39ZM7 16V37.5H10V16H7Z" fill="white"/>
</svg>
