<svg width="45" height="45" viewBox="0 0 45 45" fill="none" xmlns="http://www.w3.org/2000/svg">
<path d="M32.3459 39.5997C28.1312 42.0809 23.1635 42.9723 18.343 42.1056C13.419 41.2203 8.98986 38.5619 5.89273 34.6328C2.79561 30.7037 1.24509 25.7762 1.53423 20.7816C1.82337 15.787 3.93214 11.0713 7.46197 7.52584C10.9918 3.9804 15.6981 1.85083 20.6914 1.53965C25.6847 1.22847 30.619 2.75723 34.5618 5.83698C38.5045 8.91674 41.1824 13.3341 42.0894 18.2542C42.9776 23.0721 42.1074 28.0453 39.6433 32.2716C39.3192 32.8274 39.2443 33.5107 39.4719 34.1393L42.4904 42.475L34.2344 39.4283C33.5995 39.194 32.9071 39.2694 32.3459 39.5997Z" stroke="white" stroke-width="3" stroke-linejoin="round"/>
<circle cx="22" cy="22" r="12.5" stroke="white" stroke-width="3"/>
<path d="M26.5 22C26.5 25.7127 25.8521 29.0028 24.8639 31.3086C24.3687 32.4642 23.8175 33.3035 23.2818 33.8322C22.7526 34.3545 22.3212 34.5 22 34.5C21.6788 34.5 21.2474 34.3545 20.7182 33.8322C20.1825 33.3035 19.6313 32.4642 19.1361 31.3086C18.1479 29.0028 17.5 25.7127 17.5 22C17.5 18.2873 18.1479 14.9972 19.1361 12.6914C19.6313 11.5358 20.1825 10.6965 20.7182 10.1678C21.2474 9.64553 21.6788 9.5 22 9.5C22.3212 9.5 22.7526 9.64553 23.2818 10.1678C23.8175 10.6965 24.3687 11.5358 24.8639 12.6914C25.8521 14.9972 26.5 18.2873 26.5 22Z" stroke="white" stroke-width="3"/>
<path d="M9.5 22H34.5" stroke="white" stroke-width="3" stroke-linecap="round"/>
</svg>
