<svg width="63" height="40" viewBox="0 0 63 40" fill="none" xmlns="http://www.w3.org/2000/svg">
<path d="M30.8524 22.8882L1.82455 12.5948C1.647 12.5318 1.647 12.2807 1.82455 12.2178L30.8524 1.9244C30.8953 1.90918 30.9422 1.90907 30.9852 1.92408L60.4596 12.2175C60.6383 12.2799 60.6383 12.5327 60.4596 12.5951L30.9852 22.8885C30.9422 22.9035 30.8953 22.9034 30.8524 22.8882Z" stroke="white" stroke-width="3" stroke-linecap="round"/>
<path d="M15.4219 25.7769C20.1316 31.1887 33.2885 38.7654 46.415 25.7769" stroke="white" stroke-width="3" stroke-linecap="round"/>
<path d="M14.9668 17.6587V29.4804C14.9668 31.0827 15.582 32.652 16.876 33.597C22.8505 37.9597 34.1925 41.0091 44.6828 33.6795C46.122 32.6739 46.8715 30.9731 46.8715 29.2174V17.6587" stroke="white" stroke-width="3" stroke-linecap="round"/>
<ellipse cx="53.2523" cy="28.1644" rx="2.73468" ry="2.86511" fill="white"/>
<path d="M31.375 12.4062L53.0784 15.2486C53.178 15.2616 53.2525 15.3465 53.2525 15.4469V25.7768" stroke="white" stroke-width="3" stroke-linecap="round"/>
</svg>
