<svg width="563" height="692" viewBox="0 0 563 692" fill="none" xmlns="http://www.w3.org/2000/svg">
<mask id="mask0_2_10748" style="mask-type:alpha" maskUnits="userSpaceOnUse" x="0" y="0" width="563" height="692">
<rect width="563" height="692" fill="#D9D9D9"/>
</mask>
<g mask="url(#mask0_2_10748)">
<path d="M499.677 494.636C403.319 611.208 130.186 660.753 0.197754 663.632C0.0856174 663.635 0 663.544 0 663.432V52.7919C0 52.7004 0.0628932 52.6204 0.151537 52.5978C182.463 6.25017 348.797 31.1637 416.781 127.637C457.653 185.637 425.608 214.636 412.751 241.636C387.422 298.636 432.9 322.97 468.015 327.636C530.187 335.899 564.151 416.636 499.677 494.636Z" fill="#F5F7F7"/>
<path d="M519.825 506C414.775 630.37 134.975 686.924 -6.70982 689.995C-6.82192 689.998 -6.9082 689.908 -6.9082 689.795V38.3059C-6.9082 38.2141 -6.84457 38.1338 -6.75545 38.1116C191.993 -11.3395 361.663 14.0749 435.778 117C480.336 178.878 442.886 210.695 428.87 239.5C401.257 300.311 454.487 315.521 492.769 320.5C560.546 329.315 590.113 422.785 519.825 506Z" stroke="#C6D3FA" stroke-width="2" stroke-linecap="round" stroke-dasharray="5 15"/>
</g>
</svg>
