<svg width="451" height="297" viewBox="0 0 451 297" fill="none" xmlns="http://www.w3.org/2000/svg">
<path d="M35.6428 295.699C35.6428 295.699 -19.5402 221.036 7.41957 144.161C24.9935 94.0481 90.9407 66.6047 128.172 94.0481C144.023 105.733 194.874 94.4352 222.031 46.036C274.802 -48.0345 458.959 9.10078 425.419 153.543C409.191 223.45 474.793 225.975 441.368 295.865L35.6428 295.699Z" fill="#F0F6FF"/>
<path d="M81.877 261.346C81.877 261.346 76.3112 254.844 81.5322 250.723C81.5322 250.723 85.3412 248.408 88.4607 248.605C88.4607 248.605 84.0442 255.993 85.4726 256.732C86.9009 257.471 89.7906 248.145 89.7906 248.145C89.7906 248.145 98.4758 247.308 101.267 248.654C101.267 248.654 93.8459 254.729 95.4056 255.09C96.9653 255.452 104.994 249.492 104.994 249.492C104.994 249.492 113.072 250.871 112.645 255.796C112.218 260.722 109.427 262.249 108.212 262.117C106.98 261.986 99.8221 259.244 99.6744 260.262C99.5102 261.264 103.828 264.547 106.849 264.695C106.849 264.695 101.152 270.983 97.3594 269.161C93.5668 267.355 93.2548 264.465 90.8906 263.398C88.5263 262.314 86.5069 262.314 87.492 263.414C88.4607 264.515 92.7458 265.582 94.0921 267.979C95.4384 270.359 96.6534 271.985 92.7294 271.394C88.8055 270.803 82.4352 267.93 82.1561 264.646C81.8769 261.346 81.877 261.346 81.877 261.346Z" fill="#15234A"/>
<path d="M108.672 255.911C108.672 255.911 86.7204 255.057 81.8606 261.345C81.8606 261.345 80.7934 264.563 77.4933 267.486L76.9844 268.881C76.9844 268.881 80.7934 264.875 82.1561 264.629C82.1561 264.629 80.0218 256.847 108.672 255.911Z" fill="#15234A"/>
<path d="M77.4935 267.47C77.4935 267.47 72.7815 270.95 72.4531 277.189L73.3069 277.271C73.3069 277.271 74.8174 270.835 77.5264 268.307C80.2518 265.795 77.4935 267.47 77.4935 267.47Z" fill="#15234A"/>
<path d="M62.4049 253.17C62.4049 253.17 71.2708 248.211 67.1334 241.48C67.1334 241.48 63.8333 237.342 60.2869 236.275C60.2869 236.275 62.175 246.323 60.2869 246.553C58.3988 246.783 58.9899 235.208 58.9899 235.208C58.9899 235.208 49.6643 230.726 46.003 231.071C46.003 231.071 51.7987 240.872 49.8942 240.643C48.0061 240.413 41.5044 230.48 41.5044 230.48C41.5044 230.48 31.9326 228.706 30.4057 234.371C28.8624 240.035 31.3579 242.875 32.7699 243.237C34.1819 243.598 43.2776 243.467 43.0478 244.649C42.8179 245.831 36.6775 247.719 33.246 246.652C33.246 246.652 37.0222 255.977 41.9806 255.518C46.9389 255.041 48.4822 251.971 51.5524 251.741C54.6226 251.511 56.8719 252.332 55.3286 253.153C53.7853 253.974 48.5971 253.432 46.118 255.534C43.6388 257.635 41.6358 258.949 46.2329 259.885C50.8464 260.837 59.1048 260.246 60.7631 256.7C62.4049 253.17 62.4049 253.17 62.4049 253.17Z" fill="#15234A"/>
<path d="M34.7568 236.16C34.7568 236.16 59.5648 244.188 62.3888 253.169C62.3888 253.169 62.2739 257.192 64.753 261.789V263.562C64.753 263.562 62.1589 257.537 60.7305 256.716C60.747 256.716 66.2963 248.917 34.7568 236.16Z" fill="#15234A"/>
<path d="M64.7696 261.79C64.7696 261.79 68.5951 267.602 66.4114 274.661L65.4263 274.399C65.4263 274.399 66.3786 266.616 64.3756 262.693C62.3725 258.785 64.7696 261.79 64.7696 261.79Z" fill="#15234A"/>
<path d="M76.4918 246.323C76.4918 246.323 64.8184 239.788 70.2693 230.906C70.2693 230.906 74.6366 225.455 79.2994 224.06C79.2994 224.06 76.8038 237.293 79.2994 237.605C81.7949 237.917 81.0069 222.664 81.0069 222.664C81.0069 222.664 93.3042 216.754 98.1311 217.213C98.1311 217.213 90.4966 230.134 92.9922 229.822C95.4878 229.51 104.042 216.425 104.042 216.425C104.042 216.425 116.651 214.094 118.67 221.564C120.69 229.034 117.423 232.778 115.551 233.237C113.679 233.697 101.694 233.549 102.006 235.109C102.318 236.669 110.412 239.164 114.927 237.752C114.927 237.752 109.952 250.05 103.401 249.426C96.8669 248.802 94.8311 244.747 90.7922 244.451C86.7368 244.139 83.7816 245.223 85.8174 246.323C87.8369 247.406 94.6997 246.684 97.9669 249.459C101.234 252.233 103.878 253.957 97.8192 255.189C91.7444 256.436 80.8427 255.648 78.6755 250.986C76.4918 246.323 76.4918 246.323 76.4918 246.323Z" fill="#FF8000"/>
<path d="M112.925 223.912C112.925 223.912 80.2195 234.502 76.4925 246.34C76.4925 246.34 76.6403 251.626 73.373 257.701V260.033C73.373 260.033 76.8045 252.086 78.6597 251.003C78.6762 251.003 71.3536 240.725 112.925 223.912Z" fill="#FF8000"/>
<path d="M73.3728 257.701C73.3728 257.701 68.3324 265.352 71.2056 274.677L72.5026 274.332C72.5026 274.332 71.2384 264.071 73.8817 258.899C76.5251 253.727 73.3728 257.701 73.3728 257.701Z" fill="#FF8000"/>
<path d="M76.0982 294.888C88.7239 294.888 98.9688 284.643 98.9688 272.018H53.2275C53.2275 284.643 63.4725 294.888 76.0982 294.888Z" fill="#878FA7"/>
<path d="M99.2967 296.054H52.915C52.915 294.494 54.1792 293.23 55.739 293.23H96.4727C98.0325 293.23 99.2967 294.494 99.2967 296.054Z" fill="#D4E4F8"/>
<path d="M99.4936 272.018H52.4717V272.724H99.4936V272.018Z" fill="#9FC1F4"/>
<path d="M188.797 295.071H188.912C189.831 295.054 190.553 294.299 190.455 293.429L184.282 231.844L178.896 232.32L187.746 294.233C187.844 294.726 188.288 295.087 188.797 295.071Z" fill="#8CB4F4"/>
<path d="M129.428 295.071H129.313C128.394 295.054 127.671 294.299 127.77 293.429L133.943 231.844L139.328 232.32L130.479 294.233C130.38 294.726 129.953 295.087 129.428 295.071Z" fill="#8CB4F4"/>
<path d="M232.306 295.071H232.42C233.34 295.054 234.062 294.299 233.964 293.429L227.79 231.844L222.405 232.32L231.255 294.233C231.337 294.726 231.78 295.087 232.306 295.071Z" fill="#8CB4F4"/>
<path d="M131.267 222.896L120.316 168.847C118.904 161.524 124.979 154.842 132.843 155.022L153.957 155.499C161.247 155.663 167.568 160.539 169.587 167.533L185.595 222.896H131.267Z" fill="#8CB4F4"/>
<path d="M137.883 222.896L126.932 168.847C125.52 161.524 131.595 154.842 139.459 155.022L160.573 155.499C167.863 155.663 174.184 160.539 176.204 167.533L192.211 222.896H137.883Z" fill="#8CB4F4"/>
<path d="M134.321 232.763H217.841C219.516 232.763 220.895 231.384 220.895 229.709V225.95C220.895 224.275 219.516 222.896 217.841 222.896H131.268V229.709C131.268 231.384 132.63 232.763 134.321 232.763Z" fill="#8CB4F4"/>
<path d="M173.511 232.763H226.739C228.086 232.763 229.202 231.663 229.202 230.3V225.358C229.202 224.012 228.102 222.896 226.739 222.896H173.495C172.149 222.896 171.032 223.996 171.032 225.358V230.3C171.049 231.647 172.149 232.763 173.511 232.763Z" fill="#8CB4F4"/>
<path d="M293.89 100.021H263.614C262.219 100.021 261.086 98.8885 261.086 97.493V68.252C261.086 66.8565 262.219 65.7236 263.614 65.7236H293.89C295.285 65.7236 296.418 66.8565 296.418 68.252V97.4766C296.418 98.8721 295.285 100.021 293.89 100.021Z" fill="#15234A"/>
<path d="M292.576 98.5279H264.912C263.647 98.5279 262.597 97.4936 262.597 96.2129V69.5332C262.597 68.269 263.631 67.2183 264.912 67.2183H292.576C293.841 67.2183 294.891 68.2526 294.891 69.5332V96.2294C294.891 97.4936 293.841 98.5279 292.576 98.5279Z" fill="#DFEBFD"/>
<path d="M278.752 71.0929C279.16 71.0929 279.49 70.7621 279.49 70.3541C279.49 69.946 279.16 69.6152 278.752 69.6152C278.343 69.6152 278.013 69.946 278.013 70.3541C278.013 70.7621 278.343 71.0929 278.752 71.0929Z" fill="#15234A"/>
<path d="M283.923 71.3885C284.12 71.0273 284.563 70.9124 284.925 71.1094C285.286 71.3064 285.401 71.7497 285.204 72.1109C285.007 72.4721 284.563 72.5871 284.202 72.39C283.857 72.1766 283.726 71.7333 283.923 71.3885Z" fill="#15234A"/>
<path d="M288.98 75.3943C289.325 75.1809 289.769 75.2794 289.998 75.6077C290.212 75.9525 290.113 76.3958 289.785 76.6257C289.44 76.8391 288.997 76.7406 288.767 76.4122C288.537 76.0675 288.636 75.6242 288.98 75.3943Z" fill="#15234A"/>
<path d="M291.492 81.6167C291.902 81.6167 292.231 81.9451 292.231 82.3555C292.231 82.766 291.902 83.0943 291.492 83.0943C291.081 83.0943 290.753 82.766 290.753 82.3555C290.753 81.9451 291.081 81.6167 291.492 81.6167Z" fill="#15234A"/>
<path d="M290.211 88.8409C290.491 89.12 290.491 89.5962 290.211 89.8753C289.932 90.1544 289.456 90.1544 289.177 89.8753C288.898 89.5962 288.898 89.12 289.177 88.8409C289.456 88.5618 289.916 88.5618 290.211 88.8409Z" fill="#15234A"/>
<path d="M285.615 93.4546C285.894 93.7337 285.894 94.2098 285.615 94.4889C285.336 94.768 284.86 94.768 284.58 94.4889C284.301 94.2098 284.301 93.7337 284.58 93.4546C284.86 93.159 285.319 93.159 285.615 93.4546Z" fill="#15234A"/>
<path d="M278.013 95.835C278.013 95.4246 278.341 95.0962 278.752 95.0962C279.162 95.0962 279.49 95.4246 279.49 95.835C279.49 96.2455 279.162 96.5738 278.752 96.5738C278.341 96.5574 278.013 96.2291 278.013 95.835Z" fill="#15234A"/>
<path d="M273.547 71.3888C273.35 71.0276 272.907 70.9126 272.546 71.1097C272.184 71.3067 272.069 71.75 272.266 72.1112C272.463 72.4724 272.907 72.5873 273.268 72.3903C273.613 72.1769 273.744 71.7336 273.547 71.3888Z" fill="#15234A"/>
<path d="M268.49 75.3946C268.146 75.1811 267.702 75.2796 267.472 75.608C267.259 75.9528 267.358 76.3961 267.686 76.6259C268.031 76.8394 268.474 76.7409 268.704 76.4125C268.934 76.0677 268.835 75.6244 268.49 75.3946Z" fill="#15234A"/>
<path d="M265.978 81.6174C265.568 81.6174 265.239 81.9458 265.239 82.3563C265.239 82.7667 265.568 83.0951 265.978 83.0951C266.389 83.0951 266.717 82.7667 266.717 82.3563C266.717 81.9458 266.389 81.6174 265.978 81.6174Z" fill="#15234A"/>
<path d="M267.259 88.8412C266.98 89.1203 266.98 89.5964 267.259 89.8755C267.538 90.1546 268.014 90.1546 268.293 89.8755C268.573 89.5964 268.573 89.1203 268.293 88.8412C268.014 88.5621 267.555 88.5621 267.259 88.8412Z" fill="#15234A"/>
<path d="M272.381 94.7025C272.789 94.7025 273.12 94.3717 273.12 93.9637C273.12 93.5556 272.789 93.2249 272.381 93.2249C271.973 93.2249 271.643 93.5556 271.643 93.9637C271.643 94.3717 271.973 94.7025 272.381 94.7025Z" fill="#15234A"/>
<path d="M278.555 82.3558C278.555 81.9453 278.883 81.6169 279.294 81.6169C279.704 81.6169 280.032 81.9453 280.032 82.3558C280.032 82.7662 279.704 83.0946 279.294 83.0946C278.883 83.0946 278.555 82.7662 278.555 82.3558Z" fill="#15234A"/>
<path d="M279.376 73.2109H279.179V82.3559H279.376V73.2109Z" fill="#15234A"/>
<path d="M283.856 78.2931L279.013 82.095L279.388 82.5728L284.231 78.771L283.856 78.2931Z" fill="#15234A"/>
<path d="M204.016 211.583C199.501 219.448 193.82 222.485 193.82 222.485H170.178C170.178 222.485 207.464 205.591 204.016 211.583Z" fill="#233862"/>
<path d="M233.175 289.701C232.912 292.181 236.377 292.821 240.366 293.067C244.372 293.313 243.141 294.118 248.625 295.169C254.092 296.219 256.308 294.742 256.719 294.003C257.08 293.346 254.535 292.295 251.826 291.097C251.481 290.949 251.137 290.801 250.808 290.637C247.771 289.258 246.08 286.5 243.716 283.922C241.483 281.492 239.414 273.743 239.414 273.743L231.977 272.068C231.977 272.068 233.996 279.029 234.686 282.001C235.096 283.742 234.439 285.695 233.865 287.173C233.586 288.01 233.257 288.831 233.175 289.701Z" fill="#FFB27D"/>
<path d="M240.366 293.067C244.373 293.313 243.141 294.118 248.625 295.168C254.092 296.219 256.309 294.742 256.719 294.003C257.08 293.346 254.535 292.295 251.826 291.097L251.777 291.146C251.777 291.146 247.902 292.41 243.47 291.162C239.858 290.144 236.36 287.928 233.865 287.206C233.553 288.01 233.241 288.831 233.159 289.701C232.913 292.18 236.377 292.821 240.366 293.067Z" fill="#FF8000"/>
<path d="M221.912 203.538C217.906 200.731 191.439 195.723 177.927 194.262L162.987 181.292C162.987 181.292 150.279 200.123 150.18 214.522C150.131 221.237 153.234 221.91 153.234 221.91C153.234 221.91 201.11 222.272 203.211 222.485C206.643 222.846 211.174 231.4 212.307 239.182C213.44 246.981 233.405 278.668 233.405 278.668C233.405 278.668 237.575 279.998 239.496 279.883C241.564 279.768 242.517 279.062 242.517 279.062C242.517 279.062 230.925 209.876 221.912 203.538Z" fill="#3B5CB9"/>
<path d="M220.795 289.701C220.533 292.181 223.997 292.821 227.986 293.067C231.992 293.313 230.761 294.118 236.245 295.169C241.729 296.219 243.929 294.742 244.339 294.003C244.7 293.346 242.155 292.295 239.446 291.097C239.102 290.949 238.757 290.801 238.428 290.637C235.391 289.258 233.7 286.5 231.336 283.922C229.103 281.492 227.034 273.743 227.034 273.743L219.597 272.068C219.597 272.068 221.616 279.029 222.306 282.001C222.716 283.742 222.059 285.695 221.485 287.173C221.189 288.01 220.877 288.831 220.795 289.701Z" fill="#FFB27D"/>
<path d="M227.987 293.067C231.993 293.313 230.761 294.118 236.245 295.168C241.729 296.219 243.929 294.742 244.339 294.003C244.7 293.346 242.156 292.295 239.447 291.097L239.397 291.146C239.397 291.146 235.523 292.41 231.09 291.162C227.478 290.144 223.981 287.928 221.485 287.206C221.173 288.01 220.861 288.831 220.779 289.701C220.533 292.18 223.981 292.821 227.987 293.067Z" fill="#FF8000"/>
<path d="M209.418 203.538C205.937 201.092 195.478 199.204 183.936 197.792C180.751 197.398 178.124 195.083 177.336 191.963L150.492 181.292C150.492 181.292 137.785 200.123 137.686 214.522C137.637 221.237 140.74 221.91 140.74 221.91C140.74 221.91 188.616 222.272 190.717 222.485C194.149 222.846 198.68 231.4 199.813 239.182C200.946 246.981 220.91 278.668 220.91 278.668C220.91 278.668 225.081 279.998 227.002 279.883C229.07 279.768 230.023 279.062 230.023 279.062C230.023 279.062 218.448 209.876 209.418 203.538Z" fill="#3E63C8"/>
<path d="M173.478 103.075C169.784 101.138 164.169 100.875 163.266 100.76C152.348 99.2988 145.78 115.159 145.403 119.953C144.697 128.819 140.001 130.165 133.401 135.714C120.168 146.846 124.059 159.767 131.283 164.561C135.617 167.451 143.268 164.561 143.268 164.561C143.383 164.643 164.185 152.937 174.447 147.289C189.831 145.089 182.886 108.017 173.478 103.075Z" fill="black"/>
<path d="M171.213 141.822C171.262 141.838 166.369 144.071 162.823 142.905C159.49 141.805 156.568 136.798 156.617 136.798C158.062 136.584 159.523 135.172 159.933 126.733L160.574 126.898L171.328 129.607C171.328 129.607 170.901 133.005 170.72 136.223C170.572 138.932 170.605 141.493 171.213 141.822Z" fill="#FFB27D"/>
<path d="M171.327 129.607C171.327 129.607 171.327 130.313 170.933 133.481C164.858 131.955 162.165 129.935 160.277 127.62L171.327 129.607Z" fill="#ED975D"/>
<path d="M173.61 130.034C173.61 130.034 159.391 132.349 158.094 123.466C156.797 114.6 154.072 108.92 163.102 107.064C172.116 105.209 174.381 108.345 175.547 111.202C176.696 114.059 177.271 129.196 173.61 130.034Z" fill="#FFB27D"/>
<path d="M173.625 106.687C173.625 106.687 167.173 116.882 161.41 119.296C155.647 121.709 152.823 120.478 152.823 120.478C152.823 120.478 155.45 116.505 156.123 111.169C156.32 109.593 157.355 108.246 158.816 107.655C162.953 105.997 170.949 103.386 173.625 106.687Z" fill="black"/>
<path d="M167.961 107.672C167.961 107.672 171.737 109.609 173.297 111.431C174.807 113.188 176.531 117.949 176.416 120.084C176.416 120.084 178.288 109.839 174.397 106.325C170.276 102.582 167.961 107.672 167.961 107.672Z" fill="black"/>
<path d="M182.573 163.494C182.147 192.39 182.458 186.348 179.29 189.09C178.535 189.747 176.384 190.141 173.576 190.321C164.71 190.912 149.146 189.451 148.555 187.809C146.519 182.145 147.947 180.388 146.256 171.703C146.076 170.784 145.862 169.782 145.599 168.699C144.171 162.739 142.792 160.719 147.832 151.147C152.413 142.479 157.782 135.435 158.209 135.698C170.276 142.856 170.687 136.863 170.687 136.863C170.687 136.863 182.787 149.407 182.573 163.494Z" fill="#15234A"/>
<path d="M170.687 136.864C170.687 136.864 183.033 138.965 184.494 144.301C185.956 149.654 194.526 181.078 194.526 181.078C194.526 181.078 188.221 182.211 185.299 179.289C182.376 176.366 175.152 152.231 175.152 152.231L170.687 136.864Z" fill="#15234A"/>
<path d="M173.577 190.338C164.711 190.929 149.146 189.468 148.555 187.826C146.52 182.162 147.948 180.405 146.257 171.72L150.526 159.685C150.526 159.685 149.82 173.082 153.776 176.612C157.717 180.142 169.948 183.409 171.869 186.365C172.789 187.777 173.396 189.205 173.577 190.338Z" fill="#131F42"/>
<path d="M163.43 184.707C163.43 184.707 172.164 182.753 173.576 183.541C174.988 184.312 178.436 187.136 178.863 188.122C179.29 189.107 175.727 187.383 174.561 187.071C173.806 186.874 171.836 187.563 170.851 187.892C166.73 189.271 164.201 188.565 164.201 188.565L163.43 184.707Z" fill="#FFB27D"/>
<path d="M158.209 135.714C158.209 135.714 145.846 136.437 141.774 142.101C136.06 150.08 124.715 184.066 131.217 188.597C138.54 193.703 164.546 189.927 164.546 189.927C164.546 189.927 165.416 185.888 164.201 183.918C163.003 181.964 143.432 178.796 142.529 177.893C141.626 176.99 153.809 160.292 153.809 157.583C153.809 154.891 158.209 135.714 158.209 135.714Z" fill="#15234A"/>
<path d="M174.003 185.971C174.003 185.971 175.842 188.335 176.433 188.614C177.04 188.893 177.418 188.827 177.418 188.827L176.187 186.611L174.003 185.971Z" fill="#FFB27D"/>
<path d="M173.576 183.524L178.896 186.102C178.896 186.102 178.666 186.48 178.009 186.447C177.352 186.414 175.694 185.807 175.694 185.807L173.576 183.524Z" fill="#FFB27D"/>
<path d="M193.197 189.665H168.471C168.471 188.581 169.357 187.695 170.441 187.695H193.197V189.665Z" fill="#D3D7E0"/>
<path d="M193.115 162.723H231.353L222.191 189.665H183.707L193.115 162.723Z" fill="#D3D7E0"/>
<path d="M231.911 162.723L222.75 189.665H184.266L193.69 162.723H231.911Z" fill="#F7F8FE"/>
<path d="M211.306 175.94C211.076 176.974 210.042 177.795 209.007 177.795C207.973 177.795 207.333 176.957 207.579 175.94C207.809 174.905 208.843 174.084 209.878 174.084C210.896 174.084 211.536 174.922 211.306 175.94Z" fill="#3E63C8"/>
<path d="M159.916 195.723H327.465C328.171 195.723 328.745 195.148 328.745 194.442V190.929C328.745 190.223 328.171 189.648 327.465 189.648H159.916C159.21 189.648 158.636 190.223 158.636 190.929V194.442C158.636 195.148 159.21 195.723 159.916 195.723Z" fill="#182D4F"/>
<path d="M331.57 295.53L331.635 295.514C332.489 295.415 333.096 294.643 332.998 293.806L318.074 192.735L312.606 192.899L330.174 294.512C330.273 295.169 330.896 295.612 331.57 295.53Z" fill="#182D4F"/>
<path d="M154.301 295.53L154.236 295.514C153.382 295.415 152.774 294.643 152.873 293.806L167.797 192.735L173.264 192.899L155.697 294.512C155.598 295.169 154.974 295.612 154.301 295.53Z" fill="#182D4F"/>
<path d="M188.862 295.53L188.796 295.514C187.942 295.415 187.335 294.643 187.433 293.806L202.358 192.735L207.825 192.899L190.257 294.512C190.159 295.169 189.535 295.612 188.862 295.53Z" fill="#182D4F"/>
<path d="M276.945 295.448H306.58C308.009 293.708 307.483 287.288 307.27 285.203C307.221 284.776 307.188 284.53 307.188 284.53C307.188 284.53 297.074 276.436 295.679 282.642C295.629 282.839 295.58 283.02 295.531 283.217C293.774 289.012 285.926 291.639 281.395 292.378C278.439 292.838 277.356 294.381 276.945 295.448Z" fill="#C5D0ED"/>
<path d="M357.789 199.172C356.722 199.172 307.04 208.497 298.815 218.677C294.71 223.766 294.103 282.445 294.103 282.445C294.103 282.445 299.176 288.75 310.143 285.088C310.143 285.088 318.188 244.929 317.597 232.763C317.433 229.398 351.534 232.271 357.789 230.662C364.044 229.053 379.281 215.459 375.931 208.842C372.565 202.225 357.789 199.172 357.789 199.172Z" fill="black"/>
<path d="M299.045 184.806C299.045 184.806 289.03 184.937 286.649 185.955C284.285 186.973 279.475 189.304 280.755 189.665C282.036 190.027 288.176 189.518 289.506 189.715C290.836 189.912 292.461 189.665 293.282 189.665C294.087 189.665 297.879 189.665 297.879 189.665L299.045 184.806Z" fill="#FABE95"/>
<path d="M287.322 160.753C287.322 160.753 283.907 158.307 280.591 157.83C278.702 157.568 276.864 157.223 275.747 156.829C272.693 155.745 266.553 150.245 267.029 149.589C268.507 147.52 275.665 151.903 276.913 151.427C278.161 150.951 274.516 148.357 275.78 147.454C276.437 146.978 277.997 149.359 279.261 149.605C280.968 149.933 282.315 152.347 282.823 152.478C283.825 152.724 288.225 155.992 288.225 155.992L287.322 160.753Z" fill="#FABE95"/>
<path d="M352.847 132.251C352.847 132.251 345.213 134.615 337.71 155.318C330.19 176.022 327.333 177.138 324.608 177.943C321.883 178.747 297.896 183.525 297.896 183.525V189.665H334.853C334.853 189.665 348.71 176.482 352.864 167.616C357.001 158.733 352.847 132.251 352.847 132.251Z" fill="#ED7D2B"/>
<path d="M263.86 295.448H293.495C294.924 293.708 294.398 287.288 294.185 285.203C294.136 284.776 294.103 284.53 294.103 284.53C294.103 284.53 283.989 276.436 282.594 282.642C282.544 282.839 282.495 283.02 282.446 283.217C280.689 289.012 272.841 291.639 268.31 292.378C265.354 292.838 264.271 294.381 263.86 295.448Z" fill="#D6DEF3"/>
<path d="M343.16 199.172C342.093 199.172 292.411 208.497 284.186 218.677C280.081 223.766 279.474 282.445 279.474 282.445C279.474 282.445 284.547 288.75 295.514 285.088C295.514 285.088 303.559 244.929 302.968 232.763C302.804 229.398 336.905 232.271 343.16 230.662C349.399 229.053 364.652 215.459 361.302 208.842C357.937 202.225 343.16 199.172 343.16 199.172Z" fill="#000615"/>
<path d="M346.264 138.801C349.843 138.506 353.587 137.554 356.821 136.503C360.876 135.189 364.127 133.268 362.026 129.574C360.088 126.159 356.952 118.541 357.166 112.237L349.63 118.311L344.507 122.432C344.507 122.432 344.524 124.862 345.082 129.131C345.18 129.903 345.312 130.74 345.443 131.643C345.558 132.365 345.23 133.088 344.606 133.482C344.573 133.498 344.524 133.531 344.491 133.547C341.962 135.124 343.276 139.048 346.264 138.801Z" fill="#FABE95"/>
<path d="M344.524 121.414C344.524 121.414 344.261 122.301 344.704 125.552C349.268 124.813 353.537 121.168 353.537 121.168C351.222 120.528 350.368 118.016 348.645 118.262L344.524 121.414Z" fill="#ED975D"/>
<path d="M340.303 122.17C340.303 122.17 357.855 125.092 359.496 114.125C361.138 103.174 364.52 96.1632 353.389 93.8482C342.257 91.5168 339.45 95.3751 338.005 98.9051C336.56 102.419 335.772 121.119 340.303 122.17Z" fill="#FABE95"/>
<path d="M335.411 94.0451C334.656 96.6884 336.675 99.89 340.057 100.957C345.081 102.533 343.965 108.69 346.231 108.608C348.496 108.526 349.399 105.062 351.419 107.836C353.143 110.201 349.99 112.992 350.204 114.289C350.581 116.505 354.046 121.053 357.181 120.823C360.317 120.593 366.179 105.702 365.013 101.105C363.847 96.4914 359.152 91.648 354.719 90.9748C350.286 90.3017 344.113 92.2226 342.684 92.2226C341.256 92.2226 335.821 92.6167 335.411 94.0451Z" fill="black"/>
<path d="M376.161 147.454C373.633 137.242 366.622 126.537 361.877 126.537C353.799 126.553 342.192 128.688 337.496 140.246C334.048 148.767 329.435 197.759 334.639 201.24C346.543 209.203 374.125 225.473 379.018 208.891C383.516 193.704 380.561 165.169 376.161 147.454Z" fill="#FF8000"/>
<path d="M356.542 137.291C354.243 131.298 346.806 129.23 341.732 133.17C338.991 135.304 335.641 138.342 331.586 142.66C316.514 158.717 313.444 158.618 310.62 158.274C307.796 157.945 283.874 152.872 283.874 152.872C283.874 152.872 282.643 153.775 281.921 155.236C280.952 157.19 281.445 158.52 281.445 158.52C280.509 157.912 289.916 164.398 294.612 166.992C300.802 170.407 310.127 173.608 313.838 174.823C314.889 175.168 316.021 175.152 317.072 174.774C322.589 172.787 341.092 165.547 356.164 152.987C360.137 149.67 358.693 142.857 356.542 137.291Z" fill="#FF8000"/>
<path d="M362.699 126.636L360.876 122.515C360.876 122.515 344.507 123.845 341.749 133.17C341.749 133.17 354.44 126.833 362.699 126.636Z" fill="white"/>
<path d="M402.431 295.07H402.546C403.466 295.054 404.188 294.299 404.09 293.428L397.916 231.844L392.531 232.32L401.381 294.233C401.479 294.725 401.923 295.087 402.431 295.07Z" fill="#8CB4F4"/>
<path d="M370.694 295.07H370.809C371.729 295.054 372.451 294.299 372.352 293.428L366.179 231.844L360.794 232.32L369.643 294.233C369.742 294.725 370.185 295.087 370.694 295.07Z" fill="#8CB4F4"/>
<path d="M311.113 295.07H310.998C310.078 295.054 309.356 294.299 309.454 293.428L315.628 231.844L321.013 232.32L312.163 294.233C312.081 294.725 311.638 295.087 311.113 295.07Z" fill="#73A2E5"/>
<path d="M400.69 223.125L406.535 171.687C407.307 164.282 404.828 157.025 394.123 156.451L375.308 155.301C364.16 154.842 359.119 164.118 357.707 171.276L346.543 227.821L400.69 223.125Z" fill="#8CB4F4"/>
<path d="M397.555 232.763H314.035C312.361 232.763 310.981 231.384 310.981 229.709V225.949C310.981 224.274 312.361 222.895 314.035 222.895H400.592V229.709C400.592 231.384 399.23 232.763 397.555 232.763Z" fill="#73A2E5"/>
<path d="M398.228 232.763H348.924C347.627 232.763 346.56 231.695 346.56 230.398V225.276C346.56 223.979 347.627 222.912 348.924 222.912H400.609V230.398C400.592 231.695 399.525 232.763 398.228 232.763Z" fill="#8CB4F4"/>
</svg>
