<svg width="81" height="89" viewBox="0 0 81 89" fill="none" xmlns="http://www.w3.org/2000/svg">
<path d="M45.3867 33.0766V33.0766C48.2886 33.0766 50.6411 30.7241 50.6411 27.8221V27.3842M52.8305 40.9583V40.9583C56.458 40.9583 59.3986 38.0176 59.3986 34.3902V34.1713C59.3986 30.4229 56.3599 27.3842 52.6116 27.3842H50.6411M50.6411 27.3842V27.1653C50.6411 24.1424 48.1906 21.6919 45.1677 21.6919V21.6919C42.1449 21.6919 39.6943 24.1424 39.6943 27.1653V64.1655V64.1655C39.6943 66.5838 41.6548 68.5442 44.0731 68.5442H45.1677C48.1906 68.5442 50.6411 66.0937 50.6411 63.0708V59.7868M58.085 38.7689V38.7689C60.5033 38.7689 62.4637 40.7293 62.4637 43.1476V45.5559C62.4637 48.8206 59.8171 51.4672 56.5524 51.4672H55.0199C52.6016 51.4672 50.6411 49.5068 50.6411 47.0885V47.0885M48.0139 55.8459V55.8459C48.0139 58.9897 50.5625 61.5383 53.7062 61.5383H53.8155C56.559 61.5383 59.0687 59.6261 59.2128 56.8864C59.3366 54.5345 58.9764 52.2246 57.2092 51.4672" stroke="#0055FF" stroke-width="3"/>
<path d="M34.002 33.0766V33.0766C31.1 33.0766 28.7475 30.7241 28.7475 27.8221V27.3842M26.5582 40.9583V40.9583C22.9307 40.9583 19.9901 38.0176 19.9901 34.3902V34.1713C19.9901 30.4229 23.0287 27.3842 26.7771 27.3842H28.7475M28.7475 27.3842V27.1653C28.7475 24.1424 31.1981 21.6919 34.2209 21.6919V21.6919C37.2438 21.6919 39.6943 24.1424 39.6943 27.1653V64.1655V64.1655C39.6943 66.5838 37.7339 68.5442 35.3156 68.5442H34.2209C31.1981 68.5442 28.7475 66.0937 28.7475 63.0708V59.7868M21.3037 38.7689V38.7689C18.8854 38.7689 16.925 40.7293 16.925 43.1476V45.5559C16.925 48.8206 19.5716 51.4672 22.8363 51.4672H24.3688C26.7871 51.4672 28.7475 49.5068 28.7475 47.0885V47.0885M31.3748 55.8459V55.8459C31.3748 58.9897 28.8262 61.5383 25.6824 61.5383H25.5732C22.8297 61.5383 20.3199 59.6261 20.1758 56.8864C20.0521 54.5345 20.4123 52.2246 22.1795 51.4672" stroke="#0055FF" stroke-width="3"/>
<path d="M1.16162 59.3491L6.85396 56.284" stroke="#0055FF" stroke-width="3"/>
<path d="M1 28.6079L7.01527 30.9773" stroke="#0055FF" stroke-width="3"/>
<path d="M17.7061 8.9375L22.1588 13.6247" stroke="#0055FF" stroke-width="3"/>
<path d="M39.9131 0.236328L39.7214 6.69859" stroke="#0055FF" stroke-width="3"/>
<path d="M39.9131 81.6807L39.7214 88.1429" stroke="#0055FF" stroke-width="3"/>
<path d="M24.4355 75.1123L21.3704 80.8046" stroke="#0055FF" stroke-width="3"/>
<path d="M79.4463 59.3491L73.754 56.284" stroke="#0055FF" stroke-width="3"/>
<path d="M79.6074 28.6079L73.5922 30.9773" stroke="#0055FF" stroke-width="3"/>
<path d="M62.9014 8.9375L58.4486 13.6247" stroke="#0055FF" stroke-width="3"/>
<path d="M56.1719 75.1123L59.237 80.8046" stroke="#0055FF" stroke-width="3"/>
</svg>
