<svg width="58" height="58" viewBox="0 0 58 58" fill="none" xmlns="http://www.w3.org/2000/svg">
<circle cx="45" cy="13" r="11.5" stroke="#0055FF" stroke-width="3"/>
<circle cx="45.2729" cy="9.72754" r="4" stroke="#0055FF" stroke-width="2"/>
<path d="M46.6852 14.1816H44.974C41.0722 14.1816 37.9092 17.3447 37.9092 21.2464C37.9092 21.9618 38.3824 22.5909 39.0698 22.7892L45 24.4999L52.2302 22.1957C52.8512 21.9978 53.2728 21.421 53.2728 20.7692C53.2728 17.131 50.3235 14.1816 46.6852 14.1816Z" stroke="#0055FF" stroke-width="2" stroke-linejoin="round"/>
<circle cx="13" cy="13" r="11.5" stroke="#0055FF" stroke-width="3"/>
<circle cx="13.2729" cy="9.72754" r="4" stroke="#0055FF" stroke-width="2"/>
<path d="M14.6125 14.1816H13.0194C9.09254 14.1816 5.90918 17.365 5.90918 21.2919C5.90918 21.9864 6.35291 22.6032 7.01136 22.824L13.5 24.9999L20.3255 22.2457C20.898 22.0147 21.2728 21.4593 21.2728 20.842C21.2728 17.1636 18.2909 14.1816 14.6125 14.1816Z" stroke="#0055FF" stroke-width="2" stroke-linejoin="round"/>
<circle cx="45" cy="45" r="11.5" stroke="#0055FF" stroke-width="3"/>
<circle cx="45" cy="42" r="4" stroke="#0055FF" stroke-width="2"/>
<path d="M46.6671 46.1816H44.955C41.0637 46.1816 37.9092 49.3362 37.9092 53.2274C37.9092 53.9514 38.3949 54.5852 39.0939 54.7736L45.5 56.4999L52.2537 54.2091C52.863 54.0025 53.2728 53.4307 53.2728 52.7874C53.2728 49.1391 50.3153 46.1816 46.6671 46.1816Z" stroke="#0055FF" stroke-width="2" stroke-linejoin="round"/>
<circle cx="13" cy="45" r="11.5" stroke="#0055FF" stroke-width="3"/>
<circle cx="13.2729" cy="41.7275" r="4" stroke="#0055FF" stroke-width="2"/>
<path d="M14.6328 46.1816H13.0415C9.10245 46.1816 5.90918 49.3749 5.90918 53.314C5.90918 53.9981 6.33863 54.6085 6.98248 54.8397L13 56.9999L20.2987 54.2328C20.885 54.0105 21.2728 53.4487 21.2728 52.8217C21.2728 49.1545 18.3 46.1816 14.6328 46.1816Z" stroke="#0055FF" stroke-width="2" stroke-linejoin="round"/>
<path d="M21 21L37.5 37.5M21 37.5L38 20.5" stroke="#0055FF" stroke-width="3" stroke-linejoin="round"/>
</svg>
