<svg width="53" height="54" viewBox="0 0 53 54" fill="none" xmlns="http://www.w3.org/2000/svg">
<path d="M45.5 25V9.5C45.5 7.84315 46.8431 6.5 48.5 6.5V6.5C50.1569 6.5 51.5 7.84315 51.5 9.5V31.1425C51.5 32.0314 51.263 32.9042 50.8135 33.6711L43.6865 45.8289C43.237 46.5958 43 47.4686 43 48.3575V50C43 51.1046 42.1046 52 41 52H13C11.8954 52 11 51.1046 11 50V48.3849C11 47.4787 10.7537 46.5895 10.2875 45.8124L2.71254 33.1876C2.24629 32.4105 2 31.5213 2 30.6151V9.75C2 7.95508 3.45507 6.5 5.25 6.5V6.5C7.04493 6.5 8.5 7.95507 8.5 9.75V25.5M20.5 40.5L9.26247 29.2625C7.78341 27.7834 7.90475 25.3507 9.52364 24.0261V24.0261C10.9294 22.8759 12.9781 22.9781 14.2625 24.2625L27 37M27 37V51.5M27 37L40.7161 24.1412C41.9892 22.9476 43.9797 22.9797 45.2137 24.2137V24.2137C46.4764 25.4764 46.4764 27.5236 45.2137 28.7863L33.5 40.5" stroke="#0055FF" stroke-width="3" stroke-linejoin="round"/>
<circle cx="27" cy="13" r="11.5" stroke="#0055FF" stroke-width="3"/>
<circle cx="27" cy="13" r="5.5" stroke="#0055FF" stroke-width="3"/>
</svg>
