<svg width="56" height="56" viewBox="0 0 56 56" fill="none" xmlns="http://www.w3.org/2000/svg">
<path d="M2.32972 29.7894L4.74162 33.035C5.20189 33.6544 5.40579 34.4273 5.31094 35.1931L4.73621 39.8336C4.57626 41.125 5.26712 42.3723 6.44671 42.9218L9.90639 44.5333C10.5531 44.8345 11.0712 45.3564 11.3679 46.0051L13.0227 49.6237C13.5395 50.7538 14.6996 51.4483 15.9398 51.3701L20.7897 51.0642C21.4496 51.0226 22.1047 51.2001 22.6533 51.5692L26.1427 53.917C27.1223 54.5761 28.3973 54.5994 29.4003 53.9765L33.3654 51.5138C33.9031 51.1798 34.5326 51.0245 35.1639 51.07L39.1837 51.3598C40.3663 51.4451 41.4881 50.8258 42.0462 49.7797L44.1727 45.794C44.449 45.2761 44.8713 44.8506 45.3871 44.5703L49.4692 42.3519C50.4352 41.8269 51.0367 40.8155 51.0367 39.716V34.9014C51.0367 34.3134 51.2095 33.7385 51.5335 33.2479L53.8409 29.7548C54.5366 28.7015 54.4986 27.3252 53.7456 26.312L51.1954 22.8802C50.773 22.3118 50.5653 21.6123 50.6091 20.9054L50.9012 16.1886C50.9819 14.8851 50.21 13.6791 48.9925 13.2065L45.8796 11.9982C45.0649 11.6819 44.4286 11.0261 44.1371 10.2023L42.8751 6.6359C42.4278 5.37195 41.1962 4.55823 39.8581 4.64263L35.1497 4.93963C34.5272 4.9789 33.9079 4.82315 33.378 4.49405L29.4003 2.02353C28.3973 1.40062 27.1223 1.42389 26.1427 2.08297L22.6591 4.42688C22.107 4.79839 21.447 4.97575 20.783 4.93108L16.376 4.63456C15.1654 4.55311 14.025 5.20883 13.4864 6.29602L11.4252 10.4565C11.0927 11.1278 10.521 11.6503 9.82264 11.9214L6.64683 13.1542C5.36567 13.6515 4.58626 14.9557 4.75518 16.3196L5.31094 20.8069C5.40579 21.5727 5.20189 22.3456 4.74162 22.965L2.32972 26.2106C1.54029 27.2729 1.5403 28.7271 2.32972 29.7894Z" stroke="#0055FF" stroke-width="3" stroke-linejoin="round"/>
<circle cx="28" cy="28" r="15.5" stroke="#0055FF" stroke-width="3"/>
<path d="M21.5 27.5L26 32L35 23.5" stroke="#0055FF" stroke-width="3" stroke-linecap="round" stroke-linejoin="round"/>
</svg>
