<svg width="73" height="48" viewBox="0 0 73 48" fill="none" xmlns="http://www.w3.org/2000/svg">
<path d="M35.812 27.5971L1.80374 15.098C1.62906 15.0338 1.62906 14.7867 1.80374 14.7225L35.812 2.22341C35.8563 2.20715 35.9048 2.20703 35.9491 2.22307L70.4806 14.7222C70.6565 14.7858 70.6565 15.0346 70.4806 15.0983L35.9491 27.5974C35.9048 27.6134 35.8563 27.6133 35.812 27.5971Z" stroke="#0055FF" stroke-width="3" stroke-linecap="round"/>
<path d="M17.7886 31.0889C23.2871 37.6375 38.6475 46.8055 53.9725 31.0889" stroke="#0055FF" stroke-width="3" stroke-linecap="round"/>
<path d="M17.2568 21.2661V36.1596C17.2568 37.7247 17.8435 39.2549 19.0688 40.2287C26.0065 45.7427 39.7853 49.7993 52.4069 40.3147C53.7808 39.2822 54.505 37.6166 54.505 35.898V21.2661" stroke="#0055FF" stroke-width="3" stroke-linecap="round"/>
<ellipse cx="61.9544" cy="33.9781" rx="3.1927" ry="3.46691" fill="#0055FF"/>
<path d="M36.4126 14.9102L61.7811 18.3536C61.8802 18.367 61.9542 18.4517 61.9542 18.5518V31.0891" stroke="#0055FF" stroke-width="3" stroke-linecap="round"/>
</svg>
