<svg width="61" height="62" viewBox="0 0 61 62" fill="none" xmlns="http://www.w3.org/2000/svg">
<path d="M50.1036 24.2077C52.6004 29.5528 53.1667 35.5983 51.7059 41.3142C50.2451 47.03 46.8476 52.0625 42.0922 55.5542C37.3369 59.0458 31.518 60.7807 25.627 60.463C19.736 60.1454 14.1374 57.7949 9.78512 53.8122C5.43282 49.8294 2.59614 44.4608 1.7584 38.621C0.920663 32.7812 2.13371 26.8316 5.19084 21.786C8.24798 16.7403 12.9601 12.9108 18.5242 10.9498C24.0883 8.98891 30.1602 9.01794 35.7054 11.032" stroke="#0055FF" stroke-width="3"/>
<path d="M42.8554 27.5935C44.5689 31.2617 44.9575 35.4106 43.955 39.3333C42.9525 43.2559 40.6209 46.7096 37.3574 49.1058C34.094 51.5021 30.1006 52.6926 26.0578 52.4746C22.0149 52.2566 18.1727 50.6436 15.1859 47.9103C12.199 45.1771 10.2523 41.4927 9.67733 37.485C9.10242 33.4773 9.9349 29.3943 12.0329 25.9315C14.131 22.4688 17.3647 19.8407 21.1833 18.495C25.0018 17.1493 29.1688 17.1692 32.9743 18.5514" stroke="#0055FF" stroke-width="3"/>
<path d="M34.7012 31.4026C35.5335 33.1843 35.7222 35.1994 35.2353 37.1047C34.7484 39.01 33.6159 40.6875 32.0307 41.8514C30.4456 43.0153 28.506 43.5936 26.5423 43.4877C24.5787 43.3818 22.7125 42.5983 21.2617 41.2707C19.8109 39.9431 18.8654 38.1536 18.5861 36.207C18.3069 34.2604 18.7112 32.2772 19.7303 30.5953C20.7493 28.9134 22.32 27.6369 24.1747 26.9833C26.0294 26.3296 28.0534 26.3393 29.9018 27.0107" stroke="#0055FF" stroke-width="3"/>
<path d="M27 34.5L39.5 22M39.5 22H47.5L58.7929 10.7071C59.4229 10.0771 58.9767 9 58.0858 9H52.8892C52.3822 9 51.9553 8.62045 51.8961 8.11684L51.235 2.49723C51.1384 1.67682 50.1452 1.32061 49.5493 1.89269L38.5 12.5L39.5 22Z" stroke="#0055FF" stroke-width="3" stroke-linecap="round" stroke-linejoin="round"/>
</svg>
