<svg width="69" height="60" viewBox="0 0 69 60" fill="none" xmlns="http://www.w3.org/2000/svg">
<path d="M19.9988 42.4998V46.9998H7.99876V37.4997C5.59876 37.0997 3.99876 34.6921 3.49876 33.4998C1.33209 28.3332 -0.360111 16.8836 12.4988 13.5C21.0453 11.2511 27.5684 18.3092 27.6996 23.7532L27.7009 23.8073C27.7279 24.9321 27.7556 26.0871 28.2062 27.117L30.9988 33.4998H27.4988V42.4998H19.9988Z" stroke="#0055FF" stroke-width="3" stroke-linejoin="round"/>
<path d="M49.4988 42.429V46.929H61.4988V37.4289C63.8988 37.0289 65.4988 34.6213 65.9988 33.429C68.1655 28.2624 69.8577 16.8128 56.9988 13.4292C48.4523 11.1803 41.9292 18.2384 41.798 23.6824L41.7967 23.7365C41.7697 24.8613 41.7419 26.0163 41.2914 27.0462L38.4988 33.429H41.9988V42.429H49.4988Z" stroke="#0055FF" stroke-width="3" stroke-linejoin="round"/>
<path d="M19.999 52.5C24.499 56.8333 36.799 62.9 49.999 52.5M19.999 52.5L20.999 58M19.999 52.5L24.999 52" stroke="#0055FF" stroke-width="3" stroke-linejoin="round"/>
<path d="M49.999 7.74219C45.499 3.40885 33.199 -2.65781 19.999 7.74218M49.999 7.74219L48.999 2.24219M49.999 7.74219L44.999 8.24219" stroke="#0055FF" stroke-width="3" stroke-linejoin="round"/>
</svg>
