<svg width="66" height="66" viewBox="0 0 66 66" fill="none" xmlns="http://www.w3.org/2000/svg">
<circle cx="33" cy="33" r="11.5" stroke="#0055FF" stroke-width="3"/>
<path d="M53.2487 8.87032C56.7242 11.7869 59.5287 15.4198 61.4703 19.5206C63.4118 23.6214 64.4445 28.0932 64.4978 32.6301C64.5511 37.167 63.6237 41.6618 61.779 45.8071C59.9343 49.9523 57.2159 53.6501 53.8097 56.6475" stroke="#0055FF" stroke-width="3"/>
<path d="M12.7344 57.1155C9.26089 54.1965 6.45893 50.5615 4.52028 46.4594C2.58162 42.3572 1.55202 37.8847 1.50192 33.3478C1.45182 28.8109 2.38241 24.3167 4.23001 20.1728C6.07761 16.0288 8.79862 12.3329 12.2068 9.3379" stroke="#0055FF" stroke-width="3"/>
<path d="M19.1679 49.4598C16.7971 47.4674 14.8847 44.9864 13.5615 42.1866C12.2382 39.3867 11.5355 36.334 11.5013 33.2374C11.4671 30.1408 12.1023 27.0733 13.3633 24.2449C14.6244 21.4165 16.4816 18.8939 18.8078 16.8497" stroke="#0055FF" stroke-width="3"/>
<path d="M46.738 16.4616C49.1201 18.4404 51.0467 20.9104 52.3858 23.7027C53.725 26.495 54.4451 29.5436 54.497 32.64C54.5488 35.7364 53.9312 38.8074 52.6863 41.643C51.4414 44.4785 49.5986 47.0117 47.284 49.0691" stroke="#0055FF" stroke-width="3"/>
</svg>
