<svg width="70" height="46" viewBox="0 0 70 46" fill="none" xmlns="http://www.w3.org/2000/svg">
<path d="M7.58065 26.7918L2.52686 23.8437C1.65484 23.3351 1.29863 22.2562 1.69631 21.3283L8.48099 5.49743C8.89893 4.52223 10.0057 4.04309 11.0028 4.40568L14.3439 5.62065C14.9381 5.83672 15.5854 5.85954 16.1933 5.68584L29.3977 1.91318C30.1748 1.69115 31.0085 1.79205 31.7102 2.19302L34.4516 3.75951M43.2258 15.2756L39.259 12.7513C37.9913 11.9446 36.3785 11.9164 35.0834 12.6782L30.7879 15.205C29.1331 16.1784 27.0097 15.7366 25.8805 14.1839V14.1839C24.5926 12.413 25.1002 9.91873 26.9779 8.7921L37.5332 2.45894C39.0558 1.54537 40.9049 1.35314 42.5829 1.93398L54.1935 5.95306L59.0175 4.98826C60.9695 4.59787 62.9115 5.70219 63.574 7.57931L67.7225 19.3334C68.4364 21.3562 67.4277 23.582 65.4361 24.3786L60.7742 26.2434M47.0645 17.4692L58.753 25.6944C60.4431 26.8837 60.7803 29.2519 59.4893 30.8657V30.8657C58.3477 32.2926 56.3156 32.6325 54.7718 31.6548L41.0323 22.9531M36.6452 27.8885L47.8191 35.1946C49.5618 36.334 51.8872 35.946 53.1655 34.3025L54.7419 32.2756M36.0968 35.566L41.8098 39.1366C43.5488 40.2235 45.8282 39.8192 47.0872 38.2004L48.7097 36.1144M32.2581 41.0498L35.761 43.0932C37.5153 44.1166 39.758 43.6629 40.9765 42.0381L42.129 40.5015" stroke="#0055FF" stroke-width="3" stroke-linecap="round"/>
<rect x="12.0608" y="21.8136" width="6.62267" height="10.2948" rx="2.39743" transform="rotate(33.563 12.0608 21.8136)" stroke="#0055FF" stroke-width="3"/>
<rect x="19.4905" y="22.0997" width="6.87928" height="15.809" rx="2.39743" transform="rotate(33.563 19.4905 22.0997)" stroke="#0055FF" stroke-width="3"/>
<rect x="25.2038" y="25.5489" width="7.22235" height="15.809" rx="2.39743" transform="rotate(33.563 25.2038 25.5489)" stroke="#0055FF" stroke-width="3"/>
<rect x="30.8396" y="29.5201" width="7.00874" height="12.5768" rx="2.39743" transform="rotate(33.563 30.8396 29.5201)" stroke="#0055FF" stroke-width="3"/>
</svg>
