<svg width="59" height="56" viewBox="0 0 59 56" fill="none" xmlns="http://www.w3.org/2000/svg">
<path d="M31.2552 48H28.7448C26.7144 48 25.0624 46.3482 25.0624 44.3178V43.4685C24.1992 43.1927 23.3605 42.8445 22.5548 42.4276L21.953 43.0295C20.4952 44.489 18.1602 44.4462 16.7448 43.0289L14.9705 41.2547C13.5526 39.8384 13.5118 37.5041 14.9709 36.0465L15.5723 35.4451C15.1554 34.6394 14.8073 33.8008 14.5315 32.9375H13.6823C11.652 32.9375 10 31.2856 10 29.2552V26.7448C10 24.7144 11.652 23.0625 13.6823 23.0625H14.5316C14.8074 22.1992 15.1555 21.3606 15.5724 20.5549L14.9705 19.9532C13.5123 18.4964 13.5525 16.1618 14.971 14.7449L16.7455 12.9705C18.1642 11.5499 20.4987 11.5145 21.9536 12.971L22.5549 13.5723C23.3606 13.1555 24.1993 12.8073 25.0625 12.5315V11.6823C25.0625 9.65188 26.7144 8 28.7448 8H31.2552C33.2856 8 34.9375 9.65188 34.9375 11.6823V12.5316C35.8007 12.8073 36.6394 13.1555 37.4451 13.5724L38.0469 12.9705C39.5047 11.511 41.8398 11.5538 43.2552 12.9711L45.0295 14.7453C46.4473 16.1616 46.4882 18.4959 45.029 19.9535L44.4276 20.5549C44.8445 21.3606 45.1926 22.1992 45.4685 23.0625H46.3177C48.3481 23.0625 50 24.7144 50 26.7448V29.2552C50 31.2856 48.3481 32.9375 46.3177 32.9375H45.4685C45.1926 33.8008 44.8445 34.6394 44.4276 35.4451L45.0295 36.0469C46.4878 37.5037 46.4475 39.8382 45.029 41.2552L43.2545 43.0295C41.8358 44.4502 39.5013 44.4856 38.0464 43.0291L37.4451 42.4278C36.6394 42.8446 35.8007 43.1928 34.9375 43.4686V44.3179C34.9375 46.3482 33.2856 48 31.2552 48ZM22.9466 39.9664C24.0659 40.6284 25.2706 41.1285 26.5272 41.4528C27.0447 41.5862 27.4062 42.053 27.4062 42.5874V44.3178C27.4062 45.0558 28.0068 45.6562 28.7448 45.6562H31.2552C31.9933 45.6562 32.5938 45.0558 32.5938 44.3178V42.5874C32.5938 42.053 32.9554 41.5862 33.4729 41.4528C34.7295 41.1285 35.9342 40.6284 37.0535 39.9664C37.514 39.6941 38.1003 39.7682 38.4787 40.1465L39.7043 41.3722C40.2328 41.9012 41.0813 41.889 41.5968 41.3728L43.3723 39.5972C43.8865 39.0837 43.9038 38.2349 43.3728 37.7047L42.1466 36.4785C41.7684 36.1002 41.6943 35.5138 41.9665 35.0534C42.6285 33.9342 43.1285 32.7295 43.4528 31.4728C43.5864 30.9553 44.0532 30.5938 44.5875 30.5938H46.3178C47.0558 30.5938 47.6563 29.9934 47.6563 29.2553V26.7448C47.6563 26.0068 47.0558 25.4063 46.3178 25.4063H44.5875C44.0531 25.4063 43.5864 25.0448 43.4528 24.5273C43.1285 23.2707 42.6285 22.066 41.9665 20.9468C41.6943 20.4863 41.7684 19.8999 42.1466 19.5216L43.3723 18.2959C43.9022 17.7667 43.8884 16.9183 43.3728 16.4034L41.5974 14.628C41.0828 14.1127 40.2341 14.0976 39.7048 14.6275L38.4788 15.8537C38.1005 16.232 37.5139 16.3061 37.0535 16.0338C35.9342 15.3718 34.7295 14.8717 33.473 14.5474C32.9555 14.4139 32.5939 13.9472 32.5939 13.4127V11.6823C32.5939 10.9442 31.9934 10.3438 31.2553 10.3438H28.7449C28.0068 10.3438 27.4063 10.9442 27.4063 11.6823V13.4126C27.4063 13.947 27.0448 14.4138 26.5272 14.5473C25.2707 14.8716 24.066 15.3716 22.9467 16.0336C22.4861 16.3058 21.8998 16.2318 21.5215 15.8535L20.2958 14.6278C19.7674 14.0987 18.9188 14.111 18.4034 14.6273L16.6278 16.4028C16.1136 16.9163 16.0964 17.765 16.6273 18.2953L17.8535 19.5215C18.2318 19.8998 18.3058 20.4862 18.0336 20.9466C17.3716 22.0658 16.8716 23.2705 16.5473 24.5272C16.4137 25.0447 15.947 25.4062 15.4127 25.4062H13.6823C12.9443 25.4062 12.3438 26.0067 12.3438 26.7448V29.2552C12.3438 29.9933 12.9443 30.5938 13.6823 30.5938H15.4126C15.947 30.5938 16.4137 30.9553 16.5473 31.4728C16.8716 32.7294 17.3716 33.9341 18.0335 35.0533C18.3058 35.5138 18.2317 36.1002 17.8535 36.4785L16.6277 37.7042C16.0979 38.2334 16.1117 39.0818 16.6273 39.5967L18.4027 41.3721C18.9172 41.8874 19.766 41.9025 20.2952 41.3726L21.5213 40.1464C21.8001 39.8678 22.38 39.6312 22.9466 39.9664Z" fill="#0055FF"/>
<path d="M30 36.7032C25.201 36.7032 21.2969 32.799 21.2969 28C21.2969 23.2011 25.201 19.2969 30 19.2969C34.799 19.2969 38.7031 23.2011 38.7031 28C38.7031 32.799 34.799 36.7032 30 36.7032ZM30 21.6406C26.4933 21.6406 23.6406 24.4935 23.6406 28C23.6406 31.5066 26.4934 34.3594 30 34.3594C33.5066 34.3594 36.3593 31.5066 36.3593 28C36.3593 24.4935 33.5066 21.6406 30 21.6406Z" fill="#0055FF"/>
<path d="M7.41267 41.8586C4.16625 36.5674 2.88041 30.3044 3.77943 24.1622C4.67846 18.0199 7.7053 12.3882 12.332 8.24935C16.9586 4.11054 22.8914 1.72733 29.0956 1.51545C35.2997 1.30357 41.3813 3.27646 46.2795 7.08998M7.41267 41.8586L9.5 36M7.41267 41.8586L1 41" stroke="#0055FF" stroke-width="3"/>
<path d="M52.6481 14.2407C55.8712 19.5461 57.1295 25.8147 56.2036 31.9529C55.2776 38.0912 52.226 43.7096 47.5812 47.828C42.9364 51.9465 36.9932 54.3036 30.7882 54.4882C24.5832 54.6729 18.5104 52.6733 13.6289 48.8383M52.6481 14.2407L58.5 15.5M52.6481 14.2407L51 19.5" stroke="#0055FF" stroke-width="3"/>
</svg>
