<svg width="30" height="30" viewBox="0 0 30 30" fill="none" xmlns="http://www.w3.org/2000/svg">
<g filter="url(#filter0_dd_2_14782)">
<path d="M24.8881 15.9201V18.9201C24.8892 19.1986 24.8322 19.4743 24.7206 19.7294C24.6091 19.9846 24.4454 20.2137 24.2402 20.402C24.035 20.5902 23.7927 20.7336 23.5289 20.8228C23.265 20.912 22.9855 20.9452 22.7081 20.9201C19.631 20.5857 16.6751 19.5342 14.0781 17.8501C11.6619 16.3148 9.61345 14.2663 8.07812 11.8501C6.38809 9.2413 5.33636 6.27109 5.00812 3.1801C4.98313 2.90356 5.01599 2.62486 5.10462 2.36172C5.19324 2.09859 5.33569 1.85679 5.52288 1.65172C5.71008 1.44665 5.93792 1.28281 6.19191 1.17062C6.44589 1.05843 6.72046 1.00036 6.99812 1.0001H9.99812C10.4834 0.995321 10.9539 1.16718 11.3219 1.48363C11.6898 1.80008 11.9302 2.23954 11.9981 2.7201C12.1247 3.68016 12.3596 4.62282 12.6981 5.5301C12.8327 5.88802 12.8618 6.27701 12.782 6.65098C12.7023 7.02494 12.517 7.36821 12.2481 7.6401L10.9781 8.9101C12.4017 11.4136 14.4746 13.4865 16.9781 14.9101L18.2481 13.6401C18.52 13.3712 18.8633 13.1859 19.2372 13.1062C19.6112 13.0264 20.0002 13.0556 20.3581 13.1901C21.2654 13.5286 22.2081 13.7635 23.1681 13.8901C23.6539 13.9586 24.0975 14.2033 24.4146 14.5776C24.7318 14.9519 24.9003 15.4297 24.8881 15.9201Z" stroke="white" stroke-width="2" stroke-linecap="round" stroke-linejoin="round" shape-rendering="crispEdges"/>
</g>
<defs>
<filter id="filter0_dd_2_14782" x="0" y="0" width="29.8887" height="29.9277" filterUnits="userSpaceOnUse" color-interpolation-filters="sRGB">
<feFlood flood-opacity="0" result="BackgroundImageFix"/>
<feColorMatrix in="SourceAlpha" type="matrix" values="0 0 0 0 0 0 0 0 0 0 0 0 0 0 0 0 0 0 127 0" result="hardAlpha"/>
<feOffset dy="4"/>
<feGaussianBlur stdDeviation="2"/>
<feComposite in2="hardAlpha" operator="out"/>
<feColorMatrix type="matrix" values="0 0 0 0 0 0 0 0 0 0 0 0 0 0 0 0 0 0 0.25 0"/>
<feBlend mode="normal" in2="BackgroundImageFix" result="effect1_dropShadow_2_14782"/>
<feColorMatrix in="SourceAlpha" type="matrix" values="0 0 0 0 0 0 0 0 0 0 0 0 0 0 0 0 0 0 127 0" result="hardAlpha"/>
<feOffset dy="4"/>
<feGaussianBlur stdDeviation="2"/>
<feComposite in2="hardAlpha" operator="out"/>
<feColorMatrix type="matrix" values="0 0 0 0 0 0 0 0 0 0 0 0 0 0 0 0 0 0 0.25 0"/>
<feBlend mode="normal" in2="effect1_dropShadow_2_14782" result="effect2_dropShadow_2_14782"/>
<feBlend mode="normal" in="SourceGraphic" in2="effect2_dropShadow_2_14782" result="shape"/>
</filter>
</defs>
</svg>
