<svg width="10" height="10" viewBox="0 0 10 10" fill="none" xmlns="http://www.w3.org/2000/svg">
<path d="M8.19984 3.80005H4.59981C4.15798 3.80005 3.7998 4.15822 3.7998 4.60005V8.20008C3.7998 8.64191 4.15798 9.00009 4.59981 9.00009H8.19984C8.64167 9.00009 8.99984 8.64191 8.99984 8.20008V4.60005C8.99984 4.15822 8.64167 3.80005 8.19984 3.80005Z" stroke="white" stroke-linecap="round" stroke-linejoin="round"/>
<path d="M2.20001 6.20004H1.80001C1.58783 6.20004 1.38435 6.11575 1.23432 5.96572C1.08429 5.81569 1 5.61221 1 5.40003V1.80001C1 1.58783 1.08429 1.38435 1.23432 1.23432C1.38435 1.08429 1.58783 1 1.80001 1H5.40003C5.61221 1 5.81569 1.08429 5.96572 1.23432C6.11575 1.38435 6.20004 1.58783 6.20004 1.80001V2.20001" stroke="white" stroke-linecap="round" stroke-linejoin="round"/>
</svg>
