<svg width="10" height="10" viewBox="0 0 10 10" fill="none" xmlns="http://www.w3.org/2000/svg">
<path d="M4.24023 5.45938C4.41539 5.69355 4.63886 5.8873 4.89548 6.02751C5.15211 6.16771 5.43588 6.25109 5.72756 6.27198C6.01924 6.29287 6.312 6.25078 6.58599 6.14858C6.85997 6.04637 7.10877 5.88644 7.31551 5.67963L8.5391 4.45604C8.91057 4.07142 9.11613 3.55629 9.11148 3.02159C9.10683 2.48689 8.89236 1.9754 8.51426 1.5973C8.13615 1.2192 7.62467 1.00472 7.08997 1.00008C6.55527 0.995431 6.04013 1.20098 5.65551 1.57246L4.95399 2.2699" stroke="#BEBEBE" stroke-linecap="round" stroke-linejoin="round"/>
<path d="M5.8723 4.64373C5.69714 4.40957 5.47367 4.21581 5.21705 4.07561C4.96042 3.9354 4.67665 3.85203 4.38497 3.83114C4.09329 3.81025 3.80053 3.85233 3.52654 3.95454C3.25256 4.05674 3.00376 4.21667 2.79702 4.42349L1.57343 5.64707C1.20196 6.03169 0.996407 6.54683 1.00105 7.08153C1.0057 7.61623 1.22017 8.12771 1.59828 8.50582C1.97638 8.88392 2.48786 9.09839 3.02256 9.10304C3.55727 9.10768 4.0724 8.90213 4.45702 8.53066L5.15446 7.83321" stroke="#BEBEBE" stroke-linecap="round" stroke-linejoin="round"/>
</svg>
