<svg width="20" height="21" viewBox="0 0 20 21" fill="none" xmlns="http://www.w3.org/2000/svg">
<path fill-rule="evenodd" clip-rule="evenodd" d="M10.1042 1.47801C6.87429 1.47801 4.25595 4.18695 4.25595 7.52859V8.92962C4.25595 9.33776 3.93616 9.66862 3.54167 9.66862C3.14718 9.66862 2.82738 9.33776 2.82738 8.92962V7.52859C2.82738 3.37067 6.08531 0 10.1042 0C14.123 0 17.381 3.37067 17.381 7.52859V8.92962C17.381 9.33776 17.0612 9.66862 16.6667 9.66862C16.2722 9.66862 15.9524 9.33776 15.9524 8.92962V7.52859C15.9524 4.18695 13.334 1.47801 10.1042 1.47801Z" fill="white"/>
<path fill-rule="evenodd" clip-rule="evenodd" d="M3.57143 9.97654H3.33333C2.28136 9.97654 1.42857 10.8588 1.42857 11.9472V13.6716C1.42857 14.7599 2.28136 15.6422 3.33333 15.6422H3.57143V9.97654ZM3.33333 8.49853C1.49238 8.49853 0 10.0426 0 11.9472V13.6716C0 15.5762 1.49238 17.1202 3.33333 17.1202H4.04762C4.5736 17.1202 5 16.6791 5 16.1349V9.48387C5 8.93968 4.5736 8.49853 4.04762 8.49853H3.33333Z" fill="white"/>
<path fill-rule="evenodd" clip-rule="evenodd" d="M16.4286 9.97654H16.6667C17.7186 9.97654 18.5714 10.8588 18.5714 11.9472V13.6716C18.5714 14.7599 17.7186 15.6422 16.6667 15.6422H16.4286V9.97654ZM16.6667 8.49853C18.5076 8.49853 20 10.0426 20 11.9472V13.6716C20 15.5762 18.5076 17.1202 16.6667 17.1202H15.9524C15.4264 17.1202 15 16.6791 15 16.1349V9.48387C15 8.93968 15.4264 8.49853 15.9524 8.49853H16.6667Z" fill="white"/>
<path fill-rule="evenodd" clip-rule="evenodd" d="M16.8163 15.751C17.2021 15.8365 17.4478 16.2294 17.3651 16.6285L17.2241 17.3094C16.8712 19.0131 15.416 20.2302 13.7319 20.2302H11.875C11.4805 20.2302 11.1607 19.8993 11.1607 19.4912C11.1607 19.0831 11.4805 18.7522 11.875 18.7522H13.7319C14.7423 18.7522 15.6155 18.0219 15.8272 16.9997L15.9682 16.3188C16.0509 15.9197 16.4306 15.6655 16.8163 15.751Z" fill="white"/>
<path fill-rule="evenodd" clip-rule="evenodd" d="M10.625 18.9677H9.375C9.09557 18.9677 8.86905 19.2021 8.86905 19.4912C8.86905 19.7803 9.09557 20.0147 9.375 20.0147H10.625C10.9044 20.0147 11.131 19.7803 11.131 19.4912C11.131 19.2021 10.9044 18.9677 10.625 18.9677ZM9.375 17.9824C8.56958 17.9824 7.91667 18.6579 7.91667 19.4912C7.91667 20.3245 8.56958 21 9.375 21H10.625C11.4304 21 12.0833 20.3245 12.0833 19.4912C12.0833 18.6579 11.4304 17.9824 10.625 17.9824H9.375Z" fill="white"/>
</svg>
