<svg width="15" height="15" viewBox="0 0 15 15" fill="none" xmlns="http://www.w3.org/2000/svg">
<path d="M10.1944 0.896484H4.62747C2.36504 0.896484 0.524414 2.73711 0.524414 4.99954V10.5664C0.524414 12.8289 2.36504 14.6695 4.62747 14.6695H10.1944C12.4568 14.6695 14.2974 12.8289 14.2974 10.5664V4.99954C14.2974 2.73711 12.4568 0.896484 10.1944 0.896484ZM12.9119 10.5664C12.9119 12.0673 11.6952 13.2839 10.1944 13.2839H4.62747C3.12665 13.2839 1.90998 12.0673 1.90998 10.5664V4.99954C1.90998 3.4987 3.12665 2.28205 4.62747 2.28205H10.1944C11.6952 2.28205 12.9119 3.4987 12.9119 4.99954V10.5664Z" fill="white"/>
<path d="M7.41083 4.2207C5.44663 4.2207 3.84863 5.8187 3.84863 7.78287C3.84863 9.74704 5.44663 11.3451 7.41083 11.3451C9.37502 11.3451 10.973 9.74707 10.973 7.78287C10.973 5.81867 9.37502 4.2207 7.41083 4.2207ZM7.41083 9.95953C6.2087 9.95953 5.2342 8.98502 5.2342 7.7829C5.2342 6.58077 6.20872 5.60627 7.41083 5.60627C8.61295 5.60627 9.58745 6.58077 9.58745 7.7829C9.58745 8.985 8.61293 9.95953 7.41083 9.95953Z" fill="white"/>
<path d="M10.9805 5.10168C11.4519 5.10168 11.8341 4.71952 11.8341 4.24811C11.8341 3.77669 11.4519 3.39453 10.9805 3.39453C10.5091 3.39453 10.127 3.77669 10.127 4.24811C10.127 4.71952 10.5091 5.10168 10.9805 5.10168Z" fill="white"/>
</svg>
