<svg width="14" height="14" viewBox="0 0 14 14" fill="none" xmlns="http://www.w3.org/2000/svg">
<path d="M13.5217 13.9059V13.9053H13.525V8.94518C13.525 6.51863 13.0026 4.64941 10.1659 4.64941C8.80212 4.64941 7.88696 5.39778 7.51334 6.10726H7.47389V4.87595H4.78418V13.9053H7.5849V9.43432C7.5849 8.25711 7.80806 7.11879 9.2659 7.11879C10.7023 7.11879 10.7237 8.46223 10.7237 9.50983V13.9059H13.5217Z" fill="white"/>
<path d="M0.223633 4.87598H3.02774V13.9054H0.223633V4.87598Z" fill="white"/>
<path d="M1.62408 0.380859C0.727512 0.380859 0 1.10837 0 2.00494C0 2.90151 0.727512 3.64424 1.62408 3.64424C2.52065 3.64424 3.24817 2.90151 3.24817 2.00494C3.2476 1.10837 2.52009 0.380859 1.62408 0.380859V0.380859Z" fill="white"/>
</svg>
