<svg width="13" height="16" viewBox="0 0 13 16" fill="none" xmlns="http://www.w3.org/2000/svg">
<path fill-rule="evenodd" clip-rule="evenodd" d="M5.51513 10.4174C5.51513 10.4627 5.47132 10.508 5.47132 10.5533C4.90182 12.8629 4.85801 13.361 4.2447 14.4479C3.98185 14.9461 3.63139 15.4442 3.32473 15.8971C3.28092 15.9424 3.23712 16.0329 3.1495 15.9877C3.06188 15.9877 3.06188 15.8971 3.06188 15.8065C2.97427 15.1272 2.93046 14.4026 2.93046 13.678C2.97427 12.7723 3.06188 12.4553 4.20089 7.42851C4.20089 7.33794 4.20089 7.29266 4.15708 7.20208C3.89424 6.43221 3.80662 5.66234 4.06947 4.84719C4.59516 3.1263 6.47891 2.99044 6.78556 4.43961C7.0046 5.30005 6.4351 6.43221 6.04083 8.10781C5.69036 9.51169 7.26745 10.4627 8.6255 9.4664C9.85213 8.51539 10.334 6.29635 10.2464 4.71133C10.0712 1.54127 6.69795 0.861978 4.59516 1.90357C2.18572 3.1263 1.66003 6.25107 2.75523 7.70023C2.88665 7.88138 3.01808 7.97195 2.97427 8.19838C2.88665 8.4701 2.84284 8.78711 2.75523 9.05883C2.71142 9.28526 2.53619 9.33055 2.31715 9.23997C1.92288 9.05883 1.57241 8.78711 1.30956 8.4701C0.389596 7.29265 0.126748 4.89247 1.35337 2.89987C2.71142 0.680832 5.29609 -0.224897 7.61792 0.0468216C10.3778 0.363827 12.1739 2.35643 12.4806 4.57547C12.612 5.57177 12.5244 8.10781 11.1226 9.87398C9.54547 11.9119 6.9608 12.0477 5.77798 10.7797C5.64656 10.6439 5.60275 10.508 5.51513 10.4174Z" fill="white"/>
</svg>
