<svg width="16" height="12" viewBox="0 0 16 12" fill="none" xmlns="http://www.w3.org/2000/svg">
<path d="M0 10.6405C1.45264 11.4979 3.17739 12 5.03192 12C11.1272 12 14.5683 7.24944 14.3632 2.99324C15.0037 2.56839 15.5604 2.03154 16 1.42517C15.4097 1.66463 14.7776 1.8307 14.1162 1.90023C14.7943 1.52559 15.3134 0.934664 15.5604 0.22401C14.9283 0.571612 14.225 0.822658 13.4757 0.957837C12.877 0.370775 12.023 0 11.0811 0C8.96285 0 7.40555 1.82298 7.88278 3.71934C5.15332 3.59189 2.73783 2.38687 1.11774 0.556164C0.25955 1.91954 0.669807 3.70003 2.13501 4.59994C1.59498 4.58449 1.08844 4.44931 0.648875 4.22144C0.615384 5.62343 1.70382 6.9366 3.28205 7.23013C2.82156 7.34599 2.31502 7.37303 1.8001 7.28033C2.21873 8.48536 3.42857 9.35822 4.86447 9.38526C3.47881 10.3856 1.73731 10.8297 0 10.6405Z" fill="white"/>
</svg>
