<svg width="54" height="74" viewBox="0 0 54 74" fill="none" xmlns="http://www.w3.org/2000/svg">
<path d="M17.8 48.8696L12.1741 37.4546C10.9679 35.0073 8.02123 33.9803 5.55517 35.1478V35.1478C3.04591 36.3358 1.9865 39.3417 3.19642 41.8404L16.4341 69.179C17.2694 70.9042 19.0175 72 20.9343 72H36C44.8366 72 52 64.8366 52 56V24.9275C52 22.3502 49.9107 20.2609 47.3333 20.2609V20.2609C45.2715 20.2609 43.6 21.9323 43.6 23.9942V25.1304M43.6 36.087V25.1304M43.6 25.1304V11.8116C43.6 9.41836 41.6599 7.47826 39.2667 7.47826V7.47826C37.3521 7.47826 35.8 9.03034 35.8 10.9449V14.1739M35.8 36.087V14.1739M35.8 14.1739V6.66667C35.8 4.08934 33.7107 2 31.1333 2V2C29.0715 2 27.4 3.67147 27.4 5.73333V19.0435M27.4 36.087V19.0435M19 36.087V12.7536C19 10.1763 21.0893 8.08696 23.6667 8.08696V8.08696C25.7285 8.08696 27.4 9.75843 27.4 11.8203V19.0435M23.8 44C27.6 43.7971 35.56 46.313 37 58" stroke="white" stroke-width="4" stroke-linecap="round"/>
</svg>
