<svg width="71" height="63" viewBox="0 0 71 63" fill="none" xmlns="http://www.w3.org/2000/svg">
<path d="M40.5452 17.1514C40.5452 25.0192 34.9097 30.9014 28.5363 30.9014C22.1628 30.9014 16.5273 25.0192 16.5273 17.1514C16.5273 9.28351 22.1628 3.40137 28.5363 3.40137C34.9097 3.40137 40.5452 9.28351 40.5452 17.1514Z" stroke="white" stroke-width="5"/>
<path d="M52.7321 46.1696C52.7321 47.5504 53.8514 48.6696 55.2321 48.6696C56.6129 48.6696 57.7321 47.5504 57.7321 46.1696H52.7321ZM36.0804 57.375C37.4611 57.375 38.5804 56.2557 38.5804 54.875C38.5804 53.4943 37.4611 52.375 36.0804 52.375V57.375ZM43.7044 48.5187C42.7581 47.5133 41.1759 47.4654 40.1705 48.4116C39.1651 49.3579 39.1171 50.9401 40.0634 51.9456L43.7044 48.5187ZM51.1696 60.0982L49.3491 61.8116C49.8176 62.3094 50.4694 62.5936 51.153 62.5982C51.8365 62.6027 52.492 62.3272 52.9671 61.8358L51.1696 60.0982ZM69.7975 44.4251C70.7571 43.4323 70.7303 41.8497 69.7376 40.89C68.7448 39.9304 67.1622 39.9572 66.2025 40.9499L69.7975 44.4251ZM57.7321 46.1696V44.4343H52.7321V46.1696H57.7321ZM54.947 39.651L34.9929 28.3258L32.5249 32.6742L52.4789 43.9995L54.947 39.651ZM23.2844 28.8811L4.9581 38.7872L7.33569 43.1857L25.662 33.2796L23.2844 28.8811ZM0.5 46.2647V48.875H5.5V46.2647H0.5ZM9 57.375H36.0804V52.375H9V57.375ZM40.0634 51.9456L49.3491 61.8116L52.9901 58.3848L43.7044 48.5187L40.0634 51.9456ZM52.9671 61.8358L69.7975 44.4251L66.2025 40.9499L49.3722 58.3607L52.9671 61.8358ZM0.5 48.875C0.5 53.5694 4.30558 57.375 9 57.375V52.375C7.067 52.375 5.5 50.808 5.5 48.875H0.5ZM4.9581 38.7872C2.21158 40.2718 0.5 43.1426 0.5 46.2647H5.5C5.5 44.9791 6.20477 43.7971 7.33569 43.1857L4.9581 38.7872ZM57.7321 44.4343C57.7321 42.4549 56.6685 40.6281 54.947 39.651L52.4789 43.9995C52.6354 44.0883 52.7321 44.2544 52.7321 44.4343H57.7321Z" fill="white"/>
</svg>
