<svg width="17" height="16" viewBox="0 0 17 16" fill="none" xmlns="http://www.w3.org/2000/svg">
<path d="M15.3886 11.7371V13.8271C15.3894 14.0211 15.3496 14.2132 15.2719 14.3909C15.1942 14.5687 15.0802 14.7283 14.9372 14.8595C14.7942 14.9906 14.6254 15.0905 14.4416 15.1527C14.2578 15.2148 14.0631 15.2379 13.8699 15.2204C11.7261 14.9875 9.66686 14.255 7.85762 13.0817C6.17436 12.0121 4.74724 10.5849 3.67762 8.90167C2.50024 7.08421 1.76753 5.01497 1.53886 2.86157C1.52145 2.66892 1.54434 2.47476 1.60609 2.29144C1.66783 2.10812 1.76707 1.93967 1.89748 1.7968C2.02789 1.65394 2.18662 1.5398 2.36357 1.46164C2.54051 1.38348 2.73179 1.34302 2.92522 1.34284H5.01522C5.35332 1.33951 5.68109 1.45924 5.93744 1.6797C6.1938 1.90016 6.36124 2.20632 6.40856 2.54111C6.49677 3.20995 6.66037 3.86667 6.89622 4.49874C6.98996 4.74809 7.01024 5.01909 6.95468 5.27962C6.89911 5.54015 6.77003 5.77929 6.58272 5.96871L5.69796 6.85347C6.6897 8.59761 8.13382 10.0417 9.87796 11.0335L10.7627 10.1487C10.9521 9.9614 11.1913 9.83231 11.4518 9.77675C11.7123 9.72119 11.9833 9.74147 12.2327 9.83521C12.8648 10.0711 13.5215 10.2347 14.1903 10.3229C14.5287 10.3706 14.8378 10.5411 15.0587 10.8018C15.2797 11.0626 15.3971 11.3954 15.3886 11.7371Z" stroke="white" stroke-width="1.39333" stroke-linecap="round" stroke-linejoin="round"/>
</svg>
