<svg width="15" height="18" viewBox="0 0 15 18" fill="none" xmlns="http://www.w3.org/2000/svg">
<path d="M14.0752 7.77097C14.0752 12.6476 7.80515 16.8276 7.80515 16.8276C7.80515 16.8276 1.53516 12.6476 1.53516 7.77097C1.53516 6.10807 2.19574 4.51327 3.3716 3.33742C4.54745 2.16156 6.14225 1.50098 7.80515 1.50098C9.46806 1.50098 11.0629 2.16156 12.2387 3.33742C13.4146 4.51327 14.0752 6.10807 14.0752 7.77097Z" stroke="white" stroke-width="1.39333" stroke-linecap="round" stroke-linejoin="round"/>
<path d="M7.80582 9.86164C8.96009 9.86164 9.89582 8.92592 9.89582 7.77164C9.89582 6.61737 8.96009 5.68164 7.80582 5.68164C6.65154 5.68164 5.71582 6.61737 5.71582 7.77164C5.71582 8.92592 6.65154 9.86164 7.80582 9.86164Z" stroke="white" stroke-width="1.39333" stroke-linecap="round" stroke-linejoin="round"/>
</svg>
