<svg width="22" height="22" viewBox="0 0 22 22" fill="none" xmlns="http://www.w3.org/2000/svg">
<circle cx="11" cy="11" r="11" fill="#15234A"/>
<path d="M14.2096 8.86263C15.0956 8.86263 15.8138 8.14442 15.8138 7.25846C15.8138 6.37251 15.0956 5.6543 14.2096 5.6543C13.3237 5.6543 12.6055 6.37251 12.6055 7.25846C12.6055 8.14442 13.3237 8.86263 14.2096 8.86263Z" stroke="white" stroke-width="1.5" stroke-linecap="round" stroke-linejoin="round"/>
<path d="M7.79167 12.6048C8.67762 12.6048 9.39583 11.8866 9.39583 11.0007C9.39583 10.1147 8.67762 9.39648 7.79167 9.39648C6.90571 9.39648 6.1875 10.1147 6.1875 11.0007C6.1875 11.8866 6.90571 12.6048 7.79167 12.6048Z" stroke="white" stroke-width="1.5" stroke-linecap="round" stroke-linejoin="round"/>
<path d="M14.2096 16.349C15.0956 16.349 15.8138 15.6307 15.8138 14.7448C15.8138 13.8588 15.0956 13.1406 14.2096 13.1406C13.3237 13.1406 12.6055 13.8588 12.6055 14.7448C12.6055 15.6307 13.3237 16.349 14.2096 16.349Z" stroke="white" stroke-width="1.5" stroke-linecap="round" stroke-linejoin="round"/>
<path d="M9.17578 11.8086L12.8279 13.9368" stroke="white" stroke-width="1.5" stroke-linecap="round" stroke-linejoin="round"/>
<path d="M12.8226 8.06641L9.17578 10.1946" stroke="white" stroke-width="1.5" stroke-linecap="round" stroke-linejoin="round"/>
</svg>
