<svg width="41" height="41" viewBox="0 0 41 41" fill="none" xmlns="http://www.w3.org/2000/svg">
<rect width="41" height="41" rx="20" fill="#1CB7EB"/>
<path d="M9.40234 26.5705C11.3612 27.701 13.687 28.363 16.1877 28.363C24.4069 28.363 29.0472 22.0994 28.7706 16.4876C29.6343 15.9274 30.3851 15.2196 30.9778 14.4201C30.1819 14.7358 29.3295 14.9548 28.4375 15.0465C29.352 14.5525 30.052 13.7734 30.3851 12.8364C29.5327 13.2947 28.5843 13.6257 27.5738 13.8039C26.7666 13.0299 25.615 12.541 24.3449 12.541C21.4884 12.541 19.3885 14.9446 20.032 17.445C16.3514 17.2769 13.0942 15.6881 10.9096 13.2743C9.75234 15.0719 10.3056 17.4195 12.2813 18.606C11.5531 18.5857 10.8701 18.4074 10.2773 18.107C10.2322 19.9555 11.6999 21.6869 13.8281 22.0739C13.2071 22.2267 12.5241 22.2624 11.8297 22.1401C12.3942 23.729 14.0257 24.8798 15.9619 24.9155C14.0934 26.2344 11.745 26.82 9.40234 26.5705Z" fill="white"/>
</svg>
