<svg width="353" height="228" viewBox="0 0 353 228" fill="none" xmlns="http://www.w3.org/2000/svg">
<g opacity="0.2">
<path fill-rule="evenodd" clip-rule="evenodd" d="M236.807 4.62174C235.287 3.88981 233.591 3.60191 231.914 3.79114C230.237 3.98037 228.648 4.63905 227.329 5.69142L225 2.77217C226.869 1.28132 229.12 0.348189 231.495 0.0801098C233.871 -0.187969 236.273 0.219895 238.427 1.25679C240.581 2.29368 242.398 3.91748 243.67 5.94142C244.942 7.96535 245.617 10.3072 245.617 12.6976H241.882C241.882 11.0103 241.406 9.35719 240.508 7.92853C239.61 6.49987 238.328 5.35366 236.807 4.62174Z" fill="white"/>
<path fill-rule="evenodd" clip-rule="evenodd" d="M335.281 175.11C337.229 175.474 339.243 175.183 341.008 174.282C342.773 173.38 344.19 171.919 345.036 170.127C345.882 168.335 346.11 166.312 345.685 164.377C345.26 162.441 344.205 160.701 342.686 159.428L345.083 156.565C347.236 158.368 348.73 160.833 349.333 163.575C349.935 166.318 349.612 169.182 348.413 171.721C347.214 174.26 345.208 176.33 342.707 177.607C340.207 178.885 337.354 179.297 334.594 178.781L335.281 175.11Z" fill="white"/>
<path fill-rule="evenodd" clip-rule="evenodd" d="M328.297 15.6058C327.535 14.2038 326.393 13.0454 325.001 12.2638C323.61 11.4823 322.026 11.1093 320.432 11.1879L320.303 8.5769C322.389 8.47407 324.461 8.962 326.281 9.98457C328.102 11.0071 329.597 12.5228 330.594 14.3572C331.591 16.1917 332.05 18.2703 331.919 20.3542C331.787 22.438 331.07 24.4423 329.85 26.1366L327.728 24.6088C328.661 23.3138 329.209 21.7819 329.31 20.1893C329.41 18.5966 329.059 17.0079 328.297 15.6058Z" fill="white"/>
<path fill-rule="evenodd" clip-rule="evenodd" d="M41.7591 162.555C41.1144 164.231 41.0182 166.068 41.4845 167.801C41.9509 169.535 42.9555 171.076 44.3538 172.202L42.7141 174.238C40.8847 172.765 39.5702 170.749 38.9601 168.48C38.3499 166.212 38.4757 163.809 39.3193 161.616L41.7591 162.555Z" fill="white"/>
<path d="M28.1338 18.0322C28.581 16.6559 30.5281 16.6559 30.9753 18.0322L31.7346 20.3691C31.9346 20.9846 32.5081 21.4013 33.1553 21.4013H35.6124C37.0595 21.4013 37.6612 23.2531 36.4905 24.1037L34.5026 25.5479C33.9791 25.9283 33.76 26.6026 33.96 27.2181L34.7193 29.555C35.1664 30.9312 33.5912 32.0757 32.4205 31.2251L30.4326 29.7809C29.909 29.4005 29.2001 29.4005 28.6765 29.7809L26.6887 31.2251C25.5179 32.0757 23.9427 30.9312 24.3899 29.555L25.1492 27.2181C25.3492 26.6026 25.1301 25.9283 24.6065 25.5479L22.6186 24.1037C21.4479 23.2531 22.0496 21.4013 23.4967 21.4013H25.9538C26.601 21.4013 27.1746 20.9846 27.3745 20.3691L28.1338 18.0322Z" fill="white"/>
<path d="M301.396 32.0322C301.843 30.6559 303.79 30.6559 304.237 32.0322L306.003 37.4657C306.203 38.0812 306.776 38.4979 307.424 38.4979H313.137C314.584 38.4979 315.186 40.3497 314.015 41.2003L309.393 44.5584C308.869 44.9388 308.65 45.6131 308.85 46.2286L310.616 51.6621C311.063 53.0384 309.488 54.1828 308.317 53.3322L303.695 49.9741C303.171 49.5937 302.462 49.5937 301.939 49.9741L297.317 53.3322C296.146 54.1828 294.571 53.0384 295.018 51.6621L296.783 46.2286C296.983 45.6131 296.764 44.9388 296.241 44.5584L291.619 41.2003C290.448 40.3497 291.05 38.4979 292.497 38.4979H298.21C298.857 38.4979 299.431 38.0812 299.631 37.4657L301.396 32.0322Z" fill="white"/>
<path d="M75.5751 52.4224H78.735V54.7069H75.5751V58.2781H73.1681V54.7069H69.9995V52.4224H73.1681V49H75.5751V52.4224Z" fill="white"/>
<path d="M152.222 222.852H154.855V224.756H152.222V227.732H150.216V224.756H147.576V222.852H150.216V220H152.222V222.852Z" fill="white"/>
<path d="M6.96953 220.278H10.9193V223.134H6.96953V227.598H3.96071V223.134H0V220.278H3.96071V216H6.96953V220.278Z" fill="white"/>
</g>
<path d="M309.194 105.465C311.21 106.661 313.816 105.996 315.012 103.98C316.209 101.963 315.544 99.3574 313.527 98.1606C311.511 96.9638 308.905 97.6287 307.709 99.6456C306.512 101.663 307.177 104.268 309.194 105.465Z" stroke="white" stroke-width="2" stroke-linecap="round" stroke-linejoin="round"/>
<path d="M289.529 105.318C291.546 106.515 294.152 105.85 295.348 103.833C296.545 101.816 295.88 99.2109 293.863 98.0141C291.846 96.8173 289.241 97.4822 288.044 99.4991C286.848 101.516 287.513 104.121 289.529 105.318Z" stroke="white" stroke-width="2" stroke-linecap="round" stroke-linejoin="round"/>
<path d="M299.081 122.507C301.098 123.704 303.703 123.039 304.9 121.022C306.096 119.005 305.432 116.4 303.415 115.203C301.398 114.006 298.793 114.671 297.596 116.688C296.399 118.705 297.064 121.31 299.081 122.507Z" stroke="white" stroke-width="2" stroke-linecap="round" stroke-linejoin="round"/>
<path d="M293.759 105.375L299.198 115.153" stroke="white" stroke-width="2" stroke-linecap="round" stroke-linejoin="round"/>
<path d="M307.117 101.78L295.94 101.698" stroke="white" stroke-width="2" stroke-linecap="round" stroke-linejoin="round"/>
<path d="M22.2539 66.0056C23.0572 64.5566 22.5338 62.7306 21.0847 61.9273C19.6356 61.1239 17.8097 61.6474 17.0063 63.0964C16.203 64.5455 16.7265 66.3715 18.1755 67.1748C19.6246 67.9782 21.4505 67.4547 22.2539 66.0056Z" stroke="white" stroke-width="2" stroke-linecap="round" stroke-linejoin="round"/>
<path d="M22.5576 79.8948C23.3609 78.4457 22.8375 76.6198 21.3884 75.8164C19.9394 75.0131 18.1134 75.5365 17.3101 76.9856C16.5067 78.4347 17.0302 80.2606 18.4792 81.064C19.9283 81.8673 21.7543 81.3439 22.5576 79.8948Z" stroke="white" stroke-width="2" stroke-linecap="round" stroke-linejoin="round"/>
<path d="M34.498 72.7937C35.3014 71.3446 34.7779 69.5187 33.3288 68.7154C31.8798 67.912 30.0538 68.4355 29.2505 69.8845C28.4471 71.3336 28.9706 73.1595 30.4197 73.9629C31.8687 74.7662 33.6947 74.2428 34.498 72.7937Z" stroke="white" stroke-width="2" stroke-linecap="round" stroke-linejoin="round"/>
<path d="M22.5103 76.9067L29.3027 72.863" stroke="white" stroke-width="2" stroke-linecap="round" stroke-linejoin="round"/>
<path d="M19.695 67.548L19.8691 75.4425" stroke="white" stroke-width="2" stroke-linecap="round" stroke-linejoin="round"/>
<path d="M69 146C75.6274 146 81 140.627 81 134C81 127.373 75.6274 122 69 122C62.3726 122 57 127.373 57 134C57 140.627 62.3726 146 69 146Z" fill="white"/>
<path d="M64.2002 136.4C64.2002 136.4 66.0002 138.8 69.0002 138.8C72.0002 138.8 73.8002 136.4 73.8002 136.4" fill="white" stroke="#4060B4" stroke-width="3" stroke-linecap="round" stroke-linejoin="round"/>
<path d="M65.3999 130.4H65.4119" stroke="#4060B4" stroke-width="2" stroke-linecap="round" stroke-linejoin="round"/>
<path d="M72.6001 130.4H72.6121" stroke="#4060B4" stroke-width="2" stroke-linecap="round" stroke-linejoin="round"/>
<path d="M257 209.66C259.761 214.443 265.877 216.082 270.66 213.321C275.443 210.559 277.082 204.443 274.32 199.66C271.559 194.877 265.443 193.239 260.66 196C255.877 198.761 254.238 204.877 257 209.66Z" fill="white"/>
<path d="M261.928 202.196C261.928 202.196 260.946 204.495 262.196 206.66C263.446 208.825 265.928 209.124 265.928 209.124" fill="white" stroke="#4060B4" stroke-width="2" stroke-linecap="round" stroke-linejoin="round"/>
<path d="M266.758 200.562L266.763 200.571" stroke="#4060B4" stroke-width="2" stroke-linecap="round" stroke-linejoin="round"/>
<path d="M269.758 205.758L269.763 205.767" stroke="#4060B4" stroke-width="2" stroke-linecap="round" stroke-linejoin="round"/>
<path d="M112.834 20.1615L110.509 16.9063C110.047 16.2588 109.346 15.8215 108.561 15.6906C107.776 15.5597 106.972 15.7459 106.324 16.2083L108.299 25.8571L114.692 34.8089L123.871 28.2537C124.267 27.9779 124.55 27.5683 124.667 27.1005C124.785 26.6327 124.729 26.1381 124.511 25.708L120.404 17.5818C120.273 17.3232 120.087 17.0963 119.859 16.9167C119.632 16.737 119.368 16.6091 119.086 16.5416C118.804 16.4741 118.511 16.4687 118.226 16.5258C117.942 16.5829 117.674 16.7011 117.44 16.8723L112.834 20.1615ZM114.692 34.8089L112.25 36.5524C111.819 36.8606 111.282 36.9848 110.759 36.8975C110.236 36.8102 109.769 36.5187 109.46 36.087L105.392 30.3904C105.084 29.9587 104.96 29.4222 105.047 28.899C105.135 28.3758 105.426 27.9087 105.858 27.6005L108.299 25.8571" fill="white"/>
<path d="M107.893 26.1475L114.285 35.0993" stroke="#4060B4"/>
<path d="M340.888 67.9392L341.738 63.4368C341.907 62.5412 341.713 61.6151 341.2 60.8622C340.686 60.1093 339.894 59.5914 338.999 59.4222L332.583 68.7026L330.245 81.0844L342.942 83.482C343.484 83.5907 344.047 83.4999 344.527 83.2264C345.007 82.9528 345.372 82.515 345.555 81.9936L349.021 72.1563C349.131 71.8429 349.171 71.5094 349.14 71.1788C349.108 70.8482 349.005 70.5285 348.837 70.2418C348.669 69.9551 348.441 69.7082 348.169 69.5184C347.896 69.3285 347.586 69.2002 347.259 69.1423L340.888 67.9392ZM330.245 81.0844L326.868 80.4468C326.271 80.334 325.743 79.9887 325.401 79.4868C325.059 78.9849 324.929 78.3675 325.042 77.7704L326.53 69.8911C326.643 69.294 326.988 68.7662 327.49 68.4237C327.992 68.0813 328.609 67.9522 329.206 68.065L332.583 68.7026" fill="white"/>
<path d="M332.021 68.5967L329.682 80.9785" stroke="#4060B4"/>
</svg>
