<svg width="461" height="263" viewBox="0 0 461 263" fill="none" xmlns="http://www.w3.org/2000/svg">
<path opacity="0.84" d="M117.72 90.984C30.5905 85.6329 3.45468 202.093 0.850586 262.666H447.065C454.761 262.666 460.999 256.428 460.999 248.733V35.9013C432.435 2.80963 400.737 -0.673922 370.084 0.71963C342.879 1.95643 321.179 19.3883 311.19 36.9882C309.092 40.6842 304.322 42.3447 300.569 40.3512C182.623 -22.2945 136.07 39.9457 125.788 84.994C124.948 88.675 121.489 91.2155 117.72 90.984Z" fill="#F0F6FF"/>
<ellipse cx="245.381" cy="256.746" rx="114.602" ry="5.92166" fill="#AFB8CA"/>
<g filter="url(#filter0_d_908_4)">
<path d="M195.746 84.2686H154.501C153.689 84.2686 152.967 83.6368 152.967 82.7343V64.4132C152.967 63.6009 153.599 62.8789 154.501 62.8789H195.746C196.558 62.8789 197.28 63.5107 197.28 64.4132V82.7343C197.28 83.6368 196.558 84.2686 195.746 84.2686Z" fill="white"/>
<path d="M185.727 67.4814H157.027V68.5645H185.727V67.4814Z" fill="#476CD2"/>
<path d="M193.128 71.1805H157.027V72.2636H193.128V71.1805Z" fill="#476CD2"/>
<path d="M193.128 74.9717H157.027V76.0547H193.128V74.9717Z" fill="#476CD2"/>
<path d="M193.128 78.672H157.027V79.755H193.128V78.672Z" fill="#476CD2"/>
<path d="M189.699 84.2686H194.844V90.7667L189.699 84.2686Z" fill="white"/>
</g>
<g filter="url(#filter1_d_908_4)">
<path d="M293.76 40.3154H335.005C335.817 40.3154 336.539 39.6837 336.539 38.7812V20.4601C336.539 19.6478 335.907 18.9258 335.005 18.9258H293.76C292.948 18.9258 292.226 19.5575 292.226 20.4601V38.7812C292.226 39.5934 292.948 40.3154 293.76 40.3154Z" fill="white"/>
<path d="M324.986 23.4385H296.286V24.5215H324.986V23.4385Z" fill="#476CD2"/>
<path d="M332.387 27.2285H296.286V28.3115H332.387V27.2285Z" fill="#476CD2"/>
<path d="M332.387 30.9287H296.286V32.0117H332.387V30.9287Z" fill="#476CD2"/>
<path d="M332.387 34.7197H296.286V35.8027H332.387V34.7197Z" fill="#476CD2"/>
<path d="M299.806 40.3157H294.662V46.7235L299.806 40.3157Z" fill="white"/>
</g>
<path d="M300.257 176.955C305.852 176.233 309.553 173.976 311.087 170.186C315.509 159.626 304.499 138.688 299.806 131.468L299.715 131.377C299.445 130.926 299.535 130.294 299.986 130.024L301.972 128.489C302.423 128.128 303.145 128.219 303.416 128.76C304.138 129.933 321.466 157.009 315.058 172.262C312.802 177.677 307.928 180.926 300.618 181.828C300.076 181.918 299.535 181.467 299.445 180.926L299.174 178.128C299.264 177.586 299.715 177.045 300.257 176.955Z" fill="url(#paint0_linear_908_4)"/>
<path d="M282.027 148.615H306.756C313.615 148.615 319.12 141.034 319.12 131.648V116.305C319.12 106.919 313.615 99.338 306.756 99.338H282.027C275.167 99.338 269.662 106.919 269.662 116.305V131.648C269.662 141.034 275.258 148.615 282.027 148.615Z" fill="#BD9E7F"/>
<path d="M308.564 181.917H244.756V187.152H308.564V181.917Z" fill="#091433"/>
<path d="M281.67 191.574H271.562V194.733H281.67V191.574Z" fill="#0D1C44"/>
<path d="M278.69 194.732H274.629V213.955H278.69V194.732Z" fill="#182752"/>
<path d="M279.232 213.957H274.088V236.249H279.232V213.957Z" fill="#BD9E7F"/>
<path d="M279.324 187.153H273.999H267.501L270.118 191.576H273.999H279.324H283.115L285.822 187.153H279.324Z" fill="#0B1739"/>
<path d="M273.455 163.776C273.545 163.776 273.545 163.776 273.455 163.776C273.726 163.776 273.997 163.776 274.177 163.776C274.538 163.776 274.899 163.776 275.35 163.776C275.441 163.776 275.531 163.776 275.621 163.776C275.802 163.776 276.072 163.776 276.253 163.776C276.343 163.776 276.524 163.776 276.614 163.776C276.704 163.776 276.885 163.776 276.975 163.776C277.156 163.776 277.426 163.776 277.607 163.776C277.697 163.776 277.787 163.776 277.878 163.776C278.329 163.776 278.69 163.776 279.051 163.776C279.231 163.776 279.502 163.776 279.683 163.776H279.773C290.242 164.318 311.451 167.026 307.48 181.917H277.065H276.253H245.838C241.777 167.026 262.986 164.318 273.455 163.776Z" fill="#BD9E7F"/>
<path d="M275.166 230.02C265.78 234.082 252.513 240.309 250.798 242.385C249.534 243.829 249.263 245.634 249.354 246.897L275.256 235.165V230.02H275.166Z" fill="#182752"/>
<path d="M256.665 247.168C256.665 248.973 255.221 250.327 253.506 250.327C251.792 250.327 250.348 248.883 250.348 247.168C250.348 245.454 251.792 244.01 253.506 244.01C255.221 244.01 256.665 245.363 256.665 247.168Z" fill="#BD9E7F"/>
<path d="M278.055 235.165L303.957 246.898C303.957 245.634 303.686 243.829 302.513 242.385C300.708 240.309 287.441 234.082 278.145 230.021V235.165H278.055Z" fill="#182752"/>
<path d="M296.558 247.169C296.558 248.974 298.002 250.328 299.716 250.328C301.431 250.328 302.875 248.883 302.875 247.169C302.875 245.454 301.431 244.01 299.716 244.01C298.002 244.01 296.558 245.364 296.558 247.169Z" fill="#BD9E7F"/>
<path d="M243.307 130.295C243.307 130.295 246.015 128.309 247.82 125.692C251.159 120.909 253.506 115.223 255.401 109.717C256.935 105.205 258.109 100.422 258.831 95.6382C259.462 91.4866 262.531 77.5879 253.596 78.8514C251.34 79.2124 249.715 80.8369 248.632 82.5517C243.759 90.3133 236.448 129.753 236.448 129.753L243.307 130.295Z" fill="#3A5BB6"/>
<path d="M221.015 78.5813L211.99 67.6609C211.99 67.6609 210.546 69.3757 210.997 70.9099C211.448 72.4442 210.817 73.6175 211.087 74.9713C211.268 76.3251 210.275 79.7546 211.178 81.9207C212.08 84.0867 215.51 85.1697 216.593 87.2455C217.586 89.231 219.481 93.7436 219.481 93.7436L226.701 89.9531L223.813 83.9062C223.813 83.9062 225.167 76.5958 221.466 72.4442L221.015 78.5813Z" fill="#F9CDB0"/>
<path d="M236.538 129.754C236.538 129.754 246.286 125.421 243.939 118.562C241.502 111.703 225.618 87.0645 225.618 87.0645L218.308 92.0283C218.308 91.938 228.957 126.414 236.538 129.754Z" fill="url(#paint1_linear_908_4)"/>
<path d="M238.164 131.288C238.164 131.288 247.912 126.956 245.565 120.096C243.128 113.237 228.147 87.9668 228.147 87.9668L217.768 94.7357C217.768 94.7357 228.598 130.295 238.164 131.288Z" fill="#3A5BB6"/>
<path d="M183.291 238.145L183.381 238.055C183.833 237.694 184.284 237.333 184.825 237.062C184.645 237.152 184.464 237.152 184.284 237.243C184.464 237.152 184.645 237.152 184.825 237.062C185.908 236.521 187.082 236.069 188.345 235.799C188.706 235.708 189.067 235.618 189.518 235.528C191.323 234.896 192.858 234.445 193.399 234.264C193.49 234.264 193.58 234.174 193.58 234.174C194.392 233.632 202.605 228.127 206.125 225.149C206.215 225.059 206.305 224.968 206.395 224.878C207.208 219.734 206.937 214.138 206.937 214.138L219.392 214.048C219.392 214.048 217.587 221.539 217.857 225.51C217.857 225.871 218.489 226.954 218.489 227.044C218.67 227.315 218.76 227.586 218.94 227.856C219.121 228.127 219.211 228.398 219.392 228.669C219.753 229.571 220.294 230.474 220.565 231.376C220.926 232.459 220.926 233.542 221.016 234.625C221.016 234.986 221.016 235.347 221.016 235.708C221.016 236.43 220.926 237.152 220.565 237.784C220.024 238.777 218.85 239.228 217.857 239.589C215.691 240.221 213.435 240.492 211.179 241.033C207.118 242.026 202.966 243.65 198.724 244.282C194.031 245.004 189.338 244.192 184.645 244.011C183.381 244.011 181.486 243.56 181.125 242.116C180.854 240.943 182.298 238.957 183.291 238.145Z" fill="#F9CDB0"/>
<path d="M181.123 241.847C181.123 242.027 181.123 242.208 181.213 242.388C181.484 243.381 182.387 243.832 183.379 244.103C183.831 244.193 184.282 244.284 184.643 244.284C186.989 244.374 189.336 244.554 191.682 244.735C192.585 244.825 193.488 244.825 194.3 244.825C194.571 244.825 194.932 244.825 195.202 244.825C195.744 244.825 196.376 244.825 196.917 244.735C197.188 244.735 197.459 244.645 197.82 244.645C198.09 244.645 198.361 244.554 198.722 244.554C199.805 244.374 200.798 244.193 201.881 243.923C203.144 243.562 204.498 243.201 205.762 242.84C207.567 242.298 209.372 241.757 211.177 241.305C211.718 241.125 212.26 241.035 212.892 240.944C213.433 240.854 213.975 240.764 214.606 240.674C215.689 240.493 217.314 240.222 218.397 239.951C219.029 239.771 219.751 239.5 220.292 239.049C220.383 238.959 220.473 238.868 220.653 238.778C220.834 238.598 221.014 238.417 221.195 238.146C221.285 237.876 221.466 237.695 221.466 237.424C221.466 237.334 221.466 237.244 221.556 237.154C221.646 236.793 221.646 236.432 221.646 236.071C221.646 235.71 221.646 234.988 221.556 234.266C221.556 234.085 221.556 233.995 221.556 233.814C221.556 233.544 221.466 233.183 221.466 232.912C221.466 232.731 221.375 232.461 221.375 232.28C221.285 232.009 221.285 231.739 221.195 231.468C221.195 231.287 221.105 231.197 221.105 231.107C220.834 230.385 220.383 229.663 220.022 228.941C220.022 228.851 219.48 227.948 219.48 227.948C215.328 230.475 207.747 230.024 205.04 226.053C200.708 229.392 194.39 233.995 193.758 234.446H193.668C193.668 234.446 193.578 234.446 193.578 234.536C193.127 234.717 191.502 235.168 189.697 235.8C189.336 235.89 188.885 235.98 188.524 236.071C188.253 236.161 187.982 236.251 187.711 236.341C187.621 236.341 187.621 236.341 187.531 236.341C187.26 236.432 186.989 236.522 186.719 236.612C186.087 236.793 185.545 237.063 185.004 237.334C184.823 237.424 184.643 237.515 184.462 237.515C184.643 237.424 184.823 237.424 185.004 237.334C184.823 237.424 184.643 237.515 184.462 237.695C184.372 237.785 184.282 237.785 184.192 237.876C184.101 237.876 184.101 237.966 184.011 237.966C183.831 238.056 183.74 238.146 183.56 238.327L183.47 238.417C183.379 238.507 183.379 238.507 183.289 238.598C183.199 238.688 183.109 238.778 183.018 238.868C182.748 239.229 182.387 239.59 182.116 240.042C182.026 240.132 182.026 240.222 181.935 240.313C181.845 240.493 181.755 240.674 181.665 240.944C181.574 241.125 181.484 241.305 181.484 241.576C181.213 241.396 181.123 241.666 181.123 241.847ZM193.397 234.266C192.495 234.717 191.592 234.988 190.599 235.258H190.509C190.238 235.349 189.877 235.439 189.607 235.529C190.87 235.078 192.134 234.717 193.397 234.266Z" fill="#00144D"/>
<path d="M249.355 245.365C249.355 245.275 249.355 245.275 249.355 245.185C249.535 244.643 249.716 244.102 249.987 243.56C249.896 243.741 249.716 243.921 249.626 244.011C249.716 243.831 249.806 243.65 249.987 243.47C250.528 242.387 251.34 241.394 252.062 240.401C252.333 240.131 252.604 239.77 252.784 239.499C253.867 237.965 254.86 236.611 255.221 236.25C255.221 236.16 255.311 236.16 255.311 236.069C255.582 235.167 259.192 225.871 260.275 221.449C260.275 221.358 260.365 221.178 260.365 221.088C258.019 216.394 254.589 212.062 254.589 212.062L264.698 204.752C264.698 204.752 267.586 211.882 270.113 215.041C270.293 215.311 271.466 215.853 271.557 215.943C271.827 216.033 272.098 216.214 272.369 216.304C272.64 216.485 272.91 216.575 273.181 216.755C273.994 217.297 274.986 217.658 275.708 218.29C276.611 218.921 277.333 219.824 277.965 220.727C278.145 220.997 278.416 221.268 278.596 221.629C279.048 222.261 279.409 222.893 279.409 223.615C279.499 224.698 278.867 225.781 278.235 226.683C276.791 228.488 275.077 230.022 273.633 231.737C270.925 234.896 268.488 238.596 265.42 241.575C262.08 244.914 257.748 246.99 253.867 249.607C252.875 250.329 251.07 251.051 249.987 250.149C248.994 249.156 249.084 246.629 249.355 245.365Z" fill="#F9CDB0"/>
<path d="M249.716 249.608C249.806 249.788 249.896 249.879 250.077 250.059C250.799 250.691 251.882 250.51 252.874 250.149C253.326 249.969 253.687 249.788 254.048 249.518C256.033 248.254 258.019 247.081 260.004 245.817C260.726 245.366 261.448 244.824 262.17 244.373C262.441 244.193 262.712 244.012 262.892 243.832C263.344 243.471 263.795 243.11 264.246 242.749C264.427 242.568 264.697 242.388 264.878 242.207C265.058 242.027 265.329 241.846 265.51 241.575C266.232 240.853 266.954 240.041 267.676 239.229C268.578 238.236 269.39 237.153 270.203 236.07C271.376 234.626 272.459 233.092 273.723 231.738C274.084 231.287 274.445 230.926 274.896 230.474C275.257 230.023 275.708 229.662 276.069 229.211C276.881 228.399 278.055 227.316 278.686 226.413C279.138 225.872 279.499 225.24 279.769 224.608C279.769 224.518 279.86 224.337 279.86 224.247C279.95 223.976 279.95 223.706 279.95 223.435C279.95 223.164 279.86 222.893 279.769 222.623C279.769 222.532 279.679 222.442 279.679 222.352C279.499 221.991 279.318 221.72 279.138 221.449C278.867 221.088 278.506 220.547 278.055 220.005C277.964 219.915 277.874 219.735 277.784 219.644C277.603 219.464 277.423 219.193 277.152 219.012C276.972 218.832 276.881 218.742 276.701 218.561C276.52 218.381 276.25 218.2 276.069 218.02C275.979 217.929 275.798 217.839 275.708 217.749C275.076 217.298 274.264 217.027 273.542 216.576C273.452 216.485 272.549 216.124 272.549 216.034C270.654 220.547 264.156 224.518 259.643 222.893C258.109 228.128 255.582 235.529 255.311 236.251C255.311 236.251 255.311 236.341 255.221 236.341C255.221 236.341 255.221 236.431 255.131 236.431C254.86 236.882 253.867 238.146 252.694 239.68C252.423 239.951 252.152 240.312 251.972 240.583C251.791 240.763 251.611 241.034 251.43 241.214L251.34 241.305C251.16 241.575 250.979 241.756 250.799 242.027C250.438 242.568 250.077 243.019 249.806 243.651C249.716 243.832 249.535 244.012 249.445 244.193C249.535 244.012 249.716 243.832 249.806 243.741C249.716 243.922 249.625 244.102 249.535 244.373C249.535 244.463 249.445 244.554 249.445 244.644C249.445 244.734 249.355 244.824 249.355 244.824C249.264 245.005 249.264 245.185 249.174 245.366C249.174 245.456 249.174 245.456 249.174 245.547C249.174 245.637 249.174 245.727 249.084 245.817C249.084 245.907 249.084 246.088 248.994 246.178C248.903 246.63 248.903 247.171 248.903 247.622C248.903 247.713 248.903 247.803 248.903 247.983C248.903 248.164 248.994 248.435 248.994 248.615C248.994 248.796 249.084 249.066 249.174 249.247C249.535 249.247 249.625 249.427 249.716 249.608ZM255.311 236.341C254.86 237.153 254.228 237.965 253.596 238.778C253.596 238.778 253.596 238.778 253.506 238.868C253.326 239.139 253.145 239.319 252.874 239.59C253.687 238.507 254.499 237.424 255.311 236.341Z" fill="#00144D"/>
<path d="M211.178 144.555C223.182 140.584 235.998 139.32 248.543 138.237C254.77 137.786 261.99 136.613 268.217 136.161C282.026 134.988 292.676 131.107 290.6 145.367C289.788 150.511 288.705 156.197 285.636 160.71C282.206 165.493 276.34 167.659 270.744 168.562C264.427 169.645 257.838 169.464 251.431 169.284C245.835 169.103 240.149 168.562 234.644 167.208C227.694 165.583 220.835 163.778 214.066 161.703C205.492 153.129 211.178 144.555 211.178 144.555Z" fill="#14224B"/>
<path d="M211.178 144.555C211.178 144.555 208.38 144.194 207.928 151.595C207.477 158.995 206.033 219.013 206.033 219.013L219.661 221.901C219.661 221.901 232.928 179.212 226.881 153.039C227.062 153.039 221.647 140.584 211.178 144.555Z" fill="#14224B"/>
<path d="M218.669 149.067C218.759 148.976 218.85 148.886 218.94 148.796C221.016 146.901 224.265 146.359 226.972 145.908C246.467 142.749 267.134 141.305 286.809 139.861C290.058 139.59 293.488 138.868 295.744 141.756C297.549 144.012 297.91 147.171 298 149.969C298.091 153.128 297.91 156.377 296.647 159.265C295.203 162.785 292.315 165.583 289.065 167.568C281.484 172.261 272.098 173.074 263.163 172.622C254.319 172.261 244.662 170.817 236.088 168.561C229.409 166.756 220.655 164.861 217.676 157.64C216.503 154.752 216.323 151.503 218.669 149.067Z" fill="#182752"/>
<path d="M290.421 166.666C276.071 155.745 259.554 148.706 242.316 143.742C257.118 141.937 272.19 140.944 286.81 139.861C290.06 139.59 293.489 138.868 295.745 141.756C297.55 144.012 297.911 147.171 298.002 149.969C298.092 153.128 297.911 156.377 296.648 159.265C295.384 162.243 293.038 164.77 290.421 166.666Z" fill="#182752"/>
<path d="M291.413 79.0319C287.984 73.2558 281.756 71.3605 275.349 71.6313C271.829 71.8118 268.399 72.4436 265.06 73.3461C261.811 74.2486 257.569 74.9706 255.132 77.3172C252.064 80.2052 251.432 84.5373 251.161 88.5084C250.89 92.8405 250.8 97.0823 250.89 101.414C251.071 109.718 251.703 117.93 251.432 126.234C251.251 130.566 251.071 135.53 255.764 137.605C258.201 138.688 260.908 138.779 263.526 138.869C267.767 139.14 272.099 139.501 276.341 140.313C280.312 141.125 284.103 142.659 288.164 142.75C291.594 142.84 294.482 141.215 294.572 137.515C294.662 133.724 292.496 129.212 291.865 125.421C290.691 118.201 290.421 110.62 291.774 103.49C293.218 95.6383 295.836 86.6131 291.413 79.0319Z" fill="#FDD1B3"/>
<path d="M258.742 73.4355C261.178 71.9012 263.525 70.9084 264.608 70.7279L264.698 80.9264C264.698 80.9264 279.951 69.4644 279.951 69.3741C280.131 69.1936 285.637 71.8109 286.359 72.0817C300.618 78.3993 297.46 97.2619 297.369 109.717C297.369 115.854 297.369 121.991 297.279 128.128C297.279 131.287 297.099 134.446 297.279 137.604C297.369 140.402 296.647 141.666 293.94 143.2C290.962 144.825 288.073 143.742 285.095 142.929C281.575 141.937 278.056 140.944 274.445 140.492C269.662 139.77 264.879 139.5 260.095 139.319C257.478 139.229 255.041 139.409 253.236 138.236V83.3632C255.854 80.6556 257.839 77.226 258.742 73.4355Z" fill="url(#paint2_linear_908_4)"/>
<path d="M249.174 83.5449C249.535 79.0323 257.748 73.4367 262.351 71.4512C260.636 80.9276 261.268 91.126 259.734 99.7902C257.477 113.057 256.214 125.783 256.846 139.14C254.228 138.959 252.062 138.328 250.799 134.988C250.077 133.183 250.077 131.198 250.077 129.212C250.528 111.794 247.911 101.054 249.174 83.5449Z" fill="#476CD2"/>
<path d="M264.607 60.5301C264.607 62.4253 264.517 64.4109 264.517 66.3062C264.517 66.3062 264.156 74.8801 265.239 76.0534C267.315 78.2194 277.332 76.0534 277.332 69.3747L276.971 54.1222L264.607 60.5301Z" fill="#F9CDB0"/>
<path d="M281.304 69.4646L273.452 82.5511L266.684 76.8653L277.875 66.7571L281.304 69.4646Z" fill="url(#paint3_linear_908_4)"/>
<path d="M279.77 68.2911C279.318 68.1106 276.701 72.0816 273.903 76.7747C271.196 81.5581 265.51 90.0417 265.51 108.002C265.51 116.215 268.759 142.207 268.759 142.207C268.759 142.207 291.502 146.178 297.91 159.806C297.91 159.806 301.52 157.55 300.708 144.825C299.986 132.009 299.986 105.114 299.986 92.7493C300.076 80.4751 295.473 72.9842 279.77 68.2911Z" fill="#476CD2"/>
<path d="M278.416 69.7363L278.958 82.5521L272.821 85.3499L275.889 93.9238C275.889 93.9238 261.269 118.653 261.359 118.563C261.449 118.472 274.355 93.7433 274.355 93.7433L270.925 84.8986L277.875 81.7398L277.424 71.0901L278.416 69.7363Z" fill="url(#paint4_linear_908_4)"/>
<path opacity="0.31" d="M268.398 125.421C271.106 116.847 278.416 94.7356 282.929 88.1473C284.192 86.3422 285.456 78.5806 287.983 78.3098C298.001 77.2268 294.662 98.1652 293.759 102.678C292.676 107.822 291.232 112.876 289.337 117.75C286.99 123.706 284.102 129.663 280.221 134.717C278.146 137.425 275.077 139.5 275.077 139.5L268.489 130.566C268.489 128.941 268.398 127.226 268.398 125.421Z" fill="url(#paint5_linear_908_4)"/>
<path d="M261.358 78.3096L264.337 87.786L268.759 78.5803L265.871 78.4901L264.698 80.9269V78.3998L261.358 78.3096Z" fill="url(#paint6_linear_908_4)"/>
<path d="M263.795 85.0791H265.51L267.766 125.331L262.893 130.115L258.741 124.79L263.795 85.0791Z" fill="url(#paint7_linear_908_4)"/>
<path d="M276.612 40.8553L275.981 47.3534L274.988 57.1909L274.717 59.9887C266.414 69.1944 256.035 68.2016 253.418 63.9598C250.8 59.8082 253.508 39.5918 253.508 39.5918L276.612 40.8553Z" fill="#FDD1B3"/>
<path d="M256.124 48.0752L256.395 56.7394L251.431 56.9199L256.124 48.0752Z" fill="#F8C6A6"/>
<path d="M273.453 41.5772C267.135 42.6602 248.994 46.5411 245.836 33.9058C242.677 21.2706 254.951 19.7363 260.727 26.4149C266.503 33.0033 272.099 21.6316 279.59 30.2958C279.59 30.2958 284.734 29.8445 286.449 34.8986C289.066 42.7505 277.243 62.5156 277.243 62.5156L275.709 53.671L273.994 53.2197L273.453 41.5772Z" fill="black"/>
<path d="M267.767 28.1299C267.767 28.1299 279.68 27.4078 279.409 36.5233C279.138 45.6387 277.785 49.339 277.785 49.339L280.853 49.7C280.853 49.7 289.878 26.4151 271.467 25.8736C271.467 25.8736 269.572 25.6028 268.489 26.5956C267.406 27.5884 267.767 28.1299 267.767 28.1299Z" fill="#FF8000"/>
<path d="M280.944 46.7215C282.658 49.2485 280.312 54.2124 275.077 55.7467L275.889 46.6312C276.521 45.458 279.86 45.097 280.944 46.7215Z" fill="url(#paint8_linear_908_4)"/>
<path d="M273.994 133.455C273.994 133.455 277.062 131.379 279.138 128.672C283.019 123.618 285.907 117.571 288.253 111.704C290.149 106.831 291.593 101.777 292.676 96.6324C293.578 92.1198 297.549 77.3185 287.531 78.3113C285.004 78.5821 283.199 80.2969 281.936 82.1019C276.25 90.3148 266.322 122.805 266.322 122.805L273.994 133.455Z" fill="#3A5BB6"/>
<path d="M246.106 78.4008L234.464 68.3828C234.464 68.3828 233.2 70.4586 233.922 71.9929C234.644 73.5272 234.193 74.8809 234.644 76.325C235.095 77.769 234.554 81.5596 235.908 83.7256C237.261 85.8916 241.232 86.4332 242.676 88.4187C244.121 90.4042 246.918 94.8266 246.918 94.8266L254.138 89.4115L250.077 83.6353C250.077 83.6353 250.348 75.6029 245.655 71.8124L246.106 78.4008Z" fill="#F9CDB0"/>
<path d="M274.084 133.545C274.084 133.545 284.282 127.047 280.491 119.917C276.611 112.877 265.961 104.123 251.972 84.9893L244.571 91.7581C244.571 91.7581 265.058 131.198 274.084 133.545Z" fill="url(#paint9_linear_908_4)"/>
<path d="M274.354 133.273C274.354 133.273 285.185 127.045 281.304 119.916C277.423 112.876 269.391 105.746 255.401 86.5225L244.571 95.7281C244.571 95.7281 265.329 131.017 274.354 133.273Z" fill="#3A5BB6"/>
<path d="M217.586 152.677C217.316 153.038 217.225 153.49 217.045 153.941C216.503 156.107 218.038 158.634 219.121 160.439C223.002 166.757 256.395 216.666 256.395 216.666L269.21 211.161C267.315 205.204 264.969 199.338 262.532 193.652C257.658 182.19 251.972 170.908 244.572 160.89C239.969 154.663 234.915 147.894 226.341 148.075C223.092 148.165 219.301 149.699 217.586 152.677Z" fill="#182752"/>
<path d="M264.698 80.9281L260.727 77.8596L264.427 67.6611C264.427 67.6611 264.878 80.7476 264.698 80.9281Z" fill="url(#paint10_linear_908_4)"/>
<path d="M266.683 76.8672L264.697 80.9285L268.759 78.582L266.683 76.8672Z" fill="url(#paint11_linear_908_4)"/>
<path d="M347.007 255.294V256.107H342.495L336.087 139.501H342.405L347.007 255.294Z" fill="url(#paint12_linear_908_4)"/>
<path d="M150.077 139.502H156.485L149.987 256.107H145.475L150.077 139.502Z" fill="url(#paint13_linear_908_4)"/>
<path d="M352.061 136.342H140.059C138.976 136.342 138.164 135.529 138.164 134.446V131.107C138.164 130.024 138.976 129.212 140.059 129.212H352.061C353.324 129.212 354.407 130.204 354.407 131.558V134.085C354.407 135.349 353.324 136.342 352.061 136.342Z" fill="#34344F"/>
<path d="M142.587 142.388H349.985V136.342H142.587V142.388Z" fill="url(#paint14_linear_908_4)"/>
<path d="M229.137 94.7365L238.072 126.144L255.852 126.956V129.122H191.051L181.665 94.7365H229.137Z" fill="#868B9A"/>
<path d="M226.069 94.7365L235.545 129.122H191.051L181.665 94.7365H226.069Z" fill="#8E95A9"/>
<defs>
<filter id="filter0_d_908_4" x="146" y="58.6989" width="58.2468" height="41.8211" filterUnits="userSpaceOnUse" color-interpolation-filters="sRGB">
<feFlood flood-opacity="0" result="BackgroundImageFix"/>
<feColorMatrix in="SourceAlpha" type="matrix" values="0 0 0 0 0 0 0 0 0 0 0 0 0 0 0 0 0 0 127 0" result="hardAlpha"/>
<feOffset dy="2.78667"/>
<feGaussianBlur stdDeviation="3.48333"/>
<feComposite in2="hardAlpha" operator="out"/>
<feColorMatrix type="matrix" values="0 0 0 0 0 0 0 0 0 0 0 0 0 0 0 0 0 0 0.25 0"/>
<feBlend mode="normal" in2="BackgroundImageFix" result="effect1_dropShadow_908_4"/>
<feBlend mode="normal" in="SourceGraphic" in2="effect1_dropShadow_908_4" result="shape"/>
</filter>
<filter id="filter1_d_908_4" x="285.259" y="14.7458" width="58.2468" height="41.7311" filterUnits="userSpaceOnUse" color-interpolation-filters="sRGB">
<feFlood flood-opacity="0" result="BackgroundImageFix"/>
<feColorMatrix in="SourceAlpha" type="matrix" values="0 0 0 0 0 0 0 0 0 0 0 0 0 0 0 0 0 0 127 0" result="hardAlpha"/>
<feOffset dy="2.78667"/>
<feGaussianBlur stdDeviation="3.48333"/>
<feComposite in2="hardAlpha" operator="out"/>
<feColorMatrix type="matrix" values="0 0 0 0 0 0 0 0 0 0 0 0 0 0 0 0 0 0 0.25 0"/>
<feBlend mode="normal" in2="BackgroundImageFix" result="effect1_dropShadow_908_4"/>
<feBlend mode="normal" in="SourceGraphic" in2="effect1_dropShadow_908_4" result="shape"/>
</filter>
<linearGradient id="paint0_linear_908_4" x1="307.966" y1="181.771" x2="307.966" y2="128.28" gradientUnits="userSpaceOnUse">
<stop stop-color="#07154B"/>
<stop offset="0.2641" stop-color="#0C174E"/>
<stop offset="0.5843" stop-color="#1B1D57"/>
<stop offset="0.9324" stop-color="#332767"/>
<stop offset="1" stop-color="#39296A"/>
</linearGradient>
<linearGradient id="paint1_linear_908_4" x1="216.066" y1="105.972" x2="245.955" y2="110.739" gradientUnits="userSpaceOnUse">
<stop stop-color="#F9FBFC"/>
<stop offset="0.2923" stop-color="#F1F6FD"/>
<stop offset="0.733" stop-color="#DDE6FE"/>
<stop offset="0.9973" stop-color="#CDDBFF"/>
</linearGradient>
<linearGradient id="paint2_linear_908_4" x1="245.505" y1="126.079" x2="302.343" y2="93.2635" gradientUnits="userSpaceOnUse">
<stop stop-color="#F9FBFC"/>
<stop offset="0.2923" stop-color="#F1F6FD"/>
<stop offset="0.733" stop-color="#DDE6FE"/>
<stop offset="0.9973" stop-color="#CDDBFF"/>
</linearGradient>
<linearGradient id="paint3_linear_908_4" x1="273.971" y1="82.5811" x2="273.971" y2="66.7809" gradientUnits="userSpaceOnUse">
<stop stop-color="#F9FBFC"/>
<stop offset="0.3069" stop-color="#F0F5FD"/>
<stop offset="0.8031" stop-color="#D8E3FE"/>
<stop offset="0.9973" stop-color="#CDDBFF"/>
</linearGradient>
<linearGradient id="paint4_linear_908_4" x1="252.939" y1="103.953" x2="286.87" y2="84.3623" gradientUnits="userSpaceOnUse">
<stop stop-color="#071786"/>
<stop offset="0.1973" stop-color="#07167E"/>
<stop offset="0.4984" stop-color="#051369"/>
<stop offset="0.8639" stop-color="#030E47"/>
<stop offset="1" stop-color="#020C38"/>
</linearGradient>
<linearGradient id="paint5_linear_908_4" x1="292.025" y1="112.149" x2="275.327" y2="106.527" gradientUnits="userSpaceOnUse">
<stop stop-color="#07154B"/>
<stop offset="0.2641" stop-color="#0C174E"/>
<stop offset="0.5843" stop-color="#1B1D57"/>
<stop offset="0.9324" stop-color="#332767"/>
<stop offset="1" stop-color="#39296A"/>
</linearGradient>
<linearGradient id="paint6_linear_908_4" x1="265.078" y1="87.8207" x2="265.078" y2="78.3199" gradientUnits="userSpaceOnUse">
<stop stop-color="#071786"/>
<stop offset="0.2038" stop-color="#071681"/>
<stop offset="0.4505" stop-color="#061472"/>
<stop offset="0.7194" stop-color="#04115A"/>
<stop offset="1" stop-color="#020C38"/>
</linearGradient>
<linearGradient id="paint7_linear_908_4" x1="252.442" y1="113.874" x2="274.685" y2="101.031" gradientUnits="userSpaceOnUse">
<stop stop-color="#071786"/>
<stop offset="0.1973" stop-color="#07167E"/>
<stop offset="0.4984" stop-color="#051369"/>
<stop offset="0.8639" stop-color="#030E47"/>
<stop offset="1" stop-color="#020C38"/>
</linearGradient>
<linearGradient id="paint8_linear_908_4" x1="274.487" y1="49.1159" x2="280.194" y2="52.4104" gradientUnits="userSpaceOnUse">
<stop stop-color="#FFD1C1"/>
<stop offset="0.2262" stop-color="#FFCDBC"/>
<stop offset="0.4949" stop-color="#FFC1AE"/>
<stop offset="0.7841" stop-color="#FFAD96"/>
<stop offset="1" stop-color="#FF9A7F"/>
</linearGradient>
<linearGradient id="paint9_linear_908_4" x1="244.537" y1="109.24" x2="281.282" y2="109.24" gradientUnits="userSpaceOnUse">
<stop stop-color="#F9FBFC"/>
<stop offset="0.2923" stop-color="#F1F6FD"/>
<stop offset="0.733" stop-color="#DDE6FE"/>
<stop offset="0.9973" stop-color="#CDDBFF"/>
</linearGradient>
<linearGradient id="paint10_linear_908_4" x1="262.706" y1="80.8965" x2="262.706" y2="67.6196" gradientUnits="userSpaceOnUse">
<stop stop-color="#E7E6FF"/>
<stop offset="0.3393" stop-color="#C9D2F8"/>
<stop offset="0.7637" stop-color="#AABDF1"/>
<stop offset="1" stop-color="#9EB5EE"/>
</linearGradient>
<linearGradient id="paint11_linear_908_4" x1="266.72" y1="80.8969" x2="266.72" y2="76.8345" gradientUnits="userSpaceOnUse">
<stop stop-color="#E7E6FF"/>
<stop offset="0.3393" stop-color="#C9D2F8"/>
<stop offset="0.7637" stop-color="#AABDF1"/>
<stop offset="1" stop-color="#9EB5EE"/>
</linearGradient>
<linearGradient id="paint12_linear_908_4" x1="347.027" y1="197.778" x2="336.096" y2="197.778" gradientUnits="userSpaceOnUse">
<stop stop-color="#07154B"/>
<stop offset="0.2641" stop-color="#0C174E"/>
<stop offset="0.5843" stop-color="#1B1D57"/>
<stop offset="0.9324" stop-color="#332767"/>
<stop offset="1" stop-color="#39296A"/>
</linearGradient>
<linearGradient id="paint13_linear_908_4" x1="156.45" y1="197.778" x2="145.519" y2="197.778" gradientUnits="userSpaceOnUse">
<stop stop-color="#07154B"/>
<stop offset="0.2641" stop-color="#0C174E"/>
<stop offset="0.5843" stop-color="#1B1D57"/>
<stop offset="0.9324" stop-color="#332767"/>
<stop offset="1" stop-color="#39296A"/>
</linearGradient>
<linearGradient id="paint14_linear_908_4" x1="246.286" y1="136.342" x2="246.286" y2="142.388" gradientUnits="userSpaceOnUse">
<stop stop-color="#212138"/>
<stop offset="1" stop-color="#8686A1"/>
</linearGradient>
</defs>
</svg>
