<svg width="776" height="502" viewBox="0 0 776 502" fill="none" xmlns="http://www.w3.org/2000/svg">
<g opacity="0.2">
<path fill-rule="evenodd" clip-rule="evenodd" d="M521.176 10.968C517.831 9.35776 514.1 8.72437 510.411 9.14068C506.722 9.55699 503.226 11.0061 500.324 13.3213L495.2 6.89896C499.311 3.61908 504.264 1.56619 509.49 0.976412C514.715 0.386638 520.002 1.28394 524.74 3.5651C529.478 5.84627 533.477 9.41863 536.275 13.8713C539.073 18.3239 540.557 23.476 540.557 28.7349H532.341C532.341 25.0228 531.293 21.386 529.318 18.2429C527.343 15.0999 524.521 12.5782 521.176 10.968Z" fill="white"/>
<path fill-rule="evenodd" clip-rule="evenodd" d="M737.819 386.043C742.105 386.846 746.536 386.205 750.419 384.221C754.302 382.238 757.418 379.023 759.279 375.08C761.141 371.138 761.643 366.689 760.708 362.43C759.772 358.172 757.451 354.343 754.109 351.544L759.384 345.245C764.119 349.21 767.407 354.634 768.732 360.667C770.058 366.7 769.346 373.003 766.709 378.588C764.071 384.174 759.657 388.728 754.156 391.538C748.655 394.348 742.378 395.256 736.307 394.119L737.819 386.043Z" fill="white"/>
<path fill-rule="evenodd" clip-rule="evenodd" d="M722.453 35.133C720.776 32.0485 718.263 29.5 715.202 27.7806C712.141 26.0612 708.657 25.2408 705.15 25.4137L704.867 19.6694C709.455 19.4431 714.014 20.5166 718.019 22.7662C722.024 25.0159 725.312 28.3503 727.506 32.3861C729.7 36.4218 730.71 40.9949 730.421 45.5793C730.131 50.1637 728.553 54.5733 725.868 58.3007L721.202 54.9395C723.253 52.0906 724.459 48.7204 724.681 45.2166C724.902 41.7127 724.13 38.2175 722.453 35.133Z" fill="white"/>
<path fill-rule="evenodd" clip-rule="evenodd" d="M92.0698 358.42C90.6514 362.106 90.4399 366.148 91.4658 369.962C92.4917 373.776 94.702 377.166 97.7781 379.643L94.1709 384.122C90.1461 380.881 87.2542 376.446 85.9119 371.456C84.5697 366.465 84.8464 361.178 86.7022 356.355L92.0698 358.42Z" fill="white"/>
<path d="M62.0941 40.4713C63.0779 37.4434 67.3614 37.4434 68.3452 40.4713L70.0157 45.6124C70.4556 46.9664 71.7175 47.8832 73.1413 47.8832H78.5469C81.7306 47.8832 83.0543 51.9571 80.4787 53.8285L76.1054 57.0058C74.9535 57.8427 74.4715 59.3261 74.9115 60.6802L76.582 65.8213C77.5658 68.8491 74.1003 71.3669 71.5246 69.4956L67.1514 66.3183C65.9995 65.4814 64.4398 65.4814 63.2879 66.3183L58.9146 69.4956C56.339 71.3669 52.8735 68.8491 53.8573 65.8213L55.5278 60.6802C55.9677 59.3261 55.4858 57.8427 54.3339 57.0058L49.9606 53.8285C47.385 51.9572 48.7087 47.8832 51.8923 47.8832H57.298C58.7218 47.8832 59.9836 46.9664 60.4236 45.6124L62.0941 40.4713Z" fill="white"/>
<path d="M663.272 71.2711C664.255 68.2432 668.539 68.2432 669.523 71.2711L673.407 83.2248C673.847 84.5789 675.109 85.4957 676.532 85.4957H689.101C692.285 85.4957 693.609 89.5696 691.033 91.4409L680.865 98.8287C679.713 99.6656 679.231 101.149 679.671 102.503L683.555 114.457C684.538 117.485 681.073 120.002 678.497 118.131L668.329 110.743C667.177 109.906 665.617 109.906 664.465 110.743L654.297 118.131C651.721 120.002 648.256 117.485 649.24 114.457L653.124 102.503C653.564 101.149 653.082 99.6656 651.93 98.8287L641.761 91.4409C639.186 89.5696 640.509 85.4957 643.693 85.4957H656.262C657.686 85.4957 658.948 84.5789 659.388 83.2248L663.272 71.2711Z" fill="white"/>
<path d="M166.467 116.129H173.418V121.155H166.467V129.012H161.171V121.155H154.2V116.129H161.171V108.6H166.467V116.129Z" fill="white"/>
<path d="M335.089 491.074H340.882V495.263H335.089V501.81H330.676V495.263H324.867V491.074H330.676V484.8H335.089V491.074Z" fill="white"/>
<path d="M15.5332 485.412H24.2227V491.694H15.5332V501.515H8.91375V491.694H0.200195V485.412H8.91375V476H15.5332V485.412Z" fill="white"/>
</g>
<path fill-rule="evenodd" clip-rule="evenodd" d="M688.837 218.645C685.444 216.632 681.063 217.75 679.05 221.142C677.037 224.535 678.155 228.916 681.547 230.929C684.94 232.942 689.322 231.824 691.334 228.432C693.347 225.039 692.229 220.657 688.837 218.645ZM675.266 218.897C678.519 213.415 685.6 211.608 691.082 214.861C696.564 218.114 698.371 225.195 695.118 230.677C691.866 236.159 684.784 237.966 679.302 234.713C673.82 231.46 672.013 224.379 675.266 218.897Z" fill="white"/>
<path fill-rule="evenodd" clip-rule="evenodd" d="M645.576 218.322C642.184 216.309 637.802 217.428 635.789 220.82C633.776 224.212 634.894 228.594 638.287 230.607C641.679 232.62 646.061 231.502 648.074 228.109C650.087 224.717 648.968 220.335 645.576 218.322ZM632.005 218.575C635.258 213.093 642.339 211.285 647.821 214.538C653.304 217.791 655.111 224.872 651.858 230.355C648.605 235.837 641.524 237.644 636.041 234.391C630.559 231.138 628.752 224.057 632.005 218.575Z" fill="white"/>
<path fill-rule="evenodd" clip-rule="evenodd" d="M666.59 256.137C663.197 254.124 658.816 255.242 656.803 258.634C654.79 262.027 655.908 266.409 659.3 268.421C662.693 270.434 667.075 269.316 669.087 265.924C671.1 262.531 669.982 258.15 666.59 256.137ZM653.019 256.389C656.272 250.907 663.353 249.1 668.835 252.353C674.317 255.606 676.124 262.687 672.871 268.169C669.618 273.651 662.537 275.458 657.055 272.205C651.573 268.953 649.766 261.871 653.019 256.389Z" fill="white"/>
<path fill-rule="evenodd" clip-rule="evenodd" d="M645.401 230.701C646.462 230.11 647.802 230.492 648.393 231.554L660.36 253.066C660.95 254.128 660.568 255.468 659.506 256.058C658.445 256.649 657.105 256.267 656.514 255.205L644.548 233.693C643.957 232.631 644.339 231.292 645.401 230.701Z" fill="white"/>
<path fill-rule="evenodd" clip-rule="evenodd" d="M678.057 224.73C678.048 225.945 677.056 226.923 675.841 226.914L651.252 226.735C650.037 226.726 649.059 225.734 649.068 224.519C649.076 223.304 650.069 222.327 651.284 222.335L675.873 222.514C677.088 222.523 678.066 223.515 678.057 224.73Z" fill="white"/>
<path fill-rule="evenodd" clip-rule="evenodd" d="M39.5383 140.68C38.3601 142.805 39.1278 145.483 41.2531 146.662C43.3784 147.84 46.0565 147.072 47.2347 144.947C48.413 142.822 47.6452 140.144 45.5199 138.965C43.3946 137.787 40.7166 138.555 39.5383 140.68ZM39.1197 150.51C34.8691 148.153 33.3337 142.797 35.6901 138.547C38.0466 134.296 43.4027 132.761 47.6533 135.117C51.9039 137.474 53.4394 142.83 51.0829 147.08C48.7264 151.331 43.3703 152.866 39.1197 150.51Z" fill="white"/>
<path fill-rule="evenodd" clip-rule="evenodd" d="M40.2063 171.237C39.0281 173.362 39.7958 176.04 41.9211 177.218C44.0464 178.397 46.7244 177.629 47.9027 175.503C49.0809 173.378 48.3132 170.7 46.1879 169.522C44.0626 168.344 41.3845 169.111 40.2063 171.237ZM39.7877 181.066C35.5371 178.71 34.0016 173.354 36.3581 169.103C38.7146 164.853 44.0707 163.317 48.3213 165.674C52.5719 168.03 54.1074 173.386 51.7509 177.637C49.3944 181.887 44.0383 183.423 39.7877 181.066Z" fill="white"/>
<path fill-rule="evenodd" clip-rule="evenodd" d="M66.4758 155.614C65.2976 157.739 66.0653 160.417 68.1906 161.595C70.3159 162.773 72.994 162.006 74.1722 159.88C75.3505 157.755 74.5827 155.077 72.4574 153.899C70.3321 152.721 67.6541 153.488 66.4758 155.614ZM66.0572 165.443C61.8066 163.087 60.2712 157.731 62.6276 153.48C64.9841 149.23 70.3402 147.694 74.5908 150.051C78.8414 152.407 80.3769 157.763 78.0204 162.014C75.6639 166.264 70.3078 167.8 66.0572 165.443Z" fill="white"/>
<path fill-rule="evenodd" clip-rule="evenodd" d="M47.8319 171.121C47.2103 170.077 47.5528 168.727 48.5969 168.105L63.5403 159.209C64.5844 158.588 65.9346 158.93 66.5561 159.974C67.1776 161.018 66.8351 162.369 65.7911 162.99L50.8476 171.886C49.8036 172.508 48.4534 172.165 47.8319 171.121Z" fill="white"/>
<path fill-rule="evenodd" clip-rule="evenodd" d="M43.4799 147.208C44.6946 147.181 45.7011 148.144 45.7278 149.359L46.1109 166.727C46.1377 167.942 45.1746 168.948 43.9599 168.975C42.7452 169.002 41.7387 168.039 41.7119 166.824L41.3289 149.456C41.3021 148.241 42.2651 147.235 43.4799 147.208Z" fill="white"/>
<path d="M152.001 322C166.581 322 178.401 310.181 178.401 295.6C178.401 281.02 166.581 269.2 152.001 269.2C137.42 269.2 125.601 281.02 125.601 295.6C125.601 310.181 137.42 322 152.001 322Z" fill="white"/>
<path d="M141.441 300.881C141.441 300.881 145.401 306.161 152.001 306.161C158.601 306.161 162.561 300.881 162.561 300.881" fill="white"/>
<path fill-rule="evenodd" clip-rule="evenodd" d="M138.489 299.405C139.048 298.287 140.191 297.581 141.441 297.581H162.561C163.811 297.581 164.953 298.287 165.512 299.405C166.071 300.523 165.951 301.861 165.201 302.861L162.561 300.881C165.201 302.861 165.2 302.862 165.199 302.863L165.197 302.865L165.194 302.87L165.185 302.882L165.164 302.91C165.147 302.931 165.127 302.958 165.102 302.989C165.053 303.051 164.987 303.132 164.905 303.229C164.742 303.424 164.513 303.685 164.221 303.989C163.64 304.596 162.793 305.393 161.697 306.19C159.517 307.775 156.21 309.461 152.001 309.461C147.791 309.461 144.484 307.775 142.305 306.19C141.209 305.393 140.361 304.596 139.78 303.989C139.488 303.685 139.259 303.424 139.096 303.229C139.014 303.132 138.949 303.051 138.899 302.989C138.875 302.958 138.854 302.931 138.838 302.91L138.816 302.882L138.808 302.87L138.804 302.865L138.802 302.863C138.801 302.862 138.801 302.861 141.441 300.881L138.801 302.861C138.051 301.861 137.93 300.523 138.489 299.405Z" fill="#4060B4"/>
<path fill-rule="evenodd" clip-rule="evenodd" d="M141.882 287.681C141.882 286.466 142.867 285.481 144.082 285.481H144.108C145.323 285.481 146.308 286.466 146.308 287.681C146.308 288.896 145.323 289.881 144.108 289.881H144.082C142.867 289.881 141.882 288.896 141.882 287.681Z" fill="#4060B4"/>
<path fill-rule="evenodd" clip-rule="evenodd" d="M157.72 287.681C157.72 286.466 158.705 285.481 159.92 285.481H159.946C161.161 285.481 162.146 286.466 162.146 287.681C162.146 288.896 161.161 289.881 159.946 289.881H159.92C158.705 289.881 157.72 288.896 157.72 287.681Z" fill="#4060B4"/>
<path d="M565.599 462.053C571.674 472.575 585.129 476.18 595.652 470.105C606.174 464.03 609.779 450.575 603.704 440.053C597.629 429.53 584.174 425.925 573.652 432C563.129 438.075 559.524 451.53 565.599 462.053Z" fill="white"/>
<path d="M576.44 445.632C576.44 445.632 574.28 450.69 577.03 455.453C579.78 460.216 585.24 460.874 585.24 460.874" fill="white"/>
<path fill-rule="evenodd" clip-rule="evenodd" d="M576.309 443.435C577.141 443.385 577.929 443.81 578.346 444.531L587.146 459.773C587.563 460.495 587.536 461.39 587.077 462.086C586.618 462.781 585.805 463.157 584.978 463.058L585.241 460.873C584.978 463.058 584.977 463.058 584.976 463.057L584.974 463.057L584.97 463.057L584.96 463.055L584.934 463.052L584.859 463.042C584.798 463.033 584.718 463.02 584.619 463.002C584.421 462.968 584.149 462.914 583.821 462.833C583.166 462.672 582.269 462.402 581.273 461.959C579.29 461.077 576.803 459.459 575.125 456.552C573.447 453.646 573.289 450.683 573.516 448.525C573.631 447.44 573.845 446.529 574.034 445.882C574.128 445.557 574.217 445.294 574.286 445.106C574.32 445.011 574.35 444.935 574.372 444.878L574.401 444.808L574.411 444.784L574.415 444.775L574.416 444.771L574.417 444.769C574.417 444.768 574.418 444.767 576.441 445.631L574.418 444.767C574.745 444.001 575.477 443.485 576.309 443.435Z" fill="#4060B4"/>
<path fill-rule="evenodd" clip-rule="evenodd" d="M585.967 440.132C587.019 439.525 588.365 439.885 588.972 440.937L588.983 440.957C589.591 442.009 589.23 443.354 588.178 443.962C587.126 444.569 585.78 444.209 585.173 443.157L585.162 443.137C584.554 442.085 584.915 440.74 585.967 440.132Z" fill="#4060B4"/>
<path fill-rule="evenodd" clip-rule="evenodd" d="M592.567 451.564C593.62 450.956 594.965 451.317 595.573 452.369L595.584 452.388C596.191 453.44 595.831 454.786 594.778 455.393C593.726 456.001 592.381 455.64 591.773 454.588L591.762 454.569C591.155 453.517 591.515 452.171 592.567 451.564Z" fill="#4060B4"/>
<path d="M248.434 45.1553L243.32 37.9938C242.303 36.5693 240.761 35.6072 239.035 35.3192C237.308 35.0312 235.538 35.4409 234.113 36.4582L238.458 57.6855L252.522 77.3797L272.717 62.9582C273.588 62.3513 274.21 61.4503 274.468 60.4211C274.727 59.3919 274.605 58.3039 274.125 57.3576L265.089 39.4799C264.8 38.9111 264.391 38.4118 263.891 38.0166C263.39 37.6215 262.809 37.3399 262.189 37.1914C261.569 37.043 260.924 37.0311 260.298 37.1568C259.673 37.2824 259.082 37.5425 258.568 37.919L248.434 45.1553ZM252.522 77.3797L247.151 81.2152C246.201 81.8933 245.021 82.1664 243.87 81.9744C242.719 81.7825 241.691 81.1411 241.013 80.1914L232.063 67.6588C231.385 66.7091 231.112 65.5289 231.304 64.3779C231.496 63.2268 232.138 62.1992 233.087 61.521L238.458 57.6855" fill="white"/>
<path fill-rule="evenodd" clip-rule="evenodd" d="M250.731 78.6588L236.668 58.9646L238.458 57.6861L252.522 77.3803L250.731 78.6588Z" fill="#4060B4"/>
<path d="M750.153 150.267L752.024 140.362C752.396 138.392 751.97 136.354 750.84 134.698C749.709 133.042 747.968 131.902 745.997 131.53L731.883 151.947L726.74 179.187L754.673 184.462C755.865 184.701 757.103 184.501 758.159 183.899C759.215 183.297 760.019 182.334 760.421 181.187L768.047 159.545C768.288 158.855 768.377 158.122 768.307 157.394C768.237 156.667 768.01 155.964 767.641 155.333C767.272 154.702 766.771 154.159 766.171 153.742C765.572 153.324 764.889 153.042 764.169 152.914L750.153 150.267ZM726.74 179.187L719.31 177.784C717.997 177.536 716.836 176.776 716.082 175.672C715.329 174.568 715.045 173.21 715.293 171.896L718.566 154.561C718.814 153.248 719.574 152.087 720.678 151.333C721.782 150.58 723.141 150.296 724.454 150.544L731.883 151.947" fill="white"/>
<path fill-rule="evenodd" clip-rule="evenodd" d="M724.421 178.749L729.564 151.509L731.726 151.917L726.583 179.157L724.421 178.749Z" fill="#4060B4"/>
</svg>
