<svg width="54" height="54" viewBox="0 0 54 54" fill="none" xmlns="http://www.w3.org/2000/svg">
<path d="M26.9 53.8C41.7565 53.8 53.8 41.7565 53.8 26.9C53.8 12.0435 41.7565 0 26.9 0C12.0435 0 0 12.0435 0 26.9C0 41.7565 12.0435 53.8 26.9 53.8Z" fill="url(#paint0_radial_2_14299)"/>
<path d="M20.165 35.0381C20.165 34.998 20.165 34.9178 20.1249 34.7975C20.165 34.8777 20.165 34.9579 20.165 35.0381ZM20.165 35.0781C20.165 35.1182 20.165 35.1583 20.165 35.1984C20.165 34.998 20.165 34.9178 20.1249 34.7975H20.0848C20.0046 34.7574 19.9244 34.7574 19.8442 34.7173C19.8042 34.3966 18.2006 32.2719 17.1583 31.9512C17.1583 31.9512 17.1182 31.9913 17.1182 32.0314C17.5191 32.5525 17.7596 32.9935 18.3609 33.9156C18.7618 34.557 19.2429 35.3187 19.5636 35.6795C19.724 35.8398 20.0447 36.2007 20.165 35.439C20.165 35.3187 20.165 35.0781 20.165 35.0781Z" fill="white"/>
<path d="M31.1895 37.0423L31.1494 37.0022C31.1494 37.0423 31.1895 37.0423 31.1895 37.0423Z" fill="white"/>
<path d="M33.7554 43.0559C33.4747 44.1383 32.2721 45.1004 31.4703 45.7018C31.35 45.6216 31.2297 45.5414 31.1095 45.4612C30.027 46.0626 29.6662 44.9802 29.5059 44.4991C29.4257 44.5793 29.4257 44.5793 29.3455 44.6194C29.3856 44.459 29.4257 44.2986 29.4658 44.0982C29.2253 44.2986 29.0248 44.4991 28.7843 44.6995C28.664 44.3788 28.5036 44.018 28.1428 43.9378C27.9424 43.8977 26.1384 43.9779 25.9379 44.0581C25.7776 44.1383 25.6573 44.3387 25.4569 44.4189C25.1762 44.4991 24.9357 44.4189 24.6551 44.459C24.4145 44.4991 24.2542 44.6995 24.0136 44.7396C23.8132 44.7797 23.5326 44.6995 23.5326 44.6995C23.3722 44.6194 23.3321 44.5392 23.292 44.0581C23.2118 43.136 22.9713 42.8153 22.4902 42.1338L22.5303 42.0937C22.6506 42.1338 22.7308 42.214 22.851 42.2541H22.8911C22.5704 41.5325 22.5303 41.4523 22.811 41.1717C22.9713 41.0113 23.3321 40.9311 23.5326 40.891C24.2943 40.6104 24.4546 40.4901 25.096 39.9289C24.9357 39.7685 24.9758 39.6884 25.2965 39.5681C25.3767 39.7284 25.3767 39.7284 25.4569 39.7685C25.4969 39.4879 25.537 39.4077 26.419 38.6861C26.7397 38.8465 26.8199 38.9668 26.7798 39.2073C26.8199 39.1271 26.9001 39.087 26.9402 39.0068C27.1005 39.087 27.2609 39.1271 27.4212 39.2073C27.301 39.0469 27.1406 38.8465 27.2609 38.6059C27.3411 38.4857 27.3411 38.4857 27.5014 38.2852C27.6618 38.1249 27.8622 38.2451 28.0226 38.0848C28.0226 38.0046 27.9825 37.9645 27.9825 37.8843C28.8244 38.1249 28.8244 38.1249 29.2253 38.0848C28.8645 38.9267 28.8645 38.9267 28.8645 38.9267C28.9045 38.9667 30.027 39.9289 30.3478 39.6483C30.5081 39.528 30.5883 39.0469 30.6685 38.5258C30.7487 38.0046 30.7887 37.9244 30.909 37.6438C30.9491 37.6438 30.9892 37.6438 30.9892 37.6438C31.2297 38.6059 31.2297 38.6059 31.35 38.6861C31.4302 38.646 31.4302 38.646 31.5104 38.6059C31.5104 38.6059 31.5104 38.6059 31.8311 39.5681C31.9914 40.0492 31.9914 40.0492 32.232 40.1694C32.3522 40.2095 32.5527 40.3699 32.6329 40.4901C32.6329 40.5302 32.6729 40.5703 32.6729 40.6104C32.713 40.6906 32.713 40.7708 32.7531 40.851C32.8333 41.0113 33.1139 41.0514 32.9937 41.2518C33.154 41.5726 33.4346 41.8131 33.5549 42.1739C33.7955 42.3743 33.8355 42.7352 33.7554 43.0559Z" fill="white"/>
<path d="M33.3539 37.4033C33.3539 37.4033 33.394 37.4033 33.394 37.3632C33.1535 37.243 33.1535 37.243 32.2715 36.361C32.3918 36.3209 32.472 36.2808 32.5922 36.2407C32.5922 36.2007 32.5922 36.2007 32.5922 36.1606C32.1913 36.0403 31.9508 35.92 31.3895 35.5191C31.0287 35.2786 30.708 35.0381 30.3873 34.998C29.8662 34.9178 29.3851 35.0781 28.7837 35.439C28.3828 34.4768 28.3828 34.4768 28.1423 34.4768C28.022 34.5169 27.9419 34.5169 27.5811 34.6372C27.6612 34.6773 27.7414 34.7173 27.8216 34.7975C27.8617 34.8376 27.8216 34.9579 27.9018 34.998C27.9419 35.0381 27.9819 35.0381 28.1022 35.0381C28.2626 34.998 28.3428 34.998 28.463 35.0781C28.3828 35.1583 28.3828 35.1583 27.9819 35.2385C28.0621 35.3989 28.1423 35.5592 28.2225 35.6795C28.2626 35.5993 28.3027 35.5592 28.3828 35.479C28.5432 35.5191 28.7436 35.5993 28.8639 35.6795C29.1045 35.7597 29.4252 35.7597 29.6657 35.9601C29.7459 36.0403 29.786 36.0804 30.0666 36.8822C30.1468 36.8822 30.1869 36.8421 30.267 36.8421C30.3873 37.0024 30.4675 37.0425 30.5477 37.1227C30.5878 37.1628 30.5878 37.1628 30.6679 37.2029L30.7481 37.243H30.7882H30.8684H30.9085H30.9887H31.0287C31.0688 37.243 31.0688 37.243 31.149 37.2029C31.1891 37.1628 31.2292 37.1628 31.2693 37.1227C31.2292 37.1628 31.1891 37.1628 31.1891 37.2029C31.2292 37.2029 31.2292 37.1628 31.2693 37.1628V37.1227C31.1891 37.0826 31.1089 37.0425 31.0287 36.9623C31.3094 36.9223 31.3094 36.9223 31.3495 36.7619C31.5098 36.6817 31.8706 36.6416 32.5121 37.243C32.6724 37.3632 32.9129 37.6038 33.3539 37.4033Z" fill="white"/>
<path d="M23.893 33.795H23.8529H23.8128H23.7727H23.7327H23.6926H23.6525H23.6124C23.3719 35.0378 23.0912 35.3184 22.8106 35.4387C22.6102 35.3184 22.4097 35.1981 22.2093 35.0779C22.0088 35.2382 22.0088 35.2382 21.9687 35.2382C21.8485 35.2382 21.8084 35.1179 21.7282 35.0779C21.4476 35.1179 21.4075 34.9977 21.3674 34.9175C21.3674 34.8774 21.3674 34.8774 21.3674 34.8373C21.3674 34.7571 21.3674 34.677 21.3674 34.5968C21.3674 34.5166 21.2872 34.4765 21.2471 34.3963C20.9264 33.9954 20.9665 33.8351 21.207 33.3941C21.3674 33.4743 21.4877 33.5144 21.648 33.5946C21.648 33.5946 23.0912 32.1112 23.3318 31.7905C23.5322 31.991 23.7727 32.1914 23.9732 32.3919C23.5322 32.8729 23.5322 32.8729 23.5322 33.0734C23.5322 33.4743 23.7727 33.6747 23.9732 33.8351C23.9331 33.795 23.9331 33.795 23.893 33.795Z" fill="white"/>
<path d="M29.9066 20.3253C29.9066 20.8064 29.7863 21.6483 29.7061 21.8888C29.5057 21.9289 29.3854 22.0892 29.185 22.1293C29.0647 22.1694 28.8242 22.1293 28.7039 22.0892C28.744 22.1293 28.744 22.2095 28.7841 22.2496C28.7039 22.3298 28.6237 22.4501 28.5436 22.5302C28.3431 22.4501 28.3431 22.4501 28.4233 22.1694C28.1427 22.1694 27.9823 22.2095 27.7819 22.2897C27.5413 22.4501 27.5413 22.4501 27.3409 22.4501C27.3409 22.41 27.3008 22.41 27.3008 22.3699C28.0625 21.6483 28.4233 21.8086 28.5035 21.8888C28.5836 21.7685 28.5836 21.7685 28.8643 21.1271V21.1672V21.2073V21.2474V21.2875V21.3275V21.3676V21.4077V21.4478C29.2251 21.2474 29.626 20.6861 29.4656 20.205C29.5458 20.0046 29.5458 20.0046 29.5859 19.8442C29.6661 19.8442 29.7462 19.8442 29.8665 19.8442C29.8665 20.0046 29.9066 20.0447 29.9066 20.3253Z" fill="white"/>
<path d="M25.7365 33.715C25.6163 34.0759 25.496 34.0759 24.3735 33.9155C24.1731 34.156 24.1731 34.156 24.4537 34.5569C24.6541 34.4767 24.8546 34.4367 25.0951 34.3565C25.0951 34.3966 25.1352 34.3966 25.1352 34.4367C25.0149 34.5168 24.8947 34.6371 24.7744 34.7173C24.9348 35.3186 24.9348 35.3186 25.1753 35.479C25.055 35.5191 24.9348 35.5992 24.8145 35.6393C24.7343 35.3988 24.614 35.1984 24.5339 34.9578C24.3334 35.038 24.3334 35.038 24.4136 35.8799C24.2933 35.8799 24.2131 35.8799 24.1731 35.7997C24.133 35.6794 24.0127 34.9979 24.0127 34.9979C24.0127 34.9979 24.2131 34.0759 24.4537 33.7952C24.614 33.5948 24.7744 33.675 24.9348 33.715C25.2555 33.8754 25.4559 33.8754 25.7766 33.5547C25.7365 33.6349 25.7365 33.715 25.7365 33.715Z" fill="white"/>
<path d="M30.4276 16.9176C30.3475 16.8775 30.3074 16.8374 30.2272 16.7572C29.9866 17.118 30.0267 17.3585 30.3875 17.7995C30.3475 17.7995 30.3475 17.7995 30.3074 17.8396C30.2673 17.7995 30.1871 17.7193 30.147 17.6793C30.1069 17.7594 30.0668 17.8797 29.9866 17.9599C29.9866 17.9198 29.6258 15.5144 29.7862 14.9131C29.9866 15.5946 30.2272 16.2761 30.4276 16.9176Z" fill="white"/>
<path d="M28.5838 7.17554C28.5036 7.49626 27.7018 7.53635 27.5414 7.3359C27.4613 7.21563 27.5013 6.9751 27.7419 7.01519C27.8221 7.01519 27.9423 7.09537 27.9824 7.13546C28.0225 7.09537 28.0626 7.01519 28.1027 6.9751V7.01519C28.263 7.01519 28.4234 7.09537 28.5838 7.17554C28.5838 7.13546 28.5838 7.13546 28.5838 7.17554Z" fill="white"/>
<path d="M25.4967 29.5456C25.4566 29.6258 25.3765 29.706 25.3364 29.7461C25.0557 29.6258 24.735 29.5456 24.4544 29.4254C24.4945 29.3452 24.4945 29.3051 24.5346 29.2249C24.2139 29.0245 24.2139 29.0245 24.2139 28.9844C24.2139 28.9443 24.2139 28.9443 24.254 28.824C24.3341 28.5033 24.3742 28.2628 24.4544 27.8218C24.6148 27.8619 24.7751 27.902 24.8954 27.942C24.9756 28.383 24.9355 28.5033 24.7751 28.6236C24.6548 28.7438 24.6148 28.8641 24.735 29.3051C25.0157 29.3853 25.2562 29.4654 25.4967 29.5456C25.4967 29.5055 25.4967 29.5456 25.4967 29.5456Z" fill="white"/>
<path d="M30.7078 19.0826C30.6276 19.1627 30.5073 19.2028 30.4271 19.283C30.347 19.3231 30.3069 19.4033 30.2267 19.4033C30.1866 19.4033 30.1465 19.4033 30.1064 19.4033C30.0663 19.4033 29.9862 19.4033 29.906 19.4033C29.8258 19.4033 29.7456 19.4033 29.6654 19.4033C29.6654 19.4033 29.6654 19.4033 29.5051 19.4434C29.5452 19.5235 29.5853 19.5636 29.6254 19.6438C29.5853 19.6839 29.5452 19.6839 29.465 19.724C29.4249 19.6037 29.3848 19.5235 29.3447 19.4033C29.465 19.283 29.5853 19.1627 29.6654 19.0425C29.7456 18.9222 29.7857 18.842 29.7857 18.8019C29.8659 18.6015 29.7456 18.3609 29.6654 18.2808C29.906 18.401 30.0262 18.6817 30.2668 18.8019C30.347 18.842 30.4271 18.842 30.5875 18.8019C30.6276 18.8821 30.6677 19.0024 30.7078 19.0826C30.7078 19.0425 30.7479 19.0425 30.7078 19.0826Z" fill="white"/>
<path d="M22.6506 36.9224C21.9691 36.762 21.2875 36.6417 20.606 36.4413C20.5659 36.4413 20.5659 36.4413 20.165 36.1607C20.165 36.0003 20.2051 35.9602 20.3254 35.9602C20.4457 35.9602 20.4858 36.0003 20.7263 36.1206C21.1272 36.321 21.4078 36.4413 21.6083 36.2408C21.6483 36.321 21.6483 36.321 21.7686 36.321C22.0092 36.3611 22.0092 36.4012 21.929 36.6016C22.6907 36.6417 22.6907 36.6417 22.6506 36.9224Z" fill="white"/>
<path d="M23.0507 5.61246C23.0106 5.69263 22.9705 5.8129 22.9304 5.89308H22.8904C22.4494 5.85299 22.4494 5.8129 22.4494 5.73272C22.4895 5.65255 22.4494 5.65255 22.3291 5.65255C22.5295 5.49219 22.6899 5.49219 22.73 5.49219C22.8102 5.49219 22.8102 5.53228 22.8102 5.61246C23.0106 5.53228 23.0507 5.53228 23.0507 5.61246C23.0908 5.61246 23.0908 5.61246 23.0507 5.61246Z" fill="white"/>
<path d="M26.0582 31.7105C25.8577 31.7907 25.8577 31.7907 25.8577 31.8308C25.8577 31.8709 25.8577 31.8709 25.8978 32.1515C25.537 31.9912 25.537 31.9912 25.4167 31.5101C25.2564 31.5502 25.0559 31.5903 24.8956 31.6704C24.8154 31.5101 24.8555 31.47 25.0158 31.3898C25.1361 31.3497 25.1762 31.3096 25.1762 31.2295C25.2163 31.2295 25.2163 31.2295 25.2564 31.2295C25.2965 31.2695 25.2965 31.3096 25.3365 31.3497C25.4969 31.2695 25.6573 31.2295 25.8176 31.1493C25.8176 31.0691 25.8176 30.9889 25.7775 30.8687C25.978 30.9087 26.0582 31.1092 26.0982 31.6704C26.0982 31.7105 26.0582 31.7105 26.0582 31.7105Z" fill="white"/>
<path d="M23.5723 6.05309C23.3318 6.21344 22.8908 6.25353 22.7705 6.21344C22.8106 6.17336 22.8507 6.13327 23.011 6.013C23.1714 5.81255 23.2516 5.77246 23.3718 5.77246H23.4119C23.3719 5.81255 23.3718 5.81255 23.3318 5.85264C23.4119 5.93282 23.4921 5.97291 23.5723 6.05309C23.5723 6.013 23.5723 6.05309 23.5723 6.05309Z" fill="white"/>
<path d="M31.9103 46.223C31.8702 46.3833 31.7901 46.5437 31.7099 46.704C31.7099 46.704 31.6698 46.704 31.6698 46.6639C31.3491 46.8644 31.3491 46.9045 31.2689 46.8644C31.1887 46.8243 30.9883 46.4234 30.9883 46.3432C30.9883 46.3031 31.0685 46.3031 31.2288 46.3031C31.5094 46.3031 31.6698 46.3031 31.8702 46.1829L31.9103 46.223Z" fill="white"/>
<path d="M22.9704 5.33185C22.6096 5.61247 22.4493 5.41202 22.4092 5.37193C22.4092 5.37193 22.4092 5.37193 22.4493 5.33185C22.4894 5.29176 22.5294 5.29176 22.5294 5.25167C22.5695 5.21158 22.5695 5.21158 22.6096 5.17149C22.6497 5.1314 22.77 5.09131 22.8502 5.09131C22.9303 5.1314 22.9704 5.17149 22.9704 5.33185C22.9704 5.29176 22.9704 5.33185 22.9704 5.33185Z" fill="white"/>
<path d="M13.5895 31.0691C13.5494 31.3498 13.2688 31.3898 13.1485 31.2295C13.0684 31.1092 13.0684 30.5079 13.0684 30.4678C13.0684 30.3876 13.0684 30.3876 13.2287 30.0669C13.2688 30.0669 13.2688 30.0669 13.3089 30.0669C13.5895 30.989 13.5895 30.989 13.5895 31.0691Z" fill="white"/>
<path d="M26.0573 8.09796C26.0573 8.13805 26.0573 8.29841 25.9371 8.29841C25.8569 8.29841 25.8569 8.29841 25.4961 8.13805C25.5362 8.13805 25.5763 8.09796 25.6164 8.09796C25.6164 8.05787 25.5763 8.01778 25.5763 7.9376C25.5763 7.89751 25.5763 7.89751 25.6164 7.85742C25.7767 7.89751 25.897 7.97769 26.0573 8.01778C26.0573 8.05787 26.0573 8.05787 26.0573 8.09796Z" fill="white"/>
<path d="M27.4205 22.8908C27.4205 23.1314 27.3003 23.412 27.2602 23.5323C27.2201 23.4922 27.0597 23.4521 27.0597 23.3318C27.0196 23.1714 27.1399 23.0111 27.18 22.8908C27.0998 22.9309 27.0196 22.9309 26.9395 22.971C27.0196 22.8106 27.1399 22.6503 27.2602 22.6102C27.3804 22.5701 27.4205 22.7706 27.4205 22.8908Z" fill="white"/>
<path d="M24.7344 25.8573C24.7344 26.0176 24.6141 26.2181 24.4537 26.5789C24.133 26.2983 24.4137 25.8172 24.6542 25.5767C24.6542 25.6167 24.6943 25.6969 24.6943 25.737C24.7344 25.7771 24.7344 25.8172 24.7344 25.8573Z" fill="white"/>
<path d="M21.6478 27.4211C21.5676 27.5814 21.4474 27.7418 21.3672 27.9021C21.0866 27.5012 21.1667 27.3008 21.3672 27.3008C21.4474 27.3008 21.5275 27.3409 21.6478 27.4211Z" fill="white"/>
<path d="M29.4256 7.33624C29.3053 7.37633 28.9044 7.41642 28.7842 7.0957C28.9044 7.17588 28.9846 7.21597 29.1049 7.21597C29.2252 7.17588 29.3053 7.21597 29.4256 7.33624Z" fill="white"/>
<path d="M33.7552 35.559C33.7151 35.7995 33.5147 36.0401 32.7129 36C32.7129 35.9599 32.7129 35.9198 32.7129 35.8797C33.194 35.8396 33.194 35.8396 33.3142 35.7995C33.5548 35.7193 33.6349 35.5189 33.7151 35.4387C33.7552 35.4387 33.7552 35.4788 33.7552 35.559Z" fill="white"/>
<path d="M26.1777 37.0023C25.7367 37.3631 25.6566 37.4433 25.5764 37.4834C25.4561 37.5235 25.416 37.4834 25.416 37.3631C25.416 37.3631 25.4561 36.9622 25.9372 36.9221C26.0574 36.9622 26.0975 36.9622 26.1777 37.0023Z" fill="white"/>
<path d="M26.8198 33.8753C26.7396 34.0757 26.6995 34.2361 26.6193 34.4365H26.5793C26.5392 34.1158 26.4991 33.7951 26.459 33.4744C26.4991 33.4744 26.4991 33.4744 26.5392 33.4744C26.6594 33.5946 26.7396 33.7149 26.8198 33.8753C26.8198 33.8352 26.8198 33.8753 26.8198 33.8753Z" fill="white"/>
<path d="M28.5035 7.89717C28.3832 7.93726 28.3832 7.93726 28.3832 7.93726C28.3431 7.93726 28.3431 7.93726 28.0625 7.89717C28.1026 7.77691 28.1427 7.77691 28.2229 7.73682C28.303 7.73682 28.3431 7.73682 28.4634 7.77691C28.5035 7.85708 28.5436 7.85709 28.5035 7.89717C28.5436 7.89717 28.5035 7.89717 28.5035 7.89717Z" fill="white"/>
<path d="M28.1423 22.5299C28.0621 22.6502 28.022 22.6502 27.9819 22.6502C27.9418 22.6502 27.9017 22.6502 27.7815 22.9308C27.7414 22.8907 27.6211 22.8506 27.6211 22.7704C27.6211 22.7303 27.6211 22.7303 27.6211 22.6902C27.6612 22.6101 27.7013 22.57 27.7013 22.4898C27.7815 22.4898 27.8616 22.4497 27.9819 22.4497C28.022 22.4497 28.022 22.4497 28.1423 22.5299Z" fill="white"/>
<path d="M26.3783 8.17794C26.2982 8.21803 26.1779 8.25811 26.0977 8.33829L26.0576 8.2982C26.0977 8.21803 26.0977 8.13785 26.1378 8.05767C26.1378 8.01758 26.1779 8.01758 26.1779 8.01758H26.218C26.2982 8.09776 26.3382 8.13785 26.3783 8.17794C26.4184 8.17794 26.3783 8.17794 26.3783 8.17794Z" fill="white"/>
<path d="M25.737 30.7084C25.6569 30.6282 25.6168 30.548 25.5366 30.5079C25.4965 30.5079 25.4564 30.548 25.4564 30.548C25.4965 30.6683 25.4965 30.8286 25.5366 30.9489C25.2961 30.7084 25.3361 30.4277 25.4965 30.4277C25.6168 30.4277 25.737 30.5881 25.7771 30.6683L25.737 30.7084Z" fill="white"/>
<path d="M27.3807 35.3186C26.8596 35.2785 26.8596 35.2785 26.8596 35.2785C26.7794 35.2384 26.7393 35.1983 26.6992 35.1182C26.9398 35.2384 27.3006 34.9979 27.4609 35.3186C27.4208 35.3186 27.3807 35.3186 27.3807 35.3186Z" fill="white"/>
<path d="M24.8951 37.0425C24.3739 36.9223 24.414 36.9223 24.5343 36.9223C24.6545 36.8822 24.7347 36.9223 24.8951 37.0425Z" fill="white"/>
<path d="M22.4095 5.53228C22.4095 5.53228 22.4095 5.57237 22.3694 5.57237C22.1689 5.53228 22.1689 5.53228 22.1689 5.49219C22.4095 5.53228 22.4095 5.53228 22.4095 5.53228Z" fill="white"/>
<path d="M25.1361 30.3474C25.056 30.4275 24.9758 30.5077 24.8956 30.5879C24.8555 30.5879 24.8555 30.5879 24.8154 30.5879C24.8555 30.4676 24.8555 30.3474 24.8956 30.187C24.9758 30.2271 25.0961 30.2672 25.1361 30.3474C25.1762 30.3474 25.1361 30.3474 25.1361 30.3474Z" fill="white"/>
<path d="M25.8569 30.3878C25.7366 30.2274 25.6164 30.1071 25.4961 29.9468C25.6164 29.9468 25.6965 29.9869 25.8168 29.9869C25.8569 30.1873 25.8569 30.1873 25.897 30.3477C25.897 30.3878 25.8569 30.3878 25.8569 30.3878Z" fill="white"/>
<path d="M20.3655 34.9979C20.2854 34.9177 20.2052 34.8777 20.125 34.7975C20.125 34.7173 20.125 34.6371 20.125 34.5168H20.1651C20.2453 34.6371 20.3254 34.7975 20.4056 34.9177C20.3655 34.9578 20.3655 34.9578 20.3655 34.9979Z" fill="white"/>
<path d="M24.4536 37.4833C24.3334 37.4031 24.2131 37.363 24.0527 37.2828C24.1329 37.2427 24.2131 37.2026 24.2532 37.2026C24.3734 37.2026 24.4135 37.2828 24.4536 37.4833Z" fill="white"/>
<path d="M6.61469 37.0025C6.5746 36.9624 6.49442 36.9224 6.45433 36.8823C6.45433 36.8823 6.61469 39.448 6.5746 39.6083C6.5746 39.6484 6.53451 39.889 6.29398 39.6885C6.05344 39.4881 5.77281 39.007 5.69263 38.7264C5.61246 38.4457 5.73272 38.1651 5.69263 37.8444C5.65255 37.644 5.49219 37.5237 5.49219 37.3232C5.49219 37.2832 5.49219 37.2431 5.49219 37.2431C5.49219 37.1228 5.53228 36.9224 5.53228 36.8021V36.8422C5.53228 36.8422 6.05344 36.8422 6.2138 35.9602C6.25389 35.9602 6.25389 35.9602 6.29398 35.9602C6.41424 36.3611 6.49442 36.6016 6.61469 37.0025Z" fill="white"/>
<path d="M16.5967 4.169L16.6368 4.12891V4.169C16.6368 4.169 16.6368 4.169 16.5967 4.169Z" fill="white"/>
<path d="M18.5612 4.56992C18.2806 4.6501 18.1603 4.6501 18.1202 4.6501H18.0801L18.04 4.61001C18.04 4.61001 18.0801 4.61001 18.0801 4.56992C18.5211 4.48975 18.5211 4.48975 18.5211 4.48975C18.5612 4.48975 18.5612 4.52984 18.6013 4.52984C18.6414 4.56993 18.6013 4.56992 18.5612 4.56992Z" fill="white"/>
<path d="M14.6722 8.25835C14.5119 8.33853 14.3916 8.41871 14.3916 8.29844C14.3916 8.21826 14.552 8.09799 14.6321 8.13808C14.7123 8.09799 14.7123 8.13808 14.6722 8.25835C14.7123 8.21826 14.6722 8.25835 14.6722 8.25835Z" fill="white"/>
<path d="M19.1224 4.6501C19.1224 4.6501 19.0823 4.6501 18.9621 4.61001C18.922 4.61001 18.8819 4.56992 18.8418 4.56992L18.8819 4.52984C19.0022 4.48975 19.0422 4.48975 19.0823 4.48975C19.1224 4.56992 19.1224 4.61001 19.1224 4.6501Z" fill="white"/>
<path d="M18.4005 4.4898C18.3203 4.4898 18.2401 4.52989 18.1599 4.52989C18.1199 4.52989 18.1199 4.4898 18.1599 4.44971C18.2802 4.44971 18.3604 4.44971 18.4807 4.44971C18.4406 4.44971 18.4005 4.44971 18.4005 4.4898Z" fill="white"/>
<path d="M19.0422 4.85069C19.0422 4.85069 19.0021 4.85069 18.962 4.85069C18.9219 4.85069 18.9219 4.85069 18.8818 4.85069V4.8106C18.8818 4.77051 18.9219 4.77051 18.962 4.77051C19.0021 4.77051 19.0422 4.8106 19.0422 4.8106C19.0823 4.85069 19.0823 4.85069 19.0422 4.85069Z" fill="white"/>
<path d="M18.842 6.25357C18.6816 6.33375 18.6816 6.33375 18.401 6.37384L18.3609 6.41393H18.3208C18.2807 6.41393 17.8397 6.49411 17.7596 6.53419C17.6393 6.57428 17.5591 6.65446 17.4388 6.69455C17.1983 6.65446 16.2362 7.33598 16.2362 7.33598C16.1159 7.45625 16.0758 7.53643 15.9956 7.97741C15.6749 7.85715 15.6749 7.85715 15.6348 7.81706C15.6749 7.77697 15.6749 7.77697 15.7952 7.6567C15.715 7.61661 15.6749 7.57652 15.5947 7.49634C15.7952 7.17563 16.4767 6.93509 16.4767 6.93509C16.4767 6.895 16.4767 6.85491 16.4767 6.85491C16.5168 6.85491 16.5168 6.81482 16.5569 6.81482C16.7172 6.69455 16.9177 6.65446 17.078 6.57428C17.1181 6.57428 17.078 6.5342 17.1181 6.49411C17.1181 6.49411 17.3587 6.41393 17.4388 6.37384C17.5591 6.33375 18.0001 6.21348 18.0402 6.21348C18.0803 6.21348 18.1204 6.21348 18.1604 6.21348C18.2005 6.21348 18.2406 6.21348 18.4812 6.21348L18.5213 6.17339H18.5613C18.7618 6.1333 18.7618 6.1333 18.842 6.1333C18.8821 6.1333 18.9221 6.17339 18.9622 6.25357C18.8821 6.21348 18.842 6.21348 18.842 6.25357Z" fill="white"/>
<path d="M36.2405 9.46096C35.9599 9.22042 35.8797 9.14024 35.4387 9.26051C35.4788 9.34069 35.5189 9.42087 35.599 9.50105C34.0356 8.73935 34.0356 8.73935 32.7527 8.61908C32.7126 8.65917 32.6725 8.69926 32.6324 8.73935C32.7126 8.81953 32.7928 8.9398 32.7928 9.01998C31.7505 9.01998 31.7505 9.01998 31.6703 9.50105C30.7883 9.26051 30.0266 7.65693 29.0645 8.5389C29.0645 8.49881 29.1046 8.41863 29.1046 8.33845C28.9041 8.25828 28.9041 8.25828 28.2226 8.13801C28.1023 8.33845 28.1023 8.33846 28.1424 8.65917C27.3406 8.73935 27.1001 8.61908 27.06 8.61908C26.9798 8.69926 26.8596 8.81953 26.8195 8.89971C26.619 8.85962 26.619 8.85962 26.2181 8.37854L26.178 8.41863C26.178 8.45872 26.178 8.5389 26.178 8.61908C26.178 8.61908 24.7749 7.61685 24.0934 8.01774C24.0934 7.97765 24.0934 7.89747 24.0934 7.81729C23.933 7.7772 23.933 7.7772 22.9709 8.05783C24.2537 7.05559 24.2537 7.05559 24.2938 6.93533C24.0533 6.69479 24.0533 6.69479 23.6123 6.73488C23.492 6.57452 23.3718 6.53443 23.2515 6.53443V6.49434C23.2916 6.49434 23.3718 6.45425 23.452 6.45425C23.3718 6.41416 23.2515 6.33398 23.1312 6.33398C22.8506 6.41416 22.8506 6.41416 22.7704 6.73488C22.6903 6.69479 22.57 6.6547 22.4497 6.6547C22.4497 6.69479 22.4497 6.77497 22.4497 6.85515C20.5254 6.73488 20.5254 7.17586 20.5254 7.45649C20.4853 7.49658 20.4452 7.53667 20.3651 7.57676C20.325 7.53667 20.325 7.45649 20.2849 7.4164C20.0043 7.37631 19.9241 7.37631 19.5232 7.45649C19.4029 7.7772 19.4029 7.81729 19.5232 8.09792C19.443 8.25828 19.3628 8.45872 19.2826 8.57899C19.3227 8.37854 19.2826 8.1781 19.2826 8.01774C19.002 7.73711 18.8818 7.81729 18.561 7.97765C18.6011 8.05783 18.6813 8.1781 18.7214 8.29837C18.6011 8.25828 18.4809 8.13801 18.4408 8.01774C18.521 7.89747 18.6412 7.7772 18.7214 7.65694C18.7214 7.61685 18.6813 7.57676 18.6813 7.57676C18.4408 8.01774 17.9998 8.29837 17.7993 8.73935C18.08 8.89971 18.08 8.89971 18.1601 9.22042C18.1201 9.26051 18.0399 9.3006 17.9998 9.34069C17.9998 9.38078 17.9998 9.46096 18.0399 9.50105C17.9998 9.46096 17.9597 9.42087 17.9196 9.38078C17.9597 9.34069 17.9998 9.26051 18.0399 9.22042C18.0399 9.18033 17.9998 9.10015 17.9597 9.01998C17.9196 9.01998 17.8394 8.97989 17.7593 8.97989C16.9174 9.74158 16.9174 9.74158 16.8372 9.78167C16.757 9.7015 16.6367 9.62132 16.5165 9.58123C16.5165 9.54114 16.5566 9.54114 16.5566 9.50105C16.8773 9.58123 16.8773 9.58123 17.4786 9.06007C17.3584 8.37854 18.1201 8.09792 18.2403 7.53667C17.2782 7.29613 17.2782 8.49881 16.757 8.97989C16.6768 8.89971 16.5967 8.77944 16.5165 8.65917C16.5165 8.57899 16.5566 8.5389 16.5566 8.5389H16.5165L16.4764 8.57899C16.4363 8.49881 16.316 8.37854 16.2359 8.33845C16.0354 8.41863 15.875 8.65917 15.6345 8.81953C15.6345 8.77944 15.6746 8.69926 15.6746 8.65917C15.4341 8.57899 15.4341 8.57899 14.9931 8.69926C14.9931 8.65917 15.0332 8.57899 15.0332 8.5389C14.7926 8.49881 14.7926 8.49881 13.6701 8.89971C13.6701 8.81953 13.63 8.73935 13.63 8.69926C14.0309 8.41863 14.0309 8.41863 14.071 8.37854C14.0309 8.33846 13.9508 8.25828 13.8706 8.21819C13.3895 8.85962 13.3895 8.85962 13.2291 9.01998C13.149 8.9398 13.0287 8.89971 12.9084 8.89971L12.7882 8.9398L12.6679 8.97989C12.6278 8.97989 12.6278 8.97989 12.267 9.38078C12.2269 9.34069 12.1868 9.26051 12.1467 9.18033C12.1066 9.18033 12.0265 9.14024 11.9463 9.14024C11.9062 9.26051 11.826 9.38078 11.7458 9.46096C11.5855 8.97989 12.0666 8.73935 12.1467 8.33845C12.9084 8.73935 12.9084 8.73935 12.9886 8.69926C13.3093 8.49881 13.1891 7.7772 13.1891 7.73711C13.149 7.65693 13.1089 7.49658 13.149 7.4164C13.0688 7.37631 12.9485 7.29613 12.9084 7.25604C12.9485 7.25604 13.0287 7.21595 13.1089 7.21595C13.149 7.17586 13.149 7.09568 13.1891 7.05559C13.1089 7.05559 12.9886 7.05559 12.9084 7.05559C12.9886 6.97542 13.1089 6.89524 13.1891 6.81506C13.0688 6.85515 12.9485 6.89524 12.8683 6.93533C12.8683 6.89524 12.9485 6.81506 13.0287 6.77497C11.7057 7.81729 10.5832 8.9398 9.54092 10.1425C9.6211 10.1425 9.70128 10.1425 9.78146 10.1425C9.78146 10.1826 9.82155 10.2627 9.86163 10.3429C9.70128 10.5033 9.70128 10.5033 9.34047 10.4231C7.69681 12.2672 6.33377 14.3519 5.17117 16.5969C5.17117 16.7572 5.13108 16.9577 5.09099 17.0779H5.13108C5.09099 17.1581 5.01081 17.2784 4.97072 17.3987C4.89055 17.4788 4.85046 17.4788 4.85046 17.4388C4.77028 18.1604 4.77028 18.1604 5.0509 18.4009C5.09099 18.3608 5.13108 18.3207 5.17117 18.2806C5.25135 18.3608 5.33153 18.4811 5.37162 18.6013C5.53198 18.6414 5.73242 18.5613 5.89278 18.6013C5.89278 18.6414 4.85046 21.3274 3.80813 19.7239C2.52527 23.0112 1.84375 26.5391 1.84375 30.1471C1.84375 34.116 2.64554 37.7641 4.12885 40.9312H4.16894C4.60992 40.2897 4.36938 39.4478 4.16894 38.9668C4.65001 38.5258 4.2892 34.3164 4.2892 34.2763C3.84822 31.7908 5.85269 30.1471 6.53421 28.0224C5.09099 27.9021 5.09099 27.9021 5.0509 27.7417C4.56983 26.0981 4.08876 24.3742 4.48965 20.8864H4.52974C4.52974 21.0067 4.56983 21.2072 4.56983 21.3274C4.60992 21.2873 4.6901 21.2873 4.73019 21.2472C5.01081 27.9422 5.0509 28.9444 8.05761 26.0179C8.17788 25.8976 8.8594 24.9756 8.8594 24.9756C8.37833 23.7729 8.37833 23.7729 8.41842 23.4121C8.17788 23.6125 8.0977 23.7328 7.81707 24.0134C7.45627 23.9332 7.45627 23.9332 7.29591 23.813C7.336 23.6526 7.37609 23.4121 7.41618 23.2517C7.336 23.3319 7.25582 23.4923 7.17564 23.5724C7.17564 23.5724 6.9752 21.8887 7.29591 21.6882C7.77698 22.0891 7.65672 23.372 8.49859 23.1315C9.05985 24.0535 9.05985 24.0535 9.9819 24.1738C10.1022 24.1738 10.1022 24.1337 10.1022 24.1337C10.1423 24.1337 10.2224 24.1337 10.3026 24.1337C10.4229 24.294 10.4229 24.294 10.5432 24.6949C10.5832 24.6949 10.6634 24.735 10.7436 24.735C10.7436 24.8553 10.7837 25.0157 10.8238 25.1359C10.904 25.176 11.0242 25.2161 11.1044 25.2161C10.9841 25.2562 10.904 25.3765 10.8238 25.4967C10.8639 25.617 10.9841 25.7774 11.0643 25.8575C11.1445 25.8575 11.2247 25.8575 11.2648 25.8575C11.3449 25.7774 11.4652 25.617 11.5454 25.5368C11.5855 29.0246 11.9864 30.1471 12.3071 30.5079C12.4274 30.4678 12.5877 30.3475 12.6679 30.2674C12.8283 27.7818 14.9129 26.0179 16.1156 26.2985C16.2359 26.1382 16.2359 26.1382 16.1958 25.6972C16.2359 25.6972 16.316 25.7373 16.3561 25.7774L16.9575 28.7039C16.9575 28.6638 16.9976 28.5836 16.9976 28.5034C17.0376 28.5034 17.1178 28.5435 17.1579 28.5435C17.2782 28.4233 17.2782 28.4233 17.5989 28.1025C17.9196 29.3453 17.7993 30.7084 18.2002 31.9511C18.6011 33.1939 18.8016 33.2741 19.3628 33.5948C19.1624 32.2317 16.757 30.3876 18.521 29.5057C18.8818 30.0268 19.6835 30.2273 19.6835 31.0291C20.766 30.3475 21.4475 29.9066 20.6056 28.744C19.8439 27.7016 19.9241 27.5814 20.8461 26.7796C21.0867 26.9399 21.0867 26.9399 21.2069 27.2607C21.3272 27.0602 21.3272 27.0602 22.0488 26.7796C22.0889 26.6593 22.129 26.5391 22.1691 26.4188C22.6903 27.0201 24.0132 25.8174 24.5745 24.2139C24.5344 24.1738 24.4542 24.0936 24.4141 24.0134C24.4141 23.9733 24.4141 23.8932 24.4141 23.8531C24.4542 23.813 24.4943 23.7729 24.5745 23.7729C24.4943 23.6526 24.374 23.5323 24.2537 23.4522C24.2938 23.4522 24.374 23.4121 24.4141 23.4121C24.1335 21.8887 24.1335 21.8887 24.8952 21.4477C24.4141 21.2873 24.374 21.2873 24.1335 21.4477C23.8128 21.127 23.8128 21.127 23.6524 21.0869C23.6524 21.0869 24.2537 20.2851 24.6546 20.1648C24.6947 20.2049 24.7749 20.245 24.815 20.2851C24.7749 20.4855 24.7749 20.4855 24.6145 20.8464C25.3362 20.5256 25.3362 20.5256 25.4965 20.5256C25.6569 20.686 25.6569 20.686 25.6569 21.2472C25.7771 21.2472 25.9375 21.3274 26.0578 21.3675C25.9776 22.2896 25.9776 22.2896 26.0578 22.4499C26.8996 22.1693 26.8996 22.1693 26.2983 20.686C26.5388 20.1648 26.9798 19.7639 27.3406 19.2829C28.423 19.7239 29.746 16.6771 29.2649 15.5946C29.2248 15.4744 29.0645 15.314 28.9843 15.2338C28.864 15.2739 28.7037 15.314 28.6235 15.3942C28.5834 15.3541 28.5834 15.2739 28.5433 15.2338C28.5032 15.2739 28.423 15.2739 28.3829 15.314C28.3028 15.1937 28.1825 15.0735 28.0622 15.0334C29.6658 12.8686 29.746 12.7483 31.1892 13.1091C31.1892 13.1492 31.2293 13.2294 31.2293 13.2695C31.3095 13.2695 31.4297 13.2695 31.5099 13.2294C31.6302 13.1893 31.7905 13.1492 31.9108 13.1091C31.8707 13.1091 31.7905 13.069 31.7505 13.0289C31.8306 12.0267 32.2716 12.1469 32.5522 12.187C32.5923 12.3073 32.6324 12.4276 32.6725 12.5478C32.7126 12.5478 32.7126 12.5078 32.7527 12.5078V12.4677C32.873 12.1069 32.873 12.0668 32.7527 11.5456C32.7928 11.5456 32.873 11.5055 32.9531 11.4654C32.9932 11.5055 33.0333 11.5456 33.0734 11.5857C33.0333 11.5857 32.9531 11.5857 32.9131 11.5857C33.0734 12.3474 33.0734 12.3474 33.1536 12.5078C33.2338 12.4677 33.354 12.3875 33.4342 12.3073C33.5545 12.3073 33.5545 12.3474 33.5946 12.4276C33.6748 12.3474 33.795 12.2271 33.8752 12.1469C33.9955 12.1469 34.1157 12.187 34.236 12.2672C34.5567 11.9465 34.7572 11.5055 35.0378 11.1046C35.1581 11.1046 35.3184 11.1447 35.4387 11.1848C35.3986 10.9042 35.1581 10.5033 34.5567 10.4231C34.5567 10.383 34.5968 10.3028 34.5968 10.2627C34.7171 10.2627 34.8774 10.2627 34.9977 10.2627C35.0378 10.2227 35.0779 10.1425 35.118 10.0623C35.0779 9.98212 35.0378 9.82176 34.9977 9.74158C35.1581 9.86185 35.1581 9.86185 36.2405 10.1826C36.2004 9.50105 36.2004 9.50105 36.2405 9.46096Z" fill="white"/>
<path d="M33.6344 13.9507C33.6344 14.111 33.5141 14.2313 33.5542 14.3516C33.5542 14.4718 33.6745 14.5921 33.7546 14.6723C33.7146 14.7124 33.7146 14.7124 33.5141 14.7926C33.4339 14.8727 33.4339 14.9128 33.474 15.0732C33.474 15.1133 33.474 15.1534 33.474 15.1534C33.4339 15.1935 33.3938 15.1935 33.3537 15.2736C33.2736 15.3939 33.3537 15.5543 33.3137 15.7146C33.3137 15.7547 33.3137 15.7547 33.1132 16.0353C33.0731 16.0353 33.0731 15.9952 33.033 15.9952C32.4317 14.2714 32.4317 14.2714 32.3916 14.1912C32.3916 14.111 32.3916 14.111 32.3916 14.0709C32.4317 13.9908 32.4718 13.9106 32.4718 13.63C32.6321 13.4696 32.7925 13.3092 32.9128 13.0286V12.9885L32.9529 12.9484C32.9929 12.9084 33.0731 12.8282 33.1132 12.7881C33.1934 12.8683 33.2335 12.9885 33.2736 13.0286C33.2736 13.0687 33.3137 13.0687 33.3137 13.1088C33.3537 13.2692 33.2736 13.4295 33.3137 13.5899C33.3938 13.6701 33.6344 13.7101 33.6344 13.9507Z" fill="white"/>
<path d="M39.0062 44.3389C39.0062 44.3789 38.9661 44.3789 38.9661 44.419C38.8859 44.4992 38.7256 44.5393 38.6454 44.6596C38.6053 44.6997 38.5652 44.7798 38.5251 44.8199C38.2445 45.1807 38.2044 45.2208 38.1643 45.2208C38.1643 45.2208 38.1643 45.2208 38.1242 45.2208C38.0841 45.1006 38.1242 44.9803 38.0841 44.86C38.0841 44.8199 38.004 44.7798 37.9639 44.7397C38.2445 44.3789 38.3247 44.3389 38.3247 44.2587C38.3247 44.2186 38.3247 44.1785 38.2846 44.1384C38.2044 43.938 38.1242 43.7776 38.0841 43.3767C38.3247 43.497 38.4049 43.5772 38.3648 43.8578C38.3648 43.9781 38.3648 44.0181 38.5652 43.938C38.6053 44.2587 38.6855 44.3389 39.0864 44.0983C39.0463 44.1785 39.0463 44.2587 39.0062 44.3389Z" fill="white"/>
<path d="M34.0754 7.81721C33.9151 7.89738 33.7948 7.93747 33.6745 8.01765C33.5943 7.85729 33.6344 7.73703 33.7547 7.73703C33.8349 7.65685 33.9552 7.69694 34.0754 7.81721Z" fill="white"/>
<path d="M37.1227 40.0893C36.9624 39.9289 36.7619 39.8087 36.6016 39.6483C36.6417 39.6082 36.6817 39.5681 36.7218 39.5681C36.8822 39.7285 37.0826 39.8888 37.243 40.0091C37.2029 40.0492 37.1628 40.0492 37.1227 40.0893Z" fill="white"/>
<path d="M38.7664 4.53014C38.8065 4.57023 38.8065 4.57023 38.9268 4.65041C38.8867 4.65041 38.8867 4.6905 38.8466 4.73058C38.8065 4.73058 38.7664 4.73058 38.7664 4.73058C38.7664 4.73058 38.7664 4.73058 38.7263 4.6905C38.6863 4.65041 38.6462 4.61032 38.566 4.57023C38.566 4.57023 38.566 4.57023 38.566 4.61032C38.6061 4.65041 38.566 4.65041 38.5259 4.65041C38.4858 4.65041 38.4858 4.61032 38.4457 4.61032C38.4457 4.61032 38.4457 4.57023 38.4056 4.57023C38.4056 4.57023 38.4056 4.57023 38.4457 4.57023H38.4858C38.4056 4.53014 38.2854 4.49005 38.2052 4.40987C38.2854 4.40987 38.3655 4.44996 38.4457 4.44996L38.4056 4.40987C38.1651 4.32969 38.1651 4.32969 38.125 4.32969C38.1651 4.32969 38.1651 4.32969 38.2052 4.2896V4.24951C38.2854 4.2896 38.7664 4.53014 38.7664 4.53014Z" fill="white"/>
<path d="M37.6435 4.00894C37.5634 4.00894 37.4431 4.00894 37.403 4.00894H37.3629C37.3629 4.00894 37.3629 4.00894 37.3629 4.04903C37.3228 4.08912 37.3228 4.08912 37.2426 4.04903V4.00894C37.2426 4.00894 37.2026 4.00894 37.2026 3.96885C37.1224 3.96885 37.0021 3.96885 36.9219 3.92876C36.9219 3.92876 36.8818 3.88867 36.8818 3.84859C36.8818 3.84859 36.8818 3.84859 37.0422 3.84859C37.0422 3.84859 37.0422 3.84859 37.0823 3.84859C37.1224 3.8085 37.2026 3.8085 37.6435 4.00894Z" fill="white"/>
<path d="M40.0085 5.25148C40.3693 5.49202 40.3292 5.49202 40.2892 5.49202C40.3693 5.5722 40.4094 5.5722 40.4094 5.61228C40.4094 5.61228 40.3693 5.61228 40.3292 5.5722C40.0486 5.45193 39.8081 5.41184 39.8081 5.41184C39.8081 5.41184 39.768 5.41184 39.768 5.37175C39.7279 5.37175 39.7279 5.33166 39.6878 5.33166C39.7279 5.29157 39.7279 5.29157 39.8081 5.29157C39.6878 5.21139 39.5675 5.1713 39.4473 5.09112C39.3671 5.01094 39.3671 4.97085 39.4072 4.93076C39.4072 4.89068 39.4072 4.89068 39.4072 4.85059L39.4473 4.89068C39.5275 4.97085 39.5675 5.01094 39.6477 5.09112C39.6477 5.09112 39.6878 5.09112 39.768 5.13121C39.8482 5.13121 39.8883 5.1713 40.0085 5.25148Z" fill="white"/>
<path d="M40.8108 6.05344C40.8508 6.05344 40.8508 6.09353 40.8909 6.13362C40.8909 6.13362 40.8909 6.13362 40.8508 6.13362C40.931 6.2138 41.0513 6.29398 41.1315 6.37415C41.1315 6.41424 41.1315 6.41424 41.2117 6.49442C41.1716 6.49442 41.1315 6.53451 40.8108 6.45433C41.1716 6.81514 40.9711 6.9755 40.7707 6.9755C40.5702 6.9755 40.2896 6.85523 40.1292 6.77505C40.1292 6.65478 40.2094 6.5746 40.2896 6.49442L40.2495 6.45433C40.0892 6.49442 40.009 6.53451 39.8486 6.61469C39.7684 6.53451 39.7684 6.53451 39.7283 6.37415C39.6482 6.37415 39.568 6.37415 39.4878 6.37415C39.1671 5.97326 39.0869 5.8129 39.0869 5.77281C39.127 5.77281 39.2473 5.8129 39.3675 5.93317C39.3274 5.85299 39.2473 5.77281 39.3675 5.77281C39.4878 5.77281 39.5279 5.89308 39.6482 5.93317C39.6081 5.77281 39.6081 5.77281 39.4076 5.69263C39.4076 5.61246 39.6482 5.73272 39.6482 5.73272C39.9689 5.89308 39.9689 5.89308 40.0491 5.93317C39.8887 5.8129 39.8887 5.8129 39.7684 5.77281C39.6482 5.73272 39.4477 5.53228 39.4076 5.49219C39.4477 5.49219 40.1693 5.77281 40.2896 5.93317C40.3297 5.97326 40.6103 6.01335 40.6103 6.01335C40.6504 6.01335 40.6504 6.01335 40.6504 6.01335L40.6905 6.05344C40.8108 6.05344 40.8108 6.05344 40.8108 6.05344Z" fill="white"/>
<path d="M46.3831 9.01992C46.8641 9.58117 47.2249 10.2226 47.706 10.7438C47.4655 10.423 47.2249 10.1424 47.0245 9.78162C47.265 10.0222 47.4254 10.2627 47.6258 10.5032L47.9065 10.864C48.0267 11.0244 48.1069 11.1447 48.2272 11.305C48.0668 11.1046 47.9465 10.9041 47.7862 10.7037C48.7483 12.1068 48.7483 12.1068 49.51 13.5099C49.3497 13.2694 49.3096 13.1892 49.1492 12.9487C49.8307 14.1514 50.6726 15.6347 51.3542 17.5991C50.8731 16.5968 50.8731 16.5968 50.833 16.4766C50.7929 16.4766 50.7528 16.4766 50.7127 16.4766C50.5924 16.677 50.6325 16.7572 50.7929 16.9576C50.7929 16.9977 50.7929 17.0378 50.7929 17.0378C50.1916 17.1982 51.6749 20.285 51.7951 20.4855C51.8352 20.4855 51.8753 20.4454 51.8753 20.4454C51.9956 20.0044 51.6749 19.6436 51.715 19.2026C51.7951 19.3229 51.8352 19.4031 52.196 20.9666C52.196 20.9265 52.2361 20.8463 52.2361 20.7661C52.5568 21.2873 52.5167 21.8886 52.6771 22.4098C52.6771 22.3296 52.6771 22.3296 52.637 22.1292V22.1693L52.6771 22.4499C52.6771 22.4098 52.6771 22.3296 52.637 22.2895C52.6771 22.49 52.7172 22.6904 52.7172 22.8909C52.7172 22.8508 52.0357 21.2873 52.0357 21.2472C51.9555 21.3274 51.9555 21.4076 51.9154 21.4877C51.7951 21.4877 51.7951 21.4877 51.4744 21.2472C51.4744 21.2071 51.4744 21.2071 51.4343 21.167C51.1938 20.9265 51.1938 20.8864 51.0735 20.6058C50.8731 19.8842 49.4699 17.9599 49.1492 17.9198C49.5902 18.7216 50.1114 19.4432 50.5524 20.2049C50.4722 20.1648 50.392 20.1247 50.3118 20.0445C49.9911 19.6035 49.7907 19.1225 49.4299 18.6815C48.5479 17.5991 47.5056 16.677 46.784 15.4743C45.9822 14.1113 45.902 13.991 45.5011 13.5099C45.5412 13.4698 45.6214 13.4298 45.6615 13.4298C45.7416 13.5099 45.7817 13.6302 45.8619 13.7104C45.6214 13.1892 45.461 13.109 44.4989 12.7081C44.4989 12.6681 44.4989 12.5879 44.4588 12.5478C44.2984 12.5478 44.1781 12.3874 44.0579 12.3473C44.0579 12.3073 44.0178 12.3073 44.0178 12.2672C44.0178 12.2271 44.0178 12.1469 43.9777 12.1068C43.9777 12.1469 43.9376 12.1469 43.9376 12.187C43.8574 12.1068 43.8574 12.1068 43.6971 11.9464C43.6971 11.9865 43.6971 12.0266 43.6971 12.0266C43.5367 11.8262 43.4565 11.5856 43.2561 11.3852C43.3764 11.5856 43.3764 11.5856 43.4164 11.7059C42.775 11.5456 42.4543 10.9843 41.9732 10.6636C42.0133 10.7037 42.0534 10.7839 42.0935 10.8239C42.0534 10.8239 42.0133 10.8239 41.9732 10.8239C41.9732 10.864 41.9732 10.9041 41.9732 10.9041C41.6525 10.864 41.5322 10.7438 41.3318 10.6235C40.8908 10.7839 40.53 10.5433 40.089 10.5433C40.0489 10.7839 40.2093 11.0244 40.1291 11.2649C39.8084 10.9843 39.8485 10.9041 39.8886 10.6636C39.8886 10.6235 39.8485 10.6235 39.8485 10.5834C39.8084 10.5834 39.7683 10.5834 39.7282 10.5834C39.648 10.864 39.7683 11.1447 39.7282 11.4654C39.8084 11.5055 39.8886 11.5055 39.9287 11.5456C39.8084 12.5879 39.7683 12.628 39.5679 12.9086L39.6079 12.9487C39.4877 12.9487 39.4877 12.9487 39.3273 13.2293C39.2471 12.9487 39.2872 12.9086 39.4075 12.7883C39.4476 12.7883 39.4476 12.7883 39.4476 12.7883C39.6881 12.1068 39.5679 11.9064 39.3674 11.6658C39.3674 11.7059 39.3273 11.7059 39.3273 11.746C39.2872 11.7059 39.2071 11.6658 39.167 11.6257C39.167 11.6658 39.167 11.7059 39.167 11.746C39.0467 11.7861 38.9264 11.8262 38.8062 11.8663C38.4854 11.4654 38.4854 11.4654 38.3652 11.2649C38.3652 11.4253 38.3652 11.4253 38.3652 11.5456C38.2449 11.5856 38.2048 11.5856 37.8841 11.3852C37.9643 11.3852 38.0044 11.3451 38.0845 11.3451L38.0445 11.305C37.8841 11.2649 37.7237 11.1847 37.5634 11.1447C37.5233 10.864 37.5233 10.8239 37.4832 10.5032C37.5233 10.5433 37.6035 10.5433 37.6837 10.5433C37.7237 10.383 37.7237 10.383 37.844 10.3429C37.8039 10.1825 37.8039 10.1825 37.4832 9.82171C37.0422 10.2627 36.962 10.1825 36.481 9.82171C36.5612 9.66135 36.6012 9.58117 36.6814 9.38073C36.6814 9.42081 36.6814 9.54108 36.6814 9.58117C36.8017 9.62126 36.8017 9.62126 37.0422 9.50099C37.0422 9.4609 37.0422 9.42081 37.0422 9.38073C37.0823 9.34064 37.1625 9.30055 37.2427 9.26046C37.2427 9.22037 37.2026 9.22037 37.2026 9.18028C36.1603 9.14019 36.0801 8.69921 36.0801 8.69921C36.2404 8.65912 36.2404 8.65912 36.2404 7.9776C36.2805 8.01768 36.3607 8.05777 36.4008 8.09786C36.4008 8.05777 36.3607 7.9776 36.3206 7.93751C36.3607 7.89742 36.4409 7.85733 36.4409 7.77715C36.4409 7.73706 36.4008 7.69697 36.4008 7.69697C36.6012 7.65688 38.9264 7.69697 38.9264 7.69697C39.0066 7.69697 39.167 7.69697 39.2471 7.65688C39.1269 7.37625 39.0868 7.33617 39.167 7.09563C39.167 7.09563 39.2071 7.13572 39.2471 7.13572C39.2872 7.33616 39.2872 7.37625 39.3273 7.5767C39.3273 7.5767 39.3674 7.61679 39.4075 7.61679C39.3674 7.2159 39.3674 7.17581 39.167 6.85509C39.6079 7.09563 39.6079 7.09563 39.7683 7.13572C39.6881 7.01545 39.648 7.01545 39.5679 6.85509C39.9688 7.05554 40.4097 6.77491 40.8106 6.93527C40.8507 7.05554 40.8507 7.09563 41.0111 7.09563C41.0111 7.05554 41.0512 6.97536 41.0512 6.93527C41.2115 6.93527 41.2516 6.93527 41.8129 7.2159V7.17581C41.3719 6.89518 41.3719 6.89518 41.0913 6.53438C41.0913 6.57447 41.1313 6.65464 41.1313 6.73482C41.0913 6.69473 41.0111 6.61456 41.0111 6.53438C41.1313 6.49429 41.1714 6.49429 41.4922 6.61456C41.5322 6.53438 41.5322 6.49429 41.5723 6.41411C41.6124 6.41411 41.6525 6.41411 41.6926 6.4542C41.6124 6.37402 41.4922 6.33393 41.4521 6.25375C41.4521 6.25375 41.4521 6.25375 41.8129 6.41411C41.3318 5.89295 40.6102 5.77268 40.1692 5.21143C40.6102 5.2916 41.5723 5.89295 41.6124 5.93304C41.4922 5.81277 41.4922 5.81277 41.2917 5.65241C41.5322 5.77268 41.7728 5.93304 42.0133 6.0533C41.9331 5.97312 41.853 5.89295 41.3719 5.49205C41.3719 5.49205 41.3719 5.49205 41.412 5.49205C41.2115 5.37178 41.2115 5.37178 41.1313 5.33169C41.1313 5.2916 41.1714 5.2916 41.1714 5.25152C41.1714 5.25152 41.8129 5.53214 42.3741 6.13348C42.334 6.13348 42.2939 6.13348 42.2939 6.17357C42.6147 6.4542 42.6147 6.4542 42.6147 6.49429C42.6147 6.53438 42.5746 6.53438 42.5746 6.57447C43.657 7.13572 44.2182 8.29831 45.1403 9.06001C45.1403 9.01992 45.1804 9.01992 45.2205 8.97983C45.6214 8.97983 45.6214 8.97983 46.824 10.0222C45.8619 8.81947 44.6191 7.89742 43.5768 6.73482C43.6169 6.73482 43.6169 6.77491 43.657 6.77491C43.657 6.73482 43.657 6.69473 43.657 6.65465C44.0579 6.77491 44.2984 7.17581 44.6592 7.33616C44.579 7.2159 44.5389 7.17581 43.9777 6.61456C44.2984 6.85509 44.2984 6.89518 44.3385 6.93527C44.6592 7.17581 44.8998 7.5767 45.2606 7.77715C45.3808 7.93751 45.5412 8.05777 45.6615 8.21813C45.5412 8.09786 45.461 7.9776 45.3407 7.85733C45.4209 7.9776 46.3831 9.01992 46.3831 9.01992Z" fill="white"/>
<path d="M33.5139 0.841847C33.4738 0.841847 33.3937 0.801758 33.3135 0.801758C33.6743 0.922026 34.0752 1.04229 34.436 1.16256C34.0351 1.04229 34.0351 1.04229 33.8346 1.0022C33.995 1.08238 34.1554 1.12247 34.3157 1.16256C34.2355 1.12247 34.1153 1.08238 34.0351 1.08238C34.2355 1.16256 34.3558 1.20265 34.5162 1.28283C34.1954 1.16256 33.8346 1.04229 33.5139 0.922026C33.6743 1.04229 33.8747 1.08238 34.0752 1.16256C33.8747 1.08238 33.7144 1.0022 33.5139 0.962116C33.554 1.0022 33.5941 1.0022 33.8346 1.12247C34.0351 1.20265 34.2355 1.24274 34.436 1.36301V1.4031C34.4761 1.4031 34.5162 1.44319 34.5562 1.44319V1.4031C34.5963 1.4031 34.5963 1.4031 34.6364 1.4031C34.7166 1.48328 34.7166 1.48328 34.7567 1.48328C34.877 1.48328 34.877 1.48328 34.877 1.52337C34.9171 1.52337 34.9571 1.52337 34.9972 1.56346C34.9972 1.56346 34.9972 1.60355 34.9571 1.60355C34.9571 1.64364 34.9972 1.68372 35.5986 1.88417C35.358 1.80399 35.3179 1.80399 35.2378 1.80399L36.5206 2.5256C36.5607 2.5256 36.5607 2.5256 36.5607 2.5256C36.9616 2.64587 37.2422 3.04677 37.7233 3.12694C37.7233 3.08685 37.7233 3.04677 37.7233 3.00668C37.8837 3.08685 37.9638 3.24721 38.1242 3.32739C38.1242 3.32739 38.1242 3.2873 38.1643 3.2873C38.2445 3.2873 38.2445 3.2873 38.4048 3.40757C38.3647 3.32739 38.2846 3.24721 38.2445 3.16703C38.4048 3.04677 39.5273 3.60802 39.9282 3.84855C39.8881 3.80846 39.8881 3.80846 39.6075 3.60802C39.6877 3.64811 39.808 3.72829 39.8881 3.76837C39.8481 3.76837 39.808 3.72829 39.808 3.6882C40.289 3.96882 41.2512 4.53007 42.2534 5.29177C42.1332 5.21159 42.0129 5.13141 41.8926 5.01115C42.2133 5.25168 42.534 5.49222 42.6543 5.5724C40.73 4.16927 40.6098 4.08909 39.3269 3.36748C37.603 2.44542 37.3625 2.32516 35.8792 1.72381L35.3981 1.56346C34.9171 1.4031 34.5562 1.24274 34.2756 1.16256C34.3157 1.16256 34.3959 1.20265 34.436 1.20265C34.3157 1.16256 34.1954 1.12247 34.0351 1.08238C34.0752 1.08238 34.1153 1.12247 34.1554 1.12247C33.9549 0.962115 33.7545 0.881937 33.5139 0.841847Z" fill="white"/>
<path d="M41.9336 5.09093C42.0539 5.2112 42.0539 5.2112 42.3345 5.37156H42.2944C42.4147 5.49183 42.535 5.57201 42.6552 5.65219C42.6152 5.6121 42.535 5.57201 42.4949 5.53192C42.535 5.57201 42.5751 5.6121 42.6152 5.6121C42.2544 5.37156 42.2544 5.37156 42.1742 5.37156C42.1742 5.37156 42.1742 5.37156 42.3345 5.49183C42.3345 5.49183 42.3345 5.49183 42.3345 5.53192L42.3746 5.57201C42.535 5.65219 42.6552 5.69227 42.8156 5.81254C42.8557 5.81254 42.8557 5.85263 42.8958 5.85263C42.9359 5.85263 42.9359 5.89272 42.976 5.89272C43.016 5.89272 43.0161 5.93281 43.0561 5.93281C43.0962 5.93281 43.0962 5.9729 43.1363 5.9729C43.1764 5.9729 43.1764 6.01299 43.2165 6.01299C43.2566 6.01299 43.2566 6.05308 43.2967 6.05308C43.3368 6.05308 43.3368 6.09317 43.3769 6.09317C43.4169 6.09317 43.4169 6.13326 43.457 6.13326C43.3769 6.09317 43.3368 6.09317 43.2566 6.05308C43.4169 6.17335 43.5773 6.25353 43.6976 6.37379C43.6174 6.41388 43.457 6.37379 43.2566 6.17335C43.2566 6.17335 43.2566 6.21344 43.2967 6.21344C43.2566 6.21344 43.2566 6.21344 43.0161 6.05308C43.0962 6.13326 43.1764 6.17335 43.2566 6.25353C43.2165 6.21344 43.1363 6.17335 43.0962 6.13326C43.1764 6.25353 43.2165 6.29362 43.2165 6.29362C43.0962 6.29362 42.8958 6.05308 42.8557 6.01299H42.8958C42.8156 5.81254 41.8535 5.05084 41.6129 5.05084C41.6129 5.09093 41.6129 5.09093 41.6129 5.13102C41.2521 4.93058 41.2521 4.93058 41.212 4.89049C41.0918 4.89049 41.0517 4.81031 40.9314 4.81031C41.0116 4.89049 41.1719 4.8504 41.1719 5.01075H41.1318C41.1318 5.05084 41.1318 5.05084 41.212 5.13102C41.1318 5.29138 41.1318 5.29138 40.9314 5.17111C40.9715 5.25129 40.9715 5.25129 41.0116 5.29138C40.9715 5.29138 40.8512 5.25129 40.771 5.2112C40.731 5.17111 40.731 5.13102 40.6508 5.09093C40.3301 5.17111 39.5684 4.36932 39.5684 4.36932C39.6084 4.32923 39.6085 4.32923 39.8891 4.52968C39.9693 4.60986 39.9693 4.60986 40.4102 4.81031C40.6107 4.93058 40.6508 4.93058 40.731 4.97067C40.6508 4.89049 40.6508 4.89049 40.2499 4.73013C40.2499 4.73013 40.29 4.73013 40.29 4.69004C39.9693 4.52968 39.7287 4.40941 39.7287 4.28914C40.0093 4.24906 40.0895 4.52968 40.3301 4.56977C40.29 4.52968 40.29 4.52968 40.2098 4.4495C40.2098 4.4495 40.2098 4.4495 40.2499 4.4495C40.3301 4.4495 40.3301 4.4495 40.4503 4.52968C40.3301 4.4495 40.1697 4.36932 40.0494 4.24906C40.0494 4.32923 40.0494 4.32923 40.0093 4.32923C40.0093 4.32923 39.849 4.28914 39.6886 4.16888C39.849 4.0887 39.849 4.0887 40.0895 4.24906C40.1697 4.24906 40.29 4.28915 40.5706 4.40941C40.5305 4.36932 40.5305 4.32923 40.4904 4.28914C40.5706 4.32923 40.6508 4.36932 40.731 4.4495C40.731 4.40941 40.731 4.40941 40.731 4.36932C40.771 4.36932 40.771 4.36932 41.212 4.69004C41.5728 4.89049 41.5728 4.89049 41.6931 4.89049V4.8504L41.7332 4.89049C41.6931 4.8504 41.653 4.81031 41.6129 4.81031C41.7332 4.89049 41.8535 4.97067 41.9737 5.01075C41.9336 4.97067 41.9336 4.97067 41.8935 4.93058C41.9336 4.93058 41.9336 4.93058 41.9737 4.97067C41.9737 4.97067 41.9737 4.97067 41.9737 4.93058C41.8535 5.05084 41.8535 5.05084 41.9336 5.09093Z" fill="white"/>
<path d="M35.5189 2.00401C35.7995 2.12428 35.7995 2.16436 35.8396 2.24454C35.8797 2.24454 35.8797 2.24454 35.9198 2.28463C36 2.20445 36.441 2.48508 36.5211 2.52517C36.4811 2.52517 36.4811 2.52517 36.441 2.48508C36.5612 2.52517 36.7617 2.60535 36.8018 2.68553L36.7617 2.72562C36.9621 2.8058 37.1225 2.92606 37.2828 3.04633C37.4031 3.04633 37.6837 3.1666 37.7639 3.24678H37.7238C37.8842 3.28687 37.9644 3.44723 38.0846 3.48732C38.0846 3.48732 38.0846 3.44723 38.1247 3.44723C38.3252 3.48732 38.4454 3.60758 38.5657 3.68776C38.4855 3.64767 38.4053 3.64767 38.3252 3.60758C38.3653 3.60758 38.3653 3.64767 38.4053 3.64767C38.4855 3.84812 38.4855 3.84812 38.5256 3.84812C38.4855 3.84812 38.4855 3.84812 38.4454 3.84812C38.4454 3.88821 38.4454 3.88821 38.5256 3.96839C38.4454 3.96839 38.245 3.96839 38.1247 3.72785C37.9243 3.68776 37.9243 3.68776 37.8441 3.60758C38.0045 3.60758 38.0045 3.60758 38.0045 3.60758C38.0045 3.56749 38.0045 3.56749 37.9243 3.5274C37.9243 3.56749 37.8842 3.56749 37.8842 3.56749C37.7639 3.48732 37.7639 3.48732 37.6036 3.40714C37.6436 3.48732 37.7238 3.5274 37.7639 3.56749C37.4432 3.40714 37.363 3.32696 37.3229 3.28687C37.3229 3.24678 37.363 3.24678 37.4432 3.24678C37.4031 3.24678 37.3229 3.20669 37.2828 3.1666C37.2828 3.20669 37.2828 3.20669 37.2828 3.20669C37.2428 3.24678 36.7216 3.08642 36.6414 3.00624C36.6414 3.00624 36.6815 2.96615 36.8018 3.00624C36.9621 3.00624 36.9621 3.00624 37.0022 3.00624C36.8819 2.96615 36.7617 3.00624 36.6815 2.92606C36.6013 2.84588 36.5211 2.76571 36.441 2.68553C36.4009 2.68553 36.4009 2.68553 36.3608 2.64544C36.2806 2.64544 36.2806 2.64544 36.1202 2.52517C36.2004 2.68553 36.4009 2.68553 36.5211 2.8058C36.5211 2.84588 36.5211 2.84588 36.5612 2.96615C36.5211 2.96615 36.5211 2.96615 36.4811 2.92606C36.2806 2.8058 36.2806 2.8058 36.2004 2.76571C36.2405 2.84588 36.2806 2.88597 36.3207 2.96615C36.3207 2.96615 36.2806 2.96615 36.2405 2.92606C36.0802 2.88597 36.0802 2.88597 36 2.84588C36.0401 2.88597 36.0401 2.88597 36.0802 2.92606C36 2.88597 35.9599 2.88597 35.9599 2.88597C35.9599 2.88597 35.9599 2.88597 36 2.92606C35.9599 2.92606 35.9599 2.92606 35.8797 2.88597C35.8396 2.8058 35.8396 2.72562 35.7995 2.64544C35.7194 2.64544 35.7194 2.64544 35.6392 2.56526C35.6793 2.56526 35.6793 2.56526 35.7194 2.56526C35.7194 2.56526 35.7194 2.52517 35.5189 2.44499H35.559C35.5189 2.44499 35.4788 2.4049 35.4387 2.4049H35.4788C35.4387 2.4049 35.4387 2.4049 35.3585 2.36481C35.3585 2.32472 35.3986 2.28463 35.3986 2.24454C35.3586 2.16436 35.3185 2.16436 35.2784 2.12428C35.2784 2.08419 35.2784 2.08419 35.2784 2.00401C35.3986 2.0441 35.3986 2.0441 35.3986 2.0441C35.3185 2.00401 35.2784 2.00401 35.2383 1.96392C35.2383 1.96392 35.2383 1.96392 35.2383 1.92383C35.3986 1.92383 35.4387 1.96392 35.5189 2.00401Z" fill="white"/>
<path d="M37.2026 3.24732C37.3629 3.36759 37.4832 3.48786 37.6436 3.56804C37.6035 3.64822 37.6035 3.64822 37.5634 3.64822C37.5233 3.64822 37.4832 3.64822 37.4431 3.60813C37.3629 3.60813 37.2828 3.60813 37.2026 3.56804C37.1224 3.52795 37.0823 3.44777 37.0422 3.44777C36.8819 3.44777 36.8819 3.44777 36.8418 3.44777C36.8418 3.48786 36.8017 3.48786 36.6413 3.40768C36.6814 3.36759 36.6413 3.3275 36.6413 3.3275C36.6413 3.36759 36.5611 3.3275 36.5611 3.3275C36.3607 3.16714 36.3607 3.16714 36.3206 3.16714C36.2404 3.20723 36.0801 3.04688 36.0801 3.04688C36.1202 3.04688 36.1202 3.04687 36.2805 3.08696C36.5211 3.12705 36.5211 3.12705 36.6814 3.16714C36.6413 3.12705 36.6413 3.12705 36.6413 3.12705C36.6413 3.12705 36.6413 3.12705 36.6814 3.12705H36.7215C36.8017 3.12705 36.8819 3.16714 36.962 3.20723C37.0021 3.20723 37.0422 3.20723 37.0823 3.20723C37.1224 3.20723 37.1625 3.24732 37.2026 3.24732Z" fill="white"/>
<path d="M39.1674 4.00892C39.3678 4.16928 39.3277 4.16928 39.3277 4.16928C39.3277 4.16928 39.2876 4.16928 39.2476 4.16928C39.3678 4.32964 39.3678 4.48999 39.1674 4.4499C39.0471 4.4499 38.8467 4.32964 38.6863 4.20937C38.6863 4.20937 38.4859 4.12919 38.4458 4.16928L38.4859 4.20937C38.4458 4.24946 38.2453 4.16928 38.2453 4.16928C38.2453 4.16928 38.085 4.0891 38.085 4.04901H38.125C38.3255 4.04901 38.3656 4.04901 38.4859 4.00892L38.5259 4.04901C38.6061 4.12919 38.6061 4.12919 38.8066 4.16928C38.8467 4.12919 38.8467 4.04901 38.8066 3.96883C38.7665 3.92874 38.7665 3.84856 38.7665 3.84856C38.8467 3.80847 39.1273 4.00892 39.1674 4.00892Z" fill="white"/>
<path d="M43.2958 6.73468C43.416 6.85494 43.416 6.85495 43.416 6.89503C43.416 6.89503 43.416 6.89503 43.3359 6.85495C43.2557 6.81486 43.2557 6.81486 43.2156 6.77477C43.4962 7.05539 43.4962 7.09548 43.4962 7.09548C43.416 7.09548 43.376 7.09548 43.2958 7.09548C43.2958 7.05539 43.2557 7.0153 43.1755 6.97521C42.9751 6.81486 42.7746 6.6545 42.6143 6.49414C42.6543 6.53423 42.7345 6.57432 42.7746 6.61441C42.7345 6.57432 42.7345 6.53423 42.6944 6.49414C42.7746 6.57432 42.8147 6.57432 42.935 6.61441C43.0552 6.61441 43.1354 6.6545 43.2958 6.73468C43.2557 6.73468 43.2557 6.73468 43.2557 6.69459L43.2958 6.73468Z" fill="white"/>
<path d="M39.5675 4.64995C39.6076 4.69004 39.8482 4.8504 39.9283 4.93058C39.9283 4.93058 39.9283 4.93058 39.9684 5.01076C39.9684 5.05085 39.9684 5.05085 40.0486 5.09094C40.0486 5.09094 40.2491 5.2112 40.2491 5.25129C40.209 5.29138 39.8081 5.05085 39.6076 4.89049C39.6076 4.89049 39.4473 4.77022 39.4473 4.73013C39.4874 4.69004 39.5274 4.64995 39.5675 4.60986C39.5274 4.64995 39.5274 4.64995 39.5675 4.64995Z" fill="white"/>
<path d="M51.7952 18.6015C51.8353 18.7218 51.8353 18.7619 51.8754 18.9222C51.715 18.4011 51.6348 18.4412 51.6348 18.4412C51.6348 18.4412 51.6348 18.4412 51.715 18.8822C51.715 18.8822 51.715 18.8421 51.6749 18.8421C51.5947 18.5614 51.5947 18.4412 51.5947 18.3209C51.5947 18.2808 51.5947 18.2808 51.5947 18.2407C51.6749 18.2407 51.7551 18.5614 51.7952 18.6015Z" fill="white"/>
<path d="M41.4118 6.1336C41.4519 6.17369 41.5321 6.21378 41.4519 6.21378C41.4118 6.21378 41.3717 6.21378 41.2915 6.21378C41.2915 6.21378 41.2514 6.21378 41.2514 6.25387C41.0911 6.09351 41.0109 6.01333 40.8906 5.89307C40.9708 5.93316 41.0109 5.97325 41.0911 5.97325C41.2113 6.01333 41.2514 6.01333 41.4118 6.1336Z" fill="white"/>
<path d="M37.6431 3.84843C37.6832 3.88852 37.6832 3.92861 37.6431 3.92861C37.563 3.92861 37.3224 3.80834 37.2021 3.76825C37.4427 3.76825 37.4427 3.76825 37.4427 3.76825C37.4427 3.72816 37.603 3.80834 37.6431 3.84843Z" fill="white"/>
<path d="M39.0062 4.48998C39.0864 4.53007 39.1265 4.57016 39.1265 4.57016H38.9661C38.9661 4.57016 38.7256 4.4098 38.7256 4.36972C38.7657 4.32963 39.0062 4.48998 39.0062 4.48998Z" fill="white"/>
<path d="M42.0932 5.65265C42.0932 5.65265 42.1333 5.65265 42.0932 5.65265C42.0932 5.69274 42.0932 5.69274 42.0932 5.69274C42.1333 5.69274 42.1333 5.69274 42.0932 5.65265C41.9329 5.61256 41.7324 5.4522 41.7324 5.41211C41.7324 5.41211 41.8928 5.49229 42.0932 5.65265Z" fill="white"/>
<path d="M40.4903 4.04888C40.5705 4.08897 40.6507 4.16915 40.6908 4.16915C40.6507 4.16915 40.6507 4.12906 40.6106 4.12906C40.6106 4.12906 40.6106 4.12906 40.6106 4.16915C40.5304 4.12906 40.4502 4.04888 40.4102 4.00879C40.4102 3.9687 40.4502 4.00879 40.4903 4.04888Z" fill="white"/>
<path d="M46.9044 9.62114L46.8644 9.58105C46.8243 9.54096 46.8243 9.54096 46.7842 9.50087C46.7842 9.46078 46.7842 9.50087 46.9044 9.62114Z" fill="white"/>
<path d="M37.8839 3.88828C37.924 3.92837 37.924 3.92837 37.924 3.92837C37.924 3.92837 37.924 3.92837 37.8839 3.92837C37.8439 3.92837 37.8439 3.92837 37.8439 3.96846C37.8038 3.96846 37.8038 3.92837 37.7637 3.92837C37.7637 3.88828 37.7637 3.84819 37.7637 3.80811L37.8839 3.88828C37.8839 3.84819 37.8839 3.84819 37.8839 3.88828Z" fill="white"/>
<path d="M36.3604 2.92627C36.5207 3.00645 36.5608 3.04654 36.5207 3.04654C36.5207 3.04654 36.4405 3.04654 36.3604 3.04654C36.3604 3.00645 36.3604 2.96636 36.3604 2.92627Z" fill="white"/>
<path d="M52.0362 19.443C52.0362 19.443 52.0362 19.4831 52.0362 19.443C52.0362 19.4029 51.9961 19.3628 51.9961 19.3228C51.9961 19.3228 52.0362 19.443 52.0362 19.443Z" fill="white"/>
<path d="M43.6573 7.13584C43.6974 7.21602 43.7375 7.25611 43.8176 7.33629C43.8176 7.33629 43.7775 7.33629 43.7775 7.2962C43.6172 7.13584 43.6172 7.13584 43.6172 7.09575V7.05566C43.6573 7.09575 43.6573 7.09575 43.6573 7.13584Z" fill="white"/>
<path d="M45.5415 8.65908C45.5816 8.73926 45.6217 8.77935 45.7019 8.85953C45.6618 8.81944 45.6217 8.77935 45.5816 8.77935L45.5015 8.65908C45.4614 8.57891 45.5415 8.61899 45.5415 8.65908Z" fill="white"/>
<path d="M47.546 10.463C47.5059 10.423 47.5059 10.3829 47.4658 10.3428C47.4658 10.3428 47.4658 10.3428 47.5059 10.3829L47.546 10.463Z" fill="white"/>
<path d="M43.8175 7.09575C43.8576 7.13584 43.9378 7.21602 43.9778 7.25611C43.9778 7.25611 43.9778 7.25611 43.9378 7.25611C43.8576 7.17593 43.7774 7.13584 43.7373 7.05566H43.7774C43.7774 7.09575 43.8175 7.09575 43.8175 7.09575Z" fill="white"/>
<path d="M39.0069 5.77283C39.0871 6.01336 39.2475 6.21381 39.3276 6.33408C39.4078 6.45435 39.4479 6.49444 39.4479 6.53453C39.4479 6.61471 38.9267 6.41426 38.9267 6.41426C38.8866 6.41426 38.8866 6.37417 38.8866 6.37417C38.4858 5.93319 38.4858 5.93319 38.165 5.77283C38.2051 5.77283 38.2452 5.73274 38.2452 5.69265C38.4457 5.57238 38.6461 5.57238 39.0069 5.65256C39.0069 5.69265 39.0069 5.73274 39.0069 5.77283Z" fill="white"/>
<path d="M38.5252 4.77032C38.6455 4.8505 38.7256 4.93068 38.7256 4.93068C38.7256 4.97077 38.6856 4.97077 38.6455 4.97077C38.6054 4.97077 38.6455 5.05095 38.6856 5.09104C38.7256 5.17122 38.7657 5.25139 38.7256 5.29148C38.6856 5.29148 38.6054 5.29148 38.5653 5.25139C38.5252 5.09104 38.5252 5.09104 38.4851 5.05095C38.445 5.05095 38.4049 5.09104 38.3648 5.09104C38.445 5.17122 38.4851 5.21131 38.3648 5.21131C38.2446 5.21131 38.2446 5.21131 38.1644 5.09104C37.8838 4.8505 37.9239 4.81041 37.9239 4.81041C37.9639 4.77032 38.0842 4.81041 38.2045 4.8505C38.3648 4.89059 38.4851 4.93068 38.4851 4.8505C38.4851 4.81041 38.2045 4.69014 38.2045 4.69014C38.1644 4.69014 38.1644 4.69014 38.1243 4.69014C38.004 4.56987 38.004 4.52979 38.004 4.52979C38.0441 4.52979 38.0441 4.52979 38.2045 4.60996C38.3648 4.69014 38.445 4.73023 38.4851 4.69014V4.65005C38.4851 4.65005 38.4851 4.65005 38.4851 4.60996C38.3247 4.69014 38.445 4.73023 38.5252 4.77032Z" fill="white"/>
<path d="M37.4831 4.73013C37.6435 4.8504 37.7237 4.93058 37.7237 4.93058C37.6836 4.93058 37.6435 4.93058 37.4831 4.8504C37.6435 4.97067 37.6836 5.01076 37.7237 5.05085C37.7237 5.05085 37.7237 5.05085 37.6836 5.05085C37.7638 5.09094 37.884 5.2112 37.6836 5.2112C37.6034 5.2112 37.6034 5.2112 37.4831 5.05085C37.403 4.97067 37.2426 4.69004 37.2827 4.60986C37.3228 4.60986 37.403 4.69004 37.4831 4.73013Z" fill="white"/>
<path d="M37.3232 4.32959C37.3633 4.32959 37.3633 4.36968 37.3633 4.36968C37.3633 4.36968 37.3633 4.36968 37.4034 4.36968C37.4034 4.36968 37.4034 4.36968 37.4435 4.36968C37.4435 4.36968 37.4435 4.36968 37.4836 4.36968C37.4836 4.36968 37.4836 4.36968 37.5237 4.36968C37.5237 4.36968 37.5237 4.36968 37.5637 4.36968C37.5637 4.40977 37.5237 4.44986 37.5237 4.48995C37.3633 4.40977 37.3633 4.40977 37.3633 4.36968V4.32959C37.2831 4.36968 37.2831 4.32959 37.3232 4.32959Z" fill="white"/>
<path d="M37.1624 4.20909C36.962 4.20909 36.9219 4.169 36.9219 4.12891C37.0021 4.12891 37.0421 4.12891 37.1624 4.20909Z" fill="white"/>
<path d="M39.4079 5.25152C39.448 5.2916 39.5282 5.37178 39.5683 5.41187C39.5282 5.41187 39.4881 5.37178 39.448 5.37178H39.4079H39.3678C39.3277 5.37178 39.3277 5.37178 39.2876 5.33169C39.2876 5.33169 39.2075 5.25152 39.2476 5.21143C39.2876 5.21143 39.3678 5.25152 39.4079 5.25152Z" fill="white"/>
<path d="M39.2066 7.49658C39.2066 7.57676 39.2066 7.65694 39.2467 7.73712C39.1265 7.61685 39.1265 7.53667 39.1666 7.53667C39.1666 7.49658 39.2066 7.49658 39.2066 7.49658Z" fill="white"/>
<path d="M37.804 4.32969C37.8441 4.32969 37.8441 4.36978 37.804 4.32969C37.7639 4.36978 37.6036 4.2896 37.6036 4.2896L37.5635 4.24951C37.804 4.2896 37.804 4.2896 37.804 4.32969Z" fill="white"/>
<defs>
<radialGradient id="paint0_radial_2_14299" cx="0" cy="0" r="1" gradientUnits="userSpaceOnUse" gradientTransform="translate(31.4477 19.6882) scale(35.4439)">
<stop stop-color="#4060B4"/>
<stop offset="0.140625" stop-color="#4060B4"/>
<stop offset="0.1809" stop-color="#4060B4"/>
<stop offset="0.3489" stop-color="#4060B4"/>
<stop offset="0.5098" stop-color="#4060B4"/>
<stop offset="0.5839" stop-color="#4060B4"/>
<stop offset="0.7306" stop-color="#4060B4"/>
<stop offset="0.864583" stop-color="#4060B4"/>
<stop offset="0.9343" stop-color="#056CC1"/>
<stop offset="0.949" stop-color="#0069BF"/>
<stop offset="1" stop-color="#4060B4"/>
</radialGradient>
</defs>
</svg>
