<svg width="18" height="21" viewBox="0 0 18 21" fill="none" xmlns="http://www.w3.org/2000/svg">
<path d="M16.332 8.66602C16.332 14.6285 8.66602 19.7391 8.66602 19.7391C8.66602 19.7391 1 14.6285 1 8.66602C1 6.63286 1.80767 4.68298 3.24532 3.24532C4.68298 1.80767 6.63286 1 8.66602 1C10.6992 1 12.649 1.80767 14.0867 3.24532C15.5244 4.68298 16.332 6.63286 16.332 8.66602Z" stroke="#15234A" stroke-width="2" stroke-linecap="round" stroke-linejoin="round"/>
<path d="M8.66569 11.2212C10.077 11.2212 11.221 10.0771 11.221 8.66581C11.221 7.25454 10.077 6.11047 8.66569 6.11047C7.25442 6.11047 6.11035 7.25454 6.11035 8.66581C6.11035 10.0771 7.25442 11.2212 8.66569 11.2212Z" stroke="#15234A" stroke-width="2" stroke-linecap="round" stroke-linejoin="round"/>
</svg>
