<svg width="40" height="37" viewBox="0 0 40 37" fill="none" xmlns="http://www.w3.org/2000/svg">
<path d="M25.3037 24.9575C25.6274 25.0143 25.8436 24.7028 25.8978 24.363C25.952 24.0231 25.6553 23.7964 25.3315 23.7397L24.333 23.7393L25.5894 21.6013C33.4557 21.8452 39.0019 20.9836 39.0708 18.9868C39.0723 16.8909 33.5949 15.7558 25.7286 15.5119L24.5968 13.2173L25.5953 13.2177C25.9191 13.2745 26.1352 12.963 26.1894 12.6232C26.2436 12.2833 25.9469 12.0566 25.6231 11.9998L23.8826 11.9566L17.8998 0.426755L17.1577 0.383975L18.8337 15.4384C12.3029 15.6907 6.08197 16.6088 6.08197 16.6088L2.26681 11.8348L1.52473 11.792L2.66822 16.6216C2.66822 16.6216 0.995032 16.6776 0.994291 17.7255C0.993551 18.7735 2.63963 18.8874 2.63963 18.8874L1.20597 23.7018L1.94806 23.7445L6.09368 19.1437C6.09368 19.1437 12.3131 20.3215 18.7758 21.018L16.2286 35.9433L16.9706 35.9861L23.4957 24.8152L25.3037 24.9575Z" fill="#4060B4"/>
</svg>
