<svg width="24" height="24" viewBox="0 0 24 24" fill="none" xmlns="http://www.w3.org/2000/svg">
<circle cx="12" cy="12" r="12" fill="#15234A"/>
<path d="M15.502 9.6665C16.4685 9.6665 17.252 8.883 17.252 7.9165C17.252 6.95001 16.4685 6.1665 15.502 6.1665C14.5355 6.1665 13.752 6.95001 13.752 7.9165C13.752 8.883 14.5355 9.6665 15.502 9.6665Z" stroke="white" stroke-width="1.5" stroke-linecap="round" stroke-linejoin="round"/>
<path d="M8.5 13.7498C9.4665 13.7498 10.25 12.9663 10.25 11.9998C10.25 11.0333 9.4665 10.2498 8.5 10.2498C7.5335 10.2498 6.75 11.0333 6.75 11.9998C6.75 12.9663 7.5335 13.7498 8.5 13.7498Z" stroke="white" stroke-width="1.5" stroke-linecap="round" stroke-linejoin="round"/>
<path d="M15.502 17.8333C16.4685 17.8333 17.252 17.0498 17.252 16.0833C17.252 15.1168 16.4685 14.3333 15.502 14.3333C14.5355 14.3333 13.752 15.1168 13.752 16.0833C13.752 17.0498 14.5355 17.8333 15.502 17.8333Z" stroke="white" stroke-width="1.5" stroke-linecap="round" stroke-linejoin="round"/>
<path d="M10.0107 12.8806L13.9949 15.2023" stroke="white" stroke-width="1.5" stroke-linecap="round" stroke-linejoin="round"/>
<path d="M13.9891 8.79736L10.0107 11.119" stroke="white" stroke-width="1.5" stroke-linecap="round" stroke-linejoin="round"/>
</svg>
