<svg width="112" height="100" viewBox="0 0 112 100" fill="none" xmlns="http://www.w3.org/2000/svg">
<g opacity="0.2">
<path fill-rule="evenodd" clip-rule="evenodd" d="M70.5071 2.81944C70.0393 2.61049 69.5174 2.5283 69.0015 2.58232C68.4856 2.63634 67.9966 2.82439 67.5907 3.12483L66.874 2.29142C67.449 1.8658 68.1417 1.5994 68.8726 1.52287C69.6035 1.44634 70.3428 1.56278 71.0055 1.8588C71.6682 2.15482 72.2274 2.61839 72.6188 3.1962C73.0102 3.774 73.2178 4.44257 73.2178 5.125H72.0687C72.0687 4.64329 71.9221 4.17135 71.6458 3.76349C71.3696 3.35563 70.9749 3.0284 70.5071 2.81944Z" fill="white"/>
<path fill-rule="evenodd" clip-rule="evenodd" d="M102 74.0369C102.643 74.1572 103.307 74.0611 103.89 73.7637C104.472 73.4663 104.939 72.9843 105.218 72.3931C105.497 71.8019 105.573 71.1349 105.432 70.4963C105.292 69.8578 104.944 69.2837 104.443 68.864L105.234 67.9195C105.944 68.5142 106.437 69.3274 106.636 70.232C106.834 71.1366 106.728 72.0816 106.332 72.9191C105.937 73.7566 105.275 74.4395 104.45 74.8608C103.625 75.2821 102.684 75.4182 101.774 75.2477L102 74.0369Z" fill="white"/>
<path fill-rule="evenodd" clip-rule="evenodd" d="M99.696 21.4206C99.4446 20.9581 99.0677 20.576 98.6088 20.3182C98.1498 20.0604 97.6274 19.9374 97.1016 19.9633L97.0591 19.102C97.7471 19.0681 98.4306 19.229 99.0311 19.5663C99.6316 19.9037 100.125 20.4036 100.454 21.0087C100.783 21.6139 100.934 22.2996 100.891 22.987C100.847 23.6743 100.611 24.3355 100.208 24.8944L99.5084 24.3904C99.816 23.9633 99.9968 23.4579 100.03 22.9326C100.063 22.4072 99.9475 21.8831 99.696 21.4206Z" fill="white"/>
<path fill-rule="evenodd" clip-rule="evenodd" d="M5.17617 69.8945C4.96349 70.4472 4.93178 71.0531 5.0856 71.625C5.23942 72.1969 5.57083 72.7052 6.03208 73.0766L5.49121 73.7482C4.88772 73.2623 4.45411 72.5972 4.25285 71.849C4.05159 71.1007 4.09309 70.3079 4.37135 69.5848L5.17617 69.8945Z" fill="white"/>
<path d="M29.8395 0.322186C29.9737 -0.107395 30.5576 -0.107395 30.6917 0.322185L30.9194 1.05159C30.9794 1.24371 31.1514 1.37378 31.3455 1.37378H32.0824C32.5164 1.37378 32.6968 1.95177 32.3457 2.21727L31.7496 2.66807C31.5925 2.7868 31.5268 2.99726 31.5868 3.18937L31.8145 3.91878C31.9486 4.34836 31.4762 4.70558 31.1251 4.44009L30.529 3.98929C30.3719 3.87056 30.1593 3.87056 30.0023 3.98929L29.4061 4.44009C29.055 4.70558 28.5826 4.34836 28.7167 3.91878L28.9444 3.18937C29.0044 2.99726 28.9387 2.7868 28.7817 2.66807L28.1855 2.21727C27.8344 1.95177 28.0149 1.37378 28.4489 1.37378H29.1858C29.3798 1.37378 29.5519 1.24371 29.6118 1.05159L29.8395 0.322186Z" fill="white"/>
<path d="M90.8132 26.7995C90.9504 26.3585 91.5477 26.3585 91.6849 26.7995L92.2264 28.5407C92.2878 28.7379 92.4637 28.8715 92.6623 28.8715H94.4149C94.8588 28.8715 95.0434 29.4649 94.6842 29.7375L93.2664 30.8136C93.1057 30.9355 93.0385 31.1515 93.0999 31.3488L93.6415 33.09C93.7786 33.531 93.2954 33.8977 92.9363 33.6252L91.5184 32.549C91.3578 32.4271 91.1403 32.4271 90.9797 32.549L89.5618 33.6252C89.2026 33.8977 88.7194 33.531 88.8566 33.09L89.3982 31.3488C89.4595 31.1515 89.3923 30.9355 89.2317 30.8136L87.8138 29.7375C87.4547 29.4649 87.6392 28.8715 88.0832 28.8715H89.8358C90.0343 28.8715 90.2103 28.7379 90.2716 28.5407L90.8132 26.7995Z" fill="white"/>
<path d="M15.9531 33.8154H16.9365V34.4848H15.9531V35.5313H15.2039V34.4848H14.2178V33.8154H15.2039V32.8125H15.9531V33.8154Z" fill="white"/>
<path d="M41.6559 90.0029H42.3115V90.6723H41.6559V91.7187H41.1565V90.6723H40.499V90.0029H41.1565V89H41.6559V90.0029Z" fill="white"/>
<path d="M19.2503 97.5871H20.5615V98.4797H19.2503V99.875H18.2514V98.4797H16.9365V97.5871H18.2514V96.25H19.2503V97.5871Z" fill="white"/>
</g>
<path fill-rule="evenodd" clip-rule="evenodd" d="M103.454 47.9834C102.847 47.6227 102.061 47.8231 101.701 48.4309C101.34 49.0387 101.54 49.8239 102.148 50.1846C102.756 50.5452 103.541 50.3449 103.902 49.737C104.263 49.1292 104.062 48.344 103.454 47.9834ZM101.023 48.0286C101.606 47.0463 102.874 46.7225 103.857 47.3053C104.839 47.8882 105.163 49.157 104.58 50.1393C103.997 51.1216 102.728 51.4455 101.746 50.8626C100.764 50.2797 100.44 49.0109 101.023 48.0286Z" fill="white"/>
<path fill-rule="evenodd" clip-rule="evenodd" d="M95.7035 47.9258C95.0956 47.5651 94.3105 47.7654 93.9498 48.3733C93.5891 48.9811 93.7895 49.7663 94.3973 50.1269C95.0052 50.4876 95.7903 50.2872 96.151 49.6794C96.5117 49.0716 96.3113 48.2864 95.7035 47.9258ZM93.2718 47.971C93.8546 46.9887 95.1235 46.6649 96.1058 47.2477C97.0881 47.8306 97.4119 49.0994 96.829 50.0817C96.2461 51.064 94.9773 51.3878 93.995 50.805C93.0127 50.2221 92.6889 48.9533 93.2718 47.971Z" fill="white"/>
<path fill-rule="evenodd" clip-rule="evenodd" d="M99.4681 54.7021C98.8603 54.3414 98.0751 54.5418 97.7144 55.1497C97.3538 55.7575 97.5541 56.5426 98.162 56.9033C98.7698 57.264 99.555 57.0636 99.9156 56.4558C100.276 55.8479 100.076 55.0628 99.4681 54.7021ZM97.0364 54.7473C97.6193 53.765 98.8881 53.4412 99.8704 54.0241C100.853 54.607 101.177 55.8758 100.594 56.8581C100.011 57.8404 98.742 58.1642 97.7597 57.5813C96.7774 56.9985 96.4536 55.7296 97.0364 54.7473Z" fill="white"/>
<path fill-rule="evenodd" clip-rule="evenodd" d="M95.6709 50.144C95.8611 50.0381 96.1011 50.1066 96.207 50.2968L98.3512 54.1515C98.4571 54.3417 98.3886 54.5818 98.1984 54.6876C98.0081 54.7934 97.7681 54.725 97.6622 54.5347L95.518 50.6801C95.4122 50.4898 95.4806 50.2498 95.6709 50.144Z" fill="white"/>
<path fill-rule="evenodd" clip-rule="evenodd" d="M101.523 49.0739C101.521 49.2916 101.343 49.4668 101.125 49.4652L96.7195 49.4332C96.5018 49.4316 96.3266 49.2538 96.3282 49.0361C96.3298 48.8184 96.5076 48.6432 96.7253 48.6448L101.131 48.6768C101.349 48.6784 101.524 48.8562 101.523 49.0739Z" fill="white"/>
<path fill-rule="evenodd" clip-rule="evenodd" d="M4.67183 34.0121C4.46071 34.3929 4.59828 34.8727 4.97909 35.0839C5.35991 35.295 5.83977 35.1574 6.05089 34.7766C6.26201 34.3958 6.12444 33.9159 5.74363 33.7048C5.36281 33.4937 4.88295 33.6312 4.67183 34.0121ZM4.59683 35.7734C3.8352 35.3511 3.56007 34.3914 3.98231 33.6298C4.40455 32.8682 5.36426 32.593 6.12589 33.0153C6.88753 33.4375 7.16266 34.3972 6.74042 35.1589C6.31818 35.9205 5.35846 36.1956 4.59683 35.7734Z" fill="white"/>
<path fill-rule="evenodd" clip-rule="evenodd" d="M4.79146 39.4876C4.58034 39.8684 4.71791 40.3483 5.09872 40.5594C5.47954 40.7705 5.9594 40.633 6.17052 40.2522C6.38164 39.8713 6.24407 39.3915 5.86326 39.1804C5.48244 38.9692 5.00258 39.1068 4.79146 39.4876ZM4.71646 41.2489C3.95483 40.8267 3.6797 39.867 4.10194 39.1054C4.52418 38.3437 5.48389 38.0686 6.24552 38.4908C7.00715 38.9131 7.28228 39.8728 6.86004 40.6344C6.4378 41.396 5.47809 41.6712 4.71646 41.2489Z" fill="white"/>
<path fill-rule="evenodd" clip-rule="evenodd" d="M9.49801 36.6888C9.28689 37.0696 9.42445 37.5494 9.80527 37.7606C10.1861 37.9717 10.6659 37.8341 10.8771 37.4533C11.0882 37.0725 10.9506 36.5926 10.5698 36.3815C10.189 36.1704 9.70913 36.3079 9.49801 36.6888ZM9.423 38.4501C8.66137 38.0278 8.38624 37.0681 8.80848 36.3065C9.23072 35.5449 10.1904 35.2697 10.9521 35.692C11.7137 36.1142 11.9888 37.0739 11.5666 37.8356C11.1443 38.5972 10.1846 38.8723 9.423 38.4501Z" fill="white"/>
<path fill-rule="evenodd" clip-rule="evenodd" d="M6.15722 39.466C6.04586 39.2789 6.10723 39.037 6.2943 38.9256L8.9719 37.3316C9.15897 37.2202 9.4009 37.2816 9.51227 37.4686C9.62363 37.6557 9.56226 37.8976 9.37519 38.009L6.69759 39.603C6.51052 39.7144 6.26859 39.653 6.15722 39.466Z" fill="white"/>
<path fill-rule="evenodd" clip-rule="evenodd" d="M5.3777 35.182C5.59536 35.1772 5.77569 35.3498 5.78049 35.5674L5.84912 38.6794C5.85392 38.8971 5.68137 39.0774 5.46371 39.0822C5.24605 39.087 5.06571 38.9145 5.06091 38.6968L4.99228 35.5848C4.98748 35.3671 5.16004 35.1868 5.3777 35.182Z" fill="white"/>
<path d="M7.26263 66.5008C9.87516 66.5008 11.993 64.383 11.993 61.7704C11.993 59.1579 9.87516 57.04 7.26263 57.04C4.6501 57.04 2.53223 59.1579 2.53223 61.7704C2.53223 64.383 4.6501 66.5008 7.26263 66.5008Z" fill="white"/>
<path d="M5.37012 62.7168C5.37012 62.7168 6.07968 63.6629 7.26228 63.6629C8.44488 63.6629 9.15444 62.7168 9.15444 62.7168" fill="white"/>
<path fill-rule="evenodd" clip-rule="evenodd" d="M4.84173 62.4519C4.94189 62.2515 5.14663 62.125 5.3706 62.125H9.15492C9.37889 62.125 9.58364 62.2515 9.6838 62.4519C9.78396 62.6522 9.76235 62.8919 9.62796 63.0711L9.15492 62.7163C9.62796 63.0711 9.62782 63.0713 9.62768 63.0715L9.62738 63.0719L9.62672 63.0727L9.62519 63.0747L9.62132 63.0798C9.61837 63.0836 9.61469 63.0884 9.61027 63.0939C9.60145 63.1051 9.58969 63.1196 9.57505 63.1371C9.5458 63.1719 9.50481 63.2187 9.45249 63.2732C9.34834 63.3819 9.1965 63.5247 9.0001 63.6675C8.60959 63.9516 8.01698 64.2537 7.26276 64.2537C6.50854 64.2537 5.91594 63.9516 5.52542 63.6675C5.32902 63.5247 5.17719 63.3819 5.07304 63.2732C5.02072 63.2187 4.97973 63.1719 4.95048 63.1371C4.93583 63.1196 4.92407 63.1051 4.91525 63.0939C4.91084 63.0884 4.90715 63.0836 4.9042 63.0798L4.90033 63.0747L4.89881 63.0727L4.89815 63.0719L4.89785 63.0715C4.8977 63.0713 4.89756 63.0711 5.3706 62.7163L4.89756 63.0711C4.76318 62.8919 4.74156 62.6522 4.84173 62.4519Z" fill="#4060B4"/>
<path fill-rule="evenodd" clip-rule="evenodd" d="M5.44922 60.3512C5.44922 60.1335 5.62571 59.957 5.84342 59.957H5.84815C6.06586 59.957 6.24235 60.1335 6.24235 60.3512C6.24235 60.5689 6.06586 60.7454 5.84815 60.7454H5.84342C5.62571 60.7454 5.44922 60.5689 5.44922 60.3512Z" fill="#4060B4"/>
<path fill-rule="evenodd" clip-rule="evenodd" d="M8.28711 60.3512C8.28711 60.1335 8.4636 59.957 8.68131 59.957H8.68604C8.90375 59.957 9.08024 60.1335 9.08024 60.3512C9.08024 60.5689 8.90375 60.7454 8.68604 60.7454H8.68131C8.4636 60.7454 8.28711 60.5689 8.28711 60.3512Z" fill="#4060B4"/>
<path d="M81.3737 91.5961C82.4623 93.4815 84.8732 94.1275 86.7586 93.039C88.644 91.9504 89.29 89.5395 88.2015 87.6541C87.1129 85.7687 84.702 85.1227 82.8166 86.2112C80.9312 87.2998 80.2852 89.7107 81.3737 91.5961Z" fill="white"/>
<path d="M83.3174 88.6533C83.3174 88.6533 82.9303 89.5596 83.423 90.4131C83.9158 91.2665 84.8942 91.3844 84.8942 91.3844" fill="white"/>
<path fill-rule="evenodd" clip-rule="evenodd" d="M83.293 88.2602C83.4421 88.2513 83.5834 88.3273 83.658 88.4566L85.2348 91.1877C85.3095 91.317 85.3047 91.4774 85.2224 91.602C85.1401 91.7266 84.9945 91.7941 84.8463 91.7762L84.8935 91.3848C84.8463 91.7762 84.8461 91.7762 84.846 91.7762L84.8456 91.7761L84.8449 91.776L84.8431 91.7758L84.8385 91.7752L84.825 91.7733C84.8141 91.7717 84.7997 91.7694 84.782 91.7663C84.7465 91.76 84.6979 91.7504 84.639 91.7359C84.5216 91.7071 84.361 91.6588 84.1825 91.5794C83.8271 91.4214 83.3816 91.1314 83.0809 90.6106C82.7802 90.0898 82.7518 89.5589 82.7927 89.1722C82.8132 88.9778 82.8516 88.8146 82.8854 88.6986C82.9023 88.6403 82.9182 88.5933 82.9305 88.5595C82.9367 88.5426 82.942 88.529 82.946 88.5188L82.9511 88.5061L82.9529 88.5018L82.9536 88.5002L82.9539 88.4995L82.954 88.4992C82.9541 88.499 82.9541 88.4989 83.3167 88.6537L82.9541 88.4989C83.0128 88.3616 83.144 88.2692 83.293 88.2602Z" fill="#4060B4"/>
<path fill-rule="evenodd" clip-rule="evenodd" d="M85.0229 87.6678C85.2114 87.5589 85.4525 87.6235 85.5614 87.8121L85.5633 87.8155C85.6722 88.004 85.6076 88.2451 85.419 88.354C85.2305 88.4628 84.9894 88.3982 84.8806 88.2097L84.8786 88.2063C84.7697 88.0177 84.8343 87.7767 85.0229 87.6678Z" fill="#4060B4"/>
<path fill-rule="evenodd" clip-rule="evenodd" d="M86.2055 89.7166C86.394 89.6078 86.6351 89.6724 86.744 89.8609L86.7459 89.8643C86.8548 90.0529 86.7902 90.294 86.6017 90.4028C86.4131 90.5117 86.172 90.4471 86.0632 90.2585L86.0612 90.2551C85.9523 90.0666 86.0169 89.8255 86.2055 89.7166Z" fill="#4060B4"/>
<path d="M24.544 16.8951L23.6277 15.6118C23.4454 15.3566 23.1692 15.1842 22.8599 15.1326C22.5505 15.081 22.2333 15.1544 21.978 15.3367L22.7566 19.1402L25.2765 22.6691L28.8952 20.085C29.0511 19.9763 29.1626 19.8148 29.2089 19.6304C29.2552 19.446 29.2334 19.251 29.1473 19.0815L27.5283 15.8781C27.4766 15.7762 27.4033 15.6867 27.3136 15.6159C27.2239 15.5451 27.1199 15.4947 27.0087 15.4681C26.8976 15.4415 26.782 15.4394 26.6699 15.4619C26.5579 15.4844 26.452 15.531 26.3598 15.5984L24.544 16.8951ZM25.2765 22.6691L24.3141 23.3563C24.1439 23.4778 23.9325 23.5268 23.7262 23.4924C23.52 23.458 23.3358 23.3431 23.2143 23.1729L21.6107 20.9273C21.4892 20.7571 21.4403 20.5456 21.4747 20.3394C21.5091 20.1331 21.624 19.949 21.7942 19.8275L22.7566 19.1402" fill="white"/>
<path fill-rule="evenodd" clip-rule="evenodd" d="M24.9564 22.898L22.4365 19.3691L22.7573 19.1401L25.2772 22.6689L24.9564 22.898Z" fill="#4060B4"/>
<path d="M107.192 31.1994L107.527 29.4245C107.594 29.0715 107.518 28.7064 107.315 28.4096C107.113 28.1128 106.801 27.9086 106.448 27.842L103.919 31.5003L102.997 36.3812L108.002 37.3264C108.216 37.3692 108.438 37.3334 108.627 37.2256C108.816 37.1177 108.96 36.9452 109.032 36.7396L110.398 32.8618C110.442 32.7382 110.458 32.6067 110.445 32.4764C110.433 32.3461 110.392 32.2201 110.326 32.107C110.26 31.994 110.17 31.8967 110.062 31.8219C109.955 31.747 109.833 31.6965 109.704 31.6736L107.192 31.1994ZM102.997 36.3812L101.666 36.1299C101.43 36.0854 101.222 35.9493 101.087 35.7514C100.952 35.5536 100.901 35.3102 100.946 35.0749L101.532 31.9688C101.577 31.7334 101.713 31.5254 101.911 31.3904C102.109 31.2554 102.352 31.2045 102.587 31.2489L103.919 31.5003" fill="white"/>
<path fill-rule="evenodd" clip-rule="evenodd" d="M102.581 36.3027L103.503 31.4218L103.89 31.4949L102.969 36.3758L102.581 36.3027Z" fill="#4060B4"/>
</svg>
