<svg width="512" height="448" viewBox="0 0 512 448" fill="none" xmlns="http://www.w3.org/2000/svg">
<path d="M437.388 101.696C415.237 99.8081 391.701 111.387 371.311 102.451C350.166 93.2633 343.244 67.4616 329.525 48.96C315.303 29.7032 291.766 17.7463 267.979 17.6205C244.065 17.3687 220.403 28.948 205.803 47.8272C195.482 61.1686 187.931 79.1668 171.569 83.4461C159.738 86.5926 147.529 81.0547 135.698 77.7823C97.1845 67.4616 52.7554 84.9564 31.7365 118.939C10.7176 152.922 14.7452 200.371 41.302 230.326C47.0916 236.871 54.1399 243.164 55.9019 251.723C59.4261 267.959 43.1899 280.797 32.6176 293.509C14.2418 315.661 10.8435 348.888 24.3107 374.312C37.652 399.736 67.1036 415.721 95.8 413.077C125.378 410.308 153.067 389.919 182.141 395.331C219.019 402.253 242.177 448.445 279.684 447.186C304.604 446.431 323.106 424.657 345.635 413.958C365.395 404.645 387.925 403.89 409.699 403.638C431.473 403.386 454.002 403.26 474.14 394.828C494.278 386.395 511.647 367.264 511.017 345.49C510.388 323.212 492.39 306.095 476.909 289.985C461.428 274 446.45 252.352 453.121 231.207C456.771 219.502 466.462 210.944 474.392 201.504C502.333 169.158 483.202 105.724 437.388 101.696Z" fill="#DCE9FD"/>
<path d="M373.069 311.76C370.175 310.753 366.651 311.131 364.007 313.774C361.742 316.165 360.483 319.815 359.476 323.213C357.463 330.513 356.078 337.813 355.449 345.239C355.323 346.749 355.197 348.512 356.078 349.518C357.337 351.029 359.602 349.518 361.238 348.008C366.902 342.596 371.937 335.925 375.964 328.625C377.223 326.234 380.873 320.57 380.495 317.927C380.244 314.907 374.957 312.515 373.069 311.76Z" fill="black"/>
<path d="M370.301 311.256C368.162 311.13 365.77 311.885 364.008 313.773C361.743 316.164 360.484 319.814 359.477 323.212C357.464 330.512 356.079 337.812 355.45 345.238C355.324 346.748 355.198 348.511 356.079 349.517C356.96 350.524 358.471 350.147 359.729 349.14C359.226 335.924 362.876 322.331 370.301 311.256Z" fill="white"/>
<path d="M368.29 326.987C368.038 326.862 367.661 326.736 367.283 326.862C367.032 326.987 367.032 327.365 367.157 327.617C367.283 327.868 367.409 328.12 367.535 328.246C369.297 330.134 370.933 332.148 372.695 334.036C373.199 333.281 373.576 332.525 374.08 331.77C372.569 329.756 370.556 328.12 368.29 326.987Z" fill="white"/>
<path d="M365.018 332.021C365.144 332.273 365.27 332.525 365.396 332.651C366.906 334.413 368.542 336.175 370.053 337.937C370.556 337.182 371.06 336.552 371.563 335.797C370.053 334.035 368.165 332.525 366.025 331.392C365.773 331.266 365.396 331.14 365.018 331.266C364.892 331.518 364.892 331.77 365.018 332.021Z" fill="white"/>
<path d="M368.917 339.574C367.532 338.19 366.022 337.057 364.386 336.176C364.134 336.05 363.757 335.924 363.379 336.05C363.127 336.176 363.127 336.553 363.253 336.805C363.379 337.057 363.505 337.308 363.631 337.434C364.889 338.819 366.022 340.203 367.281 341.588C367.784 340.958 368.288 340.329 368.917 339.574Z" fill="white"/>
<path d="M416.235 298.417C413.341 297.41 409.817 297.787 407.173 300.43C404.908 302.822 403.649 306.472 402.642 309.87C400.629 317.17 399.244 324.47 398.615 331.896C398.489 333.406 398.363 335.168 399.244 336.175C400.503 337.685 402.768 336.175 404.405 334.665C410.068 329.253 415.103 322.582 419.13 315.282C420.389 312.891 424.039 307.227 423.661 304.584C423.284 301.689 418.123 299.172 416.235 298.417Z" fill="black"/>
<path d="M413.471 298.04C411.331 297.914 408.94 298.669 407.178 300.557C404.912 302.948 403.654 306.598 402.647 309.996C400.633 317.296 399.249 324.596 398.619 332.022C398.493 333.533 398.368 335.295 399.249 336.302C400.13 337.308 401.64 336.931 402.899 335.924C402.395 322.583 406.045 309.115 413.471 298.04Z" fill="white"/>
<path d="M411.455 313.647C411.203 313.521 410.825 313.395 410.448 313.521C410.196 313.647 410.196 314.024 410.322 314.276C410.448 314.528 410.574 314.779 410.7 314.905C412.462 316.793 414.098 318.807 415.86 320.695C416.363 319.94 416.741 319.185 417.244 318.429C415.734 316.541 413.72 314.905 411.455 313.647Z" fill="#6EC55C"/>
<path d="M408.06 318.681C408.186 318.932 408.312 319.184 408.438 319.31C409.948 321.072 411.584 322.834 413.095 324.596C413.598 323.841 414.101 323.212 414.605 322.457C413.095 320.695 411.207 319.184 409.067 318.051C408.815 317.926 408.438 317.8 408.06 317.926C408.06 318.177 408.06 318.555 408.06 318.681Z" fill="#6EC55C"/>
<path d="M411.96 326.358C410.575 324.974 409.065 323.841 407.429 322.96C407.177 322.834 406.8 322.708 406.422 322.834C406.17 322.96 406.17 323.338 406.296 323.589C406.422 323.841 406.548 324.093 406.674 324.219C407.932 325.603 409.065 326.988 410.324 328.372C410.953 327.617 411.456 326.988 411.96 326.358Z" fill="#6EC55C"/>
<path d="M382.129 173.94C386.66 179.604 389.807 186.4 391.317 193.575C399.498 195.337 408.309 193.826 415.483 189.547C411.078 183.002 408.183 175.576 407.05 167.773C401.009 172.43 393.205 175.325 385.654 175.199C384.143 175.325 382.633 175.325 382.129 173.94Z" fill="#F2B186"/>
<path d="M452.237 137.944C455.635 129.512 461.173 122.338 468.221 117.177C468.977 116.674 469.732 116.17 470.613 116.296C471.494 116.422 472.123 117.303 472.627 118.058C473.759 119.946 474.64 122.086 475.144 124.351C475.647 126.491 475.899 129.008 474.892 131.022C474.137 132.532 472.752 133.665 471.494 134.672C466.208 138.7 460.544 142.475 454.88 145.748C453.118 143.608 451.104 140.587 452.237 137.944Z" fill="#FFBF95"/>
<path d="M438.014 249.836C444.936 259.905 451.859 269.974 457.522 280.924C463.06 291.748 467.214 303.579 468.095 315.787C468.221 318.053 468.221 320.57 466.71 322.206C465.326 323.591 463.312 323.968 461.298 324.094C450.726 324.472 441.16 318.305 432.35 312.389C431.469 298.041 427.945 283.189 423.666 269.47C429.707 263.932 434.993 257.262 438.014 249.836Z" fill="#476CD2"/>
<path d="M401.641 261.541C396.607 280.294 400.383 301.187 411.71 316.92C402.396 312.892 391.195 311.634 381.126 312.515C377.979 312.766 374.329 313.521 372.693 316.29C371.435 318.304 371.686 320.947 372.567 323.087C373.574 325.227 375.21 326.989 376.972 328.499C391.698 341.589 412.465 345.616 432.1 345.616C447.329 332.401 434.617 274.127 431.093 268.463C427.569 262.799 421.905 258.142 415.36 257.135C409.696 256.254 405.921 258.016 401.641 261.541Z" fill="#476CD2"/>
<path d="M395.475 189.547C404.537 190.303 413.096 185.268 418.885 178.346C419.892 177.087 420.899 175.828 421.78 174.444C426.94 166.389 431.472 157.83 436.128 149.649C439.778 143.23 444.561 136.937 450.728 133.036C454.504 130.644 459.539 132.029 461.552 136.056C461.804 136.686 462.056 137.315 462.182 137.944C465.202 149.272 455.385 160.096 449.218 170.165C446.071 175.199 442.925 180.359 440.282 185.646C436.003 194.078 435.247 203.896 438.016 212.958C440.03 219.754 458.406 261.666 451.609 270.225C446.827 276.14 408.061 280.042 399.503 278.154C390.818 276.14 393.21 256.632 390.692 248.073C387.294 236.997 385.28 230.326 378.484 221.139C370.303 210.189 351.549 188.54 346.515 184.261C334.181 173.941 322.853 164.123 319.203 148.642C318.825 147.132 317.567 141.72 320.21 138.448C320.21 138.448 320.21 138.322 320.336 138.322C322.224 135.93 325.748 135.553 328.139 137.441C335.439 143.104 340.599 147.258 353.437 159.089C357.339 163.116 379.491 188.289 395.475 189.547Z" fill="#15234A"/>
<path d="M455.641 96.1578L479.303 83.0682L481.82 91.3751L457.781 98.0458L455.641 96.1578Z" fill="#FF8000"/>
<path d="M455.641 96.1576L482.701 84.8301L484.967 93.6404L457.026 97.4162L455.641 96.1576Z" fill="white"/>
<path d="M455.641 96.1578L468.731 148.768L493.651 136.685L485.47 87.0958L455.641 96.1578Z" fill="#FF8000"/>
<path d="M461.805 128.379C464.197 125.987 466.966 123.973 469.986 122.589C470.741 122.211 471.622 121.834 472.378 121.96C472.881 121.96 473.384 122.086 473.51 122.463C473.636 122.715 473.636 123.092 473.384 123.47C473.133 123.848 473.007 123.973 472.755 124.225C470.615 126.113 468.602 128.001 466.462 129.889C466.84 132.532 465.455 135.427 463.064 136.685C461.805 134.168 461.428 131.148 461.805 128.379Z" fill="#FFBF95"/>
<path d="M327.006 139.203C325.495 132.91 325.244 126.366 326.125 120.072C326.251 119.443 326.376 118.814 326.125 118.185C325.999 117.555 325.37 117.052 324.74 117.178C324.111 117.304 323.733 118.059 323.482 118.688C322.475 121.205 321.468 123.722 320.461 126.114C318.573 121.835 314.797 118.562 310.518 116.548C308.756 115.667 306.616 116.8 306.364 118.814C305.609 122.967 306.616 127.498 308.504 131.4C310.895 136.309 314.671 140.462 318.447 144.615C319.958 146.378 321.971 148.265 324.489 147.259C325.747 146.755 326.628 145.622 327.006 144.238C327.383 142.098 327.509 141.091 327.006 139.203Z" fill="#FFBF95"/>
<path d="M372.949 154.432C371.564 159.719 373.201 165.508 376.599 170.165C379.997 174.822 384.906 178.724 390.192 181.996C393.213 183.884 404.54 187.031 408.568 180.612C410.078 178.094 410.707 175.325 410.833 172.557C411.085 165.131 408.693 157.705 403.911 151.286C402.023 148.769 399.631 146.377 396.611 144.615C386.668 138.951 375.214 145.622 372.949 154.432Z" fill="#FFBF95"/>
<path d="M387.289 182.247C386.157 178.22 383.765 174.192 382.255 171.171C381.752 171.801 380.493 171.926 379.738 171.675C378.983 171.423 378.353 170.92 377.85 170.29C376.843 169.158 376.214 167.773 375.71 166.389C375.459 165.508 375.207 164.501 375.333 163.62C375.458 162.613 376.088 161.732 376.969 161.48C377.85 161.228 379.99 163.242 380.115 164.123C380.367 161.983 378.983 158.333 377.85 156.571C384.521 151.285 393.96 148.265 402.393 149.146C405.665 145.118 407.176 139.58 407.05 134.42C407.05 132.784 406.798 131.147 406.043 129.637C405.288 128.127 404.029 126.994 402.393 126.616C401.008 126.365 399.498 126.742 398.491 127.749C397.484 128.756 397.107 130.266 397.358 131.651C397.107 128.63 395.345 126.113 393.331 123.847C391.946 122.337 390.31 121.204 388.422 120.701C386.534 120.197 384.269 120.575 382.758 121.834C381.248 123.092 380.619 125.106 380.493 126.994C380.367 128.882 380.745 130.896 381.248 132.784C379.234 131.777 376.591 131.525 374.326 131.273C372.06 131.021 369.543 131.777 368.284 133.539C366.9 135.552 367.152 138.321 368.284 140.335C369.417 142.475 371.305 144.111 373.193 145.621C369.04 148.39 366.9 153.047 367.026 158.082C367.277 162.99 369.543 167.773 372.69 171.549C375.71 175.325 383.136 179.604 387.289 182.247Z" fill="#000410"/>
<path d="M212.953 171.7L182.117 146.025L172.929 168.931L212.953 171.7Z" fill="#476CD2"/>
<path d="M212.949 171.701L178.841 146.906L169.527 169.309L212.949 171.701Z" fill="white"/>
<path d="M235.48 236.142C232.586 242.939 232.208 251.246 226.922 256.406C222.139 261.189 214.587 261.818 208.546 264.713C200.491 268.489 194.575 276.544 193.317 285.48C192.562 290.892 193.569 296.304 194.198 301.716C194.827 307.128 194.953 312.792 192.813 317.701C192.813 317.701 192.813 317.827 192.687 317.827C189.037 326.008 193.569 335.699 202.379 337.587C203.26 337.838 204.141 337.964 205.148 338.09C214.336 339.475 224.279 337.209 231.201 331.042C234.599 328.021 237.368 323.994 241.522 321.98C246.556 319.589 252.472 320.595 258.01 320.344C273.616 319.589 287.839 306.625 290.104 291.144C290.734 286.99 290.482 282.711 291.489 278.558C292.747 273.272 295.894 268.615 298.537 263.832C301.935 257.539 304.704 250.491 303.823 243.442C303.068 236.394 298.915 226.325 291.866 225.192C290.104 218.018 284.566 215.375 281.042 214.62C276.511 213.613 271.729 214.368 268.079 217.137C266.065 218.648 265.813 219.403 263.422 219.655C261.156 219.906 258.765 219.529 256.499 219.906C247.563 221.417 239.13 227.584 235.48 236.142Z" fill="#000410"/>
<path d="M289.599 255.273C289.725 259.301 288.592 263.202 287.585 267.104C286.579 271.006 285.698 275.033 286.327 278.935C286.956 282.837 289.348 286.864 293.123 288.123C290.103 291.018 285.823 292.528 281.796 292.528C277.642 292.654 273.615 291.018 270.468 288.375C273.237 287.368 273.741 283.718 273.615 280.823C273.363 274.656 272.104 268.489 269.965 262.573C275.125 258.042 282.551 255.147 289.599 255.273Z" fill="#F2B186"/>
<path d="M186.645 187.811C185.135 186.426 183.373 185.167 181.359 184.664C179.345 184.161 177.08 184.538 175.695 186.174C173.933 188.188 174.563 191.335 175.192 193.852C176.577 199.516 178.087 205.305 180.856 210.466C183.625 215.626 187.778 220.283 193.19 222.548C195.959 223.681 199.106 223.681 200.868 220.786C202.126 218.647 201.12 216.255 200.616 213.99C199.357 207.571 197.595 201.655 193.945 196.117C191.932 193.097 189.54 190.328 186.645 187.811Z" fill="#FFC49D"/>
<path d="M306.086 341.11C308.352 343.124 309.359 346.144 310.114 349.039C312.883 359.486 313.89 370.436 313.386 381.134C313.26 383.777 312.883 386.672 310.869 388.308C308.855 389.944 306.086 389.818 303.443 389.693C300.548 389.441 297.402 389.063 295.64 386.924C294.381 385.413 294.129 383.525 293.752 381.637C292.619 374.715 291.486 367.793 291.612 360.87C291.738 354.955 292.493 348.284 295.388 342.872C297.653 339.348 302.814 338.341 306.086 341.11Z" fill="#0B183E"/>
<path d="M304.326 270.502C316.283 249.735 323.205 226.199 324.464 202.286C327.484 200.523 333.903 202.286 336.295 204.803C333.526 230.982 328.869 252.127 314.646 280.068C311.122 277.802 306.591 274.152 304.326 270.502Z" fill="#FFC49D"/>
<path d="M245.799 268.236C226.668 253.888 210.935 235.009 200.489 213.487C196.964 212.983 191.678 217.137 190.671 220.535C203.509 243.442 216.095 261.188 240.261 281.2C242.4 277.55 245.044 272.39 245.799 268.236Z" fill="#FFC49D"/>
<path d="M263.799 418.011C263.799 418.011 262.792 409.075 255.995 409.201C249.199 409.453 236.739 436.765 236.487 440.666C236.235 444.568 238.375 449.854 258.009 428.71C264.68 419.648 263.799 418.011 263.799 418.011Z" fill="#F97C00"/>
<path d="M250.835 410.586C250.835 410.586 247.563 402.153 241.018 404.041C234.599 405.929 229.565 435.758 230.32 439.534C231.075 443.31 234.473 447.967 247.94 422.417C252.22 411.97 250.835 410.586 250.835 410.586Z" fill="#FF8000"/>
<path d="M296.397 357.723C296.397 357.723 326.729 474.649 275.881 431.227C259.393 371.442 257.38 345.137 264.805 342.368C272.357 339.474 294.131 348.158 296.397 357.723Z" fill="#3E64CE"/>
<path d="M252.725 346.522C252.725 346.522 231.958 364.142 256.375 410.334C247.062 409.075 243.16 408.572 240.139 413.48C237.119 418.389 253.606 431.478 278.527 435.003C278.527 435.003 298.161 441.17 294.763 417.885C291.365 394.601 282.932 371.442 273.241 348.661C261.284 336.956 252.725 346.522 252.725 346.522Z" fill="#476CD2"/>
<path d="M327.613 270.879C321.697 262.95 314.02 256.531 305.209 252.126C301.811 265.089 298.539 276.165 289.351 283.591C282.051 289.507 274.373 283.088 267.828 278.808C258.137 272.389 249.327 265.467 240.768 257.538C232.839 266.851 230.699 269.62 225.413 280.57C232.084 284.598 237.496 287.619 242.908 291.017C248.949 294.919 253.103 301.212 254.11 308.386C255.997 320.972 255.368 334.187 252.599 346.522L296.273 357.723C300.552 342.368 303.447 326.762 304.832 310.903C305.461 303.981 307.978 297.31 312.258 291.646C317.418 284.724 322.578 277.801 327.613 270.879Z" fill="#FF8000"/>
<path d="M239.13 412.851C240.137 410.585 241.144 408.446 242.528 406.432C243.158 405.551 243.913 404.796 244.668 404.041C243.535 403.663 242.402 403.663 241.018 404.041C234.599 405.928 229.565 435.758 230.32 439.534C230.697 441.044 231.327 442.68 232.963 442.554C232.459 437.771 232.963 432.863 233.97 428.206C235.103 422.92 236.99 417.759 239.13 412.851Z" fill="white"/>
<path d="M327.233 205.935C321.066 197.88 313.388 190.832 304.704 185.419C303.949 184.916 303.067 184.035 303.571 183.28C303.949 182.902 304.578 182.902 305.081 182.902C310.116 183.657 314.773 186.049 318.423 189.573C317.164 187.182 316.409 184.538 315.15 182.021C314.898 181.644 314.773 181.014 314.898 180.637C315.276 180.007 316.157 180.259 316.786 180.637C320.562 182.651 323.583 186.049 324.967 190.076C336.547 191.083 337.428 203.418 336.169 204.928C334.91 206.312 329.121 206.312 327.233 205.935Z" fill="#FFC49D"/>
<path d="M267.075 278.305C270.725 292.528 278.151 322.357 305.463 354.074C304.33 356.843 298.415 358.731 298.415 358.731C273.494 333.307 263.299 292.528 261.034 274.152C262.166 272.893 266.32 275.033 267.075 278.305Z" fill="#15234A"/>
<path d="M302.312 339.6C307.22 352.941 309.108 367.415 307.724 381.512C307.724 381.763 307.975 382.141 308.227 382.141C308.605 382.141 308.856 381.889 308.856 381.637C310.241 367.541 308.479 353.193 303.696 339.851C303.193 339.726 302.815 339.6 302.312 339.6Z" fill="#F0F6FF"/>
<path d="M212.951 171.701L178.968 232.996L147.629 211.347L175.57 148.165L212.951 171.701Z" fill="#476CD2"/>
<path d="M196.587 209.837C194.825 204.676 191.427 200.145 187.148 196.873C186.644 196.495 186.141 196.118 185.512 195.992C184.882 195.866 184.253 195.992 183.875 196.495C183.498 196.999 183.498 197.754 183.624 198.509C184.127 200.775 187.777 206.061 189.665 207.571C189.162 211.221 192.308 215.249 193.063 215.375C194.196 215.5 195.329 214.619 195.832 213.613C196.336 212.606 196.965 210.844 196.587 209.837Z" fill="#FFC49D"/>
<path d="M257.001 253.636C258.637 261.062 261.406 267.733 266.314 273.648C268.202 275.914 272.23 278.305 275.502 278.431C278.271 278.557 280.788 276.92 282.676 275.033C288.088 269.746 290.228 262.572 291.612 255.524C292.493 251.119 293.123 246.714 292.619 242.309C292.116 237.903 290.354 233.624 286.83 230.603C283.557 227.709 278.775 226.198 273.992 226.576C259.014 227.709 254.609 242.686 257.001 253.636Z" fill="#FFC49D"/>
<path d="M288.344 284.347C288.344 284.347 286.582 306.498 273.619 282.585C276.765 281.2 288.344 284.347 288.344 284.347Z" fill="#F2B186"/>
<path d="M277.895 245.204C277.769 248.98 279.279 252.504 282.677 254.266C285.698 249.609 288.97 251.119 289.096 255.147C289.096 256.657 289.096 260.181 286.579 262.321C285.698 263.076 284.314 263.076 283.558 262.321C284.314 266.223 286.831 269.369 290.103 271.635C292.872 265.593 295.138 259.175 295.767 252.504C296.396 245.833 295.389 238.911 292.117 233.121C288.845 227.332 282.929 222.801 276.384 221.92C269.839 221.039 262.539 224.185 259.393 229.975C258.008 232.492 257.379 235.387 256.498 238.282C255.617 241.05 253.352 243.064 251.967 245.582C244.164 260.559 266.693 257.916 277.895 245.204Z" fill="#000410"/>
<path d="M206.588 115.919C186.073 123.597 164.676 128.631 142.902 130.771C142.902 136.183 144.539 141.343 147.056 146C163.921 143.609 180.283 138.448 196.016 131.904C199.666 130.393 203.442 128.757 205.959 125.611C208.476 122.59 209.106 118.814 206.588 115.919Z" fill="#FFBF95"/>
<path d="M70.7797 124.856C55.6763 108.494 42.4608 90.244 31.6367 70.7354C36.4195 70.232 42.8384 70.7354 45.7332 74.5113C54.1659 85.5871 66.1228 98.8025 76.821 110.885C77.4503 111.515 78.0796 112.27 78.2055 113.151C78.4572 114.409 77.702 115.668 76.9469 116.801C74.9331 120.073 73.2969 122.087 70.7797 124.856Z" fill="#FFBF95"/>
<path d="M128.301 107.361C123.393 113.528 119.995 120.828 118.358 128.631C109.548 130.519 99.9826 128.883 92.1792 124.352C96.8361 117.304 100.108 109.249 101.367 100.816C107.912 105.85 116.345 108.997 124.651 108.871C126.162 108.871 127.798 108.871 128.301 107.361Z" fill="#F2B186"/>
<path d="M138.494 95.9075C137.99 101.823 134.089 106.983 128.928 110.507C123.768 114.032 119.111 116.801 110.678 117.43C106.147 117.682 94.1904 117.178 92.5542 109.123C91.9249 105.976 92.3025 102.956 93.3094 100.061C95.8266 92.3834 100.987 85.7127 108.287 81.0559C111.182 79.1679 114.454 77.6576 118.104 77.0283C130.313 75.0145 139.375 86.0903 138.494 95.9075Z" fill="#FFBF95"/>
<path d="M33.9003 75.2661C29.2434 69.0988 27.2297 61.0437 28.4883 53.3662C28.6141 52.3593 28.8659 51.3524 29.621 50.8489C30.3762 50.3455 31.7607 50.7231 31.7607 51.7299C32.8934 49.0869 34.152 45.0593 37.802 42.2903C39.3124 41.1576 41.452 40.9059 42.9623 41.9127C44.9761 43.4231 44.5985 46.4438 44.221 48.8351C42.5848 57.5196 41.452 66.9592 45.7313 74.5109C42.7106 77.9092 36.5434 78.7902 33.9003 75.2661Z" fill="#FFBF95"/>
<path d="M77.0787 266.45C78.4632 267.457 79.2184 269.219 79.7218 270.855C83.3718 282.686 84.6304 295.273 83.3718 307.607C83.246 308.866 81.7356 309.495 80.7287 308.74C78.8408 307.229 77.3305 305.09 76.0719 302.95C70.9115 294.14 66.884 284.574 64.2409 274.757C63.7374 272.869 62.7305 269.974 63.3598 267.961C63.8633 265.947 64.4926 266.45 66.2546 266.45C69.527 266.45 74.0581 264.311 77.0787 266.45Z" fill="#476CD2"/>
<path d="M77.0769 266.45C76.07 265.695 74.8113 265.443 73.5527 265.569C73.5527 265.695 73.5527 265.821 73.5527 265.947C74.4338 269.848 75.8182 273.75 76.6993 277.652C78.4613 285.455 79.5941 293.51 79.9717 301.439C79.9717 301.943 80.0975 305.341 80.2234 308.488C80.3493 308.614 80.4751 308.739 80.601 308.865C81.6079 309.62 83.1182 308.991 83.2441 307.733C84.5027 295.398 83.2441 282.812 79.5941 270.981C79.0906 269.219 78.4613 267.457 77.0769 266.45Z" fill="white"/>
<path d="M74.0596 299.425C74.6889 300.684 75.444 301.817 76.0734 303.075C76.9544 304.586 77.9613 306.096 79.094 307.355C79.094 304.208 78.7164 300.936 77.5837 298.041C76.3251 298.167 75.1923 298.796 74.0596 299.425Z" fill="#476CD2"/>
<path d="M69.0246 288.98C69.0246 288.98 69.1505 288.98 69.0246 288.98C70.6608 287.847 72.1711 286.714 73.6815 285.581C74.059 285.33 74.4366 284.952 74.3108 284.449C74.1849 284.071 73.9332 283.945 73.5556 283.945C73.178 283.945 72.9263 284.071 72.5487 284.197C71.0384 284.952 69.528 285.959 68.1436 286.966C68.5211 287.721 68.7729 288.35 69.0246 288.98Z" fill="#476CD2"/>
<path d="M75.0644 288.98C75.442 288.728 75.8196 288.35 75.6937 287.847C75.5678 287.469 75.3161 287.343 74.9385 287.343C74.5609 287.343 74.3092 287.469 73.9316 287.595C72.4213 288.35 71.0368 289.357 69.6523 290.364C69.9041 290.993 70.1558 291.623 70.5334 292.252C72.0437 291.245 73.554 290.112 75.0644 288.98Z" fill="#476CD2"/>
<path d="M76.4508 293.007C76.8284 292.755 77.206 292.378 77.0802 291.874C76.9543 291.497 76.7026 291.371 76.325 291.371C75.9474 291.371 75.6957 291.497 75.3181 291.623C73.9336 292.378 72.5491 293.259 71.2905 294.14C71.5423 294.769 71.9198 295.398 72.1716 296.028C73.6819 295.021 75.0664 294.014 76.4508 293.007Z" fill="#476CD2"/>
<path d="M163.165 234.103C164.927 234.229 166.311 235.488 167.696 236.621C176.884 245.053 184.309 255.248 189.344 266.576C189.847 267.708 188.84 268.967 187.582 268.841C185.191 268.589 182.799 267.331 180.659 266.198C171.723 261.164 163.542 254.996 156.242 247.696C154.858 246.312 152.592 244.298 152.089 242.284C151.585 240.271 152.341 240.396 153.851 239.515C156.62 237.879 159.515 233.852 163.165 234.103Z" fill="#476CD2"/>
<path d="M163.164 234.103C161.905 233.977 160.772 234.481 159.64 235.11C159.766 235.236 159.766 235.236 159.891 235.362C162.66 238.257 165.807 240.9 168.45 243.92C173.862 249.836 178.896 256.129 183.302 262.8C183.553 263.303 185.315 266.072 187.077 268.841C187.203 268.841 187.455 268.967 187.581 268.967C188.84 269.093 189.846 267.834 189.343 266.701C184.309 255.374 176.883 245.053 167.695 236.746C166.31 235.488 164.926 234.229 163.164 234.103Z" fill="white"/>
<path d="M177.008 264.183C178.141 264.939 179.399 265.568 180.658 266.323C182.168 267.204 183.804 267.959 185.441 268.463C183.93 265.694 181.916 263.177 179.525 261.163C178.392 261.918 177.637 263.051 177.008 264.183Z" fill="#476CD2"/>
<path d="M167.445 257.64C167.571 257.64 167.571 257.64 167.445 257.64C168.2 255.877 168.955 254.115 169.711 252.353C169.836 251.976 170.088 251.472 169.711 251.095C169.459 250.843 169.081 250.843 168.704 250.969C168.452 251.095 168.2 251.472 167.948 251.724C166.942 253.109 166.312 254.745 165.557 256.381C166.438 256.758 166.942 257.262 167.445 257.64Z" fill="#476CD2"/>
<path d="M172.729 254.619C172.854 254.241 173.106 253.738 172.729 253.36C172.477 253.109 172.099 253.109 171.722 253.235C171.47 253.36 171.218 253.738 170.967 253.99C169.96 255.374 169.33 257.01 168.575 258.521C169.079 258.898 169.708 259.402 170.211 259.779C171.218 258.017 171.973 256.381 172.729 254.619Z" fill="#476CD2"/>
<path d="M176.006 257.388C176.131 257.01 176.383 256.507 176.006 256.129C175.754 255.877 175.376 255.877 174.999 256.003C174.747 256.129 174.495 256.507 174.244 256.758C173.362 258.143 172.607 259.527 171.978 261.038C172.607 261.415 173.111 261.793 173.74 262.171C174.495 260.534 175.25 258.898 176.006 257.388Z" fill="#476CD2"/>
<path d="M145.293 239.893C145.293 239.893 148.943 252.983 159.138 260.283C162.914 256.255 153.852 239.516 145.293 239.893Z" fill="#33586B"/>
<path d="M57.4401 199.492C34.5333 212.708 15.7799 232.971 4.32654 256.885C1.8093 262.171 -0.456205 268.213 1.68344 273.625C4.07481 280.169 11.6265 283.19 18.5489 284.575C34.4075 287.721 50.7694 286.462 67.0056 285.078C68.6418 278.911 67.6349 271.359 63.6073 266.325C53.035 265.066 41.3298 263.807 30.6316 263.43C39.4419 255.626 56.4332 249.082 67.6349 245.683C78.8366 259.654 86.1365 271.988 97.2124 285.959C99.1003 288.225 101.114 290.616 103.883 291.497C106.652 292.252 109.673 291.371 112.316 290.364C130.943 283.19 147.809 271.359 160.898 256.13C156.745 251.347 152.214 245.432 147.935 240.775C137.236 246.69 126.035 252.102 115.462 258.018C113.323 236.873 108.792 224.539 102.373 211.197C86.1366 203.268 74.809 203.771 57.4401 199.492Z" fill="black"/>
<path d="M4.32653 256.884C1.8093 262.17 -0.456204 268.211 1.68344 273.623C4.07481 280.168 11.6265 283.189 18.5489 284.573C34.4074 287.72 50.7694 286.461 67.0056 285.077C68.6418 278.91 67.6349 271.358 63.6073 266.323C53.035 265.065 41.3298 263.806 30.6316 263.429C39.4419 255.625 56.4332 249.08 67.6349 245.682C67.6349 245.682 56.4332 225.796 70.278 210.944C69.7745 207.546 69.0194 204.525 67.8866 201.756C64.7401 201.127 61.3418 200.498 57.6918 199.617C34.5333 212.706 15.7799 232.97 4.32653 256.884Z" fill="#000D13"/>
<path d="M137.614 203.394C135.222 211.071 130.943 219.252 123.14 221.392C117.853 222.776 112.19 220.888 107.029 218.875C97.8414 215.225 88.6536 210.945 81.1019 204.4C73.676 197.856 68.0123 188.668 67.7605 178.725C67.5088 169.537 71.7881 160.601 78.0812 153.93C84.3743 147.259 92.4294 142.477 100.862 138.575C107.281 135.554 114.078 133.037 121.126 132.156C126.412 131.527 131.95 131.778 137.11 133.54C139.879 134.421 141.138 134.799 141.893 137.316C142.774 140.085 142.396 143.735 142.522 146.63C143.277 158.713 143.403 170.921 141.893 183.004C141.012 189.801 139.627 196.723 137.614 203.394Z" fill="#172A5F"/>
<path d="M133.715 200.372L132.456 200.121C132.582 199.743 139.253 160.978 135.477 147.007L136.735 146.63C140.637 160.852 133.966 198.736 133.715 200.372Z" fill="#F0F6FF"/>
<path d="M56.9389 263.681C56.9389 263.681 52.6596 277.274 60.463 287.972C64.113 284.323 62.6027 272.995 62.6027 272.995C62.6027 272.995 61.0924 266.45 56.9389 263.681Z" fill="#010E35"/>
<path d="M67.1323 286.965C69.3978 279.161 68.1392 270.603 64.1116 263.554C61.7202 263.303 59.3289 263.554 56.9375 263.68C60.3358 271.232 61.5944 279.791 60.4616 287.972C62.4754 287.846 65.1185 287.342 67.1323 286.965Z" fill="#000A27"/>
<path d="M164.547 256.255C163.289 248.2 158.38 241.152 151.583 236.621C149.318 237.502 147.304 238.76 145.165 239.893C151.583 245.179 156.366 252.353 159.009 260.283C160.771 259.024 162.911 257.514 164.547 256.255Z" fill="#000A27"/>
<path d="M153.093 124.73C152.338 124.855 150.198 125.611 149.443 125.736C131.319 128.128 111.811 128.128 96.3296 118.437C89.1555 113.905 80.2193 106.354 71.6607 97.7952C66.3745 101.193 61.8435 105.599 58.3194 110.759C56.6832 113.15 55.4246 115.668 54.2918 118.311C58.697 123.345 63.1021 127.624 67.1297 130.771C71.9124 134.421 73.5486 140.966 70.9055 146.504C62.4728 163.998 56.9349 178.347 53.0332 199.617C68.0107 213.84 89.5331 221.14 110.048 222.776C116.216 199.743 122.257 187.66 125.655 168.907C127.543 158.335 135.598 152.167 146.171 149.776C148.185 149.273 153.345 149.524 155.359 149.147C151.331 140.211 151.583 128.505 153.093 124.73Z" fill="#476CD2"/>
<path d="M119.493 126.366C112.948 138.575 111.941 150.657 109.802 164.125C107.788 177.592 108.795 197.226 115.717 209.183C119.619 208.931 124.905 205.155 127.8 202.512C121.633 197.1 117.102 166.012 130.821 126.995C128.429 124.982 121.884 124.478 119.493 126.366Z" fill="#15234A"/>
<path d="M61.5918 167.774C61.5918 167.774 71.5348 139.833 91.4209 115.038C89.7847 111.136 85.2537 110.255 85.2537 110.255C85.2537 110.255 42.7125 163.998 55.928 185.772L61.5918 167.774Z" fill="#15234A"/>
<path d="M125.787 101.822C131.073 90.2432 117.731 81.1812 110.18 79.7967C111.564 75.6433 114.711 70.1054 118.361 67.714C122.011 65.3226 127.423 65.3226 130.318 68.595C132.583 71.2381 132.835 75.014 133.968 78.2864C135.226 82.1881 137.869 85.5864 140.009 89.1105C142.149 92.6346 143.785 96.9139 142.778 100.941C141.519 106.228 136.233 109.374 131.324 111.891C126.416 114.409 120.752 119.947 119.116 125.233C117.606 120.576 117.857 112.898 119.116 108.116C121.13 109.248 123.395 109.626 125.787 109.248C128.052 108.871 130.192 107.235 130.947 105.095C131.45 103.081 128.807 100.564 125.787 101.822Z" fill="black"/>
<path d="M199.664 118.184C201.929 113.653 203.062 108.619 202.81 103.585C202.81 102.704 202.81 101.445 203.691 101.193C204.195 101.067 204.698 101.193 205.076 101.571C205.454 101.948 205.705 102.452 205.831 102.955C206.586 105.095 206.964 107.486 206.838 109.752C209.985 106.479 212.628 102.452 214.516 98.2983C214.893 97.4173 215.271 96.6621 215.774 95.907C216.403 95.2777 217.285 94.7742 218.166 94.9001C219.676 95.1518 220.305 96.788 220.557 98.2983C221.312 102.452 220.934 106.857 219.55 110.885C220.305 113.15 219.047 115.541 217.662 117.429C215.271 120.953 206.712 126.617 202.81 128.631C201.174 129.512 201.048 127.624 199.286 127.372C197.398 127.121 199.286 125.988 198.657 124.226C197.776 121.583 198.657 123.219 198.405 120.45L199.664 118.184Z" fill="#FFBF95"/>
<path d="M266.592 76.398L299.316 86.0893L296.547 94.522L267.599 79.5445L266.592 76.398Z" fill="#78B8D6"/>
<path d="M266.592 76.398L301.708 90.3686L298.435 99.053L267.096 78.4117L266.592 76.398Z" fill="white"/>
<path d="M266.591 76.398L246.957 128.127L280.184 139.706L303.091 94.3962L266.591 76.398Z" fill="#9FD1EA"/>
<path d="M127.267 366.131L144.51 336.68L152.061 341.337L130.539 366.005L127.267 366.131Z" fill="#78B8D6"/>
<path d="M127.267 366.131L149.167 335.421L156.97 340.707L129.406 366.131H127.267Z" fill="white"/>
<path d="M127.267 366.131L172.828 397.597L192.085 368.019L153.446 335.043L127.267 366.131Z" fill="#9FD1EA"/>
<path d="M148.408 3.39872L128.396 31.0883L135.822 36.1227L149.541 6.54525L148.408 3.39872Z" fill="#CF8431"/>
<path d="M148.409 3.39872L129.152 35.871L137.082 40.7796L149.164 5.4125L148.409 3.39872Z" fill="white"/>
<path d="M148.408 3.39872L195.606 32.3469L176.349 61.9243L130.536 39.8986L148.408 3.39872Z" fill="#F79E3A"/>
<path d="M416.241 34.3605L403.025 2.89516L394.844 6.41928L412.968 33.6054L416.241 34.3605Z" fill="#5474AB"/>
<path d="M416.24 34.3605L398.494 0.881376L390.187 5.16067L414.101 33.983L416.24 34.3605Z" fill="white"/>
<path d="M416.242 34.3602L366.904 59.4067L351.801 27.5637L394.342 0L416.242 34.3602Z" fill="#708FC5"/>
<path d="M407.434 425.034L423.922 395.205L415.992 390.926L405.923 422.014L407.434 425.034Z" fill="#5474AB"/>
<path d="M407.435 425.034L422.664 390.423L414.231 386.521L406.302 423.021L407.435 425.034Z" fill="white"/>
<path d="M407.433 425.034L357.088 401.876L372.695 370.158L420.774 386.52L407.433 425.034Z" fill="#708FC5"/>
</svg>
