<svg width="1440" height="344" viewBox="0 0 1440 344" fill="none" xmlns="http://www.w3.org/2000/svg">
<path d="M1440 0H0V344H1440V0Z" fill="#15234A"/>
<g opacity="0.3">
<mask id="mask0_2_63496" style="mask-type:alpha" maskUnits="userSpaceOnUse" x="0" y="0" width="1440" height="344">
<path d="M1440 0H0V344H1440V0Z" fill="#15234A"/>
</mask>
<g mask="url(#mask0_2_63496)">
<path d="M1044.57 3.58361C1044.86 3.58361 1044.86 3.58361 1044.57 3.58361C1044.86 3.46417 1044.86 3.34473 1044.57 3.34473C1044.57 3.34473 1044.29 3.46417 1044.57 3.58361C1044.57 3.58361 1044.29 3.58361 1044.57 3.58361Z" fill="#FF7200"/>
<path d="M1060.57 3.82213C1061.15 3.82213 1061.43 3.70269 1061.43 3.46381C1061.43 3.22492 1061.15 3.10547 1060.57 3.10547C1060 3.10547 1059.72 3.22492 1059.72 3.46381C1059.72 3.70269 1060 3.82213 1060.57 3.82213Z" fill="#FF7200"/>
<path d="M1076.57 4.06066C1077.36 4.06066 1078 3.79327 1078 3.46343C1078 3.1336 1077.36 2.86621 1076.57 2.86621C1075.78 2.86621 1075.14 3.1336 1075.14 3.46343C1075.14 3.79327 1075.78 4.06066 1076.57 4.06066Z" fill="#FF7200"/>
<path d="M1092.29 4.29918C1093.43 4.29918 1094.29 3.94085 1094.29 3.46307C1094.29 2.98529 1093.43 2.62695 1092.29 2.62695C1091.14 2.62695 1090.29 2.98529 1090.29 3.46307C1090.57 3.94085 1091.43 4.29918 1092.29 4.29918Z" fill="#FF7200"/>
<path d="M1108.29 4.53807C1109.71 4.53807 1110.57 4.06029 1110.57 3.58251C1110.57 3.10473 1109.43 2.62695 1108.29 2.62695C1106.86 2.62695 1106 3.10473 1106 3.58251C1106 4.06029 1106.86 4.53807 1108.29 4.53807Z" fill="#FF7200"/>
<path d="M1124 4.65842C1125.58 4.65842 1126.86 4.12365 1126.86 3.46398C1126.86 2.8043 1125.58 2.26953 1124 2.26953C1122.42 2.26953 1121.14 2.8043 1121.14 3.46398C1121.14 4.12365 1122.42 4.65842 1124 4.65842Z" fill="#FF7200"/>
<path d="M1140 4.89694C1142 4.89694 1143.43 4.29972 1143.43 3.46361C1143.43 2.6275 1142 2.03027 1140 2.03027C1138 2.03027 1136.57 2.6275 1136.57 3.46361C1136.57 4.29972 1138 4.89694 1140 4.89694Z" fill="#FF7200"/>
<path d="M1156 5.13546C1158.29 5.13546 1160 4.4188 1160 3.46324C1160 2.50768 1158.29 1.79102 1156 1.79102C1153.72 1.79102 1152 2.50768 1152 3.46324C1152 4.4188 1153.72 5.13546 1156 5.13546Z" fill="#FF7200"/>
<path d="M1171.72 5.37495C1174.24 5.37495 1176.29 4.51932 1176.29 3.46384C1176.29 2.40837 1174.24 1.55273 1171.72 1.55273C1169.19 1.55273 1167.14 2.40837 1167.14 3.46384C1167.14 4.51932 1169.19 5.37495 1171.72 5.37495Z" fill="#FF7200"/>
<path d="M1187.72 5.49471C1190.57 5.49471 1192.57 4.53915 1192.57 3.46415C1192.57 2.38915 1190.29 1.43359 1187.72 1.43359C1184.86 1.43359 1182.86 2.38915 1182.86 3.46415C1182.86 4.53915 1184.86 5.49471 1187.72 5.49471Z" fill="#FF7200"/>
<path d="M1203.72 5.61445C1206.56 5.61445 1208.86 4.65187 1208.86 3.46446C1208.86 2.27704 1206.56 1.31445 1203.72 1.31445C1200.87 1.31445 1198.57 2.27704 1198.57 3.46446C1198.57 4.65187 1200.87 5.61445 1203.72 5.61445Z" fill="#FF7200"/>
<path d="M1219.43 5.49471C1222.11 5.49471 1224.29 4.5856 1224.29 3.46415C1224.29 2.34271 1222.11 1.43359 1219.43 1.43359C1216.75 1.43359 1214.57 2.34271 1214.57 3.46415C1214.57 4.5856 1216.75 5.49471 1219.43 5.49471Z" fill="#FF7200"/>
<path d="M1235.43 5.37495C1238 5.37495 1240 4.53884 1240 3.46384C1240 2.38884 1238 1.55273 1235.43 1.55273C1232.86 1.55273 1230.86 2.38884 1230.86 3.46384C1230.86 4.53884 1232.86 5.37495 1235.43 5.37495Z" fill="#FF7200"/>
<path d="M1251.14 5.13546C1253.43 5.13546 1255.14 4.4188 1255.14 3.46324C1255.14 2.50768 1253.43 1.79102 1251.14 1.79102C1248.86 1.79102 1247.14 2.50768 1247.14 3.46324C1247.14 4.4188 1249.14 5.13546 1251.14 5.13546Z" fill="#FF7200"/>
<path d="M1267.14 4.89694C1269.04 4.89694 1270.57 4.25522 1270.57 3.46361C1270.57 2.672 1269.04 2.03027 1267.14 2.03027C1265.25 2.03027 1263.71 2.672 1263.71 3.46361C1263.71 4.25522 1265.25 4.89694 1267.14 4.89694Z" fill="#FF7200"/>
<path d="M1283.14 4.65842C1284.72 4.65842 1286 4.12365 1286 3.46398C1286 2.8043 1284.72 2.26953 1283.14 2.26953C1281.56 2.26953 1280.29 2.8043 1280.29 3.46398C1280.29 4.12365 1281.56 4.65842 1283.14 4.65842Z" fill="#FF7200"/>
<path d="M1298.86 4.53868C1300.29 4.53868 1301.43 4.0609 1301.43 3.46367C1301.43 2.86645 1300.29 2.38867 1298.86 2.38867C1297.43 2.38867 1296.29 2.86645 1296.29 3.46367C1296.57 4.0609 1297.72 4.53868 1298.86 4.53868Z" fill="#FF7200"/>
<path d="M1314.86 4.29918C1315.96 4.29918 1316.86 3.92484 1316.86 3.46307C1316.86 3.0013 1315.96 2.62695 1314.86 2.62695C1313.75 2.62695 1312.86 3.0013 1312.86 3.46307C1312.86 3.92484 1313.75 4.29918 1314.86 4.29918Z" fill="#FF7200"/>
<path d="M1330.86 4.06066C1331.71 4.06066 1332.29 3.82177 1332.29 3.46343C1332.29 3.1051 1331.71 2.86621 1330.86 2.86621C1330 2.86621 1329.43 3.1051 1329.43 3.46343C1329.43 3.82177 1330 4.06066 1330.86 4.06066Z" fill="#FF7200"/>
<path d="M1346.57 3.82213C1347.14 3.82213 1347.43 3.70269 1347.43 3.46381C1347.43 3.22492 1347.14 3.10547 1346.57 3.10547C1346 3.10547 1345.71 3.22492 1345.71 3.46381C1345.71 3.70269 1346.29 3.82213 1346.57 3.82213Z" fill="#FF7200"/>
<path d="M1362.57 3.58361C1362.73 3.58361 1362.86 3.53014 1362.86 3.46417C1362.86 3.3982 1362.73 3.34473 1362.57 3.34473C1362.41 3.34473 1362.29 3.3982 1362.29 3.46417C1362.29 3.53014 1362.41 3.58361 1362.57 3.58361Z" fill="#FF7200"/>
<path d="M1044.57 10.2721C1044.86 10.2721 1044.86 10.2721 1044.86 10.1526C1044.86 10.0332 1044.86 10.0332 1044.57 10.0332C1044.29 10.0332 1044.29 10.0332 1044.29 10.1526L1044.57 10.2721Z" fill="#FF7200"/>
<path d="M1060.57 10.5116C1061.15 10.5116 1061.43 10.3921 1061.43 10.1533C1061.43 9.91437 1061.15 9.79492 1060.57 9.79492C1060 9.79492 1059.72 9.91437 1059.72 10.1533C1059.72 10.2727 1060 10.5116 1060.57 10.5116Z" fill="#FF7200"/>
<path d="M1076.57 10.7501C1077.36 10.7501 1078 10.4827 1078 10.1529C1078 9.82305 1077.36 9.55566 1076.57 9.55566C1075.78 9.55566 1075.14 9.82305 1075.14 10.1529C1075.14 10.4827 1075.78 10.7501 1076.57 10.7501Z" fill="#FF7200"/>
<path d="M1092.29 10.9886C1093.43 10.9886 1094.29 10.6303 1094.29 10.1525C1094.29 9.67474 1093.43 9.31641 1092.29 9.31641C1091.14 9.31641 1090.29 9.67474 1090.29 10.1525C1090.29 10.5108 1091.14 10.9886 1092.29 10.9886Z" fill="#FF7200"/>
<path d="M1108.29 11.2281C1109.71 11.2281 1110.86 10.7468 1110.86 10.1531C1110.86 9.55942 1109.71 9.07812 1108.29 9.07812C1106.87 9.07812 1105.72 9.55942 1105.72 10.1531C1105.72 10.7468 1106.87 11.2281 1108.29 11.2281Z" fill="#FF7200"/>
<path d="M1124 11.3479C1125.58 11.3479 1126.86 10.8131 1126.86 10.1534C1126.86 9.49376 1125.58 8.95898 1124 8.95898C1122.42 8.95898 1121.14 9.49376 1121.14 10.1534C1121.14 10.8131 1122.42 11.3479 1124 11.3479Z" fill="#FF7200"/>
<path d="M1140 11.5864C1142 11.5864 1143.43 10.8697 1143.43 10.1531C1143.43 9.31695 1141.71 8.71973 1140 8.71973C1138 8.71973 1136.57 9.43639 1136.57 10.1531C1136.57 10.9892 1138 11.5864 1140 11.5864Z" fill="#FF7200"/>
<path d="M1156 11.8249C1158.21 11.8249 1160 11.0762 1160 10.1527C1160 9.22915 1158.21 8.48047 1156 8.48047C1153.79 8.48047 1152 9.22915 1152 10.1527C1152 11.0762 1153.79 11.8249 1156 11.8249Z" fill="#FF7200"/>
<path d="M1171.72 12.0634C1174.24 12.0634 1176.29 11.2078 1176.29 10.1523C1176.29 9.09684 1174.24 8.24121 1171.72 8.24121C1169.19 8.24121 1167.14 9.09684 1167.14 10.1523C1167.14 11.2078 1169.19 12.0634 1171.72 12.0634Z" fill="#FF7200"/>
<path d="M1187.72 12.302C1190.56 12.302 1192.86 11.3394 1192.86 10.152C1192.86 8.96454 1190.56 8.00195 1187.72 8.00195C1184.88 8.00195 1182.57 8.96454 1182.57 10.152C1182.57 11.3394 1184.88 12.302 1187.72 12.302Z" fill="#FF7200"/>
<path d="M1203.72 12.4227C1206.71 12.4227 1209.15 11.4066 1209.15 10.1532C1209.15 8.89986 1206.71 7.88379 1203.72 7.88379C1200.72 7.88379 1198.29 8.89986 1198.29 10.1532C1198.29 11.4066 1200.72 12.4227 1203.72 12.4227Z" fill="#FF7200"/>
<path d="M1219.43 12.302C1222.27 12.302 1224.57 11.3394 1224.57 10.152C1224.57 8.96454 1222.27 8.00195 1219.43 8.00195C1216.59 8.00195 1214.29 8.96454 1214.29 10.152C1214.29 11.3394 1216.59 12.302 1219.43 12.302Z" fill="#FF7200"/>
<path d="M1235.43 12.0634C1237.95 12.0634 1240 11.2078 1240 10.1523C1240 9.09684 1237.95 8.24121 1235.43 8.24121C1232.9 8.24121 1230.86 9.09684 1230.86 10.1523C1230.86 11.2078 1232.9 12.0634 1235.43 12.0634Z" fill="#FF7200"/>
<path d="M1251.14 11.8249C1253.35 11.8249 1255.14 11.0762 1255.14 10.1527C1255.14 9.22915 1253.35 8.48047 1251.14 8.48047C1248.93 8.48047 1247.14 9.22915 1247.14 10.1527C1247.14 11.0762 1248.93 11.8249 1251.14 11.8249Z" fill="#FF7200"/>
<path d="M1267.14 11.5864C1269.04 11.5864 1270.57 10.9447 1270.57 10.1531C1270.57 9.36145 1269.04 8.71973 1267.14 8.71973C1265.25 8.71973 1263.71 9.36145 1263.71 10.1531C1263.71 10.9447 1265.25 11.5864 1267.14 11.5864Z" fill="#FF7200"/>
<path d="M1283.14 11.4657C1284.88 11.4657 1286.29 10.8774 1286.29 10.1518C1286.29 9.42614 1284.88 8.83789 1283.14 8.83789C1281.41 8.83789 1280 9.42614 1280 10.1518C1280 10.8774 1281.41 11.4657 1283.14 11.4657Z" fill="#FF7200"/>
<path d="M1298.86 11.2281C1300.29 11.2281 1301.43 10.7503 1301.43 10.1531C1301.43 9.5559 1300.29 9.07812 1298.86 9.07812C1297.43 9.07812 1296.29 9.5559 1296.29 10.1531C1296.57 10.7503 1297.43 11.2281 1298.86 11.2281Z" fill="#FF7200"/>
<path d="M1314.86 10.9886C1315.96 10.9886 1316.86 10.6143 1316.86 10.1525C1316.86 9.69074 1315.96 9.31641 1314.86 9.31641C1313.75 9.31641 1312.86 9.69074 1312.86 10.1525C1312.86 10.6143 1313.75 10.9886 1314.86 10.9886Z" fill="#FF7200"/>
<path d="M1330.86 10.7501C1331.65 10.7501 1332.29 10.4827 1332.29 10.1529C1332.29 9.82305 1331.65 9.55566 1330.86 9.55566C1330.07 9.55566 1329.43 9.82305 1329.43 10.1529C1329.43 10.4827 1330.07 10.7501 1330.86 10.7501Z" fill="#FF7200"/>
<path d="M1346.57 10.5116C1347.14 10.5116 1347.43 10.3921 1347.43 10.1533C1347.43 9.91437 1347.14 9.79492 1346.57 9.79492C1346 9.79492 1345.71 9.91437 1345.71 10.1533C1345.71 10.2727 1346 10.5116 1346.57 10.5116Z" fill="#FF7200"/>
<path d="M1362.57 10.2721C1362.86 10.2721 1362.86 10.2721 1362.86 10.1526C1362.86 10.0332 1362.86 10.0332 1362.57 10.0332C1362.29 10.0332 1362.29 10.0332 1362.29 10.1526C1362.29 10.1526 1362.29 10.2721 1362.57 10.2721Z" fill="#FF7200"/>
<path d="M1044.57 16.8414C1044.86 16.8414 1044.86 16.8414 1044.57 16.8414C1044.86 16.722 1044.86 16.6025 1044.57 16.6025C1044.57 16.6025 1044.29 16.722 1044.57 16.8414C1044.57 16.8414 1044.29 16.8414 1044.57 16.8414Z" fill="#FF7200"/>
<path d="M1060.57 17.08C1061.15 17.08 1061.43 16.9605 1061.43 16.7216C1061.43 16.4827 1061.15 16.3633 1060.57 16.3633C1060 16.3633 1059.72 16.4827 1059.72 16.7216C1059.72 16.9605 1060 17.08 1060.57 17.08Z" fill="#FF7200"/>
<path d="M1076.57 17.3194C1077.43 17.3194 1078 17.0806 1078 16.7222C1078 16.3639 1077.43 16.125 1076.57 16.125C1075.71 16.125 1075.14 16.3639 1075.14 16.7222C1075.14 17.0806 1075.71 17.3194 1076.57 17.3194Z" fill="#FF7200"/>
<path d="M1092.29 17.5589C1093.43 17.5589 1094.29 17.2006 1094.29 16.7228C1094.29 16.245 1093.43 15.8867 1092.29 15.8867C1091.14 15.8867 1090.29 16.245 1090.29 16.7228C1090.57 17.2006 1091.43 17.5589 1092.29 17.5589Z" fill="#FF7200"/>
<path d="M1108.29 17.7978C1109.72 17.7978 1110.57 17.32 1110.57 16.8423C1110.57 16.245 1109.43 15.8867 1108.29 15.8867C1106.86 15.8867 1106 16.3645 1106 16.8423C1105.72 17.32 1106.86 17.7978 1108.29 17.7978Z" fill="#FF7200"/>
<path d="M1124 18.0363C1125.72 18.0363 1126.86 17.4391 1126.86 16.8419C1126.86 16.1252 1125.43 15.6475 1124 15.6475C1122.57 15.6475 1121.15 16.2447 1121.15 16.8419C1121.15 17.4391 1122.57 18.0363 1124 18.0363Z" fill="#FF7200"/>
<path d="M1140 18.2749C1142 18.2749 1143.43 17.6776 1143.43 16.8415C1143.43 16.0054 1142 15.4082 1140 15.4082C1138 15.4082 1136.57 16.0054 1136.57 16.8415C1136.57 17.5582 1138 18.2749 1140 18.2749Z" fill="#FF7200"/>
<path d="M1156 18.3952C1158.29 18.3952 1160 17.6786 1160 16.723C1160 15.7674 1158.29 15.0508 1156 15.0508C1153.72 15.0508 1152 15.7674 1152 16.723C1152 17.6786 1153.72 18.3952 1156 18.3952Z" fill="#FF7200"/>
<path d="M1171.72 18.6328C1174.29 18.6328 1176.29 17.7967 1176.29 16.7217C1176.29 15.6467 1174.29 14.8105 1171.72 14.8105C1169.14 14.8105 1167.14 15.6467 1167.14 16.7217C1167.43 17.7967 1169.43 18.6328 1171.72 18.6328Z" fill="#FF7200"/>
<path d="M1187.72 18.8717C1190.57 18.8717 1192.57 17.9161 1192.57 16.8411C1192.57 15.6467 1190.29 14.8105 1187.72 14.8105C1184.86 14.8105 1182.86 15.7661 1182.86 16.8411C1182.86 17.9161 1184.86 18.8717 1187.72 18.8717Z" fill="#FF7200"/>
<path d="M1203.72 18.8723C1206.56 18.8723 1208.86 17.9097 1208.86 16.7223C1208.86 15.5349 1206.56 14.5723 1203.72 14.5723C1200.87 14.5723 1198.57 15.5349 1198.57 16.7223C1198.57 17.9097 1200.87 18.8723 1203.72 18.8723Z" fill="#FF7200"/>
<path d="M1219.43 18.7525C1222.11 18.7525 1224.29 17.8434 1224.29 16.722C1224.29 15.6005 1222.11 14.6914 1219.43 14.6914C1216.75 14.6914 1214.57 15.6005 1214.57 16.722C1214.57 17.8434 1216.75 18.7525 1219.43 18.7525Z" fill="#FF7200"/>
<path d="M1235.43 18.6328C1238 18.6328 1240 17.7967 1240 16.7217C1240 15.6467 1238 14.8105 1235.43 14.8105C1232.86 14.8105 1230.86 15.6467 1230.86 16.7217C1230.86 17.7967 1232.86 18.6328 1235.43 18.6328Z" fill="#FF7200"/>
<path d="M1251.14 18.3952C1253.43 18.3952 1255.14 17.6786 1255.14 16.723C1255.14 15.7674 1253.43 15.0508 1251.14 15.0508C1248.86 15.0508 1247.14 15.7674 1247.14 16.723C1247.14 17.6786 1249.14 18.3952 1251.14 18.3952Z" fill="#FF7200"/>
<path d="M1267.14 18.2749C1269.14 18.2749 1270.57 17.5582 1270.57 16.8415C1270.57 16.0054 1268.86 15.4082 1267.14 15.4082C1265.43 15.4082 1263.71 16.1249 1263.71 16.8415C1263.71 17.5582 1265.14 18.2749 1267.14 18.2749Z" fill="#FF7200"/>
<path d="M1283.14 18.0363C1284.86 18.0363 1286 17.4391 1286 16.8419C1286 16.1252 1284.57 15.6475 1283.14 15.6475C1281.43 15.6475 1280.29 16.2447 1280.29 16.8419C1280 17.4391 1281.43 18.0363 1283.14 18.0363Z" fill="#FF7200"/>
<path d="M1298.86 17.7975C1300.29 17.7975 1301.43 17.3197 1301.43 16.7225C1301.43 16.1252 1300.29 15.6475 1298.86 15.6475C1297.43 15.6475 1296.29 16.1252 1296.29 16.7225C1296.57 17.3197 1297.72 17.7975 1298.86 17.7975Z" fill="#FF7200"/>
<path d="M1314.86 17.5589C1316 17.5589 1316.86 17.2006 1316.86 16.7228C1316.86 16.245 1316 15.8867 1314.86 15.8867C1313.72 15.8867 1312.86 16.245 1312.86 16.7228C1312.86 17.2006 1313.72 17.5589 1314.86 17.5589Z" fill="#FF7200"/>
<path d="M1330.86 17.3194C1331.65 17.3194 1332.29 17.0521 1332.29 16.7222C1332.29 16.3924 1331.65 16.125 1330.86 16.125C1330.07 16.125 1329.43 16.3924 1329.43 16.7222C1329.43 17.0521 1330.07 17.3194 1330.86 17.3194Z" fill="#FF7200"/>
<path d="M1346.57 17.08C1347.14 17.08 1347.43 16.9605 1347.43 16.7216C1347.43 16.4827 1347.14 16.3633 1346.57 16.3633C1346 16.3633 1345.71 16.4827 1345.71 16.7216C1345.71 16.9605 1346.29 17.08 1346.57 17.08Z" fill="#FF7200"/>
<path d="M1362.57 16.8414C1362.86 16.8414 1362.86 16.8414 1362.86 16.722C1362.86 16.6025 1362.86 16.6025 1362.57 16.6025C1362.29 16.6025 1362.29 16.6025 1362.29 16.722C1362.29 16.8414 1362.29 16.8414 1362.57 16.8414Z" fill="#FF7200"/>
<path d="M1044.57 23.5299C1044.86 23.5299 1044.86 23.4105 1044.57 23.5299C1044.86 23.4105 1044.57 23.291 1044.57 23.291C1044.57 23.291 1044.57 23.4105 1044.57 23.5299C1044.57 23.5299 1044.57 23.4105 1044.57 23.5299Z" fill="#FF7200"/>
<path d="M1060.57 23.6497C1060.89 23.6497 1061.14 23.5427 1061.14 23.4108C1061.14 23.2788 1060.89 23.1719 1060.57 23.1719C1060.26 23.1719 1060 23.2788 1060 23.4108C1060 23.5427 1060.26 23.6497 1060.57 23.6497Z" fill="#FF7200"/>
<path d="M1076.57 23.8892C1077.2 23.8892 1077.72 23.6752 1077.72 23.4114C1077.72 23.1475 1077.2 22.9336 1076.57 22.9336C1075.94 22.9336 1075.43 23.1475 1075.43 23.4114C1075.43 23.6752 1075.94 23.8892 1076.57 23.8892Z" fill="#FF7200"/>
<path d="M1092.29 24.1277C1093.23 24.1277 1094 23.8068 1094 23.411C1094 23.0152 1093.23 22.6943 1092.29 22.6943C1091.34 22.6943 1090.57 23.0152 1090.57 23.411C1090.57 23.8068 1091.34 24.1277 1092.29 24.1277Z" fill="#FF7200"/>
<path d="M1108.29 24.3662C1109.55 24.3662 1110.57 23.9384 1110.57 23.4106C1110.57 22.8829 1109.55 22.4551 1108.29 22.4551C1107.02 22.4551 1106 22.8829 1106 23.4106C1106 23.9384 1107.02 24.3662 1108.29 24.3662Z" fill="#FF7200"/>
<path d="M1124 24.6057C1125.58 24.6057 1126.86 24.0709 1126.86 23.4112C1126.86 22.7516 1125.58 22.2168 1124 22.2168C1122.42 22.2168 1121.14 22.7516 1121.14 23.4112C1121.14 24.0709 1122.42 24.6057 1124 24.6057Z" fill="#FF7200"/>
<path d="M1140 24.8442C1141.71 24.8442 1143.43 24.247 1143.43 23.4109C1143.43 22.5748 1142 21.9775 1140 21.9775C1138.29 21.9775 1136.57 22.5748 1136.57 23.4109C1136.57 24.247 1138.29 24.8442 1140 24.8442Z" fill="#FF7200"/>
<path d="M1156 24.964C1158 24.964 1159.72 24.2473 1159.72 23.4112C1159.72 22.5751 1158 21.8584 1156 21.8584C1154 21.8584 1152.29 22.5751 1152.29 23.4112C1152 24.2473 1153.72 24.964 1156 24.964Z" fill="#FF7200"/>
<path d="M1171.71 25.2025C1174 25.2025 1176 24.3664 1176 23.4108C1176 22.4553 1174 21.6191 1171.71 21.6191C1169.43 21.6191 1167.43 22.4553 1167.43 23.4108C1167.71 24.3664 1169.43 25.2025 1171.71 25.2025Z" fill="#FF7200"/>
<path d="M1187.71 25.3222C1190.29 25.3222 1192.29 24.4861 1192.29 23.4111C1192.29 22.3361 1190.29 21.5 1187.71 21.5C1185.14 21.5 1183.14 22.3361 1183.14 23.4111C1183.14 24.4861 1185.14 25.3222 1187.71 25.3222Z" fill="#FF7200"/>
<path d="M1203.72 25.3222C1206.29 25.3222 1208.29 24.4861 1208.29 23.4111C1208.29 22.3361 1206.29 21.5 1203.72 21.5C1201.14 21.5 1199.14 22.3361 1199.14 23.4111C1199.14 24.4861 1201.14 25.3222 1203.72 25.3222Z" fill="#FF7200"/>
<path d="M1219.43 25.3222C1222 25.3222 1224 24.4861 1224 23.4111C1224 22.3361 1222 21.5 1219.43 21.5C1216.86 21.5 1214.86 22.3361 1214.86 23.4111C1214.86 24.4861 1216.86 25.3222 1219.43 25.3222Z" fill="#FF7200"/>
<path d="M1235.43 25.2025C1237.72 25.2025 1239.72 24.3664 1239.72 23.4108C1239.72 22.4553 1237.72 21.6191 1235.43 21.6191C1233.14 21.6191 1231.14 22.4553 1231.14 23.4108C1231.14 24.3664 1233.14 25.2025 1235.43 25.2025Z" fill="#FF7200"/>
<path d="M1251.14 24.964C1253.14 24.964 1254.86 24.2473 1254.86 23.4112C1254.86 22.5751 1253.14 21.8584 1251.14 21.8584C1249.14 21.8584 1247.43 22.5751 1247.43 23.4112C1247.43 24.2473 1249.14 24.964 1251.14 24.964Z" fill="#FF7200"/>
<path d="M1267.14 24.8442C1269.04 24.8442 1270.57 24.2025 1270.57 23.4109C1270.57 22.6193 1269.04 21.9775 1267.14 21.9775C1265.25 21.9775 1263.71 22.6193 1263.71 23.4109C1263.71 24.2025 1265.25 24.8442 1267.14 24.8442Z" fill="#FF7200"/>
<path d="M1283.14 24.6057C1284.72 24.6057 1286 24.0709 1286 23.4112C1286 22.7516 1284.72 22.2168 1283.14 22.2168C1281.56 22.2168 1280.29 22.7516 1280.29 23.4112C1280.29 24.0709 1281.56 24.6057 1283.14 24.6057Z" fill="#FF7200"/>
<path d="M1298.86 24.3662C1300.29 24.3662 1301.14 23.8884 1301.14 23.4106C1301.14 22.9329 1300 22.4551 1298.86 22.4551C1297.43 22.4551 1296.57 22.9329 1296.57 23.4106C1296.57 23.8884 1297.72 24.3662 1298.86 24.3662Z" fill="#FF7200"/>
<path d="M1314.86 24.1277C1315.8 24.1277 1316.57 23.8068 1316.57 23.411C1316.57 23.0152 1315.8 22.6943 1314.86 22.6943C1313.91 22.6943 1313.14 23.0152 1313.14 23.411C1313.14 23.8068 1313.91 24.1277 1314.86 24.1277Z" fill="#FF7200"/>
<path d="M1330.86 23.8892C1331.49 23.8892 1332 23.6752 1332 23.4114C1332 23.1475 1331.49 22.9336 1330.86 22.9336C1330.23 22.9336 1329.72 23.1475 1329.72 23.4114C1329.72 23.6752 1330.23 23.8892 1330.86 23.8892Z" fill="#FF7200"/>
<path d="M1346.57 23.7694C1346.86 23.7694 1347.43 23.65 1347.43 23.4111C1347.43 23.2916 1347.14 23.0527 1346.57 23.0527C1346.29 23.0527 1345.72 23.1722 1345.72 23.4111C1346 23.5305 1346.29 23.7694 1346.57 23.7694Z" fill="#FF7200"/>
<path d="M1362.57 23.5299C1362.57 23.5299 1362.86 23.5299 1362.57 23.5299C1362.86 23.4105 1362.86 23.291 1362.57 23.291C1362.29 23.291 1362.29 23.291 1362.57 23.5299C1362.29 23.5299 1362.29 23.5299 1362.57 23.5299Z" fill="#FF7200"/>
<path d="M1044.57 30.0993C1044.86 30.0993 1044.86 30.0993 1044.57 30.0993C1044.86 29.9799 1044.86 29.9799 1044.57 30.0993C1044.57 29.9799 1044.57 29.9799 1044.57 30.0993Z" fill="#FF7200"/>
<path d="M1060.57 30.3391C1060.89 30.3391 1061.14 30.2321 1061.14 30.1002C1061.14 29.9683 1060.89 29.8613 1060.57 29.8613C1060.26 29.8613 1060 29.9683 1060 30.1002C1060 30.2321 1060.26 30.3391 1060.57 30.3391Z" fill="#FF7200"/>
<path d="M1076.57 30.5786C1077.2 30.5786 1077.72 30.3647 1077.72 30.1008C1077.72 29.8369 1077.2 29.623 1076.57 29.623C1075.94 29.623 1075.43 29.8369 1075.43 30.1008C1075.43 30.3647 1075.94 30.5786 1076.57 30.5786Z" fill="#FF7200"/>
<path d="M1092.29 30.8171C1093.23 30.8171 1094 30.4963 1094 30.1005C1094 29.7046 1093.23 29.3838 1092.29 29.3838C1091.34 29.3838 1090.57 29.7046 1090.57 30.1005C1090.57 30.4963 1091.34 30.8171 1092.29 30.8171Z" fill="#FF7200"/>
<path d="M1108.29 30.9359C1109.43 30.9359 1110.29 30.5776 1110.29 30.0998C1110.29 29.622 1109.43 29.2637 1108.29 29.2637C1107.14 29.2637 1106.29 29.622 1106.29 30.0998C1106.29 30.5776 1107.14 30.9359 1108.29 30.9359Z" fill="#FF7200"/>
<path d="M1124 31.1754C1125.43 31.1754 1126.57 30.6976 1126.57 30.1004C1126.57 29.5032 1125.43 29.0254 1124 29.0254C1122.57 29.0254 1121.43 29.5032 1121.43 30.1004C1121.43 30.6976 1122.57 31.1754 1124 31.1754Z" fill="#FF7200"/>
<path d="M1140 31.2942C1141.71 31.2942 1142.86 30.6969 1142.86 30.0997C1142.86 29.5025 1141.43 28.9053 1140 28.9053C1138.29 28.9053 1137.14 29.5025 1137.14 30.0997C1137.14 30.6969 1138.29 31.2942 1140 31.2942Z" fill="#FF7200"/>
<path d="M1156 31.5327C1158 31.5327 1159.43 30.9355 1159.43 30.0993C1159.43 29.2632 1158 28.666 1156 28.666C1154 28.666 1152.57 29.2632 1152.57 30.0993C1152.57 30.816 1154 31.5327 1156 31.5327Z" fill="#FF7200"/>
<path d="M1171.71 31.6524C1173.71 31.6524 1175.43 30.9358 1175.43 30.0996C1175.43 29.2635 1173.71 28.5469 1171.71 28.5469C1169.71 28.5469 1168 29.2635 1168 30.0996C1168 30.9358 1169.71 31.6524 1171.71 31.6524Z" fill="#FF7200"/>
<path d="M1187.71 31.7722C1190 31.7722 1191.71 31.0555 1191.71 30.0999C1191.71 29.1444 1190 28.4277 1187.71 28.4277C1185.43 28.4277 1183.71 29.1444 1183.71 30.0999C1183.71 31.0555 1185.43 31.7722 1187.71 31.7722Z" fill="#FF7200"/>
<path d="M1203.72 31.7722C1205.93 31.7722 1207.72 31.0235 1207.72 30.0999C1207.72 29.1764 1205.93 28.4277 1203.72 28.4277C1201.51 28.4277 1199.72 29.1764 1199.72 30.0999C1199.72 31.0235 1201.51 31.7722 1203.72 31.7722Z" fill="#FF7200"/>
<path d="M1219.43 31.7722C1221.72 31.7722 1223.43 31.0555 1223.43 30.0999C1223.43 29.1444 1221.72 28.4277 1219.43 28.4277C1217.14 28.4277 1215.43 29.1444 1215.43 30.0999C1215.43 31.0555 1217.14 31.7722 1219.43 31.7722Z" fill="#FF7200"/>
<path d="M1235.43 31.6524C1237.43 31.6524 1239.14 30.9358 1239.14 30.0996C1239.14 29.2635 1237.43 28.5469 1235.43 28.5469C1233.43 28.5469 1231.71 29.2635 1231.71 30.0996C1231.71 30.9358 1233.14 31.6524 1235.43 31.6524Z" fill="#FF7200"/>
<path d="M1251.14 31.5327C1253.14 31.5327 1254.57 30.9355 1254.57 30.0993C1254.57 29.2632 1253.14 28.666 1251.14 28.666C1249.14 28.666 1247.72 29.2632 1247.72 30.0993C1247.72 30.816 1249.43 31.5327 1251.14 31.5327Z" fill="#FF7200"/>
<path d="M1267.14 31.4149C1268.88 31.4149 1270.29 30.8266 1270.29 30.101C1270.29 29.3754 1268.88 28.7871 1267.14 28.7871C1265.41 28.7871 1264 29.3754 1264 30.101C1264 30.8266 1265.41 31.4149 1267.14 31.4149Z" fill="#FF7200"/>
<path d="M1283.14 31.1754C1284.57 31.1754 1285.72 30.6976 1285.72 30.1004C1285.72 29.5032 1284.57 29.0254 1283.14 29.0254C1281.72 29.0254 1280.57 29.5032 1280.57 30.1004C1280.57 30.6976 1281.72 31.1754 1283.14 31.1754Z" fill="#FF7200"/>
<path d="M1298.86 30.9359C1300 30.9359 1300.86 30.5776 1300.86 30.0998C1300.86 29.622 1300 29.2637 1298.86 29.2637C1297.72 29.2637 1296.86 29.622 1296.86 30.0998C1296.86 30.5776 1297.72 30.9359 1298.86 30.9359Z" fill="#FF7200"/>
<path d="M1314.86 30.8171C1315.8 30.8171 1316.57 30.4963 1316.57 30.1005C1316.57 29.7046 1315.8 29.3838 1314.86 29.3838C1313.91 29.3838 1313.14 29.7046 1313.14 30.1005C1313.14 30.4963 1313.91 30.8171 1314.86 30.8171Z" fill="#FF7200"/>
<path d="M1330.86 30.5786C1331.49 30.5786 1332 30.3647 1332 30.1008C1332 29.8369 1331.49 29.623 1330.86 29.623C1330.23 29.623 1329.72 29.8369 1329.72 30.1008C1329.72 30.3647 1330.23 30.5786 1330.86 30.5786Z" fill="#FF7200"/>
<path d="M1346.57 30.3391C1346.86 30.3391 1347.14 30.2197 1347.14 30.1002C1347.14 29.9808 1346.86 29.8613 1346.57 29.8613C1346.29 29.8613 1346 29.9808 1346 30.1002C1346 30.2197 1346.29 30.3391 1346.57 30.3391Z" fill="#FF7200"/>
<path d="M1060.57 36.9088C1060.86 36.9088 1060.86 36.7894 1060.86 36.7894C1060.86 36.6699 1060.57 36.6699 1060.57 36.6699C1060.29 36.6699 1060.29 36.7894 1060.29 36.7894C1060.29 36.7894 1060.29 36.9088 1060.57 36.9088Z" fill="#FF7200"/>
<path d="M1076.57 37.0272C1077.05 37.0272 1077.43 36.8668 1077.43 36.6689C1077.43 36.471 1077.05 36.3105 1076.57 36.3105C1076.1 36.3105 1075.72 36.471 1075.72 36.6689C1075.72 36.8668 1076.1 37.0272 1076.57 37.0272Z" fill="#FF7200"/>
<path d="M1092.29 37.2667C1093.14 37.2667 1093.71 37.0278 1093.71 36.6695C1093.71 36.3112 1093.14 36.0723 1092.29 36.0723C1091.43 36.0723 1090.86 36.3112 1090.86 36.6695C1090.86 37.0278 1091.71 37.2667 1092.29 37.2667Z" fill="#FF7200"/>
<path d="M1108.29 37.5056C1109.14 37.5056 1110 37.1473 1110 36.7889C1110 36.4306 1109.14 36.0723 1108.29 36.0723C1107.43 36.0723 1106.57 36.4306 1106.57 36.7889C1106.29 37.1473 1107.14 37.5056 1108.29 37.5056Z" fill="#FF7200"/>
<path d="M1124 37.624C1125.14 37.624 1126.29 37.1462 1126.29 36.6684C1126.29 36.1907 1125.14 35.7129 1124 35.7129C1122.86 35.7129 1121.71 36.1907 1121.71 36.6684C1122 37.2657 1122.86 37.624 1124 37.624Z" fill="#FF7200"/>
<path d="M1140 37.8629C1141.43 37.8629 1142.57 37.3851 1142.57 36.7879C1142.57 36.1907 1141.43 35.7129 1140 35.7129C1138.57 35.7129 1137.43 36.1907 1137.43 36.7879C1137.43 37.2657 1138.57 37.8629 1140 37.8629Z" fill="#FF7200"/>
<path d="M1156 37.9833C1157.74 37.9833 1159.14 37.395 1159.14 36.6694C1159.14 35.9437 1157.74 35.3555 1156 35.3555C1154.27 35.3555 1152.86 35.9437 1152.86 36.6694C1152.86 37.395 1154.27 37.9833 1156 37.9833Z" fill="#FF7200"/>
<path d="M1171.72 38.103C1173.43 38.103 1175.15 37.5058 1175.15 36.6697C1175.15 35.953 1173.72 35.2363 1171.72 35.2363C1170 35.2363 1168.29 35.8335 1168.29 36.6697C1168.57 37.5058 1170 38.103 1171.72 38.103Z" fill="#FF7200"/>
<path d="M1187.72 38.2221C1189.72 38.2221 1191.14 37.5055 1191.14 36.7888C1191.14 35.9527 1189.43 35.3555 1187.72 35.3555C1185.72 35.3555 1184.29 36.0721 1184.29 36.7888C1184.29 37.5055 1185.72 38.2221 1187.72 38.2221Z" fill="#FF7200"/>
<path d="M1203.71 38.103C1205.61 38.103 1207.14 37.4613 1207.14 36.6697C1207.14 35.878 1205.61 35.2363 1203.71 35.2363C1201.82 35.2363 1200.29 35.878 1200.29 36.6697C1200.29 37.4613 1201.82 38.103 1203.71 38.103Z" fill="#FF7200"/>
<path d="M1219.43 38.2221C1221.43 38.2221 1222.86 37.5055 1222.86 36.7888C1222.86 35.9527 1221.14 35.3555 1219.43 35.3555C1217.43 35.3555 1216 36.0721 1216 36.7888C1216 37.5055 1217.43 38.2221 1219.43 38.2221Z" fill="#FF7200"/>
<path d="M1235.43 38.103C1237.14 38.103 1238.86 37.5058 1238.86 36.6697C1238.86 35.953 1237.43 35.2363 1235.43 35.2363C1233.72 35.2363 1232 35.8335 1232 36.6697C1232 37.5058 1233.43 38.103 1235.43 38.103Z" fill="#FF7200"/>
<path d="M1251.14 37.9833C1252.88 37.9833 1254.29 37.395 1254.29 36.6694C1254.29 35.9437 1252.88 35.3555 1251.14 35.3555C1249.41 35.3555 1248 35.9437 1248 36.6694C1248 37.395 1249.41 37.9833 1251.14 37.9833Z" fill="#FF7200"/>
<path d="M1267.14 37.8629C1268.57 37.8629 1269.71 37.3851 1269.71 36.7879C1269.71 36.1907 1268.57 35.7129 1267.14 35.7129C1265.71 35.7129 1264.57 36.1907 1264.57 36.7879C1264.57 37.2657 1265.71 37.8629 1267.14 37.8629Z" fill="#FF7200"/>
<path d="M1283.14 37.624C1284.29 37.624 1285.43 37.1462 1285.43 36.6684C1285.43 36.1907 1284.29 35.7129 1283.14 35.7129C1282 35.7129 1280.86 36.1907 1280.86 36.6684C1280.86 37.2657 1281.71 37.624 1283.14 37.624Z" fill="#FF7200"/>
<path d="M1298.86 37.5056C1300 37.5056 1300.57 37.1473 1300.57 36.7889C1300.57 36.3112 1299.72 36.0723 1298.86 36.0723C1297.72 36.0723 1297.14 36.4306 1297.14 36.7889C1297.14 37.1473 1298 37.5056 1298.86 37.5056Z" fill="#FF7200"/>
<path d="M1314.86 37.2667C1315.72 37.2667 1316.29 37.0278 1316.29 36.6695C1316.29 36.3112 1315.72 36.0723 1314.86 36.0723C1314 36.0723 1313.43 36.3112 1313.43 36.6695C1313.43 37.0278 1314 37.2667 1314.86 37.2667Z" fill="#FF7200"/>
<path d="M1330.86 37.0272C1331.43 37.0272 1331.72 36.9078 1331.72 36.6689C1331.72 36.43 1331.43 36.3105 1330.86 36.3105C1330.29 36.3105 1330 36.43 1330 36.6689C1329.72 36.9078 1330.29 37.0272 1330.86 37.0272Z" fill="#FF7200"/>
<path d="M1346.57 36.9084C1346.86 36.9084 1347.14 36.789 1347.14 36.6695C1347.14 36.5501 1346.86 36.4307 1346.57 36.4307C1346.29 36.4307 1346 36.5501 1346 36.6695C1346.29 36.789 1346.29 36.9084 1346.57 36.9084Z" fill="#FF7200"/>
<path d="M1060.57 43.4772C1060.73 43.4772 1060.86 43.4237 1060.86 43.3577C1060.86 43.2918 1060.73 43.2383 1060.57 43.2383C1060.41 43.2383 1060.29 43.2918 1060.29 43.3577C1060.29 43.4237 1060.41 43.4772 1060.57 43.4772Z" fill="#FF7200"/>
<path d="M1076.57 43.5969C1076.86 43.5969 1077.14 43.4775 1077.14 43.358C1077.14 43.2386 1076.86 43.1191 1076.57 43.1191C1076.29 43.1191 1076 43.2386 1076 43.358C1075.72 43.4775 1076 43.5969 1076.57 43.5969Z" fill="#FF7200"/>
<path d="M1092.29 43.8364C1092.92 43.8364 1093.43 43.6225 1093.43 43.3586C1093.43 43.0948 1092.92 42.8809 1092.29 42.8809C1091.66 42.8809 1091.14 43.0948 1091.14 43.3586C1091.14 43.6225 1091.66 43.8364 1092.29 43.8364Z" fill="#FF7200"/>
<path d="M1108.29 43.9562C1109.15 43.9562 1109.72 43.7173 1109.72 43.3589C1109.72 43.0006 1109.15 42.7617 1108.29 42.7617C1107.43 42.7617 1106.86 43.0006 1106.86 43.3589C1106.86 43.7173 1107.43 43.9562 1108.29 43.9562Z" fill="#FF7200"/>
<path d="M1124 44.1947C1125.11 44.1947 1126 43.8203 1126 43.3586C1126 42.8968 1125.11 42.5225 1124 42.5225C1122.9 42.5225 1122 42.8968 1122 43.3586C1122 43.8203 1122.9 44.1947 1124 44.1947Z" fill="#FF7200"/>
<path d="M1140 44.3135C1141.14 44.3135 1142.29 43.8357 1142.29 43.3579C1142.29 42.8801 1141.14 42.4023 1140 42.4023C1138.86 42.4023 1137.72 42.8801 1137.72 43.3579C1137.72 43.8357 1138.86 44.3135 1140 44.3135Z" fill="#FF7200"/>
<path d="M1156 44.4332C1157.43 44.4332 1158.57 43.9554 1158.57 43.3582C1158.57 42.761 1157.43 42.2832 1156 42.2832C1154.57 42.2832 1153.43 42.761 1153.43 43.3582C1153.43 43.9554 1154.57 44.4332 1156 44.4332Z" fill="#FF7200"/>
<path d="M1171.71 44.553C1173.29 44.553 1174.57 44.0182 1174.57 43.3585C1174.57 42.6988 1173.29 42.1641 1171.71 42.1641C1170.14 42.1641 1168.86 42.6988 1168.86 43.3585C1168.86 44.0182 1170.14 44.553 1171.71 44.553Z" fill="#FF7200"/>
<path d="M1187.72 44.553C1189.43 44.553 1190.57 43.9557 1190.57 43.3585C1190.57 42.7613 1189.14 42.1641 1187.72 42.1641C1186 42.1641 1184.86 42.7613 1184.86 43.3585C1184.86 43.9557 1186 44.553 1187.72 44.553Z" fill="#FF7200"/>
<path d="M1203.72 44.6727C1205.45 44.6727 1206.86 44.0845 1206.86 43.3588C1206.86 42.6332 1205.45 42.0449 1203.72 42.0449C1201.98 42.0449 1200.57 42.6332 1200.57 43.3588C1200.57 44.0845 1201.98 44.6727 1203.72 44.6727Z" fill="#FF7200"/>
<path d="M1219.43 44.553C1221.01 44.553 1222.29 44.0182 1222.29 43.3585C1222.29 42.6988 1221.01 42.1641 1219.43 42.1641C1217.85 42.1641 1216.57 42.6988 1216.57 43.3585C1216.57 44.0182 1217.85 44.553 1219.43 44.553Z" fill="#FF7200"/>
<path d="M1235.43 44.553C1237.01 44.553 1238.29 44.0182 1238.29 43.3585C1238.29 42.6988 1237.01 42.1641 1235.43 42.1641C1233.85 42.1641 1232.57 42.6988 1232.57 43.3585C1232.57 44.0182 1233.85 44.553 1235.43 44.553Z" fill="#FF7200"/>
<path d="M1251.14 44.4332C1252.57 44.4332 1253.72 43.9554 1253.72 43.3582C1253.72 42.761 1252.57 42.2832 1251.14 42.2832C1249.72 42.2832 1248.57 42.761 1248.57 43.3582C1248.57 43.9554 1249.72 44.4332 1251.14 44.4332Z" fill="#FF7200"/>
<path d="M1267.14 44.3135C1268.41 44.3135 1269.43 43.8856 1269.43 43.3579C1269.43 42.8302 1268.41 42.4023 1267.14 42.4023C1265.88 42.4023 1264.86 42.8302 1264.86 43.3579C1264.86 43.8856 1265.88 44.3135 1267.14 44.3135Z" fill="#FF7200"/>
<path d="M1283.15 44.1947C1284.25 44.1947 1285.15 43.8203 1285.15 43.3586C1285.15 42.8968 1284.25 42.5225 1283.15 42.5225C1282.04 42.5225 1281.15 42.8968 1281.15 43.3586C1281.15 43.8203 1282.04 44.1947 1283.15 44.1947Z" fill="#FF7200"/>
<path d="M1298.86 43.9562C1299.71 43.9562 1300.29 43.7173 1300.29 43.3589C1300.29 43.0006 1299.71 42.7617 1298.86 42.7617C1298 42.7617 1297.43 43.0006 1297.43 43.3589C1297.43 43.7173 1298 43.9562 1298.86 43.9562Z" fill="#FF7200"/>
<path d="M1314.86 43.8364C1315.49 43.8364 1316 43.6225 1316 43.3586C1316 43.0948 1315.49 42.8809 1314.86 42.8809C1314.23 42.8809 1313.71 43.0948 1313.71 43.3586C1313.71 43.6225 1314.23 43.8364 1314.86 43.8364Z" fill="#FF7200"/>
<path d="M1330.86 43.5969C1331.14 43.5969 1331.43 43.4775 1331.43 43.358C1331.43 43.2386 1331.14 43.1191 1330.86 43.1191C1330.57 43.1191 1330.29 43.2386 1330.29 43.358C1330.29 43.4775 1330.29 43.5969 1330.86 43.5969Z" fill="#FF7200"/>
<path d="M1346.57 43.4772C1346.73 43.4772 1346.86 43.4237 1346.86 43.3577C1346.86 43.2918 1346.73 43.2383 1346.57 43.2383C1346.41 43.2383 1346.29 43.2918 1346.29 43.3577C1346.29 43.4237 1346.41 43.4772 1346.57 43.4772Z" fill="#FF7200"/>
<path d="M1076.57 50.0475C1076.73 50.0475 1076.86 49.994 1076.86 49.928C1076.86 49.8621 1076.73 49.8086 1076.57 49.8086C1076.41 49.8086 1076.29 49.8621 1076.29 49.928C1076.29 49.994 1076.41 50.0475 1076.57 50.0475Z" fill="#FF7200"/>
<path d="M1092.29 50.286C1092.57 50.286 1093.14 50.1666 1093.14 49.9277C1093.14 49.8082 1092.86 49.5693 1092.29 49.5693C1092 49.5693 1091.43 49.6888 1091.43 49.9277C1091.72 50.1666 1092 50.286 1092.29 50.286Z" fill="#FF7200"/>
<path d="M1108.29 50.5249C1108.86 50.5249 1109.43 50.286 1109.43 50.0471C1109.43 49.8082 1108.86 49.5693 1108.29 49.5693C1107.71 49.5693 1107.14 49.8082 1107.14 50.0471C1107.14 50.286 1107.71 50.5249 1108.29 50.5249Z" fill="#FF7200"/>
<path d="M1124 50.6437C1124.86 50.6437 1125.43 50.4048 1125.43 50.0464C1125.43 49.6881 1124.86 49.4492 1124 49.4492C1123.14 49.4492 1122.57 49.6881 1122.57 50.0464C1122.57 50.2853 1123.43 50.6437 1124 50.6437Z" fill="#FF7200"/>
<path d="M1140 50.6443C1140.95 50.6443 1141.72 50.3234 1141.72 49.9276C1141.72 49.5318 1140.95 49.2109 1140 49.2109C1139.06 49.2109 1138.29 49.5318 1138.29 49.9276C1138.29 50.3234 1139.06 50.6443 1140 50.6443Z" fill="#FF7200"/>
<path d="M1156 50.764C1157.11 50.764 1158 50.3897 1158 49.9279C1158 49.4661 1157.11 49.0918 1156 49.0918C1154.9 49.0918 1154 49.4661 1154 49.9279C1154 50.3897 1154.9 50.764 1156 50.764Z" fill="#FF7200"/>
<path d="M1171.71 50.8838C1172.98 50.8838 1174 50.456 1174 49.9282C1174 49.4005 1172.98 48.9727 1171.71 48.9727C1170.45 48.9727 1169.43 49.4005 1169.43 49.9282C1169.43 50.456 1170.45 50.8838 1171.71 50.8838Z" fill="#FF7200"/>
<path d="M1187.72 51.0025C1189.14 51.0025 1190.29 50.5212 1190.29 49.9275C1190.29 49.3338 1189.14 48.8525 1187.72 48.8525C1186.29 48.8525 1185.14 49.3338 1185.14 49.9275C1185.14 50.5212 1186.29 51.0025 1187.72 51.0025Z" fill="#FF7200"/>
<path d="M1203.72 51.0025C1205.14 51.0025 1206.29 50.5212 1206.29 49.9275C1206.29 49.3338 1205.14 48.8525 1203.72 48.8525C1202.3 48.8525 1201.15 49.3338 1201.15 49.9275C1201.15 50.5212 1202.3 51.0025 1203.72 51.0025Z" fill="#FF7200"/>
<path d="M1219.43 51.0025C1220.85 51.0025 1222 50.5212 1222 49.9275C1222 49.3338 1220.85 48.8525 1219.43 48.8525C1218.01 48.8525 1216.86 49.3338 1216.86 49.9275C1216.86 50.5212 1218.01 51.0025 1219.43 51.0025Z" fill="#FF7200"/>
<path d="M1235.43 50.8838C1236.69 50.8838 1237.71 50.456 1237.71 49.9282C1237.71 49.4005 1236.69 48.9727 1235.43 48.9727C1234.17 48.9727 1233.14 49.4005 1233.14 49.9282C1233.14 50.456 1234.17 50.8838 1235.43 50.8838Z" fill="#FF7200"/>
<path d="M1251.14 50.8832C1252.29 50.8832 1253.14 50.5248 1253.14 50.0471C1253.14 49.5693 1252.29 49.2109 1251.14 49.2109C1250 49.2109 1249.14 49.5693 1249.14 50.0471C1249.14 50.5248 1250 50.8832 1251.14 50.8832Z" fill="#FF7200"/>
<path d="M1267.14 50.7634C1268.29 50.7634 1268.86 50.4051 1268.86 50.0467C1268.86 49.569 1268 49.3301 1267.14 49.3301C1266.29 49.3301 1265.43 49.6884 1265.43 50.0467C1265.43 50.4051 1266 50.7634 1267.14 50.7634Z" fill="#FF7200"/>
<path d="M1283.14 50.6437C1284 50.6437 1284.57 50.4048 1284.57 50.0464C1284.57 49.6881 1284 49.4492 1283.14 49.4492C1282.29 49.4492 1281.71 49.6881 1281.71 50.0464C1281.43 50.2853 1282.29 50.6437 1283.14 50.6437Z" fill="#FF7200"/>
<path d="M1298.86 50.5249C1299.43 50.5249 1300 50.286 1300 50.0471C1300 49.8082 1299.43 49.5693 1298.86 49.5693C1298.29 49.5693 1297.72 49.8082 1297.72 50.0471C1297.72 50.286 1298.29 50.5249 1298.86 50.5249Z" fill="#FF7200"/>
<path d="M1314.86 50.286C1315.33 50.286 1315.72 50.1256 1315.72 49.9277C1315.72 49.7298 1315.33 49.5693 1314.86 49.5693C1314.39 49.5693 1314 49.7298 1314 49.9277C1314 50.1256 1314.39 50.286 1314.86 50.286Z" fill="#FF7200"/>
<path d="M1330.86 50.0475C1331.02 50.0475 1331.14 49.994 1331.14 49.928C1331.14 49.8621 1331.02 49.8086 1330.86 49.8086C1330.7 49.8086 1330.57 49.8621 1330.57 49.928C1330.57 49.994 1330.7 50.0475 1330.86 50.0475Z" fill="#FF7200"/>
<path d="M1092.29 56.8551C1092.57 56.8551 1092.57 56.7357 1092.57 56.7357C1092.57 56.6162 1092.29 56.6162 1092.29 56.6162C1092 56.6162 1092 56.7357 1092 56.7357C1092 56.7357 1092 56.8551 1092.29 56.8551Z" fill="#FF7200"/>
<path d="M1108.29 56.9755C1108.57 56.9755 1109.14 56.856 1109.14 56.6171C1109.14 56.4977 1108.86 56.2588 1108.29 56.2588C1107.71 56.2588 1107.43 56.3782 1107.43 56.6171C1107.43 56.856 1107.71 56.9755 1108.29 56.9755Z" fill="#FF7200"/>
<path d="M1124 57.0942C1124.57 57.0942 1125.14 56.8553 1125.14 56.6165C1125.14 56.3776 1124.57 56.1387 1124 56.1387C1123.43 56.1387 1122.86 56.3776 1122.86 56.6165C1123.14 56.8553 1123.43 57.0942 1124 57.0942Z" fill="#FF7200"/>
<path d="M1140 57.214C1140.86 57.214 1141.43 56.9751 1141.43 56.6168C1141.43 56.2584 1140.86 56.0195 1140 56.0195C1139.14 56.0195 1138.57 56.2584 1138.57 56.6168C1138.57 56.9751 1139.14 57.214 1140 57.214Z" fill="#FF7200"/>
<path d="M1156 57.3337C1156.86 57.3337 1157.72 56.9754 1157.72 56.6171C1157.72 56.2587 1156.86 55.9004 1156 55.9004C1155.14 55.9004 1154.29 56.2587 1154.29 56.6171C1154.29 56.9754 1155.14 57.3337 1156 57.3337Z" fill="#FF7200"/>
<path d="M1171.72 57.3337C1172.57 57.3337 1173.43 56.9754 1173.43 56.6171C1173.43 56.2587 1172.57 55.9004 1171.72 55.9004C1170.86 55.9004 1170 56.2587 1170 56.6171C1170 57.0948 1170.86 57.3337 1171.72 57.3337Z" fill="#FF7200"/>
<path d="M1187.72 57.4525C1188.86 57.4525 1189.72 57.0942 1189.72 56.6164C1189.72 56.1386 1188.86 55.7803 1187.72 55.7803C1186.57 55.7803 1185.72 56.1386 1185.72 56.6164C1185.72 57.0942 1186.57 57.4525 1187.72 57.4525Z" fill="#FF7200"/>
<path d="M1203.71 57.4525C1204.86 57.4525 1205.71 57.0942 1205.71 56.6164C1205.71 56.1386 1204.86 55.7803 1203.71 55.7803C1202.57 55.7803 1201.71 56.1386 1201.71 56.6164C1201.71 57.0942 1202.57 57.4525 1203.71 57.4525Z" fill="#FF7200"/>
<path d="M1219.43 57.4525C1220.57 57.4525 1221.43 57.0942 1221.43 56.6164C1221.43 56.1386 1220.57 55.7803 1219.43 55.7803C1218.29 55.7803 1217.43 56.1386 1217.43 56.6164C1217.43 57.0942 1218.29 57.4525 1219.43 57.4525Z" fill="#FF7200"/>
<path d="M1235.43 57.3337C1236.29 57.3337 1237.14 56.9754 1237.14 56.6171C1237.14 56.2587 1236.29 55.9004 1235.43 55.9004C1234.57 55.9004 1233.71 56.2587 1233.71 56.6171C1233.43 57.0948 1234.29 57.3337 1235.43 57.3337Z" fill="#FF7200"/>
<path d="M1251.14 57.3337C1252 57.3337 1252.86 56.9754 1252.86 56.6171C1252.86 56.2587 1252 55.9004 1251.14 55.9004C1250.29 55.9004 1249.43 56.2587 1249.43 56.6171C1249.71 56.9754 1250.29 57.3337 1251.14 57.3337Z" fill="#FF7200"/>
<path d="M1267.14 57.214C1268 57.214 1268.57 56.9751 1268.57 56.6168C1268.57 56.2584 1268 56.0195 1267.14 56.0195C1266.29 56.0195 1265.71 56.2584 1265.71 56.6168C1265.71 56.9751 1266.29 57.214 1267.14 57.214Z" fill="#FF7200"/>
<path d="M1283.14 57.0942C1283.72 57.0942 1284.29 56.8553 1284.29 56.6165C1284.29 56.3776 1283.72 56.1387 1283.14 56.1387C1282.57 56.1387 1282 56.3776 1282 56.6165C1282 56.8553 1282.57 57.0942 1283.14 57.0942Z" fill="#FF7200"/>
<path d="M1298.86 56.9755C1299.14 56.9755 1299.71 56.856 1299.71 56.6171C1299.71 56.4977 1299.43 56.2588 1298.86 56.2588C1298.57 56.2588 1298 56.3782 1298 56.6171C1298.29 56.856 1298.57 56.9755 1298.86 56.9755Z" fill="#FF7200"/>
<path d="M1314.86 56.8551C1315.14 56.8551 1315.14 56.7357 1315.14 56.7357C1315.14 56.6162 1314.86 56.6162 1314.86 56.6162C1314.57 56.6162 1314.57 56.7357 1314.57 56.7357C1314.57 56.7357 1314.57 56.8551 1314.86 56.8551Z" fill="#FF7200"/>
<path d="M1108.29 63.4244C1108.57 63.4244 1108.57 63.4244 1108.57 63.305C1108.57 63.1855 1108.57 63.1855 1108.29 63.1855C1108 63.1855 1108 63.1855 1108 63.305C1108 63.305 1108 63.4244 1108.29 63.4244Z" fill="#FF7200"/>
<path d="M1124 63.5442C1124.29 63.5442 1124.57 63.4247 1124.57 63.3053C1124.57 63.1858 1124.29 63.0664 1124 63.0664C1123.72 63.0664 1123.43 63.1858 1123.43 63.3053C1123.43 63.4247 1123.72 63.5442 1124 63.5442Z" fill="#FF7200"/>
<path d="M1140 63.6639C1140.48 63.6639 1140.86 63.5035 1140.86 63.3056C1140.86 63.1077 1140.48 62.9473 1140 62.9473C1139.53 62.9473 1139.14 63.1077 1139.14 63.3056C1139.14 63.5035 1139.53 63.6639 1140 63.6639Z" fill="#FF7200"/>
<path d="M1156 63.7837C1156.57 63.7837 1157.14 63.5448 1157.14 63.3059C1157.14 63.067 1156.57 62.8281 1156 62.8281C1155.43 62.8281 1154.86 63.067 1154.86 63.3059C1154.86 63.5448 1155.43 63.7837 1156 63.7837Z" fill="#FF7200"/>
<path d="M1171.72 63.7837C1172.35 63.7837 1172.86 63.5698 1172.86 63.3059C1172.86 63.042 1172.35 62.8281 1171.72 62.8281C1171.08 62.8281 1170.57 63.042 1170.57 63.3059C1170.57 63.5698 1171.08 63.7837 1171.72 63.7837Z" fill="#FF7200"/>
<path d="M1187.72 63.9034C1188.57 63.9034 1189.14 63.6645 1189.14 63.3062C1189.14 62.9479 1188.57 62.709 1187.72 62.709C1186.86 62.709 1186.29 62.9479 1186.29 63.3062C1186.29 63.5451 1186.86 63.9034 1187.72 63.9034Z" fill="#FF7200"/>
<path d="M1203.71 63.9034C1204.5 63.9034 1205.14 63.636 1205.14 63.3062C1205.14 62.9764 1204.5 62.709 1203.71 62.709C1202.93 62.709 1202.29 62.9764 1202.29 63.3062C1202.29 63.636 1202.93 63.9034 1203.71 63.9034Z" fill="#FF7200"/>
<path d="M1219.43 63.9034C1220.22 63.9034 1220.86 63.636 1220.86 63.3062C1220.86 62.9764 1220.22 62.709 1219.43 62.709C1218.64 62.709 1218 62.9764 1218 63.3062C1218 63.636 1218.64 63.9034 1219.43 63.9034Z" fill="#FF7200"/>
<path d="M1235.43 63.7837C1236.06 63.7837 1236.57 63.5698 1236.57 63.3059C1236.57 63.042 1236.06 62.8281 1235.43 62.8281C1234.8 62.8281 1234.29 63.042 1234.29 63.3059C1234.29 63.5698 1234.8 63.7837 1235.43 63.7837Z" fill="#FF7200"/>
<path d="M1251.14 63.7837C1251.72 63.7837 1252.29 63.5448 1252.29 63.3059C1252.29 63.067 1251.72 62.8281 1251.14 62.8281C1250.57 62.8281 1250 63.067 1250 63.3059C1250.29 63.5448 1250.57 63.7837 1251.14 63.7837Z" fill="#FF7200"/>
<path d="M1267.14 63.6639C1267.62 63.6639 1268 63.5035 1268 63.3056C1268 63.1077 1267.62 62.9473 1267.14 62.9473C1266.67 62.9473 1266.29 63.1077 1266.29 63.3056C1266.29 63.5035 1266.67 63.6639 1267.14 63.6639Z" fill="#FF7200"/>
<path d="M1283.14 63.5442C1283.43 63.5442 1283.72 63.4247 1283.72 63.3053C1283.72 63.1858 1283.43 63.0664 1283.14 63.0664C1282.86 63.0664 1282.57 63.1858 1282.57 63.3053C1282.57 63.4247 1282.57 63.5442 1283.14 63.5442Z" fill="#FF7200"/>
<path d="M1298.86 63.4244C1299.02 63.4244 1299.14 63.371 1299.14 63.305C1299.14 63.239 1299.02 63.1855 1298.86 63.1855C1298.7 63.1855 1298.57 63.239 1298.57 63.305C1298.57 63.371 1298.7 63.4244 1298.86 63.4244Z" fill="#FF7200"/>
<path d="M1124 69.9948C1124.16 69.9948 1124.29 69.9413 1124.29 69.8753C1124.29 69.8093 1124.16 69.7559 1124 69.7559C1123.84 69.7559 1123.71 69.8093 1123.71 69.8753C1123.71 69.9413 1123.84 69.9948 1124 69.9948Z" fill="#FF7200"/>
<path d="M1140 70.1139C1140.29 70.1139 1140.29 69.9945 1140.29 69.9945C1140.29 69.875 1140 69.875 1140 69.875C1139.72 69.875 1139.72 69.9945 1139.72 69.9945C1139.72 69.9945 1139.72 70.1139 1140 70.1139Z" fill="#FF7200"/>
<path d="M1156 70.2336C1156.29 70.2336 1156.57 70.1142 1156.57 69.9948C1156.57 69.8753 1156.29 69.7559 1156 69.7559C1155.72 69.7559 1155.43 69.8753 1155.43 69.9948C1155.43 70.1142 1155.43 70.2336 1156 70.2336Z" fill="#FF7200"/>
<path d="M1171.71 70.2333C1172.19 70.2333 1172.57 70.0728 1172.57 69.8749C1172.57 69.677 1172.19 69.5166 1171.71 69.5166C1171.24 69.5166 1170.86 69.677 1170.86 69.8749C1170.86 70.0728 1171.24 70.2333 1171.71 70.2333Z" fill="#FF7200"/>
<path d="M1187.72 70.2333C1188.29 70.2333 1188.57 70.1138 1188.57 69.8749C1188.57 69.636 1188.29 69.5166 1187.72 69.5166C1187.15 69.5166 1186.86 69.636 1186.86 69.8749C1186.86 70.1138 1187.15 70.2333 1187.72 70.2333Z" fill="#FF7200"/>
<path d="M1203.72 70.2333C1204.19 70.2333 1204.57 70.0728 1204.57 69.8749C1204.57 69.677 1204.19 69.5166 1203.72 69.5166C1203.24 69.5166 1202.86 69.677 1202.86 69.8749C1202.86 70.0728 1203.24 70.2333 1203.72 70.2333Z" fill="#FF7200"/>
<path d="M1219.43 70.2333C1219.9 70.2333 1220.29 70.0728 1220.29 69.8749C1220.29 69.677 1219.9 69.5166 1219.43 69.5166C1218.96 69.5166 1218.57 69.677 1218.57 69.8749C1218.57 70.0728 1218.96 70.2333 1219.43 70.2333Z" fill="#FF7200"/>
<path d="M1235.43 70.2333C1235.9 70.2333 1236.29 70.0728 1236.29 69.8749C1236.29 69.677 1235.9 69.5166 1235.43 69.5166C1234.96 69.5166 1234.57 69.677 1234.57 69.8749C1234.57 70.0728 1234.96 70.2333 1235.43 70.2333Z" fill="#FF7200"/>
<path d="M1251.14 70.2336C1251.43 70.2336 1251.72 70.1142 1251.72 69.9948C1251.72 69.8753 1251.43 69.7559 1251.14 69.7559C1250.86 69.7559 1250.57 69.8753 1250.57 69.9948C1250.57 70.1142 1250.86 70.2336 1251.14 70.2336Z" fill="#FF7200"/>
<path d="M1267.14 70.1145C1267.43 70.1145 1267.72 69.995 1267.72 69.8756C1267.72 69.7562 1267.43 69.6367 1267.14 69.6367C1266.86 69.6367 1266.57 69.7562 1266.57 69.8756C1266.86 69.995 1266.86 70.1145 1267.14 70.1145Z" fill="#FF7200"/>
<path d="M1283.14 69.9948C1283.3 69.9948 1283.43 69.9413 1283.43 69.8753C1283.43 69.8093 1283.3 69.7559 1283.14 69.7559C1282.99 69.7559 1282.86 69.8093 1282.86 69.8753C1282.86 69.9413 1282.99 69.9948 1283.14 69.9948Z" fill="#FF7200"/>
<path d="M1171.71 76.6832C1172 76.6832 1172 76.5638 1171.71 76.6832C1172 76.5638 1171.71 76.4443 1171.71 76.4443C1171.71 76.4443 1171.71 76.5638 1171.71 76.6832C1171.71 76.6832 1171.71 76.5638 1171.71 76.6832Z" fill="#FF7200"/>
<path d="M1187.71 76.6832C1188 76.6832 1188 76.6832 1188 76.5638C1188 76.4443 1188 76.4443 1187.71 76.4443C1187.43 76.4443 1187.43 76.4443 1187.43 76.5638C1187.43 76.6832 1187.43 76.6832 1187.71 76.6832Z" fill="#FF7200"/>
<path d="M1203.71 76.6832C1204 76.6832 1204 76.6832 1204 76.5638C1204 76.4443 1204 76.4443 1203.71 76.4443C1203.43 76.4443 1203.43 76.4443 1203.43 76.5638C1203.14 76.6832 1203.43 76.6832 1203.71 76.6832Z" fill="#FF7200"/>
<path d="M1219.43 76.6832C1219.72 76.6832 1219.72 76.6832 1219.72 76.5638C1219.72 76.4443 1219.72 76.4443 1219.43 76.4443C1219.14 76.4443 1219.14 76.4443 1219.14 76.5638C1219.14 76.6832 1219.43 76.6832 1219.43 76.6832Z" fill="#FF7200"/>
<path d="M1235.43 76.6832C1235.43 76.6832 1235.72 76.6832 1235.43 76.6832C1235.72 76.5638 1235.72 76.4443 1235.43 76.4443C1235.14 76.4443 1235.14 76.4443 1235.43 76.6832C1235.14 76.6832 1235.14 76.6832 1235.43 76.6832Z" fill="#FF7200"/>
<path d="M397.142 90.6587C354.284 90.6587 314.57 81.2226 275.713 72.1448C255.999 67.4865 235.427 62.5892 214.856 59.1253C120.856 43.1198 2.85589 56.2587 -60.0013 89.4642L-66.8584 87.1948C-1.71554 52.6753 120.57 39.1781 217.999 55.7809C239.142 59.3642 259.713 64.2615 279.999 69.0392C325.713 79.7892 368.856 90.0615 416.856 86.3587C456.284 83.3726 485.713 71.7865 516.856 59.4837C541.713 49.6892 567.427 39.5365 598.856 34.042C637.427 27.3531 680.57 28.1892 718.57 29.0254C755.999 29.742 797.999 30.6976 834.57 24.4865C867.427 18.8726 899.713 4.1809 894.284 -11.9441L902.856 -12.4219C908.856 5.61424 874.57 21.5004 837.713 27.8309C799.427 34.4004 756.284 33.4448 717.999 32.7281C680.856 32.0115 638.856 31.0559 601.999 37.5059C571.999 42.7615 546.856 52.6753 522.57 62.2309C491.999 74.2948 460.284 86.8365 418.284 90.0615C411.142 90.4198 403.999 90.6587 397.142 90.6587Z" fill="#FF7200"/>
<path d="M746.571 362.633L738 362.394C740.857 344.955 762.571 327.875 797.714 315.572C832.857 303.269 876.857 297.297 918.571 299.089C940.857 300.044 962.857 302.911 984.286 305.777C1022 310.675 1057.71 315.333 1092.57 310.197C1127.14 305.061 1149.71 291.564 1171.43 278.544C1175.71 275.916 1180.29 273.169 1184.86 270.541C1213.14 254.416 1259.14 239.486 1304 245.936C1330.29 249.758 1346.86 259.433 1362.57 268.869C1378.29 278.186 1393.14 287.025 1416.86 290.489C1434.29 292.997 1453.14 292.041 1472.86 290.966C1482.29 290.489 1492 289.891 1501.71 289.772C1522.57 289.533 1544.86 292.997 1557.14 298.491C1565.14 302.075 1568.86 306.375 1567.71 310.794L1559.14 310.436C1560 306.972 1557.14 303.747 1550.86 300.88C1540.29 296.102 1520.57 292.997 1502 293.236C1492.86 293.355 1483.43 293.833 1474 294.43C1454 295.505 1433.43 296.7 1414 293.833C1388 290.011 1371.43 280.336 1355.71 270.9C1340 261.464 1324.86 252.625 1301.14 249.28C1260.57 243.427 1218 257.522 1191.71 272.572C1187.14 275.08 1182.86 277.827 1178.29 280.455C1155.71 293.952 1132.57 308.047 1095.14 313.422C1057.71 318.916 1018.86 313.9 981.429 309.002C960.286 306.255 938.571 303.389 917.429 302.433C878 300.641 836.571 306.375 803.143 318.08C769.714 329.905 749.143 346.15 746.571 362.633Z" fill="#FF7200"/>
<path d="M570.572 101.409C535.144 101.409 501.429 92.0919 480.572 82.6558C462.858 74.5336 448.858 65.0975 435.144 55.9003C426.572 50.1669 417.715 44.0753 408.001 38.5808C341.429 0.358596 221.715 -21.2609 109.429 -15.2886L109.144 -16.4831C164.858 -19.4692 223.144 -15.8858 277.144 -6.09141C331.144 3.70304 377.144 18.8725 410.286 37.8641C420.001 43.478 428.858 49.4503 437.429 55.303C450.858 64.5003 464.858 73.9364 482.572 81.8197C507.715 93.2864 552.286 104.514 595.144 98.5419C621.429 94.8392 640.858 85.5225 659.429 76.5642C679.715 66.6503 700.858 56.4975 731.144 53.7503C763.715 50.7641 794.286 57.453 824.286 63.903C851.144 69.7558 879.144 75.728 908.572 74.7725C952.286 73.3392 984.001 57.0947 1010.57 41.9253L1118.86 -20.0664L1121.14 -19.3497L1012.86 42.6419C986.001 57.9308 953.715 74.4142 908.858 75.9669C878.572 76.9225 850.572 70.8308 823.144 64.978C792.572 58.2891 763.429 52.078 732.001 54.9447C702.572 57.5725 682.858 67.2475 661.715 77.4003C642.858 86.5975 623.144 96.0336 596.286 99.7364C587.429 100.811 578.858 101.409 570.572 101.409Z" fill="white"/>
<path d="M469.142 383.417C460.285 383.417 451.714 382.939 442.856 381.864L443.714 380.67C488.571 386.284 535.142 375.653 563.714 363.828C584.571 355.228 601.428 344.717 617.428 334.684C625.714 329.428 634.571 324.053 643.714 318.917C677.428 300.164 713.714 289.414 751.428 287.025C800.856 283.92 846.571 294.789 891.142 305.42C935.428 315.931 981.428 326.92 1030 323.456C1060.86 321.306 1087.71 313.542 1113.43 306.017C1137.14 299.209 1161.43 292.042 1189.43 289.056C1236.57 283.92 1293.14 291.445 1337.14 308.525C1376.86 323.934 1402.29 344.239 1426.86 363.709L1424.29 364.306C1399.71 344.836 1374.29 324.77 1335.14 309.361C1301.43 296.223 1245.43 284.278 1190.29 290.25C1162.86 293.236 1138.57 300.284 1115.14 307.092C1089.14 314.736 1062 322.5 1030.57 324.77C980.856 328.234 934.571 317.245 889.714 306.614C845.714 296.103 800.285 285.353 751.999 288.339C714.856 290.728 679.142 301.239 645.999 319.753C636.856 324.889 628.285 330.264 619.714 335.52C603.428 345.673 586.571 356.064 565.714 364.784C542.285 374.459 506.571 383.417 469.142 383.417Z" fill="white"/>
<path d="M59.1436 381.386C58.8578 381.386 58.5721 381.386 58.2864 381.267L-102.571 317.364C-102.856 317.244 -102.856 317.125 -102.856 316.886L-51.1422 226.705C-51.1422 226.586 -50.8564 226.467 -50.285 226.347L162.286 200.069C162.572 200.069 163.144 200.069 163.429 200.189L324.286 263.972C324.572 264.092 324.572 264.211 324.572 264.45L272.858 354.75C272.858 354.869 272.572 354.989 272.001 355.108L59.4293 381.386C59.1436 381.386 59.1436 381.386 59.1436 381.386ZM-100.571 316.886L59.1436 380.311L270.572 354.153L322.001 264.569L162.286 201.144L-49.1422 227.303L-100.571 316.886Z" fill="white"/>
</g>
</g>
</svg>
