<svg width="679" height="501" viewBox="0 0 679 501" fill="none" xmlns="http://www.w3.org/2000/svg">
<path d="M0 0C-7.87163e-06 109.8 35.7686 215.102 99.4372 292.742C163.106 370.382 249.459 414 339.5 414C429.541 414 515.894 370.382 579.563 292.742C643.231 215.102 679 109.8 679 0.00012207L339.5 3.05176e-05L0 0Z" fill="#ECF1FD"/>
<path d="M257.152 498.568L428.022 498.418C436.904 498.418 444.1 491.492 444.1 482.971L443.799 163.241C443.799 154.479 436.392 147.403 427.269 147.403L257.212 147.554C248.089 147.554 240.712 154.66 240.712 163.421L241.013 483.152C241.043 491.673 248.269 498.598 257.152 498.568Z" fill="#381900"/>
<path d="M263.114 495.437L426.035 495.286C434.526 495.286 441.391 488.542 441.391 480.262L441.09 168.63C441.09 160.11 434.014 153.245 425.282 153.245L263.174 153.395C254.472 153.395 247.397 160.32 247.397 168.811L247.698 480.442C247.728 488.722 254.623 495.437 263.114 495.437Z" fill="#E0DEDE"/>
<path d="M431.591 164.415L256.867 164.595L257.193 480.953L431.917 480.773L431.591 164.415Z" fill="#1D3B77"/>
<path d="M371.928 156.737H317.189V160.651H371.928V156.737Z" fill="#5F9BDD"/>
<path d="M325.258 491.793L363.859 491.763C365.484 491.763 366.779 490.86 366.779 489.776V486.434C366.779 485.35 365.454 484.447 363.859 484.447L325.258 484.477C323.633 484.477 322.338 485.38 322.338 486.464V489.806C322.338 490.89 323.663 491.793 325.258 491.793Z" fill="#5F9BDD"/>
<path d="M400.051 436.844H289.038C280.638 436.844 273.833 430.039 273.833 421.639V403.332C273.833 394.932 280.638 388.127 289.038 388.127H400.051C408.452 388.127 415.256 394.932 415.256 403.332V421.639C415.256 430.039 408.452 436.844 400.051 436.844Z" fill="#2A4D84"/>
<path d="M391.474 349.475C417.389 323.559 417.389 281.542 391.474 255.627C365.558 229.712 323.541 229.712 297.626 255.627C271.711 281.542 271.711 323.559 297.626 349.475C323.541 375.39 365.558 375.39 391.474 349.475Z" fill="#2A4D84"/>
<path d="M297.498 294.306L321.555 302.376C321.615 302.406 321.675 302.406 321.736 302.406L367.502 303.339C367.562 303.339 367.592 303.339 367.652 303.339L391.71 298.251C392.372 298.1 392.432 297.137 391.77 296.956L345.191 282.865C345.1 282.835 344.98 282.835 344.89 282.865L297.588 293.012C296.896 293.132 296.835 294.096 297.498 294.306Z" fill="#EDF4F9"/>
<path d="M367.26 316.798C361.419 317.973 353.32 319.057 343.685 318.816C334.562 318.575 326.914 317.22 321.313 315.865C321.434 311.349 321.524 306.832 321.645 302.346C325.8 300.78 334.05 298.191 344.919 298.432C355.548 298.673 363.557 301.533 367.591 303.279C367.471 307.796 367.351 312.282 367.26 316.798Z" fill="#1D3B77"/>
<path d="M367.231 317.491C361.39 318.605 353.32 319.659 343.655 319.388C334.532 319.147 326.884 317.852 321.284 316.527C321.374 312.191 321.495 307.856 321.585 303.52C325.74 302.015 333.99 299.546 344.829 299.786C355.458 300.027 363.467 302.797 367.532 304.453C367.441 308.819 367.351 313.155 367.231 317.491Z" fill="#EDF4F9"/>
<path d="M323.36 286.327C321.523 285.514 319.536 284.942 317.549 284.581C315.561 284.22 313.514 284.099 311.557 284.4C310.563 284.551 309.63 284.792 308.726 285.153C307.823 285.545 307.01 286.026 306.288 286.628C305.535 287.231 304.933 287.953 304.391 288.736C304.15 289.128 303.879 289.519 303.668 289.971C303.578 290.181 303.427 290.392 303.337 290.603L303.066 291.265C302.855 291.687 302.735 292.199 302.584 292.65L302.133 294.035L301.771 295.45C301.651 295.932 301.53 296.384 301.47 296.866L301.229 298.311C301.139 298.793 301.109 299.274 301.049 299.756L300.958 300.479C300.928 300.72 300.928 300.96 300.928 301.201C300.898 301.683 300.868 302.165 300.868 302.647C300.838 304.574 301.019 306.501 301.35 308.397C301.41 308.879 301.53 309.331 301.651 309.813C301.741 310.294 301.892 310.746 302.012 311.198C302.163 311.649 302.283 312.101 302.464 312.553C302.554 312.763 302.614 313.004 302.705 313.215C302.735 313.305 302.795 313.426 302.825 313.516C302.855 313.606 302.915 313.727 302.946 313.787C303.307 314.48 303.006 315.323 302.283 315.684C301.56 316.045 300.687 315.744 300.326 315.052C300.326 315.021 300.296 314.991 300.296 314.961V314.931C300.236 314.781 300.175 314.66 300.145 314.51C300.085 314.389 300.055 314.239 299.995 314.118C299.904 313.877 299.814 313.606 299.754 313.365C299.603 312.854 299.483 312.342 299.332 311.83C299.212 311.318 299.092 310.806 299.031 310.294C298.941 309.782 298.851 309.271 298.79 308.759C298.55 306.711 298.489 304.634 298.61 302.556C298.64 302.044 298.7 301.533 298.76 301.021C298.79 300.78 298.821 300.509 298.851 300.268L298.971 299.515C299.061 299.003 299.122 298.492 299.242 298.01L299.603 296.504C299.694 295.992 299.874 295.511 300.025 295.029L300.477 293.554L301.019 292.108C301.199 291.627 301.35 291.145 301.591 290.663L301.922 289.94C302.042 289.7 302.193 289.489 302.313 289.248C302.554 288.766 302.885 288.345 303.186 287.923C303.849 287.08 304.571 286.267 305.475 285.635C306.348 285.003 307.311 284.461 308.335 284.099C309.359 283.738 310.413 283.527 311.466 283.407C313.604 283.196 315.712 283.437 317.729 283.888C319.747 284.37 321.704 285.033 323.57 285.966C323.661 286.026 323.721 286.147 323.661 286.237C323.6 286.327 323.48 286.388 323.36 286.327Z" fill="#CBE1F7"/>
<path d="M303.608 316.467C303.548 314.961 303.186 314.118 302.554 313.877C302.946 313.366 303.066 312.733 302.855 312.101C302.524 311.047 301.35 310.475 300.266 310.806C299.182 311.137 298.58 312.252 298.911 313.305C299.092 313.877 299.513 314.299 300.025 314.51C300.025 314.51 299.634 315.654 300.446 316.557C301.29 317.46 300.657 320.592 301.35 320.803C302.042 321.013 305.264 320.2 305.475 319.357C305.716 318.544 303.668 318.153 303.608 316.467Z" fill="#EDF4F9"/>
<path d="M326.462 317.611C327.847 317.852 329.292 318.093 330.858 318.334L331.279 300.9C329.653 301.201 328.178 301.533 326.853 301.894L326.462 317.611Z" fill="#CBE1F7"/>
<path d="M331.643 318.454C331.944 318.484 332.275 318.544 332.576 318.574L332.997 300.599C332.666 300.659 332.365 300.689 332.034 300.75L331.643 318.454Z" fill="#CBE1F7"/>
<path d="M277.866 209.578C278.739 210.09 280.064 210.512 281.449 210.512C283.195 210.512 284.159 209.699 284.159 208.494C284.159 207.38 283.406 206.718 281.509 206.025C279.07 205.152 277.504 203.858 277.504 201.72C277.504 199.311 279.522 197.444 282.743 197.444C284.339 197.444 285.544 197.806 286.296 198.197L285.634 200.365C285.092 200.094 284.068 199.672 282.683 199.672C280.967 199.672 280.214 200.606 280.214 201.449C280.214 202.593 281.087 203.135 283.044 203.888C285.604 204.851 286.868 206.146 286.868 208.284C286.868 210.662 285.062 212.74 281.238 212.74C279.672 212.74 278.046 212.288 277.233 211.806L277.866 209.578Z" fill="#CBE1F7"/>
<path d="M299.996 212.077C299.363 212.409 297.948 212.74 296.172 212.74C291.475 212.74 288.614 209.789 288.614 205.273C288.614 200.395 292.017 197.444 296.533 197.444C298.309 197.444 299.604 197.806 300.146 198.107L299.544 200.275C298.851 199.974 297.858 199.703 296.653 199.703C293.643 199.703 291.475 201.599 291.475 205.152C291.475 208.404 293.402 210.512 296.653 210.512C297.767 210.512 298.912 210.301 299.604 209.97L299.996 212.077Z" fill="#CBE1F7"/>
<path d="M304.993 197.686V203.617H311.256V197.686H313.966V212.499H311.256V205.966H304.993V212.499H302.283V197.686H304.993Z" fill="#CBE1F7"/>
<path d="M330.225 204.972C330.225 209.94 327.214 212.77 323.119 212.77C318.934 212.77 316.314 209.578 316.314 205.213C316.314 200.666 319.175 197.444 323.36 197.444C327.696 197.444 330.225 200.726 330.225 204.972ZM319.175 205.182C319.175 208.193 320.68 210.602 323.3 210.602C325.919 210.602 327.395 208.193 327.395 205.092C327.395 202.292 326.01 199.672 323.3 199.672C320.59 199.642 319.175 202.111 319.175 205.182Z" fill="#CBE1F7"/>
<path d="M332.575 197.686H335.285V210.241H341.367V212.499H332.575V197.686Z" fill="#CBE1F7"/>
<path d="M346.486 208.314L345.221 212.529H342.421L347.178 197.715H350.641L355.458 212.529H352.568L351.213 208.314H346.486ZM350.731 206.266L349.557 202.623C349.286 201.72 349.015 200.696 348.804 199.853H348.774C348.563 200.696 348.322 201.75 348.081 202.623L346.937 206.266H350.731Z" fill="#CBE1F7"/>
<path d="M357.506 197.896C358.53 197.715 360.035 197.595 361.601 197.595C363.738 197.595 365.184 197.956 366.177 198.769C366.99 199.462 367.442 200.485 367.442 201.75C367.442 203.677 366.147 204.972 364.762 205.453V205.513C365.816 205.905 366.448 206.929 366.84 208.374C367.291 210.211 367.713 211.927 368.014 212.499H365.214C365.003 212.047 364.642 210.843 364.22 209.006C363.799 207.079 363.106 206.447 361.571 206.417H360.216V212.499H357.506V197.896ZM360.186 204.46H361.781C363.618 204.46 364.762 203.496 364.762 202.021C364.762 200.395 363.618 199.642 361.872 199.642C361.029 199.642 360.457 199.702 360.186 199.763V204.46Z" fill="#CBE1F7"/>
<path d="M369.938 209.578C370.811 210.09 372.136 210.512 373.521 210.512C375.267 210.512 376.231 209.699 376.231 208.494C376.231 207.38 375.478 206.718 373.581 206.025C371.142 205.152 369.577 203.858 369.577 201.72C369.577 199.311 371.594 197.444 374.816 197.444C376.411 197.444 377.616 197.806 378.369 198.197L377.706 200.365C377.164 200.094 376.14 199.672 374.755 199.672C373.039 199.672 372.286 200.606 372.286 201.449C372.286 202.593 373.16 203.135 375.117 203.888C377.676 204.851 378.941 206.146 378.941 208.284C378.941 210.662 377.134 212.74 373.31 212.74C371.745 212.74 370.119 212.288 369.306 211.806L369.938 209.578Z" fill="#CBE1F7"/>
<path d="M384.151 197.686V203.617H390.414V197.686H393.124V212.499H390.414V205.966H384.151V212.499H381.441V197.686H384.151Z" fill="#CBE1F7"/>
<path d="M398.934 197.686V212.499H396.225V197.686H398.934Z" fill="#CBE1F7"/>
<path d="M402.037 197.896C403 197.715 404.355 197.595 406.162 197.595C408.149 197.595 409.594 198.016 410.528 198.799C411.401 199.522 411.973 200.696 411.973 202.081C411.973 203.496 411.521 204.64 410.708 205.453C409.624 206.537 407.938 207.049 406.011 207.049C405.5 207.049 405.048 207.019 404.687 206.959V212.559H402.007V197.896H402.037ZM404.717 204.791C405.048 204.881 405.5 204.911 406.041 204.911C408.059 204.911 409.293 203.918 409.293 202.171C409.293 200.515 408.149 199.642 406.282 199.642C405.53 199.642 405.018 199.702 404.717 199.763V204.791Z" fill="#CBE1F7"/>
<path d="M375.329 425.703H313.936C306.649 425.703 300.748 419.802 300.748 412.516C300.748 405.229 306.649 399.328 313.936 399.328H375.329C382.615 399.328 388.517 405.229 388.517 412.516C388.547 419.802 382.615 425.703 375.329 425.703Z" fill="#F97450"/>
<path d="M532.414 494.76C532.414 490.989 532.414 488.03 532.414 484.259C543.583 485.93 556.996 487.266 572.223 487.218C587.258 487.218 600.528 485.93 611.602 484.259C611.602 488.03 611.602 490.989 611.602 494.76C611.65 494.856 611.65 494.951 611.65 494.999C611.65 497.815 593.941 500.011 572.032 500.011C550.123 500.011 532.366 497.863 532.366 495.047C532.414 494.951 532.414 494.856 532.414 494.76Z" fill="#FFAF5D"/>
<path d="M532.414 493.806C532.414 490.035 532.414 487.075 532.414 483.304C543.583 484.975 556.996 486.312 572.223 486.264C587.258 486.264 600.528 484.975 611.602 483.304C611.602 487.075 611.602 490.035 611.602 493.806C611.65 493.901 611.65 493.996 611.65 494.044C611.65 496.86 593.941 499.056 572.032 499.056C550.123 499.056 532.366 496.908 532.366 494.092C532.414 493.996 532.414 493.901 532.414 493.806Z" fill="#EB8511"/>
<path d="M602.104 497.338V484.641C603.106 484.498 604.108 484.355 605.063 484.211V496.861C604.156 497.004 603.154 497.195 602.104 497.338Z" fill="#FFB017"/>
<path d="M593.75 498.245V485.596C594.466 485.548 595.134 485.453 595.803 485.405V498.054C595.182 498.149 594.466 498.197 593.75 498.245Z" fill="#FFB017"/>
<path d="M541.961 497.338C541.245 497.242 540.529 497.099 539.908 497.004V484.593H541.961V497.338Z" fill="#FFB017"/>
<path d="M599.288 497.719V485.023C599.622 484.975 599.956 484.927 600.29 484.879V497.576C599.956 497.624 599.622 497.672 599.288 497.719Z" fill="#FFB017"/>
<path d="M532.366 483.305C532.366 480.488 550.218 478.34 572.08 478.34C593.989 478.34 611.697 480.631 611.697 483.448C611.697 486.264 593.941 488.555 572.08 488.555C550.17 488.555 532.366 486.168 532.366 483.305Z" fill="#FDCE14"/>
<path d="M572.174 486.55C591.418 486.55 607.018 484.948 607.018 482.971C607.018 480.993 591.418 479.391 572.174 479.391C552.93 479.391 537.329 480.993 537.329 482.971C537.329 484.948 552.93 486.55 572.174 486.55Z" fill="#FE920C"/>
<path d="M561.149 483.018C561.293 482.493 563.679 482.302 565.827 482.207C565.923 481.777 565.923 481.491 566.257 481.109C562.104 481.157 557.904 481.777 556.281 482.541H552.939L552.176 483.4H555.612C556.138 484.116 559.67 484.546 565.016 484.546C569.646 484.546 573.369 484.259 575.994 482.971C577.617 482.159 578.954 481.92 581.77 481.873C584.3 481.825 585.779 482.016 585.636 482.589C585.445 483.162 583.775 483.543 580.29 483.639C580.099 484.068 580.004 484.259 579.622 484.689C584.491 484.593 588.452 484.212 590.266 483.4H593.655L594.419 482.541H591.269C591.65 481.205 587.736 480.918 581.388 480.966C576.472 481.014 572.367 481.348 569.646 482.636C568.118 483.352 567.116 483.543 564.682 483.543C562.2 483.591 561.054 483.352 561.149 483.018Z" fill="#FEB05B"/>
<path d="M539.717 483.066C539.717 479.295 539.717 476.336 539.717 472.565C550.886 474.236 564.299 475.572 579.525 475.525C594.561 475.525 607.831 474.236 618.905 472.565C618.905 476.336 618.905 479.295 618.905 483.066C618.952 483.162 618.952 483.257 618.952 483.305C618.952 486.121 601.244 488.317 579.335 488.317C557.425 488.317 539.669 486.169 539.669 483.353C539.717 483.305 539.717 483.21 539.717 483.066Z" fill="#FFAF5D"/>
<path d="M539.717 482.112C539.717 478.341 539.717 475.381 539.717 471.611C550.886 473.281 564.299 474.618 579.525 474.57C594.561 474.57 607.831 473.281 618.905 471.611C618.905 475.381 618.905 478.341 618.905 482.112C618.952 482.207 618.952 482.303 618.952 482.35C618.952 485.167 601.244 487.362 579.335 487.362C557.425 487.362 539.669 485.214 539.669 482.398C539.717 482.303 539.717 482.207 539.717 482.112Z" fill="#EB8511"/>
<path d="M609.404 485.644V472.947C610.407 472.804 611.409 472.661 612.364 472.518V485.167C611.457 485.358 610.454 485.501 609.404 485.644Z" fill="#FFB017"/>
<path d="M601.052 486.55V473.901C601.768 473.853 602.437 473.758 603.105 473.71V486.359C602.484 486.455 601.768 486.502 601.052 486.55Z" fill="#FFB017"/>
<path d="M549.262 485.644C548.546 485.548 547.83 485.405 547.21 485.309V472.899H549.262V485.644Z" fill="#FFB017"/>
<path d="M606.591 486.025V473.329C606.925 473.281 607.259 473.233 607.593 473.185V485.882C607.259 485.93 606.925 485.978 606.591 486.025Z" fill="#FFB017"/>
<path d="M539.669 471.658C539.669 468.842 557.521 466.694 579.382 466.694C601.291 466.694 619 468.985 619 471.801C619 474.617 601.244 476.909 579.382 476.909C557.473 476.861 539.669 474.474 539.669 471.658Z" fill="#FFAF5D"/>
<path d="M544.586 471.276C544.586 469.271 560.194 467.696 579.431 467.696C598.667 467.696 614.275 469.319 614.275 471.276C614.275 473.281 598.667 474.856 579.431 474.856C560.194 474.856 544.586 473.233 544.586 471.276Z" fill="#FE920C"/>
<path d="M568.451 471.324C568.594 470.799 570.981 470.608 573.129 470.513C573.225 470.083 573.224 469.797 573.559 469.415C569.406 469.462 565.205 470.083 563.583 470.847H560.241L559.478 471.706H562.914C563.439 472.422 566.972 472.851 572.318 472.851C576.948 472.851 580.671 472.565 583.296 471.276C584.919 470.465 586.255 470.226 589.072 470.178C591.601 470.131 593.081 470.322 592.938 470.894C592.747 471.467 591.076 471.849 587.592 471.944C587.401 472.374 587.306 472.565 586.924 472.995C591.792 472.899 595.754 472.517 597.568 471.706H600.957L601.721 470.847H598.57C598.952 469.51 595.038 469.224 588.69 469.271C583.773 469.319 579.668 469.653 576.948 470.942C575.42 471.658 574.418 471.849 571.983 471.849C569.501 471.897 568.356 471.706 568.451 471.324Z" fill="#FEB05B"/>
<path d="M530.455 471.419C530.455 467.648 530.455 464.689 530.455 460.918C541.624 462.589 555.037 463.925 570.264 463.877C585.299 463.877 598.569 462.589 609.643 460.918C609.643 464.689 609.643 467.648 609.643 471.419C609.691 471.515 609.691 471.61 609.691 471.658C609.691 474.474 591.982 476.67 570.073 476.67C548.164 476.67 530.407 474.522 530.407 471.705C530.455 471.61 530.455 471.515 530.455 471.419Z" fill="#FFAF5D"/>
<path d="M530.455 470.417C530.455 466.646 530.455 463.686 530.455 459.916C541.624 461.586 555.037 462.923 570.264 462.875C585.299 462.875 598.569 461.586 609.643 459.916C609.643 463.686 609.643 466.646 609.643 470.417C609.691 470.512 609.691 470.608 609.691 470.655C609.691 473.472 591.982 475.667 570.073 475.667C548.164 475.667 530.407 473.519 530.407 470.703C530.455 470.608 530.455 470.512 530.455 470.417Z" fill="#EB8511"/>
<path d="M600.144 473.997V461.3C601.146 461.157 602.148 461.013 603.103 460.87V473.519C602.196 473.662 601.194 473.806 600.144 473.997Z" fill="#FFB017"/>
<path d="M591.839 474.903V462.254C592.555 462.207 593.223 462.111 593.891 462.063V474.713C593.223 474.76 592.507 474.856 591.839 474.903Z" fill="#FFB017"/>
<path d="M540.002 473.997C539.286 473.901 538.57 473.758 537.949 473.662V461.252H540.002V473.997Z" fill="#FFB017"/>
<path d="M597.329 474.33V461.634C597.663 461.586 597.997 461.538 598.331 461.49V474.187C598.045 474.283 597.711 474.283 597.329 474.33Z" fill="#FFB017"/>
<path d="M530.407 459.963C530.407 457.147 548.259 454.999 570.121 454.999C592.03 454.999 609.738 457.29 609.738 460.106C609.738 462.923 591.982 465.214 570.121 465.214C548.211 465.166 530.407 462.779 530.407 459.963Z" fill="#FFAF5D"/>
<path d="M535.324 459.581C535.324 457.577 550.933 456.001 570.169 456.001C589.405 456.001 605.013 457.624 605.013 459.581C605.013 461.586 589.405 463.161 570.169 463.161C550.933 463.161 535.324 461.586 535.324 459.581Z" fill="#FE920C"/>
<path d="M559.189 459.677C559.333 459.151 561.719 458.961 563.867 458.865C563.963 458.435 563.963 458.149 564.297 457.767C560.144 457.815 555.944 458.435 554.321 459.199H550.98L550.216 460.058H553.653C554.178 460.774 557.71 461.204 563.056 461.204C567.686 461.204 571.409 460.918 574.034 459.629C575.657 458.817 576.994 458.579 579.81 458.531C582.34 458.483 583.819 458.674 583.676 459.247C583.485 459.82 581.815 460.202 578.33 460.297C578.139 460.727 578.044 460.918 577.662 461.347C582.531 461.252 586.492 460.87 588.306 460.058H591.695L592.459 459.199H589.309C589.69 457.863 585.776 457.576 579.428 457.624C574.512 457.672 570.407 458.006 567.686 459.295C566.158 460.011 565.156 460.202 562.722 460.202C560.287 460.202 559.094 460.011 559.189 459.677Z" fill="#FEB05B"/>
<path d="M458.906 494.76C458.906 490.99 458.906 488.03 458.906 484.259C470.075 485.93 483.488 487.266 498.715 487.219C513.751 487.219 527.02 485.93 538.094 484.259C538.094 488.03 538.094 490.99 538.094 494.76C538.142 494.856 538.142 494.951 538.142 494.999C538.142 497.815 520.433 500.011 498.524 500.011C476.615 500.011 458.858 497.863 458.858 495.047C458.906 494.951 458.906 494.856 458.906 494.76Z" fill="#FFAF5D"/>
<path d="M458.906 493.806C458.906 490.035 458.906 487.076 458.906 483.305C470.075 484.975 483.488 486.312 498.715 486.264C513.751 486.264 527.02 484.975 538.094 483.305C538.094 487.076 538.094 490.035 538.094 493.806C538.142 493.901 538.142 493.997 538.142 494.044C538.142 496.861 520.433 499.056 498.524 499.056C476.615 499.056 458.858 496.908 458.858 494.092C458.906 493.997 458.906 493.901 458.906 493.806Z" fill="#EB8511"/>
<path d="M528.546 497.338V484.641C529.548 484.498 530.551 484.355 531.505 484.212V496.861C530.598 497.004 529.596 497.195 528.546 497.338Z" fill="#FFB017"/>
<path d="M520.241 498.244V485.595C520.957 485.548 521.625 485.452 522.294 485.405V498.054C521.625 498.149 520.957 498.197 520.241 498.244Z" fill="#FFB017"/>
<path d="M468.404 497.338C467.688 497.242 466.972 497.099 466.352 497.003V484.593H468.404V497.338Z" fill="#FFB017"/>
<path d="M525.777 497.72V485.023C526.111 484.975 526.446 484.927 526.78 484.88V497.576C526.446 497.624 526.111 497.672 525.777 497.72Z" fill="#FFB017"/>
<path d="M458.81 483.305C458.81 480.489 476.661 478.341 498.523 478.341C520.432 478.341 538.141 480.632 538.141 483.448C538.141 486.264 520.384 488.555 498.523 488.555C476.661 488.555 458.81 486.169 458.81 483.305Z" fill="#FDCE14"/>
<path d="M498.617 486.551C517.861 486.551 533.462 484.948 533.462 482.971C533.462 480.994 517.861 479.391 498.617 479.391C479.373 479.391 463.772 480.994 463.772 482.971C463.772 484.948 479.373 486.551 498.617 486.551Z" fill="#FE920C"/>
<path d="M487.592 483.018C487.735 482.493 490.122 482.302 492.27 482.207C492.365 481.777 492.365 481.491 492.699 481.109C488.546 481.157 484.346 481.777 482.723 482.541H479.382L478.618 483.4H482.055C482.58 484.116 486.112 484.545 491.458 484.545C496.088 484.545 499.811 484.259 502.437 482.97C504.059 482.159 505.396 481.92 508.212 481.872C510.742 481.825 512.222 482.016 512.079 482.588C511.888 483.161 510.217 483.543 506.732 483.639C506.542 484.068 506.446 484.259 506.064 484.689C510.933 484.593 514.895 484.211 516.709 483.4H520.098L520.861 482.541H517.711C518.093 481.204 514.179 480.918 507.83 480.966C502.914 481.013 498.809 481.347 496.088 482.636C494.561 483.352 493.558 483.543 491.124 483.543C488.69 483.591 487.496 483.352 487.592 483.018Z" fill="#FEB05B"/>
<path d="M466.211 483.066C466.211 479.295 466.211 476.335 466.211 472.564C477.38 474.235 490.793 475.572 506.02 475.524C521.056 475.524 534.325 474.235 545.399 472.564C545.399 476.335 545.399 479.295 545.399 483.066C545.447 483.161 545.447 483.257 545.447 483.304C545.447 486.12 527.738 488.316 505.829 488.316C483.92 488.316 466.163 486.168 466.163 483.352C466.211 483.304 466.211 483.209 466.211 483.066Z" fill="#FFAF5D"/>
<path d="M466.211 482.111C466.211 478.34 466.211 475.381 466.211 471.61C477.38 473.281 490.793 474.617 506.02 474.569C521.056 474.569 534.325 473.281 545.399 471.61C545.399 475.381 545.399 478.34 545.399 482.111C545.447 482.207 545.447 482.302 545.447 482.35C545.447 485.166 527.738 487.362 505.829 487.362C483.92 487.362 466.163 485.214 466.163 482.398C466.211 482.302 466.211 482.207 466.211 482.111Z" fill="#EB8511"/>
<path d="M535.851 485.643V472.946C536.853 472.803 537.855 472.66 538.81 472.517V485.166C537.903 485.357 536.948 485.5 535.851 485.643Z" fill="#FFB017"/>
<path d="M527.546 486.55V473.901C528.262 473.853 528.93 473.757 529.598 473.71V486.359C528.93 486.454 528.262 486.502 527.546 486.55Z" fill="#FFB017"/>
<path d="M475.708 485.643C474.992 485.548 474.277 485.404 473.656 485.309V472.898H475.708V485.643Z" fill="#FFB017"/>
<path d="M533.082 486.025V473.328C533.416 473.28 533.75 473.233 534.084 473.185V485.882C533.75 485.929 533.416 485.977 533.082 486.025Z" fill="#FFB017"/>
<path d="M466.114 471.658C466.114 468.841 483.966 466.693 505.828 466.693C527.737 466.693 545.445 468.985 545.445 471.801C545.445 474.617 527.689 476.908 505.828 476.908C483.966 476.86 466.114 474.474 466.114 471.658Z" fill="#FFAF5D"/>
<path d="M471.077 471.275C471.077 469.27 486.686 467.695 505.922 467.695C525.158 467.695 540.766 469.318 540.766 471.275C540.766 473.28 525.158 474.855 505.922 474.855C486.686 474.855 471.077 473.232 471.077 471.275Z" fill="#FE920C"/>
<path d="M494.896 471.323C495.04 470.798 497.426 470.607 499.574 470.512C499.67 470.082 499.67 469.796 500.004 469.414C495.851 469.462 491.65 470.082 490.028 470.846H486.686L485.923 471.705H489.359C489.884 472.421 493.417 472.851 498.763 472.851C503.393 472.851 507.116 472.564 509.741 471.275C511.364 470.464 512.7 470.225 515.517 470.178C518.046 470.13 519.526 470.321 519.383 470.894C519.192 471.466 517.521 471.848 514.037 471.944C513.846 472.373 513.751 472.564 513.369 472.994C518.237 472.898 522.199 472.517 524.013 471.705H527.402L528.166 470.846H525.015C525.397 469.509 521.483 469.223 515.135 469.271C510.218 469.318 506.113 469.653 503.393 470.941C501.865 471.657 500.863 471.848 498.429 471.848C495.994 471.896 494.801 471.705 494.896 471.323Z" fill="#FEB05B"/>
<path d="M456.95 471.419C456.95 467.648 456.95 464.689 456.95 460.918C468.119 462.589 481.532 463.925 496.758 463.878C511.794 463.878 525.064 462.589 536.138 460.918C536.138 464.689 536.138 467.648 536.138 471.419C536.185 471.515 536.185 471.61 536.185 471.658C536.185 474.474 518.477 476.67 496.567 476.67C474.658 476.67 456.902 474.522 456.902 471.706C456.95 471.61 456.95 471.515 456.95 471.419Z" fill="#FFAF5D"/>
<path d="M456.95 470.417C456.95 466.646 456.95 463.686 456.95 459.916C468.119 461.586 481.532 462.923 496.758 462.875C511.794 462.875 525.064 461.586 536.138 459.916C536.138 463.686 536.138 466.646 536.138 470.417C536.185 470.512 536.185 470.608 536.185 470.655C536.185 473.472 518.477 475.667 496.567 475.667C474.658 475.667 456.902 473.519 456.902 470.703C456.95 470.608 456.95 470.512 456.95 470.417Z" fill="#EB8511"/>
<path d="M526.59 473.997V461.3C527.592 461.157 528.595 461.013 529.549 460.87V473.519C528.642 473.662 527.688 473.806 526.59 473.997Z" fill="#FFB017"/>
<path d="M518.284 474.903V462.254C519 462.207 519.668 462.111 520.336 462.063V474.713C519.668 474.76 519 474.856 518.284 474.903Z" fill="#FFB017"/>
<path d="M466.448 473.997C465.732 473.901 465.016 473.758 464.395 473.662V461.252H466.448V473.997Z" fill="#FFB017"/>
<path d="M523.821 474.331V461.634C524.155 461.586 524.489 461.538 524.823 461.491V474.188C524.489 474.283 524.155 474.283 523.821 474.331Z" fill="#FFB017"/>
<path d="M456.853 459.963C456.853 457.147 474.705 454.999 496.567 454.999C518.476 454.999 536.184 457.29 536.184 460.106C536.184 462.923 518.428 465.214 496.567 465.214C474.705 465.166 456.853 462.779 456.853 459.963Z" fill="#FFAF5D"/>
<path d="M461.816 459.581C461.816 457.577 477.425 456.001 496.661 456.001C515.897 456.001 531.506 457.624 531.506 459.581C531.506 461.586 515.897 463.161 496.661 463.161C477.425 463.161 461.816 461.586 461.816 459.581Z" fill="#FE920C"/>
<path d="M485.635 459.677C485.778 459.151 488.164 458.961 490.312 458.865C490.408 458.435 490.408 458.149 490.742 457.767C486.589 457.815 482.389 458.435 480.766 459.199H477.425L476.661 460.058H480.098C480.623 460.774 484.155 461.204 489.501 461.204C494.131 461.204 497.854 460.918 500.479 459.629C502.102 458.817 503.439 458.579 506.255 458.531C508.785 458.483 510.265 458.674 510.121 459.247C509.93 459.82 508.26 460.202 504.775 460.297C504.584 460.727 504.489 460.918 504.107 461.347C508.976 461.252 512.938 460.87 514.751 460.058H518.14L518.904 459.199H515.754C516.136 457.863 512.222 457.576 505.873 457.624C500.957 457.672 496.852 458.006 494.131 459.295C492.604 460.011 491.601 460.202 489.167 460.202C486.732 460.202 485.539 460.011 485.635 459.677Z" fill="#FEB05B"/>
<path d="M445.971 459.725C445.971 455.954 445.971 452.995 445.971 449.224C457.14 450.895 470.553 452.231 485.779 452.184C500.815 452.184 514.085 450.895 525.159 449.224C525.159 452.995 525.159 455.954 525.159 459.725C525.206 459.821 525.206 459.916 525.206 459.964C525.206 462.78 507.498 464.976 485.588 464.976C463.679 464.976 445.923 462.828 445.923 460.012C445.971 459.916 445.971 459.821 445.971 459.725Z" fill="#FFAF5D"/>
<path d="M445.971 458.77C445.971 455 445.971 452.04 445.971 448.269C457.14 449.94 470.553 451.276 485.779 451.229C500.815 451.229 514.085 449.94 525.159 448.269C525.159 452.04 525.159 455 525.159 458.77C525.206 458.866 525.206 458.961 525.206 459.009C525.206 461.825 507.498 464.021 485.588 464.021C463.679 464.021 445.923 461.873 445.923 459.057C445.971 458.961 445.971 458.866 445.971 458.77Z" fill="#EB8511"/>
<path d="M515.659 462.303V449.606C516.662 449.463 517.664 449.319 518.619 449.176V461.825C517.712 461.969 516.709 462.159 515.659 462.303Z" fill="#FFB017"/>
<path d="M507.354 463.209V450.56C508.07 450.512 508.739 450.417 509.407 450.369V463.018C508.739 463.114 508.023 463.161 507.354 463.209Z" fill="#FFB017"/>
<path d="M455.517 462.303C454.801 462.207 454.085 462.064 453.465 461.969V449.558H455.517V462.303Z" fill="#FFB017"/>
<path d="M512.845 462.684V449.94C513.179 449.892 513.513 449.844 513.847 449.797V462.493C513.513 462.589 513.227 462.637 512.845 462.684Z" fill="#FFB017"/>
<path d="M445.923 448.269C445.923 445.453 463.775 443.305 485.636 443.305C507.545 443.305 525.254 445.596 525.254 448.413C525.254 451.229 507.498 453.52 485.636 453.52C463.727 453.52 445.923 451.086 445.923 448.269Z" fill="#FDCE14"/>
<path d="M450.84 447.888C450.84 445.883 466.448 444.308 485.684 444.308C504.921 444.308 520.529 445.931 520.529 447.888C520.529 449.892 504.921 451.467 485.684 451.467C466.448 451.515 450.84 449.892 450.84 447.888Z" fill="#FE920C"/>
<path d="M474.705 447.982C474.848 447.457 477.235 447.266 479.383 447.171C479.478 446.741 479.478 446.455 479.812 446.073C475.66 446.121 471.459 446.741 469.836 447.505H466.495L465.731 448.364H469.168C469.693 449.08 473.225 449.51 478.571 449.51C483.201 449.51 486.925 449.223 489.55 447.934C491.173 447.123 492.509 446.884 495.326 446.837C497.855 446.789 499.335 446.98 499.192 447.553C499.001 448.125 497.33 448.507 493.846 448.603C493.655 449.032 493.559 449.223 493.178 449.653C498.046 449.557 502.008 449.175 503.822 448.364H507.211L507.975 447.505H504.824C505.206 446.168 501.292 445.882 494.944 445.93C490.027 445.977 485.922 446.312 483.201 447.6C481.674 448.316 480.672 448.507 478.237 448.507C475.803 448.555 474.61 448.316 474.705 447.982Z" fill="#FEB05B"/>
<path d="M456.95 448.031C456.95 444.26 456.95 441.301 456.95 437.53C468.119 439.2 481.532 440.537 496.758 440.489C511.794 440.489 525.064 439.2 536.138 437.53C536.138 441.301 536.138 444.26 536.138 448.031C536.185 448.126 536.185 448.222 536.185 448.27C536.185 451.086 518.477 453.281 496.567 453.281C474.658 453.281 456.902 451.133 456.902 448.317C456.95 448.222 456.95 448.126 456.95 448.031Z" fill="#FFAF5D"/>
<path d="M456.95 447.076C456.95 443.305 456.95 440.346 456.95 436.575C468.119 438.246 481.532 439.582 496.758 439.534C511.794 439.534 525.064 438.246 536.138 436.575C536.138 440.346 536.138 443.305 536.138 447.076C536.185 447.172 536.185 447.267 536.185 447.315C536.185 450.131 518.477 452.327 496.567 452.327C474.658 452.327 456.902 450.179 456.902 447.362C456.95 447.267 456.95 447.172 456.95 447.076Z" fill="#EB8511"/>
<path d="M526.59 450.609V437.912C527.592 437.769 528.595 437.625 529.549 437.482V450.131C528.642 450.322 527.688 450.465 526.59 450.609Z" fill="#FFB017"/>
<path d="M518.284 451.515V438.866C519 438.818 519.668 438.723 520.336 438.675V451.324C519.668 451.419 519 451.467 518.284 451.515Z" fill="#FFB017"/>
<path d="M466.448 450.608C465.732 450.513 465.016 450.37 464.395 450.274V437.864H466.448V450.608Z" fill="#FFB017"/>
<path d="M523.821 450.99V438.294C524.155 438.246 524.489 438.198 524.823 438.15V450.847C524.489 450.895 524.155 450.943 523.821 450.99Z" fill="#FFB017"/>
<path d="M456.853 436.623C456.853 433.807 474.705 431.659 496.567 431.659C518.476 431.659 536.184 433.95 536.184 436.766C536.184 439.582 518.428 441.873 496.567 441.873C474.705 441.826 456.853 439.439 456.853 436.623Z" fill="#FDCE14"/>
<path d="M461.816 436.241C461.816 434.236 477.425 432.661 496.661 432.661C515.897 432.661 531.506 434.284 531.506 436.241C531.506 438.246 515.897 439.821 496.661 439.821C477.425 439.821 461.816 438.198 461.816 436.241Z" fill="#FE920C"/>
<path d="M485.635 436.289C485.778 435.764 488.164 435.573 490.312 435.477C490.408 435.048 490.408 434.761 490.742 434.38C486.589 434.427 482.389 435.048 480.766 435.812H477.425L476.661 436.671H480.098C480.623 437.387 484.155 437.816 489.501 437.816C494.131 437.816 497.854 437.53 500.479 436.241C502.102 435.43 503.439 435.191 506.255 435.143C508.785 435.096 510.265 435.286 510.121 435.859C509.93 436.432 508.26 436.814 504.775 436.909C504.584 437.339 504.489 437.53 504.107 437.959C508.976 437.864 512.938 437.482 514.751 436.671H518.14L518.904 435.812H515.754C516.136 434.475 512.222 434.189 505.873 434.236C500.957 434.284 496.852 434.618 494.131 435.907C492.604 436.623 491.601 436.814 489.167 436.814C486.732 436.862 485.539 436.671 485.635 436.289Z" fill="#FEB05B"/>
<path d="M460.864 436.336C460.864 432.565 460.864 429.606 460.864 425.835C472.033 427.506 485.446 428.842 500.673 428.794C515.709 428.794 528.978 427.506 540.052 425.835C540.052 429.606 540.052 432.565 540.052 436.336C540.1 436.432 540.1 436.527 540.1 436.575C540.1 439.391 522.391 441.587 500.482 441.587C478.573 441.587 460.816 439.439 460.816 436.622C460.864 436.575 460.816 436.479 460.864 436.336Z" fill="#FFAF5D"/>
<path d="M460.864 435.381C460.864 431.611 460.864 428.651 460.864 424.88C472.033 426.551 485.446 427.888 500.673 427.84C515.709 427.84 528.978 426.551 540.052 424.88C540.052 428.651 540.052 431.611 540.052 435.381C540.1 435.477 540.1 435.572 540.1 435.62C540.1 438.436 522.391 440.632 500.482 440.632C478.573 440.632 460.816 438.484 460.816 435.668C460.864 435.572 460.816 435.477 460.864 435.381Z" fill="#EB8511"/>
<path d="M530.504 438.914V426.217C531.506 426.073 532.509 425.93 533.463 425.787V438.436C532.556 438.627 531.554 438.77 530.504 438.914Z" fill="#FFB017"/>
<path d="M522.199 439.868V427.219C522.915 427.171 523.583 427.076 524.252 427.028V439.677C523.583 439.725 522.915 439.773 522.199 439.868Z" fill="#FFB017"/>
<path d="M470.362 438.913C469.646 438.818 468.93 438.675 468.31 438.579V426.169H470.362V438.913Z" fill="#FFB017"/>
<path d="M527.736 439.295V426.599C528.07 426.551 528.405 426.503 528.739 426.455V439.152C528.405 439.2 528.07 439.248 527.736 439.295Z" fill="#FFB017"/>
<path d="M460.768 424.928C460.768 422.112 478.619 419.964 500.481 419.964C522.39 419.964 540.099 422.255 540.099 425.071C540.099 427.887 522.342 430.179 500.481 430.179C478.619 430.131 460.768 427.744 460.768 424.928Z" fill="#FDCE14"/>
<path d="M465.731 424.547C465.731 422.542 481.34 420.967 500.576 420.967C519.812 420.967 535.421 422.59 535.421 424.547C535.421 426.551 519.812 428.127 500.576 428.127C481.34 428.127 465.731 426.551 465.731 424.547Z" fill="#FE920C"/>
<path d="M489.55 424.594C489.693 424.068 492.08 423.878 494.228 423.782C494.323 423.352 494.323 423.066 494.657 422.684C490.505 422.732 486.304 423.352 484.681 424.116H481.34L480.576 424.975H484.013C484.538 425.691 488.07 426.121 493.416 426.121C498.046 426.121 501.769 425.835 504.395 424.546C506.018 423.734 507.354 423.496 510.17 423.448C512.7 423.4 514.18 423.591 514.037 424.164C513.846 424.737 512.175 425.119 508.691 425.214C508.5 425.644 508.404 425.835 508.022 426.264C512.891 426.169 516.853 425.787 518.667 424.975H522.056L522.819 424.116H519.669C520.051 422.78 516.137 422.493 509.788 422.541C504.872 422.589 500.767 422.923 498.046 424.212C496.519 424.928 495.516 425.119 493.082 425.119C490.648 425.166 489.454 424.975 489.55 424.594Z" fill="#FEB05B"/>
<path d="M588.1 449.815C602.994 434.921 602.994 410.774 588.1 395.88C573.207 380.986 549.059 380.986 534.165 395.88C519.272 410.774 519.272 434.921 534.165 449.815C549.059 464.709 573.207 464.709 588.1 449.815Z" fill="#FDCE14"/>
<path d="M571.991 452.149C586.994 445.934 594.118 428.734 587.904 413.731C581.689 398.728 564.489 391.603 549.486 397.818C534.483 404.032 527.358 421.233 533.573 436.236C539.787 451.239 556.988 458.363 571.991 452.149Z" fill="#FFEB67"/>
<path d="M581.924 443.639C593.407 432.156 593.407 413.539 581.924 402.057C570.442 390.574 551.825 390.574 540.342 402.057C528.86 413.539 528.86 432.156 540.342 443.639C551.825 455.121 570.442 455.121 581.924 443.639Z" fill="#FFA500"/>
<path d="M561.148 397.291C576.757 397.291 589.501 409.415 590.456 424.785C590.504 424.164 590.504 423.496 590.504 422.875C590.504 406.646 577.329 393.472 561.1 393.472C544.871 393.472 531.697 406.646 531.697 422.875C531.697 423.544 531.745 424.164 531.745 424.785C532.843 409.415 545.587 397.291 561.148 397.291Z" fill="#EB860D"/>
<path d="M564.443 420.44C560.91 418.913 559.813 418.101 559.813 416.479C559.813 414.76 561.101 413.71 563.249 413.758C565.731 413.806 568.213 414.951 569.502 415.763L571.173 408.507C570.743 408.269 570.218 407.982 569.693 407.744L570.457 405.357L565.063 403.782L564.204 406.502C563.822 406.455 563.488 406.455 563.106 406.455C555.946 406.359 551.268 411.085 551.221 417.385C551.125 421.395 553.369 425.261 559.335 427.696C562.677 429.08 563.583 429.891 563.536 431.657C563.536 433.376 562.39 434.474 559.669 434.474C556.996 434.426 553.607 432.994 551.937 431.801L550.266 439.342C551.078 439.867 552.032 440.345 553.13 440.727L552.319 443.209L557.712 444.784L558.667 441.777C558.953 441.777 559.24 441.824 559.526 441.824C567.784 441.92 572.128 437.338 572.175 431.037C572.175 426.025 569.932 422.731 564.443 420.44Z" fill="#EB860D"/>
<path d="M563.822 421.061C560.29 419.534 559.192 418.722 559.192 417.099C559.192 415.381 560.481 414.331 562.628 414.378C565.111 414.426 567.593 415.572 568.881 416.383L570.552 409.128C570.122 408.889 569.597 408.603 569.072 408.364L569.836 405.978L564.442 404.402L563.583 407.123C563.201 407.075 562.867 407.075 562.485 407.075C555.325 406.98 550.648 411.705 550.6 418.006C550.504 422.016 552.748 425.882 558.714 428.316C562.056 429.701 562.963 430.512 562.915 432.278C562.915 433.996 561.769 435.094 559.049 435.094C556.376 435.047 552.987 433.615 551.316 432.421L549.645 439.963C550.457 440.488 551.411 440.965 552.509 441.347L551.698 443.829L557.092 445.404L558.046 442.397C558.333 442.397 558.619 442.445 558.905 442.445C567.163 442.541 571.507 437.958 571.554 431.658C571.554 426.646 569.263 423.352 563.822 421.061Z" fill="#FFEF04"/>
<path d="M393.991 494.761C393.991 490.99 393.991 488.03 393.991 484.26C405.16 485.93 418.573 487.267 433.8 487.219C448.836 487.219 462.105 485.93 473.179 484.26C473.179 488.03 473.179 490.99 473.179 494.761C473.227 494.856 473.227 494.952 473.227 494.999C473.227 497.816 455.518 500.011 433.609 500.011C411.7 500.011 393.943 497.863 393.943 495.047C393.991 494.952 393.991 494.856 393.991 494.761Z" fill="#FFAF5D"/>
<path d="M393.991 493.806C393.991 490.035 393.991 487.076 393.991 483.305C405.16 484.975 418.573 486.312 433.8 486.264C448.836 486.264 462.105 484.975 473.179 483.305C473.179 487.076 473.179 490.035 473.179 493.806C473.227 493.901 473.227 493.997 473.227 494.044C473.227 496.861 455.518 499.056 433.609 499.056C411.7 499.056 393.943 496.908 393.943 494.092C393.991 493.997 393.991 493.901 393.991 493.806Z" fill="#EB8511"/>
<path d="M463.68 497.338V484.641C464.682 484.498 465.684 484.355 466.639 484.212V496.861C465.684 497.004 464.73 497.195 463.68 497.338Z" fill="#FFB017"/>
<path d="M455.326 498.245V485.596C456.042 485.548 456.71 485.453 457.379 485.405V498.054C456.758 498.149 456.042 498.197 455.326 498.245Z" fill="#FFB017"/>
<path d="M403.489 497.338C402.773 497.243 402.057 497.1 401.437 497.004V484.594H403.489V497.338Z" fill="#FFB017"/>
<path d="M460.863 497.72V485.023C461.197 484.975 461.532 484.928 461.866 484.88V497.577C461.532 497.624 461.197 497.672 460.863 497.72Z" fill="#FFB017"/>
<path d="M393.896 483.305C393.896 480.489 411.747 478.341 433.609 478.341C455.518 478.341 473.227 480.632 473.227 483.448C473.227 486.264 455.47 488.556 433.609 488.556C411.747 488.556 393.896 486.169 393.896 483.305Z" fill="#FDCE14"/>
<path d="M433.703 486.55C452.947 486.55 468.548 484.948 468.548 482.971C468.548 480.993 452.947 479.391 433.703 479.391C414.459 479.391 398.858 480.993 398.858 482.971C398.858 484.948 414.459 486.55 433.703 486.55Z" fill="#FE920C"/>
<path d="M422.725 483.018C422.868 482.493 425.254 482.302 427.402 482.207C427.498 481.777 427.498 481.491 427.832 481.109C423.679 481.157 419.479 481.777 417.856 482.541H414.515L413.751 483.4H417.188C417.713 484.116 421.245 484.546 426.591 484.546C431.221 484.546 434.944 484.259 437.569 482.971C439.192 482.159 440.529 481.92 443.345 481.873C445.875 481.825 447.355 482.016 447.211 482.589C447.02 483.162 445.35 483.543 441.865 483.639C441.674 484.068 441.579 484.259 441.197 484.689C446.066 484.593 450.028 484.212 451.841 483.4H455.23L455.994 482.541H452.844C453.226 481.205 449.312 480.918 442.963 480.966C438.047 481.014 433.942 481.348 431.221 482.636C429.694 483.352 428.691 483.543 426.257 483.543C423.775 483.591 422.581 483.352 422.725 483.018Z" fill="#FEB05B"/>
<path d="M401.293 483.066C401.293 479.295 401.293 476.336 401.293 472.565C412.462 474.236 425.875 475.572 441.102 475.525C456.137 475.525 469.407 474.236 480.481 472.565C480.481 476.336 480.481 479.295 480.481 483.066C480.529 483.162 480.529 483.257 480.529 483.305C480.529 486.121 462.82 488.317 440.911 488.317C419.002 488.317 401.245 486.169 401.245 483.353C401.293 483.305 401.293 483.21 401.293 483.066Z" fill="#FFAF5D"/>
<path d="M401.293 482.112C401.293 478.341 401.293 475.382 401.293 471.611C412.462 473.281 425.875 474.618 441.102 474.57C456.137 474.57 469.407 473.281 480.481 471.611C480.481 475.382 480.481 478.341 480.481 482.112C480.529 482.207 480.529 482.303 480.529 482.351C480.529 485.167 462.82 487.363 440.911 487.363C419.002 487.363 401.245 485.215 401.245 482.398C401.293 482.303 401.293 482.207 401.293 482.112Z" fill="#EB8511"/>
<path d="M470.981 485.644V472.947C471.984 472.804 472.986 472.661 473.941 472.518V485.167C473.034 485.358 472.032 485.501 470.981 485.644Z" fill="#FFB017"/>
<path d="M462.628 486.551V473.902C463.344 473.854 464.012 473.758 464.68 473.711V486.36C464.06 486.455 463.344 486.503 462.628 486.551Z" fill="#FFB017"/>
<path d="M410.84 485.644C410.124 485.549 409.408 485.405 408.787 485.31V472.899H410.84V485.644Z" fill="#FFB017"/>
<path d="M468.165 486.026V473.329C468.499 473.281 468.833 473.234 469.167 473.186V485.883C468.833 485.93 468.499 485.978 468.165 486.026Z" fill="#FFB017"/>
<path d="M401.197 471.659C401.197 468.842 419.049 466.694 440.911 466.694C462.82 466.694 480.528 468.986 480.528 471.802C480.528 474.618 462.772 476.909 440.911 476.909C419.049 476.861 401.197 474.475 401.197 471.659Z" fill="#FFAF5D"/>
<path d="M406.16 471.276C406.16 469.271 421.769 467.696 441.005 467.696C460.241 467.696 475.849 469.319 475.849 471.276C475.849 473.281 460.241 474.856 441.005 474.856C421.769 474.856 406.16 473.233 406.16 471.276Z" fill="#FE920C"/>
<path d="M430.028 471.324C430.172 470.799 432.558 470.608 434.706 470.513C434.802 470.083 434.802 469.797 435.136 469.415C430.983 469.462 426.783 470.083 425.16 470.847H421.818L421.055 471.706H424.491C425.017 472.422 428.549 472.851 433.895 472.851C438.525 472.851 442.248 472.565 444.873 471.276C446.496 470.465 447.833 470.226 450.649 470.178C453.179 470.131 454.658 470.322 454.515 470.894C454.324 471.467 452.654 471.849 449.169 471.944C448.978 472.374 448.883 472.565 448.501 472.995C453.369 472.899 457.331 472.517 459.145 471.706H462.534L463.298 470.847H460.148C460.529 469.51 456.615 469.224 450.267 469.271C445.35 469.319 441.246 469.653 438.525 470.942C436.997 471.658 435.995 471.849 433.561 471.849C431.079 471.897 429.885 471.706 430.028 471.324Z" fill="#FEB05B"/>
<path d="M19.6064 445.691V436.002H275.404C288.531 436.002 299.223 449.892 299.223 467.075V467.266C299.223 484.45 288.578 498.34 275.404 498.34H19.6064V488.603C27.5777 466.694 19.6064 445.691 19.6064 445.691Z" fill="#476CD2"/>
<path d="M275.404 435.954H172.111C171.729 437.529 171.49 439.2 171.49 440.918V469.271C171.49 479.295 178.793 487.41 187.767 487.41H293.494C297.074 481.968 299.222 474.904 299.222 467.219V467.028C299.222 449.892 288.578 435.954 275.404 435.954Z" fill="#476CD2"/>
<path d="M19.6064 435.954H145.047C155.548 435.954 164.092 447.076 164.092 460.775V473.424C164.092 487.123 155.548 498.245 145.047 498.245H19.6064V488.603C27.5777 466.694 19.6064 445.692 19.6064 445.692V435.954Z" fill="#476CD2"/>
<path d="M143.711 445.692C150.966 445.692 156.837 453.329 156.837 462.78V471.467C156.837 480.918 150.966 488.556 143.711 488.556H19.6064C26.5754 467.076 19.6064 445.644 19.6064 445.644H143.711V445.692Z" fill="#EDF0EF"/>
<path opacity="0.83" d="M19.6064 445.692H143.711C150.966 445.692 156.837 453.329 156.837 462.78V467.124H22.709C22.5659 454.857 19.6064 445.692 19.6064 445.692Z" fill="#DEE1DE"/>
<path d="M276.501 355.239V349.082H75.166C64.8081 349.082 56.4072 357.864 56.4072 368.747V368.89C56.4072 379.773 64.8081 388.556 75.166 388.556H276.501V382.399C270.248 368.556 276.501 355.239 276.501 355.239Z" fill="#FF7200"/>
<path d="M75.166 349.129H156.454C156.788 350.132 156.932 351.182 156.932 352.28V370.227C156.932 376.576 151.204 381.731 144.139 381.731H60.9418C58.1256 378.294 56.4072 373.807 56.4072 368.938V368.795C56.455 357.912 64.8081 349.129 75.166 349.129Z" fill="#FF7200"/>
<path opacity="0.15" d="M119.224 349.129H133.782C127.768 352.804 123.663 360.251 123.663 368.795V368.938C123.663 377.482 127.768 384.88 133.782 388.604H119.224C108.866 388.604 102.804 379.678 102.804 368.842V368.651C102.804 357.721 108.866 349.129 119.224 349.129Z" fill="#231F20"/>
<path d="M276.501 349.129H177.791C169.533 349.129 162.803 356.146 162.803 364.833V372.852C162.803 381.539 169.533 388.556 177.791 388.556H276.549V382.398C270.296 368.556 276.549 355.239 276.549 355.239V349.129H276.501Z" fill="#F26C00"/>
<path d="M178.841 355.239C173.161 355.239 168.531 360.107 168.531 366.074V371.563C168.531 377.53 173.161 382.398 178.841 382.398H276.502C271.013 368.795 276.502 355.239 276.502 355.239H178.841Z" fill="#EDF0EF"/>
<path opacity="0.83" d="M276.502 355.239H178.841C173.161 355.239 168.531 360.107 168.531 366.074V368.842H274.115C274.211 361.062 276.502 355.239 276.502 355.239Z" fill="#DEE1DE"/>
<path d="M296.12 395.906V388.556H52.6851C40.1792 388.556 32.1602 399.152 32.1602 412.183V412.326C32.1602 425.357 40.1792 435.858 52.6851 435.858H296.12V428.46C288.578 411.849 296.12 395.906 296.12 395.906Z" fill="#A2ADCA"/>
<path d="M32.2061 412.183V412.326C32.2061 417.672 33.5426 422.541 36.0246 426.503H139.317C146.095 426.503 151.585 420.393 151.585 412.851V388.556H52.731C40.2251 388.556 32.2061 399.152 32.2061 412.183Z" fill="#A2ADCA"/>
<path opacity="0.15" d="M106.003 388.556H123.616C116.361 392.995 111.396 401.873 111.396 412.135V412.279C111.396 422.541 116.361 431.419 123.616 435.858H106.003C93.4968 435.858 83.3298 425.31 83.3298 412.279V412.135C83.3298 399.104 93.4491 388.556 106.003 388.556Z" fill="#231F20"/>
<path d="M296.12 388.556H176.789C166.765 388.556 158.698 397.004 158.698 407.41V417.004C158.698 427.41 166.813 435.858 176.789 435.858H296.168V428.46C288.578 411.849 296.168 395.906 296.168 395.906V388.556H296.12Z" fill="#121E3F"/>
<path d="M178.029 395.906C171.156 395.906 165.571 401.73 165.571 408.889V415.477C165.571 422.636 171.156 428.46 178.029 428.46H296.119C289.484 412.183 296.119 395.906 296.119 395.906H178.029Z" fill="#EDF0EF"/>
<path opacity="0.83" d="M296.119 395.906H178.029C171.156 395.906 165.571 401.73 165.571 408.889V412.183H293.208C293.351 402.875 296.119 395.906 296.119 395.906Z" fill="#DEE1DE"/>
<path d="M181.896 407.41C181.896 407.41 183.09 408.985 183.233 412.565C183.376 416.145 185.047 420.345 185.047 420.345L188.961 416.288L193.161 420.345C193.161 420.345 191.825 415.333 191.825 412.708C191.825 410.035 189.725 407.41 189.725 407.41H181.896Z" fill="#022FA0"/>
<path d="M489.127 131.899C488.826 136.533 495.987 139.903 499.839 140.143C503.69 140.384 510.61 138.037 510.971 133.403C511.272 128.77 506.338 129.251 500.32 128.83C494.302 128.409 489.428 127.265 489.127 131.899Z" fill="#FEB48C"/>
<path d="M497.312 141.226L501.284 141.347C505.497 141.648 507.844 136.171 508.144 131.959L509.047 118.539C509.348 114.327 506.098 110.656 501.886 110.355C497.674 110.054 494.003 113.304 493.702 117.516L492.799 130.936C492.558 135.148 493.1 140.925 497.312 141.226Z" fill="#FEB48C"/>
<path d="M508.443 127.807C508.683 123.895 509.105 118.539 509.105 118.539C509.405 114.327 506.156 110.656 501.943 110.355C497.731 110.054 494.06 113.304 493.759 117.516C493.759 117.516 493.579 120.044 493.338 123.594C493.338 123.594 496.166 127.446 499.958 128.469C504.471 129.672 508.443 127.807 508.443 127.807Z" fill="#BA6549"/>
<path d="M499.956 72.0229C510.006 71.5415 516.866 78.7628 518.431 82.2531C518.431 82.2531 523.847 87.1877 523.726 92.2426C523.606 97.2373 524.448 100.005 524.448 100.005C524.448 100.005 528.541 103.436 527.096 109.032C527.096 109.032 527.277 105.361 526.073 104.037C526.073 104.037 527.698 109.092 525.652 112.041C525.652 112.041 526.374 109.032 525.171 106.444C525.171 106.444 525.11 108.611 524.749 110.717C524.388 112.823 525.05 121.007 519.634 124.558C519.634 124.558 521.139 122.572 521.56 120.165C521.56 120.165 520.417 121.73 519.454 123.114C518.551 124.498 519.634 129.974 518.009 133.946C518.009 133.946 518.852 129.553 518.491 125.461C518.491 125.461 516.204 131.418 513.556 132.983C513.556 132.983 517.227 127.627 517.408 126.363C517.408 126.363 514.94 127.145 513.316 127.145C513.316 127.145 516.986 126.544 517.829 124.498C518.671 122.512 518.792 116.494 518.371 115.23C518.13 116.013 517.408 116.915 516.746 117.036C516.746 117.758 516.686 119.623 516.986 121.007C516.986 121.007 516.325 120.646 515.963 119.563C515.963 119.563 515.602 121.308 515.963 123.053C515.963 123.053 515.121 121.549 515.181 120.586C515.181 120.586 513.737 121.609 512.052 123.234L489.485 80.4478C489.726 80.5681 489.907 72.5043 499.956 72.0229Z" fill="black"/>
<path d="M491.593 123.655C491.593 123.655 484.552 113.666 485.033 107.588C485.033 107.588 484.371 113.485 485.455 115.952C485.455 115.952 483.469 113.545 483.709 110.657C483.709 110.657 479.918 118.239 485.936 126.062C485.936 126.062 483.83 124.979 483.168 123.715C483.168 123.715 484.251 126.784 485.154 127.807C485.154 127.807 482.566 125.701 481.904 122.752C481.904 122.752 482.085 125.581 483.047 127.386C483.047 127.386 478.113 120.405 482.145 111.018C482.145 111.018 481.122 108.189 481.182 106.565C481.182 106.565 480.821 108.671 481.543 110.657C481.543 110.657 478.775 107.527 480.219 101.75C480.219 101.75 479.437 100.065 479.437 98.8619C479.437 98.8619 479.256 100.487 479.316 103.796C479.316 103.796 478.895 102.232 478.835 100.487C478.835 100.487 478.594 101.088 478.775 103.676C478.775 103.676 477.932 101.028 478.775 98.5008C478.775 98.5008 477.932 95.1309 479.677 92.6034C481.423 90.076 486.117 83.8175 486.117 83.8175C486.117 83.8175 482.325 86.4653 481.844 88.2707C481.844 88.2707 482.626 85.9237 483.409 85.2016C483.409 85.2016 482.566 85.5627 481.964 86.5255C481.964 86.5255 481.844 85.1414 486.237 82.7945C486.237 82.7945 487.14 80.3272 489.727 79.6653C489.727 79.6653 490.871 74.2493 500.318 73.7679C509.706 73.3466 516.085 80.0865 517.589 83.3361C517.589 83.3361 522.644 87.9698 522.584 92.6636C522.464 97.3575 523.246 99.9451 523.246 99.9451C523.246 99.9451 527.037 103.195 525.713 108.43C525.713 108.43 525.834 105 524.75 103.736C524.75 103.736 526.255 108.43 524.389 111.198C524.389 111.198 525.051 108.37 523.968 105.963C523.968 105.963 523.908 108.009 523.607 109.935C523.246 111.86 523.848 119.563 518.793 122.873C518.793 122.873 520.177 121.007 520.598 118.781C520.598 118.781 519.515 120.225 518.673 121.549C517.83 122.873 518.853 127.928 517.349 131.659C517.349 131.659 518.131 127.506 517.83 123.715C517.83 123.715 515.664 129.312 513.196 130.756C513.196 130.756 516.626 125.761 516.807 124.558C516.807 124.558 514.52 125.28 513.016 125.28C513.016 125.28 516.446 124.738 517.228 122.813C518.011 120.887 518.131 114.929 517.71 114.087C517.71 114.087 516.867 115.17 516.265 115.591C516.265 115.591 516.145 117.938 516.506 119.563C516.506 119.563 515.904 119.262 515.543 118.239C515.543 118.239 515.182 119.864 515.543 121.549C515.543 121.549 514.761 120.105 514.821 119.262C514.821 119.262 515.122 121.128 513.437 122.572C511.632 123.956 505.193 111.8 491.593 123.655Z" fill="black"/>
<path d="M480.821 87.9097C480.76 88.0902 480.7 88.2106 480.7 88.2106C480.7 88.0902 480.76 87.9698 480.821 87.9097Z" fill="#F6F7F4"/>
<path d="M477.511 98.0193C477.511 98.0193 476.669 94.6493 478.414 92.1219C480.159 89.5944 485.033 83.3962 485.033 83.3962C485.033 83.3962 481.543 85.7431 480.761 87.5484C481.001 86.8865 481.663 85.382 482.265 84.7802C482.265 84.7802 481.423 85.1413 480.761 86.044C480.761 86.044 480.64 84.6599 485.094 82.313C485.094 82.313 487.019 80.2669 489.667 79.605L509.947 121.549C508.322 123.053 506.457 124.558 506.457 124.558L506.697 123.956C505.072 125.881 498.694 126.844 495.504 126.122C495.384 126.122 495.324 126.062 495.203 126.062C495.083 126.062 495.023 126.002 494.902 126.002C493.819 125.641 492.616 124.798 491.533 123.835C491.412 123.715 491.232 123.595 491.111 123.474C490.991 123.354 490.931 123.294 490.81 123.173C490.449 122.812 490.088 122.451 489.787 122.09L489.727 122.03C488.704 120.827 487.922 119.503 487.681 118.419C485.755 115.05 483.589 110.416 483.83 107.046C483.83 107.046 483.168 112.883 484.311 115.35C484.311 115.35 482.265 113.003 482.566 110.115C482.566 110.115 478.654 117.637 484.853 125.4C484.853 125.4 482.686 124.377 482.024 123.113C482.024 123.113 483.108 126.182 484.071 127.205C484.071 127.205 481.363 125.159 480.761 122.211C480.761 122.211 480.941 124.979 481.904 126.784C481.904 126.784 476.849 119.864 481.001 110.596C481.001 110.596 479.978 107.768 479.978 106.143C479.978 106.143 479.617 108.249 480.339 110.175C480.339 110.175 477.511 107.106 478.955 101.329C478.955 101.329 478.113 99.7042 478.173 98.4405C478.173 98.4405 477.993 100.065 478.053 103.315C478.053 103.315 477.631 101.75 477.571 100.065C477.571 100.065 477.331 100.667 477.511 103.255C477.511 103.134 476.669 100.487 477.511 98.0193Z" fill="black"/>
<path d="M492.193 88.3313C492.193 88.3313 489.606 91.8818 487.8 93.0854C487.8 93.0854 486.958 99.1031 486.416 103.496C485.875 107.889 488.342 115.953 488.703 118.661C489.064 121.369 492.976 125.762 495.804 126.785C498.692 127.808 504.951 126.424 507.298 124.739L508.802 123.776C508.802 123.776 513.616 120.586 514.76 114.689L515.301 109.694C515.301 109.694 516.264 109.032 516.385 107.769C516.505 106.445 516.084 103.737 516.084 103.737C516.084 103.737 503.326 90.5579 499.294 88.5119C495.262 86.4658 492.795 88.0305 492.795 88.0305L490.749 86.9473C490.689 86.9473 491.712 87.6694 492.193 88.3313Z" fill="#FEB48C"/>
<path d="M521.862 100.367C521.862 100.367 515.784 101.51 511.391 97.3578C506.998 93.2055 504.892 91.2798 504.892 91.2798C504.892 91.2798 506.877 92.1223 507.84 93.1453C507.84 93.1453 504.29 88.4515 500.92 87.1878C497.49 85.924 491.893 85.8037 491.893 85.8037C491.893 85.8037 495.504 85.1417 497.189 85.5028C497.189 85.5028 491.833 84.2391 489.606 85.7435C489.606 85.7435 493.458 81.8922 500.017 84.2391C506.577 86.586 511.15 93.025 515.062 94.3489C515.062 94.3489 511.692 93.8073 510.428 92.6639C510.428 92.6639 515.483 97.3578 518.371 97.4179C518.371 97.4179 513.978 97.5985 510.007 93.5064C509.946 93.5064 513.677 100.367 521.862 100.367Z" fill="#6D3C12"/>
<path d="M517.588 91.3999C517.588 91.3999 507.177 81.2901 496.586 81.4104C496.586 81.4104 499.474 80.8087 502.182 81.2299C502.182 81.2299 499.474 80.2069 497.489 80.3272C497.489 80.3272 501.942 78.9432 506.636 82.1326C506.636 82.1326 501.821 77.6794 496.586 78.7626C496.586 78.7626 503.687 74.4298 514.459 82.4936C514.459 82.4936 506.816 78.4617 504.349 79.3042C504.349 79.3042 509.825 80.8087 511.871 83.1556C511.871 83.1556 509.103 81.591 508.08 81.591C508.08 81.591 514.459 85.5025 517.528 89.4742C517.528 89.4742 512.232 85.1414 511.089 85.0211C511.209 85.0211 516.926 89.8955 517.588 91.3999Z" fill="#6D3C12"/>
<path d="M516.987 109.032C516.987 109.032 519.093 108.19 518.672 109.393C518.311 110.597 516.144 111.138 516.927 111.74C517.709 112.402 518.01 112.763 517.167 113.004C516.325 113.245 517.167 112.643 517.649 113.365C518.13 114.087 516.626 116.254 515.723 115.832C514.82 115.411 515.061 113.846 515.783 113.004C515.843 112.944 515.843 109.574 516.987 109.032Z" fill="#D6A183"/>
<path d="M489.003 88.7529C489.003 88.7529 486.717 90.4378 485.573 93.1458C485.573 93.1458 485.754 91.6414 486.055 90.9192C486.055 90.9192 484.249 91.521 483.467 97.1777C483.467 97.1777 482.926 95.914 483.287 93.6874C483.287 93.6874 480.94 95.4326 480.338 99.5848C480.338 99.5848 480.699 94.0485 483.467 91.0998C486.296 88.2113 487.619 85.082 487.619 85.082C487.619 85.082 487.198 87.7298 486.536 88.7529C486.536 88.7529 487.98 87.2484 487.98 86.7068L487.559 88.2714L488.402 87.0077C488.402 87.0077 487.92 88.6325 487.439 89.2945C487.439 89.2945 487.86 88.9936 489.003 88.7529Z" fill="#6D3C12"/>
<path d="M509.708 392.227C509.708 392.227 513.559 392.106 515.124 398.184C516.688 404.262 520.54 417.26 520.72 418.584C520.961 419.908 518.012 427.069 514.341 428.815C509.527 431.101 500.621 421.413 500.802 417.2C501.102 411.002 501.524 401.013 501.704 395.897C502.005 390.843 508.023 391.745 509.708 392.227Z" fill="#252933"/>
<path d="M500.56 319.593C505.073 319.292 511.632 318.57 517.048 317.968C519.696 324.166 522.645 331.989 523.246 337.225C524.269 346.251 514.701 384.524 513.076 396.74C513.438 397.222 513.979 398.064 514.4 399.749C515.243 403.179 516.988 415.275 516.988 415.275C516.988 415.275 509.345 417.682 504.291 415.275C504.291 415.275 502.906 401.193 502.906 396.921C502.906 396.078 503.268 395.476 503.869 395.055C503.629 383.802 502.967 348.598 502.846 345.529C502.786 343.423 501.522 329.883 500.56 319.593Z" fill="#FEB48C"/>
<path d="M470.41 412.146C471.915 410.16 482.987 393.491 482.987 393.491C482.987 393.491 491.292 392.288 492.255 393.311C492.255 393.311 495.023 398.546 494.301 402.157L493.338 427.191H491.171L490.329 406.309C489.366 412.447 486.478 425.385 485.695 427.191H465.235C462.166 427.191 460.24 425.084 461.624 422.497C463.61 419.006 468.906 414.192 470.41 412.146Z" fill="#252933"/>
<path d="M481.122 394.334C480.34 380.433 477.933 335.781 477.813 332.712C477.752 330.726 477.752 323.324 477.752 317.126C482.145 318.209 488.223 319.413 494.361 319.714C495.745 324.829 497.19 330.666 497.671 335.059C498.694 343.845 493.459 382.057 491.653 395.658L491.112 400.893C491.112 400.893 482.567 414.132 479.798 416.72C478.234 418.164 469.689 416.66 469.388 415.817C469.027 414.854 474.743 408.174 476.428 404.925C477.572 402.578 479.317 397.824 481.122 394.334Z" fill="#FEB48C"/>
<path d="M448.503 186.722C449.406 189.249 459.756 195.869 464.089 190.332C471.611 177.214 479.856 158.98 487.257 145.982C488.822 143.274 486.174 132.682 485.693 131.419C485.091 129.794 474.018 131.539 472.093 134.427C462.103 149.291 455.243 164.215 452.595 170.715C450.188 176.973 447.661 184.194 448.503 186.722Z" fill="#15234A"/>
<path d="M464.571 235.345C465.594 230.891 470.408 219.398 476.004 212.417C476.606 213.199 477.268 213.741 477.749 213.921C478.833 214.222 479.735 214.523 480.578 214.764C482.323 215.546 484.429 216.028 486.836 216.268C487.318 216.329 487.859 216.389 488.401 216.449C492.854 216.93 497.367 217.051 501.881 216.93C506.574 216.81 514.157 213.801 518.73 212.838C518.73 212.838 518.73 212.838 518.79 212.838C522.401 218.254 527.396 226.619 529.442 234.382C534.196 252.555 526.553 316.945 526.553 316.945C526.553 316.945 503.927 319.834 497.187 319.834C484.73 319.894 471.491 315.441 471.491 315.441C471.491 315.441 463.066 241.603 464.571 235.345Z" fill="#FF7200"/>
<path d="M512.953 318.45C512.231 318.51 511.449 318.63 510.727 318.69C510.245 318.75 509.704 318.811 509.222 318.871C504.288 319.352 499.594 319.773 497.127 319.773H497.067C496.405 319.773 495.803 319.773 495.141 319.713C494.539 319.713 493.877 319.653 493.275 319.593C502.121 319.051 519.392 316.825 519.392 316.825C519.392 316.825 527.095 252.435 522.281 234.261C520.415 227.281 516.203 219.759 512.713 214.403C514.939 213.741 516.985 213.079 518.67 212.718C518.67 212.718 518.67 212.718 518.73 212.718C519.633 214.042 520.596 215.546 521.619 217.171C521.679 217.231 521.679 217.291 521.739 217.351C522.221 218.134 522.702 218.976 523.184 219.819C523.184 219.819 523.184 219.879 523.244 219.879C523.725 220.721 524.207 221.624 524.688 222.527C524.748 222.587 524.748 222.647 524.808 222.767C525.23 223.61 525.711 224.513 526.132 225.355C526.193 225.415 526.192 225.475 526.253 225.596C526.674 226.498 527.095 227.461 527.516 228.364C527.516 228.424 527.577 228.484 527.577 228.544C527.938 229.447 528.299 230.35 528.6 231.252C528.6 231.313 528.66 231.433 528.66 231.493C528.961 232.456 529.262 233.359 529.502 234.321C530.646 238.594 531.067 245.394 531.067 253.277C531.067 257.49 530.947 262.063 530.766 266.757C530.706 268.442 530.585 270.127 530.525 271.872C530.525 271.932 530.525 271.993 530.525 272.053C530.465 273.136 530.405 274.279 530.345 275.362C530.285 275.964 530.285 276.566 530.224 277.228C528.9 297.628 526.614 316.885 526.614 316.885C526.614 316.885 519.994 317.667 512.953 318.45Z" fill="#FF7200"/>
<path d="M520.537 192.257C521.741 197.673 521.019 205.135 522.282 208.324C523.606 211.514 522.704 211.935 518.672 212.777C514.098 213.74 506.516 216.749 501.822 216.869C497.309 216.99 492.795 216.869 488.342 216.388C483.949 215.907 481.963 215.064 477.751 213.861C476.668 213.56 474.622 211.273 474.742 208.264C474.802 206.639 477.931 195.145 478.593 190.873C479.737 183.23 477.631 173.481 477.631 173.481C474.862 169.991 470.83 164.154 469.507 160.002C470.65 150.494 476.246 139.301 476.908 132.38L490.809 127.747C490.809 127.747 494.54 141.527 499.656 141.527C504.71 141.527 510.367 127.747 510.367 127.747C515.843 130.996 524.268 132.38 529.744 135.57C530.406 142.49 529.684 151.697 529.684 158.136C529.624 164.635 518.19 181.605 520.537 192.257Z" fill="#15234A"/>
<path d="M479.377 173.903C479.677 179.74 481.964 188.406 480.279 194.243C478.835 198.997 485.755 200.02 487.801 202.788C485.274 202.006 481.964 199.479 479.377 200.261C476.247 201.164 475.284 209.588 477.571 212.477C482.686 219.097 502.485 215.666 510.549 213.741C515.964 212.417 520.237 211.033 519.816 206.459C519.395 201.404 516.386 188.165 506.757 185.517C522.885 183.11 522.343 166.441 525.713 154.526C526.375 151.758 528.18 149.531 529.865 147.245C529.745 151.156 529.565 155.068 529.565 158.257C529.565 164.696 518.131 181.666 520.478 192.257C521.681 197.673 520.959 205.135 522.223 208.325C523.547 211.514 522.644 211.935 518.612 212.778C514.039 213.741 506.456 216.75 501.763 216.87C497.249 216.99 492.736 216.87 488.283 216.389C483.89 215.907 481.904 215.065 477.692 213.861C476.608 213.56 474.562 211.273 474.683 208.265C474.743 206.64 477.872 195.146 478.534 190.873C479.677 183.231 477.571 173.482 477.571 173.482C474.803 169.992 470.771 164.154 469.447 160.002C469.748 157.294 470.47 154.406 471.313 151.517C472.155 160.123 471.794 168.126 479.377 173.903Z" fill="#0D1937"/>
<path d="M499.475 151.096C499.475 151.397 499.716 151.577 500.017 151.577C500.318 151.577 500.559 151.336 500.559 151.096C500.559 150.795 500.318 150.614 500.017 150.614C499.716 150.614 499.475 150.855 499.475 151.096Z" fill="white"/>
<path d="M497.31 164.816C497.31 165.117 497.551 165.298 497.852 165.298C498.153 165.298 498.393 165.057 498.393 164.816C498.393 164.515 498.153 164.335 497.852 164.335C497.551 164.335 497.31 164.576 497.31 164.816Z" fill="white"/>
<path d="M496.529 177.635C496.529 177.936 496.77 178.116 497.07 178.116C497.371 178.116 497.612 177.875 497.612 177.635C497.612 177.334 497.371 177.153 497.07 177.153C496.709 177.153 496.529 177.394 496.529 177.635Z" fill="white"/>
<path d="M496.047 192.257C496.047 192.558 496.288 192.739 496.589 192.739C496.89 192.739 497.131 192.498 497.131 192.257C497.131 191.956 496.89 191.776 496.589 191.776C496.288 191.776 496.047 192.017 496.047 192.257Z" fill="white"/>
<path d="M494.06 210.25C494.06 210.551 494.301 210.732 494.602 210.732C494.903 210.732 495.144 210.491 495.144 210.25C495.144 209.95 494.903 209.769 494.602 209.769C494.301 209.769 494.06 209.95 494.06 210.25Z" fill="white"/>
<path d="M499.296 142.431C499.055 143.875 498.815 145.319 498.634 146.763C498.153 149.832 497.671 152.901 497.19 155.91C496.709 158.739 496.287 161.627 495.806 164.456C495.686 165.238 495.565 165.96 495.385 166.742C495.264 167.464 495.204 168.187 495.204 168.848C495.144 171.918 495.204 174.987 495.264 177.995C495.324 181.185 495.445 184.434 495.445 187.624C495.445 188.466 495.445 189.369 495.385 190.272C495.324 190.934 495.204 191.596 495.144 192.258C494.783 194.966 494.482 197.734 494.121 200.442C493.76 203.631 493.339 206.82 492.978 210.01C492.737 211.936 492.496 213.921 492.255 215.847C492.255 215.967 492.255 216.028 492.195 216.148C492.135 216.509 492.797 216.509 492.857 216.148C493.038 214.764 493.218 213.38 493.339 211.936C493.7 208.927 494.061 205.858 494.422 202.849C494.783 199.84 495.144 196.831 495.505 193.822C495.686 192.258 495.986 190.693 495.986 189.128C496.047 186.3 495.986 183.411 495.926 180.583C495.866 177.273 495.746 173.964 495.806 170.594C495.806 169.51 495.806 168.487 495.866 167.404C495.926 166.923 496.047 166.381 496.167 165.779C496.588 163.252 497.009 160.725 497.431 158.197C497.912 155.008 498.454 151.878 498.935 148.689C499.236 146.703 499.597 144.657 499.898 142.671C499.898 142.551 499.958 142.491 499.958 142.37C500.018 142.19 499.356 142.07 499.296 142.431Z" fill="white"/>
<path d="M492.674 126.904C492.674 126.904 494.6 139.421 498.933 141.467C498.933 141.467 493.456 141.467 493.156 141.768C492.674 142.25 488.763 147.425 488.763 147.425C488.763 147.425 487.86 131.658 487.86 130.154C487.74 129.071 490.207 127.506 492.674 126.904Z" fill="#ECF4F8"/>
<path d="M508.741 127.205C508.741 127.205 503.025 140.865 498.391 141.527C498.391 141.527 504.409 141.888 505.131 142.851C505.973 143.995 508.38 148.628 508.38 148.628C508.38 148.628 514.398 131.177 514.398 129.793C514.398 128.348 508.741 127.205 508.741 127.205Z" fill="#ECF4F8"/>
<path d="M536.724 196.771C534.678 198.757 526.735 201.285 522.282 196.771C520.958 181.968 519.393 160.785 518.13 146.102C517.829 143.033 523.606 134.548 524.568 133.585C525.832 132.321 536.664 137.737 536.905 141.107C538.289 159.281 540.215 176.13 540.154 191.716C540.094 191.777 538.77 194.785 536.724 196.771Z" fill="#15234A"/>
<path d="M487.38 164.816C487.38 164.214 487.26 163.432 487.14 162.529C495.625 166.02 514.581 174.023 524.51 179.259C528.542 182.027 534.981 193.099 531.43 196.349C527.88 199.599 521.2 196.469 519.696 195.446C513.858 191.535 489.787 174.986 481.724 169.45C484.672 169.149 487.441 166.922 487.38 164.816Z" fill="#FEB48C"/>
<path d="M474.441 165.659C476.849 165.298 479.316 164.816 481.663 164.335C482.505 164.154 483.107 163.432 482.987 162.65C482.144 154.225 480.459 144.175 479.075 137.255C478.895 136.292 477.872 135.63 476.788 135.69C473.84 135.871 470.891 136.232 468.002 136.653C465.114 137.074 462.225 137.676 459.397 138.338C458.374 138.579 457.712 139.542 457.953 140.444C459.578 147.305 462.225 157.174 465.054 165.358C465.295 166.14 466.137 166.622 467.04 166.561C469.567 166.321 472.034 166.02 474.441 165.659Z" fill="#5C93FF"/>
<path d="M467.099 166.321C472.034 165.899 476.848 165.177 481.662 164.154C482.445 163.974 482.926 163.372 482.866 162.65C482.084 154.947 480.459 144.717 478.954 137.315C478.774 136.473 477.871 135.871 476.968 135.931C471.071 136.352 465.294 137.195 459.637 138.519C458.735 138.759 458.133 139.542 458.374 140.384C460.119 147.786 462.887 157.836 465.475 165.237C465.595 165.959 466.317 166.381 467.099 166.321Z" fill="#84ADFF"/>
<path d="M473.539 160.724C477.751 156.812 479.677 152.058 480.7 147.063C481.542 152.179 482.325 157.354 482.806 162.649C482.866 163.372 482.385 163.973 481.602 164.154C476.848 165.237 471.974 165.959 467.039 166.32C466.257 166.38 465.535 165.959 465.294 165.297C465.174 164.876 464.993 164.455 464.873 164.034C468.002 163.793 471.011 162.83 473.539 160.724Z" fill="#84ADFF"/>
<path d="M479.254 169.27C475.764 168.187 472.635 167.284 472.635 167.284C471.371 166.562 469.927 165.659 469.927 164.335C469.927 163.613 470.348 162.951 470.769 162.289C472.153 160.303 476.185 159.401 478.111 156.873C479.435 155.128 482.745 151.758 483.527 152.721C485.633 155.309 487.318 161.928 487.378 164.877C487.438 167.465 482.985 170.413 479.254 169.27Z" fill="#FEB48C"/>
<path d="M480.821 153.262C481.663 151.397 480.64 149.351 480.159 145.8C479.798 143.393 482.806 141.528 483.468 143.514C484.01 145.259 485.454 150.554 485.755 151.517C485.996 152.42 485.695 156.813 485.214 157.836C484.612 158.799 479.316 156.693 480.821 153.262Z" fill="#FEB48C"/>
<path d="M477.15 158.378C474.683 155.97 473.118 155.79 471.313 152.841C469.749 150.314 465.837 144.597 464.272 142.009C463.189 140.264 467.101 141.046 468.184 142.792C469.749 145.439 471.734 147.546 474.021 150.554C475.887 153.022 479.076 154.225 481.242 156.392C482.687 157.896 478.655 159.822 477.15 158.378Z" fill="#FEB48C"/>
<path d="M475.704 161.146C472.455 159.641 470.95 159.942 468.122 157.776C465.715 155.91 462.766 153.624 460.299 151.698C458.614 150.374 462.526 149.893 464.211 151.216C466.738 153.202 466.377 152.661 469.687 154.767C472.395 156.452 475.825 156.632 478.713 158.017C480.579 158.919 477.63 162.048 475.704 161.146Z" fill="#FEB48C"/>
<path d="M473.479 164.816C470.23 163.312 467.522 162.529 466.198 161.687C465.596 161.326 463.43 159.34 462.948 158.618C462.467 157.896 461.323 156.331 461.323 156.331C461.143 155.549 462.226 154.767 462.948 155.308C463.791 155.91 466.077 158.076 468.003 159.28C468.003 159.28 473.058 160.483 476.488 161.687C478.474 162.349 475.405 165.719 473.479 164.816Z" fill="#FEB48C"/>
<path d="M471.672 165.659C470.228 166.02 468.784 166.802 467.219 165.779C465.474 164.696 463.789 163.131 462.345 161.506C460.961 160.002 462.104 158.859 463.669 160.122C465.173 161.326 468.122 163.252 468.784 163.071C469.386 162.951 471.251 162.59 471.853 162.409C473.357 162.048 473.177 165.298 471.672 165.659Z" fill="#FEB48C"/>
<path d="M436.168 142.31C436.409 143.393 442.547 143.995 443.75 142.852C444.292 142.31 445.194 141.287 446.037 140.084C455.244 163.854 461.202 173.061 464.451 181.064C468.363 195.026 450.731 197.673 446.097 181.787C445.014 178.176 437.07 146.763 435.024 138.82C435.566 140.505 436.047 141.829 436.168 142.31Z" fill="#FEAD82"/>
<path d="M446.697 132.56C446.697 132.56 443.086 115.831 442.665 113.605C442.244 111.438 439.716 111.318 440.077 113.725C440.438 116.132 442.003 131.237 442.123 133.162C442.304 135.028 446.817 134.968 446.697 132.56Z" fill="#FEAD82"/>
<path d="M443.748 142.851C444.951 141.768 447.479 138.157 448.742 136.111C450.006 134.065 448.863 129.371 444.41 129.131C439.957 128.95 432.795 130.214 433.397 133.163C433.999 136.111 435.864 141.166 436.105 142.249C436.406 143.393 442.544 143.994 443.748 142.851Z" fill="#FEAD82"/>
<path d="M448.626 136.472C448.626 136.472 449.589 134.727 450.371 133.463C450.732 132.862 450.551 132.38 450.311 129.913C450.07 127.446 449.769 125.821 449.769 125.821C449.769 125.821 443.39 125.339 442.307 125.279C441.224 125.219 441.164 128.348 444.413 129.01L446.098 129.552C446.098 129.552 444.233 131.839 444.293 134.426C444.293 137.014 447.422 138.338 448.626 136.472Z" fill="#FEAD82"/>
<path d="M437.972 122.451C438.935 121.669 440.138 121.85 441.041 122.331C441.823 122.752 441.943 129.913 442.124 132.02C442.365 133.765 439.356 134.848 438.995 132.08C438.513 129.312 437.37 122.933 437.972 122.451Z" fill="#FFBD99"/>
<path d="M434.663 124.136C434.964 123.113 437.131 123.233 437.732 124.015C438.214 124.677 438.936 132.32 439.177 134.065C439.297 135.028 436.77 136.352 436.348 133.583C435.987 130.815 434.483 124.798 434.663 124.136Z" fill="#FFBD99"/>
<path d="M432.015 126.483C432.376 125.4 434.001 125.28 434.603 126.062C435.084 126.603 436.167 132.441 436.228 134.126C436.468 135.088 434.844 136.352 434.061 133.885C433.279 131.357 431.835 127.085 432.015 126.483Z" fill="#FFBD99"/>
<path d="M443.509 128.709C443.509 128.649 443.629 128.589 443.69 128.589L446.337 129.431L446.217 129.612C443.509 133.283 444.652 135.569 444.713 135.569C444.773 135.63 444.713 135.75 444.652 135.75H444.592C444.532 135.75 444.472 135.69 444.472 135.69C444.412 135.569 443.208 133.343 445.916 129.552L443.69 128.83C443.509 128.89 443.509 128.769 443.509 128.709Z" fill="#BA6549"/>
<path d="M249.278 430.302L248.077 438.016L238.024 438.458L238.277 429.607L249.278 430.302Z" fill="#FBCEBF"/>
<path d="M235.307 450.029L267.488 450.408C267.488 450.408 268.626 443.769 264.011 444.086C259.395 444.402 253.768 441.051 250.607 437.7C247.446 434.349 237.646 435.74 236.382 437.51C235.18 439.407 235.307 450.029 235.307 450.029Z" fill="#19232D"/>
<path d="M305.044 429.481L305.992 437.384L295.94 437.763L294.738 428.912L305.044 429.481Z" fill="#FBCEBF"/>
<path d="M293.221 449.397L325.402 449.776C325.402 449.776 326.54 443.138 321.925 443.454C317.309 443.77 311.682 440.419 308.521 437.131C305.36 433.781 295.56 435.171 294.295 436.942C293.094 438.775 293.221 449.397 293.221 449.397Z" fill="#19232D"/>
<path d="M268.439 299.175L231.579 270.787C230.125 269.27 227.659 262.948 226.458 255.803L211.347 261.873C214.318 275.656 220.451 285.203 228.544 289.755C241.126 296.836 261.927 308.596 261.927 308.596L268.439 299.175Z" fill="#F7BB8D"/>
<path d="M238.276 312.136C216.843 305.182 203.946 312.2 203.756 342.231L289.552 342.484C289.552 342.484 288.856 327.247 282.028 322.126C278.551 319.597 253.64 314.665 238.276 312.136Z" fill="#3D61C5"/>
<path d="M230.059 326.805C230.059 326.805 238.847 330.092 252.124 332.179C265.465 334.265 271.408 334.455 272.799 336.794C274.19 339.133 272.483 361.452 274.569 371.504C276.339 380.166 294.864 423.349 299.163 435.804H294.864C294.864 435.804 268.563 384.149 266.35 368.154C265.275 357.658 264.706 348.617 264.706 348.617H236.508C231.07 347.289 230.059 326.805 230.059 326.805Z" fill="#3B5EBF"/>
<path d="M168.098 311.441C168.098 311.441 168.983 333.253 175.811 342.484L256.676 342.547C256.676 342.547 259.963 328.006 253.641 322.189C246.18 315.298 192.755 312.01 168.098 311.441Z" fill="#476CD2"/>
<path d="M227.91 365.308C228.163 356.583 228.479 354.434 230.249 348.68H181.187C174.422 343.243 171.134 334.644 169.807 329.966L189.533 320.988C189.533 320.988 191.493 330.282 195.223 332.431C198.953 334.518 240.492 334.581 242.136 336.225C243.779 337.932 236.698 354.434 235.497 366.383C234.232 378.332 241.503 435.867 241.503 435.867H236.888C236.888 435.804 227.467 381.304 227.91 365.308Z" fill="#476CD2"/>
<path d="M211.029 313.97C211.029 313.97 189.596 317.574 169.807 329.902L170.818 333.19C170.755 333.253 190.291 320.292 211.029 313.97Z" fill="#476CD2"/>
<path d="M289.3 341.156C289.3 341.156 300.491 399.07 307.193 435.804H294.674C294.674 435.804 268.373 384.149 266.16 368.153C263.947 352.157 266.223 334.581 266.223 334.581L289.3 341.156Z" fill="#3D61C5"/>
<path d="M256.676 342.548C256.676 342.548 252.82 399.07 250.228 435.867H236.887C236.887 435.867 227.404 381.368 227.846 365.372C228.289 349.376 234.738 334.645 234.738 334.645L256.676 342.548Z" fill="#476CD2"/>
<path d="M227.909 365.308C228.288 350.956 233.472 337.742 234.547 335.087C235.243 335.15 235.938 335.213 236.57 335.213L242.324 337.3C242.197 341.599 236.507 355.698 235.432 366.257C234.168 378.206 241.439 435.74 241.439 435.74H236.823C236.823 435.74 236.254 432.326 235.369 426.952C232.777 410.956 227.592 377.321 227.909 365.308Z" fill="#456AD0"/>
<path d="M266.222 334.581C268.688 334.771 270.9 335.087 272.291 336.351C273.682 338.691 272.291 361.451 274.378 371.504C276.148 380.166 294.673 423.348 298.972 435.804H294.673C289.109 422.779 268.055 382.063 266.159 368.153C264.831 358.037 264.009 342.611 266.222 334.581Z" fill="#3B5EBF"/>
<path d="M216.908 270.977C218.868 270.408 221.081 269.649 223.357 268.511C226.771 266.804 225.444 267.879 229.427 265.35C229.427 265.35 228.731 247.078 223.294 236.646C217.857 226.151 187.888 212.684 187.888 212.684C187.888 212.684 186.561 212.747 184.411 213V213.19C184.411 213.19 183.652 213.19 182.388 213.316C181.123 213.506 179.732 213.759 178.278 214.075C169.996 216.161 156.15 223.369 154 248.28C155.517 273.885 162.851 315.93 169.869 329.65C169.869 329.65 219.88 314.096 224.875 309.86C223.041 304.676 219.817 296.899 218.552 289.565C217.351 282.484 216.972 276.225 216.908 270.977Z" fill="#FF7200"/>
<path d="M222.914 304.992L187.951 281.472C186.307 278.437 185.232 273.822 185.169 263.074L165.633 258.142C161.27 275.529 169.047 292.157 181.439 298.353C196.423 305.813 221.017 313.4 221.017 313.4L222.914 304.992Z" fill="#FDC596"/>
<path d="M185.551 258.648C185.551 258.648 165.129 260.545 161.841 251.757C158.554 243.032 159.945 226.024 177.015 214.265C176.952 214.265 176.952 214.265 176.889 214.328C176.762 214.391 176.636 214.391 176.509 214.454C168.227 217.11 156.151 224.886 154.065 247.774C154.57 249.734 155.14 251.757 155.835 253.843C157.542 259.281 159.376 264.212 161.272 268.638C169.744 267.247 178.28 265.856 186.752 264.528L185.551 258.648Z" fill="#FF7200"/>
<path d="M213.686 255.74C213.875 257.005 214.128 258.269 214.444 259.534C214.697 260.798 215.013 262.063 215.266 263.327C215.835 265.793 216.467 268.259 217.036 270.724C218.617 270.282 220.134 269.713 221.652 269.144C223.232 268.512 224.75 267.753 226.204 266.994C227.279 266.425 228.354 265.73 229.428 265.034V265.414C228.417 266.109 227.405 266.741 226.33 267.31C224.813 268.132 223.296 268.828 221.715 269.523C220.134 270.155 218.554 270.724 216.91 271.167L216.72 271.23V271.041C216.151 268.512 215.582 265.983 215.013 263.454C214.76 262.189 214.507 260.925 214.255 259.66C214.065 258.332 213.812 257.005 213.686 255.74Z" fill="#FF7200"/>
<path d="M184.476 213.127L188.712 206.805L206.415 213.507L204.012 224.128C204.012 224.191 191.177 232.537 184.476 213.127Z" fill="#F4B17F"/>
<path d="M161.208 268.701C165.507 268.069 169.743 267.5 174.043 266.804C176.192 266.488 178.342 266.109 180.428 265.793C182.578 265.413 184.728 265.097 186.814 264.655H186.94L186.877 264.465C185.929 259.913 184.98 255.297 183.906 250.808C183.337 248.532 182.768 246.256 182.199 244.043C181.566 241.831 180.934 239.554 180.112 237.405H180.049C180.808 239.618 181.44 241.83 182.072 244.107C182.704 246.383 183.21 248.596 183.716 250.872C184.791 255.424 185.676 259.976 186.561 264.591L186.688 264.402C184.601 264.844 182.451 265.224 180.302 265.603C178.152 265.982 176.066 266.362 173.916 266.678C169.743 267.31 165.507 268.005 161.208 268.701Z" fill="#FF7200"/>
<path d="M220.957 305.877C224.94 303.728 229.429 300.25 230.756 301.641C233.665 304.739 230.377 311.568 227.469 313.022C224.497 314.223 220.072 312.2 220.072 312.2C220.072 312.2 217.037 307.964 220.957 305.877Z" fill="#FDC596"/>
<path d="M240.241 300.629C240.431 299.871 236.194 298.353 235.246 298.416C234.424 298.48 233.539 298.416 227.659 301.957L231.453 303.474C231.453 303.474 234.804 300.693 235.373 300.503C235.878 300.376 238.597 302.336 240.241 300.629Z" fill="#FDC596"/>
<path d="M240.746 311.125C241.379 310.366 238.091 307.268 237.206 306.762C236.068 306.13 235.878 305.498 229.619 303.222L231.452 307.521C231.452 307.521 235.941 308.596 236.51 308.975C237.016 309.228 239.292 311.567 240.746 311.125Z" fill="#FDC596"/>
<path d="M238.723 314.096C239.355 313.337 236.194 310.366 235.309 309.923C234.234 309.291 234.044 308.722 227.975 306.509L229.745 310.618C229.745 310.618 234.044 311.693 234.55 312.009C235.119 312.325 237.332 314.538 238.723 314.096Z" fill="#FDC596"/>
<path d="M234.676 315.677C235.182 315.045 232.526 312.516 231.768 312.136C230.819 311.631 230.693 311.125 225.572 309.228L227.089 312.705C227.089 312.705 230.756 313.591 231.199 313.843C231.641 314.16 233.475 316.056 234.676 315.677Z" fill="#E0BC9B"/>
<path d="M260.343 300.44C264.326 298.29 268.815 294.813 270.143 296.204C273.051 299.302 269.764 306.13 266.855 307.584C263.884 308.786 259.458 306.762 259.458 306.762C259.458 306.762 256.423 302.59 260.343 300.44Z" fill="#E0BC9B"/>
<path d="M279.564 295.255C279.754 294.497 275.517 292.979 274.569 293.042C273.747 293.106 272.862 293.042 266.982 296.583L270.776 298.1C270.776 298.1 274.127 295.319 274.696 295.129C275.265 295.002 277.983 296.899 279.564 295.255Z" fill="#E0BC9B"/>
<path d="M280.132 305.751C280.765 304.992 277.477 301.894 276.592 301.388C275.454 300.756 275.264 300.124 269.005 297.848L270.838 302.147C270.838 302.147 275.327 303.222 275.896 303.601C276.402 303.854 278.678 306.193 280.132 305.751Z" fill="#E0BC9B"/>
<path d="M278.11 308.722C278.742 307.964 275.581 304.992 274.695 304.549C273.621 303.917 273.431 303.348 267.361 301.135L269.132 305.245C269.132 305.245 273.431 306.32 273.937 306.636C274.506 306.889 276.719 309.165 278.11 308.722Z" fill="#E0BC9B"/>
<path d="M274 310.239C274.506 309.607 271.85 307.078 271.092 306.699C270.143 306.193 270.017 305.687 264.896 303.791L266.413 307.268C266.413 307.268 270.08 308.153 270.523 308.406C270.965 308.722 272.862 310.619 274 310.239Z" fill="#E0BC9B"/>
<path d="M225.19 190.682C225.19 190.682 222.661 200.419 221.017 205.54C219.373 210.661 215.833 222.484 205.021 220.903C194.21 219.323 189.974 212.431 186.876 209.08C186.876 209.08 177.961 194.412 180.743 191.567C183.525 188.722 188.52 178.986 198.762 182.273C209.068 185.434 225.19 190.682 225.19 190.682Z" fill="#F7C39F"/>
<path d="M216.087 171.146C214 169.502 211.977 167.795 210.08 166.088C206.856 163.242 202.683 161.725 198.447 162.041C189.659 162.737 184.98 169.375 184.98 169.375L180.491 171.715C176.002 174.054 174.738 184.865 177.393 191.567C182.261 204.022 187.256 209.649 187.256 209.649C187.699 209.776 187.762 209.46 187.699 208.827C187.825 206.298 188.774 204.781 188.774 204.781C181.629 200.482 183.02 193.211 186.497 192.958C189.975 192.768 190.86 199.533 190.86 199.533L191.935 197.573C194.337 192.199 193.199 185.181 193.199 185.181C193.199 185.181 193.389 185.308 193.642 185.561V185.624C193.642 185.624 195.475 189.607 199.838 190.808C199.838 190.808 199.332 190.05 198.7 188.975C201.924 190.745 206.413 192.389 211.661 192.452C211.661 192.452 208.373 191.125 206.097 189.354C209.448 190.113 213.305 190.682 217.604 190.998C232.335 191.946 237.014 183.221 237.014 183.221C229.806 180.376 223.8 177.342 216.087 171.146Z" fill="#221E52"/>
<path d="M289.613 313.085H220.256L234.798 259.281L304.218 259.218L289.613 313.085Z" fill="#BDC3CA"/>
<path d="M289.233 313.846L187.125 313.969L187.13 318.142L289.238 318.018L289.233 313.846Z" fill="#D4D8DD"/>
<path d="M289.677 313.022L221.9 313.085L236.189 260.293L303.966 260.229L289.677 313.022Z" fill="#E0DEDE"/>
<path d="M269.384 286.088C268.562 288.681 265.527 290.767 262.682 290.767C259.837 290.767 258.256 288.681 259.078 286.152C259.9 283.559 262.935 281.473 265.78 281.473C268.625 281.41 270.269 283.496 269.384 286.088Z" fill="#8394B4"/>
<path opacity="0.2" d="M221.9 313.085L236.189 260.293L303.966 260.229L221.9 313.085Z" fill="#A5C0D7"/>
<path d="M220.065 313.89L187.125 313.925L187.129 318.098L220.069 318.062L220.065 313.89Z" fill="#BDC3CA"/>
<path d="M241.499 313.078L228.791 313.094L228.793 314.927L241.501 314.911L241.499 313.078Z" fill="#8394B4"/>
<path d="M284.998 313.015L274.123 313.029L274.126 314.862L285 314.849L284.998 313.015Z" fill="#8394B4"/>
<path d="M236.632 260.988L303.776 260.925L303.966 260.229L236.189 260.293L221.9 313.085H222.533L236.632 260.988Z" fill="#BAD6F2"/>
</svg>
