<svg width="547" height="628" viewBox="0 0 547 628" fill="none" xmlns="http://www.w3.org/2000/svg">
<path d="M547 628C413.066 628 284.617 594.918 189.911 536.031C95.2052 477.145 42 397.278 42 314C42 230.722 95.2052 150.855 189.911 91.9685C284.617 33.082 413.066 -9.9308e-07 547 0V314L547 628Z" fill="#ECF1FD"/>
<path d="M279.568 506.3L460.244 458.059C464.053 457.043 466.592 453.997 465.881 451.254L364.625 70.4026C363.914 67.7113 360.207 66.2894 356.348 67.3558L175.672 115.597C171.863 116.613 169.324 119.659 170.035 122.402L271.342 503.253C272.053 505.945 275.76 507.316 279.568 506.3Z" fill="#FFE2CB"/>
<path d="M279.568 506.301L294.446 502.34L190.499 111.586L175.62 115.547C171.812 116.562 169.273 119.609 169.984 122.351L271.29 503.203C272.052 505.945 275.759 507.316 279.568 506.301Z" fill="#F2BE8F"/>
<path opacity="0.5" d="M332.465 239.613L302.046 125.27L278.834 131.446L309.253 245.788L332.465 239.613Z" fill="#EABC92"/>
<path opacity="0.5" d="M396.776 274.251L353.483 111.522L330.271 117.697L373.564 280.427L396.776 274.251Z" fill="#EABC92"/>
<path d="M346.049 200.661L324.402 119.296L319.25 120.667L340.896 202.031L346.049 200.661Z" fill="#F2BE8F"/>
<path d="M294.983 214.295L273.337 132.931L268.184 134.302L289.83 215.666L294.983 214.295Z" fill="#F2BE8F"/>
<path d="M232.341 141.8L232.849 143.12C232.849 143.171 232.9 143.222 232.9 143.272L239.298 152.565C239.4 152.667 239.4 152.819 239.4 152.971L238.943 169.373C238.892 169.83 237.013 167.952 236.657 167.698C232.747 165.006 222.337 155.815 217.97 152.514C217.259 152.007 216.295 152.565 216.396 153.428C216.447 153.835 216.599 154.241 216.853 154.546L231.884 172.877L231.072 176.33C230.97 176.838 231.275 177.346 231.782 177.447L234.474 178.057C234.982 178.158 235.439 177.854 235.591 177.397L237.521 179.783C237.622 179.885 237.673 180.037 237.673 180.19L236.708 195.068C236.607 196.388 237.013 197.709 237.775 198.775C238.079 199.232 238.435 199.689 238.739 200.095C239.4 201.009 240.669 201.162 241.532 200.502L241.989 200.146C243.411 199.029 244.274 197.303 244.325 195.525L244.579 183.643C244.579 183.389 244.731 183.186 244.935 183.135L249.454 181.459L249.302 182.17C249.2 182.678 249.505 183.186 250.013 183.287L252.704 183.897C253.212 183.998 253.72 183.693 253.821 183.186L254.684 179.479L261.692 176.838C262.251 176.635 262.758 176.229 263.114 175.772C263.571 175.162 264.079 174.451 263.926 174.35C263.52 173.944 250.977 173.03 246.103 172.928C245.849 172.928 245.849 170.592 245.849 170.338L245.188 154.495C245.188 154.292 245.29 154.089 245.493 153.987L249.454 151.905C249.911 151.651 250.267 151.296 250.419 150.839C250.571 150.534 250.368 150.128 250.013 150.077L243.767 148.554C243.564 148.503 243.411 148.401 243.36 148.198L242.751 146.675C242.548 146.218 241.888 146.167 241.685 146.624L241.431 147.132L233.204 141.14C232.747 140.835 232.138 141.292 232.341 141.8Z" fill="#FF7200"/>
<path d="M409.461 550.936H171.86V222.185H409.868C418.856 222.185 426.168 229.497 426.168 238.485V534.229C426.168 543.471 418.652 550.936 409.461 550.936Z" fill="#15234A"/>
<path d="M209.133 263.774V274.082H204.309V246.356H214.922C216.547 246.356 217.969 246.559 219.238 247.016C220.508 247.473 221.523 248.083 222.386 248.844C223.25 249.606 223.91 250.571 224.367 251.637C224.824 252.704 225.027 253.872 225.027 255.141C225.027 256.461 224.824 257.68 224.367 258.747C223.91 259.813 223.25 260.727 222.386 261.438C221.523 262.149 220.457 262.758 219.238 263.114C217.969 263.52 216.547 263.723 214.922 263.723H209.133V263.774ZM209.133 259.915H214.922C215.836 259.915 216.648 259.813 217.308 259.559C217.969 259.305 218.527 259 218.933 258.594C219.34 258.188 219.695 257.68 219.898 257.122C220.101 256.563 220.203 255.903 220.203 255.243C220.203 254.583 220.101 253.973 219.898 253.364C219.695 252.755 219.39 252.247 218.933 251.79C218.527 251.333 217.969 250.977 217.308 250.673C216.648 250.419 215.836 250.266 214.922 250.266H209.133V259.915Z" fill="white"/>
<path d="M241.329 267.633H230.614L228.38 274.082H223.353L233.813 246.356H238.13L248.641 274.082H243.614L241.329 267.633ZM231.985 263.723H240.009L235.997 252.247L231.985 263.723Z" fill="white"/>
<path d="M266.261 266.922C266.261 266.363 266.159 265.856 266.007 265.449C265.854 264.992 265.55 264.586 265.093 264.231C264.636 263.875 264.077 263.52 263.265 263.164C262.503 262.809 261.487 262.453 260.319 262.098C258.999 261.692 257.78 261.235 256.663 260.727C255.546 260.219 254.581 259.61 253.769 258.949C252.956 258.289 252.347 257.528 251.89 256.614C251.433 255.75 251.23 254.735 251.23 253.618C251.23 252.5 251.483 251.485 251.941 250.52C252.398 249.606 253.108 248.793 253.972 248.082C254.835 247.422 255.851 246.864 257.069 246.508C258.288 246.102 259.608 245.95 261.081 245.95C262.655 245.95 264.026 246.153 265.296 246.61C266.514 247.067 267.581 247.676 268.444 248.438C269.307 249.2 269.968 250.114 270.425 251.129C270.882 252.145 271.085 253.262 271.085 254.379H266.311C266.311 253.719 266.21 253.11 266.007 252.5C265.804 251.942 265.499 251.434 265.042 251.028C264.636 250.621 264.077 250.317 263.417 250.063C262.757 249.809 261.995 249.707 261.081 249.707C260.218 249.707 259.507 249.809 258.897 250.012C258.288 250.215 257.78 250.469 257.323 250.825C256.917 251.18 256.612 251.586 256.409 252.043C256.206 252.5 256.105 253.008 256.105 253.567C256.105 254.582 256.612 255.446 257.577 256.157C258.542 256.817 260.015 257.477 262.046 258.035C263.62 258.492 264.94 259 266.108 259.559C267.225 260.117 268.19 260.727 268.952 261.438C269.714 262.149 270.272 262.91 270.628 263.824C270.983 264.688 271.186 265.703 271.186 266.82C271.186 267.988 270.932 269.055 270.475 269.969C270.018 270.883 269.358 271.695 268.495 272.355C267.632 273.016 266.616 273.523 265.397 273.879C264.179 274.234 262.807 274.387 261.335 274.387C260.015 274.387 258.694 274.184 257.374 273.828C256.105 273.473 254.937 272.914 253.87 272.203C252.804 271.492 251.991 270.578 251.382 269.461C250.773 268.395 250.417 267.074 250.417 265.602H255.241C255.241 266.465 255.394 267.227 255.698 267.836C256.003 268.445 256.409 268.953 256.968 269.359C257.526 269.766 258.136 270.07 258.897 270.223C259.608 270.426 260.421 270.477 261.284 270.477C262.96 270.477 264.229 270.121 265.042 269.461C265.854 268.953 266.261 268.039 266.261 266.922Z" fill="white"/>
<path d="M289.772 266.922C289.772 266.363 289.671 265.856 289.518 265.449C289.366 264.992 289.061 264.586 288.604 264.231C288.147 263.875 287.589 263.52 286.776 263.164C286.015 262.809 284.999 262.453 283.831 262.098C282.511 261.692 281.292 261.235 280.175 260.727C279.058 260.219 278.093 259.61 277.28 258.949C276.468 258.289 275.858 257.528 275.401 256.614C274.944 255.75 274.741 254.735 274.741 253.618C274.741 252.5 274.995 251.485 275.452 250.52C275.909 249.606 276.62 248.793 277.483 248.082C278.347 247.422 279.362 246.864 280.581 246.508C281.8 246.102 283.12 245.95 284.593 245.95C286.167 245.95 287.538 246.153 288.807 246.61C290.026 247.067 291.093 247.676 291.956 248.438C292.819 249.2 293.479 250.114 293.936 251.129C294.393 252.145 294.596 253.262 294.596 254.379H289.823C289.823 253.719 289.721 253.11 289.518 252.5C289.315 251.942 289.011 251.434 288.554 251.028C288.097 250.621 287.589 250.317 286.929 250.063C286.268 249.809 285.507 249.707 284.593 249.707C283.729 249.707 283.019 249.809 282.409 250.012C281.8 250.215 281.292 250.469 280.835 250.825C280.429 251.18 280.124 251.586 279.921 252.043C279.718 252.5 279.616 253.008 279.616 253.567C279.616 254.582 280.124 255.446 281.089 256.157C282.054 256.817 283.526 257.477 285.558 258.035C287.132 258.492 288.452 259 289.62 259.559C290.788 260.117 291.702 260.727 292.464 261.438C293.225 262.149 293.784 262.91 294.139 263.824C294.495 264.688 294.698 265.703 294.698 266.82C294.698 267.988 294.444 269.055 293.987 269.969C293.53 270.883 292.87 271.695 292.007 272.355C291.143 273.016 290.128 273.523 288.909 273.879C287.69 274.234 286.319 274.387 284.847 274.387C283.526 274.387 282.206 274.184 280.886 273.828C279.616 273.473 278.448 272.914 277.382 272.203C276.366 271.492 275.503 270.578 274.894 269.461C274.284 268.395 273.929 267.074 273.929 265.602H278.753C278.753 266.465 278.905 267.227 279.21 267.836C279.515 268.445 279.921 268.953 280.479 269.359C281.038 269.766 281.647 270.07 282.409 270.223C283.12 270.426 283.933 270.477 284.796 270.477C286.472 270.477 287.741 270.121 288.554 269.461C289.366 268.953 289.772 268.039 289.772 266.922Z" fill="white"/>
<path d="M303.635 263.774V274.082H298.811V246.356H309.424C311.049 246.356 312.47 246.559 313.74 247.016C315.009 247.473 316.025 248.083 316.888 248.844C317.752 249.606 318.412 250.571 318.869 251.637C319.326 252.704 319.529 253.872 319.529 255.141C319.529 256.461 319.326 257.68 318.869 258.747C318.412 259.813 317.752 260.727 316.888 261.438C316.025 262.149 314.959 262.758 313.74 263.114C312.47 263.52 311.049 263.723 309.424 263.723H303.635V263.774ZM303.635 259.915H309.424C310.338 259.915 311.15 259.813 311.81 259.559C312.47 259.305 313.029 259 313.435 258.594C313.842 258.188 314.197 257.68 314.4 257.122C314.603 256.563 314.705 255.903 314.705 255.243C314.705 254.583 314.603 253.973 314.4 253.364C314.197 252.755 313.892 252.247 313.435 251.79C312.978 251.333 312.47 250.977 311.81 250.673C311.15 250.419 310.338 250.266 309.424 250.266H303.635V259.915Z" fill="white"/>
<path d="M345.884 260.93C345.884 263.012 345.63 264.942 345.072 266.617C344.513 268.293 343.752 269.715 342.736 270.883C341.72 272.051 340.552 272.914 339.131 273.574C337.709 274.184 336.185 274.488 334.459 274.488C332.783 274.488 331.209 274.184 329.787 273.574C328.365 272.965 327.146 272.051 326.131 270.883C325.115 269.715 324.303 268.293 323.744 266.617C323.186 264.942 322.881 263.063 322.881 260.93V259.508C322.881 257.426 323.186 255.496 323.744 253.821C324.303 252.145 325.115 250.723 326.08 249.555C327.096 248.387 328.314 247.473 329.685 246.864C331.107 246.254 332.631 245.95 334.357 245.95C336.084 245.95 337.658 246.254 339.029 246.864C340.451 247.473 341.67 248.387 342.685 249.555C343.701 250.723 344.462 252.145 345.021 253.821C345.58 255.496 345.834 257.375 345.834 259.508V260.93H345.884ZM341.06 259.508C341.06 257.985 340.908 256.614 340.603 255.395C340.298 254.227 339.892 253.211 339.283 252.399C338.724 251.586 338.013 250.977 337.201 250.571C336.388 250.164 335.424 249.961 334.357 249.961C333.342 249.961 332.428 250.164 331.564 250.571C330.752 250.977 330.041 251.586 329.482 252.399C328.924 253.211 328.467 254.176 328.162 255.395C327.857 256.563 327.705 257.934 327.705 259.508V260.93C327.705 262.453 327.857 263.824 328.162 265.043C328.467 266.211 328.924 267.227 329.482 268.039C330.041 268.852 330.752 269.461 331.615 269.867C332.428 270.273 333.392 270.477 334.408 270.477C336.541 270.477 338.166 269.664 339.334 268.039C340.502 266.414 341.06 264.027 341.06 260.93V259.508Z" fill="white"/>
<path d="M360.864 263.367H355.481V274.031H350.657V246.305H360.407C361.981 246.305 363.403 246.508 364.673 246.864C365.891 247.219 366.958 247.778 367.821 248.438C368.684 249.149 369.344 250.012 369.751 251.079C370.208 252.094 370.411 253.313 370.411 254.684C370.411 256.512 369.954 258.086 369.091 259.356C368.177 260.625 366.958 261.59 365.333 262.25L371.579 273.828V274.082H366.399L360.864 263.367ZM355.481 259.508H360.407C361.27 259.508 362.032 259.406 362.692 259.153C363.352 258.899 363.86 258.594 364.317 258.188C364.774 257.782 365.079 257.324 365.282 256.766C365.485 256.207 365.587 255.598 365.587 254.938C365.587 254.227 365.485 253.567 365.282 253.008C365.079 252.45 364.774 251.942 364.368 251.536C363.962 251.129 363.403 250.825 362.743 250.571C362.083 250.368 361.321 250.215 360.407 250.215H355.481V259.508Z" fill="white"/>
<path d="M394.075 250.215H385.442V274.031H380.669V250.215H372.087V246.356H394.075V250.215Z" fill="white"/>
<path d="M318.309 515.644H280.071C278.853 515.644 277.837 514.628 277.837 513.409C277.837 512.191 278.853 511.175 280.071 511.175H318.309C319.527 511.175 320.543 512.191 320.543 513.409C320.543 514.679 319.527 515.644 318.309 515.644Z" fill="#AEC3FF"/>
<path d="M345.528 526.308H252.854C251.635 526.308 250.619 525.292 250.619 524.073C250.619 522.854 251.635 521.839 252.854 521.839H345.528C346.746 521.839 347.762 522.854 347.762 524.073C347.762 525.292 346.746 526.308 345.528 526.308Z" fill="#AEC3FF"/>
<path d="M299.165 483.195C274.943 483.195 252.194 473.75 235.081 456.637C217.968 439.524 208.523 416.775 208.523 392.552C208.523 368.33 217.968 345.581 235.081 328.468C252.194 311.355 274.943 301.91 299.165 301.91C323.387 301.91 346.137 311.355 363.25 328.468C380.363 345.581 389.808 368.33 389.808 392.552C389.808 416.775 380.363 439.524 363.25 456.637C346.137 473.75 323.387 483.195 299.165 483.195ZM299.165 302.874C275.197 302.874 252.701 312.218 235.792 329.128C218.882 346.038 209.538 368.584 209.538 392.502C209.538 416.47 218.882 438.966 235.792 455.875C252.701 472.785 275.248 482.129 299.165 482.129C323.134 482.129 345.629 472.785 362.539 455.875C379.449 438.966 388.792 416.419 388.792 392.502C388.792 368.533 379.449 346.038 362.539 329.128C345.629 312.218 323.134 302.874 299.165 302.874Z" fill="#AEC3FF"/>
<path d="M371.884 392.552C371.884 397.021 371.478 401.388 370.716 405.654C368.837 415.86 364.876 425.306 359.24 433.532C346.138 452.676 324.15 465.219 299.217 465.219C269.562 465.219 244.019 447.446 232.746 421.954C231.273 418.603 230.004 415.099 229.039 411.493C227.414 405.45 226.551 399.103 226.551 392.501C226.551 387.17 227.109 382.041 228.176 377.014C228.176 376.963 228.176 376.912 228.227 376.861C231.223 363.1 238.179 350.76 247.777 341.163C250.519 338.421 253.464 335.932 256.562 333.647C258.035 332.581 259.609 331.514 261.183 330.55C272.253 323.745 285.253 319.835 299.217 319.835C301.045 319.835 302.873 319.886 304.702 320.038C307.241 320.241 309.78 320.546 312.268 321.003C322.678 322.882 332.326 326.995 340.705 332.835C345.935 336.44 350.607 340.756 354.72 345.581C356.853 348.12 358.833 350.811 360.661 353.655C361.779 355.432 362.794 357.209 363.759 359.088C366.095 363.557 367.923 368.279 369.294 373.205C370.97 379.4 371.884 385.849 371.884 392.552Z" fill="white"/>
<path d="M274.487 360.002C271.593 364.572 275.706 372.596 266.972 370.412C258.289 368.229 252.957 367.264 252.449 372.088C251.941 376.912 259 376.912 259 381.99C259 387.068 255.851 388.744 251.027 386.357C246.203 383.97 244.781 380.416 239.195 382.599C233.559 384.783 230.309 383.31 229.039 378.994C228.836 378.232 228.481 377.623 228.125 377.115C228.125 377.064 228.125 377.013 228.176 376.963C231.172 363.201 238.129 350.862 247.726 341.264C250.468 338.522 253.414 336.034 256.511 333.749C257.984 332.682 259.558 331.616 261.132 330.651C263.417 330.753 266.109 331.616 268.394 334.46C273.472 340.756 276.874 337.608 275.655 344.87C274.437 352.131 276.366 353.096 280.48 352.842C284.593 352.588 289.417 352.588 289.925 355.737C290.432 358.783 277.382 355.432 274.487 360.002Z" fill="#94B0ED"/>
<path d="M304.6 403.521C304.6 403.521 298.202 405.552 296.526 401.084C294.85 396.615 296.78 395.65 291.093 394.33C285.405 393.009 284.948 389.15 281.292 389.607C277.687 390.115 279.464 391.537 275.249 394.685C271.034 397.834 267.175 396.361 267.277 402.201C267.378 407.99 273.675 408.904 274.944 412.712C276.214 416.521 274.03 418.146 276.773 421.04C279.515 423.935 284.593 422.665 282.206 426.677C279.87 430.688 276.214 433.735 278.042 439.93C279.87 446.075 278.601 446.481 281.647 450.797C284.745 455.164 290.686 456.586 291.6 453.692C292.514 450.797 287.436 446.989 289.061 444.094C290.686 441.2 293.428 443.18 294.495 438.813C295.561 434.446 299.979 434.446 300.335 431.45C300.69 428.403 295.003 423.833 297.186 421.903C299.37 419.974 303.737 425.407 307.088 420.583C310.491 415.759 308.155 411.9 311.659 407.279C315.213 402.658 306.987 400.88 304.6 403.521Z" fill="#94B0ED"/>
<path d="M371.884 392.552C371.884 397.021 371.478 401.388 370.716 405.653C368.837 415.86 364.876 425.305 359.24 433.532C357.31 434.141 355.381 434.141 353.451 433.379C344.412 429.774 351.115 419.973 354.72 415.048C358.326 410.173 349.084 412.306 342.381 407.786C335.678 403.267 343.092 391.13 336.236 393.111C329.33 395.091 321.002 397.63 317.041 390.927C313.03 384.224 320.647 383.107 317.245 377.521C313.792 371.885 319.225 368.635 326.131 368.076C333.037 367.517 332.123 362.643 340.654 361.932C349.185 361.221 348.982 372.088 358.427 371.377C367.872 370.666 367.415 372.849 367.415 372.849C368.076 372.849 368.736 372.951 369.396 373.256C370.97 379.4 371.884 385.849 371.884 392.552Z" fill="#94B0ED"/>
<path d="M363.758 359.088C355.938 362.896 352.79 352.537 346.087 355.635C339.333 358.783 340.501 352.74 335.22 348.881C329.888 345.022 319.275 352.029 319.732 345.987C320.189 339.944 328.212 341.619 329.888 336.795C331.564 331.971 339.333 333.19 339.333 333.19C339.79 333.038 340.247 332.936 340.755 332.885C345.985 336.491 350.657 340.807 354.77 345.631C356.903 348.17 358.884 350.861 360.712 353.705C361.727 355.432 362.794 357.26 363.758 359.088Z" fill="#94B0ED"/>
<path d="M297.694 338.268C297.694 338.268 301.807 332.327 295.257 330.6C288.706 328.874 288.858 331.159 283.78 330.6C278.702 330.042 276.722 334.003 280.53 338.268C284.339 342.534 287.437 350.811 290.839 346.393C294.292 341.975 293.632 338.674 297.694 338.268Z" fill="#94B0ED"/>
<path d="M248.532 547.691H135.139C124.241 547.691 115.466 538.858 115.466 528.018V525.437H266.714V529.509C266.714 539.547 258.569 547.691 248.532 547.691Z" fill="#4370EF"/>
<path d="M271.933 338.571V519.128C271.933 521.308 271.704 523.43 271.245 525.495H250.081C246.811 525.495 243.714 526.47 241.133 528.133C239.527 529.166 238.151 530.427 236.946 531.919C234.709 534.729 233.447 538.285 233.447 542.128V547.749H150.51V542.071C150.51 536.278 147.528 531.173 143.054 528.191C141.792 527.33 140.358 526.699 138.867 526.183C137.318 525.667 135.598 525.437 133.877 525.437H110.992C110.533 523.373 110.304 521.25 110.304 519.071V338.571C110.304 322.798 123.094 309.95 138.867 309.95H243.37C259.143 309.95 271.933 322.741 271.933 338.571Z" fill="#AFBFEC"/>
<path d="M221.517 309.836C184.121 295.095 157.966 309.606 157.737 309.778L156.36 307.427C156.647 307.255 163.3 303.469 174.829 301.577C185.44 299.799 202.303 299.397 222.492 307.37L221.517 309.836Z" fill="#163560"/>
<path d="M136.632 539.318H125.677V554.23H136.632V539.318Z" fill="#163560"/>
<path d="M123.381 556.467C123.381 552.165 126.88 548.667 131.181 548.667C135.483 548.667 138.982 552.165 138.982 556.467C138.982 560.769 135.483 564.267 131.181 564.267C126.88 564.267 123.381 560.826 123.381 556.467Z" fill="#1F4777"/>
<path d="M126.421 556.467C126.421 553.829 128.543 551.707 131.124 551.707C133.762 551.707 135.827 553.829 135.827 556.467C135.827 559.105 133.705 561.228 131.124 561.228C128.543 561.228 126.421 559.105 126.421 556.467Z" fill="#163560"/>
<path d="M249.222 539.318H238.267V554.23H249.222V539.318Z" fill="#163560"/>
<path d="M235.97 556.467C235.97 552.165 239.468 548.667 243.77 548.667C248.072 548.667 251.571 552.165 251.571 556.467C251.571 560.769 248.072 564.267 243.77 564.267C239.468 564.267 235.97 560.826 235.97 556.467Z" fill="#1F4777"/>
<path d="M239.068 556.467C239.068 553.829 241.19 551.707 243.771 551.707C246.41 551.707 248.475 553.829 248.475 556.467C248.475 559.106 246.352 561.228 243.771 561.228C241.133 561.228 239.068 559.106 239.068 556.467Z" fill="#163560"/>
<path d="M142.998 309.95V528.133C141.736 527.273 140.302 526.642 138.811 526.125V309.893H142.998V309.95Z" fill="#4370EF"/>
<path d="M176.378 309.951H172.191V547.692H176.378V309.951Z" fill="#4370EF"/>
<path d="M207.465 309.951H203.278V547.692H207.465V309.951Z" fill="#4370EF"/>
<path d="M241.132 309.951V528.019C239.526 529.051 238.15 530.313 236.945 531.804V309.951H241.132Z" fill="#4370EF"/>
<path d="M19.9682 216.518C19.9682 216.231 24.4993 206.767 23.0654 206.079C21.6315 205.333 18.9931 205.448 18.7063 207.111C18.4195 208.717 19.9682 216.518 19.9682 216.518Z" fill="#FFB27D"/>
<path d="M21.6893 222.139C21.6893 221.221 20.5996 207.111 18.248 204.301C15.8964 201.49 11.0211 197.475 9.47248 197.647C7.92386 197.762 1.95882 205.735 3.73686 211.814C5.5149 217.894 13.1433 226.153 13.1433 226.153L21.6893 222.139Z" fill="#FFB27D"/>
<path d="M30.3024 201.222L17.2464 208.445C16.8111 208.655 16.3168 208.413 16.0675 207.832L3.68728 174.091C3.4949 173.503 3.64376 172.87 4.06927 172.584L17.1253 165.361C17.5606 165.151 18.0549 165.393 18.3042 165.974L30.6844 199.715C30.8768 200.303 30.7279 200.936 30.3024 201.222Z" fill="#2F447C"/>
<path d="M26.897 203.046L15.0902 209.647C14.3332 210.052 13.4015 209.56 13.0363 208.534L1.22346 176.483C0.858344 175.457 1.1659 174.267 1.92283 173.861L13.7297 167.261C14.4866 166.855 15.4184 167.347 15.7835 168.373L27.5395 200.432C27.9615 201.45 27.654 202.641 26.897 203.046Z" fill="#15234A"/>
<path d="M8.03809 198.623C8.03809 198.623 13.8311 189.732 15.2076 190.249C17.2151 190.937 9.98819 202.236 9.98819 202.236C9.98819 202.236 15.3797 193.805 16.1827 194.436C18.0754 195.87 15.0355 201.146 12.053 205.219C12.053 205.219 17.4445 200.286 17.6166 201.146C18.2475 204.244 11.7089 211.815 11.7089 211.815L8.03809 203.498V198.623Z" fill="#FFB27D"/>
<path d="M3.73621 206.881C4.02299 205.792 5.39953 184.57 6.03045 186.577C6.66137 188.585 8.09527 199.712 8.09527 199.712L3.73621 206.881Z" fill="#FFB27D"/>
<path d="M95.8507 201.031C95.8507 201.031 95.2198 224.088 88.6238 242.672C83.3471 257.355 74.3422 269.285 58.856 264.869C57.25 264.41 55.7588 263.951 54.2675 263.435C22.8363 252.48 12.627 227.415 12.627 227.415C14.9786 223.572 21.7466 222.138 21.7466 222.138C28.0558 222.483 55.9308 234.298 57.7089 234.642C64.1328 235.961 69.3522 200.572 73.5392 188.298C77.7262 176.024 94.8183 170.575 94.8183 170.575L95.8507 201.031Z" fill="#FF7200"/>
<path d="M89.1962 226.096L88.5653 242.729C83.2885 257.412 74.2836 269.342 58.7975 264.926C57.1915 264.467 55.7002 264.008 54.209 263.492C54.7252 263.549 64.189 264.811 68.1465 260.854C72.2188 256.781 71.8173 243.245 79.2736 234.24C86.8446 225.178 89.1962 226.096 89.1962 226.096Z" fill="#F16C00"/>
<path d="M90.0571 529.911C90.0571 529.911 97.8001 536.966 96.3089 542.013C94.8176 547.061 87.8202 550.387 86.8451 556.524C85.9274 562.661 82.1419 565.988 78.7005 565.988C75.3165 565.988 62.5261 565.988 62.5261 565.988C62.5261 565.988 60.0024 561.686 66.0822 560.367C72.1046 559.048 74.3988 551.879 73.9973 545.168C73.5958 538.457 74.5709 529.567 74.5709 529.567L87.4187 526.584L90.0571 529.911Z" fill="black"/>
<path d="M4.76855 564.669H52.4889C54.3816 564.669 55.8729 563.178 55.9302 561.342C55.9876 558.532 55.7582 554.459 54.2095 551.075C51.6859 545.455 50.0799 544.422 60.8055 528.018C57.5936 531.345 48.8754 529.796 41.4765 528.821C40.5588 530.255 26.908 551.362 23.9255 553.542C20.6562 555.893 5.80097 555.033 4.76855 564.669Z" fill="black"/>
<path d="M79.1015 300.143C79.1015 300.143 44.5158 365.414 35.1093 401.319C27.8251 429.194 72.3335 537.138 72.3335 537.138C72.3335 537.138 75.9469 536.909 81.912 534.557C87.7623 532.263 89.9418 526.126 89.9418 526.126C89.9418 526.126 87.3034 448.982 78.2985 411.643C76.2911 403.269 88.1064 376.254 108.066 361.456C128.026 346.659 136.343 299.053 124.47 295.784C112.597 292.572 79.1015 300.143 79.1015 300.143Z" fill="#163560"/>
<path d="M108.698 281.617C108.698 281.617 72.3338 414.912 61.3214 444.795C50.3091 474.735 32.8154 538.228 32.8154 538.228C32.8154 538.228 43.8852 543.39 58.0521 540.981C58.0521 540.981 111.221 463.092 113.516 428.678C114.605 412.79 168.061 349.698 162.096 308.574L108.698 281.617Z" fill="#1C468A"/>
<path d="M161.982 323.2C161.982 323.2 154.239 327.1 140.588 328.247C124.93 329.566 101.471 327.272 72.9078 311.327C72.9078 311.327 64.9353 304.788 74.7432 276.856C82.1422 255.692 85.7556 211.183 94.8179 170.518C94.8179 170.518 124.127 161.341 147.7 169.256C165.71 175.336 163.875 202.924 167.201 231.659C167.488 234.355 167.89 237.051 168.291 239.689C173.166 271.235 161.982 323.2 161.982 323.2Z" fill="#FF7200"/>
<path d="M84.4377 110.466C84.4377 110.466 104.455 77.8877 119.941 94.6357C119.941 94.6357 130.093 97.2168 135.886 112.99C141.794 129.107 132.56 143.331 126.422 141.037C122.465 139.546 120.629 146.371 120.629 146.371L84.4377 110.466Z" fill="#233862"/>
<path d="M116.901 92.0546C116.901 92.0546 118.278 78.5759 138.008 79.8951C138.008 79.8951 128.659 80.0671 126.709 83.9674C126.709 83.9674 133.477 79.6083 138.41 81.7305C143.343 83.8527 145.465 93.087 145.178 96.0695C144.891 98.9947 141.106 108.229 137.779 108.688C134.452 109.147 130.093 106.795 130.093 106.795L116.901 92.0546Z" fill="#233862"/>
<path d="M126.823 168.51C124.988 163.577 122.235 158.415 119.998 142.642L118.793 143.044L98.8906 150.041C98.8906 150.041 100.267 156.408 101.185 162.488C101.529 164.954 101.816 169.428 101.988 173.271C102.16 177.228 106.06 177.572 110.018 177.4C120.514 176.941 126.307 172.984 126.823 168.51Z" fill="#FFB27D"/>
<path d="M98.8906 150.042C98.8906 150.042 100.267 156.408 101.185 162.488C112.599 160.538 117.13 149.182 118.793 143.044L98.8906 150.042Z" fill="#E8945B"/>
<path d="M120.628 140.463C120.628 140.463 125.273 130.081 125.56 121.765C125.732 115.8 119.71 94.7501 98.5454 100.945C98.5454 100.945 92.3509 102.493 87.0742 107.311C82.8298 111.154 77.0368 118.954 87.3036 136.62L90.1714 142.642L120.628 140.463Z" fill="#233862"/>
<path d="M95.9074 156.351C95.9074 156.351 123.094 152.91 120.685 135.99C118.276 119.07 120.169 107.254 102.675 108.745C85.2391 110.237 82.7728 117.177 82.1993 123.027C81.6257 128.82 88.7952 156.81 95.9074 156.351Z" fill="#FFB27D"/>
<path d="M90.2852 110.122C90.2852 110.122 100.552 128.877 112.367 130.139C124.183 131.401 128.714 127.673 128.714 127.673C128.714 127.673 118.963 121.994 115.407 110.122C115.407 110.122 94.5295 99.8548 90.2852 110.122Z" fill="#233862"/>
<path d="M92.3511 111.441C92.3511 111.441 87.4185 116.66 86.7302 121.191C85.9846 125.665 86.6728 134.613 84.0345 134.728C84.0345 134.728 76.5208 122.052 81.6829 113.506C87.1891 104.443 92.3511 111.441 92.3511 111.441Z" fill="#233862"/>
<path d="M91.4354 112.301C91.4354 112.301 99.6947 132.319 115.066 136.85C115.066 136.85 98.8344 126.182 95.6224 112.646C92.4105 99.1096 91.4354 112.301 91.4354 112.301Z" fill="#233862"/>
<path d="M161.982 323.2C161.982 323.2 154.239 327.1 140.588 328.247C140.588 328.247 129.346 314.138 141.907 298.365C154.468 282.592 140.932 253.455 150.568 237.625C157.279 226.612 163.817 229.193 167.201 231.717C167.488 234.413 167.89 237.108 168.291 239.747C173.167 271.235 161.982 323.2 161.982 323.2Z" fill="#F16C00"/>
<path d="M211.308 299.798C211.308 299.798 212.972 303.699 215.323 303.928C219.109 304.329 226.393 307.541 227.483 308.23C230.58 310.065 230.35 318.267 227.253 319.013C224.156 319.758 222.607 312.933 213.029 311.097C209.76 310.467 204.999 312.703 203.106 304.903L211.308 299.798Z" fill="#FFB27D"/>
<path d="M147.643 169.313C175.633 179.637 176.666 229.193 189.169 251.046C202.017 273.587 214.578 303.24 214.578 303.24C214.578 303.24 214.349 304.1 209.531 305.477C206.147 306.452 202.648 306.05 202.648 306.05C202.648 306.05 176.207 282.133 169.037 272.669C161.868 263.205 144.89 219.442 144.89 219.442C144.89 219.442 136.516 165.241 147.643 169.313Z" fill="#FF7200"/>
<path d="M203.794 306.796C203.794 306.796 204.482 310.123 208.612 312.819C212.742 315.515 216.068 318.21 216.47 316.547C216.871 314.884 214.175 313.106 213.544 310.008C212.856 306.911 203.794 306.796 203.794 306.796Z" fill="#FFB27D"/>
</svg>
