<svg width="613" height="356" viewBox="0 0 613 356" fill="none" xmlns="http://www.w3.org/2000/svg">
<path d="M278.821 73.1971L271.132 69.3529C271.132 69.3529 268.792 64.1715 268.625 64.3386C268.458 64.3386 253.75 61.3301 253.75 61.3301C253.75 61.3301 253.582 70.0214 255.254 71.86C256.925 73.6985 266.954 74.5342 267.455 74.8685C267.957 75.2028 269.127 74.2 269.127 74.2L277.316 79.5485L278.821 73.1971Z" fill="#EBB376"/>
<path d="M363.729 7.8446C363.729 7.8446 360.554 0.323242 350.024 0.323242C339.661 0.323242 330.969 6.50747 331.471 14.5303C331.972 22.3859 325.955 21.7173 324.952 29.4058C323.95 37.0943 327.627 39.1 327.961 42.2757C328.128 45.4514 323.95 44.4486 321.275 49.9642C318.601 55.4799 315.091 63.1684 326.791 73.1969C338.491 83.3925 371.418 81.554 378.605 75.3697C385.792 69.1855 385.625 57.3185 378.605 53.9756C371.585 50.7999 378.103 51.3014 378.772 44.1143C379.441 36.9272 373.089 34.2529 373.591 28.5701C374.092 22.8873 375.763 8.17889 363.729 7.8446Z" fill="#263238"/>
<path d="M323.28 55.9814V76.3727C323.28 76.3727 321.608 78.5455 318.934 81.3869C316.427 84.0612 313.251 87.2369 309.908 89.5769C306.733 91.9168 303.557 93.4211 301.05 93.0868C293.027 92.084 271.132 79.5484 271.132 79.5484L274.809 69.8542C274.809 69.8542 299.546 82.5569 301.05 81.2198C302.387 80.0498 318.767 57.1514 323.28 55.9814Z" fill="#476CD2"/>
<path opacity="0.2" d="M318.767 81.3869C316.26 84.0611 313.085 87.2368 309.742 89.5768C308.572 80.384 319.102 69.1855 319.102 69.1855C319.102 69.1855 319.269 75.2026 318.767 81.3869Z" fill="black"/>
<path d="M326.121 130.025C326.121 130.025 312.583 202.398 308.906 232.149C304.226 270.926 284.838 327.587 284.838 327.587L292.526 329.592C292.526 329.592 319.77 281.456 325.119 237.999C346.847 193.706 348.518 139.051 348.518 139.051L326.121 130.025Z" fill="#EBB376"/>
<path d="M270.296 345.303C271.466 344.802 272.97 344.3 274.307 344.3C274.307 344.3 278.987 341.459 283.834 330.595H289.183C291.021 330.595 292.693 331.765 293.194 333.436C293.361 333.603 293.361 333.938 293.361 334.105C293.361 335.442 293.194 336.612 293.027 337.949C292.525 341.96 289.851 350.485 289.851 350.485L289.015 350.317L290.687 342.462C291.188 339.787 288.347 342.295 287.01 345.136C285.673 347.81 283.667 350.652 277.817 349.315C270.964 347.476 268.123 346.473 270.296 345.303Z" fill="#263238"/>
<path d="M340.162 128.855C340.162 128.855 341.833 202.565 344.508 232.316C347.85 271.26 340.663 330.762 340.663 330.762L348.686 331.097C348.686 331.097 365.4 278.28 361.723 234.656C373.757 186.854 364.23 133.034 364.23 133.034L340.162 128.855Z" fill="#EBB376"/>
<path d="M328.128 347.644C329.298 346.975 330.635 346.474 331.972 346.139C331.972 346.139 336.485 342.796 339.995 331.431L345.344 330.762C347.182 330.595 348.854 331.598 349.689 333.269C349.856 333.436 349.856 333.771 349.856 333.938C350.024 335.275 350.024 336.445 349.856 337.782C349.856 341.794 348.185 350.485 348.185 350.485L347.349 350.318L348.185 342.295C348.352 339.621 345.845 342.462 344.842 345.304C343.839 348.145 342.168 351.153 336.151 350.318C329.131 349.816 326.29 349.148 328.128 347.644Z" fill="#263238"/>
<path d="M284.672 327.753C284.672 327.753 277.987 341.626 274.309 344.3C274.309 344.3 279.491 347.309 284.672 340.623C291.525 331.765 293.196 334.272 293.196 334.272C293.196 334.272 292.862 331.263 292.361 329.759C291.525 326.918 284.672 327.753 284.672 327.753Z" fill="#EBB376"/>
<path d="M341.499 327.586C341.499 327.586 339.661 332.767 337.154 338.283C334.647 343.966 332.139 346.139 332.139 346.139C332.139 346.139 336.485 347.476 338.825 344.802C341.165 342.127 345.176 332.266 349.689 333.269C349.689 333.269 349.355 332.099 348.686 330.929C348.018 330.093 341.499 327.586 341.499 327.586Z" fill="#EBB376"/>
<path d="M321.441 117.991C321.441 117.991 316.093 171.644 308.07 225.296C300.716 274.268 286.509 315.552 286.509 315.552L302.387 316.889C302.387 316.889 332.807 241.509 342 197.885C342 197.885 345.342 275.271 339.994 318.227L353.867 317.558C353.867 317.558 387.796 171.978 362.391 119.495L321.441 117.991Z" fill="#407BFF"/>
<path opacity="0.4" d="M354.033 317.558L340.16 318.227C345.508 275.271 342.165 197.885 342.165 197.885C339.826 208.916 336.148 221.953 331.97 235.324C319.601 274.77 302.553 316.889 302.553 316.889L286.675 315.552C286.675 315.552 300.882 274.268 308.236 225.296C316.259 171.476 321.607 117.991 321.607 117.991L362.724 119.495C387.962 171.978 354.033 317.558 354.033 317.558Z" fill="white"/>
<path opacity="0.2" d="M342.166 197.885C339.826 208.916 336.149 221.953 331.97 235.324C330.299 210.253 336.817 165.292 336.817 165.292L342.166 197.885Z" fill="black"/>
<path d="M362.559 116.988V123.006L321.275 120.666L321.108 113.479L362.559 116.988Z" fill="#263238"/>
<path d="M330.165 121.634L339.169 122.269L339.651 115.433L330.648 114.798L330.165 121.634Z" fill="white"/>
<path d="M348.329 125.108L350.333 125.173L350.672 114.648L348.667 114.584L348.329 125.108Z" fill="#407BFF"/>
<path opacity="0.4" d="M348.329 125.108L350.333 125.173L350.672 114.648L348.667 114.584L348.329 125.108Z" fill="white"/>
<path d="M322.928 122.853L324.933 122.917L325.271 112.392L323.266 112.328L322.928 122.853Z" fill="#407BFF"/>
<path opacity="0.4" d="M322.928 122.853L324.933 122.917L325.271 112.392L323.266 112.328L322.928 122.853Z" fill="white"/>
<path d="M321.107 114.147L362.391 116.821C363.059 106.625 363.728 103.45 366.903 91.0812C367.906 87.0698 369.076 82.7241 370.748 77.5428C371.583 74.8685 372.586 71.8599 373.589 68.6843C374.425 66.3443 375.261 63.67 376.096 60.9958C370.413 59.1572 364.731 57.8201 358.881 56.8172C352.696 55.6472 346.512 55.1458 340.328 54.8115C332.305 54.8115 323.112 55.6472 323.112 55.6472C323.112 55.6472 321.775 55.9815 320.94 64.5057C320.271 72.8628 319.435 85.0641 321.107 114.147Z" fill="#263238"/>
<path d="M321.107 114.147L362.391 116.821C363.059 106.625 363.728 103.45 366.903 91.0812C367.906 87.0698 369.076 82.7241 370.748 77.5428C371.583 74.8685 372.586 71.8599 373.589 68.6843C374.425 66.3443 375.261 63.67 376.096 60.9958C370.413 59.1572 364.731 57.8201 358.881 56.8172C352.696 55.6472 346.512 55.1458 340.328 54.8115C332.305 54.8115 323.112 55.6472 323.112 55.6472C323.112 55.6472 321.775 55.9815 320.94 64.5057C320.271 72.8628 319.435 85.0641 321.107 114.147Z" fill="#BDCCF7"/>
<path d="M343.838 64.3384C354.034 63.0012 357.043 58.6555 357.043 58.6555C350.524 52.4713 355.872 41.9414 355.872 41.9414L343.671 44.2814C344.005 46.2871 344.173 47.9585 344.173 49.4628C344.34 56.9841 340.83 56.9841 340.83 56.9841C338.824 60.9955 343.838 64.3384 343.838 64.3384Z" fill="#EBB376"/>
<path opacity="0.2" d="M343.839 44.2814C344.173 46.2871 344.34 47.9585 344.34 49.4628C352.697 49.4628 356.207 41.9414 356.207 41.9414L343.839 44.2814Z" fill="black"/>
<path d="M350.525 9.85072C339.828 9.3493 336.151 14.865 334.647 25.7292C332.976 39.4348 335.483 49.2961 348.854 47.1233C367.407 44.2819 368.242 10.8536 350.525 9.85072Z" fill="#EBB376"/>
<path d="M341.666 25.5615C341.666 25.5615 339.994 28.2358 338.323 29.7401C338.323 29.7401 339.159 31.2443 340.997 31.0772L341.666 25.5615Z" fill="#D58745"/>
<path d="M348.353 25.0609C348.353 25.8966 348.687 26.7323 349.356 26.7323C349.857 26.7323 350.526 26.0638 350.526 25.2281C350.526 24.3923 350.191 23.5566 349.523 23.5566C348.854 23.5566 348.353 24.2252 348.353 25.0609Z" fill="#263238"/>
<path d="M349.69 23.7235L347.852 22.8878C347.852 22.7207 348.687 24.3921 349.69 23.7235Z" fill="#263238"/>
<path d="M337.488 24.058C337.488 24.8937 337.822 25.7294 338.491 25.7294C338.992 25.7294 339.661 25.0608 339.661 24.2251C339.661 23.3894 339.327 22.5537 338.658 22.5537C337.989 22.5537 337.488 23.2223 337.488 24.058Z" fill="#263238"/>
<path d="M338.826 22.5535L336.987 21.7178C336.987 21.7178 337.823 23.3892 338.826 22.5535Z" fill="#263238"/>
<path d="M348.854 17.7065C348.854 17.7065 351.863 17.5394 353.367 19.5451" stroke="#2E353A" stroke-width="0.7247" stroke-miterlimit="10" stroke-linecap="round" stroke-linejoin="round"/>
<path d="M340.999 16.8702C340.999 16.8702 339.16 16.0345 336.653 17.5387" stroke="#2E353A" stroke-width="0.7247" stroke-miterlimit="10" stroke-linecap="round" stroke-linejoin="round"/>
<path d="M342.504 35.4231C343.005 36.7602 343.507 39.2673 343.507 39.2673C343.674 39.2673 344.008 39.2673 344.175 39.2673C347.351 39.1002 348.688 38.0973 349.356 36.9273C349.691 36.2588 349.691 35.5902 349.691 35.0888C349.691 34.4202 349.524 34.0859 349.524 34.0859C347.852 35.0888 345.011 35.5902 343.507 35.5902C342.838 35.4231 342.504 35.4231 342.504 35.4231Z" fill="#263238"/>
<path d="M343.507 35.4231L343.841 36.5931C346.849 36.4259 348.855 35.9245 349.691 35.0888C349.691 34.4202 349.524 34.0859 349.524 34.0859C348.019 34.9216 345.011 35.2559 343.507 35.4231Z" fill="white"/>
<path d="M344.174 39.2677C347.35 39.1006 348.687 38.0977 349.356 36.9277C348.353 37.0949 347.016 37.262 345.846 37.7634C345.01 38.0977 344.509 38.5991 344.174 39.2677Z" fill="#DE5753"/>
<path d="M361.222 28.5705C361.222 28.5705 356.71 19.5449 357.88 12.8593C357.88 12.8593 337.154 2.99791 334.981 24.392C334.981 24.392 333.978 5.17075 352.364 5.83931C370.749 6.34073 369.245 33.2505 359.217 40.7719C359.217 40.7719 364.064 34.2534 361.222 28.5705Z" fill="#263238"/>
<path d="M362.391 8.84784C362.391 8.84784 354.034 1.32648 346.512 2.83075C338.991 4.16788 340.161 14.1964 350.19 18.0406C360.218 21.8849 362.224 26.732 362.224 26.732L370.915 19.0435L362.391 8.84784Z" fill="#263238"/>
<path d="M344.174 6.00684C344.174 6.00684 340.664 6.17398 341.667 11.5225C342.67 16.871 350.191 19.5453 357.211 21.8853C364.398 24.3924 363.73 27.2338 363.73 27.2338" stroke="#263238" stroke-width="0.5" stroke-miterlimit="10"/>
<path d="M359.385 30.7437C359.552 29.0723 361.557 26.2309 364.733 26.7323C368.076 27.2337 369.246 34.0865 360.889 35.2565C359.719 35.4237 359.05 34.2537 359.385 30.7437Z" fill="#EBB376"/>
<path d="M366.57 59.826C366.57 59.826 354.536 69.5202 343.504 69.353C332.306 69.1859 328.462 56.6503 328.462 56.6503C328.462 56.6503 345.677 51.4689 366.57 59.826Z" fill="#EBB376"/>
<path d="M376.265 61.3299L370.916 125.846L359.384 126.849C357.712 118.158 357.378 104.285 357.545 91.0811C357.879 73.3641 359.049 57.1514 359.049 57.1514C365.568 57.8199 376.265 61.3299 376.265 61.3299Z" fill="#476CD2"/>
<path opacity="0.4" d="M360.888 73.3639L364.063 78.211L357.545 91.2481C357.879 73.5311 359.049 57.3184 359.049 57.3184L368.91 66.5111L360.888 73.3639Z" fill="white"/>
<path d="M336.82 55.1455C336.485 55.6469 330.803 66.0097 326.29 86.0667C323.95 96.0951 322.111 108.296 321.108 123.005L316.763 120.999C316.763 120.999 314.757 71.0239 323.281 56.1484L336.82 55.1455Z" fill="#476CD2"/>
<path opacity="0.4" d="M336.819 55.1455C336.485 55.6469 330.802 66.0097 326.289 86.0667L324.284 73.1968L328.629 69.3525L324.284 61.1626L336.819 55.1455Z" fill="white"/>
<path d="M392.978 100.274C391.64 103.116 389.468 103.283 387.128 102.113C385.289 101.277 383.45 99.4385 381.946 97.4328C380.943 95.9285 379.439 93.7557 378.102 91.2485C375.093 86.0672 371.918 80.3843 371.918 80.3843L376.263 61.1631C382.448 64.1716 395.318 95.2599 392.978 100.274Z" fill="#476CD2"/>
<path opacity="0.2" d="M387.129 102.112C385.29 101.277 383.452 99.4382 381.948 97.4325C380.945 95.9282 379.441 93.7554 378.103 91.2482C379.942 88.0726 381.78 85.5654 381.78 85.5654L384.956 94.2568C384.956 94.2568 390.472 95.4268 391.308 98.2682C391.642 99.4382 389.803 100.942 387.129 102.112Z" fill="black"/>
<path d="M386.962 77.208L376.599 116.486C376.432 117.489 375.429 117.991 374.426 117.991L347.182 114.313C346.179 114.146 345.678 113.311 345.845 112.475L356.208 73.1967C356.375 72.1938 357.378 71.6924 358.381 71.6924L385.625 75.3695C386.627 75.3695 387.296 76.2052 386.962 77.208Z" fill="#263238"/>
<path opacity="0.1" d="M386.962 77.2079L376.599 116.486C376.432 117.489 375.429 117.99 374.426 117.99L348.352 114.48C347.349 114.313 346.848 113.478 347.015 112.642L357.378 73.3637C357.545 72.3608 358.548 71.8594 359.55 71.8594L385.624 75.3693C386.627 75.3693 387.296 76.2051 386.962 77.2079Z" fill="white"/>
<path opacity="0.3" d="M368.074 92.0837C366.737 91.9166 365.4 92.7523 365.066 94.0894C364.731 95.4265 365.567 96.5965 366.904 96.7637C368.241 96.9308 369.578 96.0951 369.913 94.758C368.576 94.758 367.74 93.4208 368.074 92.0837Z" fill="white"/>
<path d="M389.299 109.467C387.46 110.47 383.282 108.965 382.112 108.464C381.945 108.297 381.778 108.297 381.778 108.297C381.778 108.297 379.438 100.942 385.455 96.9311H385.622C387.46 95.9282 393.31 97.2654 393.477 99.1039C393.979 106.96 391.472 108.297 389.299 109.467Z" fill="#476CD2"/>
<path opacity="0.2" d="M385.623 103.115C384.954 105.789 383.283 107.461 381.946 108.463C381.779 108.296 381.612 108.296 381.612 108.296C381.612 108.296 379.272 100.942 385.289 96.9307H385.456C385.79 97.5992 386.626 99.2706 385.623 103.115Z" fill="black"/>
<path d="M377.099 93.7549C377.099 93.7549 380.943 93.5878 382.614 93.7549C384.286 93.9221 383.784 99.6049 383.784 99.6049L385.288 100.441C385.288 100.441 386.458 103.783 383.951 105.455L382.614 104.953C382.614 104.953 382.28 106.291 381.11 106.959C380.107 107.628 374.759 106.123 374.759 106.123L377.099 93.7549Z" fill="#EBB376"/>
<path d="M570.485 355.999H562.797L548.757 160.778H559.119L570.485 355.999Z" fill="#263238"/>
<path opacity="0.1" d="M570.485 355.999H562.797L549.425 170.472L548.757 161.112H559.119L559.621 170.472L570.485 355.999Z" fill="white"/>
<path opacity="0.2" d="M559.621 169.971H549.425L548.757 161.112H559.119L559.621 169.971Z" fill="black"/>
<path d="M351.529 355.999H343.674L355.206 160.778H365.569L351.529 355.999Z" fill="#263238"/>
<path opacity="0.1" d="M365.569 161.112L364.901 170.472L351.529 355.999H343.674L354.705 170.472L355.206 161.112H365.569Z" fill="white"/>
<path opacity="0.2" d="M355.207 161.112H365.57L364.901 169.971H354.706L355.207 161.112Z" fill="black"/>
<path d="M256.761 355.999H249.073L235.033 160.778H245.396L256.761 355.999Z" fill="#263238"/>
<path opacity="0.1" d="M256.761 355.999H249.073L235.702 170.472L235.033 161.112H245.396L245.897 170.472L256.761 355.999Z" fill="white"/>
<path opacity="0.2" d="M245.897 169.971H235.702L235.033 161.112H245.396L245.897 169.971Z" fill="black"/>
<path d="M54.5185 355.999H46.6628L58.1956 160.778H68.5584L54.5185 355.999Z" fill="#263238"/>
<path opacity="0.1" d="M68.5584 161.112L67.8898 170.472L54.5185 355.999H46.6628L57.6942 170.472L58.1956 161.112H68.5584Z" fill="white"/>
<path opacity="0.2" d="M58.1954 161.112H68.5582L67.8896 169.971H57.694L58.1954 161.112Z" fill="black"/>
<path d="M564.466 165.626H52.8459C51.3416 165.626 50.0045 164.289 50.0045 162.784V155.932H567.307V162.784C567.307 164.456 565.97 165.626 564.466 165.626Z" fill="#407BFF"/>
<path opacity="0.6" d="M564.466 165.626H52.8459C51.3416 165.626 50.0045 164.289 50.0045 162.784V155.932H567.307V162.784C567.307 164.456 565.97 165.626 564.466 165.626Z" fill="white"/>
<path opacity="0.2" d="M567.308 155.932H50.0056V160.779H567.308V155.932Z" fill="black"/>
<path d="M572.156 157.101H45.1594C43.6551 157.101 42.4851 155.931 42.4851 154.427C42.4851 152.923 43.6551 151.753 45.1594 151.753H572.156C573.66 151.753 574.83 152.923 574.83 154.427C574.83 155.931 573.66 157.101 572.156 157.101Z" fill="#407BFF"/>
<path opacity="0.6" d="M572.156 157.101H45.1594C43.6551 157.101 42.4851 155.931 42.4851 154.427C42.4851 152.923 43.6551 151.753 45.1594 151.753H572.156C573.66 151.753 574.83 152.923 574.83 154.427C574.83 155.931 573.66 157.101 572.156 157.101Z" fill="white"/>
<path d="M516.327 342.128L529.531 341.292C530.033 341.292 530.367 341.626 530.534 341.961L531.871 352.323C531.871 353.493 531.036 354.496 530.033 354.496C525.353 354.663 523.18 354.663 517.497 354.83C513.987 354.998 506.967 355.833 501.953 355.332C497.106 354.83 497.607 349.983 499.78 349.816C504.794 349.315 511.48 345.471 514.656 342.796C514.823 342.462 515.659 342.128 516.327 342.128Z" fill="#263238"/>
<path d="M449.135 342.128L462.339 341.292C462.841 341.292 463.175 341.626 463.175 341.961L464.512 352.323C464.512 353.493 463.676 354.496 462.673 354.496C457.993 354.663 455.821 354.663 450.138 354.83C446.628 354.998 439.608 355.833 434.594 355.332C429.747 354.83 430.248 349.983 432.421 349.816C437.435 349.315 444.121 345.471 447.296 342.796C447.798 342.462 448.466 342.128 449.135 342.128Z" fill="#263238"/>
<path d="M498.61 143.23L487.746 144.901C487.746 144.901 484.069 143.731 480.224 143.23C476.38 142.895 471.867 143.23 471.867 143.23C471.867 143.23 467.02 145.068 467.02 149.748C467.02 149.748 478.386 152.757 482.899 150.918L498.777 149.748V143.23H498.61Z" fill="#EBB376"/>
<path d="M524.348 101.945C517.663 108.965 512.983 135.875 511.813 137.714C510.643 139.552 487.243 142.895 487.243 142.895C487.243 142.895 484.736 147.909 487.243 152.255C487.243 152.255 516.158 150.918 519.668 149.079C523.178 147.241 531.702 127.184 531.702 127.184C531.702 127.184 532.538 121.835 530.532 113.311C528.694 104.62 524.348 101.945 524.348 101.945Z" fill="#407BFF"/>
<path opacity="0.6" d="M524.348 101.945C517.663 108.965 512.983 135.875 511.813 137.714C510.643 139.552 487.243 142.895 487.243 142.895C487.243 142.895 484.736 147.909 487.243 152.255C487.243 152.255 516.158 150.918 519.668 149.079C523.178 147.241 531.702 127.184 531.702 127.184C531.702 127.184 532.538 121.835 530.532 113.311C528.694 104.62 524.348 101.945 524.348 101.945Z" fill="white"/>
<path d="M473.203 64.8398C473.203 64.8398 471.699 68.8512 469.86 71.1912C469.86 71.1912 471.365 72.8626 473.872 72.1941L473.203 64.8398Z" fill="#D58745"/>
<path d="M471.365 63.0011C471.532 64.1711 472.201 65.0068 473.037 65.0068C473.872 64.8397 474.374 63.8368 474.207 62.6668C474.04 61.4968 473.371 60.6611 472.535 60.6611C471.7 60.8283 471.198 61.8311 471.365 63.0011Z" fill="#2E353A"/>
<path d="M471.699 58.3213C471.699 58.3213 472.535 58.1541 473.538 58.9898" stroke="#2E353A" stroke-width="0.7247" stroke-miterlimit="10" stroke-linecap="round" stroke-linejoin="round"/>
<path d="M476.211 78.0446C476.545 78.546 476.713 79.0474 477.047 79.5488C478.885 82.3902 481.56 84.3959 484.568 85.5659C485.404 85.9002 486.072 86.0674 486.908 86.2345C491.087 87.2373 495.6 86.4016 499.277 83.7274C500.781 82.5574 502.118 81.2203 503.121 79.3817C507.299 72.1946 505.461 65.6761 503.288 54.3105C502.787 51.8034 501.951 49.6305 500.447 47.6248C495.265 40.6049 485.404 39.2678 478.384 44.4491C468.523 51.6362 471.197 68.5175 476.211 78.0446Z" fill="#EBB376"/>
<path opacity="0.2" d="M484.568 85.5652C485.404 85.8995 486.073 86.0666 486.908 86.2337C491.087 87.2366 495.6 86.4009 499.277 83.7266C497.94 81.7209 496.268 80.3838 496.268 80.3838C496.268 80.3838 489.416 81.0524 484.568 85.5652Z" fill="black"/>
<path d="M516.994 93.2544C512.815 99.6058 492.424 102.113 492.424 102.113C492.424 102.113 483.399 101.946 484.569 98.9372C489.248 96.9315 491.087 93.923 491.421 90.7473C491.588 88.9087 491.087 86.903 490.418 84.8973C490.084 83.8945 489.583 82.8916 489.249 81.8888L502.787 65.3418C499.277 83.7273 510.141 88.7416 516.994 93.2544Z" fill="#EBB376"/>
<path d="M473.037 43.7802C476.882 37.7631 480.224 38.766 480.224 38.766C482.731 33.7517 496.939 33.5846 504.293 38.4317C511.647 43.4459 514.154 52.6387 513.653 59.9929C512.984 70.69 506.131 81.7213 506.131 81.7213C497.607 84.0613 490.587 82.0556 489.919 77.7099C489.417 73.1971 484.904 69.8543 484.904 69.8543C480.726 71.1914 476.882 66.6786 476.882 66.6786C476.882 66.6786 472.202 62.5001 473.372 56.6501C475.043 50.9673 469.862 48.7945 473.037 43.7802Z" fill="#263238"/>
<path d="M486.574 67.0128C486.574 69.6871 485.571 71.6928 484.067 72.8628C482.061 74.367 479.721 71.5256 479.22 68.1828C478.718 65.1743 479.219 60.4943 481.894 60.4943C484.568 60.3272 486.741 63.67 486.574 67.0128Z" fill="#EBB376"/>
<path d="M488.245 98.9372C488.245 98.9372 491.588 84.2288 511.143 84.3959L516.157 91.583L488.245 98.9372Z" fill="#407BFF"/>
<path opacity="0.8" d="M488.245 98.9372C488.245 98.9372 491.588 84.2288 511.143 84.3959L516.157 91.583L488.245 98.9372Z" fill="white"/>
<path d="M491.589 280.787C499.111 309.201 510.811 345.805 510.811 345.805L531.536 344.301C531.536 344.301 520.338 294.827 517.329 264.574C515.491 245.855 515.658 230.31 521.006 229.14C524.516 228.305 532.539 228.472 542.902 228.639V190.029C513.819 196.046 485.071 207.245 482.898 216.27C479.555 228.973 485.071 255.716 491.589 280.787Z" fill="#FF8000"/>
<path opacity="0.2" d="M491.589 280.786C499.278 275.939 508.303 270.089 517.162 264.406C515.323 245.687 515.49 230.142 520.839 228.972C524.349 228.137 532.372 228.304 542.734 228.471V189.861C513.652 195.878 484.903 207.077 482.73 216.103C479.555 228.972 485.07 255.715 491.589 280.786Z" fill="black"/>
<path d="M503.457 178.497L498.61 163.621C498.61 163.621 495.1 136.21 477.216 101.444C477.216 101.444 498.777 86.0674 522.678 88.4074C541.064 90.2459 558.446 137.38 563.795 174.652L503.457 178.497Z" fill="#407BFF"/>
<path opacity="0.9" d="M563.628 174.819L503.457 178.497L498.443 163.621C498.443 163.621 497.774 158.941 495.936 150.918C494.598 145.403 492.593 138.383 489.584 130.36C486.576 121.836 482.397 111.974 477.049 101.444C477.049 101.444 498.61 86.0674 522.511 88.4074C540.897 90.2459 558.279 137.547 563.628 174.819Z" fill="#15234A"/>
<path d="M502.955 186.185L501.117 171.476L560.285 161.782C560.285 161.782 579.673 200.058 570.146 218.945C561.455 236.16 469.026 225.965 454.819 228.973C440.445 232.149 464.513 343.799 464.513 343.799L443.787 345.303C443.787 345.303 410.025 243.18 416.543 216.103C419.385 204.403 468.023 188.692 502.955 186.185Z" fill="#FF8000"/>
<path d="M562.288 168.468L534.876 172.145L534.041 168.133L561.452 164.122L562.288 168.468Z" fill="black"/>
<path d="M531.869 168.134L532.203 172.145L506.797 175.655V171.644L531.869 168.134Z" fill="black"/>
<path d="M505.293 171.811V175.655L501.616 176.156V172.479L505.293 171.811Z" fill="black"/>
<path opacity="0.2" d="M495.935 152.422C494.598 147.241 492.592 140.555 489.584 132.699C490.587 130.526 492.091 128.521 493.929 127.184C493.929 127.184 499.612 145.569 495.935 152.422Z" fill="black"/>
<path d="M447.965 147.408L438.772 145.904C438.772 145.904 435.095 144.734 431.251 144.233C427.407 143.898 422.894 144.233 422.894 144.233C422.894 144.233 418.047 146.071 418.047 150.751C418.047 150.751 429.412 153.76 433.925 151.921L447.464 154.93L447.965 147.408Z" fill="#EBB376"/>
<path d="M477.048 101.945C472.869 106.625 475.209 144.901 473.872 147.575C472.535 150.249 440.611 144.901 440.611 144.901L438.438 154.428C438.438 154.428 475.878 165.459 482.731 165.626C489.583 165.793 493.762 125.178 493.762 125.178C493.762 125.178 492.759 119.495 487.745 112.308C482.898 105.121 477.048 101.945 477.048 101.945Z" fill="#407BFF"/>
<path opacity="0.9" d="M477.048 101.945C472.869 106.625 475.209 144.901 473.872 147.575C472.535 150.249 440.611 144.901 440.611 144.901L438.438 154.428C438.438 154.428 475.878 165.459 482.731 165.626C489.583 165.793 493.762 125.178 493.762 125.178C493.762 125.178 492.759 119.495 487.745 112.308C482.898 105.121 477.048 101.945 477.048 101.945Z" fill="#15234A"/>
<path d="M469.862 235.491H587.028V227.97C587.028 221.619 582.014 216.604 575.662 216.604H481.227C474.876 216.604 469.862 221.619 469.862 227.97V235.491Z" fill="#407BFF"/>
<path opacity="0.4" d="M469.862 235.491H587.028V227.97C587.028 221.619 582.014 216.604 575.662 216.604H481.227C474.876 216.604 469.862 221.619 469.862 227.97V235.491Z" fill="white"/>
<path d="M548.586 170.139H484.07C480.727 170.139 478.22 173.816 479.055 177.493L490.588 235.491H493.262L483.401 184.68C482.732 181.003 485.072 177.326 488.415 177.326H547.249L548.586 170.139Z" fill="#263238"/>
<path d="M521.008 237.497V286.47C521.008 287.974 522.346 289.311 523.85 289.311H535.884C537.388 289.311 538.725 287.974 538.725 286.47V237.497H521.008Z" fill="#263238"/>
<path d="M592.541 356C595.403 356 597.723 353.681 597.723 350.819C597.723 347.957 595.403 345.638 592.541 345.638C589.68 345.638 587.36 347.957 587.36 350.819C587.36 353.681 589.68 356 592.541 356Z" fill="#263238"/>
<path opacity="0.2" d="M589.867 350.819C589.867 349.315 591.037 348.145 592.541 348.145C594.045 348.145 595.215 349.315 595.215 350.819C595.215 352.323 594.045 353.493 592.541 353.493C591.037 353.493 589.867 352.156 589.867 350.819Z" fill="white"/>
<path d="M461.838 350.819C461.838 347.978 464.178 345.638 467.02 345.638C469.861 345.638 472.201 347.978 472.201 350.819C472.201 353.66 469.861 356 467.02 356C464.178 356 461.838 353.66 461.838 350.819Z" fill="#263238"/>
<path opacity="0.2" d="M464.512 350.819C464.512 349.315 465.682 348.145 467.187 348.145C468.691 348.145 469.861 349.315 469.861 350.819C469.861 352.323 468.691 353.493 467.187 353.493C465.682 353.326 464.512 352.156 464.512 350.819Z" fill="white"/>
<path d="M525.521 327.92V271.928H534.212V327.92C567.808 328.756 588.199 340.456 592.21 343.13C592.712 343.464 593.046 343.966 593.046 344.467V349.147C593.046 349.983 592.377 350.818 591.375 350.818C590.706 350.818 590.205 350.484 589.87 349.983L587.865 346.473C587.865 346.473 564.799 338.283 534.212 337.614V346.807C534.212 347.977 533.209 348.98 532.039 348.98H527.694C526.524 348.98 525.521 347.977 525.521 346.807V337.614C494.934 338.283 471.868 346.473 471.868 346.473L469.863 349.983C469.529 350.484 469.027 350.818 468.359 350.818C467.523 350.818 466.687 350.15 466.687 349.147V344.467C466.687 343.966 467.021 343.297 467.523 343.13C471.534 340.456 491.925 328.756 525.521 327.92Z" fill="#263238"/>
<path d="M526.87 355.89H532.553V345.527H526.87V355.89Z" fill="#263238"/>
<path opacity="0.2" d="M538.725 237.497H521.008V257.888H538.725V237.497Z" fill="black"/>
<path d="M466.687 232.483V238.333C466.687 240.004 467.857 241.342 469.194 241.342H587.53C589.035 241.342 590.037 240.004 590.037 238.333V232.483C590.037 230.812 588.867 229.475 587.53 229.475H469.194C467.857 229.475 466.687 230.812 466.687 232.483Z" fill="#263238"/>
<path d="M521.175 235.491H590.205C590.205 235.491 612.1 199.389 612.1 139.886V118.158C612.1 109.132 604.746 101.945 595.553 101.945H566.304C557.445 101.945 550.091 108.965 549.757 117.824C549.088 148.243 544.408 214.766 521.175 235.491Z" fill="#263238"/>
<path opacity="0.2" d="M536.384 235.491H587.195C589.201 235.491 591.039 234.488 591.875 232.65C596.889 223.123 612.266 189.695 612.266 139.886V118.158C612.266 109.132 604.912 101.945 595.719 101.945H570.481C561.622 101.945 554.268 108.965 553.934 117.824C553.098 145.235 549.421 201.227 532.038 227.636C529.698 230.978 532.038 235.491 536.384 235.491Z" fill="white"/>
<path opacity="0.2" d="M466.687 232.482V238.332C466.687 240.004 467.857 241.341 469.194 241.341H522.178C524.017 241.341 525.688 239.502 525.688 237.33V233.652C525.688 231.48 524.184 229.641 522.178 229.641H469.194C467.857 229.474 466.687 230.811 466.687 232.482Z" fill="black"/>
<path d="M151.459 107.461L146.444 108.631L145.274 104.62C145.274 104.62 143.77 105.623 141.764 104.62C141.263 104.286 140.427 103.784 139.592 103.283C137.252 101.778 134.577 99.7728 134.577 99.7728L138.422 91.75C138.422 91.75 140.093 92.4186 142.266 93.4214C145.274 94.7585 148.951 96.43 149.62 97.4328C150.79 99.1042 150.121 101.946 150.121 101.946L151.459 107.461Z" fill="#E4897B"/>
<path opacity="0.2" d="M139.425 103.283C137.086 101.778 134.411 99.7728 134.411 99.7728L138.255 91.75C138.255 91.75 139.927 92.4186 142.1 93.4214C142.267 95.7614 142.1 99.7728 139.425 103.283Z" fill="black"/>
<path d="M221.328 291.65L212.971 294.826L206.953 283.46L201.438 273.098L210.798 267.582L216.313 280.285L221.328 291.65Z" fill="#E4897B"/>
<path opacity="0.2" d="M216.313 280.285L206.953 283.46L201.438 273.098L210.798 267.582L216.313 280.285Z" fill="black"/>
<path d="M214.642 274.101L203.276 280.285C203.276 280.285 160.154 204.57 153.468 205.071C146.782 205.74 83.9371 245.854 64.7159 230.978C45.4946 216.27 64.2145 171.643 64.2145 171.643C64.2145 171.643 103.827 160.277 108.173 168.969C109.008 170.64 110.178 173.983 111.014 176.992C111.85 179.666 112.518 182.006 112.518 182.006C113.688 181.504 152.967 165.459 170.349 173.983C188.233 182.842 214.642 274.101 214.642 274.101Z" fill="#263238"/>
<path d="M214.642 274.101L203.276 280.285C203.276 280.285 160.154 204.57 153.468 205.071C146.782 205.74 83.9371 245.854 64.7159 230.978C45.4946 216.27 64.2145 171.643 64.2145 171.643C64.2145 171.643 103.827 160.277 108.173 168.969C109.008 170.64 110.178 173.983 111.014 176.992C111.85 179.666 112.518 182.006 112.518 182.006C113.688 181.504 152.967 165.459 170.349 173.983C188.233 182.842 214.642 274.101 214.642 274.101Z" fill="#476CD2"/>
<path d="M152.632 335.943L143.606 334.94V322.237V310.705L154.471 310.203L153.468 323.742L152.632 335.943Z" fill="#E4897B"/>
<path opacity="0.2" d="M153.468 324.076L143.606 322.404V310.705L154.471 310.203L153.468 324.076Z" fill="black"/>
<path d="M197.592 276.441L214.306 268.084L215.977 275.104L203.442 281.622L197.592 276.441Z" fill="#407BFF"/>
<path d="M94.4659 231.145C94.4659 231.145 97.1402 230.811 139.427 222.955C139.427 222.955 140.43 276.942 142.436 317.056L155.473 317.557C155.473 317.557 174.025 228.304 171.852 214.933C169.68 201.561 153.634 199.556 153.634 199.556C153.634 199.556 125.554 221.117 94.4659 231.145Z" fill="#263238"/>
<path opacity="0.4" d="M94.4659 231.145C94.4659 231.145 97.1402 230.811 139.427 222.955C139.427 222.955 140.43 276.942 142.436 317.056L155.473 317.557C155.473 317.557 174.025 228.304 171.852 214.933C169.68 201.561 153.634 199.556 153.634 199.556C153.634 199.556 125.554 221.117 94.4659 231.145Z" fill="white"/>
<path d="M94.4659 231.145C94.4659 231.145 97.1402 230.811 139.427 222.955C139.427 222.955 140.43 276.942 142.436 317.056L155.473 317.557C155.473 317.557 174.025 228.304 171.852 214.933C169.68 201.561 153.634 199.556 153.634 199.556C153.634 199.556 125.554 221.117 94.4659 231.145Z" fill="#4265C7"/>
<path d="M139.928 313.546L157.645 313.045L155.138 320.399L140.764 320.566L139.928 313.546Z" fill="#407BFF"/>
<path d="M238.041 306.527C236.703 306.025 235.199 305.858 233.695 306.025C233.695 306.025 228.346 303.685 221.661 292.988L216.145 293.657C214.139 293.991 212.635 295.328 212.301 297.334C212.301 297.668 212.301 297.835 212.301 298.17C212.468 299.507 212.802 300.844 213.304 302.181C214.306 306.36 218.318 314.884 218.318 314.884L219.154 314.55L216.312 306.527C215.309 303.852 218.652 306.025 220.491 308.7C222.329 311.374 224.836 313.881 230.686 311.708C237.706 308.867 240.381 307.362 238.041 306.527Z" fill="#263238"/>
<path d="M220.323 290.146C220.323 290.146 229.349 303.852 233.694 306.025C233.694 306.025 228.68 310.036 222.162 303.685C213.637 295.495 212.3 298.336 212.3 298.336C212.3 298.336 212.133 295.161 212.467 293.489C213.136 290.146 220.323 290.146 220.323 290.146Z" fill="#E4897B"/>
<path d="M166.003 351.822C164.666 351.153 163.329 350.485 161.992 350.318C161.992 350.318 157.312 346.808 153.468 334.774L147.785 334.105C145.779 333.938 143.941 334.941 143.105 336.779C142.938 336.946 142.938 337.281 142.938 337.615C142.938 338.952 142.938 340.289 142.938 341.626C142.938 345.805 144.776 355.165 144.776 355.165L145.779 354.998L144.943 346.473C144.609 343.632 147.283 346.641 148.453 349.649C149.623 352.658 151.295 355.833 157.646 354.998C165.168 353.995 168.176 353.326 166.003 351.822Z" fill="#263238"/>
<path d="M152.631 331.597C152.631 331.597 158.146 346.974 161.823 350.15C161.823 350.15 156.141 352.824 151.126 345.136C144.775 335.107 142.769 337.447 142.769 337.447C142.769 337.447 143.438 334.272 144.106 332.767C145.778 330.093 152.631 331.597 152.631 331.597Z" fill="#E4897B"/>
<path d="M142.437 75.0352C142.437 75.0352 139.428 75.0352 137.924 77.208" stroke="#263238" stroke-width="0.5" stroke-miterlimit="10" stroke-linecap="round" stroke-linejoin="round"/>
<path d="M141.1 82.3896C141.1 82.3896 142.938 85.0639 144.777 86.5682C144.777 86.5682 143.941 88.0725 142.103 88.0725L141.1 82.3896Z" fill="#DE5753"/>
<path d="M142.607 79.2142C142.774 80.0499 142.272 80.8856 141.771 80.8856C141.102 80.8856 140.601 80.3842 140.434 79.3814C140.267 78.5457 140.768 77.71 141.269 77.71C141.938 77.71 142.607 78.3785 142.607 79.2142Z" fill="#263238"/>
<path d="M141.103 77.8769L142.941 76.874C142.941 76.874 142.273 78.7126 141.103 77.8769Z" fill="#263238"/>
<path d="M119.538 100.608C119.705 100.776 119.705 100.776 119.873 100.776C121.544 101.946 123.55 102.948 125.722 103.283C131.74 104.453 135.918 103.283 138.425 100.441C141.935 96.0956 142.604 88.9085 141.601 80.2171C141.099 76.2057 140.431 72.6958 139.261 70.0215V69.8544C139.261 69.6872 139.094 69.5201 139.094 69.5201C137.255 65.843 134.414 63.503 129.901 62.6673C128.397 62.333 126.725 62.333 124.72 62.333C107.671 63.1687 106 91.4156 119.538 100.608Z" fill="#E4897B"/>
<path opacity="0.2" d="M119.872 100.776C121.544 101.946 123.549 102.614 125.722 103.116C131.739 104.286 135.918 102.949 138.425 100.107C135.416 100.943 131.572 101.277 127.561 99.7729C125.054 98.77 122.379 99.4386 119.872 100.776Z" fill="black"/>
<path d="M139.262 70.0214C139.262 70.0214 140.766 81.8884 129.734 87.5712C129.734 87.5712 125.556 100.274 118.369 100.775C108.675 101.444 99.3147 88.0727 101.989 73.6985C105.499 55.1458 133.244 52.3044 139.262 70.0214Z" fill="#263238"/>
<path d="M135.25 83.8944C135.082 82.0558 133.578 79.0473 130.57 79.5487C127.561 80.2173 126.224 87.5715 133.745 88.9086C134.915 89.0758 135.584 87.7387 135.25 83.8944Z" fill="#E4897B"/>
<path d="M117.867 58.3214C117.867 58.3214 129.065 54.8115 135.584 59.1571C143.272 64.1714 146.281 69.5199 137.924 78.5455C137.924 78.5455 118.535 73.197 112.184 74.8684C105.832 76.5398 101.487 78.5455 101.487 78.5455C99.6482 66.0099 111.348 56.1486 117.867 58.3214Z" fill="#263238"/>
<path d="M128.565 102.113C128.565 102.113 120.208 106.124 122.715 115.15L101.321 106.291C101.321 106.291 113.021 105.623 112.352 97.4327C112.352 97.4327 124.553 92.7527 128.565 102.113Z" fill="#E4897B"/>
<path d="M120.71 60.6615C120.71 60.6615 114.359 42.276 99.9846 45.4517C85.6105 48.6274 86.6133 64.1715 96.9761 68.8515C107.339 73.6986 121.713 71.86 120.71 60.6615Z" fill="#263238"/>
<path d="M100.987 68.6839C100.987 68.6839 88.2838 68.6839 89.7881 79.5481C89.7881 79.5481 90.9581 76.0381 93.7995 74.5338C93.7995 74.5338 89.9552 77.5424 93.7995 82.5566C93.7995 82.5566 92.2952 79.2138 97.4766 76.8738C102.658 74.5338 117.199 74.701 114.525 67.681C111.851 60.494 100.987 68.6839 100.987 68.6839Z" fill="#263238"/>
<path d="M118.536 60.6615C118.536 60.6615 115.527 38.4317 97.4758 42.9445" stroke="#263238" stroke-width="0.5" stroke-miterlimit="10" stroke-linecap="round" stroke-linejoin="round"/>
<path d="M111.347 93.4216C111.347 93.4216 98.3098 86.736 100.483 76.2061" stroke="#263238" stroke-width="0.5" stroke-miterlimit="10" stroke-linecap="round" stroke-linejoin="round"/>
<path d="M99.6482 68.6839C99.6482 68.6839 88.1154 68.5167 87.1125 76.3724" stroke="#263238" stroke-width="0.5" stroke-miterlimit="10" stroke-linecap="round" stroke-linejoin="round"/>
<path d="M102.824 105.789L108.006 102.112C108.006 102.112 125.054 104.452 125.221 115.316C125.388 126.181 102.824 105.789 102.824 105.789Z" fill="#F87D02"/>
<path d="M99.648 105.789C99.648 105.789 112.518 103.282 130.402 115.316C130.402 115.316 136.419 141.39 111.181 176.991L63.2112 173.983C63.2112 173.983 76.0811 121.5 99.648 105.789Z" fill="#263238"/>
<path opacity="0.3" d="M112.518 182.006L96.1377 190.196C96.1377 190.196 101.486 181.171 111.013 176.992C111.849 179.666 112.518 182.006 112.518 182.006Z" fill="black"/>
<path d="M128.898 139.385C128.062 142.727 127.059 146.404 125.555 150.249C122.546 158.272 118.033 167.297 111.013 176.991L63.0438 173.983C63.0438 173.983 76.0809 121.668 99.4806 105.789C99.4806 105.789 112.351 103.282 130.235 115.316C130.402 115.316 132.407 124.509 128.898 139.385Z" fill="#FF8000"/>
<path opacity="0.2" d="M128.896 139.385C128.061 142.728 127.058 146.405 125.554 150.249C125.052 144.566 125.721 138.382 125.721 138.382C126.891 138.549 127.894 138.883 128.896 139.385Z" fill="black"/>
<path d="M130.402 115.316C130.402 115.316 144.442 135.541 148.119 137.546C151.796 139.552 144.776 105.789 144.776 105.789L151.629 104.285C151.629 104.285 163.663 144.733 155.64 151.586C147.617 158.606 125.722 138.382 125.722 138.382C125.722 138.382 124.886 130.526 125.722 124.509C126.39 118.659 130.402 115.316 130.402 115.316Z" fill="#263238"/>
<path d="M130.402 115.316C130.402 115.316 144.442 135.541 148.119 137.546C151.796 139.552 144.776 105.789 144.776 105.789L151.629 104.285C151.629 104.285 163.663 144.733 155.64 151.586C147.617 158.606 125.722 138.382 125.722 138.382C125.722 138.382 124.886 130.526 125.722 124.509C126.39 118.659 130.402 115.316 130.402 115.316Z" fill="#FF8000"/>
<path d="M142.267 235.491H25.1013V227.97C25.1013 221.619 30.1156 216.604 36.4669 216.604H130.902C137.253 216.604 142.267 221.619 142.267 227.97V235.491Z" fill="#407BFF"/>
<path opacity="0.4" d="M142.267 235.491H25.1013V227.97C25.1013 221.619 30.1156 216.604 36.4669 216.604H130.902C137.253 216.604 142.267 221.619 142.267 227.97V235.491Z" fill="white"/>
<path d="M63.5446 170.139H128.061C131.404 170.139 133.911 173.816 133.075 177.493L121.543 235.491H118.868L128.73 184.68C129.398 181.003 127.058 177.326 123.715 177.326H64.8817L63.5446 170.139Z" fill="#263238"/>
<path d="M91.289 237.497V286.47C91.289 287.974 89.9519 289.311 88.4476 289.311H76.4134C74.9092 289.311 73.572 287.974 73.572 286.47V237.497H91.289Z" fill="#263238"/>
<path d="M24.9366 350.819C24.9366 347.978 22.5966 345.638 19.7552 345.638C16.9138 345.638 14.5739 347.978 14.5739 350.819C14.5739 353.66 16.9138 356 19.7552 356C22.5966 356 24.9366 353.66 24.9366 350.819Z" fill="#263238"/>
<path opacity="0.2" d="M22.2632 350.819C22.2632 349.315 21.0932 348.145 19.5889 348.145C18.0847 348.145 16.9147 349.315 16.9147 350.819C16.9147 352.323 18.0847 353.493 19.5889 353.493C21.0932 353.326 22.2632 352.156 22.2632 350.819Z" fill="white"/>
<path d="M150.291 350.819C150.291 347.978 147.951 345.638 145.11 345.638C142.269 345.638 139.929 347.978 139.929 350.819C139.929 353.66 142.269 356 145.11 356C147.951 356 150.291 353.66 150.291 350.819Z" fill="#263238"/>
<path opacity="0.2" d="M145.11 353.493C146.587 353.493 147.784 352.296 147.784 350.819C147.784 349.342 146.587 348.145 145.11 348.145C143.633 348.145 142.436 349.342 142.436 350.819C142.436 352.296 143.633 353.493 145.11 353.493Z" fill="white"/>
<path d="M86.6106 327.92V271.928H77.9192V327.92C44.3238 328.756 23.9325 340.456 19.9212 343.13C19.4197 343.464 19.0854 343.966 19.0854 344.467V349.147C19.0854 349.983 19.754 350.818 20.7569 350.818C21.4254 350.818 21.9269 350.484 22.2611 349.983L24.2668 346.473C24.2668 346.473 47.3323 338.283 77.9192 337.614V346.807C77.9192 347.977 78.9221 348.98 80.0921 348.98H84.4377C85.6077 348.98 86.6106 347.977 86.6106 346.807V337.614C117.197 338.283 140.263 346.473 140.263 346.473L142.269 349.983C142.603 350.484 143.104 350.818 143.773 350.818C144.609 350.818 145.444 350.15 145.444 349.147V344.467C145.444 343.966 145.11 343.297 144.609 343.13C140.597 340.456 120.206 328.756 86.6106 327.92Z" fill="#263238"/>
<path d="M85.2724 345.638H79.5896V356H85.2724V345.638Z" fill="#263238"/>
<path opacity="0.2" d="M91.289 237.497H73.572V257.888H91.289V237.497Z" fill="black"/>
<path d="M145.445 232.483V238.333C145.445 240.004 144.275 241.342 142.938 241.342H24.6016C23.0973 241.342 22.0945 240.004 22.0945 238.333V232.483C22.0945 230.812 23.2645 229.475 24.6016 229.475H142.938C144.275 229.475 145.445 230.812 145.445 232.483Z" fill="#263238"/>
<path d="M90.9549 235.491H21.9256C21.9256 235.491 0.0300293 199.389 0.0300293 139.886V118.158C0.0300293 109.132 7.38425 101.945 16.577 101.945H45.8268C54.6853 101.945 62.0395 108.965 62.3738 117.824C63.2095 148.243 67.7223 214.766 90.9549 235.491Z" fill="#263238"/>
<path opacity="0.2" d="M75.9122 235.491H25.1012C23.0955 235.491 21.257 234.488 20.4213 232.65C15.407 223.29 0.0300293 189.862 0.0300293 139.886V118.158C0.0300293 109.132 7.38425 101.945 16.577 101.945H41.8154C50.6739 101.945 58.0281 108.965 58.3624 117.824C59.1981 145.235 62.8752 201.227 80.2579 227.636C82.4307 230.978 80.0908 235.491 75.9122 235.491Z" fill="white"/>
<path opacity="0.2" d="M145.444 232.482V238.332C145.444 240.004 144.274 241.341 142.937 241.341H89.786C87.9474 241.341 86.276 239.502 86.276 237.33V233.652C86.276 231.48 87.7803 229.641 89.786 229.641H142.77C144.274 229.474 145.444 230.811 145.444 232.482Z" fill="black"/>
</svg>
