<svg width="621" height="517" viewBox="0 0 621 517" fill="none" xmlns="http://www.w3.org/2000/svg">
<path d="M141 52.0003C-8.00021 128.5 8.83311 359.667 39.4998 478H605.5C630 387.5 614.5 157 518.5 67.5002C422.5 -21.9998 246 -1.90902 141 52.0003Z" fill="#F2F8FF"/>
<path d="M621 482.38C621 494.069 490.639 503.663 329.759 503.663C168.879 503.663 38.5186 494.179 38.5186 482.38C38.5186 470.691 168.879 461.097 329.759 461.097C490.639 461.097 621 470.58 621 482.38Z" fill="#D4DEE4"/>
<path d="M90.5297 426.641C90.5297 426.641 80.8644 433.838 78.9778 433.399C77.0913 432.959 86.046 425.633 86.046 425.633C82.6734 424.018 72.2069 425.025 72.2069 425.025C72.2069 425.025 68.7181 436.28 66.9995 435.389C65.281 434.497 70.5917 425.581 70.5917 425.581C66.8445 425.349 62.2315 428.14 62.2315 428.14C55.9257 433.114 62.645 440.945 62.645 440.945C62.645 440.945 61.3528 444.821 57.373 448.349C57.373 448.349 51.6875 452.548 51.2998 460.056L52.3335 460.146C52.3335 460.146 53.9746 453.156 56.9336 449.848C57.0499 449.732 57.2179 449.551 57.4246 449.344C57.9027 448.892 58.2516 448.556 58.4713 448.31C59.9443 446.889 61.9989 445.08 62.9809 444.899C62.9809 444.899 62.9292 444.718 62.9422 444.408C62.9551 444.563 62.968 444.731 62.9809 444.899C63.3169 448.853 71.0052 452.316 75.7216 453.027C80.4509 453.737 78.9908 451.799 77.3626 448.917C75.7345 446.036 70.5788 444.744 69.4029 443.426C68.2271 442.095 70.6564 442.095 73.4991 443.4C76.3419 444.705 76.7424 448.168 81.3037 450.352C85.8651 452.536 92.7393 444.963 92.7393 444.963C89.0954 444.783 83.901 440.829 84.0948 439.614C84.2886 438.399 92.9202 441.694 94.3933 441.862C95.8664 442.017 99.226 440.182 99.7428 434.239C100.273 428.295 90.5297 426.641 90.5297 426.641Z" fill="#FF8000"/>
<path d="M39.1668 431.112C39.1668 431.112 49.853 425.129 44.8653 417.014C44.8653 417.014 40.8725 412.027 36.6084 410.747C36.6084 410.747 38.8826 422.855 36.6084 423.139C34.3342 423.423 35.0449 409.468 35.0449 409.468C35.0449 409.468 23.7901 404.054 19.3839 404.48C19.3839 404.48 26.3615 416.304 24.0873 416.019C21.8132 415.735 13.9697 403.77 13.9697 403.77C13.9697 403.77 2.43077 401.638 0.582979 408.473C-1.26481 415.309 1.72008 418.733 3.42573 419.159C5.13138 419.586 16.1018 419.444 15.8175 420.865C15.5333 422.286 8.12919 424.574 3.99428 423.281C3.99428 423.281 8.5556 434.536 14.5383 433.967C20.521 433.399 22.3688 429.69 26.0773 429.406C29.7858 429.122 32.4864 430.117 30.6386 431.112C28.7908 432.107 22.5238 431.435 19.526 433.98C16.5411 436.526 14.1119 438.089 19.6682 439.227C25.2244 440.364 35.187 439.653 37.1898 435.376C39.1668 431.112 39.1668 431.112 39.1668 431.112Z" fill="#FF8000"/>
<path d="M42.0093 441.501C39.0244 435.945 39.1666 431.099 39.1666 431.099C35.7423 420.271 5.8418 410.593 5.8418 410.593C43.87 425.969 37.1767 435.376 37.1767 435.376C38.1975 435.971 39.7351 438.826 40.8076 441.01C40.9627 441.385 41.1953 441.902 41.5571 442.6C41.6992 442.91 41.8155 443.168 41.893 443.349C43.8571 448.246 42.8105 456.71 42.8105 456.71L43.9992 457.033C46.6223 448.505 42.0093 441.501 42.0093 441.501Z" fill="#FF8000"/>
<path d="M56.1593 422.855C56.1593 422.855 42.0748 414.973 48.6519 404.274C48.6519 404.274 53.9109 397.697 59.5448 396.017C59.5448 396.017 56.5469 411.975 59.5448 412.35C62.5426 412.725 61.6122 394.324 61.6122 394.324C61.6122 394.324 76.4462 387.192 82.2609 387.747C82.2609 387.747 73.0607 403.331 76.0715 402.956C79.0693 402.581 89.4066 386.804 89.4066 386.804C89.4066 386.804 104.615 383.987 107.057 392.993C109.5 402 105.559 406.509 103.297 407.078C101.049 407.646 86.5896 407.453 86.9644 409.326C87.3391 411.2 97.1078 414.211 102.548 412.518C102.548 412.518 96.5393 427.352 88.6571 426.602C80.7749 425.853 78.3328 420.969 73.4484 420.594C68.564 420.219 64.9977 421.537 67.4398 422.842C69.882 424.16 78.1389 423.269 82.08 426.628C86.0211 429.975 89.2127 432.042 81.8862 433.541C74.5596 435.04 61.4184 434.11 58.7953 428.476C56.1593 422.855 56.1593 422.855 56.1593 422.855Z" fill="#476CD2"/>
<path d="M100.092 395.823C100.092 395.823 60.6681 408.59 56.1584 422.855C56.1584 422.855 56.3523 429.238 52.3983 436.565C52.3983 436.565 46.3122 445.804 49.7881 457.033L51.3516 456.606C51.3516 456.606 49.9819 445.455 52.5662 438.994C52.6696 438.762 52.8247 438.413 53.0185 437.999C53.4837 437.082 53.8067 436.397 54.0005 435.906C55.409 433.024 57.4377 429.264 58.7815 428.476C58.7815 428.489 49.9561 416.097 100.092 395.823Z" fill="#476CD2"/>
<path d="M28.1067 453.828C28.1067 469.063 40.4597 481.416 55.6943 481.416C70.9288 481.416 83.2819 469.063 83.2819 453.828H28.1067Z" fill="#343854"/>
<path d="M62.4647 481.196C61.3405 481.338 60.2034 481.403 59.0405 481.403C43.8059 481.403 31.4658 469.05 31.4658 453.815H38.3143C38.3143 467.9 48.8583 479.504 62.4647 481.196Z" fill="#3F4468"/>
<path d="M80.245 479.71H31.1171C29.2435 479.71 27.7188 481.235 27.7188 483.108H83.6434C83.6434 481.235 82.1186 479.71 80.245 479.71Z" fill="#343854"/>
<path opacity="0.2" d="M83.462 454.668H27.6149C27.3823 454.668 27.1885 454.474 27.1885 454.242C27.1885 454.009 27.3823 453.815 27.6149 453.815H83.462C83.6946 453.815 83.8884 454.009 83.8884 454.242C83.8884 454.474 83.6946 454.668 83.462 454.668Z" fill="#D9E9FE"/>
<path d="M226.819 355.019H214.945V446.087H226.819V355.019Z" fill="#A9B6DA"/>
<path d="M228.612 446.871H213.266V433.093V422.004H228.612V446.871Z" fill="#8E99BA"/>
<path d="M156.474 463.338L213.266 433.094V446.872L172.604 463.338V466.362H156.474V463.338Z" fill="#8E99BA"/>
<path d="M285.404 463.338L228.612 433.094V446.872L269.274 463.338V466.362H285.404V463.338Z" fill="#8E99BA"/>
<path d="M215.73 433.094V466.362H211.922V468.715H228.612V466.362H225.139L226.26 433.094H215.73Z" fill="#8E99BA"/>
<path d="M228.835 349.866H213.489V368.573H228.835V349.866Z" fill="#303030"/>
<path d="M181.676 256.333L162.857 266.75L178.092 335.64L185.485 334.296L176.747 270.335L186.941 265.854L181.676 256.333Z" fill="#9FACD0"/>
<path d="M251.91 256.333L271.737 271.903L268.376 337.32L260.423 335.64L263.224 279.296L247.318 268.655L251.91 256.333Z" fill="#9FACD0"/>
<path d="M245.749 303.939H189.405L173.947 208.054C171.147 190.804 184.477 175.233 201.951 175.233H233.428C250.902 175.233 264.232 190.804 261.431 208.054L245.749 303.939Z" fill="#0089A9"/>
<path d="M275.321 342.473H169.803C169.803 336.648 174.507 332.056 180.22 332.056H264.792C270.617 332.056 275.321 336.76 275.321 342.473Z" fill="#9FACD0"/>
<path d="M250.677 186.435L255.941 182.85C255.941 182.85 242.163 160.111 243.508 140.509C244.292 130.203 227.265 114.969 222.785 117.321C222.561 117.209 207.775 117.657 206.43 151.374L203.294 190.916L219.312 205.03C219.312 205.03 229.394 187.779 242.163 195.396C254.933 203.013 250.117 199.765 250.117 199.765C250.117 199.765 250.677 190.019 250.677 186.435Z" fill="black"/>
<path d="M192.989 187.331C192.989 187.331 192.877 224.968 196.686 232.921C200.495 240.874 198.814 288.481 198.814 288.481L242.836 289.825C242.836 289.825 248.437 245.467 248.437 233.369C248.437 221.271 252.918 187.219 252.918 187.219C252.918 187.219 222.898 179.49 192.989 187.331Z" fill="#FF8000"/>
<path d="M235.891 160.559C236.563 161.231 233.875 179.266 236.451 184.642C236.451 184.642 229.394 223.624 224.689 224.184C220.545 224.632 218.305 191.587 217.52 187.779C216.4 182.738 218.865 157.311 218.865 157.311L235.891 160.559Z" fill="#FFB17C"/>
<path d="M235.666 168.4C229.393 174.113 223.121 171.424 218.304 164.255C218.416 160.671 218.864 157.31 218.864 157.198L235.89 160.559C236.114 160.783 235.89 164.143 235.666 168.4Z" fill="#F8AA77"/>
<path d="M233.426 118.666C233.426 118.666 241.156 120.122 242.052 126.731C242.948 133.34 244.292 138.941 242.948 146.67C241.604 154.399 237.011 164.704 229.506 166.384C221.889 168.065 214.048 155.519 214.048 148.686C214.048 141.853 211.247 130.427 216.4 123.37C221.553 116.426 233.426 118.666 233.426 118.666Z" fill="#FFBA8C"/>
<path d="M233.426 118.665C233.426 118.665 241.155 120.121 242.051 126.73C242.835 132.779 244.068 137.82 243.283 144.541C242.051 143.645 240.259 142.861 237.795 142.077C230.962 139.836 224.017 129.419 223.009 121.578C222.897 114.969 233.426 118.665 233.426 118.665Z" fill="#FFBA8C"/>
<path d="M204.301 285.904L196.012 289.825C196.012 289.825 186.603 300.242 184.587 318.613C182.458 336.983 207.438 345.945 207.438 345.945L256.613 342.472C256.613 342.472 274.759 292.625 244.627 286.576C215.615 280.864 204.301 285.904 204.301 285.904Z" fill="#15234A"/>
<path d="M232.082 313.349C232.082 313.349 232.306 322.086 232.866 322.198C237.011 323.878 255.158 321.75 257.062 332.167C259.302 343.705 222.561 427.941 225.025 440.374C227.49 452.808 230.738 463.674 232.754 465.578C234.771 467.594 234.771 469.274 233.09 470.955C231.41 472.635 224.017 470.731 221.889 468.602C219.761 466.474 217.296 450.456 213.6 446.759C209.903 443.063 208.447 440.71 212.704 431.861C217.072 423.012 228.274 354.57 229.73 347.401C231.074 340.344 228.834 337.096 228.834 337.096L211.695 326.23L232.082 313.349Z" fill="#FAAB77"/>
<path d="M245.86 305.732C245.86 305.732 239.475 301.363 226.594 305.732C213.712 310.1 205.087 320.854 203.742 325.894C202.398 330.935 196.685 428.501 188.956 444.407C181.339 460.313 180.891 461.321 177.531 464.682C174.17 468.042 175.739 476.331 177.531 478.124C179.323 479.916 193.437 476.219 195.117 470.731C196.685 465.13 200.158 452.248 201.614 448.328C202.958 444.407 212.816 407.218 222.113 389.631C231.41 372.045 234.435 333.175 234.435 329.927C234.435 326.679 250.789 325.446 250.789 325.446C250.789 325.446 254.373 307.636 245.86 305.732Z" fill="#FFB17C"/>
<path d="M252.805 187.219C252.805 187.219 258.741 190.691 259.638 195.06C262.998 212.758 266.022 257.677 264.566 268.99C262.886 283.216 257.285 283.216 257.285 283.216L191.084 275.263L193.884 257.565C193.884 257.565 238.915 260.365 243.507 260.365C247.988 260.365 248.324 226.2 248.324 226.2L252.805 187.219Z" fill="#F97C00"/>
<path d="M192.989 187.331C192.989 187.331 177.307 187.219 173.834 207.27C170.362 227.433 172.49 283.216 179.771 283.216C187.052 283.216 227.266 259.917 232.867 259.917C231.41 259.581 230.29 258.349 229.954 256.893L228.05 246.139C228.05 246.139 196.798 246.475 191.197 252.076C191.197 252.076 197.134 230.233 197.134 222.28C197.022 214.215 202.734 187.331 192.989 187.331Z" fill="#F97C00"/>
<path d="M246.532 252.524C246.532 252.524 228.946 246.699 228.498 249.388C227.266 256.669 231.298 260.029 231.298 260.029C231.298 260.029 243.172 261.821 245.076 259.917C247.092 258.013 246.532 252.524 246.532 252.524Z" fill="#FC7575"/>
<path d="M183.356 471.851C181.675 471.851 180.443 465.466 179.883 461.993C179.211 462.889 178.427 463.673 177.531 464.57C174.17 467.93 175.739 476.219 177.531 478.011C179.323 479.804 193.437 476.107 195.117 470.618C195.341 469.834 195.565 468.938 195.901 467.818C192.317 469.274 185.148 471.851 183.356 471.851Z" fill="#476CD2"/>
<path d="M213.263 429.957C213.263 429.957 208.11 438.47 208.11 442.503C208.11 446.535 210.687 469.05 210.687 469.05L214.159 469.162C214.159 469.162 211.695 453.704 213.823 453.144C215.951 452.584 219.536 473.643 219.536 473.643L237.234 474.875C237.234 474.875 237.57 469.05 232.082 464.906C226.705 460.761 226.369 462.105 223.793 453.256C221.104 444.295 213.263 429.957 213.263 429.957Z" fill="#476CD2"/>
<path d="M209.455 329.702C209.455 329.702 209.007 335.639 210.799 337.432C212.591 339.224 221.105 338.104 221.105 333.623C221.105 329.03 212.031 327.014 209.455 329.702Z" fill="#FFB17C"/>
<path d="M200.606 248.492C200.606 248.492 199.71 239.755 198.59 238.522C197.47 237.29 188.06 225.641 186.94 226.985C185.82 228.217 193.885 237.514 193.885 237.514C193.885 237.514 184.252 228.441 183.692 230.569C183.132 232.586 192.541 241.323 192.541 241.323C192.541 241.323 182.684 233.818 182.684 235.386C182.684 235.386 191.869 245.019 192.205 245.355C192.541 245.691 193.325 250.508 193.325 250.508L200.606 248.492Z" fill="#FC7575"/>
<path d="M193.325 228.104C193.325 228.104 197.918 230.233 197.918 232.025C197.918 233.705 199.262 241.77 199.262 241.77L195.342 240.09L196.126 232.809C196.126 232.809 191.757 228.104 193.325 228.104Z" fill="#FC7575"/>
<path d="M226.594 113.065C220.993 113.737 212.032 112.28 207.775 121.578C205.311 126.842 200.27 136.924 200.27 154.846C200.27 181.618 174.507 193.38 174.507 193.38L185.82 198.868L192.541 193.38L187.949 203.237L206.431 205.141L207.215 192.372L211.024 206.934L219.649 205.141C219.649 205.141 216.289 161.455 215.84 144.877C215.952 144.989 215.952 144.989 215.952 144.989C215.952 144.989 215.84 142.861 215.84 140.172C215.84 139.388 215.84 138.492 215.84 137.708C215.84 135.132 216.065 132.331 216.401 130.427C217.185 125.946 218.865 123.594 222.897 121.69C226.93 119.785 241.492 125.274 241.492 125.274C241.156 116.761 232.195 112.392 226.594 113.065Z" fill="black"/>
<path d="M234.098 114.633C241.155 116.201 243.396 127.179 249.109 132.891C254.933 138.716 253.477 147.117 250.677 152.606C247.876 158.095 243.508 154.511 243.508 154.511C243.508 154.511 245.86 155.855 247.316 151.15C248.773 146.557 246.196 142.973 238.355 140.397C230.514 137.82 223.009 121.466 223.009 121.466C222.897 118.329 227.041 113.065 234.098 114.633Z" fill="black"/>
<path d="M243.507 154.622C246.196 156.19 250.004 149.581 247.204 145.325C245.188 141.964 240.819 140.62 237.235 139.164C231.634 135.915 226.257 127.066 223.009 121.689C225.361 128.186 230.402 137.148 236.45 140.732L237.907 141.404C239.363 141.964 243.955 143.196 246.084 146.221C247.876 148.573 246.98 152.158 245.86 153.838C245.412 154.286 244.516 154.958 243.507 154.622Z" fill="black"/>
<path d="M217.521 145.773C217.521 145.773 215.505 137.259 212.256 139.276C209.008 141.292 212.48 150.813 215.617 150.813C218.641 150.813 217.521 145.773 217.521 145.773Z" fill="#FFB17C"/>
<path d="M214.384 141.069C214.384 141.069 219.201 148.91 215.952 148.014C212.48 147.118 211.248 139.612 214.384 141.069Z" fill="#FFBA8C"/>
<path d="M366.164 349.865H352.61V368.572H366.164V349.865Z" fill="#303030"/>
<path d="M365.156 355.018H353.283V446.086H365.156V355.018Z" fill="#A9B6DA"/>
<path d="M423.741 463.337L366.949 433.093V446.871L407.611 463.337V466.361H423.741V463.337Z" fill="#8E99BA"/>
<path d="M366.949 446.87H351.602V433.092V422.003H366.949V446.87Z" fill="#8E99BA"/>
<path d="M294.81 463.337L351.602 433.093V446.871L310.941 463.337V466.361H294.81V463.337Z" fill="#8E99BA"/>
<path d="M354.067 433.093V466.361H350.259V468.714H366.949V466.361H363.477L364.597 433.093H354.067Z" fill="#8E99BA"/>
<path d="M384.089 303.939H327.745L312.287 208.054C309.486 190.804 322.816 175.233 340.291 175.233H371.767C389.241 175.233 402.571 190.804 399.771 208.054L384.089 303.939Z" fill="#9FACD0"/>
<path d="M320.016 256.333L296.941 265.518L311.055 324.775L317.328 323.878L310.495 272.239L322.817 266.974L320.016 256.333Z" fill="#A0AED3"/>
<path d="M390.25 256.333L410.076 270.111L406.828 327.799L398.763 326.343L401.563 276.608L385.657 267.311L390.25 256.333Z" fill="#1E0C00"/>
<path d="M416.014 334.295H310.495V323.878H405.596C411.309 323.878 416.014 328.471 416.014 334.295Z" fill="#9FACD0"/>
<path d="M380.839 135.916C380.839 135.916 378.599 160.895 385.431 167.84C392.264 174.673 393.273 174.561 395.737 173.889C395.737 173.889 394.169 178.146 389.8 178.37C389.464 178.37 389.24 178.37 388.904 178.37C383.863 178.034 389.352 182.178 391.928 183.186C394.617 184.082 386.664 185.203 381.063 183.858C377.59 183.074 341.969 183.522 336.369 178.594C332.896 175.569 348.018 160.111 348.802 152.382C350.595 131.995 380.839 135.916 380.839 135.916Z" fill="black"/>
<path d="M384.76 253.756L383.864 282.096C383.864 282.096 397.306 284.673 401.003 283.216C403.019 282.432 403.467 268.318 402.795 252.076C395.738 251.404 391.369 251.404 384.76 253.756Z" fill="#FD5E5A"/>
<path d="M402.794 252.076C402.234 238.97 401.113 224.52 399.545 214.326C396.073 191.475 382.183 179.602 382.183 179.602L381.847 250.059L382.183 254.764C388.68 252.3 395.737 251.404 402.794 252.076Z" fill="#476CD2"/>
<path d="M332.336 180.946C332.336 190.243 333.904 236.282 336.705 251.068C339.505 265.854 317.326 291.394 317.326 303.827C317.326 316.261 333.456 334.295 333.456 334.295H387.56C387.56 334.295 404.25 304.051 398.201 289.825C392.152 275.599 383.863 286.241 388.008 265.854C392.152 245.467 392.6 217.687 390.248 198.197C387.896 178.818 377.478 172.881 359.444 172.881C341.409 172.993 332.336 171.649 332.336 180.946Z" fill="#476CD2"/>
<path d="M381.847 295.202C381.847 295.202 356.419 287.361 344.21 299.571C332 311.781 333.568 334.184 333.568 334.184H387.672C387.56 334.296 405.146 309.54 381.847 295.202Z" fill="#4366C5"/>
<path d="M370.534 311.557C366.726 302.259 362.581 300.579 359.109 300.579C352.836 300.579 342.866 304.052 338.498 315.029C333.905 326.679 316.431 397.361 313.294 410.466C311.054 419.764 306.797 426.261 302.205 431.525C292.571 445.975 295.372 455.273 301.869 462.218C301.869 463.114 308.814 464.906 316.655 443.175C318.447 438.358 319.231 435.334 321.247 424.804C323.488 414.275 374.343 320.742 370.534 311.557Z" fill="#FFB17C"/>
<path d="M315.982 445.527C313.406 447.095 307.245 450.904 304.781 450.904C302.428 450.904 299.068 443.847 297.724 440.486C294.139 450.344 297.051 457.625 302.092 463.001C302.988 464.122 308.477 464.682 315.982 445.527Z" fill="#15234A"/>
<path d="M396.297 316.933C396.521 306.851 390.248 304.723 385.32 303.827C379.159 302.707 370.982 309.876 364.261 320.293C357.54 330.823 342.194 402.625 339.057 415.731C336.817 425.028 332.56 431.525 327.968 436.79C318.334 451.24 321.135 460.761 327.632 467.594C327.632 468.49 334.577 470.058 342.418 448.439C344.21 443.623 344.994 440.598 347.01 430.069C349.251 419.763 396.073 327.014 396.297 316.933Z" fill="#FAAB77"/>
<path d="M340.401 453.928C337.377 454.937 334.128 455.609 331.664 455.273C326.735 454.489 325.839 446.199 325.839 440.599C319.006 453.144 321.807 462.106 327.856 468.378C328.864 469.051 333.568 470.059 340.401 453.928Z" fill="#15234A"/>
<path d="M366.053 255.212L378.262 277.839C378.374 278.063 378.262 278.287 378.15 278.287C377.926 278.399 377.814 278.287 377.702 278.175L364.709 255.996C364.485 255.66 364.597 255.1 365.045 254.876C365.381 254.764 365.829 254.876 366.053 255.212Z" fill="#99CEDC"/>
<path d="M372.326 262.606C369.638 259.917 365.605 263.502 361.909 264.734C358.212 265.854 323.487 265.63 318.671 264.51C316.878 264.062 317.662 258.573 319.567 251.068C313.966 249.164 307.805 248.716 302.092 249.388C300.188 267.646 299.628 283.776 302.092 285.345C307.693 289.041 353.731 274.031 358.436 274.031C363.141 274.031 360.788 276.159 367.733 276.159C371.766 276.159 374.678 275.375 376.359 274.815C377.367 274.479 377.815 273.359 377.479 272.351C376.359 269.663 374.23 264.51 372.326 262.606Z" fill="#FFB17C"/>
<path d="M318.894 253.756C319.118 252.86 319.342 251.964 319.566 251.068C313.966 249.164 307.805 248.716 302.092 249.388C301.868 251.628 301.644 253.868 301.42 256.109C304.892 255.437 313.405 253.868 318.894 253.756Z" fill="#FFB17C"/>
<path d="M319.566 251.068C325.279 238.522 334.688 217.463 335.361 208.95C336.481 195.508 333.568 175.121 333.568 175.121C333.568 175.121 317.774 184.866 312.733 196.18C309.933 202.341 301.308 228.889 299.068 250.956C304.892 250.396 313.966 249.163 319.566 251.068Z" fill="#476CD2"/>
<path d="M354.74 281.312H388.009C388.009 281.312 365.158 273.919 354.74 281.312Z" fill="#CEF2FA"/>
<path d="M419.932 281.312H388.008C388.008 281.312 400.33 278.735 408.619 278.735C416.908 278.735 419.932 281.312 419.932 281.312Z" fill="#5DB9F4"/>
<path d="M414.219 271.119C414.219 271.119 398.649 270.671 388.008 281.424C388.008 281.424 393.049 277.728 401.45 275.599C409.739 273.471 415.452 273.583 415.452 273.583L414.219 271.119Z" fill="#5DB9F4"/>
<path d="M352.61 281.312H388.007L354.515 280.528L352.61 281.312Z" fill="#00485C"/>
<path d="M373.11 176.241C373.11 173.441 370.87 172.545 368.069 171.873C358.548 169.745 346.45 169.409 347.234 172.657C348.355 176.914 357.54 182.85 363.701 182.85C369.862 182.85 372.774 177.81 372.774 177.81L373.11 176.241Z" fill="#4366C5"/>
<path d="M366.053 162.8L368.069 185.651C368.069 185.651 359.78 189.795 349.475 184.979L353.619 147.565L366.053 162.8Z" fill="#FFB17C"/>
<path d="M366.054 162.8L366.95 172.657C366.054 172.657 365.046 172.321 364.038 171.873C356.084 167.616 354.964 155.855 354.74 149.134L366.054 162.8Z" fill="#F8AA77"/>
<path d="M380.392 123.594C380.392 123.594 384.088 126.507 384.872 131.66C385.656 136.812 382.296 142.637 382.296 147.006C382.296 151.374 374.231 172.097 364.149 167.168C354.068 162.24 354.852 146.446 354.852 142.973C354.852 139.389 359.781 127.179 365.718 124.379C371.654 121.354 380.392 123.594 380.392 123.594Z" fill="#FFBA8C"/>
<path opacity="0.53" d="M380.391 123.594C380.391 123.594 384.088 126.507 384.872 131.659C385.656 136.812 386.552 146.221 382.296 147.005C379.831 147.454 371.206 133.228 373.671 122.922C377.367 122.81 380.391 123.594 380.391 123.594Z" fill="#FFBA8C"/>
<path d="M347.235 172.657L344.771 183.859C347.683 188.339 362.469 211.527 366.278 217.8C368.742 221.72 371.43 195.508 372.998 176.242C362.245 179.602 356.196 181.394 347.235 172.657Z" fill="#476CD2"/>
<path d="M375.798 316.485C368.853 319.173 377.367 326.903 382.855 326.006C388.344 325.11 384.424 313.237 375.798 316.485Z" fill="#FF4747"/>
<path d="M355.747 313.573C355.747 313.573 352.723 310.66 346.45 311.445C340.177 312.341 350.931 322.87 355.859 321.75C360.9 320.518 355.747 313.573 355.747 313.573Z" fill="#FFB17C"/>
<path d="M307.693 275.935C310.269 275.711 313.181 275.711 313.181 277.391C313.181 280.303 303.996 282.544 303.996 280.079C303.996 279.967 304.108 276.271 307.693 275.935Z" fill="#FFB17C"/>
<path d="M381.063 124.042C389.128 126.058 392.265 134.011 388.232 140.06C387.56 141.068 386.664 142.077 385.432 142.189V140.396C385.88 140.508 386.776 139.5 387 139.164C391.033 134.011 388.568 126.618 381.063 124.042Z" fill="black"/>
<path d="M375.126 118.554C375.126 118.554 380.839 118.554 384.984 122.698C389.128 126.843 387.896 143.309 384.984 145.774C382.071 148.238 392.377 150.478 386.216 150.478C380.055 150.59 369.637 119.114 375.126 118.554Z" fill="black"/>
<path d="M382.295 126.17C382.407 125.834 379.159 117.097 371.094 115.753C361.46 114.185 350.147 121.354 346.674 130.987C343.202 140.732 340.066 151.71 330.544 154.51C321.023 157.311 319.343 171.201 322.255 180.05C325.167 188.787 334.241 186.547 334.241 186.547C334.241 186.547 328.64 181.73 330.208 180.274C330.208 180.274 334.465 188.451 339.281 186.883C344.098 185.203 346.002 182.626 346.002 182.626C346.002 182.626 337.713 181.394 343.202 176.801C347.01 173.553 348.915 170.641 353.395 165.264C357.652 160.111 355.412 146.221 359.22 136.252C359.668 136.7 360.452 137.036 361.573 137.148C366.613 137.708 364.373 134.012 369.19 128.411C377.479 123.594 381.735 126.17 382.295 126.17Z" fill="black"/>
<path d="M349.026 137.148C350.37 140.845 351.266 145.774 351.042 149.582C350.37 161.792 337.488 155.407 333.792 155.631C331.551 155.743 329.647 157.759 330.543 160.56C331.215 162.8 332.672 163.472 333.456 164.48C334.576 165.936 334.016 167.505 332.672 168.177C329.983 169.521 326.735 166.497 325.615 170.081C324.83 172.545 325.615 175.57 327.631 177.586C325.391 175.906 324.158 172.769 324.831 169.857C325.503 166.833 327.519 167.057 330.431 167.169C332.224 167.281 332.784 166.385 332.672 165.936C332.56 164.816 330.095 164.48 329.087 161.008C328.191 158.543 329.199 155.855 331.439 154.623C337.376 151.15 350.706 163.584 350.146 145.326C349.922 142.637 349.586 139.837 349.026 137.148Z" fill="black"/>
<path d="M360.116 139.724C360.116 139.724 360.34 135.02 357.876 135.468C355.411 135.916 353.731 139.052 354.851 142.189C356.083 145.213 360.452 143.869 360.116 139.724Z" fill="#FFB17C"/>
<path d="M359.109 140.396C359.109 140.396 359.445 137.484 358.324 137.26C357.204 137.036 356.084 139.276 356.308 140.732C356.644 142.3 358.997 142.188 359.109 140.396Z" fill="#FFBA8C"/>
<path d="M505.289 291.281H498.792V482.268H505.289V291.281Z" fill="#707070"/>
<path d="M540.462 294.418H533.965V485.405H540.462V294.418Z" fill="#707070"/>
<path d="M108.193 293.298H101.696V484.284H108.193V293.298Z" fill="#707070"/>
<path d="M168.681 288.481H162.185V479.468H168.681V288.481Z" fill="#707070"/>
<path d="M567.449 281.165H83.6143V294.318H567.449V281.165Z" fill="black"/>
<path d="M170.986 276.569H184.454V281.69H170.986V276.569Z" fill="#B5C2DB"/>
<path d="M183.567 224.796L177.438 281.69H257.961L264.09 224.796H183.567Z" fill="#C2CCDF"/>
<path d="M407.835 133.787C407.835 133.787 404.474 140.844 403.018 148.909C401.562 156.974 403.802 171.312 407.835 177.249C411.867 183.186 412.315 185.426 415.9 185.426C419.596 185.426 434.158 179.041 435.391 164.143C436.735 149.357 408.843 133.675 408.843 133.675H407.835V133.787Z" fill="#FFB481"/>
<path d="M370.981 244.347C368.517 228.216 370.533 209.286 370.533 209.286C370.533 209.286 374.79 205.477 380.614 207.045C386.439 208.614 389.464 209.51 388.904 207.942C388.343 206.261 380.838 203.685 380.838 203.685C380.838 203.685 388.119 203.573 391.704 205.477C395.4 207.381 396.297 203.685 385.991 201.893C375.686 200.1 379.046 199.092 380.838 198.532C382.519 197.972 392.824 200.661 395.512 198.644C397.977 196.852 381.623 195.06 376.806 195.62C397.865 189.683 391.256 187.107 371.317 193.94C365.604 195.844 360.452 204.469 360.34 204.581C359.779 205.253 354.179 231.353 353.843 251.18C359.331 248.715 365.94 247.483 370.981 244.347Z" fill="#FFB481"/>
<path d="M357.092 211.526C355.524 213.095 337.714 279.632 347.907 282.208C358.1 284.897 370.422 272.127 370.422 272.127L372.887 217.239L357.092 211.526Z" fill="#1A2C5E"/>
<path d="M498.008 208.278C500.136 203.573 508.873 202.341 511.674 201.445C514.474 200.549 517.051 194.948 518.955 194.388C520.859 193.828 520.299 200.101 517.387 201.669C514.586 203.349 518.171 205.701 520.411 205.813C522.651 205.813 530.604 205.253 532.397 201.109C534.189 196.964 537.661 194.5 538.109 195.956C538.557 197.412 533.853 203.685 533.853 203.685C533.853 203.685 541.47 196.74 541.918 198.532C542.478 200.213 535.533 205.253 535.533 205.253C535.533 205.253 540.238 203.125 541.582 203.909C542.926 204.693 530.492 212.422 528.028 213.206C525.564 213.991 515.93 213.43 511.114 212.982C509.097 212.758 508.089 222.616 504.729 235.498C502.937 232.361 494.423 229.673 491.959 227.096C496.104 218.023 497.224 210.182 498.008 208.278Z" fill="#FFB481"/>
<path d="M492.182 217.799L476.5 283.664C476.5 283.664 491.174 285.792 497.335 283.664C503.496 281.536 511.225 237.85 511.225 218.807L492.182 217.799Z" fill="#1A2C5E"/>
<path d="M433.15 469.946C433.15 469.946 433.262 470.618 433.599 471.627C434.607 474.651 437.295 480.7 443.568 482.268C451.857 484.284 458.466 482.044 460.034 483.612C461.49 485.068 462.05 489.773 462.05 489.773L411.979 492.125L414.892 471.627L433.15 469.946Z" fill="black"/>
<path d="M392.376 346.729L411.643 476.443L437.294 472.411L433.15 345.833L392.376 346.729Z" fill="#EF7800"/>
<path d="M409.067 465.353C409.067 465.353 402.682 470.73 402.682 476.443L380.727 492.685H372.886C372.886 492.685 389.128 472.41 392.376 467.369C395.625 462.329 395.737 457.288 395.737 457.288L409.067 465.353Z" fill="black"/>
<path d="M478.629 343.817C471.46 322.31 451.857 332.279 451.857 332.279C439.648 334.631 421.389 376.861 418.813 390.079C417.02 399.6 398.874 442.838 389.016 466.25C395.849 462.553 405.035 464.681 408.955 471.178C429.902 436.341 480.981 350.874 478.629 343.817Z" fill="#FF8000"/>
<path d="M394.617 468.714C394.617 468.714 400.666 470.506 402.571 474.427C404.475 478.459 394.617 486.188 394.617 489.661C394.617 493.133 397.194 496.158 394.617 497.502C392.041 498.846 370.646 499.07 371.878 494.702C372.998 490.445 381.4 485.628 384.872 480.252C388.233 474.987 391.257 467.37 394.617 468.714Z" fill="#1C1B1B"/>
<path d="M454.77 339.224C454.77 339.224 487.031 329.926 476.501 351.881C474.485 356.138 381.624 362.523 381.624 354.794C381.624 347.065 387.561 339.224 387.561 339.224H454.77Z" fill="#FF8000"/>
<path d="M383.639 199.988C383.639 199.988 394.617 195.508 407.835 194.387C415.116 193.715 422.397 196.068 430.574 196.068C453.649 196.068 475.94 202.228 478.404 213.43C480.869 224.744 450.401 334.295 457.346 341.24C464.29 348.185 396.073 352.553 387.56 344.04C379.047 335.415 358.772 209.621 383.639 199.988Z" fill="#15234A"/>
<path d="M414.78 173.441L407.835 196.74C407.835 196.74 425.981 203.909 438.079 196.74L434.271 170.864L414.78 173.441Z" fill="#FCAB76"/>
<path d="M383.639 199.988C383.639 199.988 364.26 226.088 360.004 238.522C355.859 250.955 344.434 272.126 345.442 277.727C346.45 283.216 353.171 288.705 364.484 286.016C375.798 283.328 375.014 272.35 375.014 272.35L383.639 199.988Z" fill="#15234A"/>
<path d="M477.844 211.526C477.844 211.526 502.264 278.736 497.447 283.552C492.63 288.369 476.612 283.552 476.612 283.552L459.026 249.164L477.844 211.526Z" fill="#15234A"/>
<path d="M406.939 189.011C406.939 189.011 428.222 197.412 438.079 189.683L440.991 196.516C440.991 196.516 437.631 202.453 423.965 203.461C410.299 204.469 403.578 194.836 403.578 194.836L406.939 189.011Z" fill="#15234A"/>
<path d="M415.452 128.971C415.452 128.971 406.266 125.946 403.69 135.355C401.114 144.765 407.947 154.398 407.947 159.103C407.947 163.807 410.411 169.184 414.892 173.553C419.26 177.921 429.566 182.514 429.566 182.514C429.566 182.514 440.991 175.457 444.912 167.616C448.832 159.775 446.48 154.622 448.048 142.861C449.616 131.099 441.551 127.29 438.191 127.29C434.718 127.178 422.957 114.521 415.452 128.971Z" fill="black"/>
<path d="M409.851 155.966C409.851 155.966 404.922 152.27 404.922 154.958C404.922 157.647 404.362 167.392 408.955 164.704C413.547 162.015 409.851 155.966 409.851 155.966Z" fill="#F8AA77"/>
<path d="M446.928 358.826H373.67L353.507 249.163C349.923 229.448 367.173 211.638 389.8 211.638H430.686C453.313 211.638 455.105 238.073 453.985 259.356L450.961 302.706L446.928 358.826Z" fill="#A9B6DA"/>
<path d="M361.125 258.572C357.54 238.857 374.791 221.047 397.418 221.047H438.303C443.12 221.047 446.929 222.167 449.953 224.295C446.593 216.79 440.656 211.638 430.686 211.638H389.801C367.174 211.638 349.811 229.56 353.508 249.163L373.67 358.826H379.495L361.125 258.572Z" fill="#9FACD0"/>
<path d="M426.766 376.86H414.893V491.676H426.766V376.86Z" fill="#A9B6DA"/>
<path d="M428.559 492.573H413.213V477.451V465.241H428.559V492.573Z" fill="#8E99BA"/>
<path d="M356.421 510.608L413.213 477.451V492.573L372.551 510.608V513.968H356.421V510.608Z" fill="#8E99BA"/>
<path d="M485.351 510.608L428.56 477.451V492.573L469.221 510.608V513.968H485.351V510.608Z" fill="#8E99BA"/>
<path d="M415.677 477.451V513.968H411.868V516.545H428.559V513.968H425.086L426.206 477.451H415.677Z" fill="#8E99BA"/>
<path d="M428.447 366.667H413.101V378.317H428.447V366.667Z" fill="#8E99BA"/>
<path d="M487.031 366.667H354.853C354.853 358.49 361.461 351.881 369.639 351.881H472.245C480.31 351.881 487.031 358.49 487.031 366.667Z" fill="#9FACD0"/>
<path d="M489.944 312.788L451.074 301.139L450.29 311.22L476.502 317.045L470.117 352.33L477.622 352.89L489.944 312.788Z" fill="#A0AED3"/>
<rect x="282" width="112" height="80" rx="10" fill="#476CD2"/>
<path d="M319.948 46.8189C319.919 46.5324 319.797 46.3099 319.582 46.1513C319.366 45.9927 319.074 45.9134 318.705 45.9134C318.454 45.9134 318.242 45.9489 318.069 46.0199C317.896 46.0885 317.764 46.1844 317.671 46.3075C317.581 46.4306 317.536 46.5703 317.536 46.7266C317.532 46.8568 317.559 46.9704 317.618 47.0675C317.68 47.1645 317.764 47.2486 317.87 47.3196C317.977 47.3883 318.1 47.4486 318.239 47.5007C318.379 47.5504 318.528 47.593 318.687 47.6286L319.34 47.7848C319.658 47.8558 319.949 47.9505 320.214 48.0689C320.479 48.1873 320.709 48.3329 320.903 48.5057C321.097 48.6785 321.247 48.8821 321.354 49.1165C321.463 49.3509 321.518 49.6196 321.521 49.9226C321.518 50.3677 321.405 50.7536 321.18 51.0803C320.957 51.4046 320.635 51.6567 320.214 51.8366C319.795 52.0142 319.289 52.103 318.698 52.103C318.11 52.103 317.599 52.013 317.163 51.8331C316.73 51.6532 316.392 51.3868 316.148 51.0341C315.906 50.679 315.78 50.2398 315.768 49.7166H317.256C317.272 49.9605 317.342 50.1641 317.465 50.3274C317.591 50.4884 317.758 50.6103 317.966 50.6932C318.177 50.7737 318.415 50.8139 318.68 50.8139C318.94 50.8139 319.166 50.776 319.358 50.7003C319.552 50.6245 319.703 50.5192 319.809 50.3842C319.916 50.2493 319.969 50.0942 319.969 49.919C319.969 49.7557 319.92 49.6184 319.823 49.5071C319.729 49.3958 319.589 49.3011 319.404 49.223C319.222 49.1449 318.998 49.0739 318.733 49.0099L317.941 48.8111C317.328 48.6619 316.844 48.4287 316.489 48.1115C316.134 47.7943 315.957 47.367 315.96 46.8295C315.957 46.3892 316.074 46.0045 316.311 45.6754C316.55 45.3464 316.878 45.0895 317.295 44.9048C317.711 44.7202 318.185 44.6278 318.715 44.6278C319.255 44.6278 319.726 44.7202 320.129 44.9048C320.533 45.0895 320.848 45.3464 321.073 45.6754C321.298 46.0045 321.414 46.3857 321.421 46.8189H319.948ZM325.012 52.1065C324.451 52.1065 323.968 51.9929 323.563 51.7656C323.161 51.536 322.851 51.2116 322.633 50.7926C322.415 50.3712 322.306 49.8729 322.306 49.2976C322.306 48.7365 322.415 48.2441 322.633 47.8203C322.851 47.3965 323.157 47.0663 323.553 46.8295C323.951 46.5928 324.417 46.4744 324.952 46.4744C325.312 46.4744 325.647 46.5324 325.957 46.6484C326.269 46.7621 326.542 46.9337 326.774 47.1634C327.008 47.393 327.19 47.6818 327.321 48.0298C327.451 48.3755 327.516 48.7803 327.516 49.2443V49.6598H322.91V48.7223H326.092C326.092 48.5045 326.045 48.3116 325.95 48.1435C325.855 47.9754 325.724 47.844 325.556 47.7493C325.39 47.6522 325.197 47.6037 324.977 47.6037C324.747 47.6037 324.544 47.657 324.366 47.7635C324.191 47.8677 324.054 48.0085 323.954 48.1861C323.855 48.3613 323.804 48.5566 323.801 48.772V49.6634C323.801 49.9332 323.851 50.1664 323.951 50.3629C324.052 50.5594 324.196 50.7109 324.38 50.8175C324.565 50.924 324.784 50.9773 325.037 50.9773C325.205 50.9773 325.359 50.9536 325.499 50.9062C325.639 50.8589 325.758 50.7879 325.858 50.6932C325.957 50.5985 326.033 50.4825 326.085 50.3452L327.484 50.4375C327.413 50.7737 327.267 51.0672 327.047 51.3182C326.829 51.5668 326.548 51.7609 326.202 51.9006C325.859 52.0379 325.462 52.1065 325.012 52.1065ZM330.016 44.7273V52H328.503V44.7273H330.016ZM333.714 52.1065C333.152 52.1065 332.669 51.9929 332.265 51.7656C331.862 51.536 331.552 51.2116 331.334 50.7926C331.116 50.3712 331.008 49.8729 331.008 49.2976C331.008 48.7365 331.116 48.2441 331.334 47.8203C331.552 47.3965 331.859 47.0663 332.254 46.8295C332.652 46.5928 333.118 46.4744 333.653 46.4744C334.013 46.4744 334.348 46.5324 334.658 46.6484C334.971 46.7621 335.243 46.9337 335.475 47.1634C335.709 47.393 335.892 47.6818 336.022 48.0298C336.152 48.3755 336.217 48.7803 336.217 49.2443V49.6598H331.611V48.7223H334.793C334.793 48.5045 334.746 48.3116 334.651 48.1435C334.556 47.9754 334.425 47.844 334.257 47.7493C334.091 47.6522 333.898 47.6037 333.678 47.6037C333.448 47.6037 333.245 47.657 333.067 47.7635C332.892 47.8677 332.755 48.0085 332.655 48.1861C332.556 48.3613 332.505 48.5566 332.503 48.772V49.6634C332.503 49.9332 332.552 50.1664 332.652 50.3629C332.754 50.5594 332.897 50.7109 333.081 50.8175C333.266 50.924 333.485 50.9773 333.738 50.9773C333.906 50.9773 334.06 50.9536 334.2 50.9062C334.34 50.8589 334.459 50.7879 334.559 50.6932C334.658 50.5985 334.734 50.4825 334.786 50.3452L336.185 50.4375C336.114 50.7737 335.968 51.0672 335.748 51.3182C335.531 51.5668 335.249 51.7609 334.903 51.9006C334.56 52.0379 334.163 52.1065 333.714 52.1065ZM339.669 52.1065C339.11 52.1065 338.629 51.9882 338.227 51.7514C337.827 51.5123 337.519 51.1809 337.304 50.7571C337.091 50.3333 336.984 49.8456 336.984 49.294C336.984 48.7353 337.092 48.2453 337.307 47.8239C337.525 47.4001 337.834 47.0698 338.234 46.8331C338.634 46.594 339.11 46.4744 339.662 46.4744C340.138 46.4744 340.554 46.5608 340.912 46.7337C341.269 46.9065 341.552 47.1491 341.76 47.4616C341.969 47.7741 342.084 48.1411 342.105 48.5625H340.677C340.637 48.2902 340.531 48.0713 340.358 47.9055C340.187 47.7375 339.964 47.6534 339.687 47.6534C339.452 47.6534 339.247 47.7173 339.072 47.8452C338.899 47.9706 338.764 48.1541 338.667 48.3956C338.57 48.6371 338.522 48.9295 338.522 49.2727C338.522 49.6207 338.569 49.9167 338.664 50.1605C338.761 50.4044 338.897 50.5902 339.072 50.718C339.247 50.8459 339.452 50.9098 339.687 50.9098C339.859 50.9098 340.014 50.8743 340.152 50.8033C340.291 50.7322 340.406 50.6293 340.496 50.4943C340.589 50.357 340.649 50.1925 340.677 50.0007H342.105C342.081 50.4174 341.968 50.7843 341.764 51.1016C341.563 51.4164 341.285 51.6626 340.929 51.8402C340.574 52.0178 340.154 52.1065 339.669 52.1065ZM345.975 46.5455V47.6818H342.69V46.5455H345.975ZM343.436 45.2386H344.948V50.3239C344.948 50.4635 344.97 50.5724 345.012 50.6506C345.055 50.7263 345.114 50.7796 345.19 50.8104C345.268 50.8411 345.358 50.8565 345.46 50.8565C345.531 50.8565 345.602 50.8506 345.673 50.8388C345.744 50.8246 345.798 50.8139 345.836 50.8068L346.074 51.9325C345.998 51.9562 345.892 51.9834 345.755 52.0142C345.617 52.0473 345.45 52.0675 345.254 52.0746C344.889 52.0888 344.57 52.0402 344.295 51.929C344.023 51.8177 343.811 51.6449 343.659 51.4105C343.508 51.1761 343.433 50.8802 343.436 50.5227V45.2386ZM346.96 52V46.5455H348.473V52H346.96ZM347.72 45.8423C347.495 45.8423 347.302 45.7678 347.141 45.6186C346.983 45.4671 346.903 45.286 346.903 45.0753C346.903 44.867 346.983 44.6882 347.141 44.5391C347.302 44.3875 347.495 44.3118 347.72 44.3118C347.945 44.3118 348.137 44.3875 348.295 44.5391C348.456 44.6882 348.537 44.867 348.537 45.0753C348.537 45.286 348.456 45.4671 348.295 45.6186C348.137 45.7678 347.945 45.8423 347.72 45.8423ZM351.198 48.8466V52H349.685V46.5455H351.127V47.5078H351.19C351.311 47.1906 351.514 46.9396 351.798 46.755C352.082 46.5679 352.426 46.4744 352.831 46.4744C353.21 46.4744 353.54 46.5573 353.822 46.723C354.104 46.8887 354.323 47.1255 354.479 47.4332C354.635 47.7386 354.713 48.1032 354.713 48.527V52H353.2V48.7969C353.203 48.4631 353.118 48.2027 352.945 48.0156C352.772 47.8262 352.534 47.7315 352.231 47.7315C352.027 47.7315 351.847 47.7753 351.691 47.8629C351.537 47.9505 351.417 48.0784 351.329 48.2464C351.244 48.4122 351.2 48.6122 351.198 48.8466ZM358.363 54.1591C357.873 54.1591 357.453 54.0916 357.102 53.9567C356.754 53.8241 356.477 53.643 356.271 53.4134C356.065 53.1837 355.931 52.9257 355.87 52.6392L357.269 52.451C357.312 52.5599 357.379 52.6617 357.472 52.7564C357.564 52.8511 357.686 52.9268 357.837 52.9837C357.991 53.0429 358.178 53.0724 358.398 53.0724C358.727 53.0724 358.998 52.992 359.212 52.831C359.427 52.6723 359.535 52.406 359.535 52.032V51.0341H359.471C359.405 51.1856 359.305 51.3288 359.172 51.4638C359.04 51.5987 358.869 51.7088 358.661 51.794C358.453 51.8793 358.204 51.9219 357.915 51.9219C357.506 51.9219 357.133 51.8272 356.797 51.6378C356.463 51.446 356.197 51.1536 355.998 50.7607C355.801 50.3653 355.703 49.8658 355.703 49.2621C355.703 48.6442 355.804 48.1281 356.005 47.7138C356.206 47.2995 356.474 46.9893 356.807 46.7834C357.144 46.5774 357.512 46.4744 357.912 46.4744C358.217 46.4744 358.473 46.5265 358.679 46.6307C358.885 46.7325 359.051 46.8603 359.176 47.0142C359.304 47.1657 359.402 47.3149 359.471 47.4616H359.528V46.5455H361.03V52.0533C361.03 52.5173 360.916 52.9055 360.689 53.218C360.462 53.5305 360.147 53.7649 359.744 53.9212C359.344 54.0798 358.884 54.1591 358.363 54.1591ZM358.395 50.7855C358.639 50.7855 358.845 50.7251 359.013 50.6044C359.183 50.4813 359.313 50.3061 359.403 50.0788C359.496 49.8492 359.542 49.5746 359.542 49.255C359.542 48.9354 359.497 48.6584 359.407 48.424C359.317 48.1873 359.187 48.0038 359.016 47.8736C358.846 47.7434 358.639 47.6783 358.395 47.6783C358.146 47.6783 357.937 47.7457 357.766 47.8807C357.596 48.0133 357.467 48.1979 357.379 48.4347C357.292 48.6714 357.248 48.9448 357.248 49.255C357.248 49.5698 357.292 49.8421 357.379 50.0717C357.469 50.299 357.598 50.4754 357.766 50.6009C357.937 50.724 358.146 50.7855 358.395 50.7855ZM301.212 58.8189C301.184 58.5324 301.062 58.3099 300.846 58.1513C300.631 57.9927 300.339 57.9134 299.969 57.9134C299.718 57.9134 299.506 57.9489 299.334 58.0199C299.161 58.0885 299.028 58.1844 298.936 58.3075C298.846 58.4306 298.801 58.5703 298.801 58.7266C298.796 58.8568 298.823 58.9704 298.883 59.0675C298.944 59.1645 299.028 59.2486 299.135 59.3196C299.241 59.3883 299.364 59.4486 299.504 59.5007C299.644 59.5504 299.793 59.593 299.952 59.6286L300.605 59.7848C300.922 59.8558 301.213 59.9505 301.479 60.0689C301.744 60.1873 301.973 60.3329 302.167 60.5057C302.362 60.6785 302.512 60.8821 302.618 61.1165C302.727 61.3509 302.783 61.6196 302.785 61.9226C302.783 62.3677 302.669 62.7536 302.444 63.0803C302.222 63.4046 301.9 63.6567 301.479 63.8366C301.059 64.0142 300.554 64.103 299.962 64.103C299.375 64.103 298.864 64.013 298.428 63.8331C297.995 63.6532 297.656 63.3868 297.412 63.0341C297.171 62.679 297.044 62.2398 297.032 61.7166H298.52C298.537 61.9605 298.607 62.1641 298.73 62.3274C298.855 62.4884 299.022 62.6103 299.231 62.6932C299.441 62.7737 299.679 62.8139 299.944 62.8139C300.205 62.8139 300.431 62.776 300.623 62.7003C300.817 62.6245 300.967 62.5192 301.074 62.3842C301.18 62.2493 301.233 62.0942 301.233 61.919C301.233 61.7557 301.185 61.6184 301.088 61.5071C300.993 61.3958 300.854 61.3011 300.669 61.223C300.487 61.1449 300.263 61.0739 299.998 61.0099L299.206 60.8111C298.593 60.6619 298.108 60.4287 297.753 60.1115C297.398 59.7943 297.222 59.367 297.224 58.8295C297.222 58.3892 297.339 58.0045 297.576 57.6754C297.815 57.3464 298.143 57.0895 298.559 56.9048C298.976 56.7202 299.45 56.6278 299.98 56.6278C300.52 56.6278 300.991 56.7202 301.393 56.9048C301.798 57.0895 302.113 57.3464 302.338 57.6754C302.563 58.0045 302.679 58.3857 302.686 58.8189H301.212ZM307.289 61.6776V58.5455H308.802V64H307.349V63.0092H307.293C307.17 63.3288 306.965 63.5857 306.678 63.7798C306.394 63.974 306.047 64.071 305.638 64.071C305.273 64.071 304.952 63.9882 304.675 63.8224C304.398 63.6567 304.182 63.4212 304.026 63.1158C303.872 62.8104 303.794 62.4446 303.791 62.0185V58.5455H305.304V61.7486C305.306 62.0705 305.393 62.325 305.563 62.5121C305.734 62.6991 305.962 62.7926 306.249 62.7926C306.431 62.7926 306.601 62.7512 306.76 62.6683C306.919 62.5831 307.046 62.4576 307.143 62.2919C307.243 62.1262 307.291 61.9214 307.289 61.6776ZM310.012 64V58.5455H311.525V64H310.012ZM310.772 57.8423C310.547 57.8423 310.354 57.7678 310.193 57.6186C310.034 57.4671 309.955 57.286 309.955 57.0753C309.955 56.867 310.034 56.6882 310.193 56.5391C310.354 56.3875 310.547 56.3118 310.772 56.3118C310.997 56.3118 311.189 56.3875 311.347 56.5391C311.508 56.6882 311.589 56.867 311.589 57.0753C311.589 57.286 311.508 57.4671 311.347 57.6186C311.189 57.7678 310.997 57.8423 310.772 57.8423ZM315.638 58.5455V59.6818H312.353V58.5455H315.638ZM313.099 57.2386H314.612V62.3239C314.612 62.4635 314.633 62.5724 314.675 62.6506C314.718 62.7263 314.777 62.7796 314.853 62.8104C314.931 62.8411 315.021 62.8565 315.123 62.8565C315.194 62.8565 315.265 62.8506 315.336 62.8388C315.407 62.8246 315.461 62.8139 315.499 62.8068L315.737 63.9325C315.661 63.9562 315.555 63.9834 315.418 64.0142C315.28 64.0473 315.113 64.0675 314.917 64.0746C314.552 64.0888 314.233 64.0402 313.958 63.929C313.686 63.8177 313.474 63.6449 313.322 63.4105C313.171 63.1761 313.096 62.8802 313.099 62.5227V57.2386ZM318.179 64.103C317.831 64.103 317.52 64.0426 317.248 63.9219C316.976 63.7988 316.761 63.6177 316.602 63.3786C316.446 63.1371 316.368 62.8364 316.368 62.4766C316.368 62.1735 316.423 61.919 316.534 61.7131C316.646 61.5071 316.797 61.3414 316.989 61.2159C317.181 61.0904 317.399 60.9957 317.642 60.9318C317.889 60.8679 318.147 60.8229 318.417 60.7969C318.734 60.7637 318.989 60.733 319.184 60.7045C319.378 60.6738 319.519 60.6288 319.606 60.5696C319.694 60.5104 319.738 60.4228 319.738 60.3068V60.2855C319.738 60.0606 319.667 59.8866 319.525 59.7635C319.385 59.6404 319.186 59.5788 318.928 59.5788C318.656 59.5788 318.439 59.6392 318.278 59.7599C318.117 59.8783 318.011 60.0275 317.958 60.2074L316.559 60.0938C316.63 59.7623 316.77 59.4759 316.978 59.2344C317.187 58.9905 317.455 58.8035 317.784 58.6733C318.116 58.5407 318.499 58.4744 318.935 58.4744C319.238 58.4744 319.528 58.5099 319.805 58.581C320.084 58.652 320.332 58.7621 320.547 58.9112C320.765 59.0604 320.937 59.2521 321.062 59.4865C321.188 59.7185 321.25 59.9967 321.25 60.321V64H319.816V63.2436H319.773C319.685 63.4141 319.568 63.5644 319.422 63.6946C319.275 63.8224 319.098 63.9231 318.892 63.9964C318.686 64.0675 318.449 64.103 318.179 64.103ZM318.612 63.0589C318.834 63.0589 319.031 63.0152 319.201 62.9276C319.372 62.8376 319.506 62.7169 319.603 62.5653C319.7 62.4138 319.748 62.2422 319.748 62.0504V61.4716C319.701 61.5024 319.636 61.5308 319.553 61.5568C319.472 61.5805 319.381 61.603 319.279 61.6243C319.178 61.6432 319.076 61.661 318.974 61.6776C318.872 61.6918 318.78 61.7048 318.697 61.7166C318.52 61.7427 318.364 61.7841 318.232 61.8409C318.099 61.8977 317.996 61.9747 317.923 62.0717C317.85 62.1664 317.813 62.2848 317.813 62.4268C317.813 62.6328 317.887 62.7902 318.037 62.8991C318.188 63.0057 318.38 63.0589 318.612 63.0589ZM322.452 64V56.7273H323.965V59.4616H324.011C324.078 59.3149 324.174 59.1657 324.299 59.0142C324.427 58.8603 324.593 58.7325 324.796 58.6307C325.002 58.5265 325.258 58.4744 325.563 58.4744C325.961 58.4744 326.328 58.5786 326.664 58.7869C327 58.9929 327.269 59.3042 327.47 59.7209C327.671 60.1352 327.772 60.6548 327.772 61.2798C327.772 61.8883 327.674 62.402 327.477 62.821C327.283 63.2377 327.018 63.5537 326.682 63.7692C326.348 63.9822 325.974 64.0888 325.56 64.0888C325.266 64.0888 325.016 64.0402 324.81 63.9432C324.607 63.8461 324.44 63.7242 324.31 63.5774C324.179 63.4283 324.08 63.2779 324.011 63.1264H323.944V64H322.452ZM323.933 61.2727C323.933 61.5971 323.978 61.88 324.068 62.1214C324.158 62.3629 324.288 62.5511 324.459 62.6861C324.629 62.8187 324.836 62.8849 325.08 62.8849C325.326 62.8849 325.535 62.8175 325.705 62.6825C325.876 62.5452 326.005 62.3558 326.092 62.1143C326.182 61.8705 326.227 61.59 326.227 61.2727C326.227 60.9579 326.183 60.6809 326.096 60.4418C326.008 60.2027 325.879 60.0156 325.709 59.8807C325.538 59.7457 325.329 59.6783 325.08 59.6783C324.834 59.6783 324.626 59.7434 324.455 59.8736C324.287 60.0038 324.158 60.1884 324.068 60.4276C323.978 60.6667 323.933 60.9484 323.933 61.2727ZM330.294 56.7273V64H328.781V56.7273H330.294ZM333.992 64.1065C333.431 64.1065 332.948 63.9929 332.543 63.7656C332.141 63.536 331.83 63.2116 331.613 62.7926C331.395 62.3712 331.286 61.8729 331.286 61.2976C331.286 60.7365 331.395 60.2441 331.613 59.8203C331.83 59.3965 332.137 59.0663 332.532 58.8295C332.93 58.5928 333.396 58.4744 333.931 58.4744C334.291 58.4744 334.626 58.5324 334.936 58.6484C335.249 58.7621 335.521 58.9337 335.753 59.1634C335.988 59.393 336.17 59.6818 336.3 60.0298C336.43 60.3755 336.495 60.7803 336.495 61.2443V61.6598H331.89V60.7223H335.071C335.071 60.5045 335.024 60.3116 334.929 60.1435C334.835 59.9754 334.703 59.844 334.535 59.7493C334.369 59.6522 334.176 59.6037 333.956 59.6037C333.727 59.6037 333.523 59.657 333.346 59.7635C333.17 59.8677 333.033 60.0085 332.934 60.1861C332.834 60.3613 332.783 60.5566 332.781 60.772V61.6634C332.781 61.9332 332.831 62.1664 332.93 62.3629C333.032 62.5594 333.175 62.7109 333.36 62.8175C333.544 62.924 333.763 62.9773 334.017 62.9773C334.185 62.9773 334.339 62.9536 334.478 62.9062C334.618 62.8589 334.738 62.7879 334.837 62.6932C334.936 62.5985 335.012 62.4825 335.064 62.3452L336.463 62.4375C336.392 62.7737 336.247 63.0672 336.027 63.3182C335.809 63.5668 335.527 63.7609 335.181 63.9006C334.838 64.0379 334.442 64.1065 333.992 64.1065ZM346.242 59.2734H344.687C344.659 59.0722 344.601 58.8935 344.513 58.7372C344.425 58.5786 344.313 58.4437 344.176 58.3324C344.038 58.2211 343.88 58.1359 343.7 58.0767C343.522 58.0175 343.329 57.9879 343.121 57.9879C342.744 57.9879 342.417 58.0814 342.137 58.2685C341.858 58.4531 341.641 58.723 341.487 59.0781C341.334 59.4309 341.257 59.8594 341.257 60.3636C341.257 60.8821 341.334 61.3177 341.487 61.6705C341.644 62.0232 341.861 62.2895 342.141 62.4695C342.42 62.6494 342.743 62.7393 343.11 62.7393C343.316 62.7393 343.507 62.7121 343.682 62.6577C343.86 62.6032 344.017 62.5239 344.154 62.4197C344.292 62.3132 344.405 62.1842 344.495 62.0327C344.588 61.8812 344.651 61.7083 344.687 61.5142L346.242 61.5213C346.202 61.8551 346.102 62.1771 345.941 62.4872C345.782 62.795 345.568 63.0708 345.298 63.3146C345.03 63.5561 344.711 63.7479 344.339 63.8899C343.97 64.0296 343.552 64.0994 343.085 64.0994C342.437 64.0994 341.857 63.9527 341.345 63.6591C340.836 63.3655 340.434 62.9406 340.138 62.3842C339.844 61.8279 339.698 61.1544 339.698 60.3636C339.698 59.5705 339.847 58.8958 340.145 58.3395C340.443 57.7831 340.848 57.3594 341.36 57.0682C341.871 56.7746 342.446 56.6278 343.085 56.6278C343.507 56.6278 343.897 56.687 344.257 56.8054C344.619 56.9238 344.94 57.0966 345.22 57.3239C345.499 57.5488 345.726 57.8246 345.901 58.1513C346.079 58.478 346.193 58.852 346.242 59.2734ZM349.781 64.1065C349.229 64.1065 348.752 63.9893 348.35 63.755C347.95 63.5182 347.641 63.1892 347.423 62.7678C347.205 62.344 347.096 61.8527 347.096 61.294C347.096 60.7306 347.205 60.2382 347.423 59.8168C347.641 59.393 347.95 59.0639 348.35 58.8295C348.752 58.5928 349.229 58.4744 349.781 58.4744C350.333 58.4744 350.809 58.5928 351.209 58.8295C351.611 59.0639 351.921 59.393 352.139 59.8168C352.357 60.2382 352.466 60.7306 352.466 61.294C352.466 61.8527 352.357 62.344 352.139 62.7678C351.921 63.1892 351.611 63.5182 351.209 63.755C350.809 63.9893 350.333 64.1065 349.781 64.1065ZM349.788 62.9347C350.039 62.9347 350.249 62.8636 350.417 62.7216C350.585 62.5772 350.711 62.3807 350.797 62.1321C350.884 61.8835 350.928 61.6006 350.928 61.2834C350.928 60.9661 350.884 60.6832 350.797 60.4347C350.711 60.1861 350.585 59.9896 350.417 59.8452C350.249 59.7008 350.039 59.6286 349.788 59.6286C349.535 59.6286 349.322 59.7008 349.149 59.8452C348.979 59.9896 348.849 60.1861 348.762 60.4347C348.677 60.6832 348.634 60.9661 348.634 61.2834C348.634 61.6006 348.677 61.8835 348.762 62.1321C348.849 62.3807 348.979 62.5772 349.149 62.7216C349.322 62.8636 349.535 62.9347 349.788 62.9347ZM356.947 61.6776V58.5455H358.46V64H357.008V63.0092H356.951C356.828 63.3288 356.623 63.5857 356.336 63.7798C356.052 63.974 355.706 64.071 355.296 64.071C354.931 64.071 354.611 63.9882 354.334 63.8224C354.057 63.6567 353.84 63.4212 353.684 63.1158C353.53 62.8104 353.452 62.4446 353.449 62.0185V58.5455H354.962V61.7486C354.965 62.0705 355.051 62.325 355.221 62.5121C355.392 62.6991 355.62 62.7926 355.907 62.7926C356.089 62.7926 356.26 62.7512 356.418 62.6683C356.577 62.5831 356.705 62.4576 356.802 62.2919C356.901 62.1262 356.95 61.9214 356.947 61.6776ZM359.67 64V58.5455H361.137V59.4972H361.194C361.293 59.1586 361.46 58.9029 361.694 58.7301C361.929 58.5549 362.199 58.4673 362.504 58.4673C362.58 58.4673 362.661 58.4721 362.749 58.4815C362.837 58.491 362.913 58.504 362.98 58.5206V59.8629C362.909 59.8416 362.81 59.8227 362.685 59.8061C362.56 59.7895 362.445 59.7812 362.341 59.7812C362.118 59.7812 361.919 59.8298 361.744 59.9268C361.571 60.0215 361.434 60.1541 361.332 60.3246C361.233 60.495 361.183 60.6915 361.183 60.9141V64H359.67ZM368.3 60.1009L366.915 60.1861C366.892 60.0677 366.841 59.9612 366.763 59.8665C366.684 59.7694 366.581 59.6925 366.454 59.6357C366.328 59.5765 366.178 59.5469 366.003 59.5469C365.768 59.5469 365.571 59.5966 365.41 59.696C365.249 59.7931 365.168 59.9233 365.168 60.0866C365.168 60.2169 365.22 60.3269 365.324 60.4169C365.429 60.5069 365.607 60.5791 365.861 60.6335L366.848 60.8324C367.378 60.9413 367.773 61.1165 368.034 61.358C368.294 61.5994 368.425 61.9167 368.425 62.3097C368.425 62.6671 368.319 62.9808 368.108 63.2507C367.9 63.5206 367.614 63.7313 367.249 63.8828C366.887 64.032 366.469 64.1065 365.996 64.1065C365.273 64.1065 364.698 63.9562 364.27 63.6555C363.844 63.3525 363.594 62.9406 363.52 62.4197L365.008 62.3416C365.053 62.5618 365.162 62.7299 365.335 62.8459C365.508 62.9595 365.729 63.0163 365.999 63.0163C366.264 63.0163 366.477 62.9654 366.638 62.8636C366.802 62.7595 366.885 62.6257 366.887 62.4624C366.885 62.325 366.827 62.2126 366.713 62.125C366.599 62.035 366.424 61.9664 366.187 61.919L365.243 61.7308C364.71 61.6243 364.314 61.4396 364.053 61.1768C363.795 60.9141 363.666 60.5791 363.666 60.1719C363.666 59.8215 363.761 59.5196 363.95 59.2663C364.142 59.013 364.411 58.8177 364.756 58.6804C365.104 58.5431 365.511 58.4744 365.978 58.4744C366.667 58.4744 367.209 58.62 367.604 58.9112C368.002 59.2024 368.234 59.599 368.3 60.1009ZM371.863 64.1065C371.302 64.1065 370.819 63.9929 370.414 63.7656C370.012 63.536 369.701 63.2116 369.484 62.7926C369.266 62.3712 369.157 61.8729 369.157 61.2976C369.157 60.7365 369.266 60.2441 369.484 59.8203C369.701 59.3965 370.008 59.0663 370.403 58.8295C370.801 58.5928 371.268 58.4744 371.803 58.4744C372.162 58.4744 372.497 58.5324 372.808 58.6484C373.12 58.7621 373.392 58.9337 373.624 59.1634C373.859 59.393 374.041 59.6818 374.171 60.0298C374.301 60.3755 374.366 60.7803 374.366 61.2443V61.6598H369.761V60.7223H372.942C372.942 60.5045 372.895 60.3116 372.8 60.1435C372.706 59.9754 372.574 59.844 372.406 59.7493C372.241 59.6522 372.048 59.6037 371.827 59.6037C371.598 59.6037 371.394 59.657 371.217 59.7635C371.041 59.8677 370.904 60.0085 370.805 60.1861C370.705 60.3613 370.654 60.5566 370.652 60.772V61.6634C370.652 61.9332 370.702 62.1664 370.801 62.3629C370.903 62.5594 371.046 62.7109 371.231 62.8175C371.415 62.924 371.634 62.9773 371.888 62.9773C372.056 62.9773 372.21 62.9536 372.349 62.9062C372.489 62.8589 372.609 62.7879 372.708 62.6932C372.808 62.5985 372.883 62.4825 372.935 62.3452L374.335 62.4375C374.263 62.7737 374.118 63.0672 373.898 63.3182C373.68 63.5668 373.398 63.7609 373.053 63.9006C372.709 64.0379 372.313 64.1065 371.863 64.1065ZM379.892 60.1009L378.507 60.1861C378.483 60.0677 378.433 59.9612 378.354 59.8665C378.276 59.7694 378.173 59.6925 378.045 59.6357C377.92 59.5765 377.77 59.5469 377.594 59.5469C377.36 59.5469 377.162 59.5966 377.001 59.696C376.84 59.7931 376.76 59.9233 376.76 60.0866C376.76 60.2169 376.812 60.3269 376.916 60.4169C377.02 60.5069 377.199 60.5791 377.452 60.6335L378.44 60.8324C378.97 60.9413 379.365 61.1165 379.626 61.358C379.886 61.5994 380.016 61.9167 380.016 62.3097C380.016 62.6671 379.911 62.9808 379.7 63.2507C379.492 63.5206 379.205 63.7313 378.841 63.8828C378.479 64.032 378.061 64.1065 377.587 64.1065C376.865 64.1065 376.29 63.9562 375.862 63.6555C375.435 63.3525 375.186 62.9406 375.112 62.4197L376.6 62.3416C376.645 62.5618 376.754 62.7299 376.927 62.8459C377.1 62.9595 377.321 63.0163 377.591 63.0163C377.856 63.0163 378.069 62.9654 378.23 62.8636C378.393 62.7595 378.476 62.6257 378.479 62.4624C378.476 62.325 378.418 62.2126 378.305 62.125C378.191 62.035 378.016 61.9664 377.779 61.919L376.835 61.7308C376.302 61.6243 375.905 61.4396 375.645 61.1768C375.387 60.9141 375.258 60.5791 375.258 60.1719C375.258 59.8215 375.353 59.5196 375.542 59.2663C375.734 59.013 376.002 58.8177 376.348 58.6804C376.696 58.5431 377.103 58.4744 377.57 58.4744C378.259 58.4744 378.801 58.62 379.196 58.9112C379.594 59.2024 379.826 59.599 379.892 60.1009Z" fill="white"/>
<path d="M338.286 33.6668L337.741 34.1061C337.978 34.4005 338.406 34.4532 338.708 34.2251L338.286 33.6668ZM348.391 32.0138L348.23 32.695L348.391 32.0138ZM348.613 15.5313L348.701 14.8369L348.613 15.5313ZM328.569 32.0599L328.435 31.3729L328.569 32.0599ZM338.831 33.2275C337.777 31.9201 334.382 30.2127 328.435 31.3729L328.703 32.747C334.363 31.6428 337.134 33.3531 337.741 34.1061L338.831 33.2275ZM328.7 31.5973V16.0434H327.3V31.5973H328.7ZM328.44 16.2877C329.67 16.3087 331.478 16.5586 333.237 17.2592C334.995 17.9595 336.655 19.0884 337.682 20.8362L338.889 20.1268C337.656 18.0283 335.698 16.7325 333.755 15.9586C331.813 15.1851 329.834 14.9112 328.464 14.8879L328.44 16.2877ZM338.835 20.916C339.551 20.0113 340.908 18.6855 342.637 17.6633C344.366 16.641 346.408 15.9566 348.525 16.2257L348.701 14.8369C346.173 14.5154 343.815 15.3405 341.925 16.4581C340.034 17.5757 338.55 19.0202 337.737 20.047L338.835 20.916ZM348.3 15.9814V31.5461H349.7V15.9814H348.3ZM348.552 31.3327C346.143 30.7623 341.397 30.4367 337.864 33.1084L338.708 34.2251C341.744 31.9291 345.971 32.1604 348.23 32.695L348.552 31.3327ZM338.986 33.6668V20.4815H337.586V33.6668H338.986ZM329.929 21.1815C330.96 21.1815 332.298 21.5817 333.513 22.1563C334.112 22.4396 334.66 22.7554 335.102 23.0647C335.555 23.3818 335.856 23.6635 336.003 23.8677L337.14 23.0499C336.858 22.6586 336.409 22.2704 335.905 21.9176C335.389 21.557 334.772 21.2029 334.112 20.8907C332.809 20.2745 331.254 19.7815 329.929 19.7815V21.1815ZM329.929 24.1588C330.96 24.1588 332.298 24.559 333.513 25.1336C334.112 25.4169 334.66 25.7327 335.102 26.0421C335.555 26.3591 335.856 26.6408 336.003 26.845L337.14 26.0272C336.858 25.6359 336.409 25.2477 335.905 24.8949C335.389 24.5344 334.772 24.1802 334.112 23.8681C332.809 23.2518 331.254 22.7588 329.929 22.7588V24.1588ZM329.929 27.3488C330.96 27.3488 332.298 27.749 333.513 28.3236C334.112 28.6069 334.66 28.9227 335.102 29.232C335.555 29.5491 335.856 29.8308 336.003 30.035L337.14 29.2172C336.858 28.8259 336.409 28.4377 335.905 28.0849C335.389 27.7244 334.772 27.3702 334.112 27.0581C332.809 26.4418 331.254 25.9488 329.929 25.9488V27.3488ZM347.01 19.7815C345.684 19.7815 344.129 20.2745 342.826 20.8907C342.166 21.2029 341.549 21.557 341.033 21.9176C340.529 22.2704 340.08 22.6586 339.799 23.0499L340.935 23.8677C341.082 23.6635 341.383 23.3818 341.836 23.0647C342.278 22.7554 342.826 22.4396 343.425 22.1563C344.64 21.5817 345.978 21.1815 347.01 21.1815V19.7815ZM347.01 22.7588C345.684 22.7588 344.129 23.2518 342.826 23.8681C342.166 24.1802 341.549 24.5344 341.033 24.8949C340.529 25.2477 340.08 25.6359 339.799 26.0272L340.935 26.845C341.082 26.6408 341.383 26.3591 341.836 26.0421C342.278 25.7327 342.826 25.417 343.425 25.1336C344.64 24.559 345.978 24.1588 347.01 24.1588V22.7588ZM347.01 25.9488C345.684 25.9488 344.129 26.4418 342.826 27.0581C342.166 27.3702 341.549 27.7244 341.033 28.0849C340.529 28.4377 340.08 28.8259 339.799 29.2172L340.935 30.035C341.082 29.8308 341.383 29.5491 341.836 29.232C342.278 28.9227 342.826 28.6069 343.425 28.3236C344.64 27.749 345.978 27.3488 347.01 27.3488V25.9488ZM348.3 31.5461C348.3 31.467 348.341 31.4024 348.386 31.3677C348.43 31.3344 348.491 31.3181 348.552 31.3327L348.23 32.695C348.947 32.8648 349.7 32.3404 349.7 31.5461H348.3ZM348.525 16.2257C348.379 16.2072 348.3 16.0868 348.3 15.9814H349.7C349.7 15.4233 349.295 14.9124 348.701 14.8369L348.525 16.2257ZM328.7 16.0434C328.7 16.1597 328.601 16.2905 328.44 16.2877L328.464 14.8879C327.798 14.8766 327.3 15.4222 327.3 16.0434H328.7ZM328.435 31.3729C328.562 31.348 328.7 31.443 328.7 31.5973H327.3C327.3 32.3482 327.99 32.886 328.703 32.747L328.435 31.3729Z" fill="white"/>
<rect x="98" y="28" width="102" height="70" rx="10" fill="#15234A"/>
<path d="M157 45.8301H141C139.895 45.8301 139 46.7255 139 47.8301V57.8301C139 58.9346 139.895 59.8301 141 59.8301H157C158.105 59.8301 159 58.9346 159 57.8301V47.8301C159 46.7255 158.105 45.8301 157 45.8301Z" stroke="white" stroke-width="1.5" stroke-linecap="round" stroke-linejoin="round"/>
<path d="M152.889 46V42.4444C152.889 42.3266 152.678 42.2135 152.303 42.1302C151.928 42.0468 151.419 42 150.889 42H146.889C146.358 42 145.85 42.0468 145.474 42.1302C145.099 42.2135 144.889 42.3266 144.889 42.4444V46" stroke="white" stroke-width="1.5" stroke-linejoin="round"/>
<path d="M139 48L147 52.5M151 52.5L159 48" stroke="white" stroke-width="1.5"/>
<circle cx="149" cy="52.5" r="2.25" stroke="white" stroke-width="1.5"/>
<path d="M128.18 75.2734H126.624C126.596 75.0722 126.538 74.8935 126.45 74.7372C126.363 74.5786 126.25 74.4437 126.113 74.3324C125.976 74.2211 125.817 74.1359 125.637 74.0767C125.46 74.0175 125.267 73.9879 125.058 73.9879C124.682 73.9879 124.354 74.0814 124.075 74.2685C123.795 74.4531 123.579 74.723 123.425 75.0781C123.271 75.4309 123.194 75.8594 123.194 76.3636C123.194 76.8821 123.271 77.3177 123.425 77.6705C123.581 78.0232 123.799 78.2895 124.078 78.4695C124.358 78.6494 124.681 78.7393 125.048 78.7393C125.254 78.7393 125.444 78.7121 125.619 78.6577C125.797 78.6032 125.954 78.5239 126.092 78.4197C126.229 78.3132 126.343 78.1842 126.433 78.0327C126.525 77.8812 126.589 77.7083 126.624 77.5142L128.18 77.5213C128.14 77.8551 128.039 78.1771 127.878 78.4872C127.719 78.795 127.505 79.0708 127.235 79.3146C126.968 79.5561 126.648 79.7479 126.276 79.8899C125.907 80.0296 125.489 80.0994 125.023 80.0994C124.374 80.0994 123.794 79.9527 123.283 79.6591C122.774 79.3655 122.371 78.9406 122.075 78.3842C121.782 77.8279 121.635 77.1544 121.635 76.3636C121.635 75.5705 121.784 74.8958 122.083 74.3395C122.381 73.7831 122.786 73.3594 123.297 73.0682C123.808 72.7746 124.384 72.6278 125.023 72.6278C125.444 72.6278 125.835 72.687 126.195 72.8054C126.557 72.9238 126.878 73.0966 127.157 73.3239C127.436 73.5488 127.664 73.8246 127.839 74.1513C128.017 74.478 128.13 74.852 128.18 75.2734ZM130.809 80.103C130.461 80.103 130.151 80.0426 129.879 79.9219C129.607 79.7988 129.391 79.6177 129.233 79.3786C129.077 79.1371 128.998 78.8364 128.998 78.4766C128.998 78.1735 129.054 77.919 129.165 77.7131C129.277 77.5071 129.428 77.3414 129.62 77.2159C129.812 77.0904 130.029 76.9957 130.273 76.9318C130.519 76.8679 130.778 76.8229 131.047 76.7969C131.365 76.7637 131.62 76.733 131.814 76.7045C132.009 76.6738 132.149 76.6288 132.237 76.5696C132.325 76.5104 132.368 76.4228 132.368 76.3068V76.2855C132.368 76.0606 132.297 75.8866 132.155 75.7635C132.016 75.6404 131.817 75.5788 131.559 75.5788C131.287 75.5788 131.07 75.6392 130.909 75.7599C130.748 75.8783 130.641 76.0275 130.589 76.2074L129.19 76.0938C129.261 75.7623 129.401 75.4759 129.609 75.2344C129.818 74.9905 130.086 74.8035 130.415 74.6733C130.747 74.5407 131.13 74.4744 131.566 74.4744C131.869 74.4744 132.159 74.5099 132.436 74.581C132.715 74.652 132.963 74.7621 133.178 74.9112C133.396 75.0604 133.568 75.2521 133.693 75.4865C133.818 75.7185 133.881 75.9967 133.881 76.321V80H132.447V79.2436H132.404C132.316 79.4141 132.199 79.5644 132.052 79.6946C131.906 79.8224 131.729 79.9231 131.523 79.9964C131.317 80.0675 131.079 80.103 130.809 80.103ZM131.243 79.0589C131.465 79.0589 131.662 79.0152 131.832 78.9276C132.003 78.8376 132.136 78.7169 132.233 78.5653C132.331 78.4138 132.379 78.2422 132.379 78.0504V77.4716C132.332 77.5024 132.267 77.5308 132.184 77.5568C132.103 77.5805 132.012 77.603 131.91 77.6243C131.809 77.6432 131.707 77.661 131.605 77.6776C131.503 77.6918 131.411 77.7048 131.328 77.7166C131.15 77.7427 130.995 77.7841 130.863 77.8409C130.73 77.8977 130.627 77.9747 130.554 78.0717C130.48 78.1664 130.444 78.2848 130.444 78.4268C130.444 78.6328 130.518 78.7902 130.667 78.8991C130.819 79.0057 131.011 79.0589 131.243 79.0589ZM135.055 80V74.5455H136.521V75.4972H136.578C136.678 75.1586 136.845 74.9029 137.079 74.7301C137.313 74.5549 137.583 74.4673 137.889 74.4673C137.964 74.4673 138.046 74.4721 138.134 74.4815C138.221 74.491 138.298 74.504 138.365 74.5206V75.8629C138.294 75.8416 138.195 75.8227 138.07 75.8061C137.944 75.7895 137.829 75.7812 137.725 75.7812C137.503 75.7812 137.304 75.8298 137.129 75.9268C136.956 76.0215 136.819 76.1541 136.717 76.3246C136.617 76.495 136.568 76.6915 136.568 76.9141V80H135.055ZM141.379 80.1065C140.817 80.1065 140.335 79.9929 139.93 79.7656C139.527 79.536 139.217 79.2116 138.999 78.7926C138.781 78.3712 138.673 77.8729 138.673 77.2976C138.673 76.7365 138.781 76.2441 138.999 75.8203C139.217 75.3965 139.524 75.0663 139.919 74.8295C140.317 74.5928 140.783 74.4744 141.318 74.4744C141.678 74.4744 142.013 74.5324 142.323 74.6484C142.636 74.7621 142.908 74.9337 143.14 75.1634C143.374 75.393 143.557 75.6818 143.687 76.0298C143.817 76.3755 143.882 76.7803 143.882 77.2443V77.6598H139.276V76.7223H142.458C142.458 76.5045 142.411 76.3116 142.316 76.1435C142.221 75.9754 142.09 75.844 141.922 75.7493C141.756 75.6522 141.563 75.6037 141.343 75.6037C141.113 75.6037 140.91 75.657 140.732 75.7635C140.557 75.8677 140.42 76.0085 140.32 76.1861C140.221 76.3613 140.17 76.5566 140.168 76.772V77.6634C140.168 77.9332 140.217 78.1664 140.317 78.3629C140.419 78.5594 140.562 78.7109 140.746 78.8175C140.931 78.924 141.15 78.9773 141.403 78.9773C141.571 78.9773 141.725 78.9536 141.865 78.9062C142.005 78.8589 142.124 78.7879 142.224 78.6932C142.323 78.5985 142.399 78.4825 142.451 78.3452L143.85 78.4375C143.779 78.7737 143.634 79.0672 143.413 79.3182C143.196 79.5668 142.914 79.7609 142.568 79.9006C142.225 80.0379 141.828 80.1065 141.379 80.1065ZM147.355 80.1065C146.794 80.1065 146.311 79.9929 145.906 79.7656C145.504 79.536 145.194 79.2116 144.976 78.7926C144.758 78.3712 144.649 77.8729 144.649 77.2976C144.649 76.7365 144.758 76.2441 144.976 75.8203C145.194 75.3965 145.5 75.0663 145.896 74.8295C146.293 74.5928 146.76 74.4744 147.295 74.4744C147.655 74.4744 147.99 74.5324 148.3 74.6484C148.612 74.7621 148.884 74.9337 149.116 75.1634C149.351 75.393 149.533 75.6818 149.663 76.0298C149.794 76.3755 149.859 76.7803 149.859 77.2443V77.6598H145.253V76.7223H148.435C148.435 76.5045 148.387 76.3116 148.293 76.1435C148.198 75.9754 148.067 75.844 147.898 75.7493C147.733 75.6522 147.54 75.6037 147.32 75.6037C147.09 75.6037 146.886 75.657 146.709 75.7635C146.534 75.8677 146.396 76.0085 146.297 76.1861C146.197 76.3613 146.147 76.5566 146.144 76.772V77.6634C146.144 77.9332 146.194 78.1664 146.293 78.3629C146.395 78.5594 146.538 78.7109 146.723 78.8175C146.908 78.924 147.127 78.9773 147.38 78.9773C147.548 78.9773 147.702 78.9536 147.842 78.9062C147.981 78.8589 148.101 78.7879 148.2 78.6932C148.3 78.5985 148.375 78.4825 148.428 78.3452L149.827 78.4375C149.756 78.7737 149.61 79.0672 149.39 79.3182C149.172 79.5668 148.89 79.7609 148.545 79.9006C148.201 80.0379 147.805 80.1065 147.355 80.1065ZM150.846 80V74.5455H152.312V75.4972H152.369C152.469 75.1586 152.636 74.9029 152.87 74.7301C153.104 74.5549 153.374 74.4673 153.68 74.4673C153.755 74.4673 153.837 74.4721 153.925 74.4815C154.012 74.491 154.089 74.504 154.156 74.5206V75.8629C154.085 75.8416 153.986 75.8227 153.861 75.8061C153.735 75.7895 153.621 75.7812 153.516 75.7812C153.294 75.7812 153.095 75.8298 152.92 75.9268C152.747 76.0215 152.61 76.1541 152.508 76.3246C152.408 76.495 152.359 76.6915 152.359 76.9141V80H150.846ZM157.281 80V72.7273H160.15C160.701 72.7273 161.171 72.8326 161.56 73.0433C161.948 73.2517 162.244 73.5417 162.447 73.9134C162.653 74.2827 162.756 74.7088 162.756 75.1918C162.756 75.6747 162.652 76.1009 162.444 76.4702C162.236 76.8395 161.934 77.1271 161.538 77.3331C161.145 77.5391 160.67 77.642 160.111 77.642H158.282V76.4098H159.862C160.158 76.4098 160.402 76.3589 160.594 76.2571C160.788 76.1529 160.932 76.0097 161.027 75.8274C161.124 75.6428 161.173 75.4309 161.173 75.1918C161.173 74.9503 161.124 74.7396 161.027 74.5597C160.932 74.3774 160.788 74.2365 160.594 74.1371C160.4 74.0353 160.153 73.9844 159.855 73.9844H158.818V80H157.281ZM165.24 72.7273V80H163.727V72.7273H165.24ZM168.007 80.103C167.659 80.103 167.349 80.0426 167.076 79.9219C166.804 79.7988 166.589 79.6177 166.43 79.3786C166.274 79.1371 166.196 78.8364 166.196 78.4766C166.196 78.1735 166.251 77.919 166.363 77.7131C166.474 77.5071 166.625 77.3414 166.817 77.2159C167.009 77.0904 167.227 76.9957 167.471 76.9318C167.717 76.8679 167.975 76.8229 168.245 76.7969C168.562 76.7637 168.818 76.733 169.012 76.7045C169.206 76.6738 169.347 76.6288 169.434 76.5696C169.522 76.5104 169.566 76.4228 169.566 76.3068V76.2855C169.566 76.0606 169.495 75.8866 169.353 75.7635C169.213 75.6404 169.014 75.5788 168.756 75.5788C168.484 75.5788 168.267 75.6392 168.106 75.7599C167.945 75.8783 167.839 76.0275 167.787 76.2074L166.387 76.0938C166.458 75.7623 166.598 75.4759 166.806 75.2344C167.015 74.9905 167.283 74.8035 167.613 74.6733C167.944 74.5407 168.328 74.4744 168.763 74.4744C169.066 74.4744 169.356 74.5099 169.633 74.581C169.913 74.652 170.16 74.7621 170.375 74.9112C170.593 75.0604 170.765 75.2521 170.89 75.4865C171.016 75.7185 171.078 75.9967 171.078 76.321V80H169.644V79.2436H169.601C169.514 79.4141 169.396 79.5644 169.25 79.6946C169.103 79.8224 168.926 79.9231 168.721 79.9964C168.515 80.0675 168.277 80.103 168.007 80.103ZM168.44 79.0589C168.663 79.0589 168.859 79.0152 169.029 78.9276C169.2 78.8376 169.334 78.7169 169.431 78.5653C169.528 78.4138 169.576 78.2422 169.576 78.0504V77.4716C169.529 77.5024 169.464 77.5308 169.381 77.5568C169.301 77.5805 169.209 77.603 169.108 77.6243C169.006 77.6432 168.904 77.661 168.802 77.6776C168.7 77.6918 168.608 77.7048 168.525 77.7166C168.348 77.7427 168.193 77.7841 168.06 77.8409C167.927 77.8977 167.824 77.9747 167.751 78.0717C167.678 78.1664 167.641 78.2848 167.641 78.4268C167.641 78.6328 167.716 78.7902 167.865 78.8991C168.016 79.0057 168.208 79.0589 168.44 79.0589ZM173.765 76.8466V80H172.252V74.5455H173.694V75.5078H173.758C173.879 75.1906 174.081 74.9396 174.365 74.755C174.649 74.5679 174.994 74.4744 175.398 74.4744C175.777 74.4744 176.107 74.5573 176.389 74.723C176.671 74.8887 176.89 75.1255 177.046 75.4332C177.202 75.7386 177.281 76.1032 177.281 76.527V80H175.768V76.7969C175.77 76.4631 175.685 76.2027 175.512 76.0156C175.339 75.8262 175.101 75.7315 174.798 75.7315C174.595 75.7315 174.415 75.7753 174.259 75.8629C174.105 75.9505 173.984 76.0784 173.896 76.2464C173.811 76.4122 173.767 76.6122 173.765 76.8466Z" fill="white"/>
<rect x="477" y="28" width="98" height="67" rx="10" fill="#F97C00"/>
<rect x="516.77" y="40.9051" width="12.8382" height="15.9194" rx="1.79735" stroke="white" stroke-width="1.54058"/>
<path d="M519.595 45.2705H526.784" stroke="white" stroke-width="1.54058" stroke-linecap="round"/>
<path d="M519.595 48.3516H525.757" stroke="white" stroke-width="1.54058" stroke-linecap="round"/>
<path d="M519.595 51.4326H523.703" stroke="white" stroke-width="1.54058" stroke-linecap="round"/>
<path d="M529.865 44.2432H532.947C534.081 44.2432 535.001 45.1628 535.001 46.2973V54.0002V58.3652C535.001 59.4996 534.081 60.4193 532.947 60.4193H525.244C524.109 60.4193 523.19 59.4996 523.19 58.3652V56.8246M529.865 48.6081H532.433M529.865 51.6893H532.433M529.865 55.0272H532.433" stroke="white" stroke-width="1.54058" stroke-linecap="round"/>
<path d="M496.718 72.7273L498.475 78.2528H498.543L500.304 72.7273H502.009L499.502 80H497.52L495.009 72.7273H496.718ZM502.856 80V74.5455H504.368V80H502.856ZM503.616 73.8423C503.391 73.8423 503.198 73.7678 503.037 73.6186C502.878 73.4671 502.799 73.286 502.799 73.0753C502.799 72.867 502.878 72.6882 503.037 72.5391C503.198 72.3875 503.391 72.3118 503.616 72.3118C503.84 72.3118 504.032 72.3875 504.191 72.5391C504.352 72.6882 504.432 72.867 504.432 73.0753C504.432 73.286 504.352 73.4671 504.191 73.6186C504.032 73.7678 503.84 73.8423 503.616 73.8423ZM510.119 76.1009L508.734 76.1861C508.71 76.0677 508.659 75.9612 508.581 75.8665C508.503 75.7694 508.4 75.6925 508.272 75.6357C508.147 75.5765 507.996 75.5469 507.821 75.5469C507.587 75.5469 507.389 75.5966 507.228 75.696C507.067 75.7931 506.987 75.9233 506.987 76.0866C506.987 76.2169 507.039 76.3269 507.143 76.4169C507.247 76.5069 507.426 76.5791 507.679 76.6335L508.666 76.8324C509.196 76.9413 509.592 77.1165 509.852 77.358C510.113 77.5994 510.243 77.9167 510.243 78.3097C510.243 78.6671 510.138 78.9808 509.927 79.2507C509.719 79.5206 509.432 79.7313 509.067 79.8828C508.705 80.032 508.287 80.1065 507.814 80.1065C507.092 80.1065 506.517 79.9562 506.088 79.6555C505.662 79.3525 505.412 78.9406 505.339 78.4197L506.827 78.3416C506.872 78.5618 506.981 78.7299 507.153 78.8459C507.326 78.9595 507.548 79.0163 507.817 79.0163C508.083 79.0163 508.296 78.9654 508.457 78.8636C508.62 78.7595 508.703 78.6257 508.705 78.4624C508.703 78.325 508.645 78.2126 508.531 78.125C508.418 78.035 508.242 77.9664 508.006 77.919L507.061 77.7308C506.528 77.6243 506.132 77.4396 505.871 77.1768C505.613 76.9141 505.484 76.5791 505.484 76.1719C505.484 75.8215 505.579 75.5196 505.768 75.2663C505.96 75.013 506.229 74.8177 506.575 74.6804C506.923 74.5431 507.33 74.4744 507.796 74.4744C508.485 74.4744 509.027 74.62 509.423 74.9112C509.82 75.2024 510.052 75.599 510.119 76.1009ZM512.751 80.103C512.403 80.103 512.093 80.0426 511.82 79.9219C511.548 79.7988 511.333 79.6177 511.174 79.3786C511.018 79.1371 510.94 78.8364 510.94 78.4766C510.94 78.1735 510.995 77.919 511.107 77.7131C511.218 77.5071 511.369 77.3414 511.561 77.2159C511.753 77.0904 511.971 76.9957 512.215 76.9318C512.461 76.8679 512.719 76.8229 512.989 76.7969C513.306 76.7637 513.562 76.733 513.756 76.7045C513.95 76.6738 514.091 76.6288 514.178 76.5696C514.266 76.5104 514.31 76.4228 514.31 76.3068V76.2855C514.31 76.0606 514.239 75.8866 514.097 75.7635C513.957 75.6404 513.758 75.5788 513.5 75.5788C513.228 75.5788 513.011 75.6392 512.85 75.7599C512.689 75.8783 512.583 76.0275 512.531 76.2074L511.132 76.0938C511.203 75.7623 511.342 75.4759 511.551 75.2344C511.759 74.9905 512.028 74.8035 512.357 74.6733C512.688 74.5407 513.072 74.4744 513.507 74.4744C513.81 74.4744 514.1 74.5099 514.377 74.581C514.657 74.652 514.904 74.7621 515.119 74.9112C515.337 75.0604 515.509 75.2521 515.634 75.4865C515.76 75.7185 515.823 75.9967 515.823 76.321V80H514.388V79.2436H514.345C514.258 79.4141 514.141 79.5644 513.994 79.6946C513.847 79.8224 513.671 79.9231 513.465 79.9964C513.259 80.0675 513.021 80.103 512.751 80.103ZM513.184 79.0589C513.407 79.0589 513.603 79.0152 513.774 78.9276C513.944 78.8376 514.078 78.7169 514.175 78.5653C514.272 78.4138 514.32 78.2422 514.32 78.0504V77.4716C514.273 77.5024 514.208 77.5308 514.125 77.5568C514.045 77.5805 513.954 77.603 513.852 77.6243C513.75 77.6432 513.648 77.661 513.546 77.6776C513.445 77.6918 513.352 77.7048 513.269 77.7166C513.092 77.7427 512.937 77.7841 512.804 77.8409C512.672 77.8977 512.569 77.9747 512.495 78.0717C512.422 78.1664 512.385 78.2848 512.385 78.4268C512.385 78.6328 512.46 78.7902 512.609 78.8991C512.76 79.0057 512.952 79.0589 513.184 79.0589ZM519.339 80V72.7273H522.208C522.76 72.7273 523.23 72.8326 523.618 73.0433C524.007 73.2517 524.302 73.5417 524.506 73.9134C524.712 74.2827 524.815 74.7088 524.815 75.1918C524.815 75.6747 524.711 76.1009 524.502 76.4702C524.294 76.8395 523.992 77.1271 523.597 77.3331C523.204 77.5391 522.728 77.642 522.169 77.642H520.341V76.4098H521.921C522.217 76.4098 522.461 76.3589 522.652 76.2571C522.846 76.1529 522.991 76.0097 523.086 75.8274C523.183 75.6428 523.231 75.4309 523.231 75.1918C523.231 74.9503 523.183 74.7396 523.086 74.5597C522.991 74.3774 522.846 74.2365 522.652 74.1371C522.458 74.0353 522.212 73.9844 521.914 73.9844H520.877V80H519.339ZM525.785 80V74.5455H527.252V75.4972H527.309C527.408 75.1586 527.575 74.9029 527.809 74.7301C528.044 74.5549 528.314 74.4673 528.619 74.4673C528.695 74.4673 528.777 74.4721 528.864 74.4815C528.952 74.491 529.029 74.504 529.095 74.5206V75.8629C529.024 75.8416 528.926 75.8227 528.8 75.8061C528.675 75.7895 528.56 75.7812 528.456 75.7812C528.233 75.7812 528.034 75.8298 527.859 75.9268C527.686 76.0215 527.549 76.1541 527.447 76.3246C527.348 76.495 527.298 76.6915 527.298 76.9141V80H525.785ZM532.088 80.1065C531.536 80.1065 531.059 79.9893 530.657 79.755C530.257 79.5182 529.948 79.1892 529.73 78.7678C529.512 78.344 529.403 77.8527 529.403 77.294C529.403 76.7306 529.512 76.2382 529.73 75.8168C529.948 75.393 530.257 75.0639 530.657 74.8295C531.059 74.5928 531.536 74.4744 532.088 74.4744C532.639 74.4744 533.115 74.5928 533.515 74.8295C533.918 75.0639 534.228 75.393 534.446 75.8168C534.663 76.2382 534.772 76.7306 534.772 77.294C534.772 77.8527 534.663 78.344 534.446 78.7678C534.228 79.1892 533.918 79.5182 533.515 79.755C533.115 79.9893 532.639 80.1065 532.088 80.1065ZM532.095 78.9347C532.346 78.9347 532.555 78.8636 532.723 78.7216C532.891 78.5772 533.018 78.3807 533.103 78.1321C533.191 77.8835 533.235 77.6006 533.235 77.2834C533.235 76.9661 533.191 76.6832 533.103 76.4347C533.018 76.1861 532.891 75.9896 532.723 75.8452C532.555 75.7008 532.346 75.6286 532.095 75.6286C531.842 75.6286 531.628 75.7008 531.456 75.8452C531.285 75.9896 531.156 76.1861 531.069 76.4347C530.983 76.6832 530.941 76.9661 530.941 77.2834C530.941 77.6006 530.983 77.8835 531.069 78.1321C531.156 78.3807 531.285 78.5772 531.456 78.7216C531.628 78.8636 531.842 78.9347 532.095 78.9347ZM538.221 80.1065C537.662 80.1065 537.181 79.9882 536.779 79.7514C536.379 79.5123 536.071 79.1809 535.855 78.7571C535.642 78.3333 535.536 77.8456 535.536 77.294C535.536 76.7353 535.644 76.2453 535.859 75.8239C536.077 75.4001 536.386 75.0698 536.786 74.8331C537.186 74.594 537.662 74.4744 538.213 74.4744C538.689 74.4744 539.106 74.5608 539.463 74.7337C539.821 74.9065 540.104 75.1491 540.312 75.4616C540.52 75.7741 540.635 76.1411 540.657 76.5625H539.229C539.189 76.2902 539.082 76.0713 538.909 75.9055C538.739 75.7375 538.515 75.6534 538.238 75.6534C538.004 75.6534 537.799 75.7173 537.624 75.8452C537.451 75.9706 537.316 76.1541 537.219 76.3956C537.122 76.6371 537.074 76.9295 537.074 77.2727C537.074 77.6207 537.121 77.9167 537.216 78.1605C537.313 78.4044 537.449 78.5902 537.624 78.718C537.799 78.8459 538.004 78.9098 538.238 78.9098C538.411 78.9098 538.566 78.8743 538.703 78.8033C538.843 78.7322 538.958 78.6293 539.048 78.4943C539.14 78.357 539.201 78.1925 539.229 78.0007H540.657C540.633 78.4174 540.519 78.7843 540.316 79.1016C540.114 79.4164 539.836 79.6626 539.481 79.8402C539.126 80.0178 538.706 80.1065 538.221 80.1065ZM544.111 80.1065C543.55 80.1065 543.067 79.9929 542.662 79.7656C542.26 79.536 541.95 79.2116 541.732 78.7926C541.514 78.3712 541.405 77.8729 541.405 77.2976C541.405 76.7365 541.514 76.2441 541.732 75.8203C541.95 75.3965 542.256 75.0663 542.651 74.8295C543.049 74.5928 543.516 74.4744 544.051 74.4744C544.41 74.4744 544.745 74.5324 545.056 74.6484C545.368 74.7621 545.64 74.9337 545.872 75.1634C546.107 75.393 546.289 75.6818 546.419 76.0298C546.549 76.3755 546.615 76.7803 546.615 77.2443V77.6598H542.009V76.7223H545.191C545.191 76.5045 545.143 76.3116 545.048 76.1435C544.954 75.9754 544.822 75.844 544.654 75.7493C544.489 75.6522 544.296 75.6037 544.075 75.6037C543.846 75.6037 543.642 75.657 543.465 75.7635C543.289 75.8677 543.152 76.0085 543.053 76.1861C542.953 76.3613 542.902 76.5566 542.9 76.772V77.6634C542.9 77.9332 542.95 78.1664 543.049 78.3629C543.151 78.5594 543.294 78.7109 543.479 78.8175C543.664 78.924 543.883 78.9773 544.136 78.9773C544.304 78.9773 544.458 78.9536 544.597 78.9062C544.737 78.8589 544.857 78.7879 544.956 78.6932C545.056 78.5985 545.131 78.4825 545.183 78.3452L546.583 78.4375C546.512 78.7737 546.366 79.0672 546.146 79.3182C545.928 79.5668 545.646 79.7609 545.301 79.9006C544.957 80.0379 544.561 80.1065 544.111 80.1065ZM552.14 76.1009L550.755 76.1861C550.731 76.0677 550.681 75.9612 550.602 75.8665C550.524 75.7694 550.421 75.6925 550.294 75.6357C550.168 75.5765 550.018 75.5469 549.843 75.5469C549.608 75.5469 549.41 75.5966 549.249 75.696C549.088 75.7931 549.008 75.9233 549.008 76.0866C549.008 76.2169 549.06 76.3269 549.164 76.4169C549.268 76.5069 549.447 76.5791 549.7 76.6335L550.688 76.8324C551.218 76.9413 551.613 77.1165 551.874 77.358C552.134 77.5994 552.264 77.9167 552.264 78.3097C552.264 78.6671 552.159 78.9808 551.948 79.2507C551.74 79.5206 551.454 79.7313 551.089 79.8828C550.727 80.032 550.309 80.1065 549.835 80.1065C549.113 80.1065 548.538 79.9562 548.11 79.6555C547.683 79.3525 547.434 78.9406 547.36 78.4197L548.848 78.3416C548.893 78.5618 549.002 78.7299 549.175 78.8459C549.348 78.9595 549.569 79.0163 549.839 79.0163C550.104 79.0163 550.317 78.9654 550.478 78.8636C550.642 78.7595 550.724 78.6257 550.727 78.4624C550.724 78.325 550.666 78.2126 550.553 78.125C550.439 78.035 550.264 77.9664 550.027 77.919L549.083 77.7308C548.55 77.6243 548.153 77.4396 547.893 77.1768C547.635 76.9141 547.506 76.5791 547.506 76.1719C547.506 75.8215 547.601 75.5196 547.79 75.2663C547.982 75.013 548.25 74.8177 548.596 74.6804C548.944 74.5431 549.351 74.4744 549.818 74.4744C550.507 74.4744 551.049 74.62 551.444 74.9112C551.842 75.2024 552.074 75.599 552.14 76.1009ZM557.755 76.1009L556.37 76.1861C556.347 76.0677 556.296 75.9612 556.218 75.8665C556.14 75.7694 556.037 75.6925 555.909 75.6357C555.783 75.5765 555.633 75.5469 555.458 75.5469C555.223 75.5469 555.026 75.5966 554.865 75.696C554.704 75.7931 554.623 75.9233 554.623 76.0866C554.623 76.2169 554.675 76.3269 554.779 76.4169C554.884 76.5069 555.062 76.5791 555.316 76.6335L556.303 76.8324C556.833 76.9413 557.229 77.1165 557.489 77.358C557.749 77.5994 557.88 77.9167 557.88 78.3097C557.88 78.6671 557.774 78.9808 557.564 79.2507C557.355 79.5206 557.069 79.7313 556.704 79.8828C556.342 80.032 555.924 80.1065 555.451 80.1065C554.729 80.1065 554.153 79.9562 553.725 79.6555C553.299 79.3525 553.049 78.9406 552.975 78.4197L554.463 78.3416C554.508 78.5618 554.617 78.7299 554.79 78.8459C554.963 78.9595 555.184 79.0163 555.454 79.0163C555.719 79.0163 555.932 78.9654 556.093 78.8636C556.257 78.7595 556.34 78.6257 556.342 78.4624C556.34 78.325 556.282 78.2126 556.168 78.125C556.054 78.035 555.879 77.9664 555.642 77.919L554.698 77.7308C554.165 77.6243 553.769 77.4396 553.508 77.1768C553.25 76.9141 553.121 76.5791 553.121 76.1719C553.121 75.8215 553.216 75.5196 553.405 75.2663C553.597 75.013 553.866 74.8177 554.211 74.6804C554.559 74.5431 554.967 74.4744 555.433 74.4744C556.122 74.4744 556.664 74.62 557.059 74.9112C557.457 75.2024 557.689 75.599 557.755 76.1009Z" fill="white"/>
</svg>
