<svg width="593" height="539" viewBox="0 0 593 539" fill="none" xmlns="http://www.w3.org/2000/svg">
<path d="M41.9998 214.5C-41.6002 473.3 389 547.5 593 537.5V39.9999C458.667 19.8332 125.6 -44.3 41.9998 214.5Z" fill="#F0F4FF"/>
<g opacity="0.68">
<path d="M101.459 525.448C101.459 528.086 99.3186 530.227 96.6802 530.227C94.0417 530.227 91.9014 528.086 91.9014 525.448H101.459Z" fill="#282D30"/>
<path d="M102.172 525.448H91.1873C91.1873 522.412 93.644 519.956 96.6795 519.956C99.7151 519.956 102.172 522.412 102.172 525.448Z" fill="#3C4248"/>
<path d="M103.027 521.679H3.51336C2.13357 521.679 1.00281 520.548 1.00281 519.168V401.919C1.00281 400.539 2.13357 399.409 3.51336 399.409H103.027C104.407 399.409 105.537 400.539 105.537 401.919V519.168C105.537 520.548 104.407 521.679 103.027 521.679Z" fill="#C6D7EF"/>
<path d="M103.027 365.553H3.61426V399.402H103.027V365.553Z" fill="#BFC8E1"/>
<path d="M64.6084 399.402H2.52441V389.844L4.63112 388.135H29.804C29.8107 388.135 46.6374 387.994 64.6084 399.402Z" fill="#5D85F1"/>
<path d="M15.3056 525.448C15.3056 528.086 13.1653 530.227 10.5268 530.227C7.88841 530.227 5.74805 528.086 5.74805 525.448H15.3056Z" fill="#282D30"/>
<path d="M77.828 399.409H60.7051H3.3057C2.0336 399.409 0.99707 400.546 0.99707 401.933V519.155C0.99707 520.548 2.0336 521.679 3.3057 521.679H95.099C96.3711 521.679 97.4076 520.541 97.4076 519.155V439.584V420.833C97.4076 409.047 88.6039 399.409 77.828 399.409Z" fill="#C6D7EF"/>
<path d="M16.0255 525.448H5.04102C5.04102 522.412 7.49772 519.956 10.5333 519.956C13.5621 519.956 16.0255 522.412 16.0255 525.448Z" fill="#3C4248"/>
<path d="M98.4096 420.832V447.897H0V401.926C0 400.539 1.06345 399.402 2.35575 399.402H78.4261C89.4174 399.402 98.4096 409.047 98.4096 420.832Z" fill="#DEE8F6"/>
<path d="M98.4096 449.324H0V464.872H98.4096V449.324Z" fill="#DEE8F6"/>
<path d="M98.4096 466.292H0V481.55H98.4096V466.292Z" fill="#DEE8F6"/>
<path d="M98.4096 482.977V519.148C98.4096 520.541 97.3461 521.672 96.0539 521.672H2.34902C1.05672 521.672 0 520.534 0 519.148V482.977H98.4096Z" fill="#DEE8F6"/>
<path d="M66.0355 449.324V454.23C66.0355 455.812 64.7432 457.091 63.1749 457.091H43.252C41.6703 457.091 40.3848 455.805 40.3848 454.23V449.324H66.0355Z" fill="#A2BDDD"/>
<path d="M65.5903 466.292V471.34C65.5903 472.921 64.298 474.2 62.7297 474.2H42.8068C41.2319 474.2 39.9463 472.915 39.9463 471.34V466.292H65.5903Z" fill="#A2BDDD"/>
<path d="M65.5903 482.977V487.312C65.5903 488.893 64.298 490.172 62.7297 490.172H42.8068C41.2319 490.172 39.9463 488.887 39.9463 487.312V482.977H65.5903Z" fill="#A2BDDD"/>
<path d="M66.0354 449.324H40.3779V451.417H66.0354V449.324Z" fill="#88A8C9"/>
<path d="M65.598 466.292H39.9406V468.385H65.598V466.292Z" fill="#88A8C9"/>
<path d="M65.598 482.977H39.9406V485.07H65.598V482.977Z" fill="#88A8C9"/>
<path d="M103.026 365.553H69.1777V399.402H103.026V365.553Z" fill="#C5D0EF"/>
<path d="M77.6799 347.111C77.6799 347.111 65.0329 341.504 62.6569 337.506L42.0273 340.737L56.956 347.104H77.6799V347.111Z" fill="#F0F4FF"/>
<path d="M35.6526 335.891L53.7178 332.943L54.0947 335.965L36.5141 338.651L35.6526 335.891Z" fill="#F0F4FF"/>
<path d="M36.5146 338.651L86.0997 331.092C86.0997 331.092 91.5583 330.271 95.1256 333.535L36.5146 342.507V338.651Z" fill="#9AAFEB"/>
<path d="M103.027 352.758V364.281C103.027 364.914 102.576 365.445 101.984 365.54C101.916 365.553 101.849 365.56 101.782 365.56H2.24126C1.55473 365.56 1.00281 364.981 1.00281 364.281V352.758C1.00281 352.058 1.56146 351.486 2.24126 351.486H101.788C102.468 351.486 103.027 352.051 103.027 352.758Z" fill="#F0F4FF"/>
<path d="M2.27441 351.486V333.609H30.8059C30.8059 333.609 39.7442 332.088 50.7759 342.548C50.7759 342.548 55.0566 345.974 61.4238 345.402L92.6072 341.121L93.0851 342.507L103.026 341.498V351.479H2.27441V351.486Z" fill="#BFC8E1"/>
<path d="M103.027 348.06H8.84473V351.486H103.027V348.06Z" fill="#5D85F1"/>
<path d="M105.538 352.752V361.973C105.538 363.285 105.147 364.51 104.467 365.54C103.296 367.317 101.284 368.501 99.0088 368.501H48.0776C45.8094 368.501 43.7902 367.324 42.6257 365.56C41.9459 364.53 41.5488 363.299 41.5488 361.979V351.479H104.266C104.966 351.479 105.538 352.052 105.538 352.752Z" fill="#8BB8D8"/>
<path d="M89.6059 334.376L88.327 335.655L60.5158 340.03L60.0244 338.906L89.6059 334.376Z" fill="#BFC8E1"/>
<path d="M80.6948 353.795H46.7451V363.669H80.6948V353.795Z" fill="#C6D7EF"/>
<path d="M105.538 352.752V353.364H41.5488V351.479H104.266C104.966 351.479 105.538 352.052 105.538 352.752Z" fill="#6C99B6"/>
<path d="M80.6948 353.795H46.7451V355.269H80.6948V353.795Z" fill="#809AB7"/>
<path d="M50.5282 355.747L50.1109 356.42L50.0234 358.782C50.0234 358.782 50.1715 359.004 50.3802 359.058C50.3802 359.058 50.6023 359.058 50.71 358.688L50.8109 356.393C50.8177 356.393 50.8984 355.848 50.5282 355.747Z" fill="white"/>
<path d="M50.3529 359.307L49.8818 359.718L49.7539 362.329L49.9962 362.948C49.9962 362.948 50.3327 362.646 50.3866 362.349L50.5279 359.617C50.5347 359.61 50.5212 359.401 50.3529 359.307Z" fill="white"/>
<path d="M51.4842 359.227L51.9486 359.603L51.8073 362.06C51.8073 362.06 51.114 362.511 51.1342 362.471C51.1477 362.43 51.2352 359.597 51.2352 359.597C51.2352 359.597 51.3429 359.28 51.4842 359.227Z" fill="white"/>
<path d="M51.928 362.161L51.2684 362.585C51.2684 362.585 51.5713 362.982 51.9953 362.962L52.8501 362.969L52.5944 362.296C52.5877 362.289 52.0492 362.255 51.928 362.161Z" fill="white"/>
<path d="M51.9556 358.809H52.7902L53.1469 359.146L52.871 359.401L52.0027 359.395L51.5518 359.099L51.9556 358.809Z" fill="white"/>
<path d="M53.0792 356.413L52.958 358.607L53.3484 359.078L53.6176 358.668L53.7118 356.177L53.4695 355.767L53.0792 356.413Z" fill="white"/>
<path d="M53.3482 355.767L52.9713 356.272L52.2579 356.265L51.6992 355.753L53.3482 355.767Z" fill="white"/>
<path d="M54.7883 356.265L55.5421 356.272L55.9325 355.76L54.3643 355.753L54.7883 356.265Z" fill="white"/>
<path d="M55.6363 356.406L56.094 355.767L56.2891 356.09L56.1747 358.688L55.9459 359.071L55.6228 358.809L55.6363 356.406Z" fill="white"/>
<path d="M55.7041 359.166L55.4281 358.903H54.6608L54.257 359.159L54.6675 359.395L55.3271 359.401L55.7041 359.166Z" fill="white"/>
<path d="M55.8245 359.24L55.4408 359.59L55.2793 362.282L55.5418 362.888L55.9187 362.329L56.1139 359.321L55.8245 359.24Z" fill="white"/>
<path d="M55.1184 362.322L55.2799 362.888L54.0549 362.881L53.7117 362.551L54.378 362.322H55.1184Z" fill="white"/>
<path d="M78.8565 357.416H71.5537C71.1499 357.416 70.8201 357.086 70.8201 356.682C70.8201 356.279 71.1499 355.949 71.5537 355.949H78.8565C79.2604 355.949 79.5902 356.279 79.5902 356.682C79.5969 357.086 79.2671 357.416 78.8565 357.416Z" fill="white"/>
<path d="M78.8565 359.953H71.5537C71.1499 359.953 70.8201 359.623 70.8201 359.219C70.8201 358.816 71.1499 358.486 71.5537 358.486H78.8565C79.2604 358.486 79.5902 358.816 79.5902 359.219C79.5969 359.623 79.2671 359.953 78.8565 359.953Z" fill="white"/>
<path d="M78.0162 362.988C78.4437 362.988 78.7902 362.642 78.7902 362.214C78.7902 361.787 78.4437 361.44 78.0162 361.44C77.5887 361.44 77.2422 361.787 77.2422 362.214C77.2422 362.642 77.5887 362.988 78.0162 362.988Z" fill="white"/>
<path d="M75.2095 362.989C75.6369 362.989 75.9835 362.642 75.9835 362.215C75.9835 361.787 75.6369 361.441 75.2095 361.441C74.782 361.441 74.4354 361.787 74.4354 362.215C74.4354 362.642 74.782 362.989 75.2095 362.989Z" fill="white"/>
<path d="M72.315 362.988C72.7425 362.988 73.0891 362.642 73.0891 362.214C73.0891 361.787 72.7425 361.44 72.315 361.44C71.8876 361.44 71.541 361.787 71.541 362.214C71.541 362.642 71.8876 362.988 72.315 362.988Z" fill="white"/>
<path d="M98.3083 361.851H97.4468C96.767 361.851 96.2151 361.299 96.2151 360.619C96.2151 359.94 96.767 359.388 97.4468 359.388H98.3083C98.9881 359.388 99.5401 359.94 99.5401 360.619C99.5401 361.292 98.9881 361.851 98.3083 361.851Z" fill="#EF4237"/>
<path d="M98.3083 357.907H97.4468C96.767 357.907 96.2151 357.355 96.2151 356.676C96.2151 355.996 96.767 355.444 97.4468 355.444H98.3083C98.9881 355.444 99.5401 355.996 99.5401 356.676C99.5401 357.349 98.9881 357.907 98.3083 357.907Z" fill="#FBB043"/>
<path d="M98.3083 366.011H97.4468C96.767 366.011 96.2151 365.459 96.2151 364.779C96.2151 364.099 96.767 363.547 97.4468 363.547H98.3083C98.9881 363.547 99.5401 364.099 99.5401 364.779C99.5401 365.459 98.9881 366.011 98.3083 366.011Z" fill="#42BFB3"/>
<path d="M84.9075 357.073C85.3759 357.073 85.7556 356.693 85.7556 356.225C85.7556 355.756 85.3759 355.376 84.9075 355.376C84.4391 355.376 84.0594 355.756 84.0594 356.225C84.0594 356.693 84.4391 357.073 84.9075 357.073Z" fill="#5E778A"/>
<path d="M88.7582 357.073C89.2266 357.073 89.6063 356.693 89.6063 356.225C89.6063 355.756 89.2266 355.376 88.7582 355.376C88.2898 355.376 87.9102 355.756 87.9102 356.225C87.9102 356.693 88.2898 357.073 88.7582 357.073Z" fill="#5E778A"/>
<path d="M92.4399 357.073C92.9082 357.073 93.2879 356.693 93.2879 356.225C93.2879 355.756 92.9082 355.376 92.4399 355.376C91.9715 355.376 91.5918 355.756 91.5918 356.225C91.5918 356.693 91.9715 357.073 92.4399 357.073Z" fill="#5E778A"/>
<path d="M84.9887 360.02C85.4571 360.02 85.8368 359.641 85.8368 359.172C85.8368 358.704 85.4571 358.324 84.9887 358.324C84.5203 358.324 84.1406 358.704 84.1406 359.172C84.1406 359.641 84.5203 360.02 84.9887 360.02Z" fill="#5E778A"/>
<path d="M88.8383 360.02C89.3067 360.02 89.6864 359.641 89.6864 359.172C89.6864 358.704 89.3067 358.324 88.8383 358.324C88.3699 358.324 87.9902 358.704 87.9902 359.172C87.9902 359.641 88.3699 360.02 88.8383 360.02Z" fill="#5E778A"/>
<path d="M92.5268 360.02C92.9952 360.02 93.3749 359.641 93.3749 359.172C93.3749 358.704 92.9952 358.324 92.5268 358.324C92.0584 358.324 91.6787 358.704 91.6787 359.172C91.6787 359.641 92.0584 360.02 92.5268 360.02Z" fill="#5E778A"/>
<path d="M85.0287 362.908C85.4971 362.908 85.8768 362.528 85.8768 362.06C85.8768 361.592 85.4971 361.212 85.0287 361.212C84.5604 361.212 84.1807 361.592 84.1807 362.06C84.1807 362.528 84.5604 362.908 85.0287 362.908Z" fill="#5E778A"/>
<path d="M88.8793 362.908C89.3477 362.908 89.7274 362.528 89.7274 362.06C89.7274 361.592 89.3477 361.212 88.8793 361.212C88.4109 361.212 88.0312 361.592 88.0312 362.06C88.0312 362.528 88.4109 362.908 88.8793 362.908Z" fill="#5E778A"/>
<path d="M92.5676 362.908C93.0359 362.908 93.4156 362.528 93.4156 362.06C93.4156 361.592 93.0359 361.212 92.5676 361.212C92.0992 361.212 91.7195 361.592 91.7195 362.06C91.7195 362.528 92.0992 362.908 92.5676 362.908Z" fill="#5E778A"/>
<path d="M85.1166 365.856C85.585 365.856 85.9647 365.477 85.9647 365.008C85.9647 364.54 85.585 364.16 85.1166 364.16C84.6482 364.16 84.2686 364.54 84.2686 365.008C84.2686 365.477 84.6482 365.856 85.1166 365.856Z" fill="#5E778A"/>
<path d="M92.6488 365.856C93.1172 365.856 93.4969 365.477 93.4969 365.008C93.4969 364.54 93.1172 364.16 92.6488 364.16C92.1805 364.16 91.8008 364.54 91.8008 365.008C91.8008 365.477 92.1805 365.856 92.6488 365.856Z" fill="#5E778A"/>
<path d="M69.1786 377.251V387.515L36.5145 384.372L47.8154 373.482L69.1786 377.251Z" fill="white"/>
</g>
<path d="M368.238 344.505C368.238 344.505 395.824 236.05 403.729 237.971C409.46 239.388 450.209 238.726 472.001 238.254C479.118 238.096 484.629 244.458 483.495 251.48L467.12 351.244L368.238 344.505Z" fill="#CBD9FF"/>
<path d="M377.592 520.634C377.592 520.634 378.82 534.773 375.828 536.253L337.567 536.19C337.567 536.19 337.567 531.782 343.707 530.805C349.848 529.829 360.65 526.239 362.476 518.209C364.303 510.147 377.592 520.634 377.592 520.634Z" fill="black"/>
<path d="M337.566 433.435C343.77 455.227 348.84 473.24 350.131 478.499C354.036 494.402 361.877 519.5 361.877 519.5C361.877 519.5 369.309 524.318 381.15 519.248C381.15 519.248 384.74 480.42 379.985 441.056C379.89 440.426 379.827 439.765 379.733 439.103C379.198 434.915 378.599 430.223 377.906 425.216L337.566 433.435Z" fill="#15234A"/>
<path d="M422.467 520.634C422.467 520.634 423.695 534.773 420.703 536.253L382.441 536.19C382.441 536.19 382.441 531.782 388.582 530.805C394.723 529.829 405.524 526.239 407.351 518.209C409.177 510.147 422.467 520.634 422.467 520.634Z" fill="black"/>
<path d="M382.441 433.435C388.645 455.227 393.715 473.24 395.006 478.499C398.911 494.402 406.752 519.5 406.752 519.5C406.752 519.5 414.184 524.318 426.025 519.248C426.025 519.248 429.615 480.42 424.86 441.056C424.765 440.426 424.702 439.765 424.608 439.103C424.073 434.915 423.474 430.223 422.781 425.216L382.441 433.435Z" fill="#15234A"/>
<path d="M530.141 145.629H479.251C476.921 145.629 475 143.708 475 141.377V92.2513C475 89.921 476.921 88 479.251 88H530.141C532.471 88 534.392 89.921 534.392 92.2513V141.377C534.392 143.708 532.503 145.629 530.141 145.629Z" fill="#001D6D"/>
<path d="M527.936 143.141H481.455C479.314 143.141 477.582 141.409 477.582 139.267V94.3612C477.582 92.2198 479.314 90.4878 481.455 90.4878H527.936C530.078 90.4878 531.81 92.2198 531.81 94.3612V139.236C531.841 141.377 530.078 143.141 527.936 143.141Z" fill="#DFEBFD"/>
<path d="M503.468 95.7467C503.468 95.0539 504.003 94.5186 504.696 94.5186C505.389 94.5186 505.924 95.0539 505.924 95.7467C505.924 96.4395 505.389 96.9749 504.696 96.9749C504.035 96.9749 503.468 96.4395 503.468 95.7467Z" fill="#001D6D"/>
<path d="M513.419 97.51C513.734 96.9117 514.49 96.6913 515.089 97.0377C515.687 97.3526 515.907 98.1084 515.561 98.7067C515.246 99.305 514.49 99.5255 513.892 99.1791C513.294 98.8327 513.073 98.0769 513.419 97.51Z" fill="#001D6D"/>
<path d="M521.921 104.249C522.488 103.871 523.244 104.06 523.622 104.627C524 105.194 523.811 105.95 523.244 106.328C522.677 106.706 521.921 106.517 521.543 105.95C521.165 105.383 521.323 104.627 521.921 104.249Z" fill="#001D6D"/>
<path d="M526.111 114.705C526.804 114.705 527.339 115.24 527.339 115.933C527.339 116.626 526.804 117.161 526.111 117.161C525.418 117.161 524.883 116.626 524.883 115.933C524.883 115.271 525.45 114.705 526.111 114.705Z" fill="#001D6D"/>
<path d="M523.968 126.86C524.44 127.332 524.44 128.119 523.968 128.592C523.496 129.064 522.708 129.064 522.236 128.592C521.764 128.119 521.764 127.332 522.236 126.86C522.708 126.356 523.496 126.356 523.968 126.86Z" fill="#001D6D"/>
<path d="M516.253 134.606C516.726 135.079 516.726 135.866 516.253 136.338C515.781 136.811 514.994 136.811 514.521 136.338C514.049 135.866 514.049 135.079 514.521 134.606C514.994 134.103 515.749 134.103 516.253 134.606Z" fill="#001D6D"/>
<path d="M503.468 138.575C503.468 137.882 504.003 137.347 504.696 137.347C505.389 137.347 505.924 137.882 505.924 138.575C505.924 139.268 505.389 139.803 504.696 139.803C504.035 139.834 503.468 139.268 503.468 138.575Z" fill="#001D6D"/>
<path d="M495.973 97.51C495.658 96.9117 494.902 96.6913 494.304 97.0377C493.705 97.3526 493.485 98.1084 493.831 98.7067C494.146 99.305 494.902 99.5255 495.5 99.1791C496.099 98.8327 496.288 98.0769 495.973 97.51Z" fill="#001D6D"/>
<path d="M487.469 104.249C486.902 103.871 486.147 104.06 485.769 104.627C485.391 105.194 485.58 105.95 486.147 106.328C486.713 106.706 487.469 106.517 487.847 105.95C488.194 105.383 488.036 104.627 487.469 104.249Z" fill="#001D6D"/>
<path d="M483.25 114.704C482.558 114.704 482.022 115.239 482.022 115.932C482.022 116.625 482.558 117.16 483.25 117.16C483.943 117.16 484.478 116.625 484.478 115.932C484.478 115.271 483.943 114.704 483.25 114.704Z" fill="#001D6D"/>
<path d="M485.392 126.859C484.92 127.332 484.92 128.119 485.392 128.591C485.864 129.064 486.652 129.064 487.124 128.591C487.596 128.119 487.596 127.332 487.124 126.859C486.652 126.355 485.896 126.355 485.392 126.859Z" fill="#001D6D"/>
<path d="M493.138 134.606C492.666 135.079 492.666 135.866 493.138 136.338C493.611 136.811 494.398 136.811 494.87 136.338C495.343 135.866 495.343 135.079 494.87 134.606C494.398 134.103 493.611 134.103 493.138 134.606Z" fill="#001D6D"/>
<path d="M504.382 115.933C504.382 115.24 504.917 114.705 505.61 114.705C506.303 114.705 506.838 115.24 506.838 115.933C506.838 116.626 506.303 117.161 505.61 117.161C504.917 117.161 504.382 116.626 504.382 115.933Z" fill="#001D6D"/>
<path d="M505.8 100.565H505.453V115.933H505.8V100.565Z" fill="#001D6D"/>
<path d="M513.31 109.127L505.16 115.525L505.783 116.318L513.932 109.92L513.31 109.127Z" fill="#001D6D"/>
<path d="M304.154 329.798C304.154 329.798 297.163 326.145 294.99 326.743C292.849 327.342 284.157 330.806 283.055 332.38C281.354 334.837 278.331 338.773 280.284 338.993C282.236 339.182 299.304 338.458 301.257 338.112C303.241 337.734 307.618 335.403 304.154 329.798Z" fill="#FFB27D"/>
<path d="M366.978 267.509L366.884 344.441C366.884 344.441 375.953 352.472 408.861 352.409C409.68 352.409 410.53 352.409 411.381 352.409C430.244 352.157 434.905 327.342 435.219 304.574C435.471 285.144 432.574 267.225 432.574 267.225C387.133 252.928 366.978 267.509 366.978 267.509Z" fill="#476CD2"/>
<path d="M301.382 337.262C308.121 339.718 346.886 338.521 350.476 337.073C352.334 336.317 359.609 328.318 366.82 318.65C373.622 309.518 380.361 298.874 382.282 291.505C386.25 276.358 380.55 263.856 380.55 263.856C380.55 263.856 370.725 264.769 366.946 267.666C363.167 270.564 344.147 316.352 341.187 317.8C338.226 319.249 302.138 324.98 298.17 327.436C298.201 327.405 294.643 334.805 301.382 337.262Z" fill="#476CD2"/>
<path d="M389.463 262.911L389.683 265.305C389.683 265.305 389.715 272.831 399.005 273.051C408.294 273.303 414.876 268.643 414.089 262.911C412.861 258.534 411.664 255.542 411.255 251.889C411.097 250.535 411.066 249.055 411.16 247.386L393.336 248.677L388.172 250.031L389.463 262.911Z" fill="#FFB27D"/>
<path d="M388.203 250L389.463 262.88C391.447 263.573 393.62 263.919 396.013 263.699C404.201 262.943 411.097 249.024 411.192 247.355L388.203 250Z" fill="#EF9F6A"/>
<path d="M387.731 256.361C387.731 256.361 410.94 258.849 412.262 244.363C413.585 229.877 417.49 220.461 402.721 218.257C387.951 216.053 384.55 221.312 382.944 226.035C381.338 230.759 381.748 255.353 387.731 256.361Z" fill="#FFB27D"/>
<path d="M408.862 352.409C409.681 352.409 410.531 352.409 411.381 352.409C430.245 352.157 434.905 327.342 435.22 304.574C433.047 305.897 403.824 324.414 408.862 352.409Z" fill="#3F67D5"/>
<path d="M423.473 329.798C423.473 329.798 416.482 326.145 414.309 326.743C412.168 327.342 403.476 330.806 402.374 332.38C400.674 334.837 397.65 338.773 399.603 338.993C401.555 339.182 418.624 338.458 420.576 338.112C422.56 337.734 426.937 335.403 423.473 329.798Z" fill="#FFB27D"/>
<path d="M424.291 265.336C424.291 265.336 438.368 267.131 445.989 274.405C452.948 281.018 474.394 314.462 480.597 326.617C481.574 328.57 479.747 333.136 478.078 334.522C473.858 337.954 464.757 341.009 441.423 339.371L420.575 338.301C420.575 338.301 418.214 329.2 422.496 326.869L455.719 323.279C455.719 323.279 434.809 305.361 430.59 300.008C426.37 294.686 424.291 265.336 424.291 265.336Z" fill="#476CD2"/>
<path d="M409.586 211.833C409.617 211.801 409.649 211.77 409.68 211.738C409.838 211.36 410.436 211.392 410.436 211.392C409.586 211.109 408.326 211.455 408.326 211.455C408.358 211.423 408.295 211.392 408.169 211.298C407.917 210.195 406.72 209.503 406.72 209.503C407.161 210.006 407.35 210.542 407.476 210.951C404.862 209.88 396.927 207.676 391.069 210.888C383.889 214.856 377.56 215.927 377.56 215.927C377.591 216.431 377.245 226.098 382.189 227.389C382.22 229.562 394.943 226.728 398.69 229.216C402.469 231.735 399.54 236.711 403.729 238.002C403.729 238.002 403.729 238.002 403.76 238.002C404.768 238.317 405.87 237.939 406.5 237.089C407.35 235.923 408.452 234.916 409.523 235.231C411.853 235.861 412.767 238.821 411.633 239.954C410.279 241.277 411.16 248.551 411.16 248.551C411.16 248.551 415.758 238.758 419.065 234.223C421.773 230.444 419.506 215.549 409.586 211.833Z" fill="black"/>
<path d="M379.733 358.991C380.017 361.982 381.371 364.785 383.575 366.8L387.039 370.013C387.921 370.831 389.275 370.705 390.031 369.761L394.345 364.281C395.51 362.801 396.046 360.943 395.857 359.085C395.447 354.96 394.691 346.961 394.093 339.277C393.589 333.042 393.211 326.996 393.18 323.311C393.085 311.534 395.416 274.028 395.416 274.028L392.582 274.185C392.582 274.185 385.591 288.766 381.906 308.574C380.993 313.455 380.3 318.651 379.954 324.036C380.017 324.036 378.537 345.481 379.733 358.991Z" fill="#FF8000"/>
<path d="M399.036 271.603L391.195 269.713C391.195 269.713 390.156 269.808 390.187 271.067C390.219 272.359 392.391 276.075 393.368 276.389C394.312 276.704 400.863 274.185 399.036 271.603Z" fill="#FF8000"/>
<path d="M417.837 263.793C417.9 262.565 413.239 260.014 413.239 260.014C413.239 260.014 406.028 270.438 395.1 270.595C395.1 270.595 398.218 276.641 401.871 278.216C401.871 278.216 417.459 271.068 417.837 263.793Z" fill="#4F76E0"/>
<path d="M395.101 270.564C395.101 270.564 389.306 264.769 389.275 261.022C389.275 261.022 386.094 260.172 383.701 261.809C383.701 261.809 382.536 271.099 384.331 274.815C384.362 274.846 392.707 273.587 395.101 270.564Z" fill="#4F76E0"/>
<path d="M568.869 350.929H246.753V505.266H568.869V350.929Z" fill="#C8CDDD"/>
<path d="M246.725 350.929H233.583V536.474H246.725V350.929Z" fill="#001D6D"/>
<path d="M568.867 338.081H555.725V536.443H568.867V338.081Z" fill="#001D6D"/>
<path d="M566.431 338.081H233.583V350.897H566.431V338.081Z" fill="#001D6D"/>
<path d="M463.971 315.596H558.444L566.569 253.244H472.095L463.971 315.596Z" fill="#A0B5F1"/>
<path d="M466.396 315.596H560.869L568.993 253.244H474.489L466.396 315.596Z" fill="#B1C6FF"/>
<path d="M517.254 338.081H539.266L529.441 273.745H507.429L517.254 338.081Z" fill="#233862"/>
<path d="M507.432 338.094H536.277V332.551H507.432V338.094Z" fill="#233862"/>
<path d="M158.035 396.969C157.217 376.878 155.453 359.4 153.343 347.244C149.974 327.814 146.951 316.635 146.919 316.541C146.478 314.84 140.086 307.912 125.883 308.133C111.681 308.353 113.035 317.422 113.035 317.422C113.035 317.737 113.066 318.021 113.129 318.241C113.255 318.714 126.324 366.013 125.757 427.074C125.757 427.924 125.663 429.405 125.726 430.412C125.726 430.412 158.665 431.263 158.665 430.412C159.799 425.027 159.232 410.227 158.035 396.969Z" fill="#7CA8F4"/>
<path d="M162.161 426.728C162.161 427.578 161.688 428.271 161.153 428.271C160.618 428.271 160.177 427.578 160.177 426.728H131.961C131.961 427.578 131.488 428.271 130.953 428.271C130.386 428.271 129.945 427.546 129.945 426.696C130.103 409.219 129.127 392.906 127.615 378.483C123.868 342.552 116.939 318.556 116.845 318.209C116.782 317.989 116.751 317.706 116.751 317.391C116.751 317.391 115.396 308.321 129.599 308.101C143.801 307.88 150.194 314.808 150.635 316.509C150.666 316.603 152.367 322.933 154.634 334.301C155.39 338.08 156.209 342.395 157.028 347.213C159.137 359.4 160.901 376.877 161.72 396.937C162.885 410.226 163.326 421.406 162.161 426.728Z" fill="#A9B6DA"/>
<path d="M127.836 428.271H238.464C238.464 428.271 235.881 417.847 171.797 419.39C126.481 420.492 127.836 428.271 127.836 428.271Z" fill="#A9B6DA"/>
<path d="M118.829 537.167C131.646 472.232 128.371 432.364 128.339 431.861C128.308 430.853 130.134 429.94 131.142 429.908C132.15 429.877 136.559 429.625 137.094 430.475C137.755 431.609 140.337 480.703 121.222 537.167H118.829Z" fill="#A9B6DA"/>
<path d="M222.15 537.167C209.334 472.232 212.609 432.364 212.64 431.861C212.672 430.853 210.845 429.94 209.837 429.908C208.83 429.877 204.421 429.625 203.886 430.475C203.224 431.609 200.642 480.703 219.757 537.167H222.15Z" fill="#A9B6DA"/>
<path d="M242.621 537.167C229.804 472.232 233.079 432.364 233.111 431.861C233.142 430.853 231.316 429.94 230.308 429.908C229.3 429.877 224.892 429.625 224.356 430.475C223.695 431.609 221.113 480.703 240.228 537.167H242.621Z" fill="#A9B6DA"/>
<path d="M139.456 537.167C152.273 472.232 148.998 432.364 148.967 431.861C148.935 430.853 150.793 429.94 151.769 429.908C152.777 429.877 157.186 429.625 157.721 430.475C158.382 431.609 160.965 480.703 141.85 537.167H139.456Z" fill="#A9B6DA"/>
<path d="M238.558 431.609H127.93C126.671 431.609 125.663 430.601 125.663 429.341V427.861C125.663 426.601 126.671 425.594 127.93 425.594H238.558C239.818 425.594 240.826 426.601 240.826 427.861V429.341C240.826 430.569 239.787 431.609 238.558 431.609Z" fill="#7CA8F4"/>
<path d="M199.131 297.521C199.131 297.521 194.722 301.268 193.777 310.936C193.053 318.305 198.155 375.429 201.997 379.964C212.798 392.749 226.371 387.333 231.661 389.285L236.668 384.782C236.668 384.782 219.065 371.776 217.711 367.557C212.578 351.276 215.758 303.693 199.131 297.521Z" fill="#FB7D00"/>
<path d="M199.476 248.363C199.476 248.363 199.76 237.877 185.966 235.83C172.142 233.783 168.332 236.995 165.97 240.522C163.608 244.049 159.199 258.44 159.64 264.172C160.081 269.903 175.858 276.988 175.574 280.326C175.354 283.696 199.476 248.363 199.476 248.363Z" fill="black"/>
<path d="M260.065 527.436C259.624 530.963 264.443 532.034 270.079 532.507C275.685 533.01 273.953 534.113 281.605 535.813C289.258 537.514 292.438 535.498 293.036 534.459C293.572 533.546 290.045 531.94 286.266 530.113C285.794 529.893 285.321 529.641 284.849 529.42C280.629 527.342 278.33 523.311 275.118 519.564C272.063 516.005 269.45 504.857 269.45 504.857L259.058 502.181C259.058 502.181 261.64 512.226 262.522 516.509C263.025 519.028 262.049 521.768 261.199 523.878C260.695 525.012 260.223 526.177 260.065 527.436Z" fill="#FFB27D"/>
<path d="M270.08 532.506C275.686 533.01 273.954 534.113 281.606 535.813C289.258 537.514 292.439 535.498 293.037 534.459C293.573 533.546 290.046 531.94 286.267 530.113L286.204 530.176C286.204 530.176 280.724 531.845 274.521 529.893C269.482 528.287 264.632 525.012 261.168 523.878C260.696 525.012 260.224 526.177 260.066 527.436C259.625 530.963 264.443 532.003 270.08 532.506Z" fill="#FF8000"/>
<path d="M182.187 383.05C182.187 383.05 251.72 390.261 263.182 400.905C274.645 411.549 272.598 510.714 272.598 510.714C270.803 512.572 269.512 512.509 266.678 512.289C263.97 512.068 258.459 509.738 258.459 509.738C258.459 509.738 243.564 461.053 243.375 449.779C243.186 438.505 240.824 419.359 236.1 418.257C231.376 417.123 175.071 423.453 168.898 405.66C162.726 387.868 172.961 373.256 172.961 373.256L182.187 383.05Z" fill="#3E65D0"/>
<path d="M149.721 400.937C152.713 402.952 158.098 406.038 167.104 406.353C183.227 406.952 203.319 405.031 207.255 401.283C208.294 400.307 208.798 398.732 208.924 396.686C209.365 390.513 206.405 380.342 204.421 371.934C203.13 366.454 202.248 361.731 202.972 359.337C205.145 352 211.947 337.01 212.546 332.097C213.144 327.185 207.255 300.795 199.13 297.552C191.006 294.277 159.672 297.552 159.672 297.552C147.422 300.04 146.918 326.146 150.981 348.378C151.075 348.945 151.201 349.512 151.296 350.079C155.704 372.595 141.344 395.331 149.721 400.937Z" fill="#FF8000"/>
<path d="M193.715 299.788C193.494 301.205 189.589 303.535 181.213 301.331C173.183 299.221 172.206 296.607 172.238 294.875C172.238 292.828 175.733 290.089 175.67 277.492L176.647 277.681L192.833 280.893C192.833 280.893 192.455 285.995 192.455 290.781C192.424 294.812 194.093 297.395 193.715 299.788Z" fill="#FCC49F"/>
<path d="M192.801 280.893C192.801 280.893 192.423 285.994 192.423 290.781C183.353 290.529 178.567 282.278 176.614 277.681L192.801 280.893Z" fill="#F4BD97"/>
<path d="M195.824 285.428C195.824 285.428 174.41 285.774 174.379 272.422C174.379 259.07 171.576 250.126 185.275 249.339C198.942 248.552 201.618 253.653 202.721 258.093C203.791 262.565 201.398 285.018 195.824 285.428Z" fill="#FFC7A2"/>
<path d="M195.037 249.024C195.037 249.024 189.179 264.675 180.173 267.005C171.166 269.336 167.261 266.911 167.261 266.911C167.261 266.911 174.158 261.431 175.607 251.858C175.607 251.858 190.628 241.592 195.037 249.024Z" fill="black"/>
<path d="M193.588 250.315C193.588 250.315 197.965 253.811 199.036 257.212C200.106 260.613 200.579 267.604 202.626 267.383C202.626 267.383 207.034 256.739 202.09 250.725C196.8 244.3 193.588 250.315 193.588 250.315Z" fill="black"/>
<path d="M207.853 528.696C207.79 532.254 212.703 532.758 218.34 532.601C223.977 532.443 222.371 533.734 230.18 534.553C237.99 535.372 240.919 532.979 241.391 531.876C241.8 530.9 238.116 529.703 234.18 528.349C233.676 528.192 233.172 528.003 232.7 527.814C228.259 526.239 225.551 522.492 221.93 519.122C218.497 515.942 226.086 500.511 226.086 500.511L216.167 495.599C216.167 495.599 214.277 506.62 211.853 516.257C211.223 518.745 209.176 522.838 208.546 525.043C208.2 526.239 207.853 527.436 207.853 528.696Z" fill="#FFB27D"/>
<path d="M150.13 398.292C153.122 400.307 158.066 406.038 167.072 406.385C181.936 402.984 198.847 399.047 208.924 396.685C209.365 390.513 206.404 380.342 204.421 371.934C192.674 375.524 175.228 363.305 169.371 358.487C163.199 353.417 163.388 336.538 163.388 336.538L150.98 348.347C151.075 348.914 151.201 349.48 151.295 350.047C155.704 372.595 141.753 392.655 150.13 398.292Z" fill="#ED7600"/>
<path d="M218.34 532.601C223.977 532.443 222.371 533.735 230.181 534.553C237.991 535.372 240.919 532.979 241.392 531.877C241.801 530.9 238.117 529.704 234.18 528.35L234.117 528.413C234.117 528.413 228.858 530.711 222.466 529.483C217.27 528.475 212.105 525.767 208.515 525.043C208.169 526.24 207.854 527.436 207.822 528.696C207.791 532.286 212.704 532.758 218.34 532.601Z" fill="#FF8000"/>
<path d="M167.198 387.27C184.865 386.766 237.581 390.986 247.721 398.607C260.191 408.022 224.575 509.675 224.575 509.675C224.575 509.675 220.45 510.085 219.127 509.927C213.459 509.298 211.16 507.566 211.16 507.566C211.16 507.566 211.286 447.733 215.474 436.27C219.316 425.689 221.678 421.941 216.86 421.312C212.041 420.682 151.894 428.366 146.887 410.195C142.982 396.024 148.745 382.893 148.745 382.893C148.745 382.893 150.917 387.742 167.198 387.27Z" fill="#476CD2"/>
<path d="M159.672 297.52C159.672 297.52 147.422 298.559 146.446 308.259C145.722 315.628 140.4 367.84 144.242 372.374C155.043 385.16 191.1 387.868 196.391 389.789L197.839 383.743C197.839 383.743 159.357 364.344 159.956 359.935C160.554 355.527 171.418 295.757 159.672 297.52Z" fill="#FB7D00"/>
<path d="M172.646 241.12C172.646 241.12 173.527 235.514 165.781 234.097C158.034 232.649 157.876 249.118 157.058 253.086C156.239 257.054 158.286 259.448 161.246 259.668C164.206 259.92 172.646 241.12 172.646 241.12Z" fill="black"/>
<path d="M198.281 383.49C198.281 383.49 209.24 380.404 211.853 381.129C214.467 381.853 223.411 387.773 222.151 389.379C220.891 390.985 213.019 388.403 209.397 388.907C205.776 389.379 202.973 391.174 200.359 390.796C197.745 390.419 195.006 389.379 195.006 389.379L198.281 383.49Z" fill="#FFC7A2"/>
<path d="M198.281 383.491C198.281 383.491 203.635 380.751 205.178 379.176C205.367 378.987 205.682 379.019 205.839 379.239C206.248 379.869 206.626 381.129 204.737 382.357C202.029 384.152 198.281 383.491 198.281 383.491Z" fill="#FFB27D"/>
<path d="M236.667 384.813C236.667 384.813 248.036 385.443 250.272 386.955C252.507 388.498 259.058 397.001 257.326 398.103C255.625 399.205 248.98 394.229 245.422 393.505C241.832 392.781 238.588 393.568 236.258 392.371C233.928 391.143 231.66 389.317 231.66 389.317L236.667 384.813Z" fill="#FFC7A2"/>
<g filter="url(#filter0_d_2_25431)">
<rect x="185" y="29" width="182" height="189.479" rx="6.23288" fill="white"/>
</g>
<path d="M185 68.8906H239.849V218.48H191.233C187.791 218.48 185 215.689 185 212.247V68.8906Z" fill="#15234A"/>
<path d="M185 68.8906H367" stroke="#C2D3FF" stroke-width="1.24658" stroke-linejoin="round"/>
<path d="M185 106.288H367" stroke="#C2D3FF" stroke-width="1.24658" stroke-linejoin="round"/>
<path d="M185 143.685H367" stroke="#C2D3FF" stroke-width="1.24658" stroke-linejoin="round"/>
<path d="M185 181.082H367" stroke="#C2D3FF" stroke-width="1.24658" stroke-linejoin="round"/>
<path d="M203.995 44.3998H205.549L207.917 48.5211H208.014L210.383 44.3998H211.936L208.647 49.9067V53.4658H207.284V49.9067L203.995 44.3998ZM214.866 53.603C214.228 53.603 213.672 53.457 213.197 53.1648C212.722 52.8726 212.353 52.4639 212.09 51.9386C211.828 51.4133 211.696 50.7994 211.696 50.0971C211.696 49.3917 211.828 48.7749 212.09 48.2467C212.353 47.7184 212.722 47.3082 213.197 47.016C213.672 46.7239 214.228 46.5778 214.866 46.5778C215.503 46.5778 216.06 46.7239 216.535 47.016C217.01 47.3082 217.379 47.7184 217.641 48.2467C217.904 48.7749 218.035 49.3917 218.035 50.0971C218.035 50.7994 217.904 51.4133 217.641 51.9386C217.379 52.4639 217.01 52.8726 216.535 53.1648C216.06 53.457 215.503 53.603 214.866 53.603ZM214.87 52.4919C215.283 52.4919 215.626 52.3827 215.897 52.1644C216.169 51.946 216.369 51.6553 216.499 51.2923C216.632 50.9293 216.699 50.5294 216.699 50.0926C216.699 49.6588 216.632 49.2604 216.499 48.8974C216.369 48.5315 216.169 48.2378 215.897 48.0165C215.626 47.7951 215.283 47.6845 214.87 47.6845C214.454 47.6845 214.109 47.7951 213.834 48.0165C213.563 48.2378 213.361 48.5315 213.228 48.8974C213.098 49.2604 213.033 49.6588 213.033 50.0926C213.033 50.5294 213.098 50.9293 213.228 51.2923C213.361 51.6553 213.563 51.946 213.834 52.1644C214.109 52.3827 214.454 52.4919 214.87 52.4919ZM223.82 50.646V46.6663H225.148V53.4658H223.847V52.2883H223.776C223.619 52.6513 223.369 52.9538 223.023 53.1958C222.681 53.4348 222.254 53.5544 221.744 53.5544C221.307 53.5544 220.921 53.4584 220.584 53.2666C220.251 53.0718 219.988 52.7841 219.796 52.4034C219.607 52.0227 219.513 51.552 219.513 50.9913V46.6663H220.836V50.8319C220.836 51.2952 220.965 51.6641 221.222 51.9386C221.478 52.213 221.812 52.3503 222.222 52.3503C222.47 52.3503 222.716 52.2883 222.961 52.1644C223.209 52.0404 223.414 51.853 223.577 51.6022C223.742 51.3513 223.823 51.0326 223.82 50.646ZM228.247 44.3998V45.2498C228.247 45.5006 228.2 45.7647 228.105 46.0421C228.014 46.3166 227.884 46.5807 227.716 46.8345C227.547 47.0883 227.35 47.3067 227.122 47.4897L226.467 47.0205C226.641 46.7667 226.792 46.4966 226.919 46.2104C227.049 45.9241 227.114 45.6083 227.114 45.263V44.3998H228.247ZM230.916 44.3998V53.4658H229.593V44.3998H230.916ZM234.02 44.3998V53.4658H232.697V44.3998H234.02ZM240.424 49.4286V53.4658H239.1V46.6663H240.371V47.773H240.455C240.611 47.413 240.856 47.1238 241.19 46.9054C241.526 46.687 241.949 46.5778 242.46 46.5778C242.923 46.5778 243.329 46.6752 243.677 46.8699C244.026 47.0618 244.296 47.348 244.488 47.7287C244.679 48.1094 244.775 48.5802 244.775 49.1409V53.4658H243.452V49.3002C243.452 48.8074 243.323 48.4223 243.067 48.1449C242.81 47.8645 242.457 47.7243 242.009 47.7243C241.702 47.7243 241.429 47.7907 241.19 47.9235C240.953 48.0563 240.766 48.2511 240.627 48.5079C240.492 48.7617 240.424 49.0686 240.424 49.4286ZM249.481 53.603C248.811 53.603 248.234 53.4599 247.75 53.1737C247.269 52.8844 246.897 52.4787 246.634 51.9563C246.375 51.431 246.245 50.8157 246.245 50.1103C246.245 49.4139 246.375 48.8 246.634 48.2688C246.897 47.7376 247.263 47.323 247.732 47.0249C248.205 46.7268 248.756 46.5778 249.388 46.5778C249.772 46.5778 250.143 46.6412 250.503 46.7681C250.864 46.895 251.187 47.0942 251.473 47.3657C251.759 47.6373 251.985 47.9899 252.15 48.4237C252.315 48.8546 252.398 49.3784 252.398 49.9952V50.4645H246.993V49.4729H251.101C251.101 49.1246 251.03 48.8162 250.889 48.5477C250.747 48.2762 250.548 48.0622 250.291 47.9058C250.037 47.7494 249.739 47.6712 249.397 47.6712C249.025 47.6712 248.7 47.7627 248.423 47.9457C248.148 48.1257 247.936 48.3618 247.785 48.6539C247.638 48.9431 247.564 49.2574 247.564 49.5968V50.3715C247.564 50.826 247.644 51.2126 247.803 51.5313C247.965 51.8501 248.191 52.0935 248.48 52.2617C248.77 52.427 249.108 52.5096 249.494 52.5096C249.745 52.5096 249.974 52.4742 250.18 52.4034C250.387 52.3296 250.565 52.2204 250.716 52.0758C250.866 51.9312 250.982 51.7527 251.061 51.5402L252.314 51.7659C252.214 52.1348 252.034 52.458 251.774 52.7354C251.517 53.0099 251.194 53.2238 250.804 53.3773C250.418 53.5278 249.977 53.603 249.481 53.603ZM256.797 53.603C256.127 53.603 255.55 53.4599 255.066 53.1737C254.585 52.8844 254.213 52.4787 253.951 51.9563C253.691 51.431 253.561 50.8157 253.561 50.1103C253.561 49.4139 253.691 48.8 253.951 48.2688C254.213 47.7376 254.579 47.323 255.049 47.0249C255.521 46.7268 256.073 46.5778 256.704 46.5778C257.088 46.5778 257.46 46.6412 257.82 46.7681C258.18 46.895 258.503 47.0942 258.789 47.3657C259.076 47.6373 259.301 47.9899 259.467 48.4237C259.632 48.8546 259.714 49.3784 259.714 49.9952V50.4645H254.309V49.4729H258.417C258.417 49.1246 258.347 48.8162 258.205 48.5477C258.063 48.2762 257.864 48.0622 257.607 47.9058C257.354 47.7494 257.055 47.6712 256.713 47.6712C256.341 47.6712 256.017 47.7627 255.739 47.9457C255.465 48.1257 255.252 48.3618 255.102 48.6539C254.954 48.9431 254.88 49.2574 254.88 49.5968V50.3715C254.88 50.826 254.96 51.2126 255.119 51.5313C255.282 51.8501 255.508 52.0935 255.797 52.2617C256.086 52.427 256.424 52.5096 256.81 52.5096C257.061 52.5096 257.29 52.4742 257.497 52.4034C257.703 52.3296 257.882 52.2204 258.032 52.0758C258.183 51.9312 258.298 51.7527 258.378 51.5402L259.63 51.7659C259.53 52.1348 259.35 52.458 259.09 52.7354C258.834 53.0099 258.51 53.2238 258.121 53.3773C257.734 53.5278 257.293 53.603 256.797 53.603ZM263.728 53.5986C263.179 53.5986 262.69 53.4584 262.259 53.1781C261.831 52.8948 261.494 52.4919 261.249 51.9696C261.007 51.4443 260.886 50.8142 260.886 50.0793C260.886 49.3445 261.009 48.7159 261.254 48.1936C261.502 47.6712 261.841 47.2713 262.272 46.9939C262.703 46.7165 263.191 46.5778 263.737 46.5778C264.159 46.5778 264.499 46.6486 264.755 46.7903C265.015 46.929 265.216 47.0913 265.357 47.2772C265.502 47.4631 265.614 47.6269 265.694 47.7686H265.774V44.3998H267.097V53.4658H265.805V52.4078H265.694C265.614 52.5524 265.499 52.7177 265.349 52.9036C265.201 53.0895 264.997 53.2519 264.738 53.3906C264.478 53.5293 264.142 53.5986 263.728 53.5986ZM264.021 52.4698C264.401 52.4698 264.723 52.3695 264.986 52.1688C265.251 51.9651 265.452 51.6833 265.588 51.3233C265.726 50.9632 265.796 50.5442 265.796 50.0661C265.796 49.5939 265.728 49.1807 265.592 48.8266C265.456 48.4724 265.257 48.1965 264.994 47.9988C264.732 47.801 264.407 47.7022 264.021 47.7022C263.622 47.7022 263.29 47.8055 263.025 48.0121C262.759 48.2186 262.558 48.5005 262.423 48.8576C262.29 49.2147 262.223 49.6175 262.223 50.0661C262.223 50.5205 262.291 50.9293 262.427 51.2923C262.563 51.6553 262.763 51.943 263.029 52.1555C263.298 52.365 263.628 52.4698 264.021 52.4698Z" fill="#000C2E"/>
<path d="M213.048 93.8217H206.192C204.815 93.8217 203.699 92.7055 203.699 91.3286V83.8491C203.699 82.4722 204.815 81.356 206.192 81.356H218.658C220.035 81.356 221.151 82.4722 221.151 83.8491V92.5751C221.151 93.2636 220.593 93.8217 219.904 93.8217V93.8217" stroke="white" stroke-width="1.24658" stroke-linejoin="round"/>
<path d="M206.192 85.0957H218.658" stroke="white" stroke-width="1.24658" stroke-linecap="round" stroke-linejoin="round"/>
<path d="M206.192 87.5889H218.658" stroke="white" stroke-width="1.24658" stroke-linecap="round" stroke-linejoin="round"/>
<path d="M216.164 96.6543C217.978 96.6543 219.45 95.183 219.45 93.3681C219.45 91.5533 217.978 90.082 216.164 90.082C214.349 90.082 212.877 91.5533 212.877 93.3681C212.877 95.183 214.349 96.6543 216.164 96.6543Z" stroke="white" stroke-width="1.24658" stroke-linecap="round" stroke-linejoin="round"/>
<path d="M214.384 96.1331L213.816 100.41L216.163 99.0014L218.51 100.41L217.942 96.1284" stroke="white" stroke-width="1.24658" stroke-linecap="round" stroke-linejoin="round"/>
<path d="M263.335 85.9916H261.953C261.9 85.6965 261.801 85.4368 261.657 85.2125C261.512 84.9882 261.335 84.7978 261.126 84.6414C260.916 84.485 260.681 84.367 260.422 84.2873C260.165 84.2076 259.892 84.1678 259.603 84.1678C259.08 84.1678 258.613 84.2991 258.199 84.5618C257.789 84.8244 257.465 85.2095 257.226 85.7171C256.99 86.2247 256.871 86.8445 256.871 87.5764C256.871 88.3142 256.99 88.9369 257.226 89.4445C257.465 89.9521 257.791 90.3357 258.204 90.5954C258.617 90.8551 259.082 90.985 259.598 90.985C259.885 90.985 260.156 90.9466 260.413 90.8699C260.673 90.7902 260.907 90.6736 261.117 90.5202C261.326 90.3667 261.503 90.1793 261.648 89.958C261.795 89.7337 261.897 89.4769 261.953 89.1877L263.335 89.1921C263.261 89.6378 263.118 90.048 262.905 90.4228C262.696 90.7946 262.426 91.1163 262.095 91.3878C261.767 91.6564 261.393 91.8644 260.971 92.012C260.549 92.1595 260.088 92.2333 259.589 92.2333C258.804 92.2333 258.105 92.0474 257.491 91.6756C256.877 91.3008 256.393 90.7651 256.039 90.0686C255.688 89.3722 255.512 88.5414 255.512 87.5764C255.512 86.6084 255.69 85.7776 256.044 85.0841C256.398 84.3876 256.882 83.8535 257.496 83.4816C258.109 83.1068 258.807 82.9194 259.589 82.9194C260.071 82.9194 260.519 82.9888 260.935 83.1275C261.354 83.2632 261.731 83.4639 262.064 83.7295C262.398 83.9922 262.673 84.3139 262.892 84.6946C263.11 85.0723 263.258 85.5047 263.335 85.9916ZM267.796 92.2466C267.126 92.2466 266.549 92.1035 266.065 91.8172C265.584 91.528 265.212 91.1222 264.949 90.5999C264.689 90.0745 264.56 89.4592 264.56 88.7539C264.56 88.0574 264.689 87.4436 264.949 86.9124C265.212 86.3811 265.578 85.9665 266.047 85.6684C266.519 85.3704 267.071 85.2213 267.703 85.2213C268.086 85.2213 268.458 85.2848 268.818 85.4117C269.178 85.5386 269.501 85.7378 269.788 86.0093C270.074 86.2808 270.3 86.6335 270.465 87.0673C270.63 87.4982 270.713 88.022 270.713 88.6388V89.108H265.308V88.1164H269.416C269.416 87.7682 269.345 87.4598 269.203 87.1912C269.062 86.9197 268.862 86.7058 268.606 86.5494C268.352 86.393 268.054 86.3147 267.711 86.3147C267.34 86.3147 267.015 86.4062 266.738 86.5892C266.463 86.7692 266.251 87.0053 266.1 87.2975C265.953 87.5867 265.879 87.901 265.879 88.2404V89.0151C265.879 89.4696 265.958 89.8562 266.118 90.1749C266.28 90.4936 266.506 90.7371 266.795 90.9053C267.084 91.0706 267.422 91.1532 267.809 91.1532C268.06 91.1532 268.288 91.1178 268.495 91.047C268.702 90.9732 268.88 90.864 269.031 90.7194C269.181 90.5748 269.296 90.3962 269.376 90.1837L270.629 90.4095C270.528 90.7784 270.348 91.1015 270.089 91.379C269.832 91.6534 269.509 91.8674 269.119 92.0208C268.733 92.1713 268.291 92.2466 267.796 92.2466ZM272.181 92.1094V85.3099H273.461V86.39H273.532C273.656 86.0241 273.874 85.7363 274.187 85.5268C274.503 85.3143 274.86 85.2081 275.258 85.2081C275.341 85.2081 275.438 85.211 275.55 85.2169C275.665 85.2228 275.755 85.2302 275.82 85.239V86.5051C275.767 86.4903 275.673 86.4741 275.537 86.4564C275.401 86.4357 275.265 86.4254 275.13 86.4254C274.817 86.4254 274.538 86.4918 274.293 86.6246C274.051 86.7545 273.859 86.936 273.717 87.1691C273.576 87.3993 273.505 87.662 273.505 87.9571V92.1094H272.181ZM280.541 85.3099V86.3723H276.827V85.3099H280.541ZM277.823 83.6808H279.147V90.1129C279.147 90.3697 279.185 90.563 279.262 90.6928C279.339 90.8197 279.438 90.9068 279.559 90.954C279.683 90.9983 279.817 91.0204 279.961 91.0204C280.068 91.0204 280.161 91.013 280.24 90.9983C280.32 90.9835 280.382 90.9717 280.426 90.9628L280.665 92.0563C280.589 92.0858 280.479 92.1153 280.338 92.1448C280.196 92.1773 280.019 92.195 279.807 92.1979C279.458 92.2038 279.134 92.1418 278.833 92.012C278.532 91.8821 278.288 91.6815 278.102 91.4099C277.916 91.1384 277.823 90.7976 277.823 90.3874V83.6808ZM282.005 92.1094V85.3099H283.329V92.1094H282.005ZM282.674 84.2607C282.444 84.2607 282.246 84.184 282.081 84.0305C281.918 83.8741 281.837 83.6882 281.837 83.4728C281.837 83.2544 281.918 83.0685 282.081 82.915C282.246 82.7586 282.444 82.6804 282.674 82.6804C282.904 82.6804 283.1 82.7586 283.263 82.915C283.428 83.0685 283.511 83.2544 283.511 83.4728C283.511 83.6882 283.428 83.8741 283.263 84.0305C283.1 84.184 282.904 84.2607 282.674 84.2607ZM288.346 85.3099V86.3723H284.503V85.3099H288.346ZM285.557 92.1094V84.5219C285.557 84.0969 285.65 83.7443 285.836 83.4639C286.022 83.1806 286.268 82.9696 286.575 82.8309C286.882 82.6892 287.215 82.6184 287.575 82.6184C287.841 82.6184 288.068 82.6405 288.257 82.6848C288.446 82.7261 288.586 82.7645 288.678 82.7999L288.368 83.8712C288.306 83.8535 288.226 83.8328 288.129 83.8092C288.031 83.7826 287.913 83.7694 287.775 83.7694C287.453 83.7694 287.223 83.849 287.084 84.0084C286.948 84.1678 286.88 84.398 286.88 84.699V92.1094H285.557ZM289.711 92.1094V85.3099H291.035V92.1094H289.711ZM290.38 84.2607C290.15 84.2607 289.952 84.184 289.787 84.0305C289.624 83.8741 289.543 83.6882 289.543 83.4728C289.543 83.2544 289.624 83.0685 289.787 82.915C289.952 82.7586 290.15 82.6804 290.38 82.6804C290.61 82.6804 290.806 82.7586 290.969 82.915C291.134 83.0685 291.216 83.2544 291.216 83.4728C291.216 83.6882 291.134 83.8741 290.969 84.0305C290.806 84.184 290.61 84.2607 290.38 84.2607ZM295.68 92.2466C295.022 92.2466 294.455 92.0976 293.98 91.7995C293.508 91.4985 293.145 91.0838 292.891 90.5556C292.637 90.0273 292.51 89.4223 292.51 88.7406C292.51 88.05 292.64 87.4406 292.9 86.9124C293.159 86.3811 293.525 85.9665 293.998 85.6684C294.47 85.3704 295.026 85.2213 295.666 85.2213C296.183 85.2213 296.643 85.3173 297.048 85.5091C297.452 85.698 297.778 85.9636 298.026 86.3059C298.277 86.6482 298.426 87.0481 298.473 87.5055H297.185C297.114 87.1868 296.952 86.9124 296.698 86.6822C296.447 86.452 296.111 86.3369 295.689 86.3369C295.32 86.3369 294.997 86.4343 294.719 86.629C294.445 86.8209 294.231 87.0953 294.077 87.4524C293.924 87.8066 293.847 88.2256 293.847 88.7096C293.847 89.2054 293.922 89.6333 294.073 89.9934C294.223 90.3534 294.436 90.6323 294.71 90.83C294.988 91.0278 295.314 91.1266 295.689 91.1266C295.939 91.1266 296.167 91.0809 296.37 90.9894C296.577 90.895 296.75 90.7607 296.888 90.5866C297.03 90.4125 297.129 90.2029 297.185 89.958H298.473C298.426 90.3977 298.283 90.7902 298.044 91.1355C297.805 91.4808 297.484 91.7523 297.083 91.95C296.685 92.1477 296.217 92.2466 295.68 92.2466ZM301.867 92.2599C301.436 92.2599 301.047 92.1802 300.699 92.0208C300.35 91.8585 300.074 91.6239 299.871 91.317C299.67 91.0101 299.57 90.6338 299.57 90.1882C299.57 89.8045 299.644 89.4887 299.791 89.2408C299.939 88.9929 300.138 88.7967 300.389 88.6521C300.64 88.5075 300.92 88.3983 301.23 88.3245C301.54 88.2507 301.855 88.1946 302.177 88.1563C302.584 88.1091 302.915 88.0707 303.169 88.0412C303.423 88.0087 303.607 87.9571 303.722 87.8862C303.837 87.8154 303.895 87.7003 303.895 87.541V87.51C303.895 87.1234 303.786 86.8238 303.567 86.6113C303.352 86.3989 303.03 86.2926 302.602 86.2926C302.156 86.2926 301.805 86.3915 301.549 86.5892C301.295 86.784 301.119 87.0009 301.022 87.2399L299.778 86.9566C299.925 86.5435 300.141 86.21 300.424 85.9562C300.71 85.6994 301.039 85.5135 301.411 85.3984C301.783 85.2804 302.174 85.2213 302.584 85.2213C302.856 85.2213 303.144 85.2538 303.448 85.3187C303.755 85.3807 304.041 85.4958 304.306 85.664C304.575 85.8322 304.795 86.0728 304.966 86.3856C305.137 86.6954 305.223 87.0983 305.223 87.5941V92.1094H303.93V91.1798H303.877C303.791 91.3509 303.663 91.5191 303.492 91.6844C303.321 91.8497 303.101 91.9869 302.832 92.0961C302.564 92.2053 302.242 92.2599 301.867 92.2599ZM302.155 91.1975C302.521 91.1975 302.834 91.1252 303.093 90.9806C303.356 90.8359 303.555 90.6471 303.691 90.4139C303.83 90.1778 303.899 89.9255 303.899 89.657V88.7805C303.852 88.8277 303.76 88.8719 303.625 88.9133C303.492 88.9516 303.34 88.9856 303.169 89.0151C302.998 89.0416 302.831 89.0667 302.669 89.0903C302.506 89.111 302.37 89.1287 302.261 89.1434C302.004 89.1759 301.77 89.2305 301.557 89.3072C301.348 89.384 301.18 89.4946 301.053 89.6392C300.929 89.7809 300.867 89.9698 300.867 90.2059C300.867 90.5334 300.988 90.7813 301.23 90.9496C301.472 91.1148 301.78 91.1975 302.155 91.1975ZM310.16 85.3099V86.3723H306.446V85.3099H310.16ZM307.442 83.6808H308.765V90.1129C308.765 90.3697 308.804 90.563 308.88 90.6928C308.957 90.8197 309.056 90.9068 309.177 90.954C309.301 90.9983 309.435 91.0204 309.58 91.0204C309.686 91.0204 309.779 91.013 309.859 90.9983C309.938 90.9835 310 90.9717 310.045 90.9628L310.284 92.0563C310.207 92.0858 310.098 92.1153 309.956 92.1448C309.814 92.1773 309.637 92.195 309.425 92.1979C309.077 92.2038 308.752 92.1418 308.451 92.012C308.15 91.8821 307.906 91.6815 307.721 91.4099C307.535 91.1384 307.442 90.7976 307.442 90.3874V83.6808ZM314.481 92.2466C313.811 92.2466 313.234 92.1035 312.75 91.8172C312.269 91.528 311.898 91.1222 311.635 90.5999C311.375 90.0745 311.245 89.4592 311.245 88.7539C311.245 88.0574 311.375 87.4436 311.635 86.9124C311.898 86.3811 312.264 85.9665 312.733 85.6684C313.205 85.3704 313.757 85.2213 314.388 85.2213C314.772 85.2213 315.144 85.2848 315.504 85.4117C315.864 85.5386 316.187 85.7378 316.473 86.0093C316.76 86.2808 316.985 86.6335 317.151 87.0673C317.316 87.4982 317.399 88.022 317.399 88.6388V89.108H311.993V88.1164H316.102C316.102 87.7682 316.031 87.4598 315.889 87.1912C315.747 86.9197 315.548 86.7058 315.291 86.5494C315.038 86.393 314.74 86.3147 314.397 86.3147C314.025 86.3147 313.701 86.4062 313.423 86.5892C313.149 86.7692 312.936 87.0053 312.786 87.2975C312.638 87.5867 312.565 87.901 312.565 88.2404V89.0151C312.565 89.4696 312.644 89.8562 312.804 90.1749C312.966 90.4936 313.192 90.7371 313.481 90.9053C313.77 91.0706 314.108 91.1532 314.495 91.1532C314.745 91.1532 314.974 91.1178 315.181 91.047C315.387 90.9732 315.566 90.864 315.716 90.7194C315.867 90.5748 315.982 90.3962 316.062 90.1837L317.314 90.4095C317.214 90.7784 317.034 91.1015 316.774 91.379C316.518 91.6534 316.194 91.8674 315.805 92.0208C315.418 92.1713 314.977 92.2466 314.481 92.2466ZM323.962 86.9699L322.763 87.1824C322.712 87.0289 322.633 86.8828 322.524 86.7441C322.417 86.6054 322.273 86.4918 322.09 86.4033C321.907 86.3147 321.678 86.2705 321.404 86.2705C321.029 86.2705 320.716 86.3546 320.465 86.5228C320.214 86.6881 320.089 86.902 320.089 87.1647C320.089 87.3919 320.173 87.5749 320.341 87.7136C320.509 87.8523 320.781 87.9659 321.156 88.0545L322.236 88.3024C322.862 88.447 323.328 88.6698 323.635 88.9708C323.942 89.2718 324.095 89.6629 324.095 90.1439C324.095 90.5512 323.977 90.9142 323.741 91.2329C323.508 91.5487 323.182 91.7966 322.763 91.9766C322.347 92.1566 321.864 92.2466 321.315 92.2466C320.554 92.2466 319.932 92.0843 319.451 91.7597C318.97 91.4321 318.675 90.9673 318.566 90.3652L319.845 90.1705C319.925 90.5039 320.089 90.7563 320.337 90.9274C320.585 91.0956 320.908 91.1798 321.306 91.1798C321.74 91.1798 322.087 91.0897 322.347 90.9097C322.606 90.7268 322.736 90.5039 322.736 90.2413C322.736 90.0288 322.656 89.8503 322.497 89.7056C322.341 89.561 322.1 89.4518 321.775 89.3781L320.625 89.1257C319.99 88.9811 319.521 88.7509 319.217 88.4352C318.916 88.1194 318.765 87.7195 318.765 87.2355C318.765 86.8342 318.877 86.483 319.102 86.1819C319.326 85.8809 319.636 85.6463 320.031 85.4781C320.427 85.3069 320.88 85.2213 321.39 85.2213C322.125 85.2213 322.704 85.3807 323.126 85.6994C323.548 86.0152 323.827 86.4387 323.962 86.9699Z" fill="#476CD2"/>
<path d="M255.805 129.507V120.441H259.036C259.741 120.441 260.326 120.569 260.789 120.826C261.252 121.083 261.599 121.434 261.829 121.88C262.06 122.322 262.175 122.821 262.175 123.376C262.175 123.934 262.058 124.435 261.825 124.881C261.595 125.324 261.247 125.675 260.78 125.934C260.317 126.191 259.734 126.32 259.032 126.32H256.809V125.16H258.908C259.353 125.16 259.715 125.083 259.992 124.93C260.27 124.773 260.473 124.561 260.603 124.292C260.733 124.024 260.798 123.718 260.798 123.376C260.798 123.033 260.733 122.729 260.603 122.464C260.473 122.198 260.268 121.99 259.988 121.84C259.71 121.689 259.345 121.614 258.89 121.614H257.172V129.507H255.805ZM265.59 129.657C265.159 129.657 264.77 129.578 264.421 129.418C264.073 129.256 263.797 129.021 263.593 128.714C263.393 128.408 263.292 128.031 263.292 127.586C263.292 127.202 263.366 126.886 263.514 126.638C263.661 126.39 263.861 126.194 264.111 126.05C264.362 125.905 264.643 125.796 264.953 125.722C265.262 125.648 265.578 125.592 265.9 125.554C266.307 125.507 266.638 125.468 266.891 125.439C267.145 125.406 267.33 125.355 267.445 125.284C267.56 125.213 267.617 125.098 267.617 124.938V124.907C267.617 124.521 267.508 124.221 267.29 124.009C267.074 123.796 266.753 123.69 266.325 123.69C265.879 123.69 265.528 123.789 265.271 123.987C265.017 124.181 264.842 124.398 264.744 124.637L263.501 124.354C263.648 123.941 263.864 123.607 264.147 123.354C264.433 123.097 264.762 122.911 265.134 122.796C265.506 122.678 265.897 122.619 266.307 122.619C266.579 122.619 266.866 122.651 267.17 122.716C267.477 122.778 267.764 122.893 268.029 123.061C268.298 123.23 268.518 123.47 268.689 123.783C268.86 124.093 268.945 124.496 268.945 124.992V129.507H267.653V128.577H267.6C267.514 128.748 267.386 128.917 267.215 129.082C267.043 129.247 266.824 129.384 266.555 129.494C266.286 129.603 265.965 129.657 265.59 129.657ZM265.878 128.595C266.244 128.595 266.556 128.523 266.816 128.378C267.079 128.233 267.278 128.045 267.414 127.811C267.552 127.575 267.622 127.323 267.622 127.054V126.178C267.575 126.225 267.483 126.269 267.347 126.311C267.215 126.349 267.063 126.383 266.891 126.413C266.72 126.439 266.554 126.464 266.391 126.488C266.229 126.508 266.093 126.526 265.984 126.541C265.727 126.573 265.493 126.628 265.28 126.705C265.071 126.781 264.902 126.892 264.775 127.037C264.651 127.178 264.59 127.367 264.59 127.603C264.59 127.931 264.711 128.179 264.953 128.347C265.195 128.512 265.503 128.595 265.878 128.595ZM275.804 124.367L274.604 124.58C274.554 124.426 274.474 124.28 274.365 124.142C274.259 124.003 274.114 123.889 273.931 123.801C273.748 123.712 273.519 123.668 273.245 123.668C272.87 123.668 272.557 123.752 272.306 123.92C272.056 124.086 271.93 124.299 271.93 124.562C271.93 124.789 272.014 124.972 272.183 125.111C272.351 125.25 272.622 125.363 272.997 125.452L274.077 125.7C274.703 125.844 275.169 126.067 275.476 126.368C275.783 126.669 275.936 127.06 275.936 127.541C275.936 127.949 275.818 128.312 275.582 128.63C275.349 128.946 275.023 129.194 274.604 129.374C274.188 129.554 273.705 129.644 273.156 129.644C272.395 129.644 271.774 129.482 271.293 129.157C270.812 128.83 270.517 128.365 270.407 127.763L271.687 127.568C271.766 127.901 271.93 128.154 272.178 128.325C272.426 128.493 272.749 128.577 273.148 128.577C273.581 128.577 273.928 128.487 274.188 128.307C274.448 128.124 274.577 127.901 274.577 127.639C274.577 127.426 274.498 127.248 274.338 127.103C274.182 126.958 273.941 126.849 273.617 126.776L272.466 126.523C271.831 126.379 271.362 126.148 271.058 125.833C270.757 125.517 270.607 125.117 270.607 124.633C270.607 124.232 270.719 123.88 270.943 123.579C271.167 123.278 271.477 123.044 271.873 122.876C272.268 122.704 272.721 122.619 273.232 122.619C273.966 122.619 274.545 122.778 274.967 123.097C275.389 123.413 275.668 123.836 275.804 124.367ZM282.487 124.367L281.287 124.58C281.237 124.426 281.157 124.28 281.048 124.142C280.942 124.003 280.797 123.889 280.614 123.801C280.431 123.712 280.203 123.668 279.928 123.668C279.553 123.668 279.241 123.752 278.99 123.92C278.739 124.086 278.613 124.299 278.613 124.562C278.613 124.789 278.698 124.972 278.866 125.111C279.034 125.25 279.306 125.363 279.68 125.452L280.76 125.7C281.386 125.844 281.852 126.067 282.159 126.368C282.466 126.669 282.62 127.06 282.62 127.541C282.62 127.949 282.502 128.312 282.266 128.63C282.032 128.946 281.706 129.194 281.287 129.374C280.871 129.554 280.389 129.644 279.84 129.644C279.078 129.644 278.457 129.482 277.976 129.157C277.495 128.83 277.2 128.365 277.091 127.763L278.37 127.568C278.45 127.901 278.613 128.154 278.861 128.325C279.109 128.493 279.432 128.577 279.831 128.577C280.265 128.577 280.611 128.487 280.871 128.307C281.131 128.124 281.261 127.901 281.261 127.639C281.261 127.426 281.181 127.248 281.022 127.103C280.865 126.958 280.625 126.849 280.3 126.776L279.149 126.523C278.515 126.379 278.045 126.148 277.741 125.833C277.44 125.517 277.29 125.117 277.29 124.633C277.29 124.232 277.402 123.88 277.626 123.579C277.851 123.278 278.16 123.044 278.556 122.876C278.951 122.704 279.404 122.619 279.915 122.619C280.65 122.619 281.228 122.778 281.65 123.097C282.072 123.413 282.351 123.836 282.487 124.367ZM284.075 132.057V122.707H285.368V123.81H285.478C285.555 123.668 285.666 123.504 285.81 123.318C285.955 123.132 286.156 122.97 286.412 122.831C286.669 122.69 287.008 122.619 287.43 122.619C287.979 122.619 288.469 122.758 288.9 123.035C289.331 123.312 289.669 123.712 289.914 124.235C290.162 124.757 290.286 125.386 290.286 126.12C290.286 126.855 290.163 127.485 289.918 128.011C289.673 128.533 289.337 128.936 288.909 129.219C288.481 129.499 287.993 129.64 287.444 129.64C287.031 129.64 286.693 129.57 286.43 129.432C286.17 129.293 285.967 129.131 285.819 128.945C285.672 128.759 285.558 128.593 285.478 128.449H285.399V132.057H284.075ZM285.372 126.107C285.372 126.585 285.441 127.004 285.58 127.364C285.719 127.724 285.919 128.006 286.182 128.21C286.445 128.41 286.766 128.511 287.147 128.511C287.543 128.511 287.873 128.406 288.139 128.197C288.404 127.984 288.605 127.696 288.741 127.333C288.88 126.97 288.949 126.562 288.949 126.107C288.949 125.659 288.881 125.256 288.745 124.899C288.612 124.541 288.412 124.26 288.143 124.053C287.878 123.846 287.546 123.743 287.147 123.743C286.764 123.743 286.439 123.842 286.173 124.04C285.911 124.238 285.711 124.513 285.576 124.868C285.44 125.222 285.372 125.635 285.372 126.107ZM294.633 129.644C293.995 129.644 293.439 129.498 292.964 129.206C292.489 128.914 292.12 128.505 291.857 127.98C291.595 127.454 291.463 126.84 291.463 126.138C291.463 125.433 291.595 124.816 291.857 124.288C292.12 123.759 292.489 123.349 292.964 123.057C293.439 122.765 293.995 122.619 294.633 122.619C295.27 122.619 295.827 122.765 296.302 123.057C296.777 123.349 297.146 123.759 297.408 124.288C297.671 124.816 297.802 125.433 297.802 126.138C297.802 126.84 297.671 127.454 297.408 127.98C297.146 128.505 296.777 128.914 296.302 129.206C295.827 129.498 295.27 129.644 294.633 129.644ZM294.637 128.533C295.05 128.533 295.393 128.424 295.664 128.205C295.936 127.987 296.136 127.696 296.266 127.333C296.399 126.97 296.466 126.57 296.466 126.134C296.466 125.7 296.399 125.301 296.266 124.938C296.136 124.572 295.936 124.279 295.664 124.057C295.393 123.836 295.05 123.725 294.637 123.725C294.221 123.725 293.876 123.836 293.601 124.057C293.33 124.279 293.128 124.572 292.995 124.938C292.865 125.301 292.8 125.7 292.8 126.134C292.8 126.57 292.865 126.97 292.995 127.333C293.128 127.696 293.33 127.987 293.601 128.205C293.876 128.424 294.221 128.533 294.637 128.533ZM299.28 129.507V122.707H300.559V123.787H300.63C300.754 123.422 300.972 123.134 301.285 122.924C301.601 122.712 301.958 122.606 302.356 122.606C302.439 122.606 302.536 122.608 302.649 122.614C302.764 122.62 302.854 122.628 302.919 122.637V123.903C302.865 123.888 302.771 123.872 302.635 123.854C302.5 123.833 302.364 123.823 302.228 123.823C301.915 123.823 301.636 123.889 301.391 124.022C301.149 124.152 300.958 124.333 300.816 124.567C300.674 124.797 300.603 125.059 300.603 125.355V129.507H299.28ZM307.64 122.707V123.77H303.926V122.707H307.64ZM304.922 121.078H306.245V127.51C306.245 127.767 306.284 127.96 306.36 128.09C306.437 128.217 306.536 128.304 306.657 128.351C306.781 128.396 306.915 128.418 307.06 128.418C307.166 128.418 307.259 128.41 307.339 128.396C307.418 128.381 307.48 128.369 307.525 128.36L307.764 129.454C307.687 129.483 307.578 129.513 307.436 129.542C307.294 129.575 307.117 129.592 306.905 129.595C306.557 129.601 306.232 129.539 305.931 129.409C305.63 129.28 305.387 129.079 305.201 128.807C305.015 128.536 304.922 128.195 304.922 127.785V121.078Z" fill="#476CD2"/>
<path d="M255.105 157.838H256.659L259.027 161.96H259.125L261.493 157.838H263.047L259.758 163.345V166.904H258.394V163.345L255.105 157.838ZM265.976 167.042C265.339 167.042 264.782 166.895 264.307 166.603C263.832 166.311 263.463 165.902 263.201 165.377C262.938 164.852 262.807 164.238 262.807 163.536C262.807 162.83 262.938 162.213 263.201 161.685C263.463 161.157 263.832 160.747 264.307 160.455C264.782 160.162 265.339 160.016 265.976 160.016C266.614 160.016 267.17 160.162 267.645 160.455C268.12 160.747 268.489 161.157 268.752 161.685C269.014 162.213 269.146 162.83 269.146 163.536C269.146 164.238 269.014 164.852 268.752 165.377C268.489 165.902 268.12 166.311 267.645 166.603C267.17 166.895 266.614 167.042 265.976 167.042ZM265.981 165.93C266.394 165.93 266.736 165.821 267.008 165.603C267.279 165.384 267.48 165.094 267.61 164.731C267.742 164.368 267.809 163.968 267.809 163.531C267.809 163.097 267.742 162.699 267.61 162.336C267.48 161.97 267.279 161.676 267.008 161.455C266.736 161.234 266.394 161.123 265.981 161.123C265.565 161.123 265.219 161.234 264.945 161.455C264.673 161.676 264.471 161.97 264.338 162.336C264.208 162.699 264.144 163.097 264.144 163.531C264.144 163.968 264.208 164.368 264.338 164.731C264.471 165.094 264.673 165.384 264.945 165.603C265.219 165.821 265.565 165.93 265.981 165.93ZM274.93 164.084V160.105H276.258V166.904H274.957V165.727H274.886C274.73 166.09 274.479 166.392 274.134 166.634C273.791 166.873 273.365 166.993 272.854 166.993C272.418 166.993 272.031 166.897 271.694 166.705C271.361 166.51 271.098 166.223 270.907 165.842C270.718 165.461 270.623 164.99 270.623 164.43V160.105H271.947V164.27C271.947 164.734 272.075 165.103 272.332 165.377C272.589 165.652 272.922 165.789 273.332 165.789C273.58 165.789 273.827 165.727 274.072 165.603C274.32 165.479 274.525 165.291 274.687 165.041C274.852 164.79 274.933 164.471 274.93 164.084ZM278.037 166.904V160.105H279.316V161.185H279.387C279.511 160.819 279.729 160.531 280.042 160.322C280.358 160.109 280.715 160.003 281.114 160.003C281.196 160.003 281.294 160.006 281.406 160.012C281.521 160.018 281.611 160.025 281.676 160.034V161.3C281.623 161.285 281.528 161.269 281.392 161.251C281.257 161.231 281.121 161.22 280.985 161.22C280.672 161.22 280.393 161.287 280.148 161.42C279.906 161.549 279.715 161.731 279.573 161.964C279.431 162.194 279.361 162.457 279.361 162.752V166.904H278.037ZM286.226 166.904V157.838H291.91V159.016H287.594V161.778H291.614V162.951H287.594V165.727H291.963V166.904H286.226ZM293.631 166.904V160.105H294.902V161.211H294.986C295.128 160.837 295.359 160.545 295.681 160.335C296.003 160.123 296.388 160.016 296.836 160.016C297.291 160.016 297.671 160.123 297.978 160.335C298.288 160.547 298.517 160.84 298.664 161.211H298.735C298.898 160.848 299.156 160.559 299.51 160.344C299.864 160.125 300.286 160.016 300.776 160.016C301.393 160.016 301.896 160.21 302.286 160.596C302.678 160.983 302.874 161.566 302.874 162.345V166.904H301.551V162.469C301.551 162.008 301.425 161.675 301.174 161.468C300.924 161.262 300.624 161.158 300.276 161.158C299.845 161.158 299.51 161.291 299.271 161.557C299.032 161.819 298.912 162.157 298.912 162.57V166.904H297.593V162.385C297.593 162.016 297.478 161.719 297.248 161.495C297.018 161.271 296.718 161.158 296.349 161.158C296.098 161.158 295.867 161.225 295.654 161.358C295.445 161.487 295.275 161.669 295.145 161.902C295.018 162.135 294.955 162.405 294.955 162.712V166.904H293.631ZM306.627 167.055C306.196 167.055 305.807 166.975 305.458 166.816C305.11 166.653 304.834 166.419 304.631 166.112C304.43 165.805 304.33 165.429 304.33 164.983C304.33 164.599 304.403 164.284 304.551 164.036C304.699 163.788 304.898 163.592 305.149 163.447C305.399 163.302 305.68 163.193 305.99 163.119C306.3 163.046 306.615 162.99 306.937 162.951C307.344 162.904 307.675 162.866 307.929 162.836C308.182 162.804 308.367 162.752 308.482 162.681C308.597 162.61 308.655 162.495 308.655 162.336V162.305C308.655 161.918 308.545 161.619 308.327 161.406C308.112 161.194 307.79 161.088 307.362 161.088C306.916 161.088 306.565 161.186 306.308 161.384C306.055 161.579 305.879 161.796 305.782 162.035L304.538 161.752C304.685 161.338 304.901 161.005 305.184 160.751C305.47 160.494 305.799 160.308 306.171 160.193C306.543 160.075 306.934 160.016 307.344 160.016C307.616 160.016 307.904 160.049 308.207 160.114C308.514 160.176 308.801 160.291 309.066 160.459C309.335 160.627 309.555 160.868 309.726 161.18C309.897 161.49 309.983 161.893 309.983 162.389V166.904H308.69V165.975H308.637C308.551 166.146 308.423 166.314 308.252 166.479C308.081 166.645 307.861 166.782 307.592 166.891C307.324 167 307.002 167.055 306.627 167.055ZM306.915 165.992C307.281 165.992 307.594 165.92 307.853 165.775C308.116 165.631 308.315 165.442 308.451 165.209C308.59 164.973 308.659 164.72 308.659 164.452V163.575C308.612 163.623 308.52 163.667 308.385 163.708C308.252 163.747 308.1 163.78 307.929 163.81C307.757 163.837 307.591 163.862 307.428 163.885C307.266 163.906 307.13 163.924 307.021 163.938C306.764 163.971 306.53 164.025 306.317 164.102C306.108 164.179 305.94 164.29 305.813 164.434C305.689 164.576 305.627 164.765 305.627 165.001C305.627 165.328 305.748 165.576 305.99 165.744C306.232 165.91 306.54 165.992 306.915 165.992ZM311.746 166.904V160.105H313.069V166.904H311.746ZM312.414 159.056C312.184 159.056 311.986 158.979 311.821 158.825C311.659 158.669 311.577 158.483 311.577 158.268C311.577 158.049 311.659 157.863 311.821 157.71C311.986 157.554 312.184 157.475 312.414 157.475C312.644 157.475 312.84 157.554 313.003 157.71C313.168 157.863 313.251 158.049 313.251 158.268C313.251 158.483 313.168 158.669 313.003 158.825C312.84 158.979 312.644 159.056 312.414 159.056ZM316.173 157.838V166.904H314.85V157.838H316.173Z" fill="#476CD2"/>
<path d="M255.105 195.235H256.659L259.027 199.357H259.125L261.493 195.235H263.047L259.758 200.742V204.301H258.394V200.742L255.105 195.235ZM265.976 204.438C265.339 204.438 264.782 204.292 264.307 204C263.832 203.708 263.463 203.299 263.201 202.774C262.938 202.249 262.807 201.635 262.807 200.933C262.807 200.227 262.938 199.61 263.201 199.082C263.463 198.554 263.832 198.144 264.307 197.851C264.782 197.559 265.339 197.413 265.976 197.413C266.614 197.413 267.17 197.559 267.645 197.851C268.12 198.144 268.489 198.554 268.752 199.082C269.014 199.61 269.146 200.227 269.146 200.933C269.146 201.635 269.014 202.249 268.752 202.774C268.489 203.299 268.12 203.708 267.645 204C267.17 204.292 266.614 204.438 265.976 204.438ZM265.981 203.327C266.394 203.327 266.736 203.218 267.008 203C267.279 202.781 267.48 202.491 267.61 202.128C267.742 201.765 267.809 201.365 267.809 200.928C267.809 200.494 267.742 200.096 267.61 199.733C267.48 199.367 267.279 199.073 267.008 198.852C266.736 198.631 266.394 198.52 265.981 198.52C265.565 198.52 265.219 198.631 264.945 198.852C264.673 199.073 264.471 199.367 264.338 199.733C264.208 200.096 264.144 200.494 264.144 200.928C264.144 201.365 264.208 201.765 264.338 202.128C264.471 202.491 264.673 202.781 264.945 203C265.219 203.218 265.565 203.327 265.981 203.327ZM274.93 201.481V197.502H276.258V204.301H274.957V203.124H274.886C274.73 203.487 274.479 203.789 274.134 204.031C273.791 204.27 273.365 204.39 272.854 204.39C272.418 204.39 272.031 204.294 271.694 204.102C271.361 203.907 271.098 203.62 270.907 203.239C270.718 202.858 270.623 202.387 270.623 201.827V197.502H271.947V201.667C271.947 202.131 272.075 202.5 272.332 202.774C272.589 203.048 272.922 203.186 273.332 203.186C273.58 203.186 273.827 203.124 274.072 203C274.32 202.876 274.525 202.688 274.687 202.438C274.852 202.187 274.933 201.868 274.93 201.481ZM278.037 204.301V197.502H279.316V198.582H279.387C279.511 198.216 279.729 197.928 280.042 197.719C280.358 197.506 280.715 197.4 281.114 197.4C281.196 197.4 281.294 197.403 281.406 197.409C281.521 197.415 281.611 197.422 281.676 197.431V198.697C281.623 198.682 281.528 198.666 281.392 198.648C281.257 198.628 281.121 198.617 280.985 198.617C280.672 198.617 280.393 198.684 280.148 198.817C279.906 198.946 279.715 199.128 279.573 199.361C279.431 199.591 279.361 199.854 279.361 200.149V204.301H278.037ZM286.226 204.301V195.235H289.458C290.163 195.235 290.748 195.364 291.211 195.62C291.674 195.877 292.021 196.228 292.251 196.674C292.481 197.117 292.597 197.615 292.597 198.17C292.597 198.728 292.48 199.23 292.247 199.675C292.017 200.118 291.668 200.469 291.202 200.729C290.739 200.986 290.156 201.114 289.454 201.114H287.231V199.954H289.33C289.775 199.954 290.137 199.877 290.414 199.724C290.692 199.568 290.895 199.355 291.025 199.087C291.155 198.818 291.22 198.513 291.22 198.17C291.22 197.828 291.155 197.524 291.025 197.258C290.895 196.993 290.69 196.785 290.41 196.634C290.132 196.484 289.766 196.408 289.312 196.408H287.594V204.301H286.226ZM295.417 200.264V204.301H294.094V195.235H295.4V198.608H295.484C295.643 198.243 295.887 197.952 296.214 197.736C296.542 197.521 296.97 197.413 297.498 197.413C297.964 197.413 298.372 197.509 298.72 197.701C299.071 197.893 299.343 198.179 299.534 198.56C299.729 198.938 299.827 199.41 299.827 199.976V204.301H298.503V200.136C298.503 199.637 298.375 199.25 298.118 198.976C297.861 198.698 297.504 198.56 297.047 198.56C296.734 198.56 296.453 198.626 296.205 198.759C295.96 198.892 295.767 199.087 295.626 199.343C295.487 199.597 295.417 199.904 295.417 200.264ZM304.457 204.438C303.819 204.438 303.263 204.292 302.788 204C302.313 203.708 301.944 203.299 301.681 202.774C301.419 202.249 301.287 201.635 301.287 200.933C301.287 200.227 301.419 199.61 301.681 199.082C301.944 198.554 302.313 198.144 302.788 197.851C303.263 197.559 303.819 197.413 304.457 197.413C305.094 197.413 305.651 197.559 306.126 197.851C306.601 198.144 306.97 198.554 307.232 199.082C307.495 199.61 307.626 200.227 307.626 200.933C307.626 201.635 307.495 202.249 307.232 202.774C306.97 203.299 306.601 203.708 306.126 204C305.651 204.292 305.094 204.438 304.457 204.438ZM304.461 203.327C304.875 203.327 305.217 203.218 305.488 203C305.76 202.781 305.961 202.491 306.09 202.128C306.223 201.765 306.29 201.365 306.29 200.928C306.29 200.494 306.223 200.096 306.09 199.733C305.961 199.367 305.76 199.073 305.488 198.852C305.217 198.631 304.875 198.52 304.461 198.52C304.045 198.52 303.7 198.631 303.425 198.852C303.154 199.073 302.952 199.367 302.819 199.733C302.689 200.096 302.624 200.494 302.624 200.928C302.624 201.365 302.689 201.765 302.819 202.128C302.952 202.491 303.154 202.781 303.425 203C303.7 203.218 304.045 203.327 304.461 203.327ZM312.278 197.502V198.564H308.564V197.502H312.278ZM309.56 195.873H310.883V202.305C310.883 202.562 310.922 202.755 310.999 202.885C311.075 203.012 311.174 203.099 311.295 203.146C311.419 203.19 311.553 203.212 311.698 203.212C311.804 203.212 311.897 203.205 311.977 203.19C312.057 203.175 312.119 203.164 312.163 203.155L312.402 204.248C312.325 204.278 312.216 204.307 312.074 204.337C311.933 204.369 311.756 204.387 311.543 204.39C311.195 204.396 310.87 204.334 310.569 204.204C310.268 204.074 310.025 203.873 309.839 203.602C309.653 203.33 309.56 202.989 309.56 202.579V195.873ZM316.533 204.438C315.896 204.438 315.339 204.292 314.864 204C314.389 203.708 314.02 203.299 313.758 202.774C313.495 202.249 313.364 201.635 313.364 200.933C313.364 200.227 313.495 199.61 313.758 199.082C314.02 198.554 314.389 198.144 314.864 197.851C315.339 197.559 315.896 197.413 316.533 197.413C317.171 197.413 317.727 197.559 318.202 197.851C318.677 198.144 319.046 198.554 319.309 199.082C319.571 199.61 319.703 200.227 319.703 200.933C319.703 201.635 319.571 202.249 319.309 202.774C319.046 203.299 318.677 203.708 318.202 204C317.727 204.292 317.171 204.438 316.533 204.438ZM316.538 203.327C316.951 203.327 317.293 203.218 317.565 203C317.836 202.781 318.037 202.491 318.167 202.128C318.299 201.765 318.366 201.365 318.366 200.928C318.366 200.494 318.299 200.096 318.167 199.733C318.037 199.367 317.836 199.073 317.565 198.852C317.293 198.631 316.951 198.52 316.538 198.52C316.121 198.52 315.776 198.631 315.502 198.852C315.23 199.073 315.028 199.367 314.895 199.733C314.765 200.096 314.7 200.494 314.7 200.928C314.7 201.365 314.765 201.765 314.895 202.128C315.028 202.491 315.23 202.781 315.502 203C315.776 203.218 316.121 203.327 316.538 203.327Z" fill="#476CD2"/>
<path d="M206.441 155.901H218.408C219.231 155.901 219.904 156.575 219.904 157.397V166.373C219.904 167.195 219.231 167.868 218.408 167.868H206.441C205.618 167.868 204.945 167.195 204.945 166.373V157.397C204.945 156.575 205.618 155.901 206.441 155.901Z" stroke="white" stroke-width="1.24658" stroke-linecap="round" stroke-linejoin="round"/>
<path d="M219.904 157.397L212.425 162.633L204.945 157.397" stroke="white" stroke-width="1.24658" stroke-linecap="round" stroke-linejoin="round"/>
<rect x="204.322" y="115.637" width="16.2055" height="18.6986" rx="1.86986" stroke="white" stroke-width="1.24658"/>
<path d="M211.961 127.798C214.458 127.798 216.483 125.774 216.483 123.276C216.483 120.778 214.458 118.753 211.961 118.753C209.463 118.753 207.438 120.778 207.438 123.276C207.438 125.774 209.463 127.798 211.961 127.798Z" stroke="white" stroke-width="1.24658" stroke-linecap="round" stroke-linejoin="round"/>
<path d="M207.438 123.276H216.483" stroke="white" stroke-width="1.24658" stroke-linecap="round" stroke-linejoin="round"/>
<path d="M211.96 118.753C213.091 119.992 213.734 121.599 213.769 123.276C213.734 124.953 213.091 126.56 211.96 127.798C210.829 126.56 210.186 124.953 210.151 123.276C210.186 121.599 210.829 119.992 211.96 118.753V118.753Z" stroke="white" stroke-width="1.24658" stroke-linecap="round" stroke-linejoin="round"/>
<path d="M207.438 129.973H217.411" stroke="white" stroke-width="1.24658" stroke-linecap="round" stroke-linejoin="round"/>
<path d="M208.685 132.466H216.165" stroke="white" stroke-width="1.24658" stroke-linecap="round" stroke-linejoin="round"/>
<rect x="204.322" y="190.431" width="16.2055" height="18.6986" rx="1.86986" stroke="white" stroke-width="1.24658"/>
<circle cx="212.425" cy="197.288" r="1.86986" stroke="white" stroke-width="1.24658"/>
<path d="M208.685 202.274V203.52C208.685 204.209 209.243 204.767 209.932 204.767H214.918C215.607 204.767 216.165 204.209 216.165 203.52V202.274C216.165 200.897 215.049 199.781 213.672 199.781H211.178C209.802 199.781 208.685 200.897 208.685 202.274Z" stroke="white" stroke-width="1.24658" stroke-linecap="round" stroke-linejoin="round"/>
<defs>
<filter id="filter0_d_2_25431" x="147.603" y="0.328765" width="256.795" height="264.274" filterUnits="userSpaceOnUse" color-interpolation-filters="sRGB">
<feFlood flood-opacity="0" result="BackgroundImageFix"/>
<feColorMatrix in="SourceAlpha" type="matrix" values="0 0 0 0 0 0 0 0 0 0 0 0 0 0 0 0 0 0 127 0" result="hardAlpha"/>
<feOffset dy="8.72603"/>
<feGaussianBlur stdDeviation="18.6986"/>
<feComposite in2="hardAlpha" operator="out"/>
<feColorMatrix type="matrix" values="0 0 0 0 0 0 0 0 0 0 0 0 0 0 0 0 0 0 0.15 0"/>
<feBlend mode="normal" in2="BackgroundImageFix" result="effect1_dropShadow_2_25431"/>
<feBlend mode="normal" in="SourceGraphic" in2="effect1_dropShadow_2_25431" result="shape"/>
</filter>
</defs>
</svg>
