<svg width="599" height="474" viewBox="0 0 599 474" fill="none" xmlns="http://www.w3.org/2000/svg">
<path d="M36.0999 471.811C36.0999 471.811 -26.6509 388.959 13.3125 291.516C53.2759 194.099 106.916 243.104 104.341 129.694C101.767 16.2848 227.751 6.60251 267.835 39.5061C307.919 72.4098 307.678 112.029 390.441 98.9484C473.203 85.8679 489.012 195.124 467.451 250.791C436.88 329.759 552.225 316.787 479.499 472L36.0999 471.811Z" fill="#EAEFFC"/>
<path d="M132.643 235.021C131.513 232.861 157.191 225.022 157.589 246.447C157.589 246.447 205.688 245.252 182.702 218.478C174.763 209.211 175.56 201.537 175.826 194.396C176.058 187.254 170.876 166.493 153.072 168.586C153.072 168.586 148.421 166.692 142.608 169.715C129.388 176.558 99.7575 242.926 132.643 235.021Z" fill="black"/>
<path d="M211.269 255.516C211.269 255.516 214.391 250.766 216.916 250.666C219.44 250.566 224.124 249.271 223.725 250.201C223.327 251.131 220.47 251.231 220.171 251.795C219.905 252.36 224.456 253.191 225.785 253.29C227.08 253.39 230.169 253.29 230.07 253.955C229.97 254.619 224.522 257.31 220.669 256.944C216.816 256.579 212.066 258.074 212.066 258.074L211.269 255.516Z" fill="#FFB27D"/>
<path d="M165.993 257.077C165.993 257.077 167.687 260.432 170.776 264.318C174.497 268.969 180.243 274.35 187.418 275.413C190.873 275.911 194.228 275.181 197.317 273.819C206.053 269.932 212.631 260.997 212.631 260.997C214.159 256.778 211.634 253.955 211.634 253.955C211.634 253.955 193.962 257.941 192.301 257.077C190.607 256.247 180.808 227.978 178.483 224.424C176.158 220.87 168.186 219.043 168.186 219.043L165.993 257.077Z" fill="#15234A"/>
<path d="M170.777 264.318C174.497 268.969 180.244 274.35 187.419 275.413C190.874 275.911 194.229 275.18 197.318 273.819C196.986 273.852 188.249 274.948 184.762 268.703C181.207 262.358 177.354 252.26 172.106 255.615C169.847 257.077 169.947 260.698 170.777 264.318Z" fill="#101D40"/>
<path d="M100.123 447.679C100.123 447.679 94.7418 452.595 95.7716 456.083C96.8345 459.571 101.684 461.896 102.349 466.181C103.013 470.466 105.637 472.791 107.996 472.791C110.354 472.791 119.29 472.791 119.29 472.791C119.29 472.791 121.017 469.802 116.831 468.871C112.613 467.975 111.052 462.959 111.317 458.275C111.583 453.625 110.919 447.413 110.919 447.413L101.983 445.354L100.123 447.679Z" fill="black"/>
<path d="M145.731 449.771C145.731 449.771 143.804 470.599 146.162 471.762L176.424 471.695C176.424 471.695 176.424 468.207 171.574 467.41C166.724 466.646 158.154 463.789 156.726 457.445C155.264 451.133 145.731 449.771 145.731 449.771Z" fill="black"/>
<path d="M122.445 243.026C122.445 243.026 121.98 249.371 122.445 257.011C122.744 262.06 127.859 268.836 128.59 270.53C130.417 274.749 132.477 275.413 132.477 275.413L148.388 279.3L153.968 280.662L171.607 275.413C171.607 275.413 179.646 252.991 176.423 240.402C173.201 227.779 168.285 219.043 168.285 219.043C168.285 219.043 154.766 216.22 135.167 217.847L122.445 243.026Z" fill="#15234A"/>
<path d="M127.096 259.07C127.395 264.119 127.86 268.836 128.59 270.53C130.417 274.749 132.477 275.413 132.477 275.413L148.388 279.3L155.297 277.273C155.297 277.273 132.244 273.785 134.802 253.955L127.096 259.07Z" fill="#F2CCAA"/>
<path d="M170.446 278.801C170.446 278.801 179.183 305.973 179.747 315.208C180.312 324.442 163.072 446.616 162.374 450.868C161.71 454.887 156.727 457.445 156.727 457.445C156.727 457.445 154.435 458.807 151.147 457.877C146.596 456.581 145.168 455.053 145.168 455.053C145.168 455.053 138.358 367.924 142.577 336.832C146.795 305.707 146.829 278.801 146.829 278.801H170.446Z" fill="#F77B00"/>
<path d="M133.474 278.004C133.474 278.004 120.153 295.875 118.924 307.933C117.695 320.024 116.965 362.41 114.34 374.202C111.683 385.961 101.983 408.615 101.983 445.354C101.983 445.354 102.98 447.446 106.102 448.576C107.099 448.941 108.428 449.273 109.723 449.572C112.281 450.17 114.938 448.908 116.101 446.55C122.678 433.329 143.605 390.678 144.668 381.809C145.432 375.531 152.042 334.075 166.459 309.727C169.913 303.88 164.333 280.661 164.333 280.661L133.474 278.004Z" fill="#FF8000"/>
<path d="M171.839 274.616C171.839 274.616 168.351 277.373 161.376 277.539C153.071 277.705 132.443 275.413 132.443 275.413C132.443 275.413 131.513 277.971 131.58 280.661C131.58 280.661 156.725 287.006 171.308 281.591C171.308 281.591 173.201 278.07 171.839 274.616Z" fill="#233862"/>
<path d="M159.581 280.395C159.581 278.037 161.275 276.11 163.368 276.11C165.461 276.11 167.155 278.037 167.155 280.395C167.155 282.754 165.461 284.68 163.368 284.68C161.275 284.714 159.581 282.787 159.581 280.395ZM160.843 280.395C160.843 282.056 161.973 283.418 163.368 283.418C164.763 283.418 165.892 282.056 165.892 280.395C165.892 278.735 164.763 277.373 163.368 277.373C161.973 277.373 160.843 278.735 160.843 280.395Z" fill="white"/>
<path d="M105.373 279.509L131.152 301.956L161.888 266.656L136.109 244.21L105.373 279.509Z" fill="#D9E2EE"/>
<path d="M138.257 279.632C138.257 279.632 147.69 280.728 147.657 282.987C147.624 285.246 145.299 289.83 144.136 290.029C142.974 290.228 136.463 283.784 136.463 283.784L138.257 279.632Z" fill="#FFB27D"/>
<path d="M135.101 217.814C135.101 217.814 122.478 218.711 117.661 230.437C112.812 242.196 103.644 261.927 103.644 265.249C103.644 268.57 108.759 278.801 136.296 284.681C136.296 284.681 139.153 281.691 138.954 279.333C138.954 279.333 121.78 264.584 121.814 262.857C121.913 259.602 124.637 255.283 139.718 240.203C143.837 236.117 135.101 217.814 135.101 217.814Z" fill="#15234A"/>
<path d="M143.207 219.209C144.27 216.253 145.599 208.48 145.599 202.966L146.396 203.132L159.816 205.789C159.816 205.789 159.517 210.008 159.517 213.994C159.517 214.027 159.517 214.06 159.517 214.094C159.517 217.548 159.517 220.339 159.185 221.269C157.856 224.557 142.31 221.667 143.207 219.209Z" fill="#FFB27D"/>
<path d="M159.781 205.789C159.781 205.789 159.482 210.008 159.482 213.994C151.975 213.795 147.989 206.919 146.395 203.132L159.781 205.789Z" fill="#E8945B"/>
<path d="M162.305 209.543C162.305 209.543 144.534 209.841 144.534 198.78C144.534 187.719 142.209 180.311 153.569 179.647C164.896 178.982 167.122 183.201 168.019 186.888C168.916 190.575 166.923 209.177 162.305 209.543Z" fill="#FFB27D"/>
<path d="M161.642 179.381C161.642 179.381 156.792 192.369 149.318 194.296C141.844 196.223 138.622 194.23 138.622 194.23C138.622 194.23 144.335 189.679 145.531 181.74C145.531 181.707 157.988 173.203 161.642 179.381Z" fill="black"/>
<path d="M160.446 180.411C160.446 180.411 164.067 181.773 165.529 184.397C166.99 186.955 168.219 190.376 167.92 194.562C167.92 194.562 171.574 185.726 167.455 180.743C163.104 175.462 160.446 180.411 160.446 180.411Z" fill="black"/>
<path d="M461.05 228.123C460.917 225.499 460.486 220.483 458.958 217.427C456.832 213.175 450.819 208.492 448.295 210.053C445.77 211.614 451.982 218.789 451.019 221.513C450.055 224.237 453.742 228.854 456.732 232.176L461.084 229.851C461.084 229.851 461.084 229.186 461.05 228.123Z" fill="#FFB27D"/>
<path d="M517.254 233.903C513.334 241.178 508.451 248.519 503.435 254.498C498.187 260.743 492.839 265.526 488.288 267.121H488.255C488.022 267.187 487.79 267.287 487.557 267.353H487.524C486.594 267.619 485.73 267.719 484.9 267.685C470.052 267.021 454.373 235.132 454.373 235.132C454.373 235.132 454.772 231.346 457.662 228.688C460.186 226.363 462.113 225.765 462.113 225.765C462.113 225.765 478.124 242.208 482.043 243.37C484.501 244.101 487.723 232.641 492.374 218.225C497.024 203.808 513.301 200.254 513.301 200.254C513.301 200.254 529.777 210.717 517.254 233.903Z" fill="#476CD2"/>
<path d="M503.436 254.498C498.187 260.776 492.839 265.526 488.288 267.12H488.255L487.558 267.353H487.524C487.691 267.253 492.54 264.729 493.304 260.078C494.068 255.295 489.052 251.409 501.708 244.034C509.116 239.749 503.436 254.498 503.436 254.498Z" fill="#4569CB"/>
<path d="M491.842 473.168H526.687C529.178 471.474 526.023 454.932 526.023 454.932C526.023 454.932 516.522 451.311 514.862 458.652C513.201 465.993 502.737 468.319 497.223 469.215C493.436 469.813 492.24 471.906 491.842 473.168Z" fill="black"/>
<path d="M544.957 301.633C544.957 301.633 543.861 321.962 542.499 345.513C541.503 362.388 540.373 380.923 539.41 394.841C539.277 396.668 539.144 398.462 539.045 400.123C539.011 400.655 538.978 401.153 538.945 401.651C536.454 432.776 528.116 460.081 528.116 460.081C518.317 462.14 513.899 458.353 513.899 458.353C513.899 458.353 507.156 379.262 504.665 347.374C502.838 323.889 501.243 289.708 501.243 289.708L544.957 301.633Z" fill="#15234A"/>
<path d="M542.499 345.514C541.503 362.388 540.373 380.924 539.41 394.842C532.999 379.728 519.911 320.866 519.911 320.866L542.499 345.514Z" fill="#121D3F"/>
<path d="M543.495 473.169H578.34C580.832 471.475 577.676 454.932 577.676 454.932C577.676 454.932 568.176 451.312 566.515 458.653C564.854 465.994 554.39 468.319 548.876 469.216C545.09 469.814 543.894 471.907 543.495 473.169Z" fill="black"/>
<path d="M510.677 297.614C510.677 297.614 535.557 359.532 543.496 382.983C549.177 399.692 565.121 458.354 565.121 458.354C565.121 458.354 572.063 460.48 577.91 456.394C577.91 456.394 583.856 396.47 571.864 379.595C565.486 370.626 570.27 286.42 544.46 285.689C518.65 284.958 510.677 297.614 510.677 297.614Z" fill="#15234A"/>
<path d="M561.6 277.684C561.5 286.486 561.4 292.964 561.434 294.591C561.5 299.906 558.112 301.135 554.591 301.933C554.591 301.933 551.335 302.63 547.25 303.328C543.23 303.992 538.414 304.656 534.992 304.623C517.52 304.49 502.904 299.342 502.904 299.342C499.616 299.342 498.121 294.259 497.59 287.151C497.224 282.334 498.719 234.435 498.885 222.476C499.018 213.906 503.735 205.967 505.03 204.805C517.221 194.009 553.229 195.371 559.673 202.811C561.268 204.638 561.733 222.377 561.799 241.809C561.865 254.365 561.733 267.586 561.6 277.684Z" fill="#476CD2"/>
<path d="M540.007 198.593C535.423 203.576 519.977 202.845 520.442 198.493C520.508 197.962 520.608 194.773 520.641 194.275C520.674 193.876 520.708 193.478 520.741 193.112C520.841 192.049 520.94 191.086 521.007 190.289C521.206 187.897 521.272 186.602 521.272 186.602C521.704 186.469 531.636 183.645 536.586 182.483C538.247 182.084 539.343 181.885 539.309 182.018C537.815 193.145 541.502 196.965 540.007 198.593Z" fill="#FFB27D"/>
<path d="M537.117 185.771C537.117 185.771 532.965 189.99 521.007 190.289C521.206 187.897 521.273 186.601 521.273 186.601C521.704 186.469 531.636 183.645 536.586 182.482C537.483 182.848 536.32 185.173 537.117 185.771Z" fill="#ED975D"/>
<path d="M518.25 186.036C518.25 186.036 521.273 187.133 525.126 187.631C530.773 188.395 538.214 187.93 540.539 181.12C544.459 169.627 549.475 162.718 537.915 158.034C531.737 155.509 527.75 155.377 525.06 156.34C522.735 157.17 521.34 158.831 520.31 160.459C518.084 163.98 513.567 184.01 518.25 186.036Z" fill="#FFB27D"/>
<path d="M521.206 151.557C517.087 154.281 518.416 160.625 523.299 161.489C526.222 161.987 528.68 162.12 530.075 162.718C532.965 163.98 535.423 165.342 534.759 169.826C534.527 171.354 533.796 173.181 537.682 172.285C538.313 172.118 538.778 172.185 539.111 172.384C540.738 173.347 538.645 177.998 538.048 179.028C538.048 179.028 537.151 182.349 539.144 183.977C539.376 184.176 543.296 185.87 552.73 171.421C554.225 169.162 555.62 164.047 553.328 159.13C551.036 154.214 544.658 148.002 532.633 148.002C529.511 147.936 524.794 149.198 521.206 151.557Z" fill="black"/>
<path d="M561.598 277.684C559.838 285.855 556.981 288.679 555.386 285.623C549.773 274.96 549.839 270.475 552.264 262.902C554.689 255.328 546.152 243.503 552.264 238.454C558.243 233.538 561.665 241.477 561.831 241.842C561.864 254.365 561.731 267.586 561.598 277.684Z" fill="#4569CB"/>
<path d="M561.335 276.654C561.335 276.654 557.183 283.43 554.492 283.198C551.768 282.965 548.114 281.935 545.988 283.962C543.862 285.988 540.474 291.17 541.404 292.565C542.368 293.96 546.188 292.731 548.945 291.203C551.702 289.675 556.02 291.967 558.345 290.24C560.671 288.512 566.185 281.67 566.185 281.67L561.335 276.654Z" fill="#FFB27D"/>
<path d="M559.706 202.845C559.706 202.845 594.053 235.165 589.601 256.69C587.575 266.489 581.264 274.761 564.456 288.147C564.456 288.147 556.517 282.666 554.756 278.182C554.756 278.182 570.003 256.69 569.438 253.036C568.708 248.552 558.311 237.325 554.557 235.564C550.803 233.837 551.136 206.598 559.706 202.845Z" fill="#476CD2"/>
<path d="M554.491 283.165C554.491 283.165 550.871 281.57 549.708 280.906C548.545 280.241 548.811 281.338 549.143 281.869C549.509 282.434 550.472 283.663 551.9 283.763C553.329 283.862 554.491 283.165 554.491 283.165Z" fill="#FFB27D"/>
<path d="M438.19 472.574H241.931V201H438.546C445.973 201 452 207.027 452 214.454V458.764C452 466.381 445.807 472.574 438.19 472.574Z" fill="#15234A"/>
<path d="M272.708 235.359V243.878H268.721V220.979H277.477C278.806 220.979 279.993 221.169 281.013 221.525C282.057 221.881 282.911 222.403 283.623 223.044C284.335 223.685 284.881 224.468 285.26 225.346C285.64 226.247 285.83 227.196 285.83 228.264C285.83 229.379 285.64 230.376 285.26 231.254C284.881 232.132 284.335 232.868 283.623 233.484C282.911 234.101 282.033 234.552 281.013 234.884C279.969 235.217 278.806 235.383 277.477 235.383H272.708V235.359ZM272.708 232.156H277.477C278.237 232.156 278.901 232.061 279.447 231.871C279.993 231.681 280.443 231.42 280.799 231.064C281.155 230.708 281.416 230.305 281.582 229.83C281.748 229.356 281.82 228.834 281.82 228.264C281.82 227.718 281.748 227.22 281.582 226.722C281.416 226.224 281.155 225.796 280.799 225.417C280.443 225.037 279.993 224.729 279.447 224.515C278.901 224.302 278.237 224.183 277.477 224.183H272.708V232.156Z" fill="white"/>
<path d="M299.331 238.515H290.457L288.606 243.854H284.477L293.114 220.956H296.674L305.334 243.854H301.182L299.331 238.515ZM291.572 235.312H298.216L294.894 225.82L291.572 235.312Z" fill="white"/>
<path d="M319.904 237.969C319.904 237.518 319.833 237.091 319.691 236.735C319.548 236.379 319.311 236.047 318.955 235.739C318.599 235.43 318.101 235.145 317.46 234.861C316.819 234.576 316.013 234.291 315.016 233.983C313.924 233.651 312.928 233.295 312.002 232.867C311.077 232.44 310.294 231.966 309.63 231.396C308.965 230.851 308.443 230.21 308.063 229.474C307.684 228.762 307.494 227.932 307.494 226.983C307.494 226.057 307.684 225.203 308.087 224.444C308.491 223.661 309.036 222.996 309.748 222.427C310.46 221.857 311.314 221.43 312.311 221.098C313.307 220.79 314.399 220.624 315.609 220.624C316.891 220.624 318.053 220.813 319.074 221.193C320.094 221.573 320.972 222.071 321.684 222.712C322.396 223.352 322.941 224.088 323.321 224.942C323.701 225.796 323.89 226.674 323.89 227.647H319.928C319.928 227.101 319.833 226.579 319.667 226.105C319.501 225.63 319.24 225.227 318.884 224.895C318.528 224.562 318.077 224.278 317.531 224.112C316.985 223.922 316.345 223.827 315.585 223.827C314.874 223.827 314.28 223.898 313.758 224.064C313.236 224.23 312.809 224.444 312.477 224.729C312.145 225.013 311.884 225.346 311.718 225.725C311.552 226.105 311.48 226.532 311.48 226.983C311.48 227.837 311.884 228.549 312.691 229.095C313.497 229.664 314.708 230.186 316.369 230.661C317.65 231.04 318.765 231.468 319.714 231.918C320.663 232.369 321.446 232.891 322.063 233.484C322.68 234.078 323.155 234.718 323.463 235.454C323.772 236.189 323.914 236.996 323.914 237.922C323.914 238.895 323.724 239.749 323.345 240.532C322.965 241.291 322.419 241.956 321.707 242.501C320.996 243.047 320.141 243.45 319.145 243.735C318.148 244.02 317.009 244.162 315.775 244.162C314.684 244.162 313.592 244.02 312.524 243.711C311.457 243.403 310.508 242.952 309.653 242.359C308.799 241.766 308.111 241.006 307.613 240.105C307.091 239.203 306.83 238.135 306.83 236.925H310.816C310.816 237.637 310.935 238.278 311.196 238.8C311.457 239.322 311.813 239.749 312.24 240.081C312.691 240.413 313.213 240.65 313.83 240.793C314.446 240.935 315.087 241.03 315.799 241.03C317.175 241.03 318.219 240.745 318.931 240.2C319.572 239.63 319.904 238.871 319.904 237.969Z" fill="white"/>
<path d="M339.338 237.969C339.338 237.518 339.267 237.091 339.125 236.735C338.982 236.379 338.745 236.047 338.389 235.739C338.033 235.43 337.535 235.145 336.894 234.861C336.253 234.576 335.447 234.291 334.45 233.983C333.359 233.651 332.362 233.295 331.437 232.867C330.511 232.44 329.728 231.966 329.064 231.396C328.399 230.851 327.877 230.21 327.498 229.474C327.118 228.762 326.928 227.932 326.928 226.983C326.928 226.057 327.118 225.203 327.521 224.444C327.925 223.661 328.47 222.996 329.182 222.427C329.894 221.857 330.748 221.43 331.745 221.098C332.742 220.79 333.833 220.624 335.043 220.624C336.325 220.624 337.487 220.813 338.508 221.193C339.528 221.573 340.406 222.071 341.118 222.712C341.83 223.352 342.375 224.088 342.755 224.942C343.135 225.796 343.325 226.674 343.325 227.647H339.362C339.362 227.101 339.267 226.579 339.101 226.105C338.935 225.63 338.674 225.227 338.318 224.895C337.962 224.562 337.511 224.278 336.965 224.112C336.42 223.922 335.779 223.827 335.02 223.827C334.308 223.827 333.714 223.898 333.192 224.064C332.67 224.23 332.243 224.444 331.911 224.729C331.579 225.013 331.318 225.346 331.152 225.725C330.986 226.105 330.914 226.532 330.914 226.983C330.914 227.837 331.318 228.549 332.125 229.095C332.931 229.664 334.142 230.186 335.803 230.661C337.084 231.04 338.199 231.468 339.148 231.918C340.097 232.369 340.88 232.891 341.497 233.484C342.114 234.078 342.589 234.718 342.897 235.454C343.206 236.189 343.348 236.996 343.348 237.922C343.348 238.895 343.158 239.749 342.779 240.532C342.399 241.291 341.853 241.956 341.141 242.501C340.43 243.047 339.575 243.45 338.579 243.735C337.582 244.02 336.443 244.162 335.209 244.162C334.118 244.162 333.026 244.02 331.959 243.711C330.891 243.403 329.942 242.952 329.087 242.359C328.233 241.766 327.545 241.006 327.047 240.105C326.525 239.203 326.264 238.135 326.264 236.925H330.25C330.25 237.637 330.369 238.278 330.63 238.8C330.891 239.322 331.247 239.749 331.674 240.081C332.125 240.413 332.647 240.65 333.264 240.793C333.881 240.935 334.521 241.03 335.233 241.03C336.609 241.03 337.653 240.745 338.365 240.2C339.006 239.63 339.338 238.871 339.338 237.969Z" fill="white"/>
<path d="M350.799 235.359V243.878H346.812V220.979H355.568C356.897 220.979 358.083 221.169 359.104 221.525C360.148 221.881 361.002 222.403 361.714 223.044C362.426 223.685 362.971 224.468 363.351 225.346C363.731 226.247 363.921 227.196 363.921 228.264C363.921 229.379 363.731 230.376 363.351 231.254C362.971 232.132 362.426 232.868 361.714 233.484C361.002 234.101 360.124 234.552 359.104 234.884C358.06 235.217 356.897 235.383 355.568 235.383H350.799V235.359ZM350.799 232.156H355.568C356.327 232.156 356.992 232.061 357.538 231.871C358.083 231.681 358.534 231.42 358.89 231.064C359.246 230.708 359.507 230.305 359.673 229.83C359.839 229.356 359.91 228.834 359.91 228.264C359.91 227.718 359.839 227.22 359.673 226.722C359.507 226.224 359.246 225.796 358.89 225.417C358.534 225.037 358.083 224.729 357.538 224.515C356.992 224.302 356.327 224.183 355.568 224.183H350.799V232.156Z" fill="white"/>
<path d="M385.681 233.01C385.681 234.742 385.444 236.308 384.993 237.685C384.542 239.061 383.901 240.223 383.071 241.196C382.24 242.145 381.244 242.881 380.081 243.403C378.918 243.925 377.637 244.162 376.213 244.162C374.813 244.162 373.532 243.901 372.369 243.403C371.206 242.881 370.21 242.145 369.356 241.196C368.501 240.247 367.861 239.061 367.386 237.685C366.912 236.308 366.698 234.742 366.698 233.01V231.847C366.698 230.115 366.935 228.549 367.386 227.173C367.861 225.796 368.501 224.61 369.332 223.661C370.162 222.688 371.159 221.952 372.322 221.454C373.484 220.932 374.766 220.695 376.166 220.695C377.589 220.695 378.871 220.956 380.033 221.454C381.196 221.976 382.193 222.712 383.047 223.661C383.878 224.634 384.518 225.796 384.993 227.173C385.444 228.549 385.681 230.115 385.681 231.847V233.01ZM381.694 231.8C381.694 230.518 381.576 229.403 381.315 228.407C381.078 227.434 380.698 226.603 380.247 225.939C379.772 225.274 379.203 224.776 378.515 224.444C377.827 224.112 377.044 223.922 376.189 223.922C375.335 223.922 374.576 224.088 373.888 224.444C373.2 224.776 372.63 225.274 372.156 225.939C371.681 226.603 371.301 227.41 371.064 228.407C370.803 229.379 370.684 230.518 370.684 231.8V232.986C370.684 234.268 370.803 235.407 371.064 236.379C371.325 237.376 371.681 238.183 372.179 238.847C372.654 239.512 373.247 240.01 373.935 240.366C374.623 240.698 375.383 240.888 376.237 240.888C377.993 240.888 379.345 240.223 380.294 238.871C381.244 237.518 381.718 235.573 381.718 232.986V231.8H381.694Z" fill="white"/>
<path d="M398.041 235.027H393.604V243.854H389.618V220.956H397.662C398.967 220.956 400.129 221.098 401.173 221.407C402.194 221.715 403.072 222.142 403.784 222.736C404.496 223.329 405.018 224.041 405.397 224.895C405.753 225.749 405.943 226.746 405.943 227.885C405.943 229.427 405.563 230.709 404.828 231.729C404.092 232.773 403.048 233.556 401.743 234.102L406.892 243.641V243.854H402.621L398.041 235.027ZM393.604 231.847H397.685C398.397 231.847 399.014 231.753 399.56 231.563C400.106 231.373 400.533 231.112 400.889 230.78C401.245 230.447 401.506 230.044 401.696 229.593C401.885 229.142 401.957 228.62 401.957 228.075C401.957 227.481 401.862 226.959 401.696 226.485C401.529 226.01 401.268 225.607 400.936 225.251C400.58 224.919 400.153 224.658 399.607 224.468C399.062 224.278 398.421 224.183 397.662 224.183H393.58V231.847H393.604Z" fill="white"/>
<path d="M425.497 224.159H418.354V243.854H414.415V224.159H407.344V220.956H425.497V224.159Z" fill="white"/>
<path d="M362.898 443.435H331.339C330.319 443.435 329.488 442.605 329.488 441.584C329.488 440.564 330.319 439.733 331.339 439.733H362.898C363.918 439.733 364.749 440.564 364.749 441.584C364.725 442.605 363.918 443.435 362.898 443.435Z" fill="white"/>
<path d="M385.394 452.215H308.822C307.801 452.215 306.971 451.384 306.971 450.364C306.971 449.344 307.801 448.513 308.822 448.513H385.37C386.39 448.513 387.221 449.344 387.221 450.364C387.221 451.384 386.414 452.215 385.394 452.215Z" fill="white"/>
<path d="M347.12 416.598C327.117 416.598 308.324 408.815 294.181 394.673C280.039 380.531 272.256 361.714 272.256 341.734C272.256 321.755 280.039 302.938 294.181 288.796C308.324 274.654 327.14 266.871 347.12 266.871C367.123 266.871 385.916 274.654 400.058 288.796C414.201 302.938 421.984 321.755 421.984 341.734C421.984 361.714 414.201 380.531 400.058 394.673C385.916 408.815 367.099 416.598 347.12 416.598ZM347.12 267.654C327.33 267.654 308.751 275.365 294.751 289.342C280.775 303.318 273.063 321.921 273.063 341.711C273.063 361.5 280.775 380.08 294.751 394.08C308.727 408.056 327.33 415.768 347.12 415.768C366.91 415.768 385.489 408.056 399.489 394.08C413.465 380.104 421.177 361.5 421.177 341.711C421.177 321.921 413.465 303.341 399.489 289.342C385.489 275.365 366.886 267.654 347.12 267.654Z" fill="white"/>
<path d="M407.154 341.734C407.154 345.412 406.822 349.043 406.181 352.555C404.639 360.978 401.364 368.785 396.713 375.595C385.893 391.398 367.717 401.792 347.121 401.792C322.609 401.792 301.538 387.104 292.213 366.056C290.979 363.28 289.958 360.409 289.152 357.419C287.799 352.412 287.087 347.168 287.087 341.758C287.087 337.368 287.562 333.097 288.44 328.992C288.44 328.945 288.463 328.897 288.463 328.85C290.955 317.46 296.674 307.304 304.623 299.355C306.877 297.101 309.297 295.013 311.907 293.138C313.141 292.237 314.422 291.382 315.728 290.599C324.863 284.976 335.612 281.749 347.144 281.749C348.663 281.749 350.182 281.796 351.676 281.915C353.788 282.081 355.876 282.342 357.917 282.698C366.531 284.264 374.503 287.657 381.408 292.474C385.727 295.464 389.618 299.023 392.988 303.009C394.768 305.097 396.405 307.328 397.876 309.653C398.801 311.101 399.656 312.596 400.462 314.138C402.384 317.816 403.927 321.731 405.042 325.813C406.395 330.843 407.154 336.206 407.154 341.734Z" fill="white"/>
<path opacity="0.5" d="M326.714 314.85C324.317 318.646 327.711 325.243 320.521 323.439C313.331 321.636 308.941 320.853 308.538 324.839C308.134 328.826 313.924 328.826 313.924 333.026C313.924 337.226 311.338 338.602 307.328 336.609C303.341 334.616 302.179 331.721 297.551 333.524C292.901 335.327 290.219 334.117 289.175 330.534C288.985 329.893 288.724 329.395 288.44 328.968C288.44 328.921 288.463 328.873 288.463 328.826C290.955 317.436 296.674 307.28 304.623 299.331C306.877 297.077 309.297 294.989 311.907 293.114C313.141 292.212 314.423 291.358 315.728 290.575C317.602 290.646 319.833 291.358 321.755 293.707C325.955 298.904 328.731 296.294 327.734 302.297C326.738 308.277 328.327 309.084 331.721 308.894C335.114 308.704 339.1 308.704 339.504 311.29C339.883 313.853 329.111 311.053 326.714 314.85Z" fill="#15234A"/>
<path opacity="0.5" d="M351.58 350.775C351.58 350.775 346.288 352.483 344.889 348.781C343.489 345.08 345.078 344.297 340.404 343.182C335.729 342.066 335.302 338.887 332.312 339.29C329.323 339.693 330.817 340.88 327.329 343.49C323.841 346.076 320.638 344.89 320.733 349.683C320.828 354.476 326.024 355.236 327.068 358.368C328.112 361.524 326.309 362.853 328.563 365.249C330.817 367.646 334.994 366.602 333.048 369.9C331.102 373.198 328.112 375.737 329.607 380.839C331.102 385.94 330.058 386.225 332.597 389.832C335.136 393.415 340.095 394.625 340.831 392.229C341.59 389.832 337.39 386.7 338.743 384.303C340.095 381.907 342.326 383.544 343.228 379.961C344.129 376.378 347.76 376.378 348.068 373.863C348.377 371.371 343.678 367.575 345.482 365.985C347.285 364.395 350.868 368.88 353.668 364.893C356.468 360.907 354.57 357.703 357.465 353.907C360.36 350.087 353.573 348.592 351.58 350.775Z" fill="#15234A"/>
<path opacity="0.5" d="M407.153 341.734C407.153 345.412 406.821 349.043 406.181 352.555C404.638 360.978 401.364 368.785 396.713 375.595C395.123 376.117 393.509 376.093 391.92 375.476C384.421 372.487 389.974 364.395 392.964 360.361C395.953 356.328 388.313 358.107 382.784 354.382C377.255 350.633 383.377 340.595 377.682 342.256C371.988 343.894 365.106 346.006 361.808 340.453C358.51 334.901 364.798 334.023 361.95 329.372C359.103 324.721 363.588 322.04 369.283 321.589C374.977 321.138 374.218 317.104 381.265 316.487C388.313 315.894 388.147 324.863 395.93 324.27C403.713 323.677 403.357 325.457 403.357 325.457C403.926 325.433 404.472 325.551 404.994 325.789C406.394 330.843 407.153 336.206 407.153 341.734Z" fill="#15234A"/>
<path opacity="0.5" d="M400.438 314.09C393.96 317.246 391.374 308.68 385.821 311.243C380.245 313.829 381.218 308.846 376.828 305.643C372.438 302.44 363.659 308.229 364.039 303.246C364.442 298.263 371.015 299.663 372.415 295.653C373.815 291.667 380.198 292.663 380.198 292.663C380.554 292.521 380.957 292.426 381.36 292.402C385.679 295.392 389.571 298.951 392.94 302.938C394.72 305.026 396.357 307.256 397.828 309.582C398.777 311.077 399.631 312.572 400.438 314.09Z" fill="#15234A"/>
<path opacity="0.5" d="M345.886 296.863C345.886 296.863 349.279 291.975 343.893 290.528C338.506 289.08 338.601 290.979 334.401 290.528C330.201 290.077 328.564 293.328 331.696 296.863C334.852 300.399 337.391 307.209 340.239 303.578C343.086 299.948 342.54 297.219 345.886 296.863Z" fill="#15234A"/>
<path d="M589.315 473L19.6847 472.802C19.3069 472.802 19 472.481 19 472.086V471.716C19 471.321 19.3069 471 19.6847 471L589.315 471.198C589.693 471.198 590 471.519 590 471.914V472.284C590 472.679 589.693 473 589.315 473Z" fill="#2E3552"/>
<rect x="53" y="12" width="178" height="116" rx="12.5" fill="#476CD2"/>
<path d="M87.1715 84L85.0906 76.7273H86.7702L87.9741 81.7805H88.0344L89.3626 76.7273H90.8008L92.1254 81.7912H92.1893L93.3931 76.7273H95.0728L92.9918 84H91.4933L90.1083 79.245H90.0515L88.6701 84H87.1715ZM97.7672 84.1065C97.2061 84.1065 96.7232 83.9929 96.3184 83.7656C95.9159 83.536 95.6058 83.2116 95.388 82.7926C95.1702 82.3712 95.0613 81.8729 95.0613 81.2976C95.0613 80.7365 95.1702 80.2441 95.388 79.8203C95.6058 79.3965 95.9123 79.0663 96.3077 78.8295C96.7054 78.5928 97.1718 78.4744 97.7069 78.4744C98.0667 78.4744 98.4017 78.5324 98.7118 78.6484C99.0243 78.7621 99.2966 78.9337 99.5286 79.1634C99.763 79.393 99.9453 79.6818 100.075 80.0298C100.206 80.3755 100.271 80.7803 100.271 81.2443V81.6598H95.665V80.7223H98.8468C98.8468 80.5045 98.7994 80.3116 98.7047 80.1435C98.61 79.9754 98.4786 79.844 98.3105 79.7493C98.1448 79.6522 97.9519 79.6037 97.7317 79.6037C97.5021 79.6037 97.2985 79.657 97.1209 79.7635C96.9457 79.8677 96.8084 80.0085 96.709 80.1861C96.6096 80.3613 96.5587 80.5566 96.5563 80.772V81.6634C96.5563 81.9332 96.606 82.1664 96.7054 82.3629C96.8072 82.5594 96.9505 82.7109 97.1351 82.8175C97.3198 82.924 97.5388 82.9773 97.7921 82.9773C97.9602 82.9773 98.1141 82.9536 98.2537 82.9062C98.3934 82.8589 98.513 82.7879 98.6124 82.6932C98.7118 82.5985 98.7876 82.4825 98.8397 82.3452L100.239 82.4375C100.168 82.7737 100.022 83.0672 99.802 83.3182C99.5842 83.5668 99.3025 83.7609 98.9569 83.9006C98.6136 84.0379 98.217 84.1065 97.7672 84.1065ZM103.601 84V76.7273H105.138V79.728H108.26V76.7273H109.794V84H108.26V80.9957H105.138V84H103.601ZM113.519 84.1065C112.958 84.1065 112.475 83.9929 112.07 83.7656C111.668 83.536 111.358 83.2116 111.14 82.7926C110.922 82.3712 110.813 81.8729 110.813 81.2976C110.813 80.7365 110.922 80.2441 111.14 79.8203C111.358 79.3965 111.664 79.0663 112.06 78.8295C112.457 78.5928 112.924 78.4744 113.459 78.4744C113.819 78.4744 114.154 78.5324 114.464 78.6484C114.776 78.7621 115.049 78.9337 115.281 79.1634C115.515 79.393 115.697 79.6818 115.827 80.0298C115.958 80.3755 116.023 80.7803 116.023 81.2443V81.6598H111.417V80.7223H114.599C114.599 80.5045 114.551 80.3116 114.457 80.1435C114.362 79.9754 114.231 79.844 114.062 79.7493C113.897 79.6522 113.704 79.6037 113.484 79.6037C113.254 79.6037 113.05 79.657 112.873 79.7635C112.698 79.8677 112.56 80.0085 112.461 80.1861C112.362 80.3613 112.311 80.5566 112.308 80.772V81.6634C112.308 81.9332 112.358 82.1664 112.457 82.3629C112.559 82.5594 112.702 82.7109 112.887 82.8175C113.072 82.924 113.291 82.9773 113.544 82.9773C113.712 82.9773 113.866 82.9536 114.006 82.9062C114.145 82.8589 114.265 82.7879 114.364 82.6932C114.464 82.5985 114.54 82.4825 114.592 82.3452L115.991 82.4375C115.92 82.7737 115.774 83.0672 115.554 83.3182C115.336 83.5668 115.054 83.7609 114.709 83.9006C114.366 84.0379 113.969 84.1065 113.519 84.1065ZM118.523 76.7273V84H117.01V76.7273H118.523ZM119.735 86.0455V78.5455H121.226V79.4616H121.294C121.36 79.3149 121.456 79.1657 121.581 79.0142C121.709 78.8603 121.875 78.7325 122.078 78.6307C122.284 78.5265 122.54 78.4744 122.845 78.4744C123.243 78.4744 123.61 78.5786 123.946 78.7869C124.282 78.9929 124.551 79.3042 124.752 79.7209C124.954 80.1352 125.054 80.6548 125.054 81.2798C125.054 81.8883 124.956 82.402 124.759 82.821C124.565 83.2377 124.3 83.5537 123.964 83.7692C123.63 83.9822 123.256 84.0888 122.842 84.0888C122.548 84.0888 122.298 84.0402 122.093 83.9432C121.889 83.8461 121.722 83.7242 121.592 83.5774C121.462 83.4283 121.362 83.2779 121.294 83.1264H121.247V86.0455H119.735ZM121.215 81.2727C121.215 81.5971 121.26 81.88 121.35 82.1214C121.44 82.3629 121.57 82.5511 121.741 82.6861C121.911 82.8187 122.119 82.8849 122.362 82.8849C122.609 82.8849 122.817 82.8175 122.987 82.6825C123.158 82.5452 123.287 82.3558 123.374 82.1143C123.464 81.8705 123.509 81.59 123.509 81.2727C123.509 80.9579 123.466 80.6809 123.378 80.4418C123.29 80.2027 123.161 80.0156 122.991 79.8807C122.82 79.7457 122.611 79.6783 122.362 79.6783C122.116 79.6783 121.908 79.7434 121.737 79.8736C121.569 80.0038 121.44 80.1884 121.35 80.4276C121.26 80.6667 121.215 80.9484 121.215 81.2727ZM127.979 76.7273H129.702L131.36 79.8594H131.431L133.089 76.7273H134.812L132.159 81.429V84H130.632V81.429L127.979 76.7273ZM136.945 84.1065C136.394 84.1065 135.916 83.9893 135.514 83.755C135.114 83.5182 134.805 83.1892 134.587 82.7678C134.369 82.344 134.26 81.8527 134.26 81.294C134.26 80.7306 134.369 80.2382 134.587 79.8168C134.805 79.393 135.114 79.0639 135.514 78.8295C135.916 78.5928 136.394 78.4744 136.945 78.4744C137.497 78.4744 137.973 78.5928 138.373 78.8295C138.775 79.0639 139.085 79.393 139.303 79.8168C139.521 80.2382 139.63 80.7306 139.63 81.294C139.63 81.8527 139.521 82.344 139.303 82.7678C139.085 83.1892 138.775 83.5182 138.373 83.755C137.973 83.9893 137.497 84.1065 136.945 84.1065ZM136.952 82.9347C137.203 82.9347 137.413 82.8636 137.581 82.7216C137.749 82.5772 137.876 82.3807 137.961 82.1321C138.048 81.8835 138.092 81.6006 138.092 81.2834C138.092 80.9661 138.048 80.6832 137.961 80.4347C137.876 80.1861 137.749 79.9896 137.581 79.8452C137.413 79.7008 137.203 79.6286 136.952 79.6286C136.699 79.6286 136.486 79.7008 136.313 79.8452C136.143 79.9896 136.014 80.1861 135.926 80.4347C135.841 80.6832 135.798 80.9661 135.798 81.2834C135.798 81.6006 135.841 81.8835 135.926 82.1321C136.014 82.3807 136.143 82.5772 136.313 82.7216C136.486 82.8636 136.699 82.9347 136.952 82.9347ZM144.111 81.6776V78.5455H145.624V84H144.172V83.0092H144.115C143.992 83.3288 143.787 83.5857 143.501 83.7798C143.216 83.974 142.87 84.071 142.46 84.071C142.095 84.071 141.775 83.9882 141.498 83.8224C141.221 83.6567 141.004 83.4212 140.848 83.1158C140.694 82.8104 140.616 82.4446 140.613 82.0185V78.5455H142.126V81.7486C142.129 82.0705 142.215 82.325 142.385 82.5121C142.556 82.6991 142.784 82.7926 143.071 82.7926C143.253 82.7926 143.424 82.7512 143.582 82.6683C143.741 82.5831 143.869 82.4576 143.966 82.2919C144.065 82.1262 144.114 81.9214 144.111 81.6776ZM152.05 78.5455V79.6818H148.765V78.5455H152.05ZM149.511 77.2386H151.024V82.3239C151.024 82.4635 151.045 82.5724 151.088 82.6506C151.13 82.7263 151.189 82.7796 151.265 82.8104C151.343 82.8411 151.433 82.8565 151.535 82.8565C151.606 82.8565 151.677 82.8506 151.748 82.8388C151.819 82.8246 151.874 82.8139 151.911 82.8068L152.149 83.9325C152.074 83.9562 151.967 83.9834 151.83 84.0142C151.692 84.0473 151.526 84.0675 151.329 84.0746C150.964 84.0888 150.645 84.0402 150.37 83.929C150.098 83.8177 149.886 83.6449 149.735 83.4105C149.583 83.1761 149.508 82.8802 149.511 82.5227V77.2386ZM155.441 84.1065C154.89 84.1065 154.413 83.9893 154.01 83.755C153.61 83.5182 153.301 83.1892 153.083 82.7678C152.865 82.344 152.757 81.8527 152.757 81.294C152.757 80.7306 152.865 80.2382 153.083 79.8168C153.301 79.393 153.61 79.0639 154.01 78.8295C154.413 78.5928 154.89 78.4744 155.441 78.4744C155.993 78.4744 156.469 78.5928 156.869 78.8295C157.271 79.0639 157.581 79.393 157.799 79.8168C158.017 80.2382 158.126 80.7306 158.126 81.294C158.126 81.8527 158.017 82.344 157.799 82.7678C157.581 83.1892 157.271 83.5182 156.869 83.755C156.469 83.9893 155.993 84.1065 155.441 84.1065ZM155.448 82.9347C155.699 82.9347 155.909 82.8636 156.077 82.7216C156.245 82.5772 156.372 82.3807 156.457 82.1321C156.544 81.8835 156.588 81.6006 156.588 81.2834C156.588 80.9661 156.544 80.6832 156.457 80.4347C156.372 80.1861 156.245 79.9896 156.077 79.8452C155.909 79.7008 155.699 79.6286 155.448 79.6286C155.195 79.6286 154.982 79.7008 154.809 79.8452C154.639 79.9896 154.51 80.1861 154.422 80.4347C154.337 80.6832 154.294 80.9661 154.294 81.2834C154.294 81.6006 154.337 81.8835 154.422 82.1321C154.51 82.3807 154.639 82.5772 154.809 82.7216C154.982 82.8636 155.195 82.9347 155.448 82.9347ZM161.452 76.7273H163.349L165.352 81.6136H165.437L167.44 76.7273H169.336V84H167.844V79.2663H167.784L165.902 83.9645H164.886L163.004 79.2486H162.944V84H161.452V76.7273ZM172.13 84.103C171.782 84.103 171.472 84.0426 171.199 83.9219C170.927 83.7988 170.712 83.6177 170.553 83.3786C170.397 83.1371 170.319 82.8364 170.319 82.4766C170.319 82.1735 170.374 81.919 170.486 81.7131C170.597 81.5071 170.748 81.3414 170.94 81.2159C171.132 81.0904 171.35 80.9957 171.594 80.9318C171.84 80.8679 172.098 80.8229 172.368 80.7969C172.685 80.7637 172.941 80.733 173.135 80.7045C173.329 80.6738 173.47 80.6288 173.557 80.5696C173.645 80.5104 173.689 80.4228 173.689 80.3068V80.2855C173.689 80.0606 173.618 79.8866 173.476 79.7635C173.336 79.6404 173.137 79.5788 172.879 79.5788C172.607 79.5788 172.39 79.6392 172.229 79.7599C172.068 79.8783 171.962 80.0275 171.91 80.2074L170.51 80.0938C170.581 79.7623 170.721 79.4759 170.93 79.2344C171.138 78.9905 171.407 78.8035 171.736 78.6733C172.067 78.5407 172.451 78.4744 172.886 78.4744C173.189 78.4744 173.479 78.5099 173.756 78.581C174.036 78.652 174.283 78.7621 174.498 78.9112C174.716 79.0604 174.888 79.2521 175.013 79.4865C175.139 79.7185 175.202 79.9967 175.202 80.321V84H173.767V83.2436H173.724C173.637 83.4141 173.519 83.5644 173.373 83.6946C173.226 83.8224 173.05 83.9231 172.844 83.9964C172.638 84.0675 172.4 84.103 172.13 84.103ZM172.563 83.0589C172.786 83.0589 172.982 83.0152 173.153 82.9276C173.323 82.8376 173.457 82.7169 173.554 82.5653C173.651 82.4138 173.699 82.2422 173.699 82.0504V81.4716C173.652 81.5024 173.587 81.5308 173.504 81.5568C173.424 81.5805 173.332 81.603 173.231 81.6243C173.129 81.6432 173.027 81.661 172.925 81.6776C172.823 81.6918 172.731 81.7048 172.648 81.7166C172.471 81.7427 172.316 81.7841 172.183 81.8409C172.05 81.8977 171.948 81.9747 171.874 82.0717C171.801 82.1664 171.764 82.2848 171.764 82.4268C171.764 82.6328 171.839 82.7902 171.988 82.8991C172.139 83.0057 172.331 83.0589 172.563 83.0589ZM177.888 80.8466V84H176.375V78.5455H177.817V79.5078H177.881C178.002 79.1906 178.204 78.9396 178.488 78.755C178.772 78.5679 179.117 78.4744 179.521 78.4744C179.9 78.4744 180.231 78.5573 180.512 78.723C180.794 78.8887 181.013 79.1255 181.169 79.4332C181.325 79.7386 181.404 80.1032 181.404 80.527V84H179.891V80.7969C179.893 80.4631 179.808 80.2027 179.635 80.0156C179.462 79.8262 179.224 79.7315 178.921 79.7315C178.718 79.7315 178.538 79.7753 178.382 79.8629C178.228 79.9505 178.107 80.0784 178.019 80.2464C177.934 80.4122 177.89 80.6122 177.888 80.8466ZM184.151 84.103C183.803 84.103 183.493 84.0426 183.221 83.9219C182.949 83.7988 182.733 83.6177 182.575 83.3786C182.418 83.1371 182.34 82.8364 182.34 82.4766C182.34 82.1735 182.396 81.919 182.507 81.7131C182.618 81.5071 182.77 81.3414 182.962 81.2159C183.153 81.0904 183.371 80.9957 183.615 80.9318C183.861 80.8679 184.119 80.8229 184.389 80.7969C184.706 80.7637 184.962 80.733 185.156 80.7045C185.35 80.6738 185.491 80.6288 185.579 80.5696C185.666 80.5104 185.71 80.4228 185.71 80.3068V80.2855C185.71 80.0606 185.639 79.8866 185.497 79.7635C185.357 79.6404 185.159 79.5788 184.901 79.5788C184.628 79.5788 184.412 79.6392 184.251 79.7599C184.09 79.8783 183.983 80.0275 183.931 80.2074L182.532 80.0938C182.603 79.7623 182.743 79.4759 182.951 79.2344C183.159 78.9905 183.428 78.8035 183.757 78.6733C184.089 78.5407 184.472 78.4744 184.908 78.4744C185.211 78.4744 185.501 78.5099 185.778 78.581C186.057 78.652 186.304 78.7621 186.52 78.9112C186.738 79.0604 186.909 79.2521 187.035 79.4865C187.16 79.7185 187.223 79.9967 187.223 80.321V84H185.788V83.2436H185.746C185.658 83.4141 185.541 83.5644 185.394 83.6946C185.247 83.8224 185.071 83.9231 184.865 83.9964C184.659 84.0675 184.421 84.103 184.151 84.103ZM184.585 83.0589C184.807 83.0589 185.004 83.0152 185.174 82.9276C185.344 82.8376 185.478 82.7169 185.575 82.5653C185.672 82.4138 185.721 82.2422 185.721 82.0504V81.4716C185.674 81.5024 185.608 81.5308 185.526 81.5568C185.445 81.5805 185.354 81.603 185.252 81.6243C185.15 81.6432 185.049 81.661 184.947 81.6776C184.845 81.6918 184.753 81.7048 184.67 81.7166C184.492 81.7427 184.337 81.7841 184.205 81.8409C184.072 81.8977 183.969 81.9747 183.896 82.0717C183.822 82.1664 183.786 82.2848 183.786 82.4268C183.786 82.6328 183.86 82.7902 184.009 82.8991C184.161 83.0057 184.353 83.0589 184.585 83.0589ZM190.854 86.1591C190.364 86.1591 189.944 86.0916 189.593 85.9567C189.245 85.8241 188.968 85.643 188.762 85.4134C188.556 85.1837 188.423 84.9257 188.361 84.6392L189.76 84.451C189.803 84.5599 189.87 84.6617 189.963 84.7564C190.055 84.8511 190.177 84.9268 190.328 84.9837C190.482 85.0429 190.669 85.0724 190.89 85.0724C191.219 85.0724 191.49 84.992 191.703 84.831C191.918 84.6723 192.026 84.406 192.026 84.032V83.0341H191.962C191.896 83.1856 191.796 83.3288 191.664 83.4638C191.531 83.5987 191.361 83.7088 191.152 83.794C190.944 83.8793 190.695 83.9219 190.407 83.9219C189.997 83.9219 189.624 83.8272 189.288 83.6378C188.954 83.446 188.688 83.1536 188.489 82.7607C188.292 82.3653 188.194 81.8658 188.194 81.2621C188.194 80.6442 188.295 80.1281 188.496 79.7138C188.697 79.2995 188.965 78.9893 189.299 78.7834C189.635 78.5774 190.003 78.4744 190.403 78.4744C190.708 78.4744 190.964 78.5265 191.17 78.6307C191.376 78.7325 191.542 78.8603 191.667 79.0142C191.795 79.1657 191.893 79.3149 191.962 79.4616H192.019V78.5455H193.521V84.0533C193.521 84.5173 193.407 84.9055 193.18 85.218C192.953 85.5305 192.638 85.7649 192.235 85.9212C191.835 86.0798 191.375 86.1591 190.854 86.1591ZM190.886 82.7855C191.13 82.7855 191.336 82.7251 191.504 82.6044C191.674 82.4813 191.805 82.3061 191.895 82.0788C191.987 81.8492 192.033 81.5746 192.033 81.255C192.033 80.9354 191.988 80.6584 191.898 80.424C191.808 80.1873 191.678 80.0038 191.507 79.8736C191.337 79.7434 191.13 79.6783 190.886 79.6783C190.637 79.6783 190.428 79.7457 190.257 79.8807C190.087 80.0133 189.958 80.1979 189.87 80.4347C189.783 80.6714 189.739 80.9448 189.739 81.255C189.739 81.5698 189.783 81.8421 189.87 82.0717C189.96 82.299 190.089 82.4754 190.257 82.6009C190.428 82.724 190.637 82.7855 190.886 82.7855ZM197.211 84.1065C196.65 84.1065 196.167 83.9929 195.762 83.7656C195.359 83.536 195.049 83.2116 194.831 82.7926C194.614 82.3712 194.505 81.8729 194.505 81.2976C194.505 80.7365 194.614 80.2441 194.831 79.8203C195.049 79.3965 195.356 79.0663 195.751 78.8295C196.149 78.5928 196.615 78.4744 197.15 78.4744C197.51 78.4744 197.845 78.5324 198.155 78.6484C198.468 78.7621 198.74 78.9337 198.972 79.1634C199.206 79.393 199.389 79.6818 199.519 80.0298C199.649 80.3755 199.714 80.7803 199.714 81.2443V81.6598H195.108V80.7223H198.29C198.29 80.5045 198.243 80.3116 198.148 80.1435C198.053 79.9754 197.922 79.844 197.754 79.7493C197.588 79.6522 197.395 79.6037 197.175 79.6037C196.945 79.6037 196.742 79.657 196.564 79.7635C196.389 79.8677 196.252 80.0085 196.152 80.1861C196.053 80.3613 196.002 80.5566 196 80.772V81.6634C196 81.9332 196.049 82.1664 196.149 82.3629C196.251 82.5594 196.394 82.7109 196.578 82.8175C196.763 82.924 196.982 82.9773 197.235 82.9773C197.404 82.9773 197.557 82.9536 197.697 82.9062C197.837 82.8589 197.956 82.7879 198.056 82.6932C198.155 82.5985 198.231 82.4825 198.283 82.3452L199.682 82.4375C199.611 82.7737 199.466 83.0672 199.245 83.3182C199.028 83.5668 198.746 83.7609 198.4 83.9006C198.057 84.0379 197.66 84.1065 197.211 84.1065ZM106.335 96V88.7273H109.205C109.754 88.7273 110.223 88.8255 110.611 89.022C111.001 89.2161 111.299 89.492 111.502 89.8494C111.708 90.2045 111.811 90.6224 111.811 91.103C111.811 91.5859 111.707 92.0014 111.499 92.3494C111.29 92.6951 110.988 92.9602 110.593 93.1449C110.2 93.3295 109.724 93.4219 109.165 93.4219H107.244V92.1861H108.917C109.21 92.1861 109.454 92.1458 109.648 92.0653C109.843 91.9848 109.987 91.8641 110.082 91.7031C110.179 91.5421 110.227 91.3421 110.227 91.103C110.227 90.8615 110.179 90.6579 110.082 90.4922C109.987 90.3265 109.841 90.201 109.645 90.1158C109.451 90.0282 109.206 89.9844 108.91 89.9844H107.873V96H106.335ZM110.263 92.6903L112.07 96H110.373L108.604 92.6903H110.263ZM115.267 96.1065C114.706 96.1065 114.223 95.9929 113.818 95.7656C113.416 95.536 113.106 95.2116 112.888 94.7926C112.67 94.3712 112.561 93.8729 112.561 93.2976C112.561 92.7365 112.67 92.2441 112.888 91.8203C113.106 91.3965 113.412 91.0663 113.808 90.8295C114.205 90.5928 114.672 90.4744 115.207 90.4744C115.567 90.4744 115.902 90.5324 116.212 90.6484C116.524 90.7621 116.797 90.9337 117.029 91.1634C117.263 91.393 117.445 91.6818 117.575 92.0298C117.706 92.3755 117.771 92.7803 117.771 93.2443V93.6598H113.165V92.7223H116.347C116.347 92.5045 116.299 92.3116 116.205 92.1435C116.11 91.9754 115.979 91.844 115.811 91.7493C115.645 91.6522 115.452 91.6037 115.232 91.6037C115.002 91.6037 114.798 91.657 114.621 91.7635C114.446 91.8677 114.308 92.0085 114.209 92.1861C114.11 92.3613 114.059 92.5566 114.056 92.772V93.6634C114.056 93.9332 114.106 94.1664 114.205 94.3629C114.307 94.5594 114.45 94.7109 114.635 94.8175C114.82 94.924 115.039 94.9773 115.292 94.9773C115.46 94.9773 115.614 94.9536 115.754 94.9062C115.893 94.8589 116.013 94.7879 116.112 94.6932C116.212 94.5985 116.288 94.4825 116.34 94.3452L117.739 94.4375C117.668 94.7737 117.522 95.0672 117.302 95.3182C117.084 95.5668 116.802 95.7609 116.457 95.9006C116.114 96.0379 115.717 96.1065 115.267 96.1065ZM120.271 88.7273V96H118.758V88.7273H120.271ZM123.038 96.103C122.69 96.103 122.38 96.0426 122.108 95.9219C121.835 95.7988 121.62 95.6177 121.461 95.3786C121.305 95.1371 121.227 94.8364 121.227 94.4766C121.227 94.1735 121.283 93.919 121.394 93.7131C121.505 93.5071 121.657 93.3414 121.848 93.2159C122.04 93.0904 122.258 92.9957 122.502 92.9318C122.748 92.8679 123.006 92.8229 123.276 92.7969C123.593 92.7637 123.849 92.733 124.043 92.7045C124.237 92.6738 124.378 92.6288 124.466 92.5696C124.553 92.5104 124.597 92.4228 124.597 92.3068V92.2855C124.597 92.0606 124.526 91.8866 124.384 91.7635C124.244 91.6404 124.045 91.5788 123.787 91.5788C123.515 91.5788 123.298 91.6392 123.137 91.7599C122.976 91.8783 122.87 92.0275 122.818 92.2074L121.419 92.0938C121.49 91.7623 121.629 91.4759 121.838 91.2344C122.046 90.9905 122.315 90.8035 122.644 90.6733C122.975 90.5407 123.359 90.4744 123.794 90.4744C124.097 90.4744 124.387 90.5099 124.664 90.581C124.944 90.652 125.191 90.7621 125.407 90.9112C125.624 91.0604 125.796 91.2521 125.922 91.4865C126.047 91.7185 126.11 91.9967 126.11 92.321V96H124.675V95.2436H124.632C124.545 95.4141 124.428 95.5644 124.281 95.6946C124.134 95.8224 123.958 95.9231 123.752 95.9964C123.546 96.0675 123.308 96.103 123.038 96.103ZM123.471 95.0589C123.694 95.0589 123.89 95.0152 124.061 94.9276C124.231 94.8376 124.365 94.7169 124.462 94.5653C124.559 94.4138 124.608 94.2422 124.608 94.0504V93.4716C124.56 93.5024 124.495 93.5308 124.412 93.5568C124.332 93.5805 124.241 93.603 124.139 93.6243C124.037 93.6432 123.935 93.661 123.833 93.6776C123.732 93.6918 123.639 93.7048 123.556 93.7166C123.379 93.7427 123.224 93.7841 123.091 93.8409C122.959 93.8977 122.856 93.9747 122.782 94.0717C122.709 94.1664 122.672 94.2848 122.672 94.4268C122.672 94.6328 122.747 94.7902 122.896 94.8991C123.047 95.0057 123.239 95.0589 123.471 95.0589ZM130.185 90.5455V91.6818H126.9V90.5455H130.185ZM127.646 89.2386H129.158V94.3239C129.158 94.4635 129.18 94.5724 129.222 94.6506C129.265 94.7263 129.324 94.7796 129.4 94.8104C129.478 94.8411 129.568 94.8565 129.67 94.8565C129.741 94.8565 129.812 94.8506 129.883 94.8388C129.954 94.8246 130.008 94.8139 130.046 94.8068L130.284 95.9325C130.208 95.9562 130.102 95.9834 129.964 96.0142C129.827 96.0473 129.66 96.0675 129.464 96.0746C129.099 96.0888 128.78 96.0402 128.505 95.929C128.233 95.8177 128.021 95.6449 127.869 95.4105C127.718 95.1761 127.643 94.8802 127.646 94.5227V89.2386ZM133.597 96.1065C133.036 96.1065 132.553 95.9929 132.148 95.7656C131.746 95.536 131.436 95.2116 131.218 94.7926C131 94.3712 130.891 93.8729 130.891 93.2976C130.891 92.7365 131 92.2441 131.218 91.8203C131.436 91.3965 131.742 91.0663 132.138 90.8295C132.536 90.5928 133.002 90.4744 133.537 90.4744C133.897 90.4744 134.232 90.5324 134.542 90.6484C134.854 90.7621 135.127 90.9337 135.359 91.1634C135.593 91.393 135.775 91.6818 135.906 92.0298C136.036 92.3755 136.101 92.7803 136.101 93.2443V93.6598H131.495V92.7223H134.677C134.677 92.5045 134.629 92.3116 134.535 92.1435C134.44 91.9754 134.309 91.844 134.141 91.7493C133.975 91.6522 133.782 91.6037 133.562 91.6037C133.332 91.6037 133.129 91.657 132.951 91.7635C132.776 91.8677 132.638 92.0085 132.539 92.1861C132.44 92.3613 132.389 92.5566 132.386 92.772V93.6634C132.386 93.9332 132.436 94.1664 132.536 94.3629C132.637 94.5594 132.781 94.7109 132.965 94.8175C133.15 94.924 133.369 94.9773 133.622 94.9773C133.79 94.9773 133.944 94.9536 134.084 94.9062C134.223 94.8589 134.343 94.7879 134.442 94.6932C134.542 94.5985 134.618 94.4825 134.67 94.3452L136.069 94.4375C135.998 94.7737 135.852 95.0672 135.632 95.3182C135.414 95.5668 135.133 95.7609 134.787 95.9006C134.444 96.0379 134.047 96.1065 133.597 96.1065ZM139.098 96.0888C138.684 96.0888 138.308 95.9822 137.972 95.7692C137.638 95.5537 137.373 95.2377 137.177 94.821C136.983 94.402 136.886 93.8883 136.886 93.2798C136.886 92.6548 136.986 92.1352 137.188 91.7209C137.389 91.3042 137.656 90.9929 137.99 90.7869C138.326 90.5786 138.694 90.4744 139.094 90.4744C139.4 90.4744 139.654 90.5265 139.858 90.6307C140.064 90.7325 140.23 90.8603 140.355 91.0142C140.483 91.1657 140.58 91.3149 140.646 91.4616H140.692V88.7273H142.202V96H140.71V95.1264H140.646C140.575 95.2779 140.475 95.4283 140.344 95.5774C140.217 95.7242 140.05 95.8461 139.844 95.9432C139.64 96.0402 139.392 96.0888 139.098 96.0888ZM139.577 94.8849C139.821 94.8849 140.027 94.8187 140.195 94.6861C140.366 94.5511 140.496 94.3629 140.586 94.1214C140.678 93.88 140.724 93.5971 140.724 93.2727C140.724 92.9484 140.679 92.6667 140.589 92.4276C140.5 92.1884 140.369 92.0038 140.199 91.8736C140.028 91.7434 139.821 91.6783 139.577 91.6783C139.329 91.6783 139.119 91.7457 138.949 91.8807C138.778 92.0156 138.649 92.2027 138.562 92.4418C138.474 92.6809 138.43 92.9579 138.43 93.2727C138.43 93.59 138.474 93.8705 138.562 94.1143C138.652 94.3558 138.781 94.5452 138.949 94.6825C139.119 94.8175 139.329 94.8849 139.577 94.8849ZM145.788 96V88.7273H148.658C149.209 88.7273 149.679 88.8326 150.067 89.0433C150.456 89.2517 150.752 89.5417 150.955 89.9134C151.161 90.2827 151.264 90.7088 151.264 91.1918C151.264 91.6747 151.16 92.1009 150.952 92.4702C150.743 92.8395 150.442 93.1271 150.046 93.3331C149.653 93.5391 149.177 93.642 148.619 93.642H146.79V92.4098H148.37C148.666 92.4098 148.91 92.3589 149.102 92.2571C149.296 92.1529 149.44 92.0097 149.535 91.8274C149.632 91.6428 149.68 91.4309 149.68 91.1918C149.68 90.9503 149.632 90.7396 149.535 90.5597C149.44 90.3774 149.296 90.2365 149.102 90.1371C148.907 90.0353 148.661 89.9844 148.363 89.9844H147.326V96H145.788ZM153.643 96.103C153.295 96.103 152.985 96.0426 152.713 95.9219C152.441 95.7988 152.225 95.6177 152.067 95.3786C151.911 95.1371 151.832 94.8364 151.832 94.4766C151.832 94.1735 151.888 93.919 151.999 93.7131C152.111 93.5071 152.262 93.3414 152.454 93.2159C152.646 93.0904 152.863 92.9957 153.107 92.9318C153.353 92.8679 153.612 92.8229 153.881 92.7969C154.199 92.7637 154.454 92.733 154.648 92.7045C154.843 92.6738 154.983 92.6288 155.071 92.5696C155.159 92.5104 155.202 92.4228 155.202 92.3068V92.2855C155.202 92.0606 155.131 91.8866 154.989 91.7635C154.85 91.6404 154.651 91.5788 154.393 91.5788C154.121 91.5788 153.904 91.6392 153.743 91.7599C153.582 91.8783 153.475 92.0275 153.423 92.2074L152.024 92.0938C152.095 91.7623 152.235 91.4759 152.443 91.2344C152.652 90.9905 152.92 90.8035 153.249 90.6733C153.581 90.5407 153.964 90.4744 154.4 90.4744C154.703 90.4744 154.993 90.5099 155.27 90.581C155.549 90.652 155.797 90.7621 156.012 90.9112C156.23 91.0604 156.402 91.2521 156.527 91.4865C156.652 91.7185 156.715 91.9967 156.715 92.321V96H155.281V95.2436H155.238C155.15 95.4141 155.033 95.5644 154.886 95.6946C154.74 95.8224 154.563 95.9231 154.357 95.9964C154.151 96.0675 153.913 96.103 153.643 96.103ZM154.077 95.0589C154.299 95.0589 154.496 95.0152 154.666 94.9276C154.837 94.8376 154.97 94.7169 155.067 94.5653C155.165 94.4138 155.213 94.2422 155.213 94.0504V93.4716C155.166 93.5024 155.101 93.5308 155.018 93.5568C154.937 93.5805 154.846 93.603 154.744 93.6243C154.643 93.6432 154.541 93.661 154.439 93.6776C154.337 93.6918 154.245 93.7048 154.162 93.7166C153.984 93.7427 153.829 93.7841 153.697 93.8409C153.564 93.8977 153.461 93.9747 153.388 94.0717C153.314 94.1664 153.278 94.2848 153.278 94.4268C153.278 94.6328 153.352 94.7902 153.501 94.8991C153.653 95.0057 153.845 95.0589 154.077 95.0589ZM157.889 98.0455V90.5455H159.38V91.4616H159.448C159.514 91.3149 159.61 91.1657 159.735 91.0142C159.863 90.8603 160.029 90.7325 160.233 90.6307C160.439 90.5265 160.694 90.4744 161 90.4744C161.397 90.4744 161.764 90.5786 162.1 90.7869C162.437 90.9929 162.705 91.3042 162.907 91.7209C163.108 92.1352 163.208 92.6548 163.208 93.2798C163.208 93.8883 163.11 94.402 162.914 94.821C162.72 95.2377 162.454 95.5537 162.118 95.7692C161.784 95.9822 161.41 96.0888 160.996 96.0888C160.703 96.0888 160.453 96.0402 160.247 95.9432C160.043 95.8461 159.876 95.7242 159.746 95.5774C159.616 95.4283 159.516 95.2779 159.448 95.1264H159.402V98.0455H157.889ZM159.37 93.2727C159.37 93.5971 159.415 93.88 159.505 94.1214C159.595 94.3629 159.725 94.5511 159.895 94.6861C160.066 94.8187 160.273 94.8849 160.517 94.8849C160.763 94.8849 160.971 94.8175 161.142 94.6825C161.312 94.5452 161.441 94.3558 161.529 94.1143C161.619 93.8705 161.664 93.59 161.664 93.2727C161.664 92.9579 161.62 92.6809 161.532 92.4418C161.445 92.2027 161.316 92.0156 161.145 91.8807C160.975 91.7457 160.765 91.6783 160.517 91.6783C160.27 91.6783 160.062 91.7434 159.892 91.8736C159.724 92.0038 159.595 92.1884 159.505 92.4276C159.415 92.6667 159.37 92.9484 159.37 93.2727ZM166.703 96.1065C166.142 96.1065 165.659 95.9929 165.254 95.7656C164.851 95.536 164.541 95.2116 164.324 94.7926C164.106 94.3712 163.997 93.8729 163.997 93.2976C163.997 92.7365 164.106 92.2441 164.324 91.8203C164.541 91.3965 164.848 91.0663 165.243 90.8295C165.641 90.5928 166.107 90.4744 166.642 90.4744C167.002 90.4744 167.337 90.5324 167.647 90.6484C167.96 90.7621 168.232 90.9337 168.464 91.1634C168.699 91.393 168.881 91.6818 169.011 92.0298C169.141 92.3755 169.206 92.7803 169.206 93.2443V93.6598H164.6V92.7223H167.782C167.782 92.5045 167.735 92.3116 167.64 92.1435C167.546 91.9754 167.414 91.844 167.246 91.7493C167.08 91.6522 166.887 91.6037 166.667 91.6037C166.438 91.6037 166.234 91.657 166.056 91.7635C165.881 91.8677 165.744 92.0085 165.645 92.1861C165.545 92.3613 165.494 92.5566 165.492 92.772V93.6634C165.492 93.9332 165.542 94.1664 165.641 94.3629C165.743 94.5594 165.886 94.7109 166.071 94.8175C166.255 94.924 166.474 94.9773 166.728 94.9773C166.896 94.9773 167.05 94.9536 167.189 94.9062C167.329 94.8589 167.449 94.7879 167.548 94.6932C167.647 94.5985 167.723 94.4825 167.775 94.3452L169.174 94.4375C169.103 94.7737 168.958 95.0672 168.738 95.3182C168.52 95.5668 168.238 95.7609 167.892 95.9006C167.549 96.0379 167.153 96.1065 166.703 96.1065ZM170.194 96V90.5455H171.66V91.4972H171.717C171.816 91.1586 171.983 90.9029 172.218 90.7301C172.452 90.5549 172.722 90.4673 173.027 90.4673C173.103 90.4673 173.185 90.4721 173.272 90.4815C173.36 90.491 173.437 90.504 173.503 90.5206V91.8629C173.432 91.8416 173.334 91.8227 173.208 91.8061C173.083 91.7895 172.968 91.7812 172.864 91.7812C172.641 91.7812 172.443 91.8298 172.267 91.9268C172.095 92.0215 171.957 92.1541 171.855 92.3246C171.756 92.495 171.706 92.6915 171.706 92.9141V96H170.194ZM178.824 92.1009L177.439 92.1861C177.415 92.0677 177.364 91.9612 177.286 91.8665C177.208 91.7694 177.105 91.6925 176.977 91.6357C176.852 91.5765 176.701 91.5469 176.526 91.5469C176.292 91.5469 176.094 91.5966 175.933 91.696C175.772 91.7931 175.692 91.9233 175.692 92.0866C175.692 92.2169 175.744 92.3269 175.848 92.4169C175.952 92.5069 176.131 92.5791 176.384 92.6335L177.371 92.8324C177.902 92.9413 178.297 93.1165 178.557 93.358C178.818 93.5994 178.948 93.9167 178.948 94.3097C178.948 94.6671 178.843 94.9808 178.632 95.2507C178.424 95.5206 178.137 95.7313 177.773 95.8828C177.41 96.032 176.992 96.1065 176.519 96.1065C175.797 96.1065 175.222 95.9562 174.793 95.6555C174.367 95.3525 174.117 94.9406 174.044 94.4197L175.532 94.3416C175.577 94.5618 175.686 94.7299 175.858 94.8459C176.031 94.9595 176.253 95.0163 176.523 95.0163C176.788 95.0163 177.001 94.9654 177.162 94.8636C177.325 94.7595 177.408 94.6257 177.41 94.4624C177.408 94.325 177.35 94.2126 177.236 94.125C177.123 94.035 176.948 93.9664 176.711 93.919L175.766 93.7308C175.233 93.6243 174.837 93.4396 174.577 93.1768C174.318 92.9141 174.189 92.5791 174.189 92.1719C174.189 91.8215 174.284 91.5196 174.474 91.2663C174.665 91.013 174.934 90.8177 175.28 90.6804C175.628 90.5431 176.035 90.4744 176.501 90.4744C177.19 90.4744 177.732 90.62 178.128 90.9112C178.525 91.2024 178.757 91.599 178.824 92.1009Z" fill="white"/>
<path d="M134 42.5V59.5C134 60.6046 134.895 61.5 136 61.5H147.5C148.605 61.5 149.5 60.6046 149.5 59.5V46.3284C149.5 45.798 149.289 45.2893 148.914 44.9142L145.086 41.0858C144.711 40.7107 144.202 40.5 143.672 40.5H136C134.895 40.5 134 41.3954 134 42.5Z" stroke="white" stroke-width="1.4" stroke-linecap="round" stroke-linejoin="round"/>
<path d="M144 40.5V44C144 45.1046 144.895 46 146 46H149.5" stroke="white" stroke-width="1.4" stroke-linecap="round" stroke-linejoin="round"/>
<path d="M137 49H147" stroke="white" stroke-width="1.4" stroke-linecap="round" stroke-linejoin="round"/>
<path d="M137 53H147" stroke="white" stroke-width="1.4" stroke-linecap="round" stroke-linejoin="round"/>
<path d="M137 57H147" stroke="white" stroke-width="1.4" stroke-linecap="round" stroke-linejoin="round"/>
<rect x="439" width="160" height="98" rx="10" fill="#15234A"/>
<circle cx="519" cy="30" r="10.3" stroke="white" stroke-width="1.4"/>
<path d="M515 29.5L518 32.5L523.5 27" stroke="white" stroke-width="1.4" stroke-linecap="round" stroke-linejoin="round"/>
<path d="M479.287 60V52.7273H482.157C482.708 52.7273 483.178 52.8326 483.566 53.0433C483.955 53.2517 484.251 53.5417 484.454 53.9134C484.66 54.2827 484.763 54.7088 484.763 55.1918C484.763 55.6747 484.659 56.1009 484.451 56.4702C484.242 56.8395 483.941 57.1271 483.545 57.3331C483.152 57.5391 482.676 57.642 482.118 57.642H480.289V56.4098H481.869C482.165 56.4098 482.409 56.3589 482.601 56.2571C482.795 56.1529 482.939 56.0097 483.034 55.8274C483.131 55.6428 483.179 55.4309 483.179 55.1918C483.179 54.9503 483.131 54.7396 483.034 54.5597C482.939 54.3774 482.795 54.2365 482.601 54.1371C482.406 54.0353 482.16 53.9844 481.862 53.9844H480.825V60H479.287ZM485.734 60V54.5455H487.2V55.4972H487.257C487.356 55.1586 487.523 54.9029 487.758 54.7301C487.992 54.5549 488.262 54.4673 488.567 54.4673C488.643 54.4673 488.725 54.4721 488.812 54.4815C488.9 54.491 488.977 54.504 489.043 54.5206V55.8629C488.972 55.8416 488.874 55.8227 488.748 55.8061C488.623 55.7895 488.508 55.7812 488.404 55.7812C488.181 55.7812 487.983 55.8298 487.807 55.9268C487.635 56.0215 487.497 56.1541 487.396 56.3246C487.296 56.495 487.246 56.6915 487.246 56.9141V60H485.734ZM492.036 60.1065C491.484 60.1065 491.007 59.9893 490.605 59.755C490.205 59.5182 489.896 59.1892 489.678 58.7678C489.46 58.344 489.351 57.8527 489.351 57.294C489.351 56.7306 489.46 56.2382 489.678 55.8168C489.896 55.393 490.205 55.0639 490.605 54.8295C491.007 54.5928 491.484 54.4744 492.036 54.4744C492.588 54.4744 493.063 54.5928 493.464 54.8295C493.866 55.0639 494.176 55.393 494.394 55.8168C494.612 56.2382 494.721 56.7306 494.721 57.294C494.721 57.8527 494.612 58.344 494.394 58.7678C494.176 59.1892 493.866 59.5182 493.464 59.755C493.063 59.9893 492.588 60.1065 492.036 60.1065ZM492.043 58.9347C492.294 58.9347 492.504 58.8636 492.672 58.7216C492.84 58.5772 492.966 58.3807 493.052 58.1321C493.139 57.8835 493.183 57.6006 493.183 57.2834C493.183 56.9661 493.139 56.6832 493.052 56.4347C492.966 56.1861 492.84 55.9896 492.672 55.8452C492.504 55.7008 492.294 55.6286 492.043 55.6286C491.79 55.6286 491.577 55.7008 491.404 55.8452C491.233 55.9896 491.104 56.1861 491.017 56.4347C490.932 56.6832 490.889 56.9661 490.889 57.2834C490.889 57.6006 490.932 57.8835 491.017 58.1321C491.104 58.3807 491.233 58.5772 491.404 58.7216C491.577 58.8636 491.79 58.9347 492.043 58.9347ZM495.704 62.0455V54.5455H497.196V55.4616H497.263C497.33 55.3149 497.425 55.1657 497.551 55.0142C497.679 54.8603 497.844 54.7325 498.048 54.6307C498.254 54.5265 498.51 54.4744 498.815 54.4744C499.213 54.4744 499.58 54.5786 499.916 54.7869C500.252 54.9929 500.521 55.3042 500.722 55.7209C500.923 56.1352 501.024 56.6548 501.024 57.2798C501.024 57.8883 500.926 58.402 500.729 58.821C500.535 59.2377 500.27 59.5537 499.934 59.7692C499.6 59.9822 499.226 60.0888 498.812 60.0888C498.518 60.0888 498.268 60.0402 498.062 59.9432C497.859 59.8461 497.692 59.7242 497.562 59.5774C497.431 59.4283 497.332 59.2779 497.263 59.1264H497.217V62.0455H495.704ZM497.185 57.2727C497.185 57.5971 497.23 57.88 497.32 58.1214C497.41 58.3629 497.54 58.5511 497.711 58.6861C497.881 58.8187 498.088 58.8849 498.332 58.8849C498.578 58.8849 498.787 58.8175 498.957 58.6825C499.128 58.5452 499.257 58.3558 499.344 58.1143C499.434 57.8705 499.479 57.59 499.479 57.2727C499.479 56.9579 499.435 56.6809 499.348 56.4418C499.26 56.2027 499.131 56.0156 498.961 55.8807C498.79 55.7457 498.581 55.6783 498.332 55.6783C498.086 55.6783 497.878 55.7434 497.707 55.8736C497.539 56.0038 497.41 56.1884 497.32 56.4276C497.23 56.6667 497.185 56.9484 497.185 57.2727ZM504.518 60.1065C503.957 60.1065 503.474 59.9929 503.069 59.7656C502.667 59.536 502.357 59.2116 502.139 58.7926C501.921 58.3712 501.812 57.8729 501.812 57.2976C501.812 56.7365 501.921 56.2441 502.139 55.8203C502.357 55.3965 502.663 55.0663 503.059 54.8295C503.456 54.5928 503.923 54.4744 504.458 54.4744C504.818 54.4744 505.153 54.5324 505.463 54.6484C505.775 54.7621 506.048 54.9337 506.28 55.1634C506.514 55.393 506.696 55.6818 506.826 56.0298C506.957 56.3755 507.022 56.7803 507.022 57.2443V57.6598H502.416V56.7223H505.598C505.598 56.5045 505.55 56.3116 505.456 56.1435C505.361 55.9754 505.23 55.844 505.062 55.7493C504.896 55.6522 504.703 55.6037 504.483 55.6037C504.253 55.6037 504.049 55.657 503.872 55.7635C503.697 55.8677 503.559 56.0085 503.46 56.1861C503.361 56.3613 503.31 56.5566 503.307 56.772V57.6634C503.307 57.9332 503.357 58.1664 503.456 58.3629C503.558 58.5594 503.701 58.7109 503.886 58.8175C504.071 58.924 504.29 58.9773 504.543 58.9773C504.711 58.9773 504.865 58.9536 505.005 58.9062C505.144 58.8589 505.264 58.7879 505.363 58.6932C505.463 58.5985 505.539 58.4825 505.591 58.3452L506.99 58.4375C506.919 58.7737 506.773 59.0672 506.553 59.3182C506.335 59.5668 506.053 59.7609 505.708 59.9006C505.365 60.0379 504.968 60.1065 504.518 60.1065ZM508.009 60V54.5455H509.476V55.4972H509.532C509.632 55.1586 509.799 54.9029 510.033 54.7301C510.267 54.5549 510.537 54.4673 510.843 54.4673C510.919 54.4673 511 54.4721 511.088 54.4815C511.175 54.491 511.252 54.504 511.319 54.5206V55.8629C511.248 55.8416 511.149 55.8227 511.024 55.8061C510.898 55.7895 510.784 55.7812 510.679 55.7812C510.457 55.7812 510.258 55.8298 510.083 55.9268C509.91 56.0215 509.773 56.1541 509.671 56.3246C509.571 56.495 509.522 56.6915 509.522 56.9141V60H508.009ZM519.266 55.0781C519.216 54.9053 519.147 54.7526 519.057 54.62C518.967 54.4851 518.857 54.3714 518.726 54.2791C518.598 54.1844 518.452 54.1122 518.286 54.0625C518.123 54.0128 517.941 53.9879 517.743 53.9879C517.371 53.9879 517.044 54.0803 516.763 54.2649C516.483 54.4496 516.265 54.7183 516.109 55.071C515.953 55.4214 515.875 55.8499 515.875 56.3565C515.875 56.8632 515.952 57.294 516.106 57.6491C516.259 58.0043 516.477 58.2753 516.759 58.4624C517.041 58.647 517.373 58.7393 517.757 58.7393C518.105 58.7393 518.402 58.6778 518.648 58.5547C518.897 58.4292 519.086 58.2528 519.216 58.0256C519.349 57.7983 519.415 57.5296 519.415 57.2195L519.728 57.2656H517.853V56.108H520.896V57.0241C520.896 57.6634 520.761 58.2126 520.491 58.6719C520.221 59.1288 519.85 59.4815 519.376 59.7301C518.903 59.9763 518.361 60.0994 517.75 60.0994C517.068 60.0994 516.469 59.9491 515.953 59.6484C515.437 59.3454 515.034 58.9157 514.745 58.3594C514.459 57.8007 514.316 57.1378 514.316 56.3707C514.316 55.7812 514.401 55.2557 514.571 54.794C514.744 54.33 514.986 53.937 515.296 53.6151C515.606 53.2931 515.967 53.0481 516.379 52.88C516.791 52.7119 517.237 52.6278 517.718 52.6278C518.13 52.6278 518.513 52.6882 518.868 52.8089C519.223 52.9273 519.538 53.0954 519.813 53.3132C520.09 53.531 520.316 53.7902 520.491 54.0909C520.666 54.3892 520.779 54.7183 520.829 55.0781H519.266ZM525.521 57.6776V54.5455H527.033V60H525.581V59.0092H525.524C525.401 59.3288 525.196 59.5857 524.91 59.7798C524.626 59.974 524.279 60.071 523.869 60.071C523.505 60.071 523.184 59.9882 522.907 59.8224C522.63 59.6567 522.413 59.4212 522.257 59.1158C522.103 58.8104 522.025 58.4446 522.023 58.0185V54.5455H523.535V57.7486C523.538 58.0705 523.624 58.325 523.795 58.5121C523.965 58.6991 524.194 58.7926 524.48 58.7926C524.662 58.7926 524.833 58.7512 524.991 58.6683C525.15 58.5831 525.278 58.4576 525.375 58.2919C525.474 58.1262 525.523 57.9214 525.521 57.6776ZM528.243 60V54.5455H529.756V60H528.243ZM529.003 53.8423C528.778 53.8423 528.585 53.7678 528.424 53.6186C528.266 53.4671 528.187 53.286 528.187 53.0753C528.187 52.867 528.266 52.6882 528.424 52.5391C528.585 52.3875 528.778 52.3118 529.003 52.3118C529.228 52.3118 529.42 52.3875 529.579 52.5391C529.74 52.6882 529.82 52.867 529.82 53.0753C529.82 53.286 529.74 53.4671 529.579 53.6186C529.42 53.7678 529.228 53.8423 529.003 53.8423ZM532.978 60.0888C532.564 60.0888 532.188 59.9822 531.852 59.7692C531.518 59.5537 531.253 59.2377 531.057 58.821C530.863 58.402 530.766 57.8883 530.766 57.2798C530.766 56.6548 530.866 56.1352 531.067 55.7209C531.269 55.3042 531.536 54.9929 531.87 54.7869C532.206 54.5786 532.574 54.4744 532.974 54.4744C533.28 54.4744 533.534 54.5265 533.738 54.6307C533.944 54.7325 534.11 54.8603 534.235 55.0142C534.363 55.1657 534.46 55.3149 534.526 55.4616H534.572V52.7273H536.082V60H534.59V59.1264H534.526C534.455 59.2779 534.355 59.4283 534.224 59.5774C534.097 59.7242 533.93 59.8461 533.724 59.9432C533.52 60.0402 533.271 60.0888 532.978 60.0888ZM533.457 58.8849C533.701 58.8849 533.907 58.8187 534.075 58.6861C534.246 58.5511 534.376 58.3629 534.466 58.1214C534.558 57.88 534.604 57.5971 534.604 57.2727C534.604 56.9484 534.559 56.6667 534.469 56.4276C534.379 56.1884 534.249 56.0038 534.079 55.8736C533.908 55.7434 533.701 55.6783 533.457 55.6783C533.209 55.6783 532.999 55.7457 532.829 55.8807C532.658 56.0156 532.529 56.2027 532.442 56.4418C532.354 56.6809 532.31 56.9579 532.31 57.2727C532.31 57.59 532.354 57.8705 532.442 58.1143C532.532 58.3558 532.661 58.5452 532.829 58.6825C532.999 58.8175 533.209 58.8849 533.457 58.8849ZM539.811 60.1065C539.25 60.1065 538.767 59.9929 538.362 59.7656C537.96 59.536 537.65 59.2116 537.432 58.7926C537.214 58.3712 537.105 57.8729 537.105 57.2976C537.105 56.7365 537.214 56.2441 537.432 55.8203C537.65 55.3965 537.956 55.0663 538.352 54.8295C538.749 54.5928 539.216 54.4744 539.751 54.4744C540.111 54.4744 540.446 54.5324 540.756 54.6484C541.068 54.7621 541.341 54.9337 541.573 55.1634C541.807 55.393 541.989 55.6818 542.119 56.0298C542.25 56.3755 542.315 56.7803 542.315 57.2443V57.6598H537.709V56.7223H540.891C540.891 56.5045 540.843 56.3116 540.749 56.1435C540.654 55.9754 540.523 55.844 540.354 55.7493C540.189 55.6522 539.996 55.6037 539.776 55.6037C539.546 55.6037 539.342 55.657 539.165 55.7635C538.99 55.8677 538.852 56.0085 538.753 56.1861C538.653 56.3613 538.603 56.5566 538.6 56.772V57.6634C538.6 57.9332 538.65 58.1664 538.749 58.3629C538.851 58.5594 538.994 58.7109 539.179 58.8175C539.364 58.924 539.583 58.9773 539.836 58.9773C540.004 58.9773 540.158 58.9536 540.298 58.9062C540.437 58.8589 540.557 58.7879 540.656 58.6932C540.756 58.5985 540.832 58.4825 540.884 58.3452L542.283 58.4375C542.212 58.7737 542.066 59.0672 541.846 59.3182C541.628 59.5668 541.346 59.7609 541.001 59.9006C540.658 60.0379 540.261 60.1065 539.811 60.1065ZM544.815 52.7273V60H543.302V52.7273H544.815ZM546.027 60V54.5455H547.539V60H546.027ZM546.786 53.8423C546.562 53.8423 546.369 53.7678 546.208 53.6186C546.049 53.4671 545.97 53.286 545.97 53.0753C545.97 52.867 546.049 52.6882 546.208 52.5391C546.369 52.3875 546.562 52.3118 546.786 52.3118C547.011 52.3118 547.203 52.3875 547.362 52.5391C547.523 52.6882 547.603 52.867 547.603 53.0753C547.603 53.286 547.523 53.4671 547.362 53.6186C547.203 53.7678 547.011 53.8423 546.786 53.8423ZM550.264 56.8466V60H548.751V54.5455H550.193V55.5078H550.257C550.378 55.1906 550.58 54.9396 550.864 54.755C551.148 54.5679 551.493 54.4744 551.897 54.4744C552.276 54.4744 552.607 54.5573 552.888 54.723C553.17 54.8887 553.389 55.1255 553.545 55.4332C553.701 55.7386 553.78 56.1032 553.78 56.527V60H552.267V56.7969C552.269 56.4631 552.184 56.2027 552.011 56.0156C551.838 55.8262 551.6 55.7315 551.297 55.7315C551.094 55.7315 550.914 55.7753 550.758 55.8629C550.604 55.9505 550.483 56.0784 550.395 56.2464C550.31 56.4122 550.266 56.6122 550.264 56.8466ZM557.458 60.1065C556.897 60.1065 556.414 59.9929 556.009 59.7656C555.606 59.536 555.296 59.2116 555.078 58.7926C554.861 58.3712 554.752 57.8729 554.752 57.2976C554.752 56.7365 554.861 56.2441 555.078 55.8203C555.296 55.3965 555.603 55.0663 555.998 54.8295C556.396 54.5928 556.862 54.4744 557.397 54.4744C557.757 54.4744 558.092 54.5324 558.402 54.6484C558.715 54.7621 558.987 54.9337 559.219 55.1634C559.453 55.393 559.636 55.6818 559.766 56.0298C559.896 56.3755 559.961 56.7803 559.961 57.2443V57.6598H555.355V56.7223H558.537C558.537 56.5045 558.49 56.3116 558.395 56.1435C558.3 55.9754 558.169 55.844 558.001 55.7493C557.835 55.6522 557.642 55.6037 557.422 55.6037C557.193 55.6037 556.989 55.657 556.811 55.7635C556.636 55.8677 556.499 56.0085 556.399 56.1861C556.3 56.3613 556.249 56.5566 556.247 56.772V57.6634C556.247 57.9332 556.296 58.1664 556.396 58.3629C556.498 58.5594 556.641 58.7109 556.826 58.8175C557.01 58.924 557.229 58.9773 557.483 58.9773C557.651 58.9773 557.804 58.9536 557.944 58.9062C558.084 58.8589 558.203 58.7879 558.303 58.6932C558.402 58.5985 558.478 58.4825 558.53 58.3452L559.929 58.4375C559.858 58.7737 559.713 59.0672 559.492 59.3182C559.275 59.5668 558.993 59.7609 558.647 59.9006C558.304 60.0379 557.907 60.1065 557.458 60.1065ZM480.884 66.5455V67.6818H477.517V66.5455H480.884ZM478.288 72V66.1513C478.288 65.7559 478.365 65.428 478.519 65.1676C478.675 64.9072 478.888 64.7119 479.158 64.5817C479.428 64.4515 479.734 64.3864 480.078 64.3864C480.31 64.3864 480.521 64.4041 480.713 64.4396C480.907 64.4751 481.052 64.5071 481.146 64.5355L480.877 65.6719C480.817 65.6529 480.744 65.6352 480.656 65.6186C480.571 65.602 480.484 65.5938 480.394 65.5938C480.171 65.5938 480.016 65.6458 479.928 65.75C479.841 65.8518 479.797 65.995 479.797 66.1797V72H478.288ZM484.077 72.1065C483.525 72.1065 483.048 71.9893 482.646 71.755C482.246 71.5182 481.937 71.1892 481.719 70.7678C481.501 70.344 481.392 69.8527 481.392 69.294C481.392 68.7306 481.501 68.2382 481.719 67.8168C481.937 67.393 482.246 67.0639 482.646 66.8295C483.048 66.5928 483.525 66.4744 484.077 66.4744C484.629 66.4744 485.104 66.5928 485.505 66.8295C485.907 67.0639 486.217 67.393 486.435 67.8168C486.653 68.2382 486.762 68.7306 486.762 69.294C486.762 69.8527 486.653 70.344 486.435 70.7678C486.217 71.1892 485.907 71.5182 485.505 71.755C485.104 71.9893 484.629 72.1065 484.077 72.1065ZM484.084 70.9347C484.335 70.9347 484.545 70.8636 484.713 70.7216C484.881 70.5772 485.007 70.3807 485.093 70.1321C485.18 69.8835 485.224 69.6006 485.224 69.2834C485.224 68.9661 485.18 68.6832 485.093 68.4347C485.007 68.1861 484.881 67.9896 484.713 67.8452C484.545 67.7008 484.335 67.6286 484.084 67.6286C483.831 67.6286 483.618 67.7008 483.445 67.8452C483.274 67.9896 483.145 68.1861 483.058 68.4347C482.973 68.6832 482.93 68.9661 482.93 69.2834C482.93 69.6006 482.973 69.8835 483.058 70.1321C483.145 70.3807 483.274 70.5772 483.445 70.7216C483.618 70.8636 483.831 70.9347 484.084 70.9347ZM487.745 72V66.5455H489.212V67.4972H489.269C489.368 67.1586 489.535 66.9029 489.769 66.7301C490.004 66.5549 490.274 66.4673 490.579 66.4673C490.655 66.4673 490.737 66.4721 490.824 66.4815C490.912 66.491 490.989 66.504 491.055 66.5206V67.8629C490.984 67.8416 490.886 67.8227 490.76 67.8061C490.635 67.7895 490.52 67.7812 490.416 67.7812C490.193 67.7812 489.994 67.8298 489.819 67.9268C489.646 68.0215 489.509 68.1541 489.407 68.3246C489.308 68.495 489.258 68.6915 489.258 68.9141V72H487.745ZM495.494 64.7273L497.252 70.2528H497.319L499.081 64.7273H500.785L498.278 72H496.296L493.786 64.7273H495.494ZM501.632 72V66.5455H503.145V72H501.632ZM502.392 65.8423C502.167 65.8423 501.974 65.7678 501.813 65.6186C501.655 65.4671 501.575 65.286 501.575 65.0753C501.575 64.867 501.655 64.6882 501.813 64.5391C501.974 64.3875 502.167 64.3118 502.392 64.3118C502.617 64.3118 502.809 64.3875 502.967 64.5391C503.128 64.6882 503.209 64.867 503.209 65.0753C503.209 65.286 503.128 65.4671 502.967 65.6186C502.809 65.7678 502.617 65.8423 502.392 65.8423ZM508.895 68.1009L507.51 68.1861C507.486 68.0677 507.435 67.9612 507.357 67.8665C507.279 67.7694 507.176 67.6925 507.048 67.6357C506.923 67.5765 506.773 67.5469 506.597 67.5469C506.363 67.5469 506.165 67.5966 506.004 67.696C505.843 67.7931 505.763 67.9233 505.763 68.0866C505.763 68.2169 505.815 68.3269 505.919 68.4169C506.023 68.5069 506.202 68.5791 506.455 68.6335L507.443 68.8324C507.973 68.9413 508.368 69.1165 508.629 69.358C508.889 69.5994 509.019 69.9167 509.019 70.3097C509.019 70.6671 508.914 70.9808 508.703 71.2507C508.495 71.5206 508.208 71.7313 507.844 71.8828C507.482 72.032 507.064 72.1065 506.59 72.1065C505.868 72.1065 505.293 71.9562 504.864 71.6555C504.438 71.3525 504.189 70.9406 504.115 70.4197L505.603 70.3416C505.648 70.5618 505.757 70.7299 505.93 70.8459C506.103 70.9595 506.324 71.0163 506.594 71.0163C506.859 71.0163 507.072 70.9654 507.233 70.8636C507.396 70.7595 507.479 70.6257 507.482 70.4624C507.479 70.325 507.421 70.2126 507.308 70.125C507.194 70.035 507.019 69.9664 506.782 69.919L505.837 69.7308C505.305 69.6243 504.908 69.4396 504.648 69.1768C504.39 68.9141 504.261 68.5791 504.261 68.1719C504.261 67.8215 504.355 67.5196 504.545 67.2663C504.737 67.013 505.005 66.8177 505.351 66.6804C505.699 66.5431 506.106 66.4744 506.573 66.4744C507.261 66.4744 507.804 66.62 508.199 66.9112C508.597 67.2024 508.829 67.599 508.895 68.1009ZM511.527 72.103C511.179 72.103 510.869 72.0426 510.597 71.9219C510.325 71.7988 510.109 71.6177 509.951 71.3786C509.794 71.1371 509.716 70.8364 509.716 70.4766C509.716 70.1735 509.772 69.919 509.883 69.7131C509.994 69.5071 510.146 69.3414 510.338 69.2159C510.529 69.0904 510.747 68.9957 510.991 68.9318C511.237 68.8679 511.495 68.8229 511.765 68.7969C512.082 68.7637 512.338 68.733 512.532 68.7045C512.726 68.6738 512.867 68.6288 512.955 68.5696C513.042 68.5104 513.086 68.4228 513.086 68.3068V68.2855C513.086 68.0606 513.015 67.8866 512.873 67.7635C512.733 67.6404 512.535 67.5788 512.277 67.5788C512.004 67.5788 511.788 67.6392 511.627 67.7599C511.466 67.8783 511.359 68.0275 511.307 68.2074L509.908 68.0938C509.979 67.7623 510.119 67.4759 510.327 67.2344C510.535 66.9905 510.804 66.8035 511.133 66.6733C511.465 66.5407 511.848 66.4744 512.284 66.4744C512.587 66.4744 512.877 66.5099 513.154 66.581C513.433 66.652 513.68 66.7621 513.896 66.9112C514.114 67.0604 514.285 67.2521 514.411 67.4865C514.536 67.7185 514.599 67.9967 514.599 68.321V72H513.164V71.2436H513.122C513.034 71.4141 512.917 71.5644 512.77 71.6946C512.623 71.8224 512.447 71.9231 512.241 71.9964C512.035 72.0675 511.797 72.103 511.527 72.103ZM511.96 71.0589C512.183 71.0589 512.38 71.0152 512.55 70.9276C512.72 70.8376 512.854 70.7169 512.951 70.5653C513.048 70.4138 513.097 70.2422 513.097 70.0504V69.4716C513.05 69.5024 512.984 69.5308 512.902 69.5568C512.821 69.5805 512.73 69.603 512.628 69.6243C512.526 69.6432 512.425 69.661 512.323 69.6776C512.221 69.6918 512.129 69.7048 512.046 69.7166C511.868 69.7427 511.713 69.7841 511.581 69.8409C511.448 69.8977 511.345 69.9747 511.272 70.0717C511.198 70.1664 511.161 70.2848 511.161 70.4268C511.161 70.6328 511.236 70.7902 511.385 70.8991C511.537 71.0057 511.728 71.0589 511.96 71.0589ZM519.369 72H517.721L520.232 64.7273H522.214L524.721 72H523.073L521.251 66.3892H521.194L519.369 72ZM519.266 69.1413H523.158V70.3416H519.266V69.1413ZM525.568 74.0455V66.5455H527.059V67.4616H527.127C527.193 67.3149 527.289 67.1657 527.414 67.0142C527.542 66.8603 527.708 66.7325 527.911 66.6307C528.117 66.5265 528.373 66.4744 528.678 66.4744C529.076 66.4744 529.443 66.5786 529.779 66.7869C530.115 66.9929 530.384 67.3042 530.585 67.7209C530.787 68.1352 530.887 68.6548 530.887 69.2798C530.887 69.8883 530.789 70.402 530.592 70.821C530.398 71.2377 530.133 71.5537 529.797 71.7692C529.463 71.9822 529.089 72.0888 528.675 72.0888C528.381 72.0888 528.131 72.0402 527.926 71.9432C527.722 71.8461 527.555 71.7242 527.425 71.5774C527.295 71.4283 527.195 71.2779 527.127 71.1264H527.08V74.0455H525.568ZM527.048 69.2727C527.048 69.5971 527.093 69.88 527.183 70.1214C527.273 70.3629 527.403 70.5511 527.574 70.6861C527.744 70.8187 527.952 70.8849 528.195 70.8849C528.442 70.8849 528.65 70.8175 528.82 70.6825C528.991 70.5452 529.12 70.3558 529.207 70.1143C529.297 69.8705 529.342 69.59 529.342 69.2727C529.342 68.9579 529.299 68.6809 529.211 68.4418C529.123 68.2027 528.994 68.0156 528.824 67.8807C528.653 67.7457 528.444 67.6783 528.195 67.6783C527.949 67.6783 527.741 67.7434 527.57 67.8736C527.402 68.0038 527.273 68.1884 527.183 68.4276C527.093 68.6667 527.048 68.9484 527.048 69.2727ZM531.896 74.0455V66.5455H533.387V67.4616H533.455C533.521 67.3149 533.617 67.1657 533.742 67.0142C533.87 66.8603 534.036 66.7325 534.239 66.6307C534.445 66.5265 534.701 66.4744 535.006 66.4744C535.404 66.4744 535.771 66.5786 536.107 66.7869C536.444 66.9929 536.712 67.3042 536.913 67.7209C537.115 68.1352 537.215 68.6548 537.215 69.2798C537.215 69.8883 537.117 70.402 536.921 70.821C536.726 71.2377 536.461 71.5537 536.125 71.7692C535.791 71.9822 535.417 72.0888 535.003 72.0888C534.709 72.0888 534.46 72.0402 534.254 71.9432C534.05 71.8461 533.883 71.7242 533.753 71.5774C533.623 71.4283 533.523 71.2779 533.455 71.1264H533.408V74.0455H531.896ZM533.377 69.2727C533.377 69.5971 533.421 69.88 533.511 70.1214C533.601 70.3629 533.732 70.5511 533.902 70.6861C534.073 70.8187 534.28 70.8849 534.524 70.8849C534.77 70.8849 534.978 70.8175 535.149 70.6825C535.319 70.5452 535.448 70.3558 535.536 70.1143C535.626 69.8705 535.671 69.59 535.671 69.2727C535.671 68.9579 535.627 68.6809 535.539 68.4418C535.452 68.2027 535.323 68.0156 535.152 67.8807C534.982 67.7457 534.772 67.6783 534.524 67.6783C534.277 67.6783 534.069 67.7434 533.899 67.8736C533.73 68.0038 533.601 68.1884 533.511 68.4276C533.421 68.6667 533.377 68.9484 533.377 69.2727ZM538.224 72V66.5455H539.69V67.4972H539.747C539.847 67.1586 540.014 66.9029 540.248 66.7301C540.482 66.5549 540.752 66.4673 541.058 66.4673C541.133 66.4673 541.215 66.4721 541.303 66.4815C541.39 66.491 541.467 66.504 541.533 66.5206V67.8629C541.462 67.8416 541.364 67.8227 541.239 67.8061C541.113 67.7895 540.998 67.7812 540.894 67.7812C540.672 67.7812 540.473 67.8298 540.298 67.9268C540.125 68.0215 539.988 68.1541 539.886 68.3246C539.786 68.495 539.737 68.6915 539.737 68.9141V72H538.224ZM544.526 72.1065C543.975 72.1065 543.498 71.9893 543.095 71.755C542.695 71.5182 542.386 71.1892 542.168 70.7678C541.95 70.344 541.842 69.8527 541.842 69.294C541.842 68.7306 541.95 68.2382 542.168 67.8168C542.386 67.393 542.695 67.0639 543.095 66.8295C543.498 66.5928 543.975 66.4744 544.526 66.4744C545.078 66.4744 545.554 66.5928 545.954 66.8295C546.356 67.0639 546.666 67.393 546.884 67.8168C547.102 68.2382 547.211 68.7306 547.211 69.294C547.211 69.8527 547.102 70.344 546.884 70.7678C546.666 71.1892 546.356 71.5182 545.954 71.755C545.554 71.9893 545.078 72.1065 544.526 72.1065ZM544.533 70.9347C544.784 70.9347 544.994 70.8636 545.162 70.7216C545.33 70.5772 545.457 70.3807 545.542 70.1321C545.629 69.8835 545.673 69.6006 545.673 69.2834C545.673 68.9661 545.629 68.6832 545.542 68.4347C545.457 68.1861 545.33 67.9896 545.162 67.8452C544.994 67.7008 544.784 67.6286 544.533 67.6286C544.28 67.6286 544.067 67.7008 543.894 67.8452C543.724 67.9896 543.595 68.1861 543.507 68.4347C543.422 68.6832 543.379 68.9661 543.379 69.2834C543.379 69.6006 543.422 69.8835 543.507 70.1321C543.595 70.3807 543.724 70.5772 543.894 70.7216C544.067 70.8636 544.28 70.9347 544.533 70.9347ZM553.104 66.5455L551.197 72H549.492L547.585 66.5455H549.184L550.316 70.4482H550.373L551.502 66.5455H553.104ZM555.287 72.103C554.939 72.103 554.629 72.0426 554.357 71.9219C554.084 71.7988 553.869 71.6177 553.71 71.3786C553.554 71.1371 553.476 70.8364 553.476 70.4766C553.476 70.1735 553.532 69.919 553.643 69.7131C553.754 69.5071 553.906 69.3414 554.097 69.2159C554.289 69.0904 554.507 68.9957 554.751 68.9318C554.997 68.8679 555.255 68.8229 555.525 68.7969C555.842 68.7637 556.098 68.733 556.292 68.7045C556.486 68.6738 556.627 68.6288 556.715 68.5696C556.802 68.5104 556.846 68.4228 556.846 68.3068V68.2855C556.846 68.0606 556.775 67.8866 556.633 67.7635C556.493 67.6404 556.294 67.5788 556.036 67.5788C555.764 67.5788 555.547 67.6392 555.386 67.7599C555.225 67.8783 555.119 68.0275 555.067 68.2074L553.668 68.0938C553.739 67.7623 553.878 67.4759 554.087 67.2344C554.295 66.9905 554.564 66.8035 554.893 66.6733C555.224 66.5407 555.608 66.4744 556.043 66.4744C556.346 66.4744 556.636 66.5099 556.913 66.581C557.193 66.652 557.44 66.7621 557.656 66.9112C557.873 67.0604 558.045 67.2521 558.171 67.4865C558.296 67.7185 558.359 67.9967 558.359 68.321V72H556.924V71.2436H556.881C556.794 71.4141 556.677 71.5644 556.53 71.6946C556.383 71.8224 556.207 71.9231 556.001 71.9964C555.795 72.0675 555.557 72.103 555.287 72.103ZM555.72 71.0589C555.943 71.0589 556.139 71.0152 556.31 70.9276C556.48 70.8376 556.614 70.7169 556.711 70.5653C556.808 70.4138 556.857 70.2422 556.857 70.0504V69.4716C556.809 69.5024 556.744 69.5308 556.661 69.5568C556.581 69.5805 556.49 69.603 556.388 69.6243C556.286 69.6432 556.184 69.661 556.082 69.6776C555.981 69.6918 555.888 69.7048 555.805 69.7166C555.628 69.7427 555.473 69.7841 555.34 69.8409C555.208 69.8977 555.105 69.9747 555.031 70.0717C554.958 70.1664 554.921 70.2848 554.921 70.4268C554.921 70.6328 554.996 70.7902 555.145 70.8991C555.296 71.0057 555.488 71.0589 555.72 71.0589ZM561.045 64.7273V72H559.532V64.7273H561.045Z" fill="white"/>
<rect x="273" y="67" width="124" height="86" rx="10" fill="#F97C00"/>
<rect x="324.7" y="84.7" width="8.6" height="8.6" rx="2.3" stroke="white" stroke-width="1.4"/>
<rect x="324.7" y="96.7" width="8.6" height="8.6" rx="2.3" stroke="white" stroke-width="1.4"/>
<rect x="336.7" y="84.7" width="8.6" height="8.6" rx="2.3" stroke="white" stroke-width="1.4"/>
<rect x="336.7" y="96.7" width="8.6" height="8.6" rx="2.3" stroke="white" stroke-width="1.4"/>
<path d="M309.275 124H307.628L310.138 116.727H312.12L314.627 124H312.979L311.157 118.389H311.101L309.275 124ZM309.172 121.141H313.064V122.342H309.172V121.141ZM315.474 126.045V118.545H316.965V119.462H317.033C317.099 119.315 317.195 119.166 317.32 119.014C317.448 118.86 317.614 118.732 317.818 118.631C318.024 118.527 318.279 118.474 318.585 118.474C318.982 118.474 319.349 118.579 319.685 118.787C320.022 118.993 320.29 119.304 320.492 119.721C320.693 120.135 320.793 120.655 320.793 121.28C320.793 121.888 320.695 122.402 320.499 122.821C320.305 123.238 320.039 123.554 319.703 123.769C319.369 123.982 318.995 124.089 318.581 124.089C318.287 124.089 318.038 124.04 317.832 123.943C317.628 123.846 317.461 123.724 317.331 123.577C317.201 123.428 317.101 123.278 317.033 123.126H316.987V126.045H315.474ZM316.955 121.273C316.955 121.597 317 121.88 317.09 122.121C317.18 122.363 317.31 122.551 317.48 122.686C317.651 122.819 317.858 122.885 318.102 122.885C318.348 122.885 318.556 122.817 318.727 122.683C318.897 122.545 319.026 122.356 319.114 122.114C319.204 121.871 319.249 121.59 319.249 121.273C319.249 120.958 319.205 120.681 319.117 120.442C319.03 120.203 318.901 120.016 318.73 119.881C318.56 119.746 318.35 119.678 318.102 119.678C317.855 119.678 317.647 119.743 317.477 119.874C317.309 120.004 317.18 120.188 317.09 120.428C317 120.667 316.955 120.948 316.955 121.273ZM321.802 126.045V118.545H323.293V119.462H323.361C323.427 119.315 323.523 119.166 323.649 119.014C323.776 118.86 323.942 118.732 324.146 118.631C324.352 118.527 324.607 118.474 324.913 118.474C325.31 118.474 325.677 118.579 326.014 118.787C326.35 118.993 326.618 119.304 326.82 119.721C327.021 120.135 327.122 120.655 327.122 121.28C327.122 121.888 327.023 122.402 326.827 122.821C326.633 123.238 326.368 123.554 326.031 123.769C325.698 123.982 325.323 124.089 324.909 124.089C324.616 124.089 324.366 124.04 324.16 123.943C323.956 123.846 323.789 123.724 323.659 123.577C323.529 123.428 323.43 123.278 323.361 123.126H323.315V126.045H321.802ZM323.283 121.273C323.283 121.597 323.328 121.88 323.418 122.121C323.508 122.363 323.638 122.551 323.808 122.686C323.979 122.819 324.186 122.885 324.43 122.885C324.676 122.885 324.884 122.817 325.055 122.683C325.225 122.545 325.354 122.356 325.442 122.114C325.532 121.871 325.577 121.59 325.577 121.273C325.577 120.958 325.533 120.681 325.445 120.442C325.358 120.203 325.229 120.016 325.058 119.881C324.888 119.746 324.678 119.678 324.43 119.678C324.184 119.678 323.975 119.743 323.805 119.874C323.637 120.004 323.508 120.188 323.418 120.428C323.328 120.667 323.283 120.948 323.283 121.273ZM329.643 116.727V124H328.13V116.727H329.643ZM330.855 124V118.545H332.367V124H330.855ZM331.615 117.842C331.39 117.842 331.197 117.768 331.036 117.619C330.877 117.467 330.798 117.286 330.798 117.075C330.798 116.867 330.877 116.688 331.036 116.539C331.197 116.388 331.39 116.312 331.615 116.312C331.84 116.312 332.031 116.388 332.19 116.539C332.351 116.688 332.431 116.867 332.431 117.075C332.431 117.286 332.351 117.467 332.19 117.619C332.031 117.768 331.84 117.842 331.615 117.842ZM336.044 124.107C335.485 124.107 335.004 123.988 334.602 123.751C334.202 123.512 333.894 123.181 333.679 122.757C333.466 122.333 333.359 121.846 333.359 121.294C333.359 120.735 333.467 120.245 333.682 119.824C333.9 119.4 334.209 119.07 334.609 118.833C335.009 118.594 335.485 118.474 336.037 118.474C336.513 118.474 336.929 118.561 337.287 118.734C337.644 118.906 337.927 119.149 338.135 119.462C338.344 119.774 338.459 120.141 338.48 120.562H337.052C337.012 120.29 336.906 120.071 336.733 119.906C336.562 119.737 336.339 119.653 336.062 119.653C335.827 119.653 335.622 119.717 335.447 119.845C335.274 119.971 335.139 120.154 335.042 120.396C334.945 120.637 334.897 120.929 334.897 121.273C334.897 121.621 334.944 121.917 335.039 122.161C335.136 122.404 335.272 122.59 335.447 122.718C335.622 122.846 335.827 122.91 336.062 122.91C336.234 122.91 336.389 122.874 336.527 122.803C336.666 122.732 336.781 122.629 336.871 122.494C336.964 122.357 337.024 122.192 337.052 122.001H338.48C338.456 122.417 338.343 122.784 338.139 123.102C337.938 123.416 337.66 123.663 337.304 123.84C336.949 124.018 336.529 124.107 336.044 124.107ZM341.004 124.103C340.656 124.103 340.346 124.043 340.073 123.922C339.801 123.799 339.586 123.618 339.427 123.379C339.271 123.137 339.193 122.836 339.193 122.477C339.193 122.174 339.248 121.919 339.36 121.713C339.471 121.507 339.622 121.341 339.814 121.216C340.006 121.09 340.224 120.996 340.468 120.932C340.714 120.868 340.972 120.823 341.242 120.797C341.559 120.764 341.815 120.733 342.009 120.705C342.203 120.674 342.344 120.629 342.431 120.57C342.519 120.51 342.563 120.423 342.563 120.307V120.286C342.563 120.061 342.492 119.887 342.35 119.763C342.21 119.64 342.011 119.579 341.753 119.579C341.481 119.579 341.264 119.639 341.103 119.76C340.942 119.878 340.836 120.027 340.784 120.207L339.384 120.094C339.456 119.762 339.595 119.476 339.804 119.234C340.012 118.991 340.281 118.804 340.61 118.673C340.941 118.541 341.325 118.474 341.76 118.474C342.063 118.474 342.353 118.51 342.63 118.581C342.91 118.652 343.157 118.762 343.372 118.911C343.59 119.06 343.762 119.252 343.887 119.487C344.013 119.719 344.076 119.997 344.076 120.321V124H342.641V123.244H342.598C342.511 123.414 342.393 123.564 342.247 123.695C342.1 123.822 341.924 123.923 341.718 123.996C341.512 124.067 341.274 124.103 341.004 124.103ZM341.437 123.059C341.66 123.059 341.856 123.015 342.027 122.928C342.197 122.838 342.331 122.717 342.428 122.565C342.525 122.414 342.573 122.242 342.573 122.05V121.472C342.526 121.502 342.461 121.531 342.378 121.557C342.298 121.58 342.206 121.603 342.105 121.624C342.003 121.643 341.901 121.661 341.799 121.678C341.697 121.692 341.605 121.705 341.522 121.717C341.345 121.743 341.19 121.784 341.057 121.841C340.925 121.898 340.822 121.975 340.748 122.072C340.675 122.166 340.638 122.285 340.638 122.427C340.638 122.633 340.713 122.79 340.862 122.899C341.013 123.006 341.205 123.059 341.437 123.059ZM348.15 118.545V119.682H344.866V118.545H348.15ZM345.611 117.239H347.124V122.324C347.124 122.464 347.146 122.572 347.188 122.651C347.231 122.726 347.29 122.78 347.366 122.81C347.444 122.841 347.534 122.857 347.636 122.857C347.707 122.857 347.778 122.851 347.849 122.839C347.92 122.825 347.974 122.814 348.012 122.807L348.25 123.933C348.174 123.956 348.068 123.983 347.93 124.014C347.793 124.047 347.626 124.067 347.43 124.075C347.065 124.089 346.745 124.04 346.471 123.929C346.199 123.818 345.987 123.645 345.835 123.411C345.684 123.176 345.609 122.88 345.611 122.523V117.239ZM349.136 124V118.545H350.649V124H349.136ZM349.896 117.842C349.671 117.842 349.478 117.768 349.317 117.619C349.158 117.467 349.079 117.286 349.079 117.075C349.079 116.867 349.158 116.688 349.317 116.539C349.478 116.388 349.671 116.312 349.896 116.312C350.121 116.312 350.313 116.388 350.471 116.539C350.632 116.688 350.713 116.867 350.713 117.075C350.713 117.286 350.632 117.467 350.471 117.619C350.313 117.768 350.121 117.842 349.896 117.842ZM354.325 124.107C353.773 124.107 353.296 123.989 352.894 123.755C352.494 123.518 352.185 123.189 351.967 122.768C351.749 122.344 351.64 121.853 351.64 121.294C351.64 120.731 351.749 120.238 351.967 119.817C352.185 119.393 352.494 119.064 352.894 118.83C353.296 118.593 353.773 118.474 354.325 118.474C354.877 118.474 355.352 118.593 355.753 118.83C356.155 119.064 356.465 119.393 356.683 119.817C356.901 120.238 357.01 120.731 357.01 121.294C357.01 121.853 356.901 122.344 356.683 122.768C356.465 123.189 356.155 123.518 355.753 123.755C355.352 123.989 354.877 124.107 354.325 124.107ZM354.332 122.935C354.583 122.935 354.793 122.864 354.961 122.722C355.129 122.577 355.255 122.381 355.341 122.132C355.428 121.884 355.472 121.601 355.472 121.283C355.472 120.966 355.428 120.683 355.341 120.435C355.255 120.186 355.129 119.99 354.961 119.845C354.793 119.701 354.583 119.629 354.332 119.629C354.079 119.629 353.866 119.701 353.693 119.845C353.522 119.99 353.393 120.186 353.306 120.435C353.221 120.683 353.178 120.966 353.178 121.283C353.178 121.601 353.221 121.884 353.306 122.132C353.393 122.381 353.522 122.577 353.693 122.722C353.866 122.864 354.079 122.935 354.332 122.935ZM359.506 120.847V124H357.993V118.545H359.435V119.508H359.499C359.62 119.191 359.822 118.94 360.106 118.755C360.39 118.568 360.735 118.474 361.14 118.474C361.518 118.474 361.849 118.557 362.13 118.723C362.412 118.889 362.631 119.125 362.787 119.433C362.944 119.739 363.022 120.103 363.022 120.527V124H361.509V120.797C361.511 120.463 361.426 120.203 361.253 120.016C361.08 119.826 360.843 119.732 360.54 119.732C360.336 119.732 360.156 119.775 360 119.863C359.846 119.951 359.725 120.078 359.638 120.246C359.552 120.412 359.508 120.612 359.506 120.847ZM322.646 130.819C322.617 130.532 322.495 130.31 322.28 130.151C322.065 129.993 321.772 129.913 321.403 129.913C321.152 129.913 320.94 129.949 320.767 130.02C320.594 130.089 320.462 130.184 320.369 130.308C320.28 130.431 320.235 130.57 320.235 130.727C320.23 130.857 320.257 130.97 320.316 131.067C320.378 131.165 320.462 131.249 320.568 131.32C320.675 131.388 320.798 131.449 320.938 131.501C321.077 131.55 321.227 131.593 321.385 131.629L322.039 131.785C322.356 131.856 322.647 131.951 322.912 132.069C323.177 132.187 323.407 132.333 323.601 132.506C323.795 132.679 323.945 132.882 324.052 133.116C324.161 133.351 324.217 133.62 324.219 133.923C324.217 134.368 324.103 134.754 323.878 135.08C323.655 135.405 323.334 135.657 322.912 135.837C322.493 136.014 321.988 136.103 321.396 136.103C320.809 136.103 320.297 136.013 319.862 135.833C319.428 135.653 319.09 135.387 318.846 135.034C318.605 134.679 318.478 134.24 318.466 133.717H319.954C319.971 133.96 320.04 134.164 320.164 134.327C320.289 134.488 320.456 134.61 320.664 134.693C320.875 134.774 321.113 134.814 321.378 134.814C321.638 134.814 321.865 134.776 322.056 134.7C322.25 134.625 322.401 134.519 322.507 134.384C322.614 134.249 322.667 134.094 322.667 133.919C322.667 133.756 322.619 133.618 322.521 133.507C322.427 133.396 322.287 133.301 322.102 133.223C321.92 133.145 321.696 133.074 321.431 133.01L320.639 132.811C320.026 132.662 319.542 132.429 319.187 132.112C318.832 131.794 318.655 131.367 318.658 130.83C318.655 130.389 318.773 130.004 319.009 129.675C319.249 129.346 319.576 129.089 319.993 128.905C320.41 128.72 320.883 128.628 321.414 128.628C321.953 128.628 322.424 128.72 322.827 128.905C323.232 129.089 323.547 129.346 323.771 129.675C323.996 130.004 324.112 130.386 324.119 130.819H322.646ZM328.723 133.678V130.545H330.235V136H328.783V135.009H328.726C328.603 135.329 328.398 135.586 328.112 135.78C327.828 135.974 327.481 136.071 327.071 136.071C326.707 136.071 326.386 135.988 326.109 135.822C325.832 135.657 325.615 135.421 325.459 135.116C325.305 134.81 325.227 134.445 325.225 134.018V130.545H326.738V133.749C326.74 134.071 326.826 134.325 326.997 134.512C327.167 134.699 327.396 134.793 327.682 134.793C327.864 134.793 328.035 134.751 328.194 134.668C328.352 134.583 328.48 134.458 328.577 134.292C328.676 134.126 328.725 133.921 328.723 133.678ZM331.474 136V128.727H332.987V131.462H333.033C333.099 131.315 333.195 131.166 333.32 131.014C333.448 130.86 333.614 130.732 333.818 130.631C334.024 130.527 334.279 130.474 334.585 130.474C334.982 130.474 335.349 130.579 335.686 130.787C336.022 130.993 336.29 131.304 336.492 131.721C336.693 132.135 336.794 132.655 336.794 133.28C336.794 133.888 336.695 134.402 336.499 134.821C336.305 135.238 336.039 135.554 335.703 135.769C335.369 135.982 334.995 136.089 334.581 136.089C334.288 136.089 334.038 136.04 333.832 135.943C333.628 135.846 333.461 135.724 333.331 135.577C333.201 135.428 333.102 135.278 333.033 135.126H332.965V136H331.474ZM332.955 133.273C332.955 133.597 333 133.88 333.09 134.121C333.18 134.363 333.31 134.551 333.48 134.686C333.651 134.819 333.858 134.885 334.102 134.885C334.348 134.885 334.556 134.817 334.727 134.683C334.897 134.545 335.026 134.356 335.114 134.114C335.204 133.871 335.249 133.59 335.249 133.273C335.249 132.958 335.205 132.681 335.117 132.442C335.03 132.203 334.901 132.016 334.73 131.881C334.56 131.746 334.35 131.678 334.102 131.678C333.856 131.678 333.647 131.743 333.477 131.874C333.309 132.004 333.18 132.188 333.09 132.428C333 132.667 332.955 132.948 332.955 133.273ZM337.803 136V130.545H339.245V131.508H339.309C339.422 131.188 339.612 130.936 339.877 130.751C340.142 130.567 340.459 130.474 340.828 130.474C341.203 130.474 341.521 130.568 341.784 130.755C342.047 130.94 342.222 131.191 342.309 131.508H342.366C342.477 131.195 342.679 130.946 342.97 130.759C343.263 130.569 343.61 130.474 344.01 130.474C344.519 130.474 344.932 130.637 345.25 130.961C345.569 131.283 345.729 131.74 345.729 132.332V136H344.22V132.63C344.22 132.327 344.139 132.1 343.978 131.948C343.817 131.797 343.616 131.721 343.375 131.721C343.1 131.721 342.886 131.808 342.732 131.984C342.578 132.156 342.501 132.385 342.501 132.669V136H341.034V132.598C341.034 132.33 340.958 132.117 340.804 131.959C340.652 131.8 340.452 131.721 340.203 131.721C340.035 131.721 339.884 131.763 339.749 131.849C339.616 131.932 339.511 132.049 339.433 132.2C339.355 132.349 339.316 132.525 339.316 132.726V136H337.803ZM346.924 136V130.545H348.437V136H346.924ZM347.684 129.842C347.459 129.842 347.266 129.768 347.105 129.619C346.946 129.467 346.867 129.286 346.867 129.075C346.867 128.867 346.946 128.688 347.105 128.539C347.266 128.388 347.459 128.312 347.684 128.312C347.909 128.312 348.101 128.388 348.259 128.539C348.42 128.688 348.501 128.867 348.501 129.075C348.501 129.286 348.42 129.467 348.259 129.619C348.101 129.768 347.909 129.842 347.684 129.842ZM352.55 130.545V131.682H349.265V130.545H352.55ZM350.011 129.239H351.524V134.324C351.524 134.464 351.545 134.572 351.588 134.651C351.63 134.726 351.689 134.78 351.765 134.81C351.843 134.841 351.933 134.857 352.035 134.857C352.106 134.857 352.177 134.851 352.248 134.839C352.319 134.825 352.374 134.814 352.411 134.807L352.649 135.933C352.574 135.956 352.467 135.983 352.33 136.014C352.192 136.047 352.026 136.067 351.829 136.075C351.464 136.089 351.145 136.04 350.87 135.929C350.598 135.818 350.386 135.645 350.235 135.411C350.083 135.176 350.008 134.88 350.011 134.523V129.239Z" fill="white"/>
</svg>
