<svg width="664" height="610" viewBox="0 0 664 610" fill="none" xmlns="http://www.w3.org/2000/svg">
<path d="M241.431 283.161C217.293 455.482 504.33 570.491 664 580V42.6065C561.271 34.6394 266.434 104.673 241.431 283.161Z" fill="#F3F8FF"/>
<path d="M402.967 366.184H394.273V485.6H402.967V366.184Z" fill="#6B7784"/>
<path d="M499.353 366.184H491.575V485.6H499.353V366.184Z" fill="#6B7784"/>
<path d="M437.891 362.371C433.468 365.269 429.503 391.654 428.893 413.158C428.435 426.426 428.435 447.015 427.673 453.726C426.452 464.249 423.555 474.315 423.555 488.193C423.555 497.496 426.147 494.751 433.773 485.753C436.823 482.245 437.738 479.195 438.806 476.45C440.331 472.485 441.094 469.129 440.789 466.079C440.331 462.266 438.958 459.826 440.941 453.421C445.669 438.17 449.482 434.967 454.362 414.073C459.7 392.111 456.04 350.628 437.891 362.371Z" fill="#F4BD98"/>
<path d="M423.402 483.313C420.504 491.243 418.979 495.056 420.351 497.344C421.266 499.022 433.62 498.869 437.28 491.091C441.093 483.313 435.298 482.703 441.245 471.875C442.618 469.434 438.653 457.996 439.873 462.266C442.313 470.807 437.738 480.72 434.535 484.228C427.824 491.701 423.402 483.313 423.402 483.313Z" fill="#FF8000"/>
<path d="M449.329 357.644C468.85 357.949 462.75 366.337 467.325 373.81C483.949 400.347 477.391 444.423 486.542 462.571C494.777 479.043 493.1 481.635 489.134 481.788C484.102 481.94 478.459 476.145 474.798 467.909C473.121 464.249 471.748 461.504 471.291 456.013C469.613 438.322 447.194 407.057 447.346 391.196C447.499 375.335 445.211 380.825 443.533 370.149C441.856 359.474 449.329 357.644 449.329 357.644Z" fill="#F6C3A1"/>
<path d="M471.901 457.386C473.426 467.757 477.696 474.925 481.052 475.688C484.559 476.45 489.287 477.823 490.66 471.875C496.608 484.533 494.778 487.431 491.27 487.278C487.609 487.126 478.306 485.601 477.544 481.026C476.781 476.298 475.866 469.282 472.968 465.927C470.376 462.419 471.901 457.386 471.901 457.386Z" fill="#FF8000"/>
<path d="M136.224 317.228L154.983 323.481L155.44 333.394L136.681 329.123L136.224 317.228Z" fill="black"/>
<path d="M278.515 235.024C288.734 234.567 290.411 257.596 296.664 281.693C297.732 285.506 302.46 308.84 293.462 312.5C281.108 317.533 281.718 312.195 281.718 312.195L264.942 301.672L276.38 291.911L261.892 257.596L278.515 235.024Z" fill="#15234A"/>
<path d="M411.659 339.952C410.134 353.831 409.219 366.489 414.709 375.945C418.979 383.266 470.376 376.403 474.188 373.2C489.897 360.541 486.542 340.41 480.594 337.512C474.646 334.767 411.659 339.952 411.659 339.952Z" fill="black"/>
<path d="M195.552 366.184H186.858V485.6H195.552V366.184Z" fill="#6B7784"/>
<path d="M291.938 366.184H284.16V485.6H291.938V366.184Z" fill="#6B7784"/>
<path d="M479.068 344.985L479.678 349.408C479.678 349.408 485.474 350.018 488.219 348.645C487.914 344.527 487.914 344.527 487.914 344.527L479.068 344.985Z" fill="#AAC9E2"/>
<path d="M445.058 272.237L437.585 235.024C437.585 235.024 439.568 217.943 439.568 215.655L447.041 215.198L454.209 215.655C454.209 217.943 457.412 236.244 457.412 236.244L451.616 251.495L447.651 246.615L445.058 272.237Z" fill="#F6C3A1"/>
<path d="M419.131 241.887C422.792 240.362 436.823 238.837 438.043 225.264C438.043 225.264 446.126 227.094 445.668 229.534C445.363 231.974 445.363 281.54 442.618 282.15C440.025 282.608 415.319 242.497 419.131 241.887Z" fill="#F6C3A1"/>
<path d="M429.045 207.267C430.722 219.925 440.94 230.754 447.041 230.754C453.904 230.754 462.597 223.891 465.19 207.724C467.325 194.456 463.97 181.188 447.346 181.188C431.79 181.188 427.367 193.998 429.045 207.267Z" fill="#FFCBA9"/>
<path d="M427.366 206.047C426.146 192.778 430.111 179.967 445.667 179.967L445.972 230.601C445.972 230.601 445.82 230.601 445.667 230.601C439.567 230.601 428.738 222.67 427.366 206.047Z" fill="#FFCBA9"/>
<path d="M451.465 191.101C454.668 197.049 458.785 193.236 460.616 201.93C461.226 204.98 462.903 211.538 460.768 216.266C458.023 222.519 466.258 204.522 466.258 204.522C466.258 204.522 470.986 189.576 460.005 182.561C454.21 178.9 452.075 182.561 452.075 183.628C452.227 184.391 451.465 191.101 451.465 191.101Z" fill="#232121"/>
<path d="M432.095 236.397C434.078 240.21 440.788 238.38 443.381 240.972C444.601 250.123 444.601 252.411 447.499 252.563C448.872 261.714 450.549 333.089 450.549 333.089L412.574 336.902C412.574 336.902 418.674 307.62 421.572 301.672C424.47 295.876 420.657 274.982 417.149 270.407C417.149 270.407 420.809 250.123 410.134 244.785C418.522 242.802 432.095 236.397 432.095 236.397Z" fill="#FF8000"/>
<path d="M461.682 237.159C459.089 242.497 450.701 238.227 448.261 240.514C446.278 242.345 448.261 250.58 445.363 251.495C443.991 260.646 442.618 330.954 442.618 330.954L477.086 335.987C477.086 335.987 473.578 311.585 469.46 303.197C464.885 293.588 467.478 275.135 471.443 270.407C471.443 270.407 467.325 259.883 477.696 244.48C476.018 240.362 461.682 237.159 461.682 237.159Z" fill="#FF8000"/>
<path d="M432.857 195.829C428.129 208.64 431.79 214.282 434.687 216.418C433.772 216.875 430.112 217.943 429.96 214.74C430.112 216.418 431.18 219.62 435.297 220.84C433.162 222.976 429.96 223.738 429.349 222.823C429.807 223.586 433.315 225.111 433.315 225.111C433.315 225.111 429.654 228.771 422.334 223.586C415.471 218.705 409.065 210.165 410.438 198.574C412.878 202.539 414.861 202.234 415.776 201.014C413.946 200.861 413.946 196.439 413.946 196.439C413.946 196.439 417.454 199.031 419.894 195.219C422.486 191.101 424.927 184.085 433.467 180.12C436.823 178.442 432.857 195.829 432.857 195.829Z" fill="black"/>
<path d="M458.784 196.439C463.512 209.25 460.614 216.418 457.716 218.553C458.631 219.01 461.834 219.925 461.987 216.723C461.834 218.4 459.547 220.535 455.429 221.908C457.564 224.043 461.377 223.128 461.987 222.213C461.377 222.976 458.326 224.501 458.326 224.501C458.326 224.501 462.597 227.398 469.917 222.213C476.475 218.4 479.831 213.367 478.458 201.624C477.085 203.454 474.035 203.607 473.883 203.302C475.713 203.149 477.543 200.861 477.543 200.861C477.543 200.861 473.425 200.404 471.137 196.439C468.545 192.321 466.105 185.305 457.564 181.34C453.904 179.51 458.784 196.439 458.784 196.439Z" fill="#1E1E1E"/>
<path d="M456.193 191.559C449.177 202.234 436.824 192.474 432.401 199.337C430.266 202.692 425.996 210.165 428.893 217.486C430.723 222.061 424.928 205.437 424.928 205.437C424.928 205.437 419.438 188.966 432.401 180.425C438.044 176.612 450.55 175.24 456.803 181.035C457.565 181.645 456.193 191.559 456.193 191.559Z" fill="black"/>
<path d="M426.299 238.227C419.131 240.515 412.573 242.345 410.591 243.87C410.591 243.87 415.776 276.812 416.539 279.863C417.301 283.065 420.046 305.79 418.369 311.738C416.844 317.686 414.251 337.207 414.556 339.647C415.013 341.935 431.18 343.765 436.975 341.782C442.923 339.8 445.668 333.089 445.668 329.124C445.668 325.159 446.126 281.235 446.126 281.235C446.126 281.235 434.535 253.173 432.247 249.208C430.112 245.395 426.299 238.227 426.299 238.227Z" fill="#476CD2"/>
<path d="M431.944 233.957L422.488 239.294V250.58L429.046 248.75L426.606 256.986C426.606 256.986 425.691 256.071 433.469 263.544C436.367 266.441 446.737 285.505 446.737 285.505C446.737 285.505 444.145 273.152 441.399 264.764C438.502 255.613 436.672 249.055 435.757 244.632C434.841 240.21 431.944 233.957 431.944 233.957Z" fill="#3F63C6"/>
<path d="M434.382 231.364L443.685 240.515L433.924 251.038L430.722 234.567L434.382 231.364Z" fill="#FF8000"/>
<path d="M463.36 236.854C470.528 239.295 477.696 242.802 479.679 244.48C479.679 244.48 473.731 276.66 472.969 279.863C472.206 283.065 470.376 302.129 472.053 307.925C473.579 313.873 477.544 335.072 477.086 337.512C476.629 339.952 458.938 343.918 452.99 341.935C447.042 339.952 444.296 333.242 444.296 329.276C444.296 325.311 443.839 281.388 443.839 281.388C443.839 281.388 455.43 253.326 457.717 249.36C460.005 245.548 463.36 236.854 463.36 236.854Z" fill="#476CD2"/>
<path d="M458.328 234.109L467.784 239.447V250.733L461.226 248.903L463.666 257.139C463.666 257.139 464.581 256.224 456.803 263.697C453.753 266.594 443.534 285.658 443.534 285.658C443.534 285.658 446.127 273.305 448.872 264.917C451.77 255.766 453.6 249.208 454.515 244.785C455.278 240.362 458.328 234.109 458.328 234.109Z" fill="#3F63C6"/>
<path d="M447.041 240.21L457.107 232.279L463.36 236.397L457.412 249.818L447.041 240.21Z" fill="#FF8000"/>
<path d="M246.643 464.249C245.88 469.892 242.982 482.093 248.473 486.363C250.303 487.888 248.32 484.075 251.218 489.566C255.183 497.191 267.384 497.344 271.349 496.429C273.637 495.819 275.62 494.599 271.807 488.651C267.689 482.398 264.944 480.11 263.419 469.282C262.809 465.317 260.674 460.284 260.674 460.284L246.643 464.249Z" fill="black"/>
<path d="M274.702 363.439L269.669 474.925L245.267 474.162L236.879 339.952L274.702 363.439Z" fill="#15234A"/>
<path d="M237.489 300.909L255.638 326.989L257.773 473.857L242.217 475.535L237.489 300.909Z" fill="#15234A"/>
<path d="M234.44 462.419C235.203 468.062 238.1 480.263 232.61 484.533C230.78 486.058 232.762 482.245 229.865 487.736C225.899 495.361 213.699 495.514 209.733 494.599C207.446 493.989 205.463 492.769 209.276 486.821C213.393 480.568 216.139 478.28 217.664 467.452C218.274 463.486 220.409 458.454 220.409 458.454L234.44 462.419Z" fill="black"/>
<path d="M201.345 364.201L210.191 474.009L239.32 473.857L239.168 334.004L201.345 364.201Z" fill="#15234A"/>
<path d="M239.321 238.379L223.917 232.431C223.917 232.431 228.187 210.47 228.187 208.335L238.558 207.419L248.776 207.877C248.776 210.012 252.437 229.381 252.437 229.381L239.321 238.379Z" fill="#F6C3A1"/>
<path d="M250.606 219.163C249.233 220.841 242.218 231.059 238.252 230.602C234.287 230.144 227.577 221.756 226.204 219.011C225.136 220.231 221.019 223.434 221.019 223.434L238.71 264.612L255.181 224.959L250.606 219.163Z" fill="white"/>
<path d="M226.358 219.01C227.731 221.908 234.289 229.076 238.407 229.534C238.559 229.534 236.271 279.1 236.271 279.1L221.173 223.433C221.173 223.433 225.291 220.23 226.358 219.01Z" fill="white"/>
<path d="M235.814 235.787H238.864V228.161H232.916V231.516L235.814 235.787Z" fill="#FF8000"/>
<path d="M235.509 234.719L230.323 283.065L238.406 289.318L238.711 289.166L239.016 234.719H235.509Z" fill="#FF8000"/>
<path d="M241 235.787H238.56V228.161H244.508V231.516L241 235.787Z" fill="#FF8000"/>
<path d="M241.456 234.719L246.642 283.065L238.406 289.318L238.559 234.719H241.456Z" fill="#FF8000"/>
<path d="M235.355 235.787H241.456V235.177H235.508L235.355 235.787Z" fill="#0D3B7F"/>
<path d="M241.455 360.846C241.455 360.846 201.345 361.456 201.345 359.931C201.345 334.614 206.988 310.365 207.293 304.265C207.445 296.181 203.785 273.762 202.718 270.254C201.497 266.747 190.364 258.664 190.364 258.664C190.364 258.664 186.551 235.177 197.227 233.042C206.53 231.212 206.835 229.534 223.154 222.671C223.154 222.671 226.357 240.82 229.102 246.463C232 252.106 235.965 279.863 238.71 282.913C241.455 287.336 241.455 360.846 241.455 360.846Z" fill="#15234A"/>
<path d="M236.728 361.151L236.88 282.303C236.88 282.303 246.946 252.41 252.741 228.466L252.284 222.518C266.62 229.381 269.518 229.839 278.668 233.804C283.244 235.787 279.126 245.242 279.126 245.242C279.126 245.242 275.466 269.492 274.398 272.847C273.178 276.355 270.433 296.486 270.585 304.417C270.738 309.145 275.313 343.917 275.313 360.236L236.728 361.151Z" fill="#15234A"/>
<path d="M236.881 228.161L229.408 236.244L224.833 226.331L223.46 221.908L226.053 219.01L236.881 228.161Z" fill="#ECF1FF"/>
<path d="M241.151 228.314L247.862 236.092L253.962 222.518L250.302 218.706L241.151 228.314Z" fill="#ECF1FF"/>
<path d="M225.595 218.705C225.595 218.248 218.274 225.111 218.274 225.111L217.054 238.684L224.984 237.617L216.901 245.242L237.338 280.625C237.338 280.625 229.102 237.159 226.815 230.906C224.069 223.281 225.595 218.705 225.595 218.705Z" fill="#111E43"/>
<path d="M251.98 218.705C251.98 218.248 259.301 225.111 259.301 225.111L260.521 238.684L252.591 237.617L256.403 242.802L236.882 282.15C236.882 282.15 247.863 235.787 250.608 229.686C253.353 223.738 251.98 218.705 251.98 218.705Z" fill="#111E43"/>
<path d="M275.009 317.228L293.615 323.481L294.073 333.394L275.314 329.123L275.009 317.228Z" fill="black"/>
<path d="M244.202 317.228L225.443 323.481L225.138 333.394L243.744 329.123L244.202 317.228Z" fill="#1E1E1E"/>
<path d="M529.702 344.375H107.245V405.38H529.702V344.375Z" fill="#7B8A9A"/>
<path d="M543.276 338.122H522.992V509.545H543.276V338.122Z" fill="#7B8A9A"/>
<path d="M107.246 338.122H86.9619V509.545H107.246V338.122Z" fill="#7B8A9A"/>
<path d="M587.962 332.632H78.2686C76.591 332.632 155.439 308.84 155.439 308.84C158.49 308.23 159.557 308.077 161.235 308.077H527.415C529.092 308.077 531.38 308.23 535.345 308.992C535.345 308.992 589.639 332.632 587.962 332.632Z" fill="#7B8A9A"/>
<path d="M587.658 348.187C587.658 349.56 586.719 350.475 585.428 350.475H80.4991C79.3256 350.475 78.2695 349.407 78.2695 348.187V332.936C78.2695 331.564 79.2083 330.648 80.4991 330.648H585.428C586.602 330.648 587.658 331.716 587.658 332.936V348.187Z" fill="#6B7784"/>
<path d="M220.869 195.371C222.546 208.487 231.087 220.078 237.492 220.078C251.828 219.926 254.421 212.148 255.184 195.066C255.794 181.035 255.641 167.919 238.408 167.919C221.936 167.919 219.039 181.645 220.869 195.371Z" fill="#FFCBA9"/>
<path d="M219.952 192.474C220.105 179.053 221.935 167.919 238.101 167.919C238.101 167.919 238.406 220.078 238.254 220.078C227.273 220.383 219.8 209.86 219.952 192.474Z" fill="#FFCBA9"/>
<path d="M223.154 192.931L220.103 191.101L220.256 192.626L223.001 195.676L223.154 192.931Z" fill="#210500"/>
<path d="M223.764 198.726C223.764 195.523 223.764 189.423 222.544 186.983C221.324 184.695 221.171 182.713 221.934 179.815C223.611 173.714 230.627 171.122 232.609 170.512C234.592 169.902 232.914 166.699 232.914 166.699C232.914 166.699 229.407 165.784 226.204 167.919C223.001 169.902 220.713 171.427 218.121 176.917C215.528 182.408 216.138 186.373 216.596 189.728C217.206 193.236 218.426 196.134 218.426 196.134L220.408 194.761L223.764 198.726Z" fill="#210500"/>
<path d="M230.627 172.037C232.914 174.935 237.947 175.545 239.625 173.41C240.692 171.884 245.115 177.07 247.403 177.375C252.741 178.29 253.503 181.645 253.503 185.458C253.503 189.271 253.046 199.031 253.046 199.031L257.621 196.439C257.621 196.439 259.146 190.491 259.909 184.085C260.519 178.29 258.536 172.342 253.046 169.292C249.386 167.309 248.013 165.326 239.32 166.241C235.812 166.546 231.999 166.394 231.542 168.072C230.932 169.597 230.627 172.037 230.627 172.037Z" fill="#210500"/>
<path d="M254.724 195.524C255.486 194.304 257.774 191.254 258.384 194.456C258.994 197.659 257.164 201.777 255.791 202.997C254.419 204.37 253.656 202.539 253.351 203.607C253.046 204.37 254.724 195.524 254.724 195.524Z" fill="#FBC39E"/>
<path d="M222.239 196.744C221.477 192.931 218.274 191.558 217.664 194.761C217.054 197.964 218.884 202.844 220.104 204.217C221.477 205.589 223.307 205.894 223.307 205.437C223.459 204.827 222.239 196.744 222.239 196.744Z" fill="#FBC39E"/>
<path d="M228.188 178.9C237.796 183.628 246.336 178.747 249.387 178.29C252.437 177.68 251.522 172.647 248.777 167.767C245.726 162.276 232.153 160.904 224.375 167.462C221.63 169.749 220.715 170.359 218.732 173.257C214.004 180.12 216.292 191.863 217.664 192.473C219.952 193.541 224.07 195.829 223.46 191.711C221.477 179.205 228.188 178.9 228.188 178.9Z" fill="#210500"/>
<path d="M191.279 239.904C190.516 241.734 170.995 288.403 177.553 311.28C179.383 317.685 205.157 320.888 205.157 320.888C205.157 320.888 205.005 321.04 212.478 301.671L201.192 295.113L210.8 274.677L191.279 239.904Z" fill="#15234A"/>
<path d="M212.631 303.654C212.631 303.654 224.222 301.977 232.153 304.264C233.983 304.722 235.05 305.637 238.406 307.924C240.998 309.602 240.541 311.28 237.796 310.517C235.355 309.755 233.068 308.382 233.068 308.382L228.797 307.772C228.797 307.772 232 308.687 232.915 308.992C233.83 309.297 237.796 311.89 238.863 312.5C240.541 313.262 240.693 315.398 237.948 314.787C235.203 314.177 233.83 313.262 232.61 312.805C230.78 312.195 227.272 311.432 227.272 311.432C231.085 312.805 236.728 314.33 237.796 315.55C239.016 316.923 237.643 318.6 235.05 317.228C230.17 314.787 226.357 314.635 226.357 314.635L233.525 316.923C233.525 316.923 235.66 319.21 232 318.448C223.002 316.77 215.529 316.77 212.936 315.398C207.446 312.347 208.208 308.992 212.631 303.654Z" fill="#F6C3A1"/>
<path d="M206.073 316.313C205.768 313.567 204.243 306.704 211.411 301.977C215.224 302.282 214.461 302.587 214.461 302.587C214.461 302.587 208.513 307.009 211.106 316.923L206.073 316.313Z" fill="white"/>
<path d="M270.585 311.89C271.043 309.755 266.62 306.704 264.027 303.654C264.027 303.654 252.437 301.977 244.506 304.264C242.676 304.722 241.761 305.637 238.253 307.924C235.66 309.602 236.118 311.28 238.863 310.517C241.303 309.755 243.591 308.382 243.591 308.382L247.861 307.772C247.861 307.772 244.658 308.687 243.743 308.992C242.828 309.297 238.863 311.89 237.795 312.5C236.118 313.262 235.965 315.398 238.711 314.787C241.456 314.177 242.828 313.262 244.048 312.805C245.879 312.195 249.386 311.432 249.386 311.432C245.574 312.805 239.931 314.33 238.863 315.55C237.643 316.923 239.016 318.6 241.608 317.228C246.489 314.787 250.301 314.635 250.301 314.635L243.133 316.923C243.133 316.923 240.998 319.21 244.658 318.448C253.657 316.77 261.13 316.77 263.722 315.398C266.01 314.025 270.28 313.415 270.585 311.89Z" fill="#F6C3A1"/>
<path d="M271.653 314.635C271.958 311.89 271.805 305.179 263.265 302.129C259.452 302.434 261.129 303.044 261.129 303.044C261.129 303.044 270.585 312.042 264.485 317.075L271.653 314.635Z" fill="white"/>
<path d="M275.924 293.436C272.416 296.791 263.723 301.214 263.723 301.214C263.723 301.214 272.111 311.585 270.586 320.888C270.586 320.888 297.58 316.16 298.038 306.552C298.038 300.299 275.924 293.436 275.924 293.436Z" fill="#15234A"/>
<path d="M478.611 316.16L460.615 327.141H372.616L400.373 303.654H478.764L478.611 316.16Z" fill="url(#paint0_linear_2_25733)"/>
<path d="M463.36 315.398H429.96L424.927 268.272H466.868L463.36 315.398Z" fill="white"/>
<path d="M400.219 307.772C400.676 307.925 420.655 304.417 421.113 304.417C424.468 304.569 426.756 304.112 429.196 303.044C432.551 301.367 435.601 299.994 439.262 299.841C442.922 299.689 443.532 299.231 443.684 298.621C443.837 297.859 441.397 298.011 439.262 297.859C437.126 297.554 433.009 298.621 433.619 298.164C434.229 297.706 442.312 297.249 443.532 297.096C444.752 296.944 447.345 295.876 445.972 295.419C444.599 294.961 436.669 294.961 435.449 294.809C434.381 294.809 445.057 294.351 445.819 294.198C446.735 293.893 446.277 293.131 444.599 292.978C443.379 292.826 436.059 292.673 435.296 292.673C434.991 292.673 437.584 292.063 438.499 292.063C440.177 291.911 440.939 291.911 441.854 291.758C443.684 291.606 444.904 290.538 442.464 290.386C440.329 290.233 438.956 289.776 438.041 289.928C437.279 290.081 434.839 290.538 432.551 291.301C431.788 291.606 426.756 294.198 424.315 294.656C416.08 296.486 398.541 295.876 397.626 296.334L400.219 307.772Z" fill="#F6C3A1"/>
<path d="M419.283 293.741L422.943 294.198L424.163 307.009L418.52 308.077L419.283 295.266V293.741Z" fill="#FF8000"/>
<path d="M413.336 242.802C407.998 241.124 404.033 244.48 401.745 257.748C399.61 269.644 390.764 289.471 389.087 307.619C388.476 314.177 414.708 315.855 419.131 316.16C420.351 311.127 420.199 292.978 420.199 292.978C420.199 292.978 412.573 293.283 410.591 293.283C408.15 293.283 419.589 283.065 419.589 277.727C419.589 274.677 413.336 242.802 413.336 242.802Z" fill="#476CD2"/>
<path d="M498.286 303.807C497.981 304.112 479.07 307.467 478.765 307.772C476.019 309.755 473.427 310.06 470.681 310.365C467.021 310.822 463.666 311.28 460.463 313.11C457.26 314.94 456.498 314.94 456.04 314.482C455.583 313.872 457.565 312.805 459.243 311.432C460.921 310.06 464.886 308.687 464.123 308.535C463.361 308.535 456.345 312.5 455.125 312.957C453.905 313.415 451.16 314.025 452.228 312.805C453.143 311.737 459.853 307.314 460.768 306.704C461.683 306.094 452.38 311.585 451.617 311.737C450.702 312.042 450.55 311.127 451.922 310.06C452.838 309.297 458.938 305.332 459.548 304.874C459.853 304.722 457.26 305.637 456.498 306.094C454.973 306.857 454.363 307.314 453.6 307.619C452.075 308.535 450.397 308.23 452.38 306.857C454.21 305.484 454.973 304.417 455.888 304.112C456.65 303.807 458.786 302.892 461.226 302.434C462.141 302.282 471.749 301.824 474.037 301.061C481.967 298.164 493.558 292.826 494.626 292.673L498.286 303.807Z" fill="#F6C3A1"/>
<path d="M475.409 299.384L472.053 301.062L475.409 313.568L481.052 312.5L476.019 300.757L475.409 299.384Z" fill="#FF8000"/>
<path d="M477.544 243.412C480.442 242.497 485.17 244.48 488.067 256.071C490.965 267.814 506.674 306.4 503.471 310.06C500.268 313.873 482.882 315.703 478.459 316.008C477.239 310.975 473.731 299.537 473.731 299.537L483.187 295.419C483.187 292.979 472.969 281.693 472.969 276.355C472.969 273.457 477.544 243.412 477.544 243.412Z" fill="#476CD2"/>
<path d="M526.652 313.568L513.231 323.176H488.372L506.521 308.382H513.536L515.824 311.28L526.652 313.568Z" fill="url(#paint1_linear_2_25733)"/>
<path d="M529.856 284.133H509.724L513.232 313.568C513.232 314.025 516.283 314.483 520.095 314.483C523.756 314.483 526.653 314.178 526.806 313.72L529.856 284.133Z" fill="#1E1E1E"/>
<path d="M519.943 314.33C516.13 314.33 513.08 313.873 513.08 313.415L509.724 283.98H519.79L519.943 314.33Z" fill="#1E1E1E"/>
<path d="M529.856 284.133C529.856 284.895 525.281 285.505 519.79 285.505C514.147 285.505 509.724 284.895 509.724 284.133C509.724 283.37 514.3 282.76 519.79 282.76C525.433 282.913 529.856 283.523 529.856 284.133Z" fill="black"/>
<path d="M344.402 390.128C347.757 394.246 345.622 384.79 348.367 411.327C349.739 425.358 343.791 468.061 344.096 476.754C344.554 486.668 346.537 498.411 351.722 507.714C354.162 511.985 313.442 529.676 313.442 529.676C313.442 529.676 339.369 502.681 332.048 484.838C328.845 477.059 309.324 413.615 309.934 408.734C310.391 404.006 344.402 390.128 344.402 390.128Z" fill="#FFBF94"/>
<path d="M348.519 499.174C346.384 496.886 340.436 503.291 337.996 506.647C335.556 510.002 325.948 522.05 323.355 522.508C320.61 522.813 313.747 531.964 314.052 534.556C314.357 537.301 326.1 537.301 330.065 536.234C339.216 533.641 339.369 523.728 343.181 519.763C345.927 516.712 350.502 517.78 352.637 514.425C356.755 507.257 348.519 499.174 348.519 499.174Z" fill="black"/>
<path d="M329.15 513.205C330.065 507.867 340.589 483.465 346.384 476.297C382.377 430.239 379.479 419.258 382.834 411.632C386.342 404.007 354.467 389.976 354.467 389.976C354.467 389.976 332.353 461.503 330.37 470.044C325.49 490.481 302.613 521.745 300.631 528.761C297.58 538.522 329.15 513.205 329.15 513.205Z" fill="#FFCBA9"/>
<path d="M320.151 503.597C315.424 506.037 312.068 512.137 307.188 517.475C302.308 522.813 299.105 524.948 296.36 531.811C294.072 537.302 293.309 542.64 296.665 544.165C300.172 545.69 316.491 541.267 317.254 531.659C318.169 518.848 325.337 522.508 329.302 514.883C332.962 507.562 326.099 500.547 320.151 503.597Z" fill="black"/>
<path d="M289.039 555.145H280.804L299.41 434.661H320.304L289.039 555.145Z" fill="#4B4B4B"/>
<path d="M405.558 555.145H413.793L395.187 434.661H374.293L405.558 555.145Z" fill="#4B4B4B"/>
<path d="M310.542 270.102C293.461 273.609 294.223 275.439 294.223 288.86C294.071 303.044 281.412 344.07 289.19 363.134C292.088 370.302 320.455 366.946 325.793 367.251C327.318 361.303 318.167 317.685 318.167 311.28C317.862 307.619 310.542 270.102 310.542 270.102Z" fill="#FF8000"/>
<path d="M383.442 272.236C397.779 273.456 395.796 275.897 398.236 289.928C402.354 314.329 408.149 357.643 404.489 362.066C400.829 366.488 377.19 365.268 372.004 365.726C370.479 359.778 377.952 317.685 377.952 311.432C377.952 307.619 383.442 272.236 383.442 272.236Z" fill="#FF8000"/>
<path d="M345.316 280.625C345.316 280.625 338.758 242.192 338.758 239.599L347.603 238.989L358.127 238.684C358.127 241.277 361.024 264.306 361.024 264.306L356.602 274.982L345.316 280.625Z" fill="#E8C8BA"/>
<path d="M315.576 270.406C319.846 268.576 336.165 263.391 337.537 247.377C337.537 247.377 350.043 239.142 349.586 242.192C349.128 245.09 345.468 317.227 342.418 317.99C339.215 318.6 311 271.322 315.576 270.406Z" fill="#DDAC9E"/>
<path d="M350.197 191.711C348.367 191.558 340.894 192.321 336.623 193.236C321.22 198.116 320.915 207.267 322.135 222.061C323.812 241.735 337.996 253.326 345.164 253.326H345.316C345.774 253.478 346.384 253.478 346.841 253.478C354.925 253.478 367.431 244.48 370.481 224.806C372.921 208.64 372.463 194.456 350.197 191.711Z" fill="#DDAC9E"/>
<path d="M332.505 262.476C322.896 266.898 308.408 270.101 306.12 271.931C306.12 271.931 310.848 311.584 311.763 315.245C312.678 318.905 315.881 345.747 313.898 352.762C312.068 359.778 309.018 382.807 309.475 385.552C309.933 388.298 326.404 388.298 333.725 388.45C340.74 388.603 348.061 389.975 348.061 385.4C348.061 380.824 346.231 265.221 346.231 265.221L332.505 262.476Z" fill="#FF8000"/>
<path d="M359.806 262.476C368.194 265.221 383.597 271.779 385.885 273.609C385.885 273.609 379.022 311.584 377.954 315.245C377.039 318.905 374.904 341.324 376.734 348.34C378.564 355.355 383.14 380.367 382.682 383.112C382.225 385.857 363.618 389.06 354.315 388.298C346.995 387.687 345.164 389.518 345.164 384.79C345.164 380.214 344.859 266.441 344.859 266.441L359.806 262.476Z" fill="#FF8000"/>
<path d="M325.489 265.374L331.742 258.511C331.742 258.511 342.723 259.578 346.383 259.426C346.383 265.374 344.706 270.407 344.706 270.407L325.489 265.374Z" fill="#ED7600"/>
<path d="M345.316 259.426C351.722 259.578 359.805 258.206 361.33 258.206C364.228 261.561 366.82 265.526 366.82 265.526C366.82 265.526 346.384 270.101 345.011 270.559C344.706 270.712 345.316 259.426 345.316 259.426Z" fill="#ED7600"/>
<path d="M356.753 193.693C358.736 192.473 367.277 191.1 370.784 201.014C376.427 217.027 368.802 242.039 360.566 247.682C351.568 254.088 343.485 254.545 344.095 250.732C344.705 246.767 356.753 193.693 356.753 193.693Z" fill="#091127"/>
<path d="M360.261 193.693C357.821 190.185 352.483 188.813 344.705 189.575C336.927 190.338 317.558 194.608 321.066 218.4C324.574 242.192 332.809 248.292 337.385 250.885C344.4 255.155 353.093 251.8 353.093 251.8C353.093 251.8 380.545 223.433 360.261 193.693Z" fill="black"/>
<path d="M391.375 415.75C388.63 421.393 378.259 425.816 372.158 425.816H320.914C314.814 425.816 301.698 421.24 301.698 415.75L291.48 314.787C291.48 309.145 296.36 304.722 302.461 304.722H386.647C392.747 304.722 397.628 309.297 400.373 314.787L391.375 415.75Z" fill="#4B4B4B"/>
<path d="M402.355 428.408C402.355 432.374 398.847 435.729 394.424 435.729H298.952C294.529 435.729 291.021 432.526 291.021 428.408C291.021 424.443 294.529 421.088 298.952 421.088H394.424C398.847 421.24 402.355 424.443 402.355 428.408Z" fill="#404040"/>
<path d="M350.959 237.769C357.212 236.701 363.16 254.85 359.195 265.068C350.807 286.572 362.855 296.943 363.313 311.584C363.77 325.768 358.432 335.681 349.282 340.866C354.162 336.901 359.195 324.243 356.602 318.6C354.009 312.957 342.114 278.642 345.621 263.543C349.434 248.445 350.959 237.769 350.959 237.769Z" fill="#091127"/>
<path d="M346.536 237.769C342.876 241.429 326.557 264.458 332.2 283.675C337.996 302.891 345.774 305.941 348.824 321.498C351.874 337.054 345.164 341.782 343.639 343.764C342.724 344.984 360.263 334.156 359.195 309.297C358.127 284.437 344.706 295.571 352.942 258.663C355.382 247.682 350.807 237.616 350.807 237.616H346.536V237.769Z" fill="black"/>
<path d="M353.857 238.226C349.282 235.634 342.419 237.769 341.656 240.057C341.199 236.396 346.384 232.889 352.332 234.414C359.043 236.091 356.755 241.887 356.755 241.887L353.857 238.226Z" fill="#FF8000"/>
<path d="M352.179 511.68C351.722 513.967 343.181 533.031 343.639 534.251C344.096 535.471 340.894 534.709 340.894 534.709L344.859 514.882L352.179 511.68Z" fill="black"/>
<path d="M327.93 516.103C320.152 527.541 313.442 542.182 313.442 542.182L311.307 542.029L317.712 517.17L327.93 516.103Z" fill="black"/>
<g filter="url(#filter0_d_2_25733)">
<rect x="20" y="190" width="118" height="82" rx="7" fill="white"/>
</g>
<path d="M66 208V218.5C66 220.157 67.3431 221.5 69 221.5H77.6111V227L83.1111 221.5H88.6667C90.3235 221.5 91.6667 220.157 91.6667 218.5V208C91.6667 206.343 90.3235 205 88.6667 205H69C67.3431 205 66 206.343 66 208Z" stroke="#476CD2" stroke-width="1.4" stroke-linecap="round" stroke-linejoin="round"/>
<path d="M75.9628 217.833H74.244L77.3734 208.944H79.3612L82.4949 217.833H80.7761L78.402 210.767H78.3326L75.9628 217.833ZM76.0192 214.348H80.7067V215.641H76.0192V214.348Z" fill="#476CD2"/>
<path d="M42.9788 243V235.727H44.5164V238.728H47.6379V235.727H49.172V243H47.6379V239.996H44.5164V243H42.9788ZM52.8758 243.107C52.3242 243.107 51.8472 242.989 51.4447 242.755C51.0446 242.518 50.7356 242.189 50.5178 241.768C50.3 241.344 50.1911 240.853 50.1911 240.294C50.1911 239.731 50.3 239.238 50.5178 238.817C50.7356 238.393 51.0446 238.064 51.4447 237.83C51.8472 237.593 52.3242 237.474 52.8758 237.474C53.4274 237.474 53.9033 237.593 54.3034 237.83C54.7058 238.064 55.016 238.393 55.2338 238.817C55.4516 239.238 55.5605 239.731 55.5605 240.294C55.5605 240.853 55.4516 241.344 55.2338 241.768C55.016 242.189 54.7058 242.518 54.3034 242.755C53.9033 242.989 53.4274 243.107 52.8758 243.107ZM52.8829 241.935C53.1338 241.935 53.3434 241.864 53.5115 241.722C53.6795 241.577 53.8062 241.381 53.8914 241.132C53.979 240.884 54.0228 240.601 54.0228 240.283C54.0228 239.966 53.979 239.683 53.8914 239.435C53.8062 239.186 53.6795 238.99 53.5115 238.845C53.3434 238.701 53.1338 238.629 52.8829 238.629C52.6296 238.629 52.4165 238.701 52.2437 238.845C52.0732 238.99 51.9442 239.186 51.8566 239.435C51.7714 239.683 51.7288 239.966 51.7288 240.283C51.7288 240.601 51.7714 240.884 51.8566 241.132C51.9442 241.381 52.0732 241.577 52.2437 241.722C52.4165 241.864 52.6296 241.935 52.8829 241.935ZM57.4834 243L55.999 237.545H57.5296L58.3747 241.21H58.4244L59.3051 237.545H60.8073L61.7021 241.189H61.7483L62.5793 237.545H64.1063L62.6254 243H61.0239L60.0864 239.57H60.0189L59.0814 243H57.4834ZM70.129 237.545V238.682H66.8442V237.545H70.129ZM67.5899 236.239H69.1027V241.324C69.1027 241.464 69.124 241.572 69.1666 241.651C69.2093 241.726 69.2684 241.78 69.3442 241.81C69.4223 241.841 69.5123 241.857 69.6141 241.857C69.6851 241.857 69.7561 241.851 69.8271 241.839C69.8982 241.825 69.9526 241.814 69.9905 241.807L70.2284 242.933C70.1527 242.956 70.0461 242.983 69.9088 243.014C69.7715 243.047 69.6046 243.067 69.4081 243.075C69.0435 243.089 68.7239 243.04 68.4493 242.929C68.1771 242.818 67.9652 242.645 67.8137 242.411C67.6621 242.176 67.5876 241.88 67.5899 241.523V236.239ZM73.5203 243.107C72.9687 243.107 72.4917 242.989 72.0892 242.755C71.6891 242.518 71.3802 242.189 71.1624 241.768C70.9446 241.344 70.8357 240.853 70.8357 240.294C70.8357 239.731 70.9446 239.238 71.1624 238.817C71.3802 238.393 71.6891 238.064 72.0892 237.83C72.4917 237.593 72.9687 237.474 73.5203 237.474C74.0719 237.474 74.5478 237.593 74.9479 237.83C75.3503 238.064 75.6605 238.393 75.8783 238.817C76.0961 239.238 76.205 239.731 76.205 240.294C76.205 240.853 76.0961 241.344 75.8783 241.768C75.6605 242.189 75.3503 242.518 74.9479 242.755C74.5478 242.989 74.0719 243.107 73.5203 243.107ZM73.5274 241.935C73.7784 241.935 73.9879 241.864 74.156 241.722C74.3241 241.577 74.4507 241.381 74.536 241.132C74.6236 240.884 74.6673 240.601 74.6673 240.283C74.6673 239.966 74.6236 239.683 74.536 239.435C74.4507 239.186 74.3241 238.99 74.156 238.845C73.9879 238.701 73.7784 238.629 73.5274 238.629C73.2741 238.629 73.061 238.701 72.8882 238.845C72.7178 238.99 72.5887 239.186 72.5012 239.435C72.4159 239.683 72.3733 239.966 72.3733 240.283C72.3733 240.601 72.4159 240.884 72.5012 241.132C72.5887 241.381 72.7178 241.577 72.8882 241.722C73.061 241.864 73.2741 241.935 73.5274 241.935ZM80.7851 243H79.1373L81.648 235.727H83.6295L86.1366 243H84.4889L82.6672 237.389H82.6104L80.7851 243ZM80.6821 240.141H84.5741V241.342H80.6821V240.141ZM88.4964 239.847V243H86.9836V237.545H88.4253V238.508H88.4893C88.61 238.191 88.8124 237.94 89.0965 237.755C89.3806 237.568 89.7251 237.474 90.1299 237.474C90.5087 237.474 90.8389 237.557 91.1206 237.723C91.4024 237.889 91.6214 238.125 91.7776 238.433C91.9339 238.739 92.012 239.103 92.012 239.527V243H90.4992V239.797C90.5016 239.463 90.4163 239.203 90.2435 239.016C90.0707 238.826 89.8328 238.732 89.5297 238.732C89.3261 238.732 89.1462 238.775 88.99 238.863C88.8361 238.951 88.7153 239.078 88.6278 239.246C88.5425 239.412 88.4987 239.612 88.4964 239.847ZM97.7426 239.101L96.3577 239.186C96.334 239.068 96.2831 238.961 96.205 238.866C96.1269 238.769 96.0239 238.692 95.896 238.636C95.7706 238.576 95.6202 238.547 95.445 238.547C95.2107 238.547 95.013 238.597 94.852 238.696C94.691 238.793 94.6105 238.923 94.6105 239.087C94.6105 239.217 94.6626 239.327 94.7668 239.417C94.8709 239.507 95.0497 239.579 95.303 239.634L96.2902 239.832C96.8205 239.941 97.2159 240.116 97.4763 240.358C97.7367 240.599 97.8669 240.917 97.8669 241.31C97.8669 241.667 97.7616 241.981 97.5509 242.251C97.3425 242.521 97.0561 242.731 96.6915 242.883C96.3293 243.032 95.9114 243.107 95.4379 243.107C94.7159 243.107 94.1406 242.956 93.7121 242.656C93.286 242.353 93.0362 241.941 92.9628 241.42L94.4507 241.342C94.4957 241.562 94.6046 241.73 94.7774 241.846C94.9503 241.96 95.1716 242.016 95.4415 242.016C95.7066 242.016 95.9197 241.965 96.0807 241.864C96.2441 241.759 96.3269 241.626 96.3293 241.462C96.3269 241.325 96.2689 241.213 96.1553 241.125C96.0416 241.035 95.8664 240.966 95.6297 240.919L94.6851 240.731C94.1524 240.624 93.7559 240.44 93.4955 240.177C93.2374 239.914 93.1084 239.579 93.1084 239.172C93.1084 238.821 93.2031 238.52 93.3925 238.266C93.5843 238.013 93.853 237.818 94.1986 237.68C94.5466 237.543 94.9538 237.474 95.4202 237.474C96.1091 237.474 96.6512 237.62 97.0466 237.911C97.4443 238.202 97.6763 238.599 97.7426 239.101ZM99.8955 243L98.4111 237.545H99.9417L100.787 241.21H100.837L101.717 237.545H103.219L104.114 241.189H104.16L104.991 237.545H106.518L105.038 243H103.436L102.498 239.57H102.431L101.494 243H99.8955ZM109.674 243.107C109.113 243.107 108.63 242.993 108.226 242.766C107.823 242.536 107.513 242.212 107.295 241.793C107.077 241.371 106.968 240.873 106.968 240.298C106.968 239.737 107.077 239.244 107.295 238.82C107.513 238.397 107.82 238.066 108.215 237.83C108.613 237.593 109.079 237.474 109.614 237.474C109.974 237.474 110.309 237.532 110.619 237.648C110.932 237.762 111.204 237.934 111.436 238.163C111.67 238.393 111.852 238.682 111.983 239.03C112.113 239.375 112.178 239.78 112.178 240.244V240.66H107.572V239.722H110.754C110.754 239.504 110.707 239.312 110.612 239.143C110.517 238.975 110.386 238.844 110.218 238.749C110.052 238.652 109.859 238.604 109.639 238.604C109.409 238.604 109.206 238.657 109.028 238.763C108.853 238.868 108.716 239.009 108.616 239.186C108.517 239.361 108.466 239.557 108.464 239.772V240.663C108.464 240.933 108.513 241.166 108.613 241.363C108.714 241.559 108.858 241.711 109.042 241.817C109.227 241.924 109.446 241.977 109.699 241.977C109.867 241.977 110.021 241.954 110.161 241.906C110.301 241.859 110.42 241.788 110.52 241.693C110.619 241.598 110.695 241.482 110.747 241.345L112.146 241.438C112.075 241.774 111.929 242.067 111.709 242.318C111.491 242.567 111.21 242.761 110.864 242.901C110.521 243.038 110.124 243.107 109.674 243.107ZM113.165 243V237.545H114.632V238.497H114.689C114.788 238.159 114.955 237.903 115.189 237.73C115.424 237.555 115.694 237.467 115.999 237.467C116.075 237.467 116.156 237.472 116.244 237.482C116.332 237.491 116.409 237.504 116.475 237.521V238.863C116.404 238.842 116.306 238.823 116.18 238.806C116.055 238.79 115.94 238.781 115.836 238.781C115.613 238.781 115.414 238.83 115.239 238.927C115.066 239.022 114.929 239.154 114.827 239.325C114.728 239.495 114.678 239.692 114.678 239.914V243H113.165ZM44.67 249.545V250.682H41.3852V249.545H44.67ZM42.1309 248.239H43.6437V253.324C43.6437 253.464 43.665 253.572 43.7077 253.651C43.7503 253.726 43.8095 253.78 43.8852 253.81C43.9633 253.841 44.0533 253.857 44.1551 253.857C44.2261 253.857 44.2971 253.851 44.3682 253.839C44.4392 253.825 44.4936 253.814 44.5315 253.807L44.7694 254.933C44.6937 254.956 44.5872 254.983 44.4498 255.014C44.3125 255.047 44.1456 255.067 43.9491 255.075C43.5845 255.089 43.2649 255.04 42.9903 254.929C42.7181 254.818 42.5062 254.645 42.3547 254.411C42.2032 254.176 42.1286 253.88 42.1309 253.523V248.239ZM47.2854 251.847V255H45.7726V247.727H47.2428V250.508H47.3067C47.4298 250.186 47.6287 249.934 47.9033 249.751C48.1779 249.567 48.5224 249.474 48.9367 249.474C49.3155 249.474 49.6457 249.557 49.9275 249.723C50.2116 249.886 50.4317 250.122 50.588 250.43C50.7466 250.735 50.8247 251.101 50.8224 251.527V255H49.3096V251.797C49.3119 251.461 49.2267 251.199 49.0539 251.012C48.8834 250.825 48.6443 250.732 48.3366 250.732C48.1306 250.732 47.9483 250.775 47.7897 250.863C47.6334 250.951 47.5103 251.078 47.4204 251.246C47.3328 251.412 47.2878 251.612 47.2854 251.847ZM54.4987 255.107C53.9376 255.107 53.4546 254.993 53.0498 254.766C52.6473 254.536 52.3372 254.212 52.1194 253.793C51.9016 253.371 51.7927 252.873 51.7927 252.298C51.7927 251.737 51.9016 251.244 52.1194 250.82C52.3372 250.397 52.6438 250.066 53.0392 249.83C53.4369 249.593 53.9033 249.474 54.4383 249.474C54.7981 249.474 55.1331 249.532 55.4433 249.648C55.7558 249.762 56.028 249.934 56.26 250.163C56.4944 250.393 56.6767 250.682 56.8069 251.03C56.9371 251.375 57.0022 251.78 57.0022 252.244V252.66H52.3964V251.722H55.5782C55.5782 251.504 55.5309 251.312 55.4362 251.143C55.3415 250.975 55.2101 250.844 55.042 250.749C54.8763 250.652 54.6833 250.604 54.4632 250.604C54.2335 250.604 54.0299 250.657 53.8524 250.763C53.6772 250.868 53.5399 251.009 53.4404 251.186C53.341 251.361 53.2901 251.557 53.2877 251.772V252.663C53.2877 252.933 53.3374 253.166 53.4369 253.363C53.5387 253.559 53.6819 253.711 53.8666 253.817C54.0512 253.924 54.2702 253.977 54.5235 253.977C54.6916 253.977 54.8455 253.954 54.9852 253.906C55.1249 253.859 55.2444 253.788 55.3438 253.693C55.4433 253.598 55.519 253.482 55.5711 253.345L56.9703 253.438C56.8992 253.774 56.7536 254.067 56.5335 254.318C56.3157 254.567 56.0339 254.761 55.6883 254.901C55.345 255.038 54.9485 255.107 54.4987 255.107ZM61.6462 247.727L63.404 253.253H63.4715L65.2329 247.727H66.9374L64.4303 255H62.4488L59.9381 247.727H61.6462ZM67.7844 255V249.545H69.2971V255H67.7844ZM68.5443 248.842C68.3194 248.842 68.1265 248.768 67.9655 248.619C67.8068 248.467 67.7275 248.286 67.7275 248.075C67.7275 247.867 67.8068 247.688 67.9655 247.539C68.1265 247.388 68.3194 247.312 68.5443 247.312C68.7692 247.312 68.961 247.388 69.1196 247.539C69.2806 247.688 69.3611 247.867 69.3611 248.075C69.3611 248.286 69.2806 248.467 69.1196 248.619C68.961 248.768 68.7692 248.842 68.5443 248.842ZM75.0473 251.101L73.6624 251.186C73.6387 251.068 73.5878 250.961 73.5097 250.866C73.4316 250.769 73.3286 250.692 73.2007 250.636C73.0753 250.576 72.9249 250.547 72.7497 250.547C72.5154 250.547 72.3177 250.597 72.1567 250.696C71.9957 250.793 71.9152 250.923 71.9152 251.087C71.9152 251.217 71.9673 251.327 72.0715 251.417C72.1756 251.507 72.3544 251.579 72.6077 251.634L73.5949 251.832C74.1252 251.941 74.5206 252.116 74.781 252.358C75.0414 252.599 75.1716 252.917 75.1716 253.31C75.1716 253.667 75.0663 253.981 74.8556 254.251C74.6472 254.521 74.3608 254.731 73.9962 254.883C73.634 255.032 73.2161 255.107 72.7426 255.107C72.0206 255.107 71.4453 254.956 71.0168 254.656C70.5906 254.353 70.3409 253.941 70.2675 253.42L71.7554 253.342C71.8004 253.562 71.9093 253.73 72.0821 253.846C72.2549 253.96 72.4763 254.016 72.7462 254.016C73.0113 254.016 73.2244 253.965 73.3854 253.864C73.5487 253.759 73.6316 253.626 73.634 253.462C73.6316 253.325 73.5736 253.213 73.46 253.125C73.3463 253.035 73.1711 252.966 72.9344 252.919L71.9898 252.731C71.4571 252.624 71.0606 252.44 70.8002 252.177C70.5421 251.914 70.4131 251.579 70.4131 251.172C70.4131 250.821 70.5078 250.52 70.6972 250.266C70.8889 250.013 71.1576 249.818 71.5033 249.68C71.8513 249.543 72.2585 249.474 72.7249 249.474C73.4138 249.474 73.9559 249.62 74.3513 249.911C74.749 250.202 74.981 250.599 75.0473 251.101ZM77.6796 255.103C77.3316 255.103 77.0215 255.043 76.7492 254.922C76.4769 254.799 76.2615 254.618 76.1029 254.379C75.9466 254.137 75.8685 253.836 75.8685 253.477C75.8685 253.174 75.9242 252.919 76.0354 252.713C76.1467 252.507 76.2982 252.341 76.49 252.216C76.6817 252.09 76.8995 251.996 77.1434 251.932C77.3896 251.868 77.6476 251.823 77.9175 251.797C78.2348 251.764 78.4904 251.733 78.6846 251.705C78.8787 251.674 79.0196 251.629 79.1072 251.57C79.1948 251.51 79.2385 251.423 79.2385 251.307V251.286C79.2385 251.061 79.1675 250.887 79.0255 250.763C78.8858 250.64 78.6869 250.579 78.4289 250.579C78.1566 250.579 77.94 250.639 77.779 250.76C77.618 250.878 77.5115 251.027 77.4594 251.207L76.0603 251.094C76.1313 250.762 76.271 250.476 76.4793 250.234C76.6876 249.991 76.9564 249.804 77.2854 249.673C77.6169 249.541 78.0004 249.474 78.436 249.474C78.739 249.474 79.029 249.51 79.306 249.581C79.5854 249.652 79.8328 249.762 80.0482 249.911C80.266 250.06 80.4376 250.252 80.5631 250.487C80.6886 250.719 80.7513 250.997 80.7513 251.321V255H79.3167V254.244H79.2741C79.1865 254.414 79.0693 254.564 78.9225 254.695C78.7757 254.822 78.5993 254.923 78.3934 254.996C78.1874 255.067 77.9495 255.103 77.6796 255.103ZM78.1128 254.059C78.3354 254.059 78.5319 254.015 78.7023 253.928C78.8728 253.838 79.0065 253.717 79.1036 253.565C79.2007 253.414 79.2492 253.242 79.2492 253.05V252.472C79.2019 252.502 79.1367 252.531 79.0539 252.557C78.9734 252.58 78.8823 252.603 78.7805 252.624C78.6787 252.643 78.5769 252.661 78.4751 252.678C78.3733 252.692 78.2809 252.705 78.1981 252.717C78.0205 252.743 77.8654 252.784 77.7329 252.841C77.6003 252.898 77.4973 252.975 77.4239 253.072C77.3505 253.166 77.3138 253.285 77.3138 253.427C77.3138 253.633 77.3884 253.79 77.5376 253.899C77.6891 254.006 77.8808 254.059 78.1128 254.059ZM90.9511 251.364C90.9511 252.157 90.8008 252.831 90.5001 253.388C90.2018 253.944 89.7946 254.369 89.2785 254.663C88.7648 254.954 88.1871 255.099 87.5455 255.099C86.8992 255.099 86.3192 254.953 85.8055 254.659C85.2918 254.366 84.8857 253.941 84.5874 253.384C84.2892 252.828 84.14 252.154 84.14 251.364C84.14 250.571 84.2892 249.896 84.5874 249.339C84.8857 248.783 85.2918 248.359 85.8055 248.068C86.3192 247.775 86.8992 247.628 87.5455 247.628C88.1871 247.628 88.7648 247.775 89.2785 248.068C89.7946 248.359 90.2018 248.783 90.5001 249.339C90.8008 249.896 90.9511 250.571 90.9511 251.364ZM89.3921 251.364C89.3921 250.85 89.3152 250.417 89.1613 250.064C89.0098 249.711 88.7955 249.444 88.5186 249.261C88.2416 249.079 87.9172 248.988 87.5455 248.988C87.1739 248.988 86.8495 249.079 86.5725 249.261C86.2955 249.444 86.0801 249.711 85.9262 250.064C85.7747 250.417 85.699 250.85 85.699 251.364C85.699 251.877 85.7747 252.311 85.9262 252.663C86.0801 253.016 86.2955 253.284 86.5725 253.466C86.8495 253.648 87.1739 253.739 87.5455 253.739C87.9172 253.739 88.2416 253.648 88.5186 253.466C88.7955 253.284 89.0098 253.016 89.1613 252.663C89.3152 252.311 89.3921 251.877 89.3921 251.364ZM94.9949 249.545V250.682H91.6285V249.545H94.9949ZM92.3991 255V249.151C92.3991 248.756 92.476 248.428 92.6299 248.168C92.7861 247.907 92.9992 247.712 93.2691 247.582C93.539 247.451 93.8456 247.386 94.1888 247.386C94.4208 247.386 94.6327 247.404 94.8245 247.44C95.0186 247.475 95.163 247.507 95.2577 247.536L94.9878 248.672C94.9287 248.653 94.8553 248.635 94.7677 248.619C94.6824 248.602 94.5948 248.594 94.5049 248.594C94.2823 248.594 94.1273 248.646 94.0397 248.75C93.9521 248.852 93.9083 248.995 93.9083 249.18V255H92.3991ZM98.8524 249.545V250.682H95.4859V249.545H98.8524ZM96.2565 255V249.151C96.2565 248.756 96.3334 248.428 96.4873 248.168C96.6436 247.907 96.8566 247.712 97.1265 247.582C97.3964 247.451 97.703 247.386 98.0463 247.386C98.2783 247.386 98.4901 247.404 98.6819 247.44C98.876 247.475 99.0204 247.507 99.1151 247.536L98.8453 248.672C98.7861 248.653 98.7127 248.635 98.6251 248.619C98.5399 248.602 98.4523 248.594 98.3623 248.594C98.1398 248.594 97.9847 248.646 97.8971 248.75C97.8095 248.852 97.7657 248.995 97.7657 249.18V255H96.2565ZM99.7765 255V249.545H101.289V255H99.7765ZM100.536 248.842C100.312 248.842 100.119 248.768 99.9577 248.619C99.799 248.467 99.7197 248.286 99.7197 248.075C99.7197 247.867 99.799 247.688 99.9577 247.539C100.119 247.388 100.312 247.312 100.536 247.312C100.761 247.312 100.953 247.388 101.112 247.539C101.273 247.688 101.353 247.867 101.353 248.075C101.353 248.286 101.273 248.467 101.112 248.619C100.953 248.768 100.761 248.842 100.536 248.842ZM104.966 255.107C104.407 255.107 103.926 254.988 103.524 254.751C103.124 254.512 102.816 254.181 102.601 253.757C102.388 253.333 102.281 252.846 102.281 252.294C102.281 251.735 102.389 251.245 102.604 250.824C102.822 250.4 103.131 250.07 103.531 249.833C103.931 249.594 104.407 249.474 104.959 249.474C105.434 249.474 105.851 249.561 106.209 249.734C106.566 249.906 106.849 250.149 107.057 250.462C107.266 250.774 107.38 251.141 107.402 251.562H105.974C105.934 251.29 105.827 251.071 105.655 250.906C105.484 250.737 105.26 250.653 104.983 250.653C104.749 250.653 104.544 250.717 104.369 250.845C104.196 250.971 104.061 251.154 103.964 251.396C103.867 251.637 103.819 251.929 103.819 252.273C103.819 252.621 103.866 252.917 103.961 253.161C104.058 253.404 104.194 253.59 104.369 253.718C104.544 253.846 104.749 253.91 104.983 253.91C105.156 253.91 105.311 253.874 105.449 253.803C105.588 253.732 105.703 253.629 105.793 253.494C105.885 253.357 105.946 253.192 105.974 253.001H107.402C107.378 253.417 107.264 253.784 107.061 254.102C106.86 254.416 106.581 254.663 106.226 254.84C105.871 255.018 105.451 255.107 104.966 255.107ZM110.856 255.107C110.295 255.107 109.812 254.993 109.407 254.766C109.005 254.536 108.695 254.212 108.477 253.793C108.259 253.371 108.15 252.873 108.15 252.298C108.15 251.737 108.259 251.244 108.477 250.82C108.695 250.397 109.001 250.066 109.397 249.83C109.794 249.593 110.261 249.474 110.796 249.474C111.156 249.474 111.491 249.532 111.801 249.648C112.113 249.762 112.385 249.934 112.617 250.163C112.852 250.393 113.034 250.682 113.164 251.03C113.295 251.375 113.36 251.78 113.36 252.244V252.66H108.754V251.722H111.936C111.936 251.504 111.888 251.312 111.794 251.143C111.699 250.975 111.568 250.844 111.399 250.749C111.234 250.652 111.041 250.604 110.821 250.604C110.591 250.604 110.387 250.657 110.21 250.763C110.035 250.868 109.897 251.009 109.798 251.186C109.698 251.361 109.648 251.557 109.645 251.772V252.663C109.645 252.933 109.695 253.166 109.794 253.363C109.896 253.559 110.039 253.711 110.224 253.817C110.409 253.924 110.628 253.977 110.881 253.977C111.049 253.977 111.203 253.954 111.343 253.906C111.482 253.859 111.602 253.788 111.701 253.693C111.801 253.598 111.876 253.482 111.929 253.345L113.328 253.438C113.257 253.774 113.111 254.067 112.891 254.318C112.673 254.567 112.391 254.761 112.046 254.901C111.702 255.038 111.306 255.107 110.856 255.107ZM114.347 255V249.545H115.813V250.497H115.87C115.97 250.159 116.137 249.903 116.371 249.73C116.605 249.555 116.875 249.467 117.181 249.467C117.256 249.467 117.338 249.472 117.426 249.482C117.513 249.491 117.59 249.504 117.657 249.521V250.863C117.585 250.842 117.487 250.823 117.362 250.806C117.236 250.79 117.121 250.781 117.017 250.781C116.795 250.781 116.596 250.83 116.421 250.927C116.248 251.022 116.111 251.154 116.009 251.325C115.909 251.495 115.86 251.692 115.86 251.914V255H114.347Z" fill="#476CD2"/>
<g filter="url(#filter1_d_2_25733)">
<rect x="295" y="15" width="118" height="82" rx="7" fill="white"/>
</g>
<circle cx="346" cy="32" r="7.3" stroke="#476CD2" stroke-width="1.4"/>
<circle cx="361" cy="32" r="7.3" stroke="#476CD2" stroke-width="1.4"/>
<circle cx="361" cy="47" r="7.3" stroke="#476CD2" stroke-width="1.4"/>
<circle cx="346" cy="47" r="7.3" stroke="#476CD2" stroke-width="1.4"/>
<mask id="path-115-inside-1_2_25733" fill="white">
<path d="M350 31C350.552 31 351.01 31.4521 350.9 31.9934C350.837 32.3076 350.743 32.6158 350.619 32.9134C350.368 33.52 350 34.0712 349.536 34.5355C349.071 34.9998 348.52 35.3681 347.913 35.6194C347.307 35.8707 346.657 36 346 36C345.343 36 344.693 35.8707 344.087 35.6194C343.48 35.3681 342.929 34.9998 342.464 34.5355C342 34.0712 341.632 33.52 341.381 32.9134C341.257 32.6158 341.163 32.3076 341.1 31.9934C340.99 31.4521 341.448 31 342 31L346 31H350Z"/>
</mask>
<path d="M350 31C350.552 31 351.01 31.4521 350.9 31.9934C350.837 32.3076 350.743 32.6158 350.619 32.9134C350.368 33.52 350 34.0712 349.536 34.5355C349.071 34.9998 348.52 35.3681 347.913 35.6194C347.307 35.8707 346.657 36 346 36C345.343 36 344.693 35.8707 344.087 35.6194C343.48 35.3681 342.929 34.9998 342.464 34.5355C342 34.0712 341.632 33.52 341.381 32.9134C341.257 32.6158 341.163 32.3076 341.1 31.9934C340.99 31.4521 341.448 31 342 31L346 31H350Z" stroke="#476CD2" stroke-width="2.8" mask="url(#path-115-inside-1_2_25733)"/>
<path d="M364.3 32C364.3 32.4334 364.215 32.8625 364.049 33.2629C363.883 33.6632 363.64 34.027 363.333 34.3335C363.027 34.6399 362.663 34.883 362.263 35.0488C361.862 35.2146 361.433 35.3 361 35.3C360.567 35.3 360.138 35.2146 359.737 35.0488C359.337 34.883 358.973 34.6399 358.667 34.3335C358.36 34.027 358.117 33.6632 357.951 33.2629C357.785 32.8625 357.7 32.4334 357.7 32" stroke="#476CD2" stroke-width="1.4"/>
<path d="M364.3 49C364.3 48.5666 364.215 48.1375 364.049 47.7371C363.883 47.3368 363.64 46.973 363.333 46.6665C363.027 46.3601 362.663 46.117 362.263 45.9512C361.862 45.7854 361.433 45.7 361 45.7C360.567 45.7 360.138 45.7854 359.737 45.9512C359.337 46.117 358.973 46.3601 358.667 46.6665C358.36 46.973 358.117 47.3368 357.951 47.7371C357.785 48.1375 357.7 48.5666 357.7 49" stroke="#476CD2" stroke-width="1.4"/>
<path d="M343.5 48H348.5" stroke="#476CD2" stroke-width="1.4" stroke-linecap="round" stroke-linejoin="round"/>
<path d="M318.081 68V60.7273H319.619V63.728H322.74V60.7273H324.275V68H322.74V64.9957H319.619V68H318.081ZM327.978 68.1065C327.427 68.1065 326.95 67.9893 326.547 67.755C326.147 67.5182 325.838 67.1892 325.62 66.7678C325.403 66.344 325.294 65.8527 325.294 65.294C325.294 64.7306 325.403 64.2382 325.62 63.8168C325.838 63.393 326.147 63.0639 326.547 62.8295C326.95 62.5928 327.427 62.4744 327.978 62.4744C328.53 62.4744 329.006 62.5928 329.406 62.8295C329.808 63.0639 330.118 63.393 330.336 63.8168C330.554 64.2382 330.663 64.7306 330.663 65.294C330.663 65.8527 330.554 66.344 330.336 66.7678C330.118 67.1892 329.808 67.5182 329.406 67.755C329.006 67.9893 328.53 68.1065 327.978 68.1065ZM327.985 66.9347C328.236 66.9347 328.446 66.8636 328.614 66.7216C328.782 66.5772 328.909 66.3807 328.994 66.1321C329.082 65.8835 329.125 65.6006 329.125 65.2834C329.125 64.9661 329.082 64.6832 328.994 64.4347C328.909 64.1861 328.782 63.9896 328.614 63.8452C328.446 63.7008 328.236 63.6286 327.985 63.6286C327.732 63.6286 327.519 63.7008 327.346 63.8452C327.176 63.9896 327.047 64.1861 326.959 64.4347C326.874 64.6832 326.831 64.9661 326.831 65.2834C326.831 65.6006 326.874 65.8835 326.959 66.1321C327.047 66.3807 327.176 66.5772 327.346 66.7216C327.519 66.8636 327.732 66.9347 327.985 66.9347ZM332.586 68L331.102 62.5455H332.632L333.477 66.2102H333.527L334.408 62.5455H335.91L336.805 66.1889H336.851L337.682 62.5455H339.209L337.728 68H336.126L335.189 64.5696H335.121L334.184 68H332.586ZM341.933 60.7273H343.655L345.313 63.8594H345.384L347.043 60.7273H348.765L346.112 65.429V68H344.585V65.429L341.933 60.7273ZM350.898 68.1065C350.347 68.1065 349.87 67.9893 349.467 67.755C349.067 67.5182 348.758 67.1892 348.54 66.7678C348.323 66.344 348.214 65.8527 348.214 65.294C348.214 64.7306 348.323 64.2382 348.54 63.8168C348.758 63.393 349.067 63.0639 349.467 62.8295C349.87 62.5928 350.347 62.4744 350.898 62.4744C351.45 62.4744 351.926 62.5928 352.326 62.8295C352.728 63.0639 353.038 63.393 353.256 63.8168C353.474 64.2382 353.583 64.7306 353.583 65.294C353.583 65.8527 353.474 66.344 353.256 66.7678C353.038 67.1892 352.728 67.5182 352.326 67.755C351.926 67.9893 351.45 68.1065 350.898 68.1065ZM350.905 66.9347C351.156 66.9347 351.366 66.8636 351.534 66.7216C351.702 66.5772 351.829 66.3807 351.914 66.1321C352.001 65.8835 352.045 65.6006 352.045 65.2834C352.045 64.9661 352.001 64.6832 351.914 64.4347C351.829 64.1861 351.702 63.9896 351.534 63.8452C351.366 63.7008 351.156 63.6286 350.905 63.6286C350.652 63.6286 350.439 63.7008 350.266 63.8452C350.096 63.9896 349.967 64.1861 349.879 64.4347C349.794 64.6832 349.751 64.9661 349.751 65.2834C349.751 65.6006 349.794 65.8835 349.879 66.1321C349.967 66.3807 350.096 66.5772 350.266 66.7216C350.439 66.8636 350.652 66.9347 350.905 66.9347ZM358.064 65.6776V62.5455H359.577V68H358.125V67.0092H358.068C357.945 67.3288 357.74 67.5857 357.454 67.7798C357.17 67.974 356.823 68.071 356.413 68.071C356.049 68.071 355.728 67.9882 355.451 67.8224C355.174 67.6567 354.957 67.4212 354.801 67.1158C354.647 66.8104 354.569 66.4446 354.567 66.0185V62.5455H356.079V65.7486C356.082 66.0705 356.168 66.325 356.339 66.5121C356.509 66.6991 356.738 66.7926 357.024 66.7926C357.206 66.7926 357.377 66.7512 357.535 66.6683C357.694 66.5831 357.822 66.4576 357.919 66.2919C358.018 66.1262 358.067 65.9214 358.064 65.6776ZM360.787 68V62.5455H362.254V63.4972H362.311C362.41 63.1586 362.577 62.9029 362.811 62.7301C363.046 62.5549 363.316 62.4673 363.621 62.4673C363.697 62.4673 363.779 62.4721 363.866 62.4815C363.954 62.491 364.031 62.504 364.097 62.5206V63.8629C364.026 63.8416 363.928 63.8227 363.802 63.8061C363.677 63.7895 363.562 63.7812 363.458 63.7812C363.235 63.7812 363.036 63.8298 362.861 63.9268C362.688 64.0215 362.551 64.1541 362.449 64.3246C362.35 64.495 362.3 64.6915 362.3 64.9141V68H360.787ZM367.222 68V60.7273H370.134C370.669 60.7273 371.115 60.8066 371.473 60.9652C371.83 61.1238 372.099 61.344 372.279 61.6257C372.459 61.9051 372.549 62.227 372.549 62.5916C372.549 62.8757 372.492 63.1255 372.378 63.3409C372.265 63.554 372.108 63.7292 371.909 63.8665C371.713 64.0014 371.488 64.0973 371.235 64.1541V64.2251C371.512 64.237 371.771 64.3151 372.012 64.4595C372.256 64.6039 372.454 64.8063 372.605 65.0668C372.757 65.3248 372.833 65.6326 372.833 65.9901C372.833 66.3759 372.737 66.7204 372.545 67.0234C372.356 67.3241 372.075 67.562 371.703 67.7372C371.332 67.9124 370.874 68 370.329 68H367.222ZM368.76 66.7429H370.013C370.442 66.7429 370.754 66.6612 370.951 66.4979C371.147 66.3321 371.245 66.112 371.245 65.8374C371.245 65.6361 371.197 65.4586 371.1 65.3047C371.003 65.1508 370.864 65.0301 370.684 64.9425C370.507 64.8549 370.295 64.8111 370.049 64.8111H368.76V66.7429ZM368.76 63.7706H369.9C370.11 63.7706 370.297 63.7339 370.461 63.6605C370.626 63.5848 370.757 63.4782 370.851 63.3409C370.948 63.2036 370.997 63.0391 370.997 62.8473C370.997 62.5845 370.903 62.3726 370.716 62.2116C370.532 62.0507 370.269 61.9702 369.928 61.9702H368.76V63.7706ZM376.269 68.1065C375.718 68.1065 375.241 67.9893 374.838 67.755C374.438 67.5182 374.129 67.1892 373.911 66.7678C373.694 66.344 373.585 65.8527 373.585 65.294C373.585 64.7306 373.694 64.2382 373.911 63.8168C374.129 63.393 374.438 63.0639 374.838 62.8295C375.241 62.5928 375.718 62.4744 376.269 62.4744C376.821 62.4744 377.297 62.5928 377.697 62.8295C378.099 63.0639 378.41 63.393 378.627 63.8168C378.845 64.2382 378.954 64.7306 378.954 65.294C378.954 65.8527 378.845 66.344 378.627 66.7678C378.41 67.1892 378.099 67.5182 377.697 67.755C377.297 67.9893 376.821 68.1065 376.269 68.1065ZM376.276 66.9347C376.527 66.9347 376.737 66.8636 376.905 66.7216C377.073 66.5772 377.2 66.3807 377.285 66.1321C377.373 65.8835 377.416 65.6006 377.416 65.2834C377.416 64.9661 377.373 64.6832 377.285 64.4347C377.2 64.1861 377.073 63.9896 376.905 63.8452C376.737 63.7008 376.527 63.6286 376.276 63.6286C376.023 63.6286 375.81 63.7008 375.637 63.8452C375.467 63.9896 375.338 64.1861 375.25 64.4347C375.165 64.6832 375.122 64.9661 375.122 65.2834C375.122 65.6006 375.165 65.8835 375.25 66.1321C375.338 66.3807 375.467 66.5772 375.637 66.7216C375.81 66.8636 376.023 66.9347 376.276 66.9347ZM381.948 68.0888C381.533 68.0888 381.158 67.9822 380.822 67.7692C380.488 67.5537 380.223 67.2377 380.026 66.821C379.832 66.402 379.735 65.8883 379.735 65.2798C379.735 64.6548 379.836 64.1352 380.037 63.7209C380.238 63.3042 380.506 62.9929 380.84 62.7869C381.176 62.5786 381.544 62.4744 381.944 62.4744C382.249 62.4744 382.504 62.5265 382.708 62.6307C382.914 62.7325 383.079 62.8603 383.205 63.0142C383.333 63.1657 383.43 63.3149 383.496 63.4616H383.542V60.7273H385.051V68H383.56V67.1264H383.496C383.425 67.2779 383.324 67.4283 383.194 67.5774C383.066 67.7242 382.899 67.8461 382.693 67.9432C382.49 68.0402 382.241 68.0888 381.948 68.0888ZM382.427 66.8849C382.671 66.8849 382.877 66.8187 383.045 66.6861C383.215 66.5511 383.346 66.3629 383.436 66.1214C383.528 65.88 383.574 65.5971 383.574 65.2727C383.574 64.9484 383.529 64.6667 383.439 64.4276C383.349 64.1884 383.219 64.0038 383.048 63.8736C382.878 63.7434 382.671 63.6783 382.427 63.6783C382.178 63.6783 381.969 63.7457 381.798 63.8807C381.628 64.0156 381.499 64.2027 381.411 64.4418C381.324 64.6809 381.28 64.9579 381.28 65.2727C381.28 65.59 381.324 65.8705 381.411 66.1143C381.501 66.3558 381.63 66.5452 381.798 66.6825C381.969 66.8175 382.178 66.8849 382.427 66.8849ZM387.229 70.0455C387.037 70.0455 386.857 70.0301 386.689 69.9993C386.524 69.9709 386.386 69.9342 386.277 69.8892L386.618 68.7599C386.796 68.8144 386.956 68.844 387.098 68.8487C387.242 68.8535 387.366 68.8203 387.471 68.7493C387.577 68.6783 387.663 68.5575 387.73 68.3871L387.819 68.1562L385.862 62.5455H387.453L388.582 66.5511H388.639L389.779 62.5455H391.38L389.26 68.5895C389.158 68.883 389.02 69.1387 388.845 69.3565C388.672 69.5767 388.453 69.746 388.188 69.8643C387.923 69.9851 387.603 70.0455 387.229 70.0455ZM314.136 80V72.7273H315.674V78.7322H318.792V80H314.136ZM321.337 80.103C320.989 80.103 320.679 80.0426 320.406 79.9219C320.134 79.7988 319.919 79.6177 319.76 79.3786C319.604 79.1371 319.526 78.8364 319.526 78.4766C319.526 78.1735 319.581 77.919 319.693 77.7131C319.804 77.5071 319.955 77.3414 320.147 77.2159C320.339 77.0904 320.557 76.9957 320.801 76.9318C321.047 76.8679 321.305 76.8229 321.575 76.7969C321.892 76.7637 322.148 76.733 322.342 76.7045C322.536 76.6738 322.677 76.6288 322.764 76.5696C322.852 76.5104 322.896 76.4228 322.896 76.3068V76.2855C322.896 76.0606 322.825 75.8866 322.683 75.7635C322.543 75.6404 322.344 75.5788 322.086 75.5788C321.814 75.5788 321.597 75.6392 321.436 75.7599C321.275 75.8783 321.169 76.0275 321.117 76.2074L319.718 76.0938C319.789 75.7623 319.928 75.4759 320.137 75.2344C320.345 74.9905 320.614 74.8035 320.943 74.6733C321.274 74.5407 321.658 74.4744 322.093 74.4744C322.396 74.4744 322.686 74.5099 322.963 74.581C323.243 74.652 323.49 74.7621 323.705 74.9112C323.923 75.0604 324.095 75.2521 324.22 75.4865C324.346 75.7185 324.409 75.9967 324.409 76.321V80H322.974V79.2436H322.931C322.844 79.4141 322.727 79.5644 322.58 79.6946C322.433 79.8224 322.257 79.9231 322.051 79.9964C321.845 80.0675 321.607 80.103 321.337 80.103ZM321.77 79.0589C321.993 79.0589 322.189 79.0152 322.36 78.9276C322.53 78.8376 322.664 78.7169 322.761 78.5653C322.858 78.4138 322.906 78.2422 322.906 78.0504V77.4716C322.859 77.5024 322.794 77.5308 322.711 77.5568C322.631 77.5805 322.539 77.603 322.438 77.6243C322.336 77.6432 322.234 77.661 322.132 77.6776C322.03 77.6918 321.938 77.7048 321.855 77.7166C321.678 77.7427 321.523 77.7841 321.39 77.8409C321.258 77.8977 321.155 77.9747 321.081 78.0717C321.008 78.1664 320.971 78.2848 320.971 78.4268C320.971 78.6328 321.046 78.7902 321.195 78.8991C321.346 79.0057 321.538 79.0589 321.77 79.0589ZM327.095 76.8466V80H325.582V74.5455H327.024V75.5078H327.088C327.209 75.1906 327.411 74.9396 327.695 74.755C327.979 74.5679 328.324 74.4744 328.729 74.4744C329.107 74.4744 329.438 74.5573 329.719 74.723C330.001 74.8887 330.22 75.1255 330.376 75.4332C330.532 75.7386 330.611 76.1032 330.611 76.527V80H329.098V76.7969C329.1 76.4631 329.015 76.2027 328.842 76.0156C328.669 75.8262 328.431 75.7315 328.128 75.7315C327.925 75.7315 327.745 75.7753 327.589 75.8629C327.435 75.9505 327.314 76.0784 327.226 76.2464C327.141 76.4122 327.097 76.6122 327.095 76.8466ZM334.26 82.1591C333.77 82.1591 333.35 82.0916 333 81.9567C332.652 81.8241 332.375 81.643 332.169 81.4134C331.963 81.1837 331.829 80.9257 331.767 80.6392L333.167 80.451C333.209 80.5599 333.277 80.6617 333.369 80.7564C333.461 80.8511 333.583 80.9268 333.735 80.9837C333.889 81.0429 334.076 81.0724 334.296 81.0724C334.625 81.0724 334.896 80.992 335.109 80.831C335.324 80.6723 335.432 80.406 335.432 80.032V79.0341H335.368C335.302 79.1856 335.203 79.3288 335.07 79.4638C334.937 79.5987 334.767 79.7088 334.559 79.794C334.35 79.8793 334.102 79.9219 333.813 79.9219C333.403 79.9219 333.03 79.8272 332.694 79.6378C332.36 79.446 332.094 79.1536 331.895 78.7607C331.699 78.3653 331.6 77.8658 331.6 77.2621C331.6 76.6442 331.701 76.1281 331.902 75.7138C332.104 75.2995 332.371 74.9893 332.705 74.7834C333.041 74.5774 333.409 74.4744 333.809 74.4744C334.115 74.4744 334.37 74.5265 334.576 74.6307C334.782 74.7325 334.948 74.8603 335.074 75.0142C335.201 75.1657 335.3 75.3149 335.368 75.4616H335.425V74.5455H336.927V80.0533C336.927 80.5173 336.814 80.9055 336.586 81.218C336.359 81.5305 336.044 81.7649 335.642 81.9212C335.242 82.0798 334.781 82.1591 334.26 82.1591ZM334.292 78.7855C334.536 78.7855 334.742 78.7251 334.91 78.6044C335.081 78.4813 335.211 78.3061 335.301 78.0788C335.393 77.8492 335.439 77.5746 335.439 77.255C335.439 76.9354 335.394 76.6584 335.304 76.424C335.214 76.1873 335.084 76.0038 334.914 75.8736C334.743 75.7434 334.536 75.6783 334.292 75.6783C334.044 75.6783 333.834 75.7457 333.664 75.8807C333.493 76.0133 333.364 76.1979 333.277 76.4347C333.189 76.6714 333.145 76.9448 333.145 77.255C333.145 77.5698 333.189 77.8421 333.277 78.0717C333.367 78.299 333.496 78.4754 333.664 78.6009C333.834 78.724 334.044 78.7855 334.292 78.7855ZM341.629 77.6776V74.5455H343.142V80H341.689V79.0092H341.632C341.509 79.3288 341.305 79.5857 341.018 79.7798C340.734 79.974 340.387 80.071 339.978 80.071C339.613 80.071 339.292 79.9882 339.015 79.8224C338.738 79.6567 338.522 79.4212 338.365 79.1158C338.212 78.8104 338.133 78.4446 338.131 78.0185V74.5455H339.644V77.7486C339.646 78.0705 339.733 78.325 339.903 78.5121C340.074 78.6991 340.302 78.7926 340.588 78.7926C340.771 78.7926 340.941 78.7512 341.1 78.6683C341.258 78.5831 341.386 78.4576 341.483 78.2919C341.583 78.1262 341.631 77.9214 341.629 77.6776ZM345.907 80.103C345.559 80.103 345.249 80.0426 344.977 79.9219C344.704 79.7988 344.489 79.6177 344.33 79.3786C344.174 79.1371 344.096 78.8364 344.096 78.4766C344.096 78.1735 344.152 77.919 344.263 77.7131C344.374 77.5071 344.526 77.3414 344.718 77.2159C344.909 77.0904 345.127 76.9957 345.371 76.9318C345.617 76.8679 345.875 76.8229 346.145 76.7969C346.462 76.7637 346.718 76.733 346.912 76.7045C347.106 76.6738 347.247 76.6288 347.335 76.5696C347.422 76.5104 347.466 76.4228 347.466 76.3068V76.2855C347.466 76.0606 347.395 75.8866 347.253 75.7635C347.113 75.6404 346.914 75.5788 346.656 75.5788C346.384 75.5788 346.168 75.6392 346.007 75.7599C345.846 75.8783 345.739 76.0275 345.687 76.2074L344.288 76.0938C344.359 75.7623 344.499 75.4759 344.707 75.2344C344.915 74.9905 345.184 74.8035 345.513 74.6733C345.844 74.5407 346.228 74.4744 346.664 74.4744C346.967 74.4744 347.257 74.5099 347.534 74.581C347.813 74.652 348.06 74.7621 348.276 74.9112C348.494 75.0604 348.665 75.2521 348.791 75.4865C348.916 75.7185 348.979 75.9967 348.979 76.321V80H347.544V79.2436H347.502C347.414 79.4141 347.297 79.5644 347.15 79.6946C347.003 79.8224 346.827 79.9231 346.621 79.9964C346.415 80.0675 346.177 80.103 345.907 80.103ZM346.34 79.0589C346.563 79.0589 346.759 79.0152 346.93 78.9276C347.1 78.8376 347.234 78.7169 347.331 78.5653C347.428 78.4138 347.477 78.2422 347.477 78.0504V77.4716C347.429 77.5024 347.364 77.5308 347.281 77.5568C347.201 77.5805 347.11 77.603 347.008 77.6243C346.906 77.6432 346.804 77.661 346.703 77.6776C346.601 77.6918 346.508 77.7048 346.426 77.7166C346.248 77.7427 346.093 77.7841 345.96 77.8409C345.828 77.8977 345.725 77.9747 345.651 78.0717C345.578 78.1664 345.541 78.2848 345.541 78.4268C345.541 78.6328 345.616 78.7902 345.765 78.8991C345.917 79.0057 346.108 79.0589 346.34 79.0589ZM352.61 82.1591C352.12 82.1591 351.7 82.0916 351.349 81.9567C351.001 81.8241 350.724 81.643 350.518 81.4134C350.312 81.1837 350.179 80.9257 350.117 80.6392L351.516 80.451C351.559 80.5599 351.626 80.6617 351.719 80.7564C351.811 80.8511 351.933 80.9268 352.084 80.9837C352.238 81.0429 352.425 81.0724 352.645 81.0724C352.974 81.0724 353.246 80.992 353.459 80.831C353.674 80.6723 353.782 80.406 353.782 80.032V79.0341H353.718C353.652 79.1856 353.552 79.3288 353.42 79.4638C353.287 79.5987 353.117 79.7088 352.908 79.794C352.7 79.8793 352.451 79.9219 352.162 79.9219C351.753 79.9219 351.38 79.8272 351.044 79.6378C350.71 79.446 350.444 79.1536 350.245 78.7607C350.048 78.3653 349.95 77.8658 349.95 77.2621C349.95 76.6442 350.051 76.1281 350.252 75.7138C350.453 75.2995 350.721 74.9893 351.055 74.7834C351.391 74.5774 351.759 74.4744 352.159 74.4744C352.464 74.4744 352.72 74.5265 352.926 74.6307C353.132 74.7325 353.298 74.8603 353.423 75.0142C353.551 75.1657 353.649 75.3149 353.718 75.4616H353.775V74.5455H355.277V80.0533C355.277 80.5173 355.163 80.9055 354.936 81.218C354.709 81.5305 354.394 81.7649 353.991 81.9212C353.591 82.0798 353.131 82.1591 352.61 82.1591ZM352.642 78.7855C352.886 78.7855 353.092 78.7251 353.26 78.6044C353.43 78.4813 353.56 78.3061 353.65 78.0788C353.743 77.8492 353.789 77.5746 353.789 77.255C353.789 76.9354 353.744 76.6584 353.654 76.424C353.564 76.1873 353.434 76.0038 353.263 75.8736C353.093 75.7434 352.886 75.6783 352.642 75.6783C352.393 75.6783 352.184 75.7457 352.013 75.8807C351.843 76.0133 351.714 76.1979 351.626 76.4347C351.539 76.6714 351.495 76.9448 351.495 77.255C351.495 77.5698 351.539 77.8421 351.626 78.0717C351.716 78.299 351.845 78.4754 352.013 78.6009C352.184 78.724 352.393 78.7855 352.642 78.7855ZM358.966 80.1065C358.405 80.1065 357.922 79.9929 357.518 79.7656C357.115 79.536 356.805 79.2116 356.587 78.7926C356.369 78.3712 356.26 77.8729 356.26 77.2976C356.26 76.7365 356.369 76.2441 356.587 75.8203C356.805 75.3965 357.112 75.0663 357.507 74.8295C357.905 74.5928 358.371 74.4744 358.906 74.4744C359.266 74.4744 359.601 74.5324 359.911 74.6484C360.224 74.7621 360.496 74.9337 360.728 75.1634C360.962 75.393 361.144 75.6818 361.275 76.0298C361.405 76.3755 361.47 76.7803 361.47 77.2443V77.6598H356.864V76.7223H360.046C360.046 76.5045 359.999 76.3116 359.904 76.1435C359.809 75.9754 359.678 75.844 359.51 75.7493C359.344 75.6522 359.151 75.6037 358.931 75.6037C358.701 75.6037 358.498 75.657 358.32 75.7635C358.145 75.8677 358.008 76.0085 357.908 76.1861C357.809 76.3613 357.758 76.5566 357.756 76.772V77.6634C357.756 77.9332 357.805 78.1664 357.905 78.3629C358.006 78.5594 358.15 78.7109 358.334 78.8175C358.519 78.924 358.738 78.9773 358.991 78.9773C359.159 78.9773 359.313 78.9536 359.453 78.9062C359.593 78.8589 359.712 78.7879 359.812 78.6932C359.911 78.5985 359.987 78.4825 360.039 78.3452L361.438 78.4375C361.367 78.7737 361.221 79.0672 361.001 79.3182C360.783 79.5668 360.502 79.7609 360.156 79.9006C359.813 80.0379 359.416 80.1065 358.966 80.1065ZM365.848 80L364.363 74.5455H365.894L366.739 78.2102H366.789L367.669 74.5455H369.172L370.066 78.1889H370.113L370.944 74.5455H372.471L370.99 80H369.388L368.451 76.5696H368.383L367.446 80H365.848ZM373.278 80V74.5455H374.79V80H373.278ZM374.037 73.8423C373.813 73.8423 373.62 73.7678 373.459 73.6186C373.3 73.4671 373.221 73.286 373.221 73.0753C373.221 72.867 373.3 72.6882 373.459 72.5391C373.62 72.3875 373.813 72.3118 374.037 72.3118C374.262 72.3118 374.454 72.3875 374.613 72.5391C374.774 72.6882 374.854 72.867 374.854 73.0753C374.854 73.286 374.774 73.4671 374.613 73.6186C374.454 73.7678 374.262 73.8423 374.037 73.8423ZM377.515 72.7273V80H376.002V72.7273H377.515ZM380.24 72.7273V80H378.727V72.7273H380.24ZM383.794 80V72.7273H385.307V75.4616H385.353C385.419 75.3149 385.515 75.1657 385.641 75.0142C385.769 74.8603 385.934 74.7325 386.138 74.6307C386.344 74.5265 386.6 74.4744 386.905 74.4744C387.303 74.4744 387.67 74.5786 388.006 74.7869C388.342 74.9929 388.611 75.3042 388.812 75.7209C389.013 76.1352 389.114 76.6548 389.114 77.2798C389.114 77.8883 389.016 78.402 388.819 78.821C388.625 79.2377 388.36 79.5537 388.024 79.7692C387.69 79.9822 387.316 80.0888 386.901 80.0888C386.608 80.0888 386.358 80.0402 386.152 79.9432C385.949 79.8461 385.782 79.7242 385.651 79.5774C385.521 79.4283 385.422 79.2779 385.353 79.1264H385.286V80H383.794ZM385.275 77.2727C385.275 77.5971 385.32 77.88 385.41 78.1214C385.5 78.3629 385.63 78.5511 385.801 78.6861C385.971 78.8187 386.178 78.8849 386.422 78.8849C386.668 78.8849 386.877 78.8175 387.047 78.6825C387.218 78.5452 387.347 78.3558 387.434 78.1143C387.524 77.8705 387.569 77.59 387.569 77.2727C387.569 76.9579 387.525 76.6809 387.438 76.4418C387.35 76.2027 387.221 76.0156 387.051 75.8807C386.88 75.7457 386.671 75.6783 386.422 75.6783C386.176 75.6783 385.968 75.7434 385.797 75.8736C385.629 76.0038 385.5 76.1884 385.41 76.4276C385.32 76.6667 385.275 76.9484 385.275 77.2727ZM392.609 80.1065C392.048 80.1065 391.565 79.9929 391.16 79.7656C390.758 79.536 390.448 79.2116 390.23 78.7926C390.012 78.3712 389.903 77.8729 389.903 77.2976C389.903 76.7365 390.012 76.2441 390.23 75.8203C390.448 75.3965 390.754 75.0663 391.15 74.8295C391.547 74.5928 392.014 74.4744 392.549 74.4744C392.908 74.4744 393.243 74.5324 393.554 74.6484C393.866 74.7621 394.138 74.9337 394.37 75.1634C394.605 75.393 394.787 75.6818 394.917 76.0298C395.047 76.3755 395.113 76.7803 395.113 77.2443V77.6598H390.507V76.7223H393.689C393.689 76.5045 393.641 76.3116 393.547 76.1435C393.452 75.9754 393.32 75.844 393.152 75.7493C392.987 75.6522 392.794 75.6037 392.574 75.6037C392.344 75.6037 392.14 75.657 391.963 75.7635C391.788 75.8677 391.65 76.0085 391.551 76.1861C391.451 76.3613 391.4 76.5566 391.398 76.772V77.6634C391.398 77.9332 391.448 78.1664 391.547 78.3629C391.649 78.5594 391.792 78.7109 391.977 78.8175C392.162 78.924 392.381 78.9773 392.634 78.9773C392.802 78.9773 392.956 78.9536 393.096 78.9062C393.235 78.8589 393.355 78.7879 393.454 78.6932C393.554 78.5985 393.629 78.4825 393.681 78.3452L395.081 78.4375C395.01 78.7737 394.864 79.0672 394.644 79.3182C394.426 79.5668 394.144 79.7609 393.799 79.9006C393.455 80.0379 393.059 80.1065 392.609 80.1065Z" fill="#476CD2"/>
<g filter="url(#filter2_d_2_25733)">
<rect x="531" y="190" width="118" height="82" rx="7" fill="white"/>
</g>
<path d="M576 201V223.5L581 218.5H598C598.552 218.5 599 218.052 599 217.5V201C599 200.448 598.552 200 598 200H577C576.448 200 576 200.448 576 201Z" stroke="#476CD2" stroke-width="1.4" stroke-linecap="round" stroke-linejoin="round"/>
<path d="M581 218.5V223H598.5L603.5 228V206C603.5 205.448 603.052 205 602.5 205H599" stroke="#476CD2" stroke-width="1.4" stroke-linecap="round" stroke-linejoin="round"/>
<path d="M583 207H592" stroke="#476CD2" stroke-width="1.4" stroke-linecap="round" stroke-linejoin="round"/>
<path d="M583 212H592" stroke="#476CD2" stroke-width="1.4" stroke-linecap="round" stroke-linejoin="round"/>
<path d="M551.962 243V235.727H553.5V238.728H556.621V235.727H558.155V243H556.621V239.996H553.5V243H551.962ZM561.859 243.107C561.308 243.107 560.831 242.989 560.428 242.755C560.028 242.518 559.719 242.189 559.501 241.768C559.283 241.344 559.175 240.853 559.175 240.294C559.175 239.731 559.283 239.238 559.501 238.817C559.719 238.393 560.028 238.064 560.428 237.83C560.831 237.593 561.308 237.474 561.859 237.474C562.411 237.474 562.887 237.593 563.287 237.83C563.689 238.064 563.999 238.393 564.217 238.817C564.435 239.238 564.544 239.731 564.544 240.294C564.544 240.853 564.435 241.344 564.217 241.768C563.999 242.189 563.689 242.518 563.287 242.755C562.887 242.989 562.411 243.107 561.859 243.107ZM561.866 241.935C562.117 241.935 562.327 241.864 562.495 241.722C562.663 241.577 562.79 241.381 562.875 241.132C562.962 240.884 563.006 240.601 563.006 240.283C563.006 239.966 562.962 239.683 562.875 239.435C562.79 239.186 562.663 238.99 562.495 238.845C562.327 238.701 562.117 238.629 561.866 238.629C561.613 238.629 561.4 238.701 561.227 238.845C561.057 238.99 560.928 239.186 560.84 239.435C560.755 239.683 560.712 239.966 560.712 240.283C560.712 240.601 560.755 240.884 560.84 241.132C560.928 241.381 561.057 241.577 561.227 241.722C561.4 241.864 561.613 241.935 561.866 241.935ZM566.467 243L564.982 237.545H566.513L567.358 241.21H567.408L568.289 237.545H569.791L570.686 241.189H570.732L571.563 237.545H573.09L571.609 243H570.007L569.07 239.57H569.002L568.065 243H566.467ZM575.813 235.727H577.536L579.194 238.859H579.265L580.923 235.727H582.646L579.993 240.429V243H578.466V240.429L575.813 235.727ZM584.779 243.107C584.228 243.107 583.75 242.989 583.348 242.755C582.948 242.518 582.639 242.189 582.421 241.768C582.203 241.344 582.094 240.853 582.094 240.294C582.094 239.731 582.203 239.238 582.421 238.817C582.639 238.393 582.948 238.064 583.348 237.83C583.75 237.593 584.228 237.474 584.779 237.474C585.331 237.474 585.807 237.593 586.207 237.83C586.609 238.064 586.919 238.393 587.137 238.817C587.355 239.238 587.464 239.731 587.464 240.294C587.464 240.853 587.355 241.344 587.137 241.768C586.919 242.189 586.609 242.518 586.207 242.755C585.807 242.989 585.331 243.107 584.779 243.107ZM584.786 241.935C585.037 241.935 585.247 241.864 585.415 241.722C585.583 241.577 585.71 241.381 585.795 241.132C585.882 240.884 585.926 240.601 585.926 240.283C585.926 239.966 585.882 239.683 585.795 239.435C585.71 239.186 585.583 238.99 585.415 238.845C585.247 238.701 585.037 238.629 584.786 238.629C584.533 238.629 584.32 238.701 584.147 238.845C583.977 238.99 583.848 239.186 583.76 239.435C583.675 239.683 583.632 239.966 583.632 240.283C583.632 240.601 583.675 240.884 583.76 241.132C583.848 241.381 583.977 241.577 584.147 241.722C584.32 241.864 584.533 241.935 584.786 241.935ZM591.945 240.678V237.545H593.458V243H592.006V242.009H591.949C591.826 242.329 591.621 242.586 591.335 242.78C591.05 242.974 590.704 243.071 590.294 243.071C589.929 243.071 589.609 242.988 589.332 242.822C589.055 242.657 588.838 242.421 588.682 242.116C588.528 241.81 588.45 241.445 588.447 241.018V237.545H589.96V240.749C589.963 241.071 590.049 241.325 590.219 241.512C590.39 241.699 590.618 241.793 590.905 241.793C591.087 241.793 591.258 241.751 591.416 241.668C591.575 241.583 591.703 241.458 591.8 241.292C591.899 241.126 591.948 240.921 591.945 240.678ZM601.521 239.101L600.136 239.186C600.112 239.068 600.061 238.961 599.983 238.866C599.905 238.769 599.802 238.692 599.674 238.636C599.549 238.576 599.399 238.547 599.223 238.547C598.989 238.547 598.791 238.597 598.63 238.696C598.469 238.793 598.389 238.923 598.389 239.087C598.389 239.217 598.441 239.327 598.545 239.417C598.649 239.507 598.828 239.579 599.081 239.634L600.069 239.832C600.599 239.941 600.994 240.116 601.255 240.358C601.515 240.599 601.645 240.917 601.645 241.31C601.645 241.667 601.54 241.981 601.329 242.251C601.121 242.521 600.834 242.731 600.47 242.883C600.108 243.032 599.69 243.107 599.216 243.107C598.494 243.107 597.919 242.956 597.49 242.656C597.064 242.353 596.815 241.941 596.741 241.42L598.229 241.342C598.274 241.562 598.383 241.73 598.556 241.846C598.729 241.96 598.95 242.016 599.22 242.016C599.485 242.016 599.698 241.965 599.859 241.864C600.022 241.759 600.105 241.626 600.108 241.462C600.105 241.325 600.047 241.213 599.934 241.125C599.82 241.035 599.645 240.966 599.408 240.919L598.463 240.731C597.931 240.624 597.534 240.44 597.274 240.177C597.016 239.914 596.887 239.579 596.887 239.172C596.887 238.821 596.981 238.52 597.171 238.266C597.363 238.013 597.631 237.818 597.977 237.68C598.325 237.543 598.732 237.474 599.199 237.474C599.887 237.474 600.43 237.62 600.825 237.911C601.223 238.202 601.455 238.599 601.521 239.101ZM604.111 239.847V243H602.598V235.727H604.068V238.508H604.132C604.255 238.186 604.454 237.934 604.729 237.751C605.003 237.567 605.348 237.474 605.762 237.474C606.141 237.474 606.471 237.557 606.753 237.723C607.037 237.886 607.257 238.122 607.413 238.43C607.572 238.735 607.65 239.101 607.648 239.527V243H606.135V239.797C606.137 239.461 606.052 239.199 605.879 239.012C605.709 238.825 605.47 238.732 605.162 238.732C604.956 238.732 604.773 238.775 604.615 238.863C604.459 238.951 604.336 239.078 604.246 239.246C604.158 239.412 604.113 239.612 604.111 239.847ZM611.303 243.107C610.751 243.107 610.274 242.989 609.871 242.755C609.471 242.518 609.162 242.189 608.945 241.768C608.727 241.344 608.618 240.853 608.618 240.294C608.618 239.731 608.727 239.238 608.945 238.817C609.162 238.393 609.471 238.064 609.871 237.83C610.274 237.593 610.751 237.474 611.303 237.474C611.854 237.474 612.33 237.593 612.73 237.83C613.133 238.064 613.443 238.393 613.661 238.817C613.878 239.238 613.987 239.731 613.987 240.294C613.987 240.853 613.878 241.344 613.661 241.768C613.443 242.189 613.133 242.518 612.73 242.755C612.33 242.989 611.854 243.107 611.303 243.107ZM611.31 241.935C611.561 241.935 611.77 241.864 611.938 241.722C612.106 241.577 612.233 241.381 612.318 241.132C612.406 240.884 612.45 240.601 612.45 240.283C612.45 239.966 612.406 239.683 612.318 239.435C612.233 239.186 612.106 238.99 611.938 238.845C611.77 238.701 611.561 238.629 611.31 238.629C611.056 238.629 610.843 238.701 610.67 238.845C610.5 238.99 610.371 239.186 610.283 239.435C610.198 239.683 610.156 239.966 610.156 240.283C610.156 240.601 610.198 240.884 610.283 241.132C610.371 241.381 610.5 241.577 610.67 241.722C610.843 241.864 611.056 241.935 611.31 241.935ZM618.469 240.678V237.545H619.982V243H618.529V242.009H618.472C618.349 242.329 618.144 242.586 617.858 242.78C617.574 242.974 617.227 243.071 616.817 243.071C616.453 243.071 616.132 242.988 615.855 242.822C615.578 242.657 615.362 242.421 615.205 242.116C615.051 241.81 614.973 241.445 614.971 241.018V237.545H616.484V240.749C616.486 241.071 616.572 241.325 616.743 241.512C616.913 241.699 617.142 241.793 617.428 241.793C617.611 241.793 617.781 241.751 617.94 241.668C618.098 241.583 618.226 241.458 618.323 241.292C618.423 241.126 618.471 240.921 618.469 240.678ZM622.704 235.727V243H621.192V235.727H622.704ZM625.926 243.089C625.512 243.089 625.137 242.982 624.8 242.769C624.467 242.554 624.201 242.238 624.005 241.821C623.811 241.402 623.714 240.888 623.714 240.28C623.714 239.655 623.814 239.135 624.016 238.721C624.217 238.304 624.484 237.993 624.818 237.787C625.154 237.579 625.522 237.474 625.923 237.474C626.228 237.474 626.482 237.527 626.686 237.631C626.892 237.732 627.058 237.86 627.183 238.014C627.311 238.166 627.408 238.315 627.474 238.462H627.521V235.727H629.03V243H627.538V242.126H627.474C627.403 242.278 627.303 242.428 627.173 242.577C627.045 242.724 626.878 242.846 626.672 242.943C626.468 243.04 626.22 243.089 625.926 243.089ZM626.406 241.885C626.649 241.885 626.855 241.819 627.023 241.686C627.194 241.551 627.324 241.363 627.414 241.121C627.506 240.88 627.553 240.597 627.553 240.273C627.553 239.948 627.508 239.667 627.418 239.428C627.328 239.188 627.197 239.004 627.027 238.874C626.857 238.743 626.649 238.678 626.406 238.678C626.157 238.678 625.947 238.746 625.777 238.881C625.607 239.016 625.478 239.203 625.39 239.442C625.302 239.681 625.259 239.958 625.259 240.273C625.259 240.59 625.302 240.871 625.39 241.114C625.48 241.356 625.609 241.545 625.777 241.683C625.947 241.817 626.157 241.885 626.406 241.885ZM549.911 255V247.727H552.781C553.332 247.727 553.802 247.833 554.191 248.043C554.579 248.252 554.875 248.542 555.078 248.913C555.284 249.283 555.387 249.709 555.387 250.192C555.387 250.675 555.283 251.101 555.075 251.47C554.866 251.839 554.565 252.127 554.169 252.333C553.776 252.539 553.3 252.642 552.742 252.642H550.913V251.41H552.493C552.789 251.41 553.033 251.359 553.225 251.257C553.419 251.153 553.563 251.01 553.658 250.827C553.755 250.643 553.803 250.431 553.803 250.192C553.803 249.95 553.755 249.74 553.658 249.56C553.563 249.377 553.419 249.237 553.225 249.137C553.03 249.035 552.784 248.984 552.486 248.984H551.449V255H549.911ZM556.358 255V249.545H557.824V250.497H557.881C557.98 250.159 558.147 249.903 558.382 249.73C558.616 249.555 558.886 249.467 559.191 249.467C559.267 249.467 559.349 249.472 559.436 249.482C559.524 249.491 559.601 249.504 559.667 249.521V250.863C559.596 250.842 559.498 250.823 559.373 250.806C559.247 250.79 559.132 250.781 559.028 250.781C558.806 250.781 558.607 250.83 558.431 250.927C558.259 251.022 558.121 251.154 558.02 251.325C557.92 251.495 557.87 251.692 557.87 251.914V255H556.358ZM562.681 255.107C562.12 255.107 561.637 254.993 561.232 254.766C560.83 254.536 560.52 254.212 560.302 253.793C560.084 253.371 559.975 252.873 559.975 252.298C559.975 251.737 560.084 251.244 560.302 250.82C560.52 250.397 560.826 250.066 561.222 249.83C561.619 249.593 562.086 249.474 562.621 249.474C562.981 249.474 563.316 249.532 563.626 249.648C563.938 249.762 564.211 249.934 564.443 250.163C564.677 250.393 564.859 250.682 564.99 251.03C565.12 251.375 565.185 251.78 565.185 252.244V252.66H560.579V251.722H563.761C563.761 251.504 563.713 251.312 563.619 251.143C563.524 250.975 563.393 250.844 563.225 250.749C563.059 250.652 562.866 250.604 562.646 250.604C562.416 250.604 562.213 250.657 562.035 250.763C561.86 250.868 561.722 251.009 561.623 251.186C561.524 251.361 561.473 251.557 561.47 251.772V252.663C561.47 252.933 561.52 253.166 561.619 253.363C561.721 253.559 561.865 253.711 562.049 253.817C562.234 253.924 562.453 253.977 562.706 253.977C562.874 253.977 563.028 253.954 563.168 253.906C563.307 253.859 563.427 253.788 563.526 253.693C563.626 253.598 563.702 253.482 563.754 253.345L565.153 253.438C565.082 253.774 564.936 254.067 564.716 254.318C564.498 254.567 564.217 254.761 563.871 254.901C563.528 255.038 563.131 255.107 562.681 255.107ZM570.71 251.101L569.325 251.186C569.302 251.068 569.251 250.961 569.173 250.866C569.095 250.769 568.992 250.692 568.864 250.636C568.738 250.576 568.588 250.547 568.413 250.547C568.178 250.547 567.981 250.597 567.82 250.696C567.659 250.793 567.578 250.923 567.578 251.087C567.578 251.217 567.63 251.327 567.735 251.417C567.839 251.507 568.017 251.579 568.271 251.634L569.258 251.832C569.788 251.941 570.184 252.116 570.444 252.358C570.704 252.599 570.835 252.917 570.835 253.31C570.835 253.667 570.729 253.981 570.519 254.251C570.31 254.521 570.024 254.731 569.659 254.883C569.297 255.032 568.879 255.107 568.406 255.107C567.684 255.107 567.108 254.956 566.68 254.656C566.254 254.353 566.004 253.941 565.931 253.42L567.419 253.342C567.463 253.562 567.572 253.73 567.745 253.846C567.918 253.96 568.139 254.016 568.409 254.016C568.674 254.016 568.887 253.965 569.048 253.864C569.212 253.759 569.295 253.626 569.297 253.462C569.295 253.325 569.237 253.213 569.123 253.125C569.009 253.035 568.834 252.966 568.597 252.919L567.653 252.731C567.12 252.624 566.724 252.44 566.463 252.177C566.205 251.914 566.076 251.579 566.076 251.172C566.076 250.821 566.171 250.52 566.36 250.266C566.552 250.013 566.821 249.818 567.166 249.68C567.514 249.543 567.922 249.474 568.388 249.474C569.077 249.474 569.619 249.62 570.014 249.911C570.412 250.202 570.644 250.599 570.71 251.101ZM574.273 255.107C573.712 255.107 573.229 254.993 572.824 254.766C572.422 254.536 572.112 254.212 571.894 253.793C571.676 253.371 571.567 252.873 571.567 252.298C571.567 251.737 571.676 251.244 571.894 250.82C572.112 250.397 572.418 250.066 572.814 249.83C573.211 249.593 573.678 249.474 574.213 249.474C574.573 249.474 574.908 249.532 575.218 249.648C575.53 249.762 575.802 249.934 576.034 250.163C576.269 250.393 576.451 250.682 576.581 251.03C576.712 251.375 576.777 251.78 576.777 252.244V252.66H572.171V251.722H575.353C575.353 251.504 575.305 251.312 575.211 251.143C575.116 250.975 574.984 250.844 574.816 250.749C574.651 250.652 574.458 250.604 574.238 250.604C574.008 250.604 573.804 250.657 573.627 250.763C573.452 250.868 573.314 251.009 573.215 251.186C573.115 251.361 573.065 251.557 573.062 251.772V252.663C573.062 252.933 573.112 253.166 573.211 253.363C573.313 253.559 573.456 253.711 573.641 253.817C573.826 253.924 574.045 253.977 574.298 253.977C574.466 253.977 574.62 253.954 574.76 253.906C574.899 253.859 575.019 253.788 575.118 253.693C575.218 253.598 575.293 253.482 575.346 253.345L576.745 253.438C576.674 253.774 576.528 254.067 576.308 254.318C576.09 254.567 575.808 254.761 575.463 254.901C575.119 255.038 574.723 255.107 574.273 255.107ZM579.277 251.847V255H577.764V249.545H579.206V250.508H579.27C579.39 250.191 579.593 249.94 579.877 249.755C580.161 249.568 580.505 249.474 580.91 249.474C581.289 249.474 581.619 249.557 581.901 249.723C582.183 249.889 582.402 250.125 582.558 250.433C582.714 250.739 582.792 251.103 582.792 251.527V255H581.279V251.797C581.282 251.463 581.197 251.203 581.024 251.016C580.851 250.826 580.613 250.732 580.31 250.732C580.106 250.732 579.926 250.775 579.77 250.863C579.616 250.951 579.496 251.078 579.408 251.246C579.323 251.412 579.279 251.612 579.277 251.847ZM586.886 249.545V250.682H583.601V249.545H586.886ZM584.347 248.239H585.86V253.324C585.86 253.464 585.881 253.572 585.923 253.651C585.966 253.726 586.025 253.78 586.101 253.81C586.179 253.841 586.269 253.857 586.371 253.857C586.442 253.857 586.513 253.851 586.584 253.839C586.655 253.825 586.709 253.814 586.747 253.807L586.985 254.933C586.91 254.956 586.803 254.983 586.666 255.014C586.528 255.047 586.361 255.067 586.165 255.075C585.8 255.089 585.481 255.04 585.206 254.929C584.934 254.818 584.722 254.645 584.57 254.411C584.419 254.176 584.344 253.88 584.347 253.523V248.239ZM589.788 247.727H591.51L593.169 250.859H593.24L594.898 247.727H596.62L593.968 252.429V255H592.441V252.429L589.788 247.727ZM598.754 255.107C598.202 255.107 597.725 254.989 597.323 254.755C596.923 254.518 596.614 254.189 596.396 253.768C596.178 253.344 596.069 252.853 596.069 252.294C596.069 251.731 596.178 251.238 596.396 250.817C596.614 250.393 596.923 250.064 597.323 249.83C597.725 249.593 598.202 249.474 598.754 249.474C599.305 249.474 599.781 249.593 600.181 249.83C600.584 250.064 600.894 250.393 601.112 250.817C601.329 251.238 601.438 251.731 601.438 252.294C601.438 252.853 601.329 253.344 601.112 253.768C600.894 254.189 600.584 254.518 600.181 254.755C599.781 254.989 599.305 255.107 598.754 255.107ZM598.761 253.935C599.012 253.935 599.221 253.864 599.389 253.722C599.557 253.577 599.684 253.381 599.769 253.132C599.857 252.884 599.901 252.601 599.901 252.283C599.901 251.966 599.857 251.683 599.769 251.435C599.684 251.186 599.557 250.99 599.389 250.845C599.221 250.701 599.012 250.629 598.761 250.629C598.508 250.629 598.294 250.701 598.122 250.845C597.951 250.99 597.822 251.186 597.735 251.435C597.649 251.683 597.607 251.966 597.607 252.283C597.607 252.601 597.649 252.884 597.735 253.132C597.822 253.381 597.951 253.577 598.122 253.722C598.294 253.864 598.508 253.935 598.761 253.935ZM605.92 252.678V249.545H607.433V255H605.98V254.009H605.923C605.8 254.329 605.596 254.586 605.309 254.78C605.025 254.974 604.678 255.071 604.269 255.071C603.904 255.071 603.583 254.988 603.306 254.822C603.029 254.657 602.813 254.421 602.656 254.116C602.503 253.81 602.424 253.445 602.422 253.018V249.545H603.935V252.749C603.937 253.071 604.024 253.325 604.194 253.512C604.365 253.699 604.593 253.793 604.879 253.793C605.062 253.793 605.232 253.751 605.391 253.668C605.549 253.583 605.677 253.458 605.774 253.292C605.874 253.126 605.922 252.921 605.92 252.678ZM608.643 255V249.545H610.109V250.497H610.166C610.266 250.159 610.433 249.903 610.667 249.73C610.901 249.555 611.171 249.467 611.477 249.467C611.552 249.467 611.634 249.472 611.722 249.482C611.809 249.491 611.886 249.504 611.952 249.521V250.863C611.881 250.842 611.783 250.823 611.658 250.806C611.532 250.79 611.417 250.781 611.313 250.781C611.091 250.781 610.892 250.83 610.717 250.927C610.544 251.022 610.406 251.154 610.305 251.325C610.205 251.495 610.156 251.692 610.156 251.914V255H608.643ZM615.077 255V247.727H619.893V248.995H616.615V250.728H619.573V251.996H616.615V255H615.077ZM620.899 255V249.545H622.411V255H620.899ZM621.659 248.842C621.434 248.842 621.241 248.768 621.08 248.619C620.921 248.467 620.842 248.286 620.842 248.075C620.842 247.867 620.921 247.688 621.08 247.539C621.241 247.388 621.434 247.312 621.659 247.312C621.883 247.312 622.075 247.388 622.234 247.539C622.395 247.688 622.475 247.867 622.475 248.075C622.475 248.286 622.395 248.467 622.234 248.619C622.075 248.768 621.883 248.842 621.659 248.842ZM625.136 247.727V255H623.623V247.727H625.136ZM628.834 255.107C628.273 255.107 627.79 254.993 627.385 254.766C626.982 254.536 626.672 254.212 626.454 253.793C626.237 253.371 626.128 252.873 626.128 252.298C626.128 251.737 626.237 251.244 626.454 250.82C626.672 250.397 626.979 250.066 627.374 249.83C627.772 249.593 628.238 249.474 628.773 249.474C629.133 249.474 629.468 249.532 629.778 249.648C630.091 249.762 630.363 249.934 630.595 250.163C630.829 250.393 631.012 250.682 631.142 251.03C631.272 251.375 631.337 251.78 631.337 252.244V252.66H626.731V251.722H629.913C629.913 251.504 629.866 251.312 629.771 251.143C629.676 250.975 629.545 250.844 629.377 250.749C629.211 250.652 629.018 250.604 628.798 250.604C628.568 250.604 628.365 250.657 628.187 250.763C628.012 250.868 627.875 251.009 627.775 251.186C627.676 251.361 627.625 251.557 627.623 251.772V252.663C627.623 252.933 627.672 253.166 627.772 253.363C627.874 253.559 628.017 253.711 628.202 253.817C628.386 253.924 628.605 253.977 628.858 253.977C629.027 253.977 629.18 253.954 629.32 253.906C629.46 253.859 629.579 253.788 629.679 253.693C629.778 253.598 629.854 253.482 629.906 253.345L631.305 253.438C631.234 253.774 631.089 254.067 630.868 254.318C630.651 254.567 630.369 254.761 630.023 254.901C629.68 255.038 629.283 255.107 628.834 255.107Z" fill="#476CD2"/>
<path d="M130.801 176.072C168.847 122.64 224.798 84.6295 288.489 68.9468" stroke="#FFDEBD" stroke-width="2" stroke-linecap="round" stroke-dasharray="6 11"/>
<path d="M422.809 69.7806C486.3 86.2528 541.776 124.955 579.155 178.855" stroke="#FFDEBD" stroke-width="2" stroke-linecap="round" stroke-dasharray="6 11"/>
<defs>
<filter id="filter0_d_2_25733" x="0" y="175" width="178" height="142" filterUnits="userSpaceOnUse" color-interpolation-filters="sRGB">
<feFlood flood-opacity="0" result="BackgroundImageFix"/>
<feColorMatrix in="SourceAlpha" type="matrix" values="0 0 0 0 0 0 0 0 0 0 0 0 0 0 0 0 0 0 127 0" result="hardAlpha"/>
<feOffset dx="10" dy="15"/>
<feGaussianBlur stdDeviation="15"/>
<feComposite in2="hardAlpha" operator="out"/>
<feColorMatrix type="matrix" values="0 0 0 0 0 0 0 0 0 0 0 0 0 0 0 0 0 0 0.16 0"/>
<feBlend mode="normal" in2="BackgroundImageFix" result="effect1_dropShadow_2_25733"/>
<feBlend mode="normal" in="SourceGraphic" in2="effect1_dropShadow_2_25733" result="shape"/>
</filter>
<filter id="filter1_d_2_25733" x="275" y="0" width="178" height="142" filterUnits="userSpaceOnUse" color-interpolation-filters="sRGB">
<feFlood flood-opacity="0" result="BackgroundImageFix"/>
<feColorMatrix in="SourceAlpha" type="matrix" values="0 0 0 0 0 0 0 0 0 0 0 0 0 0 0 0 0 0 127 0" result="hardAlpha"/>
<feOffset dx="10" dy="15"/>
<feGaussianBlur stdDeviation="15"/>
<feComposite in2="hardAlpha" operator="out"/>
<feColorMatrix type="matrix" values="0 0 0 0 0 0 0 0 0 0 0 0 0 0 0 0 0 0 0.16 0"/>
<feBlend mode="normal" in2="BackgroundImageFix" result="effect1_dropShadow_2_25733"/>
<feBlend mode="normal" in="SourceGraphic" in2="effect1_dropShadow_2_25733" result="shape"/>
</filter>
<filter id="filter2_d_2_25733" x="511" y="175" width="178" height="142" filterUnits="userSpaceOnUse" color-interpolation-filters="sRGB">
<feFlood flood-opacity="0" result="BackgroundImageFix"/>
<feColorMatrix in="SourceAlpha" type="matrix" values="0 0 0 0 0 0 0 0 0 0 0 0 0 0 0 0 0 0 127 0" result="hardAlpha"/>
<feOffset dx="10" dy="15"/>
<feGaussianBlur stdDeviation="15"/>
<feComposite in2="hardAlpha" operator="out"/>
<feColorMatrix type="matrix" values="0 0 0 0 0 0 0 0 0 0 0 0 0 0 0 0 0 0 0.16 0"/>
<feBlend mode="normal" in2="BackgroundImageFix" result="effect1_dropShadow_2_25733"/>
<feBlend mode="normal" in="SourceGraphic" in2="effect1_dropShadow_2_25733" result="shape"/>
</filter>
<linearGradient id="paint0_linear_2_25733" x1="423.266" y1="337.565" x2="428.946" y2="298.331" gradientUnits="userSpaceOnUse">
<stop offset="0.25" stop-color="white"/>
<stop offset="0.6429" stop-color="#C6C0B9"/>
</linearGradient>
<linearGradient id="paint1_linear_2_25733" x1="498.78" y1="323.468" x2="536.192" y2="297.644" gradientUnits="userSpaceOnUse">
<stop offset="0.25" stop-color="white"/>
<stop offset="0.6429" stop-color="#C6C0B9"/>
</linearGradient>
</defs>
</svg>
