<svg width="600" height="429" viewBox="0 0 600 429" fill="none" xmlns="http://www.w3.org/2000/svg">
<path d="M238.152 426.568L409.022 426.418C417.904 426.418 425.1 419.492 425.1 410.971L424.799 91.2408C424.799 82.479 417.392 75.4033 408.269 75.4033L238.212 75.5539C229.089 75.5539 221.712 82.6597 221.712 91.4215L222.013 411.152C222.043 419.673 229.269 426.598 238.152 426.568Z" fill="#381900"/>
<path d="M244.114 423.437L407.035 423.286C415.526 423.286 422.391 416.542 422.391 408.262L422.09 96.6305C422.09 88.1095 415.014 81.2446 406.282 81.2446L244.174 81.3952C235.472 81.3952 228.397 88.3203 228.397 96.8111L228.698 408.442C228.728 416.722 235.623 423.437 244.114 423.437Z" fill="#E0DEDE"/>
<path d="M412.591 92.4149L237.867 92.5947L238.193 408.953L412.917 408.773L412.591 92.4149Z" fill="#1D3B77"/>
<path d="M352.928 84.7368H298.189V88.651H352.928V84.7368Z" fill="#5F9BDD"/>
<path d="M306.258 419.793L344.859 419.763C346.484 419.763 347.779 418.86 347.779 417.776V414.434C347.779 413.35 346.454 412.447 344.859 412.447L306.258 412.477C304.633 412.477 303.338 413.38 303.338 414.464V417.806C303.338 418.89 304.663 419.793 306.258 419.793Z" fill="#5F9BDD"/>
<path d="M381.051 364.844H270.038C261.638 364.844 254.833 358.039 254.833 349.639V331.332C254.833 322.932 261.638 316.127 270.038 316.127H381.051C389.452 316.127 396.256 322.932 396.256 331.332V349.639C396.256 358.039 389.452 364.844 381.051 364.844Z" fill="#2A4D84"/>
<path d="M372.474 277.475C398.389 251.559 398.389 209.542 372.474 183.627C346.558 157.712 304.541 157.712 278.626 183.627C252.711 209.542 252.711 251.559 278.626 277.475C304.541 303.39 346.558 303.39 372.474 277.475Z" fill="#2A4D84"/>
<path d="M278.498 222.306L302.555 230.376C302.615 230.406 302.675 230.406 302.736 230.406L348.502 231.339C348.562 231.339 348.592 231.339 348.652 231.339L372.71 226.251C373.372 226.1 373.432 225.137 372.77 224.956L326.191 210.865C326.1 210.835 325.98 210.835 325.89 210.865L278.588 221.012C277.896 221.132 277.835 222.096 278.498 222.306Z" fill="#EDF4F9"/>
<path d="M348.26 244.798C342.419 245.973 334.32 247.057 324.685 246.816C315.562 246.575 307.914 245.22 302.313 243.865C302.434 239.349 302.524 234.832 302.645 230.346C306.8 228.78 315.05 226.191 325.919 226.432C336.548 226.673 344.557 229.533 348.591 231.279C348.471 235.796 348.351 240.282 348.26 244.798Z" fill="#1D3B77"/>
<path d="M348.231 245.491C342.39 246.605 334.32 247.659 324.655 247.388C315.532 247.147 307.884 245.852 302.284 244.527C302.374 240.191 302.495 235.856 302.585 231.52C306.74 230.015 314.99 227.546 325.829 227.786C336.458 228.027 344.467 230.797 348.532 232.453C348.441 236.819 348.351 241.155 348.231 245.491Z" fill="#EDF4F9"/>
<path d="M304.36 214.327C302.523 213.514 300.536 212.942 298.549 212.581C296.561 212.22 294.514 212.099 292.557 212.4C291.563 212.551 290.63 212.792 289.726 213.153C288.823 213.545 288.01 214.026 287.288 214.628C286.535 215.231 285.933 215.953 285.391 216.736C285.15 217.128 284.879 217.519 284.668 217.971C284.578 218.181 284.427 218.392 284.337 218.603L284.066 219.265C283.855 219.687 283.735 220.199 283.584 220.65L283.133 222.035L282.771 223.45C282.651 223.932 282.53 224.384 282.47 224.866L282.229 226.311C282.139 226.793 282.109 227.274 282.049 227.756L281.958 228.479C281.928 228.72 281.928 228.96 281.928 229.201C281.898 229.683 281.868 230.165 281.868 230.647C281.838 232.574 282.019 234.501 282.35 236.397C282.41 236.879 282.53 237.331 282.651 237.813C282.741 238.294 282.892 238.746 283.012 239.198C283.163 239.649 283.283 240.101 283.464 240.553C283.554 240.763 283.614 241.004 283.705 241.215C283.735 241.305 283.795 241.426 283.825 241.516C283.855 241.606 283.915 241.727 283.946 241.787C284.307 242.48 284.006 243.323 283.283 243.684C282.56 244.045 281.687 243.744 281.326 243.052C281.326 243.021 281.296 242.991 281.296 242.961V242.931C281.236 242.781 281.175 242.66 281.145 242.51C281.085 242.389 281.055 242.239 280.995 242.118C280.904 241.877 280.814 241.606 280.754 241.365C280.603 240.854 280.483 240.342 280.332 239.83C280.212 239.318 280.092 238.806 280.031 238.294C279.941 237.782 279.851 237.271 279.79 236.759C279.55 234.711 279.489 232.634 279.61 230.556C279.64 230.044 279.7 229.533 279.76 229.021C279.79 228.78 279.821 228.509 279.851 228.268L279.971 227.515C280.061 227.003 280.122 226.492 280.242 226.01L280.603 224.504C280.694 223.992 280.874 223.511 281.025 223.029L281.477 221.554L282.019 220.108C282.199 219.627 282.35 219.145 282.591 218.663L282.922 217.94C283.042 217.7 283.193 217.489 283.313 217.248C283.554 216.766 283.885 216.345 284.186 215.923C284.849 215.08 285.571 214.267 286.475 213.635C287.348 213.003 288.311 212.461 289.335 212.099C290.359 211.738 291.413 211.527 292.466 211.407C294.604 211.196 296.712 211.437 298.729 211.888C300.747 212.37 302.704 213.033 304.57 213.966C304.661 214.026 304.721 214.147 304.661 214.237C304.6 214.327 304.48 214.388 304.36 214.327Z" fill="#CBE1F7"/>
<path d="M284.608 244.467C284.548 242.961 284.186 242.118 283.554 241.877C283.946 241.366 284.066 240.733 283.855 240.101C283.524 239.047 282.35 238.475 281.266 238.806C280.182 239.137 279.58 240.252 279.911 241.305C280.092 241.877 280.513 242.299 281.025 242.51C281.025 242.51 280.634 243.654 281.446 244.557C282.29 245.46 281.657 248.592 282.35 248.803C283.042 249.013 286.264 248.2 286.475 247.357C286.716 246.544 284.668 246.153 284.608 244.467Z" fill="#EDF4F9"/>
<path d="M307.462 245.611C308.847 245.852 310.292 246.093 311.858 246.334L312.279 228.9C310.653 229.201 309.178 229.533 307.853 229.894L307.462 245.611Z" fill="#CBE1F7"/>
<path d="M312.643 246.454C312.944 246.484 313.275 246.544 313.576 246.574L313.997 228.599C313.666 228.659 313.365 228.689 313.034 228.75L312.643 246.454Z" fill="#CBE1F7"/>
<path d="M258.866 137.578C259.739 138.09 261.064 138.512 262.449 138.512C264.195 138.512 265.159 137.699 265.159 136.494C265.159 135.38 264.406 134.718 262.509 134.025C260.07 133.152 258.504 131.858 258.504 129.72C258.504 127.311 260.522 125.444 263.743 125.444C265.339 125.444 266.544 125.806 267.296 126.197L266.634 128.365C266.092 128.094 265.068 127.672 263.683 127.672C261.967 127.672 261.214 128.606 261.214 129.449C261.214 130.593 262.087 131.135 264.044 131.888C266.604 132.851 267.868 134.146 267.868 136.284C267.868 138.662 266.062 140.74 262.238 140.74C260.672 140.74 259.046 140.288 258.233 139.806L258.866 137.578Z" fill="#CBE1F7"/>
<path d="M280.996 140.077C280.363 140.409 278.948 140.74 277.172 140.74C272.475 140.74 269.614 137.789 269.614 133.273C269.614 128.395 273.017 125.444 277.533 125.444C279.309 125.444 280.604 125.806 281.146 126.107L280.544 128.275C279.851 127.974 278.858 127.703 277.653 127.703C274.643 127.703 272.475 129.599 272.475 133.152C272.475 136.404 274.402 138.512 277.653 138.512C278.767 138.512 279.912 138.301 280.604 137.97L280.996 140.077Z" fill="#CBE1F7"/>
<path d="M285.993 125.686V131.617H292.256V125.686H294.966V140.499H292.256V133.966H285.993V140.499H283.283V125.686H285.993Z" fill="#CBE1F7"/>
<path d="M311.225 132.972C311.225 137.94 308.214 140.77 304.119 140.77C299.934 140.77 297.314 137.578 297.314 133.213C297.314 128.666 300.175 125.444 304.36 125.444C308.696 125.444 311.225 128.726 311.225 132.972ZM300.175 133.182C300.175 136.193 301.68 138.602 304.3 138.602C306.919 138.602 308.395 136.193 308.395 133.092C308.395 130.292 307.01 127.672 304.3 127.672C301.59 127.642 300.175 130.111 300.175 133.182Z" fill="#CBE1F7"/>
<path d="M313.575 125.686H316.285V138.241H322.367V140.499H313.575V125.686Z" fill="#CBE1F7"/>
<path d="M327.486 136.314L326.221 140.529H323.421L328.178 125.715H331.641L336.458 140.529H333.568L332.213 136.314H327.486ZM331.731 134.266L330.557 130.623C330.286 129.72 330.015 128.696 329.804 127.853H329.774C329.563 128.696 329.322 129.75 329.081 130.623L327.937 134.266H331.731Z" fill="#CBE1F7"/>
<path d="M338.506 125.896C339.53 125.715 341.035 125.595 342.601 125.595C344.738 125.595 346.184 125.956 347.177 126.769C347.99 127.462 348.442 128.485 348.442 129.75C348.442 131.677 347.147 132.972 345.762 133.453V133.513C346.816 133.905 347.448 134.929 347.84 136.374C348.291 138.211 348.713 139.927 349.014 140.499H346.214C346.003 140.047 345.642 138.843 345.22 137.006C344.799 135.079 344.106 134.447 342.571 134.417H341.216V140.499H338.506V125.896ZM341.186 132.46H342.781C344.618 132.46 345.762 131.496 345.762 130.021C345.762 128.395 344.618 127.642 342.872 127.642C342.029 127.642 341.457 127.702 341.186 127.763V132.46Z" fill="#CBE1F7"/>
<path d="M350.938 137.578C351.811 138.09 353.136 138.512 354.521 138.512C356.267 138.512 357.231 137.699 357.231 136.494C357.231 135.38 356.478 134.718 354.581 134.025C352.142 133.152 350.577 131.858 350.577 129.72C350.577 127.311 352.594 125.444 355.816 125.444C357.411 125.444 358.616 125.806 359.369 126.197L358.706 128.365C358.164 128.094 357.14 127.672 355.755 127.672C354.039 127.672 353.286 128.606 353.286 129.449C353.286 130.593 354.16 131.135 356.117 131.888C358.676 132.851 359.941 134.146 359.941 136.284C359.941 138.662 358.134 140.74 354.31 140.74C352.745 140.74 351.119 140.288 350.306 139.806L350.938 137.578Z" fill="#CBE1F7"/>
<path d="M365.151 125.686V131.617H371.414V125.686H374.124V140.499H371.414V133.966H365.151V140.499H362.441V125.686H365.151Z" fill="#CBE1F7"/>
<path d="M379.934 125.686V140.499H377.225V125.686H379.934Z" fill="#CBE1F7"/>
<path d="M383.037 125.896C384 125.715 385.355 125.595 387.162 125.595C389.149 125.595 390.594 126.016 391.528 126.799C392.401 127.522 392.973 128.696 392.973 130.081C392.973 131.496 392.521 132.64 391.708 133.453C390.624 134.537 388.938 135.049 387.011 135.049C386.5 135.049 386.048 135.019 385.687 134.959V140.559H383.007V125.896H383.037ZM385.717 132.791C386.048 132.881 386.5 132.911 387.041 132.911C389.059 132.911 390.293 131.918 390.293 130.171C390.293 128.515 389.149 127.642 387.282 127.642C386.53 127.642 386.018 127.702 385.717 127.763V132.791Z" fill="#CBE1F7"/>
<path d="M356.329 353.703H294.936C287.649 353.703 281.748 347.802 281.748 340.516C281.748 333.229 287.649 327.328 294.936 327.328H356.329C363.615 327.328 369.517 333.229 369.517 340.516C369.547 347.802 363.615 353.703 356.329 353.703Z" fill="#F97450"/>
<path d="M513.414 422.76C513.414 418.989 513.414 416.03 513.414 412.259C524.583 413.93 537.996 415.266 553.223 415.218C568.258 415.218 581.528 413.93 592.602 412.259C592.602 416.03 592.602 418.989 592.602 422.76C592.65 422.856 592.65 422.951 592.65 422.999C592.65 425.815 574.941 428.011 553.032 428.011C531.123 428.011 513.366 425.863 513.366 423.047C513.414 422.951 513.414 422.856 513.414 422.76Z" fill="#FFAF5D"/>
<path d="M513.414 421.806C513.414 418.035 513.414 415.075 513.414 411.304C524.583 412.975 537.996 414.312 553.223 414.264C568.258 414.264 581.528 412.975 592.602 411.304C592.602 415.075 592.602 418.035 592.602 421.806C592.65 421.901 592.65 421.996 592.65 422.044C592.65 424.86 574.941 427.056 553.032 427.056C531.123 427.056 513.366 424.908 513.366 422.092C513.414 421.996 513.414 421.901 513.414 421.806Z" fill="#EB8511"/>
<path d="M583.104 425.338V412.641C584.106 412.498 585.108 412.355 586.063 412.211V424.861C585.156 425.004 584.154 425.195 583.104 425.338Z" fill="#FFB017"/>
<path d="M574.75 426.245V413.596C575.466 413.548 576.134 413.453 576.803 413.405V426.054C576.182 426.149 575.466 426.197 574.75 426.245Z" fill="#FFB017"/>
<path d="M522.961 425.338C522.245 425.242 521.529 425.099 520.908 425.004V412.593H522.961V425.338Z" fill="#FFB017"/>
<path d="M580.288 425.719V413.023C580.622 412.975 580.956 412.927 581.29 412.879V425.576C580.956 425.624 580.622 425.672 580.288 425.719Z" fill="#FFB017"/>
<path d="M513.366 411.305C513.366 408.488 531.218 406.34 553.08 406.34C574.989 406.34 592.697 408.631 592.697 411.448C592.697 414.264 574.941 416.555 553.08 416.555C531.17 416.555 513.366 414.168 513.366 411.305Z" fill="#FDCE14"/>
<path d="M553.174 414.55C572.418 414.55 588.018 412.948 588.018 410.971C588.018 408.993 572.418 407.391 553.174 407.391C533.93 407.391 518.329 408.993 518.329 410.971C518.329 412.948 533.93 414.55 553.174 414.55Z" fill="#FE920C"/>
<path d="M542.149 411.018C542.293 410.493 544.679 410.302 546.827 410.207C546.923 409.777 546.923 409.491 547.257 409.109C543.104 409.157 538.904 409.777 537.281 410.541H533.939L533.176 411.4H536.612C537.138 412.116 540.67 412.546 546.016 412.546C550.646 412.546 554.369 412.259 556.994 410.971C558.617 410.159 559.954 409.92 562.77 409.873C565.3 409.825 566.779 410.016 566.636 410.589C566.445 411.162 564.775 411.543 561.29 411.639C561.099 412.068 561.004 412.259 560.622 412.689C565.491 412.593 569.452 412.212 571.266 411.4H574.655L575.419 410.541H572.269C572.65 409.205 568.736 408.918 562.388 408.966C557.472 409.014 553.367 409.348 550.646 410.636C549.118 411.352 548.116 411.543 545.682 411.543C543.2 411.591 542.054 411.352 542.149 411.018Z" fill="#FEB05B"/>
<path d="M520.717 411.066C520.717 407.295 520.717 404.336 520.717 400.565C531.886 402.236 545.299 403.572 560.525 403.525C575.561 403.525 588.831 402.236 599.905 400.565C599.905 404.336 599.905 407.295 599.905 411.066C599.952 411.162 599.952 411.257 599.952 411.305C599.952 414.121 582.244 416.317 560.335 416.317C538.425 416.317 520.669 414.169 520.669 411.353C520.717 411.305 520.717 411.21 520.717 411.066Z" fill="#FFAF5D"/>
<path d="M520.717 410.112C520.717 406.341 520.717 403.381 520.717 399.611C531.886 401.281 545.299 402.618 560.525 402.57C575.561 402.57 588.831 401.281 599.905 399.611C599.905 403.381 599.905 406.341 599.905 410.112C599.952 410.207 599.952 410.303 599.952 410.35C599.952 413.167 582.244 415.362 560.335 415.362C538.425 415.362 520.669 413.214 520.669 410.398C520.717 410.303 520.717 410.207 520.717 410.112Z" fill="#EB8511"/>
<path d="M590.404 413.644V400.947C591.407 400.804 592.409 400.661 593.364 400.518V413.167C592.457 413.358 591.454 413.501 590.404 413.644Z" fill="#FFB017"/>
<path d="M582.052 414.55V401.901C582.768 401.853 583.437 401.758 584.105 401.71V414.359C583.484 414.455 582.768 414.502 582.052 414.55Z" fill="#FFB017"/>
<path d="M530.262 413.644C529.546 413.548 528.83 413.405 528.21 413.309V400.899H530.262V413.644Z" fill="#FFB017"/>
<path d="M587.591 414.025V401.329C587.925 401.281 588.259 401.233 588.593 401.185V413.882C588.259 413.93 587.925 413.978 587.591 414.025Z" fill="#FFB017"/>
<path d="M520.669 399.658C520.669 396.842 538.521 394.694 560.382 394.694C582.291 394.694 600 396.985 600 399.801C600 402.617 582.244 404.909 560.382 404.909C538.473 404.861 520.669 402.474 520.669 399.658Z" fill="#FFAF5D"/>
<path d="M525.586 399.276C525.586 397.271 541.194 395.696 560.431 395.696C579.667 395.696 595.275 397.319 595.275 399.276C595.275 401.281 579.667 402.856 560.431 402.856C541.194 402.856 525.586 401.233 525.586 399.276Z" fill="#FE920C"/>
<path d="M549.451 399.324C549.594 398.799 551.981 398.608 554.129 398.513C554.225 398.083 554.224 397.797 554.559 397.415C550.406 397.462 546.205 398.083 544.583 398.847H541.241L540.478 399.706H543.914C544.439 400.422 547.972 400.851 553.318 400.851C557.948 400.851 561.671 400.565 564.296 399.276C565.919 398.465 567.255 398.226 570.072 398.178C572.601 398.131 574.081 398.322 573.938 398.894C573.747 399.467 572.076 399.849 568.592 399.944C568.401 400.374 568.306 400.565 567.924 400.995C572.792 400.899 576.754 400.517 578.568 399.706H581.957L582.721 398.847H579.57C579.952 397.51 576.038 397.224 569.69 397.271C564.773 397.319 560.668 397.653 557.948 398.942C556.42 399.658 555.418 399.849 552.983 399.849C550.501 399.897 549.356 399.706 549.451 399.324Z" fill="#FEB05B"/>
<path d="M511.455 399.419C511.455 395.648 511.455 392.689 511.455 388.918C522.624 390.589 536.037 391.925 551.264 391.877C566.299 391.877 579.569 390.589 590.643 388.918C590.643 392.689 590.643 395.648 590.643 399.419C590.691 399.515 590.691 399.61 590.691 399.658C590.691 402.474 572.982 404.67 551.073 404.67C529.164 404.67 511.407 402.522 511.407 399.705C511.455 399.61 511.455 399.515 511.455 399.419Z" fill="#FFAF5D"/>
<path d="M511.455 398.417C511.455 394.646 511.455 391.686 511.455 387.916C522.624 389.586 536.037 390.923 551.264 390.875C566.299 390.875 579.569 389.586 590.643 387.916C590.643 391.686 590.643 394.646 590.643 398.417C590.691 398.512 590.691 398.608 590.691 398.655C590.691 401.472 572.982 403.667 551.073 403.667C529.164 403.667 511.407 401.519 511.407 398.703C511.455 398.608 511.455 398.512 511.455 398.417Z" fill="#EB8511"/>
<path d="M581.144 401.997V389.3C582.146 389.157 583.148 389.013 584.103 388.87V401.519C583.196 401.662 582.194 401.806 581.144 401.997Z" fill="#FFB017"/>
<path d="M572.839 402.903V390.254C573.555 390.207 574.223 390.111 574.891 390.063V402.713C574.223 402.76 573.507 402.856 572.839 402.903Z" fill="#FFB017"/>
<path d="M521.002 401.997C520.286 401.901 519.57 401.758 518.949 401.662V389.252H521.002V401.997Z" fill="#FFB017"/>
<path d="M578.329 402.33V389.634C578.663 389.586 578.997 389.538 579.331 389.49V402.187C579.045 402.283 578.711 402.283 578.329 402.33Z" fill="#FFB017"/>
<path d="M511.407 387.963C511.407 385.147 529.259 382.999 551.121 382.999C573.03 382.999 590.738 385.29 590.738 388.106C590.738 390.923 572.982 393.214 551.121 393.214C529.211 393.166 511.407 390.779 511.407 387.963Z" fill="#FFAF5D"/>
<path d="M516.324 387.581C516.324 385.577 531.933 384.001 551.169 384.001C570.405 384.001 586.013 385.624 586.013 387.581C586.013 389.586 570.405 391.161 551.169 391.161C531.933 391.161 516.324 389.586 516.324 387.581Z" fill="#FE920C"/>
<path d="M540.189 387.677C540.333 387.151 542.719 386.961 544.867 386.865C544.963 386.435 544.963 386.149 545.297 385.767C541.144 385.815 536.944 386.435 535.321 387.199H531.98L531.216 388.058H534.653C535.178 388.774 538.71 389.204 544.056 389.204C548.686 389.204 552.409 388.918 555.034 387.629C556.657 386.817 557.994 386.579 560.81 386.531C563.34 386.483 564.819 386.674 564.676 387.247C564.485 387.82 562.815 388.202 559.33 388.297C559.139 388.727 559.044 388.918 558.662 389.347C563.531 389.252 567.492 388.87 569.306 388.058H572.695L573.459 387.199H570.309C570.69 385.863 566.776 385.576 560.428 385.624C555.512 385.672 551.407 386.006 548.686 387.295C547.158 388.011 546.156 388.202 543.722 388.202C541.287 388.202 540.094 388.011 540.189 387.677Z" fill="#FEB05B"/>
<path d="M439.906 422.76C439.906 418.99 439.906 416.03 439.906 412.259C451.075 413.93 464.488 415.266 479.715 415.219C494.751 415.219 508.02 413.93 519.094 412.259C519.094 416.03 519.094 418.99 519.094 422.76C519.142 422.856 519.142 422.951 519.142 422.999C519.142 425.815 501.433 428.011 479.524 428.011C457.615 428.011 439.858 425.863 439.858 423.047C439.906 422.951 439.906 422.856 439.906 422.76Z" fill="#FFAF5D"/>
<path d="M439.906 421.806C439.906 418.035 439.906 415.076 439.906 411.305C451.075 412.975 464.488 414.312 479.715 414.264C494.751 414.264 508.02 412.975 519.094 411.305C519.094 415.076 519.094 418.035 519.094 421.806C519.142 421.901 519.142 421.997 519.142 422.044C519.142 424.861 501.433 427.056 479.524 427.056C457.615 427.056 439.858 424.908 439.858 422.092C439.906 421.997 439.906 421.901 439.906 421.806Z" fill="#EB8511"/>
<path d="M509.546 425.338V412.641C510.548 412.498 511.551 412.355 512.505 412.212V424.861C511.598 425.004 510.596 425.195 509.546 425.338Z" fill="#FFB017"/>
<path d="M501.241 426.244V413.595C501.957 413.548 502.625 413.452 503.294 413.405V426.054C502.625 426.149 501.957 426.197 501.241 426.244Z" fill="#FFB017"/>
<path d="M449.404 425.338C448.688 425.242 447.972 425.099 447.352 425.003V412.593H449.404V425.338Z" fill="#FFB017"/>
<path d="M506.777 425.72V413.023C507.111 412.975 507.446 412.927 507.78 412.88V425.576C507.446 425.624 507.111 425.672 506.777 425.72Z" fill="#FFB017"/>
<path d="M439.81 411.305C439.81 408.489 457.661 406.341 479.523 406.341C501.432 406.341 519.141 408.632 519.141 411.448C519.141 414.264 501.384 416.555 479.523 416.555C457.661 416.555 439.81 414.169 439.81 411.305Z" fill="#FDCE14"/>
<path d="M479.617 414.551C498.861 414.551 514.462 412.948 514.462 410.971C514.462 408.994 498.861 407.391 479.617 407.391C460.373 407.391 444.772 408.994 444.772 410.971C444.772 412.948 460.373 414.551 479.617 414.551Z" fill="#FE920C"/>
<path d="M468.592 411.018C468.735 410.493 471.122 410.302 473.27 410.207C473.365 409.777 473.365 409.491 473.699 409.109C469.546 409.157 465.346 409.777 463.723 410.541H460.382L459.618 411.4H463.055C463.58 412.116 467.112 412.545 472.458 412.545C477.088 412.545 480.811 412.259 483.437 410.97C485.059 410.159 486.396 409.92 489.212 409.872C491.742 409.825 493.222 410.016 493.079 410.588C492.888 411.161 491.217 411.543 487.732 411.639C487.542 412.068 487.446 412.259 487.064 412.689C491.933 412.593 495.895 412.211 497.709 411.4H501.098L501.861 410.541H498.711C499.093 409.204 495.179 408.918 488.83 408.966C483.914 409.013 479.809 409.347 477.088 410.636C475.561 411.352 474.558 411.543 472.124 411.543C469.69 411.591 468.496 411.352 468.592 411.018Z" fill="#FEB05B"/>
<path d="M447.211 411.066C447.211 407.295 447.211 404.335 447.211 400.564C458.38 402.235 471.793 403.572 487.02 403.524C502.056 403.524 515.325 402.235 526.399 400.564C526.399 404.335 526.399 407.295 526.399 411.066C526.447 411.161 526.447 411.257 526.447 411.304C526.447 414.12 508.738 416.316 486.829 416.316C464.92 416.316 447.163 414.168 447.163 411.352C447.211 411.304 447.211 411.209 447.211 411.066Z" fill="#FFAF5D"/>
<path d="M447.211 410.111C447.211 406.34 447.211 403.381 447.211 399.61C458.38 401.281 471.793 402.617 487.02 402.569C502.056 402.569 515.325 401.281 526.399 399.61C526.399 403.381 526.399 406.34 526.399 410.111C526.447 410.207 526.447 410.302 526.447 410.35C526.447 413.166 508.738 415.362 486.829 415.362C464.92 415.362 447.163 413.214 447.163 410.398C447.211 410.302 447.211 410.207 447.211 410.111Z" fill="#EB8511"/>
<path d="M516.851 413.643V400.946C517.853 400.803 518.855 400.66 519.81 400.517V413.166C518.903 413.357 517.948 413.5 516.851 413.643Z" fill="#FFB017"/>
<path d="M508.546 414.55V401.901C509.262 401.853 509.93 401.757 510.598 401.71V414.359C509.93 414.454 509.262 414.502 508.546 414.55Z" fill="#FFB017"/>
<path d="M456.708 413.643C455.992 413.548 455.277 413.404 454.656 413.309V400.898H456.708V413.643Z" fill="#FFB017"/>
<path d="M514.082 414.025V401.328C514.416 401.28 514.75 401.233 515.084 401.185V413.882C514.75 413.929 514.416 413.977 514.082 414.025Z" fill="#FFB017"/>
<path d="M447.114 399.658C447.114 396.841 464.966 394.693 486.828 394.693C508.737 394.693 526.445 396.985 526.445 399.801C526.445 402.617 508.689 404.908 486.828 404.908C464.966 404.86 447.114 402.474 447.114 399.658Z" fill="#FFAF5D"/>
<path d="M452.077 399.275C452.077 397.27 467.686 395.695 486.922 395.695C506.158 395.695 521.766 397.318 521.766 399.275C521.766 401.28 506.158 402.855 486.922 402.855C467.686 402.855 452.077 401.232 452.077 399.275Z" fill="#FE920C"/>
<path d="M475.896 399.323C476.04 398.798 478.426 398.607 480.574 398.512C480.67 398.082 480.67 397.796 481.004 397.414C476.851 397.462 472.65 398.082 471.028 398.846H467.686L466.923 399.705H470.359C470.884 400.421 474.417 400.851 479.763 400.851C484.393 400.851 488.116 400.564 490.741 399.275C492.364 398.464 493.7 398.225 496.517 398.178C499.046 398.13 500.526 398.321 500.383 398.894C500.192 399.466 498.521 399.848 495.037 399.944C494.846 400.373 494.751 400.564 494.369 400.994C499.237 400.898 503.199 400.517 505.013 399.705H508.402L509.166 398.846H506.015C506.397 397.509 502.483 397.223 496.135 397.271C491.218 397.318 487.113 397.653 484.393 398.941C482.865 399.657 481.863 399.848 479.429 399.848C476.994 399.896 475.801 399.705 475.896 399.323Z" fill="#FEB05B"/>
<path d="M437.95 399.419C437.95 395.648 437.95 392.689 437.95 388.918C449.119 390.589 462.532 391.925 477.758 391.878C492.794 391.878 506.064 390.589 517.138 388.918C517.138 392.689 517.138 395.648 517.138 399.419C517.185 399.515 517.185 399.61 517.185 399.658C517.185 402.474 499.477 404.67 477.567 404.67C455.658 404.67 437.902 402.522 437.902 399.706C437.95 399.61 437.95 399.515 437.95 399.419Z" fill="#FFAF5D"/>
<path d="M437.95 398.417C437.95 394.646 437.95 391.686 437.95 387.916C449.119 389.586 462.532 390.923 477.758 390.875C492.794 390.875 506.064 389.586 517.138 387.916C517.138 391.686 517.138 394.646 517.138 398.417C517.185 398.512 517.185 398.608 517.185 398.655C517.185 401.472 499.477 403.667 477.567 403.667C455.658 403.667 437.902 401.519 437.902 398.703C437.95 398.608 437.95 398.512 437.95 398.417Z" fill="#EB8511"/>
<path d="M507.59 401.997V389.3C508.592 389.157 509.595 389.013 510.549 388.87V401.519C509.642 401.662 508.688 401.806 507.59 401.997Z" fill="#FFB017"/>
<path d="M499.284 402.903V390.254C500 390.207 500.668 390.111 501.336 390.063V402.713C500.668 402.76 500 402.856 499.284 402.903Z" fill="#FFB017"/>
<path d="M447.448 401.997C446.732 401.901 446.016 401.758 445.395 401.662V389.252H447.448V401.997Z" fill="#FFB017"/>
<path d="M504.821 402.331V389.634C505.155 389.586 505.489 389.538 505.823 389.491V402.188C505.489 402.283 505.155 402.283 504.821 402.331Z" fill="#FFB017"/>
<path d="M437.853 387.963C437.853 385.147 455.705 382.999 477.567 382.999C499.476 382.999 517.184 385.29 517.184 388.106C517.184 390.923 499.428 393.214 477.567 393.214C455.705 393.166 437.853 390.779 437.853 387.963Z" fill="#FFAF5D"/>
<path d="M442.816 387.581C442.816 385.577 458.425 384.001 477.661 384.001C496.897 384.001 512.506 385.624 512.506 387.581C512.506 389.586 496.897 391.161 477.661 391.161C458.425 391.161 442.816 389.586 442.816 387.581Z" fill="#FE920C"/>
<path d="M466.635 387.677C466.778 387.151 469.164 386.961 471.312 386.865C471.408 386.435 471.408 386.149 471.742 385.767C467.589 385.815 463.389 386.435 461.766 387.199H458.425L457.661 388.058H461.098C461.623 388.774 465.155 389.204 470.501 389.204C475.131 389.204 478.854 388.918 481.479 387.629C483.102 386.817 484.439 386.579 487.255 386.531C489.785 386.483 491.265 386.674 491.121 387.247C490.93 387.82 489.26 388.202 485.775 388.297C485.584 388.727 485.489 388.918 485.107 389.347C489.976 389.252 493.938 388.87 495.751 388.058H499.14L499.904 387.199H496.754C497.136 385.863 493.222 385.576 486.873 385.624C481.957 385.672 477.852 386.006 475.131 387.295C473.604 388.011 472.601 388.202 470.167 388.202C467.732 388.202 466.539 388.011 466.635 387.677Z" fill="#FEB05B"/>
<path d="M426.971 387.725C426.971 383.954 426.971 380.995 426.971 377.224C438.14 378.895 451.553 380.231 466.779 380.184C481.815 380.184 495.085 378.895 506.159 377.224C506.159 380.995 506.159 383.954 506.159 387.725C506.206 387.821 506.206 387.916 506.206 387.964C506.206 390.78 488.498 392.976 466.588 392.976C444.679 392.976 426.923 390.828 426.923 388.012C426.971 387.916 426.971 387.821 426.971 387.725Z" fill="#FFAF5D"/>
<path d="M426.971 386.77C426.971 383 426.971 380.04 426.971 376.269C438.14 377.94 451.553 379.276 466.779 379.229C481.815 379.229 495.085 377.94 506.159 376.269C506.159 380.04 506.159 383 506.159 386.77C506.206 386.866 506.206 386.961 506.206 387.009C506.206 389.825 488.498 392.021 466.588 392.021C444.679 392.021 426.923 389.873 426.923 387.057C426.971 386.961 426.971 386.866 426.971 386.77Z" fill="#EB8511"/>
<path d="M496.659 390.303V377.606C497.662 377.463 498.664 377.319 499.619 377.176V389.825C498.712 389.969 497.709 390.159 496.659 390.303Z" fill="#FFB017"/>
<path d="M488.354 391.209V378.56C489.07 378.512 489.739 378.417 490.407 378.369V391.018C489.739 391.114 489.023 391.161 488.354 391.209Z" fill="#FFB017"/>
<path d="M436.517 390.303C435.801 390.207 435.085 390.064 434.465 389.969V377.558H436.517V390.303Z" fill="#FFB017"/>
<path d="M493.845 390.684V377.94C494.179 377.892 494.513 377.844 494.847 377.797V390.493C494.513 390.589 494.227 390.637 493.845 390.684Z" fill="#FFB017"/>
<path d="M426.923 376.269C426.923 373.453 444.775 371.305 466.636 371.305C488.545 371.305 506.254 373.596 506.254 376.413C506.254 379.229 488.498 381.52 466.636 381.52C444.727 381.52 426.923 379.086 426.923 376.269Z" fill="#FDCE14"/>
<path d="M431.84 375.888C431.84 373.883 447.448 372.308 466.684 372.308C485.921 372.308 501.529 373.931 501.529 375.888C501.529 377.892 485.921 379.467 466.684 379.467C447.448 379.515 431.84 377.892 431.84 375.888Z" fill="#FE920C"/>
<path d="M455.705 375.982C455.848 375.457 458.235 375.266 460.383 375.171C460.478 374.741 460.478 374.455 460.812 374.073C456.66 374.121 452.459 374.741 450.836 375.505H447.495L446.731 376.364H450.168C450.693 377.08 454.225 377.51 459.571 377.51C464.201 377.51 467.925 377.223 470.55 375.934C472.173 375.123 473.509 374.884 476.326 374.837C478.855 374.789 480.335 374.98 480.192 375.553C480.001 376.125 478.33 376.507 474.846 376.603C474.655 377.032 474.559 377.223 474.178 377.653C479.046 377.557 483.008 377.175 484.822 376.364H488.211L488.975 375.505H485.824C486.206 374.168 482.292 373.882 475.944 373.93C471.027 373.977 466.922 374.312 464.201 375.6C462.674 376.316 461.672 376.507 459.237 376.507C456.803 376.555 455.61 376.316 455.705 375.982Z" fill="#FEB05B"/>
<path d="M437.95 376.031C437.95 372.26 437.95 369.301 437.95 365.53C449.119 367.2 462.532 368.537 477.758 368.489C492.794 368.489 506.064 367.2 517.138 365.53C517.138 369.301 517.138 372.26 517.138 376.031C517.185 376.126 517.185 376.222 517.185 376.27C517.185 379.086 499.477 381.281 477.567 381.281C455.658 381.281 437.902 379.133 437.902 376.317C437.95 376.222 437.95 376.126 437.95 376.031Z" fill="#FFAF5D"/>
<path d="M437.95 375.076C437.95 371.305 437.95 368.346 437.95 364.575C449.119 366.246 462.532 367.582 477.758 367.534C492.794 367.534 506.064 366.246 517.138 364.575C517.138 368.346 517.138 371.305 517.138 375.076C517.185 375.172 517.185 375.267 517.185 375.315C517.185 378.131 499.477 380.327 477.567 380.327C455.658 380.327 437.902 378.179 437.902 375.362C437.95 375.267 437.95 375.172 437.95 375.076Z" fill="#EB8511"/>
<path d="M507.59 378.609V365.912C508.592 365.769 509.595 365.625 510.549 365.482V378.131C509.642 378.322 508.688 378.465 507.59 378.609Z" fill="#FFB017"/>
<path d="M499.284 379.515V366.866C500 366.818 500.668 366.723 501.336 366.675V379.324C500.668 379.419 500 379.467 499.284 379.515Z" fill="#FFB017"/>
<path d="M447.448 378.608C446.732 378.513 446.016 378.37 445.395 378.274V365.864H447.448V378.608Z" fill="#FFB017"/>
<path d="M504.821 378.99V366.294C505.155 366.246 505.489 366.198 505.823 366.15V378.847C505.489 378.895 505.155 378.943 504.821 378.99Z" fill="#FFB017"/>
<path d="M437.853 364.623C437.853 361.807 455.705 359.659 477.567 359.659C499.476 359.659 517.184 361.95 517.184 364.766C517.184 367.582 499.428 369.873 477.567 369.873C455.705 369.826 437.853 367.439 437.853 364.623Z" fill="#FDCE14"/>
<path d="M442.816 364.241C442.816 362.236 458.425 360.661 477.661 360.661C496.897 360.661 512.506 362.284 512.506 364.241C512.506 366.246 496.897 367.821 477.661 367.821C458.425 367.821 442.816 366.198 442.816 364.241Z" fill="#FE920C"/>
<path d="M466.635 364.289C466.778 363.764 469.164 363.573 471.312 363.477C471.408 363.048 471.408 362.761 471.742 362.38C467.589 362.427 463.389 363.048 461.766 363.812H458.425L457.661 364.671H461.098C461.623 365.387 465.155 365.816 470.501 365.816C475.131 365.816 478.854 365.53 481.479 364.241C483.102 363.43 484.439 363.191 487.255 363.143C489.785 363.096 491.265 363.286 491.121 363.859C490.93 364.432 489.26 364.814 485.775 364.909C485.584 365.339 485.489 365.53 485.107 365.959C489.976 365.864 493.938 365.482 495.751 364.671H499.14L499.904 363.812H496.754C497.136 362.475 493.222 362.189 486.873 362.236C481.957 362.284 477.852 362.618 475.131 363.907C473.604 364.623 472.601 364.814 470.167 364.814C467.732 364.862 466.539 364.671 466.635 364.289Z" fill="#FEB05B"/>
<path d="M441.864 364.336C441.864 360.565 441.864 357.606 441.864 353.835C453.033 355.506 466.446 356.842 481.673 356.794C496.709 356.794 509.978 355.506 521.052 353.835C521.052 357.606 521.052 360.565 521.052 364.336C521.1 364.432 521.1 364.527 521.1 364.575C521.1 367.391 503.391 369.587 481.482 369.587C459.573 369.587 441.816 367.439 441.816 364.622C441.864 364.575 441.816 364.479 441.864 364.336Z" fill="#FFAF5D"/>
<path d="M441.864 363.381C441.864 359.611 441.864 356.651 441.864 352.88C453.033 354.551 466.446 355.888 481.673 355.84C496.709 355.84 509.978 354.551 521.052 352.88C521.052 356.651 521.052 359.611 521.052 363.381C521.1 363.477 521.1 363.572 521.1 363.62C521.1 366.436 503.391 368.632 481.482 368.632C459.573 368.632 441.816 366.484 441.816 363.668C441.864 363.572 441.816 363.477 441.864 363.381Z" fill="#EB8511"/>
<path d="M511.504 366.914V354.217C512.506 354.073 513.509 353.93 514.463 353.787V366.436C513.556 366.627 512.554 366.77 511.504 366.914Z" fill="#FFB017"/>
<path d="M503.199 367.868V355.219C503.915 355.171 504.583 355.076 505.252 355.028V367.677C504.583 367.725 503.915 367.773 503.199 367.868Z" fill="#FFB017"/>
<path d="M451.362 366.913C450.646 366.818 449.93 366.675 449.31 366.579V354.169H451.362V366.913Z" fill="#FFB017"/>
<path d="M508.736 367.295V354.599C509.07 354.551 509.405 354.503 509.739 354.455V367.152C509.405 367.2 509.07 367.248 508.736 367.295Z" fill="#FFB017"/>
<path d="M441.768 352.928C441.768 350.112 459.619 347.964 481.481 347.964C503.39 347.964 521.099 350.255 521.099 353.071C521.099 355.887 503.342 358.179 481.481 358.179C459.619 358.131 441.768 355.744 441.768 352.928Z" fill="#FDCE14"/>
<path d="M446.731 352.547C446.731 350.542 462.34 348.967 481.576 348.967C500.812 348.967 516.421 350.59 516.421 352.547C516.421 354.551 500.812 356.127 481.576 356.127C462.34 356.127 446.731 354.551 446.731 352.547Z" fill="#FE920C"/>
<path d="M470.55 352.594C470.693 352.068 473.08 351.878 475.228 351.782C475.323 351.352 475.323 351.066 475.657 350.684C471.505 350.732 467.304 351.352 465.681 352.116H462.34L461.576 352.975H465.013C465.538 353.691 469.07 354.121 474.416 354.121C479.046 354.121 482.769 353.835 485.395 352.546C487.018 351.734 488.354 351.496 491.17 351.448C493.7 351.4 495.18 351.591 495.037 352.164C494.846 352.737 493.175 353.119 489.691 353.214C489.5 353.644 489.404 353.835 489.022 354.264C493.891 354.169 497.853 353.787 499.667 352.975H503.056L503.819 352.116H500.669C501.051 350.78 497.137 350.493 490.788 350.541C485.872 350.589 481.767 350.923 479.046 352.212C477.519 352.928 476.516 353.119 474.082 353.119C471.648 353.166 470.454 352.975 470.55 352.594Z" fill="#FEB05B"/>
<path d="M569.1 377.815C583.994 362.921 583.994 338.774 569.1 323.88C554.207 308.986 530.059 308.986 515.165 323.88C500.272 338.774 500.272 362.921 515.165 377.815C530.059 392.709 554.207 392.709 569.1 377.815Z" fill="#FDCE14"/>
<path d="M552.991 380.149C567.994 373.934 575.118 356.734 568.904 341.731C562.689 326.728 545.489 319.603 530.486 325.818C515.483 332.032 508.358 349.233 514.573 364.236C520.787 379.239 537.988 386.363 552.991 380.149Z" fill="#FFEB67"/>
<path d="M562.924 371.639C574.407 360.156 574.407 341.539 562.924 330.057C551.442 318.574 532.825 318.574 521.342 330.057C509.86 341.539 509.86 360.156 521.342 371.639C532.825 383.121 551.442 383.121 562.924 371.639Z" fill="#FFA500"/>
<path d="M542.148 325.291C557.757 325.291 570.501 337.415 571.456 352.785C571.504 352.164 571.504 351.496 571.504 350.875C571.504 334.646 558.329 321.472 542.1 321.472C525.871 321.472 512.697 334.646 512.697 350.875C512.697 351.544 512.745 352.164 512.745 352.785C513.843 337.415 526.587 325.291 542.148 325.291Z" fill="#EB860D"/>
<path d="M545.443 348.44C541.91 346.913 540.813 346.101 540.813 344.479C540.813 342.76 542.101 341.71 544.249 341.758C546.731 341.806 549.213 342.951 550.502 343.763L552.173 336.507C551.743 336.269 551.218 335.982 550.693 335.744L551.457 333.357L546.063 331.782L545.204 334.502C544.822 334.455 544.488 334.455 544.106 334.455C536.946 334.359 532.268 339.085 532.221 345.385C532.125 349.395 534.369 353.261 540.335 355.696C543.677 357.08 544.583 357.891 544.536 359.657C544.536 361.376 543.39 362.474 540.669 362.474C537.996 362.426 534.607 360.994 532.937 359.801L531.266 367.342C532.078 367.867 533.032 368.345 534.13 368.727L533.319 371.209L538.712 372.784L539.667 369.777C539.953 369.777 540.24 369.824 540.526 369.824C548.784 369.92 553.128 365.338 553.175 359.037C553.175 354.025 550.932 350.731 545.443 348.44Z" fill="#EB860D"/>
<path d="M544.822 349.061C541.29 347.534 540.192 346.722 540.192 345.099C540.192 343.381 541.481 342.331 543.628 342.378C546.111 342.426 548.593 343.572 549.881 344.383L551.552 337.128C551.122 336.889 550.597 336.603 550.072 336.364L550.836 333.978L545.442 332.402L544.583 335.123C544.201 335.075 543.867 335.075 543.485 335.075C536.325 334.98 531.648 339.705 531.6 346.006C531.504 350.016 533.748 353.882 539.714 356.316C543.056 357.701 543.963 358.512 543.915 360.278C543.915 361.996 542.769 363.094 540.049 363.094C537.376 363.047 533.987 361.615 532.316 360.421L530.645 367.963C531.457 368.488 532.411 368.965 533.509 369.347L532.698 371.829L538.092 373.404L539.046 370.397C539.333 370.397 539.619 370.445 539.905 370.445C548.163 370.541 552.507 365.958 552.554 359.658C552.554 354.646 550.263 351.352 544.822 349.061Z" fill="#FFEF04"/>
<path d="M374.991 422.761C374.991 418.99 374.991 416.03 374.991 412.26C386.16 413.93 399.573 415.267 414.8 415.219C429.836 415.219 443.105 413.93 454.179 412.26C454.179 416.03 454.179 418.99 454.179 422.761C454.227 422.856 454.227 422.952 454.227 422.999C454.227 425.816 436.518 428.011 414.609 428.011C392.7 428.011 374.943 425.863 374.943 423.047C374.991 422.952 374.991 422.856 374.991 422.761Z" fill="#FFAF5D"/>
<path d="M374.991 421.806C374.991 418.035 374.991 415.076 374.991 411.305C386.16 412.975 399.573 414.312 414.8 414.264C429.836 414.264 443.105 412.975 454.179 411.305C454.179 415.076 454.179 418.035 454.179 421.806C454.227 421.901 454.227 421.997 454.227 422.044C454.227 424.861 436.518 427.056 414.609 427.056C392.7 427.056 374.943 424.908 374.943 422.092C374.991 421.997 374.991 421.901 374.991 421.806Z" fill="#EB8511"/>
<path d="M444.68 425.338V412.641C445.682 412.498 446.684 412.355 447.639 412.212V424.861C446.684 425.004 445.73 425.195 444.68 425.338Z" fill="#FFB017"/>
<path d="M436.326 426.245V413.596C437.042 413.548 437.71 413.453 438.379 413.405V426.054C437.758 426.149 437.042 426.197 436.326 426.245Z" fill="#FFB017"/>
<path d="M384.489 425.338C383.773 425.243 383.057 425.1 382.437 425.004V412.594H384.489V425.338Z" fill="#FFB017"/>
<path d="M441.863 425.72V413.023C442.197 412.975 442.532 412.928 442.866 412.88V425.577C442.532 425.624 442.197 425.672 441.863 425.72Z" fill="#FFB017"/>
<path d="M374.896 411.305C374.896 408.489 392.747 406.341 414.609 406.341C436.518 406.341 454.227 408.632 454.227 411.448C454.227 414.264 436.47 416.556 414.609 416.556C392.747 416.556 374.896 414.169 374.896 411.305Z" fill="#FDCE14"/>
<path d="M414.703 414.55C433.947 414.55 449.548 412.948 449.548 410.971C449.548 408.993 433.947 407.391 414.703 407.391C395.459 407.391 379.858 408.993 379.858 410.971C379.858 412.948 395.459 414.55 414.703 414.55Z" fill="#FE920C"/>
<path d="M403.725 411.018C403.868 410.493 406.254 410.302 408.402 410.207C408.498 409.777 408.498 409.491 408.832 409.109C404.679 409.157 400.479 409.777 398.856 410.541H395.515L394.751 411.4H398.188C398.713 412.116 402.245 412.546 407.591 412.546C412.221 412.546 415.944 412.259 418.569 410.971C420.192 410.159 421.529 409.92 424.345 409.873C426.875 409.825 428.355 410.016 428.211 410.589C428.02 411.162 426.35 411.543 422.865 411.639C422.674 412.068 422.579 412.259 422.197 412.689C427.066 412.593 431.028 412.212 432.841 411.4H436.23L436.994 410.541H433.844C434.226 409.205 430.312 408.918 423.963 408.966C419.047 409.014 414.942 409.348 412.221 410.636C410.694 411.352 409.691 411.543 407.257 411.543C404.775 411.591 403.581 411.352 403.725 411.018Z" fill="#FEB05B"/>
<path d="M382.293 411.066C382.293 407.295 382.293 404.336 382.293 400.565C393.462 402.236 406.875 403.572 422.102 403.525C437.137 403.525 450.407 402.236 461.481 400.565C461.481 404.336 461.481 407.295 461.481 411.066C461.529 411.162 461.529 411.257 461.529 411.305C461.529 414.121 443.82 416.317 421.911 416.317C400.002 416.317 382.245 414.169 382.245 411.353C382.293 411.305 382.293 411.21 382.293 411.066Z" fill="#FFAF5D"/>
<path d="M382.293 410.112C382.293 406.341 382.293 403.382 382.293 399.611C393.462 401.281 406.875 402.618 422.102 402.57C437.137 402.57 450.407 401.281 461.481 399.611C461.481 403.382 461.481 406.341 461.481 410.112C461.529 410.207 461.529 410.303 461.529 410.351C461.529 413.167 443.82 415.363 421.911 415.363C400.002 415.363 382.245 413.215 382.245 410.398C382.293 410.303 382.293 410.207 382.293 410.112Z" fill="#EB8511"/>
<path d="M451.981 413.644V400.947C452.984 400.804 453.986 400.661 454.941 400.518V413.167C454.034 413.358 453.032 413.501 451.981 413.644Z" fill="#FFB017"/>
<path d="M443.628 414.551V401.902C444.344 401.854 445.012 401.758 445.68 401.711V414.36C445.06 414.455 444.344 414.503 443.628 414.551Z" fill="#FFB017"/>
<path d="M391.84 413.644C391.124 413.549 390.408 413.405 389.787 413.31V400.899H391.84V413.644Z" fill="#FFB017"/>
<path d="M449.165 414.026V401.329C449.499 401.281 449.833 401.234 450.167 401.186V413.883C449.833 413.93 449.499 413.978 449.165 414.026Z" fill="#FFB017"/>
<path d="M382.197 399.659C382.197 396.842 400.049 394.694 421.911 394.694C443.82 394.694 461.528 396.986 461.528 399.802C461.528 402.618 443.772 404.909 421.911 404.909C400.049 404.861 382.197 402.475 382.197 399.659Z" fill="#FFAF5D"/>
<path d="M387.16 399.276C387.16 397.271 402.769 395.696 422.005 395.696C441.241 395.696 456.849 397.319 456.849 399.276C456.849 401.281 441.241 402.856 422.005 402.856C402.769 402.856 387.16 401.233 387.16 399.276Z" fill="#FE920C"/>
<path d="M411.028 399.324C411.172 398.799 413.558 398.608 415.706 398.513C415.802 398.083 415.802 397.797 416.136 397.415C411.983 397.462 407.783 398.083 406.16 398.847H402.818L402.055 399.706H405.491C406.017 400.422 409.549 400.851 414.895 400.851C419.525 400.851 423.248 400.565 425.873 399.276C427.496 398.465 428.833 398.226 431.649 398.178C434.179 398.131 435.658 398.322 435.515 398.894C435.324 399.467 433.654 399.849 430.169 399.944C429.978 400.374 429.883 400.565 429.501 400.995C434.369 400.899 438.331 400.517 440.145 399.706H443.534L444.298 398.847H441.148C441.529 397.51 437.615 397.224 431.267 397.271C426.35 397.319 422.246 397.653 419.525 398.942C417.997 399.658 416.995 399.849 414.561 399.849C412.079 399.897 410.885 399.706 411.028 399.324Z" fill="#FEB05B"/>
<path d="M0.606445 373.691V364.002H256.404C269.531 364.002 280.223 377.892 280.223 395.075V395.266C280.223 412.45 269.578 426.34 256.404 426.34H0.606445V416.603C8.57775 394.694 0.606445 373.691 0.606445 373.691Z" fill="#476CD2"/>
<path d="M256.404 363.954H153.111C152.729 365.529 152.49 367.2 152.49 368.918V397.271C152.49 407.295 159.793 415.41 168.767 415.41H274.494C278.074 409.968 280.222 402.904 280.222 395.219V395.028C280.222 377.892 269.578 363.954 256.404 363.954Z" fill="#476CD2"/>
<path d="M0.606445 363.954H126.047C136.548 363.954 145.092 375.076 145.092 388.775V401.424C145.092 415.123 136.548 426.245 126.047 426.245H0.606445V416.603C8.57775 394.694 0.606445 373.692 0.606445 373.692V363.954Z" fill="#476CD2"/>
<path d="M124.711 373.692C131.966 373.692 137.837 381.329 137.837 390.78V399.467C137.837 408.918 131.966 416.556 124.711 416.556H0.606445C7.57537 395.076 0.606445 373.644 0.606445 373.644H124.711V373.692Z" fill="#EDF0EF"/>
<path opacity="0.83" d="M0.606445 373.692H124.711C131.966 373.692 137.837 381.329 137.837 390.78V395.124H3.70905C3.56585 382.857 0.606445 373.692 0.606445 373.692Z" fill="#DEE1DE"/>
<path d="M257.501 283.239V277.082H56.166C45.8081 277.082 37.4072 285.864 37.4072 296.747V296.89C37.4072 307.773 45.8081 316.556 56.166 316.556H257.501V310.399C251.248 296.556 257.501 283.239 257.501 283.239Z" fill="#FF7200"/>
<path d="M56.166 277.129H137.454C137.788 278.132 137.932 279.182 137.932 280.28V298.227C137.932 304.576 132.204 309.731 125.139 309.731H41.9418C39.1256 306.294 37.4072 301.807 37.4072 296.938V296.795C37.455 285.912 45.8081 277.129 56.166 277.129Z" fill="#FF7200"/>
<path opacity="0.15" d="M100.224 277.129H114.782C108.768 280.804 104.663 288.251 104.663 296.795V296.938C104.663 305.482 108.768 312.88 114.782 316.604H100.224C89.8657 316.604 83.8037 307.678 83.8037 296.842V296.651C83.8037 285.721 89.8657 277.129 100.224 277.129Z" fill="#231F20"/>
<path d="M257.501 277.129H158.791C150.533 277.129 143.803 284.146 143.803 292.833V300.852C143.803 309.539 150.533 316.556 158.791 316.556H257.549V310.398C251.296 296.556 257.549 283.239 257.549 283.239V277.129H257.501Z" fill="#F26C00"/>
<path d="M159.841 283.239C154.161 283.239 149.531 288.107 149.531 294.074V299.563C149.531 305.53 154.161 310.398 159.841 310.398H257.502C252.013 296.795 257.502 283.239 257.502 283.239H159.841Z" fill="#EDF0EF"/>
<path opacity="0.83" d="M257.502 283.239H159.841C154.161 283.239 149.531 288.107 149.531 294.074V296.842H255.115C255.211 289.062 257.502 283.239 257.502 283.239Z" fill="#DEE1DE"/>
<path d="M277.12 323.906V316.556H33.6851C21.1792 316.556 13.1602 327.152 13.1602 340.183V340.326C13.1602 353.357 21.1792 363.858 33.6851 363.858H277.12V356.46C269.578 339.849 277.12 323.906 277.12 323.906Z" fill="#A2ADCA"/>
<path d="M13.2061 340.183V340.326C13.2061 345.672 14.5426 350.541 17.0246 354.503H120.317C127.095 354.503 132.585 348.393 132.585 340.851V316.556H33.731C21.2251 316.556 13.2061 327.152 13.2061 340.183Z" fill="#A2ADCA"/>
<path opacity="0.15" d="M87.0027 316.556H104.616C97.3606 320.995 92.3965 329.873 92.3965 340.135V340.279C92.3965 350.541 97.3606 359.419 104.616 363.858H87.0027C74.4968 363.858 64.3298 353.31 64.3298 340.279V340.135C64.3298 327.104 74.4491 316.556 87.0027 316.556Z" fill="#231F20"/>
<path d="M277.12 316.556H157.789C147.765 316.556 139.698 325.004 139.698 335.41V345.004C139.698 355.41 147.813 363.858 157.789 363.858H277.168V356.46C269.578 339.849 277.168 323.906 277.168 323.906V316.556H277.12Z" fill="#121E3F"/>
<path d="M159.029 323.906C152.156 323.906 146.571 329.73 146.571 336.889V343.477C146.571 350.636 152.156 356.46 159.029 356.46H277.119C270.484 340.183 277.119 323.906 277.119 323.906H159.029Z" fill="#EDF0EF"/>
<path opacity="0.83" d="M277.119 323.906H159.029C152.156 323.906 146.571 329.73 146.571 336.889V340.183H274.208C274.351 330.875 277.119 323.906 277.119 323.906Z" fill="#DEE1DE"/>
<path d="M162.896 335.41C162.896 335.41 164.09 336.985 164.233 340.565C164.376 344.145 166.047 348.345 166.047 348.345L169.961 344.288L174.161 348.345C174.161 348.345 172.825 343.333 172.825 340.708C172.825 338.035 170.725 335.41 170.725 335.41H162.896Z" fill="#022FA0"/>
<path d="M470.127 59.899C469.826 64.5326 476.987 67.9025 480.839 68.1433C484.69 68.384 491.61 66.0371 491.971 61.4034C492.272 56.7697 487.338 57.2511 481.32 56.8299C475.302 56.4087 470.428 55.2653 470.127 59.899Z" fill="#FEB48C"/>
<path d="M478.312 69.2263L482.284 69.3466C486.497 69.6475 488.844 64.1714 489.144 59.959L490.047 46.5394C490.348 42.327 487.098 38.6562 482.886 38.3553C478.674 38.0544 475.003 41.304 474.702 45.5164L473.799 58.9359C473.558 63.1484 474.1 68.9254 478.312 69.2263Z" fill="#FEB48C"/>
<path d="M489.443 55.8067C489.683 51.8952 490.105 46.5394 490.105 46.5394C490.405 42.327 487.156 38.6562 482.943 38.3553C478.731 38.0544 475.06 41.304 474.759 45.5164C474.759 45.5164 474.579 48.0438 474.338 51.5943C474.338 51.5943 477.166 55.4457 480.958 56.4687C485.471 57.6722 489.443 55.8067 489.443 55.8067Z" fill="#BA6549"/>
<path d="M480.956 0.0229282C491.006 -0.458492 497.866 6.7628 499.431 10.2531C499.431 10.2531 504.847 15.1877 504.726 20.2426C504.606 25.2373 505.448 28.0055 505.448 28.0055C505.448 28.0055 509.541 31.4356 508.096 37.0321C508.096 37.0321 508.277 33.3613 507.073 32.0373C507.073 32.0373 508.698 37.0923 506.652 40.0409C506.652 40.0409 507.374 37.0321 506.171 34.4444C506.171 34.4444 506.11 36.6108 505.749 38.7171C505.388 40.8233 506.05 49.0074 500.634 52.5579C500.634 52.5579 502.139 50.572 502.56 48.1649C502.56 48.1649 501.417 49.7295 500.454 51.1136C499.551 52.4977 500.634 57.9738 499.009 61.9455C499.009 61.9455 499.852 57.5526 499.491 53.4605C499.491 53.4605 497.204 59.4181 494.556 60.9827C494.556 60.9827 498.227 55.6269 498.408 54.3632C498.408 54.3632 495.94 55.1455 494.316 55.1455C494.316 55.1455 497.986 54.5437 498.829 52.4977C499.671 50.5118 499.792 44.4941 499.371 43.2304C499.13 44.0127 498.408 44.9153 497.746 45.0357C497.746 45.7578 497.686 47.6233 497.986 49.0074C497.986 49.0074 497.325 48.6463 496.963 47.5631C496.963 47.5631 496.602 49.3083 496.963 51.0534C496.963 51.0534 496.121 49.549 496.181 48.5862C496.181 48.5862 494.737 49.6092 493.052 51.234L470.485 8.44777C470.726 8.56813 470.907 0.504348 480.956 0.0229282Z" fill="black"/>
<path d="M472.593 51.655C472.593 51.655 465.552 41.6656 466.033 35.5876C466.033 35.5876 465.371 41.485 466.455 43.9523C466.455 43.9523 464.469 41.5452 464.709 38.6567C464.709 38.6567 460.918 46.2391 466.936 54.0621C466.936 54.0621 464.83 52.9789 464.168 51.7152C464.168 51.7152 465.251 54.7842 466.154 55.8073C466.154 55.8073 463.566 53.7011 462.904 50.7524C462.904 50.7524 463.085 53.5807 464.047 55.386C464.047 55.386 459.113 48.4054 463.145 39.0178C463.145 39.0178 462.122 36.1894 462.182 34.5646C462.182 34.5646 461.821 36.6708 462.543 38.6567C462.543 38.6567 459.775 35.5275 461.219 29.7504C461.219 29.7504 460.437 28.0655 460.437 26.8619C460.437 26.8619 460.256 28.4867 460.316 31.7965C460.316 31.7965 459.895 30.2318 459.835 28.4867C459.835 28.4867 459.594 29.0885 459.775 31.6761C459.775 31.6761 458.932 29.0283 459.775 26.5008C459.775 26.5008 458.932 23.1309 460.677 20.6034C462.423 18.076 467.117 11.8175 467.117 11.8175C467.117 11.8175 463.325 14.4653 462.844 16.2707C462.844 16.2707 463.626 13.9237 464.409 13.2016C464.409 13.2016 463.566 13.5627 462.964 14.5255C462.964 14.5255 462.844 13.1414 467.237 10.7945C467.237 10.7945 468.14 8.32724 470.727 7.66529C470.727 7.66529 471.871 2.24931 481.318 1.76789C490.706 1.34665 497.085 8.08654 498.589 11.3361C498.589 11.3361 503.644 15.9698 503.584 20.6636C503.464 25.3575 504.246 27.9451 504.246 27.9451C504.246 27.9451 508.037 31.1947 506.713 36.4301C506.713 36.4301 506.834 33 505.75 31.7363C505.75 31.7363 507.255 36.4301 505.389 39.1983C505.389 39.1983 506.051 36.3699 504.968 33.9628C504.968 33.9628 504.908 36.0089 504.607 37.9346C504.246 39.8602 504.848 47.563 499.793 50.8727C499.793 50.8727 501.177 49.0072 501.598 46.7807C501.598 46.7807 500.515 48.2249 499.673 49.5488C498.83 50.8727 499.853 55.9276 498.349 59.6586C498.349 59.6586 499.131 55.5064 498.83 51.7152C498.83 51.7152 496.664 57.3117 494.196 58.756C494.196 58.756 497.626 53.7612 497.807 52.5577C497.807 52.5577 495.52 53.2798 494.016 53.2798C494.016 53.2798 497.446 52.7382 498.228 50.8125C499.011 48.8869 499.131 42.9293 498.71 42.0868C498.71 42.0868 497.867 43.17 497.265 43.5912C497.265 43.5912 497.145 45.9382 497.506 47.563C497.506 47.563 496.904 47.2621 496.543 46.2391C496.543 46.2391 496.182 47.8638 496.543 49.5488C496.543 49.5488 495.761 48.1045 495.821 47.2621C495.821 47.2621 496.122 49.1276 494.437 50.5718C492.632 51.9559 486.193 39.8001 472.593 51.655Z" fill="black"/>
<path d="M461.821 15.9097C461.76 16.0902 461.7 16.2106 461.7 16.2106C461.7 16.0902 461.76 15.9698 461.821 15.9097Z" fill="#F6F7F4"/>
<path d="M458.511 26.0193C458.511 26.0193 457.669 22.6493 459.414 20.1219C461.159 17.5944 466.033 11.3962 466.033 11.3962C466.033 11.3962 462.543 13.7431 461.761 15.5484C462.001 14.8865 462.663 13.382 463.265 12.7802C463.265 12.7802 462.423 13.1413 461.761 14.044C461.761 14.044 461.64 12.6599 466.094 10.313C466.094 10.313 468.019 8.26693 470.667 7.60498L490.947 49.5487C489.322 51.0531 487.457 52.5576 487.457 52.5576L487.697 51.9558C486.072 53.8815 479.694 54.8443 476.504 54.1222C476.384 54.1222 476.324 54.062 476.203 54.062C476.083 54.062 476.023 54.0018 475.902 54.0018C474.819 53.6407 473.616 52.7983 472.533 51.8354C472.412 51.7151 472.232 51.5947 472.111 51.4743C471.991 51.354 471.931 51.2938 471.81 51.1735C471.449 50.8124 471.088 50.4513 470.787 50.0903L470.727 50.0301C469.704 48.8265 468.922 47.5026 468.681 46.4194C466.755 43.0495 464.589 38.4158 464.83 35.0459C464.83 35.0459 464.168 40.8831 465.311 43.3504C465.311 43.3504 463.265 41.0035 463.566 38.115C463.566 38.115 459.654 45.6371 465.853 53.4C465.853 53.4 463.686 52.377 463.024 51.1133C463.024 51.1133 464.108 54.1823 465.071 55.2054C465.071 55.2054 462.363 53.1593 461.761 50.2106C461.761 50.2106 461.941 52.9788 462.904 54.7841C462.904 54.7841 457.849 47.8637 462.001 38.5964C462.001 38.5964 460.978 35.768 460.978 34.1432C460.978 34.1432 460.617 36.2494 461.339 38.1751C461.339 38.1751 458.511 35.1061 459.955 29.3291C459.955 29.3291 459.113 27.7042 459.173 26.4405C459.173 26.4405 458.993 28.0653 459.053 31.3149C459.053 31.3149 458.631 29.7503 458.571 28.0653C458.571 28.0653 458.331 28.6671 458.511 31.2547C458.511 31.1344 457.669 28.4866 458.511 26.0193Z" fill="black"/>
<path d="M473.193 16.3313C473.193 16.3313 470.606 19.8818 468.8 21.0854C468.8 21.0854 467.958 27.1031 467.416 31.4961C466.875 35.889 469.342 43.9528 469.703 46.6608C470.064 49.3688 473.976 53.7617 476.804 54.7847C479.692 55.8078 485.951 54.4237 488.298 52.7387L489.802 51.7759C489.802 51.7759 494.616 48.5865 495.76 42.6891L496.301 37.6943C496.301 37.6943 497.264 37.0324 497.385 35.7687C497.505 34.4448 497.084 31.7368 497.084 31.7368C497.084 31.7368 484.326 18.5579 480.294 16.5119C476.262 14.4658 473.795 16.0305 473.795 16.0305L471.749 14.9473C471.689 14.9473 472.712 15.6694 473.193 16.3313Z" fill="#FEB48C"/>
<path d="M502.862 28.3666C502.862 28.3666 496.784 29.51 492.391 25.3578C487.998 21.2055 485.892 19.2798 485.892 19.2798C485.892 19.2798 487.877 20.1223 488.84 21.1453C488.84 21.1453 485.29 16.4515 481.92 15.1878C478.49 13.924 472.893 13.8037 472.893 13.8037C472.893 13.8037 476.504 13.1417 478.189 13.5028C478.189 13.5028 472.833 12.2391 470.606 13.7435C470.606 13.7435 474.458 9.89216 481.017 12.2391C487.577 14.586 492.15 21.025 496.062 22.3489C496.062 22.3489 492.692 21.8073 491.428 20.6639C491.428 20.6639 496.483 25.3578 499.371 25.4179C499.371 25.4179 494.978 25.5985 491.007 21.5064C490.946 21.5064 494.677 28.3666 502.862 28.3666Z" fill="#6D3C12"/>
<path d="M498.588 19.3999C498.588 19.3999 488.177 9.29008 477.586 9.41043C477.586 9.41043 480.474 8.80867 483.182 9.22991C483.182 9.22991 480.474 8.20689 478.489 8.32725C478.489 8.32725 482.942 6.94316 487.636 10.1326C487.636 10.1326 482.821 5.67943 477.586 6.76263C477.586 6.76263 484.687 2.42984 495.459 10.4936C495.459 10.4936 487.816 6.46174 485.349 7.30422C485.349 7.30422 490.825 8.80865 492.871 11.1556C492.871 11.1556 490.103 9.59096 489.08 9.59096C489.08 9.59096 495.459 13.5025 498.528 17.4742C498.528 17.4742 493.232 13.1414 492.089 13.0211C492.209 13.0211 497.926 17.8955 498.588 19.3999Z" fill="#6D3C12"/>
<path d="M497.987 37.0323C497.987 37.0323 500.093 36.1898 499.672 37.3934C499.311 38.5969 497.144 39.1385 497.927 39.7403C498.709 40.4022 499.01 40.7633 498.167 41.004C497.325 41.2447 498.167 40.6429 498.649 41.3651C499.13 42.0872 497.626 44.2536 496.723 43.8323C495.82 43.4111 496.061 41.8465 496.783 41.004C496.843 40.9438 496.843 37.5739 497.987 37.0323Z" fill="#D6A183"/>
<path d="M470.003 16.7529C470.003 16.7529 467.717 18.4378 466.573 21.1458C466.573 21.1458 466.754 19.6414 467.055 18.9192C467.055 18.9192 465.249 19.521 464.467 25.1777C464.467 25.1777 463.926 23.914 464.287 21.6874C464.287 21.6874 461.94 23.4326 461.338 27.5848C461.338 27.5848 461.699 22.0485 464.467 19.0998C467.296 16.2113 468.619 13.082 468.619 13.082C468.619 13.082 468.198 15.7298 467.536 16.7529C467.536 16.7529 468.98 15.2484 468.98 14.7068L468.559 16.2714L469.402 15.0077C469.402 15.0077 468.92 16.6325 468.439 17.2945C468.439 17.2945 468.86 16.9936 470.003 16.7529Z" fill="#6D3C12"/>
<path d="M490.708 320.227C490.708 320.227 494.559 320.106 496.124 326.184C497.688 332.262 501.54 345.26 501.72 346.584C501.961 347.908 499.012 355.069 495.341 356.815C490.527 359.101 481.621 349.413 481.802 345.2C482.102 339.002 482.524 329.013 482.704 323.897C483.005 318.843 489.023 319.745 490.708 320.227Z" fill="#252933"/>
<path d="M481.56 247.593C486.073 247.292 492.632 246.57 498.048 245.968C500.696 252.166 503.645 259.989 504.246 265.225C505.269 274.251 495.701 312.524 494.076 324.74C494.438 325.222 494.979 326.064 495.4 327.749C496.243 331.179 497.988 343.275 497.988 343.275C497.988 343.275 490.345 345.682 485.291 343.275C485.291 343.275 483.906 329.193 483.906 324.921C483.906 324.078 484.268 323.476 484.869 323.055C484.629 311.802 483.967 276.598 483.846 273.529C483.786 271.423 482.522 257.883 481.56 247.593Z" fill="#FEB48C"/>
<path d="M451.41 340.146C452.915 338.16 463.987 321.491 463.987 321.491C463.987 321.491 472.292 320.288 473.255 321.311C473.255 321.311 476.023 326.546 475.301 330.157L474.338 355.191H472.171L471.329 334.309C470.366 340.447 467.478 353.385 466.695 355.191H446.235C443.166 355.191 441.24 353.084 442.624 350.497C444.61 347.006 449.906 342.192 451.41 340.146Z" fill="#252933"/>
<path d="M462.122 322.334C461.34 308.433 458.933 263.781 458.813 260.712C458.752 258.726 458.752 251.324 458.752 245.126C463.145 246.209 469.223 247.413 475.361 247.714C476.745 252.829 478.19 258.666 478.671 263.059C479.694 271.845 474.459 310.057 472.653 323.658L472.112 328.893C472.112 328.893 463.567 342.132 460.798 344.72C459.234 346.164 450.689 344.66 450.388 343.817C450.027 342.854 455.743 336.174 457.428 332.925C458.572 330.578 460.317 325.824 462.122 322.334Z" fill="#FEB48C"/>
<path d="M429.503 114.722C430.406 117.249 440.756 123.869 445.089 118.332C452.611 105.214 460.856 86.9799 468.257 73.9816C469.822 71.2736 467.174 60.6823 466.693 59.4186C466.091 57.7938 455.018 59.539 453.093 62.4275C443.103 77.2913 436.243 92.2153 433.595 98.7145C431.188 104.973 428.661 112.194 429.503 114.722Z" fill="#15234A"/>
<path d="M445.571 163.345C446.594 158.891 451.408 147.398 457.004 140.417C457.606 141.199 458.268 141.741 458.749 141.921C459.833 142.222 460.735 142.523 461.578 142.764C463.323 143.546 465.429 144.028 467.836 144.268C468.318 144.329 468.859 144.389 469.401 144.449C473.854 144.93 478.367 145.051 482.881 144.93C487.574 144.81 495.157 141.801 499.73 140.838C499.73 140.838 499.73 140.838 499.79 140.838C503.401 146.254 508.396 154.619 510.442 162.382C515.196 180.555 507.553 244.945 507.553 244.945C507.553 244.945 484.927 247.834 478.187 247.834C465.73 247.894 452.491 243.441 452.491 243.441C452.491 243.441 444.066 169.603 445.571 163.345Z" fill="#FF7200"/>
<path d="M493.953 246.45C493.231 246.51 492.449 246.63 491.727 246.69C491.245 246.75 490.704 246.811 490.222 246.871C485.288 247.352 480.594 247.773 478.127 247.773H478.067C477.405 247.773 476.803 247.773 476.141 247.713C475.539 247.713 474.877 247.653 474.275 247.593C483.121 247.051 500.392 244.825 500.392 244.825C500.392 244.825 508.095 180.435 503.281 162.261C501.415 155.281 497.203 147.759 493.713 142.403C495.939 141.741 497.985 141.079 499.67 140.718C499.67 140.718 499.67 140.718 499.73 140.718C500.633 142.042 501.596 143.546 502.619 145.171C502.679 145.231 502.679 145.291 502.739 145.351C503.221 146.134 503.702 146.976 504.184 147.819C504.184 147.819 504.184 147.879 504.244 147.879C504.725 148.721 505.207 149.624 505.688 150.527C505.748 150.587 505.748 150.647 505.808 150.767C506.23 151.61 506.711 152.513 507.132 153.355C507.193 153.415 507.192 153.475 507.253 153.596C507.674 154.498 508.095 155.461 508.516 156.364C508.516 156.424 508.577 156.484 508.577 156.544C508.938 157.447 509.299 158.35 509.6 159.252C509.6 159.313 509.66 159.433 509.66 159.493C509.961 160.456 510.262 161.359 510.502 162.321C511.646 166.594 512.067 173.394 512.067 181.277C512.067 185.49 511.947 190.063 511.766 194.757C511.706 196.442 511.585 198.127 511.525 199.872C511.525 199.932 511.525 199.993 511.525 200.053C511.465 201.136 511.405 202.279 511.345 203.362C511.285 203.964 511.285 204.566 511.224 205.228C509.9 225.628 507.614 244.885 507.614 244.885C507.614 244.885 500.994 245.667 493.953 246.45Z" fill="#FF7200"/>
<path d="M501.537 120.257C502.741 125.673 502.019 133.135 503.282 136.324C504.606 139.514 503.704 139.935 499.672 140.777C495.098 141.74 487.516 144.749 482.822 144.869C478.309 144.99 473.795 144.869 469.342 144.388C464.949 143.907 462.963 143.064 458.751 141.861C457.668 141.56 455.622 139.273 455.742 136.264C455.802 134.639 458.931 123.145 459.593 118.873C460.737 111.23 458.631 101.481 458.631 101.481C455.862 97.9912 451.83 92.1539 450.507 88.0017C451.65 78.4936 457.246 67.3007 457.908 60.3803L471.809 55.7466C471.809 55.7466 475.54 69.5272 480.656 69.5272C485.71 69.5272 491.367 55.7466 491.367 55.7466C496.843 58.9962 505.268 60.3802 510.744 63.5697C511.406 70.4901 510.684 79.6972 510.684 86.1362C510.624 92.6354 499.19 109.605 501.537 120.257Z" fill="#15234A"/>
<path d="M460.377 101.903C460.677 107.74 462.964 116.406 461.279 122.243C459.835 126.997 466.755 128.02 468.801 130.788C466.274 130.006 462.964 127.479 460.377 128.261C457.247 129.164 456.284 137.588 458.571 140.477C463.686 147.097 483.485 143.666 491.549 141.741C496.964 140.417 501.237 139.033 500.816 134.459C500.395 129.404 497.386 116.165 487.757 113.517C503.885 111.11 503.343 94.4412 506.713 82.5261C507.375 79.7579 509.18 77.5314 510.865 75.2446C510.745 79.1562 510.565 83.0677 510.565 86.2571C510.565 92.6961 499.131 109.666 501.478 120.257C502.681 125.673 501.959 133.135 503.223 136.325C504.547 139.514 503.644 139.935 499.612 140.778C495.039 141.741 487.456 144.75 482.763 144.87C478.249 144.99 473.736 144.87 469.283 144.389C464.89 143.907 462.904 143.065 458.692 141.861C457.608 141.56 455.562 139.273 455.683 136.265C455.743 134.64 458.872 123.146 459.534 118.873C460.677 111.231 458.571 101.482 458.571 101.482C455.803 97.9917 451.771 92.1545 450.447 88.0022C450.748 85.2942 451.47 82.4057 452.313 79.5172C453.155 88.1226 452.794 96.1262 460.377 101.903Z" fill="#0D1937"/>
<path d="M480.475 79.0957C480.475 79.3966 480.716 79.5771 481.017 79.5771C481.318 79.5771 481.559 79.3364 481.559 79.0957C481.559 78.7948 481.318 78.6143 481.017 78.6143C480.716 78.6143 480.475 78.855 480.475 79.0957Z" fill="white"/>
<path d="M478.31 92.8164C478.31 93.1173 478.551 93.2978 478.852 93.2978C479.153 93.2978 479.393 93.0571 479.393 92.8164C479.393 92.5155 479.153 92.335 478.852 92.335C478.551 92.335 478.31 92.5757 478.31 92.8164Z" fill="white"/>
<path d="M477.529 105.635C477.529 105.936 477.77 106.116 478.07 106.116C478.371 106.116 478.612 105.875 478.612 105.635C478.612 105.334 478.371 105.153 478.07 105.153C477.709 105.153 477.529 105.394 477.529 105.635Z" fill="white"/>
<path d="M477.047 120.257C477.047 120.558 477.288 120.739 477.589 120.739C477.89 120.739 478.131 120.498 478.131 120.257C478.131 119.956 477.89 119.776 477.589 119.776C477.288 119.776 477.047 120.017 477.047 120.257Z" fill="white"/>
<path d="M475.06 138.25C475.06 138.551 475.301 138.732 475.602 138.732C475.903 138.732 476.144 138.491 476.144 138.25C476.144 137.95 475.903 137.769 475.602 137.769C475.301 137.769 475.06 137.95 475.06 138.25Z" fill="white"/>
<path d="M480.296 70.4306C480.055 71.8749 479.815 73.3191 479.634 74.7633C479.153 77.8324 478.671 80.9015 478.19 83.9103C477.709 86.7387 477.287 89.6272 476.806 92.4555C476.686 93.2378 476.565 93.96 476.385 94.7423C476.264 95.4644 476.204 96.1865 476.204 96.8485C476.144 99.9175 476.204 102.987 476.264 105.995C476.324 109.185 476.445 112.434 476.445 115.624C476.445 116.466 476.445 117.369 476.385 118.272C476.324 118.934 476.204 119.596 476.144 120.258C475.783 122.966 475.482 125.734 475.121 128.442C474.76 131.631 474.339 134.82 473.978 138.01C473.737 139.936 473.496 141.921 473.255 143.847C473.255 143.967 473.255 144.028 473.195 144.148C473.135 144.509 473.797 144.509 473.857 144.148C474.038 142.764 474.218 141.38 474.339 139.936C474.7 136.927 475.061 133.858 475.422 130.849C475.783 127.84 476.144 124.831 476.505 121.822C476.686 120.258 476.986 118.693 476.986 117.128C477.047 114.3 476.986 111.411 476.926 108.583C476.866 105.273 476.746 101.964 476.806 98.5936C476.806 97.5104 476.806 96.4874 476.866 95.4042C476.926 94.9228 477.047 94.3812 477.167 93.7794C477.588 91.252 478.009 88.7245 478.431 86.1971C478.912 83.0077 479.454 79.8784 479.935 76.689C480.236 74.7032 480.597 72.6571 480.898 70.6713C480.898 70.5509 480.958 70.4907 480.958 70.3704C481.018 70.1899 480.356 70.0695 480.296 70.4306Z" fill="white"/>
<path d="M473.674 54.9043C473.674 54.9043 475.6 67.4212 479.933 69.4672C479.933 69.4672 474.456 69.4672 474.156 69.7681C473.674 70.2495 469.763 75.4248 469.763 75.4248C469.763 75.4248 468.86 59.6583 468.86 58.1539C468.74 57.0707 471.207 55.5061 473.674 54.9043Z" fill="#ECF4F8"/>
<path d="M489.741 55.2051C489.741 55.2051 484.025 68.8654 479.391 69.5273C479.391 69.5273 485.409 69.8884 486.131 70.8512C486.973 71.9946 489.38 76.6283 489.38 76.6283C489.38 76.6283 495.398 59.1768 495.398 57.7927C495.398 56.3485 489.741 55.2051 489.741 55.2051Z" fill="#ECF4F8"/>
<path d="M517.724 124.771C515.678 126.757 507.735 129.285 503.282 124.771C501.958 109.968 500.393 88.7852 499.13 74.1018C498.829 71.0328 504.606 62.5478 505.568 61.5849C506.832 60.3212 517.664 65.7372 517.905 69.1071C519.289 87.2807 521.215 104.13 521.154 119.716C521.094 119.777 519.77 122.785 517.724 124.771Z" fill="#15234A"/>
<path d="M468.38 92.816C468.38 92.2143 468.26 91.432 468.14 90.5293C476.625 94.0196 495.581 102.023 505.51 107.259C509.542 110.027 515.981 121.099 512.43 124.349C508.88 127.599 502.2 124.469 500.696 123.446C494.858 119.535 470.787 102.986 462.724 97.4497C465.672 97.1488 468.441 94.9222 468.38 92.816Z" fill="#FEB48C"/>
<path d="M455.441 93.6587C457.849 93.2976 460.316 92.8162 462.663 92.3348C463.505 92.1542 464.107 91.4321 463.987 90.6498C463.144 82.225 461.459 72.1753 460.075 65.2549C459.895 64.2921 458.872 63.6301 457.788 63.6903C454.84 63.8708 451.891 64.2319 449.002 64.6531C446.114 65.0744 443.225 65.6762 440.397 66.3381C439.374 66.5788 438.712 67.5417 438.953 68.4443C440.578 75.3045 443.225 85.1737 446.054 93.3578C446.295 94.1401 447.137 94.6215 448.04 94.5613C450.567 94.3206 453.034 94.0198 455.441 93.6587Z" fill="#5C93FF"/>
<path d="M448.099 94.3205C453.034 93.8993 457.848 93.1772 462.662 92.1542C463.445 91.9736 463.926 91.3718 463.866 90.6497C463.084 82.947 461.459 72.7168 459.954 65.315C459.774 64.4725 458.871 63.8707 457.968 63.9309C452.071 64.3521 446.294 65.1947 440.637 66.5186C439.735 66.7593 439.133 67.5416 439.374 68.384C441.119 75.7859 443.887 85.8355 446.475 93.2373C446.595 93.9595 447.317 94.3807 448.099 94.3205Z" fill="#84ADFF"/>
<path d="M454.539 88.7238C458.751 84.8122 460.677 80.0582 461.7 75.0635C462.542 80.1786 463.325 85.3538 463.806 90.6495C463.866 91.3716 463.385 91.9734 462.602 92.1539C457.848 93.2371 452.974 93.9592 448.039 94.3203C447.257 94.3804 446.535 93.9592 446.294 93.2973C446.174 92.876 445.993 92.4548 445.873 92.0335C449.002 91.7928 452.011 90.83 454.539 88.7238Z" fill="#84ADFF"/>
<path d="M460.254 97.2698C456.764 96.1866 453.635 95.284 453.635 95.284C452.371 94.5619 450.927 93.6592 450.927 92.3353C450.927 91.6131 451.348 90.9512 451.769 90.2893C453.153 88.3034 457.185 87.4007 459.111 84.8733C460.435 83.1281 463.745 79.7582 464.527 80.721C466.633 83.3087 468.318 89.9282 468.378 92.8769C468.438 95.4645 463.985 98.4132 460.254 97.2698Z" fill="#FEB48C"/>
<path d="M461.821 81.2625C462.663 79.397 461.64 77.3509 461.159 73.8005C460.798 71.3934 463.806 69.5279 464.468 71.5137C465.01 73.2589 466.454 78.5545 466.755 79.5173C466.996 80.42 466.695 84.8129 466.214 85.8359C465.612 86.7988 460.316 84.6926 461.821 81.2625Z" fill="#FEB48C"/>
<path d="M458.15 86.3775C455.683 83.9704 454.118 83.7899 452.313 80.8412C450.749 78.3137 446.837 72.5969 445.272 70.0092C444.189 68.2641 448.101 69.0464 449.184 70.7915C450.749 73.4394 452.734 75.5456 455.021 78.5545C456.887 81.0217 460.076 82.2252 462.242 84.3916C463.687 85.8961 459.655 87.8218 458.15 86.3775Z" fill="#FEB48C"/>
<path d="M456.704 89.1458C453.455 87.6413 451.95 87.9422 449.122 85.7758C446.715 83.9103 443.766 81.6236 441.299 79.6979C439.614 78.374 443.526 77.8926 445.211 79.2165C447.738 81.2023 447.377 80.6608 450.687 82.767C453.395 84.4519 456.825 84.6325 459.713 86.0165C461.579 86.9192 458.63 90.0484 456.704 89.1458Z" fill="#FEB48C"/>
<path d="M454.479 92.8162C451.23 91.3117 448.522 90.5294 447.198 89.687C446.596 89.3259 444.43 87.34 443.948 86.6179C443.467 85.8958 442.323 84.3312 442.323 84.3312C442.143 83.5488 443.226 82.7665 443.948 83.3081C444.791 83.9099 447.077 86.0763 449.003 87.2799C449.003 87.2799 454.058 88.4834 457.488 89.687C459.474 90.3489 456.405 93.7188 454.479 92.8162Z" fill="#FEB48C"/>
<path d="M452.672 93.6586C451.228 94.0197 449.784 94.802 448.219 93.779C446.474 92.6958 444.789 91.1311 443.345 89.5064C441.961 88.0019 443.104 86.8586 444.669 88.1223C446.173 89.3258 449.122 91.2515 449.784 91.071C450.386 90.9506 452.251 90.5895 452.853 90.409C454.357 90.0479 454.177 93.2975 452.672 93.6586Z" fill="#FEB48C"/>
<path d="M417.168 70.3101C417.409 71.3933 423.547 71.9951 424.75 70.8517C425.292 70.3101 426.194 69.2871 427.037 68.0835C436.244 91.8536 442.202 101.061 445.451 109.064C449.363 123.026 431.731 125.673 427.097 109.787C426.014 106.176 418.07 74.7632 416.024 66.8198C416.566 68.5048 417.047 69.8287 417.168 70.3101Z" fill="#FEAD82"/>
<path d="M427.697 60.5605C427.697 60.5605 424.086 43.8311 423.665 41.6046C423.244 39.4382 420.716 39.3178 421.077 41.7249C421.438 44.132 423.003 59.2366 423.123 61.1623C423.304 63.0278 427.817 62.9676 427.697 60.5605Z" fill="#FEAD82"/>
<path d="M424.748 70.8511C425.951 69.7679 428.479 66.1573 429.742 64.1112C431.006 62.0652 429.863 57.3713 425.41 57.1306C420.957 56.9501 413.795 58.2138 414.397 61.1625C414.999 64.1112 416.864 69.1661 417.105 70.2493C417.406 71.3927 423.544 71.9945 424.748 70.8511Z" fill="#FEAD82"/>
<path d="M429.626 64.4722C429.626 64.4722 430.589 62.727 431.371 61.4633C431.732 60.8615 431.551 60.3801 431.311 57.9128C431.07 55.4456 430.769 53.8208 430.769 53.8208C430.769 53.8208 424.39 53.3394 423.307 53.2792C422.224 53.219 422.164 56.3482 425.413 57.0102L427.098 57.5518C427.098 57.5518 425.233 59.8385 425.293 62.4261C425.293 65.0138 428.422 66.3377 429.626 64.4722Z" fill="#FEAD82"/>
<path d="M418.972 50.4513C419.935 49.669 421.138 49.8496 422.041 50.331C422.823 50.7522 422.943 57.9133 423.124 60.0195C423.365 61.7647 420.356 62.8479 419.995 60.0797C419.513 57.3116 418.37 50.9328 418.972 50.4513Z" fill="#FFBD99"/>
<path d="M415.663 52.1356C415.964 51.1126 418.131 51.2329 418.732 52.0153C419.214 52.6772 419.936 60.3198 420.177 62.0649C420.297 63.0277 417.77 64.3516 417.348 61.5835C416.987 58.8153 415.483 52.7976 415.663 52.1356Z" fill="#FFBD99"/>
<path d="M413.015 54.483C413.376 53.3999 415.001 53.2795 415.603 54.0618C416.084 54.6034 417.167 60.4406 417.228 62.1256C417.468 63.0884 415.844 64.3522 415.061 61.8849C414.279 59.3574 412.835 55.0848 413.015 54.483Z" fill="#FFBD99"/>
<path d="M424.509 56.7092C424.509 56.649 424.629 56.5889 424.69 56.5889L427.337 57.4313L427.217 57.6119C424.509 61.2827 425.652 63.5694 425.713 63.5694C425.773 63.6296 425.713 63.75 425.652 63.75H425.592C425.532 63.75 425.472 63.6898 425.472 63.6898C425.412 63.5694 424.208 61.3429 426.916 57.5517L424.69 56.8296C424.509 56.8897 424.509 56.7694 424.509 56.7092Z" fill="#BA6549"/>
<path d="M230.278 358.302L229.077 366.016L219.024 366.458L219.277 357.607L230.278 358.302Z" fill="#FBCEBF"/>
<path d="M216.307 378.029L248.488 378.408C248.488 378.408 249.626 371.769 245.011 372.086C240.395 372.402 234.768 369.051 231.607 365.7C228.446 362.349 218.646 363.74 217.382 365.51C216.18 367.407 216.307 378.029 216.307 378.029Z" fill="#19232D"/>
<path d="M286.044 357.481L286.992 365.384L276.94 365.763L275.738 356.912L286.044 357.481Z" fill="#FBCEBF"/>
<path d="M274.221 377.397L306.402 377.776C306.402 377.776 307.54 371.138 302.925 371.454C298.309 371.77 292.682 368.419 289.521 365.131C286.36 361.781 276.56 363.171 275.295 364.942C274.094 366.775 274.221 377.397 274.221 377.397Z" fill="#19232D"/>
<path d="M249.439 227.175L212.579 198.787C211.125 197.27 208.659 190.948 207.458 183.803L192.347 189.873C195.318 203.656 201.451 213.203 209.544 217.755C222.126 224.836 242.927 236.596 242.927 236.596L249.439 227.175Z" fill="#F7BB8D"/>
<path d="M219.276 240.136C197.843 233.182 184.946 240.2 184.756 270.231L270.552 270.484C270.552 270.484 269.856 255.247 263.028 250.126C259.551 247.597 234.64 242.665 219.276 240.136Z" fill="#3D61C5"/>
<path d="M211.059 254.805C211.059 254.805 219.847 258.092 233.124 260.179C246.465 262.265 252.408 262.455 253.799 264.794C255.19 267.133 253.483 289.452 255.569 299.504C257.339 308.166 275.864 351.349 280.163 363.804H275.864C275.864 363.804 249.563 312.149 247.35 296.154C246.275 285.658 245.706 276.617 245.706 276.617H217.508C212.07 275.289 211.059 254.805 211.059 254.805Z" fill="#3B5EBF"/>
<path d="M149.098 239.441C149.098 239.441 149.983 261.253 156.811 270.484L237.676 270.547C237.676 270.547 240.963 256.006 234.641 250.189C227.18 243.298 173.755 240.01 149.098 239.441Z" fill="#476CD2"/>
<path d="M208.91 293.308C209.163 284.583 209.479 282.434 211.249 276.68H162.187C155.422 271.243 152.134 262.644 150.807 257.966L170.533 248.988C170.533 248.988 172.493 258.282 176.223 260.431C179.953 262.518 221.492 262.581 223.136 264.225C224.779 265.932 217.698 282.434 216.497 294.383C215.232 306.332 222.503 363.867 222.503 363.867H217.888C217.888 363.804 208.467 309.304 208.91 293.308Z" fill="#476CD2"/>
<path d="M192.029 241.97C192.029 241.97 170.596 245.574 150.807 257.902L151.818 261.19C151.755 261.253 171.291 248.292 192.029 241.97Z" fill="#476CD2"/>
<path d="M270.3 269.156C270.3 269.156 281.491 327.07 288.193 363.804H275.674C275.674 363.804 249.373 312.149 247.16 296.153C244.947 280.157 247.223 262.581 247.223 262.581L270.3 269.156Z" fill="#3D61C5"/>
<path d="M237.676 270.548C237.676 270.548 233.82 327.07 231.228 363.867H217.887C217.887 363.867 208.404 309.368 208.846 293.372C209.289 277.376 215.738 262.645 215.738 262.645L237.676 270.548Z" fill="#476CD2"/>
<path d="M208.909 293.308C209.288 278.956 214.472 265.742 215.547 263.087C216.243 263.15 216.938 263.213 217.57 263.213L223.324 265.3C223.197 269.599 217.507 283.698 216.432 294.257C215.168 306.206 222.439 363.74 222.439 363.74H217.823C217.823 363.74 217.254 360.326 216.369 354.952C213.777 338.956 208.592 305.321 208.909 293.308Z" fill="#456AD0"/>
<path d="M247.222 262.581C249.688 262.771 251.9 263.087 253.291 264.351C254.682 266.691 253.291 289.451 255.378 299.504C257.148 308.166 275.673 351.348 279.972 363.804H275.673C270.109 350.779 249.055 310.063 247.159 296.153C245.831 286.037 245.009 270.611 247.222 262.581Z" fill="#3B5EBF"/>
<path d="M197.908 198.977C199.868 198.408 202.081 197.649 204.357 196.511C207.771 194.804 206.444 195.879 210.427 193.35C210.427 193.35 209.731 175.078 204.294 164.646C198.857 154.151 168.888 140.684 168.888 140.684C168.888 140.684 167.561 140.747 165.411 141V141.19C165.411 141.19 164.652 141.19 163.388 141.316C162.123 141.506 160.732 141.759 159.278 142.075C150.996 144.161 137.15 151.369 135 176.28C136.517 201.885 143.851 243.93 150.869 257.65C150.869 257.65 200.88 242.096 205.875 237.86C204.041 232.676 200.817 224.899 199.552 217.565C198.351 210.484 197.972 204.225 197.908 198.977Z" fill="#FF7200"/>
<path d="M203.914 232.992L168.951 209.472C167.307 206.437 166.232 201.822 166.169 191.074L146.633 186.142C142.27 203.529 150.047 220.157 162.439 226.353C177.423 233.813 202.017 241.4 202.017 241.4L203.914 232.992Z" fill="#FDC596"/>
<path d="M166.551 186.648C166.551 186.648 146.129 188.545 142.841 179.757C139.554 171.032 140.945 154.024 158.015 142.265C157.952 142.265 157.952 142.265 157.889 142.328C157.762 142.391 157.636 142.391 157.509 142.454C149.227 145.11 137.151 152.886 135.065 175.774C135.57 177.734 136.14 179.757 136.835 181.843C138.542 187.281 140.376 192.212 142.272 196.638C150.744 195.247 159.28 193.856 167.752 192.528L166.551 186.648Z" fill="#FF7200"/>
<path d="M194.686 183.74C194.875 185.005 195.128 186.269 195.444 187.534C195.697 188.798 196.013 190.063 196.266 191.327C196.835 193.793 197.467 196.259 198.036 198.724C199.617 198.282 201.134 197.713 202.652 197.144C204.232 196.512 205.75 195.753 207.204 194.994C208.279 194.425 209.354 193.73 210.428 193.034V193.414C209.417 194.109 208.405 194.741 207.33 195.31C205.813 196.132 204.296 196.828 202.715 197.523C201.134 198.155 199.554 198.724 197.91 199.167L197.72 199.23V199.041C197.151 196.512 196.582 193.983 196.013 191.454C195.76 190.189 195.507 188.925 195.255 187.66C195.065 186.332 194.812 185.005 194.686 183.74Z" fill="#FF7200"/>
<path d="M165.476 141.127L169.712 134.805L187.415 141.507L185.012 152.128C185.012 152.191 172.177 160.537 165.476 141.127Z" fill="#F4B17F"/>
<path d="M142.208 196.701C146.507 196.069 150.743 195.5 155.043 194.804C157.192 194.488 159.342 194.109 161.428 193.793C163.578 193.413 165.728 193.097 167.814 192.655H167.94L167.877 192.465C166.929 187.913 165.98 183.297 164.906 178.808C164.337 176.532 163.768 174.256 163.199 172.043C162.566 169.831 161.934 167.554 161.112 165.405H161.049C161.808 167.618 162.44 169.83 163.072 172.107C163.704 174.383 164.21 176.596 164.716 178.872C165.791 183.424 166.676 187.976 167.561 192.591L167.688 192.402C165.601 192.844 163.451 193.224 161.302 193.603C159.152 193.982 157.066 194.362 154.916 194.678C150.743 195.31 146.507 196.005 142.208 196.701Z" fill="#FF7200"/>
<path d="M201.957 233.877C205.94 231.728 210.429 228.25 211.756 229.641C214.665 232.739 211.377 239.568 208.469 241.022C205.497 242.223 201.072 240.2 201.072 240.2C201.072 240.2 198.037 235.964 201.957 233.877Z" fill="#FDC596"/>
<path d="M221.241 228.629C221.431 227.871 217.194 226.353 216.246 226.416C215.424 226.48 214.539 226.416 208.659 229.957L212.453 231.474C212.453 231.474 215.804 228.693 216.373 228.503C216.878 228.376 219.597 230.336 221.241 228.629Z" fill="#FDC596"/>
<path d="M221.746 239.125C222.379 238.366 219.091 235.268 218.206 234.762C217.068 234.13 216.878 233.498 210.619 231.222L212.452 235.521C212.452 235.521 216.941 236.596 217.51 236.975C218.016 237.228 220.292 239.567 221.746 239.125Z" fill="#FDC596"/>
<path d="M219.723 242.096C220.355 241.337 217.194 238.366 216.309 237.923C215.234 237.291 215.044 236.722 208.975 234.509L210.745 238.618C210.745 238.618 215.044 239.693 215.55 240.009C216.119 240.325 218.332 242.538 219.723 242.096Z" fill="#FDC596"/>
<path d="M215.676 243.677C216.182 243.045 213.526 240.516 212.768 240.136C211.819 239.631 211.693 239.125 206.572 237.228L208.089 240.705C208.089 240.705 211.756 241.591 212.199 241.843C212.641 242.16 214.475 244.056 215.676 243.677Z" fill="#E0BC9B"/>
<path d="M241.343 228.44C245.326 226.29 249.815 222.813 251.143 224.204C254.051 227.302 250.764 234.13 247.855 235.584C244.884 236.786 240.458 234.762 240.458 234.762C240.458 234.762 237.423 230.59 241.343 228.44Z" fill="#E0BC9B"/>
<path d="M260.564 223.255C260.754 222.497 256.517 220.979 255.569 221.042C254.747 221.106 253.862 221.042 247.982 224.583L251.776 226.1C251.776 226.1 255.127 223.319 255.696 223.129C256.265 223.002 258.983 224.899 260.564 223.255Z" fill="#E0BC9B"/>
<path d="M261.132 233.751C261.765 232.992 258.477 229.894 257.592 229.388C256.454 228.756 256.264 228.124 250.005 225.848L251.838 230.147C251.838 230.147 256.327 231.222 256.896 231.601C257.402 231.854 259.678 234.193 261.132 233.751Z" fill="#E0BC9B"/>
<path d="M259.11 236.722C259.742 235.964 256.581 232.992 255.695 232.549C254.621 231.917 254.431 231.348 248.361 229.135L250.132 233.245C250.132 233.245 254.431 234.32 254.937 234.636C255.506 234.889 257.719 237.165 259.11 236.722Z" fill="#E0BC9B"/>
<path d="M255 238.239C255.506 237.607 252.85 235.078 252.092 234.699C251.143 234.193 251.017 233.687 245.896 231.791L247.413 235.268C247.413 235.268 251.08 236.153 251.523 236.406C251.965 236.722 253.862 238.619 255 238.239Z" fill="#E0BC9B"/>
<path d="M206.19 118.682C206.19 118.682 203.661 128.419 202.017 133.54C200.373 138.661 196.833 150.484 186.021 148.903C175.21 147.323 170.974 140.431 167.876 137.08C167.876 137.08 158.961 122.412 161.743 119.567C164.525 116.722 169.52 106.986 179.762 110.273C190.068 113.434 206.19 118.682 206.19 118.682Z" fill="#F7C39F"/>
<path d="M197.087 99.1456C195 97.5017 192.977 95.7947 191.08 94.0876C187.856 91.2425 183.683 89.7251 179.447 90.0412C170.659 90.7367 165.98 97.3753 165.98 97.3753L161.491 99.7146C157.002 102.054 155.738 112.865 158.393 119.567C163.261 132.022 168.256 137.649 168.256 137.649C168.699 137.776 168.762 137.46 168.699 136.827C168.825 134.298 169.774 132.781 169.774 132.781C162.629 128.482 164.02 121.211 167.497 120.958C170.975 120.768 171.86 127.533 171.86 127.533L172.935 125.573C175.337 120.199 174.199 113.181 174.199 113.181C174.199 113.181 174.389 113.308 174.642 113.561V113.624C174.642 113.624 176.475 117.607 180.838 118.808C180.838 118.808 180.332 118.05 179.7 116.975C182.924 118.745 187.413 120.389 192.661 120.452C192.661 120.452 189.373 119.125 187.097 117.354C190.448 118.113 194.305 118.682 198.604 118.998C213.335 119.946 218.014 111.221 218.014 111.221C210.806 108.376 204.8 105.342 197.087 99.1456Z" fill="#221E52"/>
<path d="M270.613 241.085H201.256L215.798 187.281L285.218 187.218L270.613 241.085Z" fill="#BDC3CA"/>
<path d="M270.233 241.846L168.125 241.969L168.13 246.142L270.238 246.018L270.233 241.846Z" fill="#D4D8DD"/>
<path d="M270.677 241.022L202.9 241.085L217.189 188.293L284.966 188.229L270.677 241.022Z" fill="#E0DEDE"/>
<path d="M250.384 214.088C249.562 216.681 246.527 218.767 243.682 218.767C240.837 218.767 239.256 216.681 240.078 214.152C240.9 211.559 243.935 209.473 246.78 209.473C249.625 209.41 251.269 211.496 250.384 214.088Z" fill="#8394B4"/>
<path opacity="0.2" d="M202.9 241.085L217.189 188.293L284.966 188.229L202.9 241.085Z" fill="#A5C0D7"/>
<path d="M201.065 241.89L168.125 241.925L168.129 246.098L201.069 246.062L201.065 241.89Z" fill="#BDC3CA"/>
<path d="M222.499 241.078L209.791 241.094L209.793 242.927L222.501 242.911L222.499 241.078Z" fill="#8394B4"/>
<path d="M265.998 241.015L255.123 241.029L255.126 242.862L266 242.849L265.998 241.015Z" fill="#8394B4"/>
<path d="M217.632 188.988L284.776 188.925L284.966 188.229L217.189 188.293L202.9 241.085H203.533L217.632 188.988Z" fill="#BAD6F2"/>
</svg>
