<svg width="1218" height="5395" viewBox="0 0 1218 5395" fill="none" xmlns="http://www.w3.org/2000/svg">
<path d="M993 1492C1180.69 1389.52 1417.41 1547.5 1440 1619V1227H0V1460.5C407.699 1695.5 732 1634.5 993 1492Z" fill="#F3F8FF"/>
<path d="M811.5 3957.53C999.192 3839.11 1417.41 3994.38 1440 4077.01V3624H0V3893.84C391 4175.27 550.5 4122.21 811.5 3957.53Z" fill="#F3F8FF"/>
<rect y="4832" width="1440" height="563" fill="#F3F8FF"/>
<path d="M528 4113C594 4041 607.393 3915.04 551.132 3843.59C494.871 3772.14 418.565 3732 339 3732C259.435 3732 183.129 3772.14 126.868 3843.59C70.607 3915.04 34.4999 4055 139 4113L339 4113H528Z" fill="#EBEFF9"/>
<path d="M0 4832C-7.87163e-06 4941.8 35.7686 5047.1 99.4372 5124.74C163.106 5202.38 249.459 5246 339.5 5246C429.541 5246 515.894 5202.38 579.563 5124.74C643.231 5047.1 679 4941.8 679 4832L339.5 4832L0 4832Z" fill="#ECF1FD"/>
<rect width="1440" height="570" fill="#F3F8FF"/>
<path d="M1440 2972H0V2420H1440V2972Z" fill="#F3F8FF"/>
</svg>
