<svg width="645" height="570" viewBox="0 0 645 570" fill="none" xmlns="http://www.w3.org/2000/svg">
<path d="M330.5 308.432C108.1 294.046 36.8332 96.8164 28.9999 0H645V570C632.833 488.805 552.9 322.818 330.5 308.432Z" fill="#E4ECF8"/>
<path d="M278.821 197.197L271.132 193.353C271.132 193.353 268.792 188.171 268.625 188.339C268.458 188.339 253.75 185.33 253.75 185.33C253.75 185.33 253.582 194.021 255.254 195.86C256.925 197.699 266.954 198.534 267.455 198.869C267.957 199.203 269.127 198.2 269.127 198.2L277.316 203.548L278.821 197.197Z" fill="#EBB376"/>
<path d="M363.729 131.845C363.729 131.845 360.554 124.323 350.024 124.323C339.661 124.323 330.969 130.507 331.471 138.53C331.972 146.386 325.955 145.717 324.952 153.406C323.95 161.094 327.627 163.1 327.961 166.276C328.128 169.451 323.95 168.449 321.275 173.964C318.601 179.48 315.091 187.168 326.791 197.197C338.491 207.393 371.418 205.554 378.605 199.37C385.792 193.185 385.625 181.318 378.605 177.976C371.585 174.8 378.103 175.301 378.772 168.114C379.441 160.927 373.089 158.253 373.591 152.57C374.092 146.887 375.763 132.179 363.729 131.845Z" fill="#263238"/>
<path d="M323.28 179.981V200.373C323.28 200.373 321.608 202.546 318.934 205.387C316.427 208.061 313.251 211.237 309.908 213.577C306.733 215.917 303.557 217.421 301.05 217.087C293.027 216.084 271.132 203.548 271.132 203.548L274.809 193.854C274.809 193.854 299.546 206.557 301.05 205.22C302.387 204.05 318.767 181.151 323.28 179.981Z" fill="#476CD2"/>
<path opacity="0.2" d="M318.767 205.387C316.26 208.061 313.085 211.237 309.742 213.577C308.572 204.384 319.102 193.186 319.102 193.186C319.102 193.186 319.269 199.203 318.767 205.387Z" fill="black"/>
<path d="M326.121 254.025C326.121 254.025 312.583 326.398 308.906 356.149C304.226 394.926 284.838 451.587 284.838 451.587L292.526 453.592C292.526 453.592 319.77 405.456 325.119 361.999C346.847 317.706 348.518 263.051 348.518 263.051L326.121 254.025Z" fill="#EBB376"/>
<path d="M270.296 469.303C271.466 468.802 272.97 468.3 274.307 468.3C274.307 468.3 278.987 465.459 283.834 454.595H289.183C291.021 454.595 292.693 455.765 293.194 457.436C293.361 457.603 293.361 457.938 293.361 458.105C293.361 459.442 293.194 460.612 293.027 461.949C292.525 465.96 289.851 474.485 289.851 474.485L289.015 474.317L290.687 466.462C291.188 463.787 288.347 466.295 287.01 469.136C285.673 471.81 283.667 474.652 277.817 473.315C270.964 471.476 268.123 470.473 270.296 469.303Z" fill="#263238"/>
<path d="M340.162 252.855C340.162 252.855 341.833 326.565 344.508 356.316C347.85 395.26 340.663 454.762 340.663 454.762L348.686 455.097C348.686 455.097 365.4 402.28 361.723 358.656C373.757 310.854 364.23 257.034 364.23 257.034L340.162 252.855Z" fill="#EBB376"/>
<path d="M328.128 471.644C329.298 470.975 330.635 470.474 331.972 470.139C331.972 470.139 336.485 466.796 339.995 455.431L345.344 454.762C347.182 454.595 348.854 455.598 349.689 457.269C349.856 457.436 349.856 457.771 349.856 457.938C350.024 459.275 350.024 460.445 349.856 461.782C349.856 465.794 348.185 474.485 348.185 474.485L347.349 474.318L348.185 466.295C348.352 463.621 345.845 466.462 344.842 469.304C343.839 472.145 342.168 475.153 336.151 474.318C329.131 473.816 326.29 473.148 328.128 471.644Z" fill="#263238"/>
<path d="M284.672 451.753C284.672 451.753 277.987 465.626 274.309 468.3C274.309 468.3 279.491 471.309 284.672 464.623C291.525 455.765 293.196 458.272 293.196 458.272C293.196 458.272 292.862 455.263 292.361 453.759C291.525 450.918 284.672 451.753 284.672 451.753Z" fill="#EBB376"/>
<path d="M341.499 451.586C341.499 451.586 339.661 456.767 337.154 462.283C334.647 467.966 332.139 470.139 332.139 470.139C332.139 470.139 336.485 471.476 338.825 468.802C341.165 466.127 345.176 456.266 349.689 457.269C349.689 457.269 349.355 456.099 348.686 454.929C348.018 454.093 341.499 451.586 341.499 451.586Z" fill="#EBB376"/>
<path d="M321.441 241.991C321.441 241.991 316.093 295.644 308.07 349.296C300.716 398.268 286.509 439.552 286.509 439.552L302.387 440.889C302.387 440.889 332.807 365.509 342 321.885C342 321.885 345.342 399.271 339.994 442.227L353.867 441.558C353.867 441.558 387.796 295.978 362.391 243.495L321.441 241.991Z" fill="#407BFF"/>
<path opacity="0.4" d="M354.033 441.558L340.16 442.227C345.508 399.271 342.165 321.885 342.165 321.885C339.826 332.916 336.148 345.953 331.97 359.324C319.601 398.77 302.553 440.889 302.553 440.889L286.675 439.552C286.675 439.552 300.882 398.268 308.236 349.296C316.259 295.476 321.607 241.991 321.607 241.991L362.724 243.495C387.962 295.978 354.033 441.558 354.033 441.558Z" fill="white"/>
<path opacity="0.2" d="M342.166 321.885C339.826 332.916 336.149 345.953 331.97 359.324C330.299 334.253 336.817 289.292 336.817 289.292L342.166 321.885Z" fill="black"/>
<path d="M362.559 240.988V247.006L321.275 244.666L321.108 237.479L362.559 240.988Z" fill="#263238"/>
<path d="M330.165 245.634L339.169 246.269L339.651 239.433L330.648 238.798L330.165 245.634Z" fill="white"/>
<path d="M348.329 249.108L350.333 249.173L350.672 238.648L348.667 238.584L348.329 249.108Z" fill="#407BFF"/>
<path opacity="0.4" d="M348.329 249.108L350.333 249.173L350.672 238.648L348.667 238.584L348.329 249.108Z" fill="white"/>
<path d="M322.928 246.853L324.933 246.917L325.271 236.392L323.266 236.328L322.928 246.853Z" fill="#407BFF"/>
<path opacity="0.4" d="M322.928 246.853L324.933 246.917L325.271 236.392L323.266 236.328L322.928 246.853Z" fill="white"/>
<path d="M321.107 238.147L362.391 240.821C363.059 230.625 363.728 227.45 366.903 215.081C367.906 211.07 369.076 206.724 370.748 201.543C371.583 198.868 372.586 195.86 373.589 192.684C374.425 190.344 375.261 187.67 376.096 184.996C370.413 183.157 364.731 181.82 358.881 180.817C352.696 179.647 346.512 179.146 340.328 178.812C332.305 178.812 323.112 179.647 323.112 179.647C323.112 179.647 321.775 179.982 320.94 188.506C320.271 196.863 319.435 209.064 321.107 238.147Z" fill="#263238"/>
<path d="M321.107 238.147L362.391 240.821C363.059 230.625 363.728 227.45 366.903 215.081C367.906 211.07 369.076 206.724 370.748 201.543C371.583 198.868 372.586 195.86 373.589 192.684C374.425 190.344 375.261 187.67 376.096 184.996C370.413 183.157 364.731 181.82 358.881 180.817C352.696 179.647 346.512 179.146 340.328 178.812C332.305 178.812 323.112 179.647 323.112 179.647C323.112 179.647 321.775 179.982 320.94 188.506C320.271 196.863 319.435 209.064 321.107 238.147Z" fill="#BDCCF7"/>
<path d="M343.838 188.338C354.034 187.001 357.043 182.656 357.043 182.656C350.524 176.471 355.872 165.941 355.872 165.941L343.671 168.281C344.005 170.287 344.173 171.958 344.173 173.463C344.34 180.984 340.83 180.984 340.83 180.984C338.824 184.996 343.838 188.338 343.838 188.338Z" fill="#EBB376"/>
<path opacity="0.2" d="M343.839 168.281C344.173 170.287 344.34 171.958 344.34 173.463C352.697 173.463 356.207 165.941 356.207 165.941L343.839 168.281Z" fill="black"/>
<path d="M350.525 133.851C339.828 133.349 336.151 138.865 334.647 149.729C332.976 163.435 335.483 173.296 348.854 171.123C367.407 168.282 368.242 134.854 350.525 133.851Z" fill="#EBB376"/>
<path d="M341.666 149.562C341.666 149.562 339.994 152.236 338.323 153.74C338.323 153.74 339.159 155.244 340.997 155.077L341.666 149.562Z" fill="#D58745"/>
<path d="M348.353 149.061C348.353 149.897 348.687 150.732 349.356 150.732C349.857 150.732 350.526 150.064 350.526 149.228C350.526 148.392 350.191 147.557 349.523 147.557C348.854 147.557 348.353 148.225 348.353 149.061Z" fill="#263238"/>
<path d="M349.69 147.724L347.852 146.888C347.852 146.721 348.687 148.392 349.69 147.724Z" fill="#263238"/>
<path d="M337.488 148.058C337.488 148.894 337.822 149.729 338.491 149.729C338.992 149.729 339.661 149.061 339.661 148.225C339.661 147.389 339.327 146.554 338.658 146.554C337.989 146.554 337.488 147.222 337.488 148.058Z" fill="#263238"/>
<path d="M338.826 146.553L336.987 145.718C336.987 145.718 337.823 147.389 338.826 146.553Z" fill="#263238"/>
<path d="M348.854 141.707C348.854 141.707 351.863 141.539 353.367 143.545" stroke="#2E353A" stroke-width="0.7247" stroke-miterlimit="10" stroke-linecap="round" stroke-linejoin="round"/>
<path d="M340.999 140.87C340.999 140.87 339.16 140.034 336.653 141.539" stroke="#2E353A" stroke-width="0.7247" stroke-miterlimit="10" stroke-linecap="round" stroke-linejoin="round"/>
<path d="M342.504 159.423C343.005 160.76 343.507 163.267 343.507 163.267C343.674 163.267 344.008 163.267 344.175 163.267C347.351 163.1 348.688 162.097 349.356 160.927C349.691 160.259 349.691 159.59 349.691 159.089C349.691 158.42 349.524 158.086 349.524 158.086C347.852 159.089 345.011 159.59 343.507 159.59C342.838 159.423 342.504 159.423 342.504 159.423Z" fill="#263238"/>
<path d="M343.507 159.423L343.841 160.593C346.849 160.426 348.855 159.924 349.691 159.089C349.691 158.42 349.524 158.086 349.524 158.086C348.019 158.922 345.011 159.256 343.507 159.423Z" fill="white"/>
<path d="M344.174 163.268C347.35 163.101 348.687 162.098 349.356 160.928C348.353 161.095 347.016 161.262 345.846 161.763C345.01 162.098 344.509 162.599 344.174 163.268Z" fill="#DE5753"/>
<path d="M361.222 152.571C361.222 152.571 356.71 143.545 357.88 136.859C357.88 136.859 337.154 126.998 334.981 148.392C334.981 148.392 333.978 129.171 352.364 129.839C370.749 130.341 369.245 157.251 359.217 164.772C359.217 164.772 364.064 158.253 361.222 152.571Z" fill="#263238"/>
<path d="M362.391 132.848C362.391 132.848 354.034 125.326 346.512 126.831C338.991 128.168 340.161 138.196 350.19 142.041C360.218 145.885 362.224 150.732 362.224 150.732L370.915 143.043L362.391 132.848Z" fill="#263238"/>
<path d="M344.174 130.007C344.174 130.007 340.664 130.174 341.667 135.523C342.67 140.871 350.191 143.545 357.211 145.885C364.398 148.392 363.73 151.234 363.73 151.234" stroke="#263238" stroke-width="0.5" stroke-miterlimit="10"/>
<path d="M359.385 154.744C359.552 153.072 361.557 150.231 364.733 150.732C368.076 151.234 369.246 158.087 360.889 159.257C359.719 159.424 359.05 158.254 359.385 154.744Z" fill="#EBB376"/>
<path d="M366.57 183.826C366.57 183.826 354.536 193.52 343.504 193.353C332.306 193.186 328.462 180.65 328.462 180.65C328.462 180.65 345.677 175.469 366.57 183.826Z" fill="#EBB376"/>
<path d="M376.265 185.33L370.916 249.846L359.384 250.849C357.712 242.158 357.378 228.285 357.545 215.081C357.879 197.364 359.049 181.151 359.049 181.151C365.568 181.82 376.265 185.33 376.265 185.33Z" fill="#476CD2"/>
<path opacity="0.4" d="M360.888 197.364L364.063 202.211L357.545 215.248C357.879 197.531 359.049 181.318 359.049 181.318L368.91 190.511L360.888 197.364Z" fill="white"/>
<path d="M336.82 179.146C336.485 179.647 330.803 190.01 326.29 210.067C323.95 220.095 322.111 232.296 321.108 247.005L316.763 244.999C316.763 244.999 314.757 195.024 323.281 180.148L336.82 179.146Z" fill="#476CD2"/>
<path opacity="0.4" d="M336.819 179.146C336.485 179.647 330.802 190.01 326.289 210.067L324.284 197.197L328.629 193.353L324.284 185.163L336.819 179.146Z" fill="white"/>
<path d="M392.978 224.274C391.64 227.116 389.468 227.283 387.128 226.113C385.289 225.277 383.45 223.438 381.946 221.433C380.943 219.928 379.439 217.756 378.102 215.249C375.093 210.067 371.918 204.384 371.918 204.384L376.263 185.163C382.448 188.172 395.318 219.26 392.978 224.274Z" fill="#476CD2"/>
<path opacity="0.2" d="M387.129 226.112C385.29 225.277 383.452 223.438 381.948 221.432C380.945 219.928 379.441 217.755 378.103 215.248C379.942 212.073 381.78 209.565 381.78 209.565L384.956 218.257C384.956 218.257 390.472 219.427 391.308 222.268C391.642 223.438 389.803 224.942 387.129 226.112Z" fill="black"/>
<path d="M386.962 201.208L376.599 240.486C376.432 241.489 375.429 241.991 374.426 241.991L347.182 238.313C346.179 238.146 345.678 237.311 345.845 236.475L356.208 197.197C356.375 196.194 357.378 195.692 358.381 195.692L385.625 199.369C386.627 199.369 387.296 200.205 386.962 201.208Z" fill="#263238"/>
<path opacity="0.1" d="M386.962 201.208L376.599 240.486C376.432 241.489 375.429 241.99 374.426 241.99L348.352 238.48C347.349 238.313 346.848 237.478 347.015 236.642L357.378 197.364C357.545 196.361 358.548 195.859 359.55 195.859L385.624 199.369C386.627 199.369 387.296 200.205 386.962 201.208Z" fill="white"/>
<path opacity="0.3" d="M368.074 216.084C366.737 215.917 365.4 216.752 365.066 218.089C364.731 219.427 365.567 220.597 366.904 220.764C368.241 220.931 369.578 220.095 369.913 218.758C368.576 218.758 367.74 217.421 368.074 216.084Z" fill="white"/>
<path d="M389.299 233.467C387.46 234.47 383.282 232.965 382.112 232.464C381.945 232.297 381.778 232.297 381.778 232.297C381.778 232.297 379.438 224.942 385.455 220.931H385.622C387.46 219.928 393.31 221.265 393.477 223.104C393.979 230.96 391.472 232.297 389.299 233.467Z" fill="#476CD2"/>
<path opacity="0.2" d="M385.623 227.115C384.954 229.789 383.283 231.461 381.946 232.463C381.779 232.296 381.612 232.296 381.612 232.296C381.612 232.296 379.272 224.942 385.289 220.931H385.456C385.79 221.599 386.626 223.271 385.623 227.115Z" fill="black"/>
<path d="M377.099 217.755C377.099 217.755 380.943 217.588 382.614 217.755C384.286 217.922 383.784 223.605 383.784 223.605L385.288 224.441C385.288 224.441 386.458 227.783 383.951 229.455L382.614 228.953C382.614 228.953 382.28 230.291 381.11 230.959C380.107 231.628 374.759 230.123 374.759 230.123L377.099 217.755Z" fill="#EBB376"/>
<path d="M570.485 479.999H562.797L548.757 284.778H559.119L570.485 479.999Z" fill="#263238"/>
<path opacity="0.1" d="M570.485 479.999H562.797L549.425 294.472L548.757 285.112H559.119L559.621 294.472L570.485 479.999Z" fill="white"/>
<path opacity="0.2" d="M559.621 293.971H549.425L548.757 285.112H559.119L559.621 293.971Z" fill="black"/>
<path d="M351.529 479.999H343.674L355.206 284.778H365.569L351.529 479.999Z" fill="#263238"/>
<path opacity="0.1" d="M365.569 285.112L364.901 294.472L351.529 479.999H343.674L354.705 294.472L355.206 285.112H365.569Z" fill="white"/>
<path opacity="0.2" d="M355.207 285.112H365.57L364.901 293.971H354.706L355.207 285.112Z" fill="black"/>
<path d="M256.761 479.999H249.073L235.033 284.778H245.396L256.761 479.999Z" fill="#263238"/>
<path opacity="0.1" d="M256.761 479.999H249.073L235.702 294.472L235.033 285.112H245.396L245.897 294.472L256.761 479.999Z" fill="white"/>
<path opacity="0.2" d="M245.897 293.971H235.702L235.033 285.112H245.396L245.897 293.971Z" fill="black"/>
<path d="M54.5185 479.999H46.6628L58.1956 284.778H68.5584L54.5185 479.999Z" fill="#263238"/>
<path opacity="0.1" d="M68.5584 285.112L67.8898 294.472L54.5185 479.999H46.6628L57.6942 294.472L58.1956 285.112H68.5584Z" fill="white"/>
<path opacity="0.2" d="M58.1954 285.112H68.5582L67.8896 293.971H57.694L58.1954 285.112Z" fill="black"/>
<path d="M564.466 289.626H52.8459C51.3416 289.626 50.0045 288.289 50.0045 286.784V279.932H567.307V286.784C567.307 288.456 565.97 289.626 564.466 289.626Z" fill="#407BFF"/>
<path opacity="0.6" d="M564.466 289.626H52.8459C51.3416 289.626 50.0045 288.289 50.0045 286.784V279.932H567.307V286.784C567.307 288.456 565.97 289.626 564.466 289.626Z" fill="white"/>
<path opacity="0.2" d="M567.308 279.932H50.0056V284.779H567.308V279.932Z" fill="black"/>
<path d="M572.156 281.101H45.1594C43.6551 281.101 42.4851 279.931 42.4851 278.427C42.4851 276.923 43.6551 275.753 45.1594 275.753H572.156C573.66 275.753 574.83 276.923 574.83 278.427C574.83 279.931 573.66 281.101 572.156 281.101Z" fill="#407BFF"/>
<path opacity="0.6" d="M572.156 281.101H45.1594C43.6551 281.101 42.4851 279.931 42.4851 278.427C42.4851 276.923 43.6551 275.753 45.1594 275.753H572.156C573.66 275.753 574.83 276.923 574.83 278.427C574.83 279.931 573.66 281.101 572.156 281.101Z" fill="white"/>
<path d="M516.327 466.128L529.531 465.292C530.033 465.292 530.367 465.626 530.534 465.961L531.871 476.323C531.871 477.493 531.036 478.496 530.033 478.496C525.353 478.663 523.18 478.663 517.497 478.83C513.987 478.998 506.967 479.833 501.953 479.332C497.106 478.83 497.607 473.983 499.78 473.816C504.794 473.315 511.48 469.471 514.656 466.796C514.823 466.462 515.659 466.128 516.327 466.128Z" fill="#263238"/>
<path d="M449.135 466.128L462.339 465.292C462.841 465.292 463.175 465.626 463.175 465.961L464.512 476.323C464.512 477.493 463.676 478.496 462.673 478.496C457.993 478.663 455.821 478.663 450.138 478.83C446.628 478.998 439.608 479.833 434.594 479.332C429.747 478.83 430.248 473.983 432.421 473.816C437.435 473.315 444.121 469.471 447.296 466.796C447.798 466.462 448.466 466.128 449.135 466.128Z" fill="#263238"/>
<path d="M498.61 267.23L487.746 268.901C487.746 268.901 484.069 267.731 480.224 267.23C476.38 266.895 471.867 267.23 471.867 267.23C471.867 267.23 467.02 269.068 467.02 273.748C467.02 273.748 478.386 276.757 482.899 274.918L498.777 273.748V267.23H498.61Z" fill="#EBB376"/>
<path d="M524.348 225.945C517.663 232.965 512.983 259.875 511.813 261.714C510.643 263.552 487.243 266.895 487.243 266.895C487.243 266.895 484.736 271.909 487.243 276.255C487.243 276.255 516.158 274.918 519.668 273.079C523.178 271.241 531.702 251.184 531.702 251.184C531.702 251.184 532.538 245.835 530.532 237.311C528.694 228.62 524.348 225.945 524.348 225.945Z" fill="#407BFF"/>
<path opacity="0.6" d="M524.348 225.945C517.663 232.965 512.983 259.875 511.813 261.714C510.643 263.552 487.243 266.895 487.243 266.895C487.243 266.895 484.736 271.909 487.243 276.255C487.243 276.255 516.158 274.918 519.668 273.079C523.178 271.241 531.702 251.184 531.702 251.184C531.702 251.184 532.538 245.835 530.532 237.311C528.694 228.62 524.348 225.945 524.348 225.945Z" fill="white"/>
<path d="M473.203 188.84C473.203 188.84 471.699 192.851 469.86 195.191C469.86 195.191 471.365 196.863 473.872 196.194L473.203 188.84Z" fill="#D58745"/>
<path d="M471.365 187.001C471.532 188.171 472.201 189.007 473.037 189.007C473.872 188.84 474.374 187.837 474.207 186.667C474.04 185.497 473.371 184.661 472.535 184.661C471.7 184.828 471.198 185.831 471.365 187.001Z" fill="#2E353A"/>
<path d="M471.699 182.321C471.699 182.321 472.535 182.154 473.538 182.99" stroke="#2E353A" stroke-width="0.7247" stroke-miterlimit="10" stroke-linecap="round" stroke-linejoin="round"/>
<path d="M476.211 202.045C476.545 202.546 476.713 203.047 477.047 203.549C478.885 206.39 481.56 208.396 484.568 209.566C485.404 209.9 486.072 210.067 486.908 210.234C491.087 211.237 495.6 210.402 499.277 207.727C500.781 206.557 502.118 205.22 503.121 203.382C507.299 196.195 505.461 189.676 503.288 178.31C502.787 175.803 501.951 173.631 500.447 171.625C495.265 164.605 485.404 163.268 478.384 168.449C468.523 175.636 471.197 192.518 476.211 202.045Z" fill="#EBB376"/>
<path opacity="0.2" d="M484.568 209.565C485.404 209.899 486.073 210.067 486.908 210.234C491.087 211.237 495.6 210.401 499.277 207.727C497.94 205.721 496.268 204.384 496.268 204.384C496.268 204.384 489.416 205.052 484.568 209.565Z" fill="black"/>
<path d="M516.994 217.254C512.815 223.606 492.424 226.113 492.424 226.113C492.424 226.113 483.399 225.946 484.569 222.937C489.248 220.932 491.087 217.923 491.421 214.747C491.588 212.909 491.087 210.903 490.418 208.897C490.084 207.894 489.583 206.892 489.249 205.889L502.787 189.342C499.277 207.727 510.141 212.742 516.994 217.254Z" fill="#EBB376"/>
<path d="M473.037 167.78C476.882 161.763 480.224 162.766 480.224 162.766C482.731 157.752 496.939 157.585 504.293 162.432C511.647 167.446 514.154 176.639 513.653 183.993C512.984 194.69 506.131 205.721 506.131 205.721C497.607 208.061 490.587 206.056 489.919 201.71C489.417 197.197 484.904 193.854 484.904 193.854C480.726 195.191 476.882 190.679 476.882 190.679C476.882 190.679 472.202 186.5 473.372 180.65C475.043 174.967 469.862 172.794 473.037 167.78Z" fill="#263238"/>
<path d="M486.574 191.013C486.574 193.687 485.571 195.693 484.067 196.863C482.061 198.367 479.721 195.526 479.22 192.183C478.718 189.174 479.219 184.494 481.894 184.494C484.568 184.327 486.741 187.67 486.574 191.013Z" fill="#EBB376"/>
<path d="M488.245 222.937C488.245 222.937 491.588 208.229 511.143 208.396L516.157 215.583L488.245 222.937Z" fill="#407BFF"/>
<path opacity="0.8" d="M488.245 222.937C488.245 222.937 491.588 208.229 511.143 208.396L516.157 215.583L488.245 222.937Z" fill="white"/>
<path d="M491.589 404.787C499.111 433.201 510.811 469.805 510.811 469.805L531.536 468.301C531.536 468.301 520.338 418.827 517.329 388.574C515.491 369.855 515.658 354.31 521.006 353.14C524.516 352.305 532.539 352.472 542.902 352.639V314.029C513.819 320.046 485.071 331.245 482.898 340.27C479.555 352.973 485.071 379.716 491.589 404.787Z" fill="#FF8000"/>
<path opacity="0.2" d="M491.589 404.786C499.278 399.939 508.303 394.089 517.162 388.406C515.323 369.687 515.49 354.142 520.839 352.972C524.349 352.137 532.372 352.304 542.734 352.471V313.861C513.652 319.878 484.903 331.077 482.73 340.103C479.555 352.972 485.07 379.715 491.589 404.786Z" fill="black"/>
<path d="M503.457 302.497L498.61 287.621C498.61 287.621 495.1 260.21 477.216 225.444C477.216 225.444 498.777 210.067 522.678 212.407C541.064 214.246 558.446 261.38 563.795 298.652L503.457 302.497Z" fill="#407BFF"/>
<path opacity="0.9" d="M563.628 298.819L503.457 302.497L498.443 287.621C498.443 287.621 497.774 282.941 495.936 274.918C494.598 269.403 492.593 262.383 489.584 254.36C486.576 245.836 482.397 235.974 477.049 225.444C477.049 225.444 498.61 210.067 522.511 212.407C540.897 214.246 558.279 261.547 563.628 298.819Z" fill="#15234A"/>
<path d="M502.955 310.185L501.117 295.476L560.285 285.782C560.285 285.782 579.673 324.058 570.146 342.945C561.455 360.16 469.026 349.965 454.819 352.973C440.445 356.149 464.513 467.799 464.513 467.799L443.787 469.303C443.787 469.303 410.025 367.18 416.543 340.103C419.385 328.403 468.023 312.692 502.955 310.185Z" fill="#FF8000"/>
<path d="M562.288 292.468L534.876 296.145L534.041 292.133L561.452 288.122L562.288 292.468Z" fill="black"/>
<path d="M531.869 292.134L532.203 296.145L506.797 299.655V295.644L531.869 292.134Z" fill="black"/>
<path d="M505.293 295.811V299.655L501.616 300.156V296.479L505.293 295.811Z" fill="black"/>
<path opacity="0.2" d="M495.935 276.422C494.598 271.241 492.592 264.555 489.584 256.699C490.587 254.526 492.091 252.521 493.929 251.184C493.929 251.184 499.612 269.569 495.935 276.422Z" fill="black"/>
<path d="M447.965 271.408L438.772 269.904C438.772 269.904 435.095 268.734 431.251 268.233C427.407 267.898 422.894 268.233 422.894 268.233C422.894 268.233 418.047 270.071 418.047 274.751C418.047 274.751 429.412 277.76 433.925 275.921L447.464 278.93L447.965 271.408Z" fill="#EBB376"/>
<path d="M477.048 225.945C472.869 230.625 475.209 268.901 473.872 271.575C472.535 274.249 440.611 268.901 440.611 268.901L438.438 278.428C438.438 278.428 475.878 289.459 482.731 289.626C489.583 289.793 493.762 249.178 493.762 249.178C493.762 249.178 492.759 243.495 487.745 236.308C482.898 229.121 477.048 225.945 477.048 225.945Z" fill="#407BFF"/>
<path opacity="0.9" d="M477.048 225.945C472.869 230.625 475.209 268.901 473.872 271.575C472.535 274.249 440.611 268.901 440.611 268.901L438.438 278.428C438.438 278.428 475.878 289.459 482.731 289.626C489.583 289.793 493.762 249.178 493.762 249.178C493.762 249.178 492.759 243.495 487.745 236.308C482.898 229.121 477.048 225.945 477.048 225.945Z" fill="#15234A"/>
<path d="M469.862 359.491H587.028V351.97C587.028 345.619 582.014 340.604 575.662 340.604H481.227C474.876 340.604 469.862 345.619 469.862 351.97V359.491Z" fill="#407BFF"/>
<path opacity="0.4" d="M469.862 359.491H587.028V351.97C587.028 345.619 582.014 340.604 575.662 340.604H481.227C474.876 340.604 469.862 345.619 469.862 351.97V359.491Z" fill="white"/>
<path d="M548.586 294.139H484.07C480.727 294.139 478.22 297.816 479.055 301.493L490.588 359.491H493.262L483.401 308.68C482.732 305.003 485.072 301.326 488.415 301.326H547.249L548.586 294.139Z" fill="#263238"/>
<path d="M521.008 361.497V410.47C521.008 411.974 522.346 413.311 523.85 413.311H535.884C537.388 413.311 538.725 411.974 538.725 410.47V361.497H521.008Z" fill="#263238"/>
<path d="M592.541 480C595.403 480 597.723 477.681 597.723 474.819C597.723 471.957 595.403 469.638 592.541 469.638C589.68 469.638 587.36 471.957 587.36 474.819C587.36 477.681 589.68 480 592.541 480Z" fill="#263238"/>
<path opacity="0.2" d="M589.867 474.819C589.867 473.315 591.037 472.145 592.541 472.145C594.045 472.145 595.215 473.315 595.215 474.819C595.215 476.323 594.045 477.493 592.541 477.493C591.037 477.493 589.867 476.156 589.867 474.819Z" fill="white"/>
<path d="M461.838 474.819C461.838 471.978 464.178 469.638 467.02 469.638C469.861 469.638 472.201 471.978 472.201 474.819C472.201 477.66 469.861 480 467.02 480C464.178 480 461.838 477.66 461.838 474.819Z" fill="#263238"/>
<path opacity="0.2" d="M464.512 474.819C464.512 473.315 465.682 472.145 467.187 472.145C468.691 472.145 469.861 473.315 469.861 474.819C469.861 476.323 468.691 477.493 467.187 477.493C465.682 477.326 464.512 476.156 464.512 474.819Z" fill="white"/>
<path d="M525.521 451.92V395.928H534.212V451.92C567.808 452.756 588.199 464.456 592.21 467.13C592.712 467.464 593.046 467.966 593.046 468.467V473.147C593.046 473.983 592.377 474.818 591.375 474.818C590.706 474.818 590.205 474.484 589.87 473.983L587.865 470.473C587.865 470.473 564.799 462.283 534.212 461.614V470.807C534.212 471.977 533.209 472.98 532.039 472.98H527.694C526.524 472.98 525.521 471.977 525.521 470.807V461.614C494.934 462.283 471.868 470.473 471.868 470.473L469.863 473.983C469.529 474.484 469.027 474.818 468.359 474.818C467.523 474.818 466.687 474.15 466.687 473.147V468.467C466.687 467.966 467.021 467.297 467.523 467.13C471.534 464.456 491.925 452.756 525.521 451.92Z" fill="#263238"/>
<path d="M526.87 479.89H532.553V469.527H526.87V479.89Z" fill="#263238"/>
<path opacity="0.2" d="M538.725 361.497H521.008V381.888H538.725V361.497Z" fill="black"/>
<path d="M466.687 356.483V362.333C466.687 364.004 467.857 365.342 469.194 365.342H587.53C589.035 365.342 590.037 364.004 590.037 362.333V356.483C590.037 354.812 588.867 353.475 587.53 353.475H469.194C467.857 353.475 466.687 354.812 466.687 356.483Z" fill="#263238"/>
<path d="M521.175 359.491H590.205C590.205 359.491 612.1 323.389 612.1 263.886V242.158C612.1 233.132 604.746 225.945 595.553 225.945H566.304C557.445 225.945 550.091 232.965 549.757 241.824C549.088 272.243 544.408 338.766 521.175 359.491Z" fill="#263238"/>
<path opacity="0.2" d="M536.384 359.491H587.195C589.201 359.491 591.039 358.488 591.875 356.65C596.889 347.123 612.266 313.695 612.266 263.886V242.158C612.266 233.132 604.912 225.945 595.719 225.945H570.481C561.622 225.945 554.268 232.965 553.934 241.824C553.098 269.235 549.421 325.227 532.038 351.636C529.698 354.978 532.038 359.491 536.384 359.491Z" fill="white"/>
<path opacity="0.2" d="M466.687 356.482V362.332C466.687 364.004 467.857 365.341 469.194 365.341H522.178C524.017 365.341 525.688 363.502 525.688 361.33V357.652C525.688 355.48 524.184 353.641 522.178 353.641H469.194C467.857 353.474 466.687 354.811 466.687 356.482Z" fill="black"/>
<path d="M151.459 231.461L146.444 232.631L145.274 228.62C145.274 228.62 143.77 229.623 141.764 228.62C141.263 228.286 140.427 227.784 139.592 227.283C137.252 225.778 134.577 223.773 134.577 223.773L138.422 215.75C138.422 215.75 140.093 216.419 142.266 217.421C145.274 218.759 148.951 220.43 149.62 221.433C150.79 223.104 150.121 225.946 150.121 225.946L151.459 231.461Z" fill="#E4897B"/>
<path opacity="0.2" d="M139.425 227.283C137.086 225.778 134.411 223.773 134.411 223.773L138.255 215.75C138.255 215.75 139.927 216.419 142.1 217.421C142.267 219.761 142.1 223.773 139.425 227.283Z" fill="black"/>
<path d="M221.328 415.65L212.971 418.826L206.953 407.46L201.438 397.098L210.798 391.582L216.313 404.285L221.328 415.65Z" fill="#E4897B"/>
<path opacity="0.2" d="M216.313 404.285L206.953 407.46L201.438 397.098L210.798 391.582L216.313 404.285Z" fill="black"/>
<path d="M214.642 398.101L203.276 404.285C203.276 404.285 160.154 328.57 153.468 329.071C146.782 329.74 83.9371 369.854 64.7159 354.978C45.4946 340.27 64.2145 295.643 64.2145 295.643C64.2145 295.643 103.827 284.277 108.173 292.969C109.008 294.64 110.178 297.983 111.014 300.992C111.85 303.666 112.518 306.006 112.518 306.006C113.688 305.504 152.967 289.459 170.349 297.983C188.233 306.842 214.642 398.101 214.642 398.101Z" fill="#263238"/>
<path d="M214.642 398.101L203.276 404.285C203.276 404.285 160.154 328.57 153.468 329.071C146.782 329.74 83.9371 369.854 64.7159 354.978C45.4946 340.27 64.2145 295.643 64.2145 295.643C64.2145 295.643 103.827 284.277 108.173 292.969C109.008 294.64 110.178 297.983 111.014 300.992C111.85 303.666 112.518 306.006 112.518 306.006C113.688 305.504 152.967 289.459 170.349 297.983C188.233 306.842 214.642 398.101 214.642 398.101Z" fill="#476CD2"/>
<path d="M152.632 459.943L143.606 458.94V446.237V434.705L154.471 434.203L153.468 447.742L152.632 459.943Z" fill="#E4897B"/>
<path opacity="0.2" d="M153.468 448.076L143.606 446.404V434.705L154.471 434.203L153.468 448.076Z" fill="black"/>
<path d="M197.592 400.441L214.306 392.084L215.977 399.104L203.442 405.622L197.592 400.441Z" fill="#407BFF"/>
<path d="M94.4659 355.145C94.4659 355.145 97.1402 354.811 139.427 346.955C139.427 346.955 140.43 400.942 142.436 441.056L155.473 441.557C155.473 441.557 174.025 352.304 171.852 338.933C169.68 325.561 153.634 323.556 153.634 323.556C153.634 323.556 125.554 345.117 94.4659 355.145Z" fill="#263238"/>
<path opacity="0.4" d="M94.4659 355.145C94.4659 355.145 97.1402 354.811 139.427 346.955C139.427 346.955 140.43 400.942 142.436 441.056L155.473 441.557C155.473 441.557 174.025 352.304 171.852 338.933C169.68 325.561 153.634 323.556 153.634 323.556C153.634 323.556 125.554 345.117 94.4659 355.145Z" fill="white"/>
<path d="M94.4659 355.145C94.4659 355.145 97.1402 354.811 139.427 346.955C139.427 346.955 140.43 400.942 142.436 441.056L155.473 441.557C155.473 441.557 174.025 352.304 171.852 338.933C169.68 325.561 153.634 323.556 153.634 323.556C153.634 323.556 125.554 345.117 94.4659 355.145Z" fill="#4265C7"/>
<path d="M139.928 437.546L157.645 437.045L155.138 444.399L140.764 444.566L139.928 437.546Z" fill="#407BFF"/>
<path d="M238.041 430.527C236.703 430.025 235.199 429.858 233.695 430.025C233.695 430.025 228.346 427.685 221.661 416.988L216.145 417.657C214.139 417.991 212.635 419.328 212.301 421.334C212.301 421.668 212.301 421.835 212.301 422.17C212.468 423.507 212.802 424.844 213.304 426.181C214.306 430.36 218.318 438.884 218.318 438.884L219.154 438.55L216.312 430.527C215.309 427.852 218.652 430.025 220.491 432.7C222.329 435.374 224.836 437.881 230.686 435.708C237.706 432.867 240.381 431.362 238.041 430.527Z" fill="#263238"/>
<path d="M220.323 414.146C220.323 414.146 229.349 427.852 233.694 430.025C233.694 430.025 228.68 434.036 222.162 427.685C213.637 419.495 212.3 422.336 212.3 422.336C212.3 422.336 212.133 419.161 212.467 417.489C213.136 414.146 220.323 414.146 220.323 414.146Z" fill="#E4897B"/>
<path d="M166.003 475.822C164.666 475.153 163.329 474.485 161.992 474.318C161.992 474.318 157.312 470.808 153.468 458.774L147.785 458.105C145.779 457.938 143.941 458.941 143.105 460.779C142.938 460.946 142.938 461.281 142.938 461.615C142.938 462.952 142.938 464.289 142.938 465.626C142.938 469.805 144.776 479.165 144.776 479.165L145.779 478.998L144.943 470.473C144.609 467.632 147.283 470.641 148.453 473.649C149.623 476.658 151.295 479.833 157.646 478.998C165.168 477.995 168.176 477.326 166.003 475.822Z" fill="#263238"/>
<path d="M152.631 455.597C152.631 455.597 158.146 470.974 161.823 474.15C161.823 474.15 156.141 476.824 151.126 469.136C144.775 459.107 142.769 461.447 142.769 461.447C142.769 461.447 143.438 458.272 144.106 456.767C145.778 454.093 152.631 455.597 152.631 455.597Z" fill="#E4897B"/>
<path d="M142.437 199.035C142.437 199.035 139.428 199.035 137.924 201.208" stroke="#263238" stroke-width="0.5" stroke-miterlimit="10" stroke-linecap="round" stroke-linejoin="round"/>
<path d="M141.1 206.39C141.1 206.39 142.938 209.064 144.777 210.568C144.777 210.568 143.941 212.072 142.103 212.072L141.1 206.39Z" fill="#DE5753"/>
<path d="M142.607 203.214C142.774 204.05 142.272 204.886 141.771 204.886C141.102 204.886 140.601 204.384 140.434 203.381C140.267 202.546 140.768 201.71 141.269 201.71C141.938 201.71 142.607 202.379 142.607 203.214Z" fill="#263238"/>
<path d="M141.103 201.877L142.941 200.874C142.941 200.874 142.273 202.713 141.103 201.877Z" fill="#263238"/>
<path d="M119.538 224.608C119.705 224.776 119.705 224.776 119.873 224.776C121.544 225.946 123.55 226.948 125.722 227.283C131.74 228.453 135.918 227.283 138.425 224.441C141.935 220.096 142.604 212.908 141.601 204.217C141.099 200.206 140.431 196.696 139.261 194.022V193.854C139.261 193.687 139.094 193.52 139.094 193.52C137.255 189.843 134.414 187.503 129.901 186.667C128.397 186.333 126.725 186.333 124.72 186.333C107.671 187.169 106 215.416 119.538 224.608Z" fill="#E4897B"/>
<path opacity="0.2" d="M119.872 224.776C121.544 225.946 123.549 226.614 125.722 227.116C131.739 228.286 135.918 226.949 138.425 224.107C135.416 224.943 131.572 225.277 127.561 223.773C125.054 222.77 122.379 223.439 119.872 224.776Z" fill="black"/>
<path d="M139.262 194.021C139.262 194.021 140.766 205.888 129.734 211.571C129.734 211.571 125.556 224.274 118.369 224.775C108.675 225.444 99.3147 212.073 101.989 197.698C105.499 179.146 133.244 176.304 139.262 194.021Z" fill="#263238"/>
<path d="M135.25 207.894C135.082 206.056 133.578 203.047 130.57 203.549C127.561 204.217 126.224 211.572 133.745 212.909C134.915 213.076 135.584 211.739 135.25 207.894Z" fill="#E4897B"/>
<path d="M117.867 182.321C117.867 182.321 129.065 178.811 135.584 183.157C143.272 188.171 146.281 193.52 137.924 202.546C137.924 202.546 118.535 197.197 112.184 198.868C105.832 200.54 101.487 202.546 101.487 202.546C99.6482 190.01 111.348 180.149 117.867 182.321Z" fill="#263238"/>
<path d="M128.565 226.113C128.565 226.113 120.208 230.124 122.715 239.15L101.321 230.291C101.321 230.291 113.021 229.623 112.352 221.433C112.352 221.433 124.553 216.753 128.565 226.113Z" fill="#E4897B"/>
<path d="M120.71 184.662C120.71 184.662 114.359 166.276 99.9846 169.452C85.6105 172.627 86.6133 188.172 96.9761 192.851C107.339 197.699 121.713 195.86 120.71 184.662Z" fill="#263238"/>
<path d="M100.987 192.684C100.987 192.684 88.2838 192.684 89.7881 203.548C89.7881 203.548 90.9581 200.038 93.7995 198.534C93.7995 198.534 89.9552 201.542 93.7995 206.557C93.7995 206.557 92.2952 203.214 97.4766 200.874C102.658 198.534 117.199 198.701 114.525 191.681C111.851 184.494 100.987 192.684 100.987 192.684Z" fill="#263238"/>
<path d="M118.536 184.661C118.536 184.661 115.527 162.432 97.4758 166.944" stroke="#263238" stroke-width="0.5" stroke-miterlimit="10" stroke-linecap="round" stroke-linejoin="round"/>
<path d="M111.347 217.422C111.347 217.422 98.3098 210.736 100.483 200.206" stroke="#263238" stroke-width="0.5" stroke-miterlimit="10" stroke-linecap="round" stroke-linejoin="round"/>
<path d="M99.6482 192.684C99.6482 192.684 88.1154 192.517 87.1125 200.372" stroke="#263238" stroke-width="0.5" stroke-miterlimit="10" stroke-linecap="round" stroke-linejoin="round"/>
<path d="M102.824 229.789L108.006 226.112C108.006 226.112 125.054 228.452 125.221 239.316C125.388 250.181 102.824 229.789 102.824 229.789Z" fill="#F87D02"/>
<path d="M99.648 229.789C99.648 229.789 112.518 227.282 130.402 239.316C130.402 239.316 136.419 265.39 111.181 300.991L63.2112 297.983C63.2112 297.983 76.0811 245.5 99.648 229.789Z" fill="#263238"/>
<path opacity="0.3" d="M112.518 306.006L96.1377 314.196C96.1377 314.196 101.486 305.171 111.013 300.992C111.849 303.666 112.518 306.006 112.518 306.006Z" fill="black"/>
<path d="M128.898 263.385C128.062 266.727 127.059 270.404 125.555 274.249C122.546 282.272 118.033 291.297 111.013 300.991L63.0438 297.983C63.0438 297.983 76.0809 245.668 99.4806 229.789C99.4806 229.789 112.351 227.282 130.235 239.316C130.402 239.316 132.407 248.509 128.898 263.385Z" fill="#FF8000"/>
<path opacity="0.2" d="M128.896 263.385C128.061 266.728 127.058 270.405 125.554 274.249C125.052 268.566 125.721 262.382 125.721 262.382C126.891 262.549 127.894 262.883 128.896 263.385Z" fill="black"/>
<path d="M130.402 239.316C130.402 239.316 144.442 259.541 148.119 261.546C151.796 263.552 144.776 229.789 144.776 229.789L151.629 228.285C151.629 228.285 163.663 268.733 155.64 275.586C147.617 282.606 125.722 262.382 125.722 262.382C125.722 262.382 124.886 254.526 125.722 248.509C126.39 242.659 130.402 239.316 130.402 239.316Z" fill="#263238"/>
<path d="M130.402 239.316C130.402 239.316 144.442 259.541 148.119 261.546C151.796 263.552 144.776 229.789 144.776 229.789L151.629 228.285C151.629 228.285 163.663 268.733 155.64 275.586C147.617 282.606 125.722 262.382 125.722 262.382C125.722 262.382 124.886 254.526 125.722 248.509C126.39 242.659 130.402 239.316 130.402 239.316Z" fill="#FF8000"/>
<path d="M142.267 359.491H25.1013V351.97C25.1013 345.619 30.1156 340.604 36.4669 340.604H130.902C137.253 340.604 142.267 345.619 142.267 351.97V359.491Z" fill="#407BFF"/>
<path opacity="0.4" d="M142.267 359.491H25.1013V351.97C25.1013 345.619 30.1156 340.604 36.4669 340.604H130.902C137.253 340.604 142.267 345.619 142.267 351.97V359.491Z" fill="white"/>
<path d="M63.5446 294.139H128.061C131.404 294.139 133.911 297.816 133.075 301.493L121.543 359.491H118.868L128.73 308.68C129.398 305.003 127.058 301.326 123.715 301.326H64.8817L63.5446 294.139Z" fill="#263238"/>
<path d="M91.289 361.497V410.47C91.289 411.974 89.9519 413.311 88.4476 413.311H76.4134C74.9092 413.311 73.572 411.974 73.572 410.47V361.497H91.289Z" fill="#263238"/>
<path d="M24.9366 474.819C24.9366 471.978 22.5966 469.638 19.7552 469.638C16.9138 469.638 14.5739 471.978 14.5739 474.819C14.5739 477.66 16.9138 480 19.7552 480C22.5966 480 24.9366 477.66 24.9366 474.819Z" fill="#263238"/>
<path opacity="0.2" d="M22.2632 474.819C22.2632 473.315 21.0932 472.145 19.5889 472.145C18.0847 472.145 16.9147 473.315 16.9147 474.819C16.9147 476.323 18.0847 477.493 19.5889 477.493C21.0932 477.326 22.2632 476.156 22.2632 474.819Z" fill="white"/>
<path d="M150.291 474.819C150.291 471.978 147.951 469.638 145.11 469.638C142.269 469.638 139.929 471.978 139.929 474.819C139.929 477.66 142.269 480 145.11 480C147.951 480 150.291 477.66 150.291 474.819Z" fill="#263238"/>
<path opacity="0.2" d="M145.11 477.493C146.587 477.493 147.784 476.296 147.784 474.819C147.784 473.342 146.587 472.145 145.11 472.145C143.633 472.145 142.436 473.342 142.436 474.819C142.436 476.296 143.633 477.493 145.11 477.493Z" fill="white"/>
<path d="M86.6106 451.92V395.928H77.9192V451.92C44.3238 452.756 23.9325 464.456 19.9212 467.13C19.4197 467.464 19.0854 467.966 19.0854 468.467V473.147C19.0854 473.983 19.754 474.818 20.7569 474.818C21.4254 474.818 21.9269 474.484 22.2611 473.983L24.2668 470.473C24.2668 470.473 47.3323 462.283 77.9192 461.614V470.807C77.9192 471.977 78.9221 472.98 80.0921 472.98H84.4377C85.6077 472.98 86.6106 471.977 86.6106 470.807V461.614C117.197 462.283 140.263 470.473 140.263 470.473L142.269 473.983C142.603 474.484 143.104 474.818 143.773 474.818C144.609 474.818 145.444 474.15 145.444 473.147V468.467C145.444 467.966 145.11 467.297 144.609 467.13C140.597 464.456 120.206 452.756 86.6106 451.92Z" fill="#263238"/>
<path d="M85.2724 469.638H79.5896V480H85.2724V469.638Z" fill="#263238"/>
<path opacity="0.2" d="M91.289 361.497H73.572V381.888H91.289V361.497Z" fill="black"/>
<path d="M145.445 356.483V362.333C145.445 364.004 144.275 365.342 142.938 365.342H24.6016C23.0973 365.342 22.0945 364.004 22.0945 362.333V356.483C22.0945 354.812 23.2645 353.475 24.6016 353.475H142.938C144.275 353.475 145.445 354.812 145.445 356.483Z" fill="#263238"/>
<path d="M90.9549 359.491H21.9256C21.9256 359.491 0.0300293 323.389 0.0300293 263.886V242.158C0.0300293 233.132 7.38425 225.945 16.577 225.945H45.8268C54.6853 225.945 62.0395 232.965 62.3738 241.824C63.2095 272.243 67.7223 338.766 90.9549 359.491Z" fill="#263238"/>
<path opacity="0.2" d="M75.9122 359.491H25.1012C23.0955 359.491 21.257 358.488 20.4213 356.65C15.407 347.29 0.0300293 313.862 0.0300293 263.886V242.158C0.0300293 233.132 7.38425 225.945 16.577 225.945H41.8154C50.6739 225.945 58.0281 232.965 58.3624 241.824C59.1981 269.235 62.8752 325.227 80.2579 351.636C82.4307 354.978 80.0908 359.491 75.9122 359.491Z" fill="white"/>
<path opacity="0.2" d="M145.444 356.482V362.332C145.444 364.004 144.274 365.341 142.937 365.341H89.786C87.9474 365.341 86.276 363.502 86.276 361.33V357.652C86.276 355.48 87.7803 353.641 89.786 353.641H142.77C144.274 353.474 145.444 354.811 145.444 356.482Z" fill="black"/>
</svg>
