<svg width="18" height="18" viewBox="0 0 18 18" fill="none" xmlns="http://www.w3.org/2000/svg">
<path d="M16.41 12.542V14.8627C16.4109 15.0782 16.3668 15.2914 16.2805 15.4888C16.1942 15.6862 16.0676 15.8634 15.9088 16.0091C15.7501 16.1547 15.5626 16.2656 15.3586 16.3346C15.1545 16.4036 14.9382 16.4293 14.7236 16.4099C12.3432 16.1512 10.0566 15.3378 8.0476 14.035C6.17848 12.8473 4.5938 11.2626 3.40609 9.39347C2.09871 7.37535 1.28511 5.07764 1.03118 2.68649C1.01185 2.47257 1.03727 2.25697 1.10583 2.05341C1.17439 1.84985 1.28459 1.6628 1.4294 1.50416C1.57421 1.34552 1.75046 1.21877 1.94694 1.13199C2.14342 1.0452 2.35582 1.00028 2.57062 1.00008H4.89137C5.2668 0.99638 5.63076 1.12932 5.91541 1.37413C6.20007 1.61893 6.386 1.95889 6.43854 2.33064C6.53649 3.07333 6.71815 3.80256 6.98005 4.50441C7.08413 4.7813 7.10666 5.08222 7.04496 5.37151C6.98326 5.6608 6.83992 5.92635 6.63194 6.13668L5.64948 7.11913C6.75072 9.05584 8.35429 10.6594 10.291 11.7606L11.2734 10.7782C11.4838 10.5702 11.7493 10.4269 12.0386 10.3652C12.3279 10.3035 12.6288 10.326 12.9057 10.4301C13.6076 10.692 14.3368 10.8736 15.0795 10.9716C15.4553 11.0246 15.7985 11.2139 16.0438 11.5034C16.2891 11.793 16.4195 12.1626 16.41 12.542Z" stroke="#353841" stroke-width="1.54717" stroke-linecap="round" stroke-linejoin="round"/>
</svg>
