<svg width="705" height="482" viewBox="0 0 705 482" fill="none" xmlns="http://www.w3.org/2000/svg">
<path d="M698.002 482H47.5019C47.5019 482 -94.9888 150.557 113.687 115.285C301.862 83.4087 315.662 -7.63628 417.773 31.2948C472.003 51.9728 484.392 108.099 525.572 160.257C546.911 187.284 603.346 186.314 647.127 216.383C651.36 219.293 655.504 222.511 659.472 226.083C693.553 256.593 715.682 366.088 698.002 482Z" fill="#F0F6FF"/>
<rect x="118" y="428" width="483" height="3" fill="#808080"/>
<path d="M549.925 239.134H455.088V428.587H549.925V239.134Z" fill="#697390"/>
<path d="M576.511 239.134H481.674V428.587H576.511V239.134Z" fill="#93A0C7"/>
<path d="M589.781 230.933V235.96C589.781 237.723 588.371 239.134 586.651 239.134H134.16C132.44 239.134 131.029 237.679 131.029 235.96V230.933C131.029 229.17 132.44 227.759 134.16 227.759H586.651C588.415 227.715 589.781 229.17 589.781 230.933Z" fill="#0D1734"/>
<path d="M589.78 230.933V235.96C589.78 237.723 588.369 239.134 586.65 239.134H196.633C194.914 239.134 193.547 237.679 193.547 235.96V230.933C193.547 229.17 194.958 227.759 196.633 227.759H586.694C588.413 227.715 589.78 229.17 589.78 230.933Z" fill="#15234A"/>
<path d="M290.236 239.134H160.26V428.587H290.236V239.134Z" fill="#697391"/>
<path d="M326.654 239.134H196.678V428.587H326.654V239.134Z" fill="#93A0C7"/>
<path d="M319.687 418.093H203.688V244.468H319.687V418.093ZM204.922 416.858H318.409V245.746H204.922V416.858Z" fill="#15234A"/>
<path d="M319.07 301.917H204.305V303.152H319.07V301.917Z" fill="#15234A"/>
<path d="M319.07 360.468H204.305V361.703H319.07V360.468Z" fill="#15234A"/>
<path d="M273.437 255.667H252.142C251.128 255.667 250.246 254.829 250.246 253.771C250.246 252.757 251.084 251.875 252.142 251.875H273.437C274.495 251.875 275.333 252.713 275.333 253.771C275.289 254.829 274.451 255.667 273.437 255.667Z" fill="#15234A"/>
<path d="M273.437 312.939H252.142C251.128 312.939 250.246 312.102 250.246 311.044C250.246 310.03 251.084 309.148 252.142 309.148H273.437C274.495 309.148 275.333 309.985 275.333 311.044C275.289 312.102 274.451 312.939 273.437 312.939Z" fill="#15234A"/>
<path d="M273.437 372.637H252.142C251.128 372.637 250.246 371.799 250.246 370.741C250.246 369.727 251.084 368.845 252.142 368.845H273.437C274.495 368.845 275.333 369.683 275.333 370.741C275.289 371.799 274.451 372.637 273.437 372.637Z" fill="#15234A"/>
<path d="M447.854 214.884L409.496 223.658V228.199L465.578 227.449L447.854 214.884Z" fill="#FF957C"/>
<path d="M404.736 321.492C406.544 324.446 458.173 405.351 458.173 405.351L466.462 402.882C466.462 402.882 439.523 294.862 421.887 292.041C404.251 289.263 398.343 311.131 404.736 321.492Z" fill="#FF957C"/>
<path d="M456.497 252.537C456.497 252.537 394.595 266.778 374.137 284.943C374.137 284.943 371.668 308.354 418.976 405.351L427.706 404.029C427.706 404.029 414.082 309.412 409.541 302.534C405 295.656 463.727 309.456 490.578 302.578C518.354 295.392 516.106 241.118 456.497 252.537Z" fill="#FFAD97"/>
<path d="M451.824 84.7759C452.618 87.289 453.235 89.8021 453.72 91.8743C454.425 95.181 454.734 97.5619 454.734 97.5619L434.629 80.0142L430.617 76.5312C430.441 76.4871 436.701 66.5669 444.417 72.1222C447.812 74.5471 450.193 79.7497 451.824 84.7759Z" fill="#002B34"/>
<path d="M451.825 84.7759C452.619 87.289 453.236 89.8021 453.721 91.8743C448.871 89.6258 437.76 81.3369 440.185 82.1305C442.61 82.9682 449.753 84.3791 451.825 84.7759Z" fill="#002B34"/>
<path d="M444.417 72.1222C444.417 72.1222 437.23 74.8998 438.333 79.0884C438.729 80.4992 436.922 80.6315 434.629 80.0142L430.617 76.5312C430.441 76.4871 436.701 66.5669 444.417 72.1222Z" fill="#002B34"/>
<path d="M409.498 223.658C409.498 223.658 402.003 218.103 398.564 219.117C395.125 220.131 384.764 228.155 384.764 228.155L409.498 228.199V223.658Z" fill="#FF957C"/>
<path d="M456.365 154.526L434.761 156.334C431.939 151.087 430.087 145.929 428.809 141.564C427.75 137.816 427.133 134.642 426.78 132.525C426.516 130.806 426.428 129.792 426.428 129.792L444.46 122.12L447.194 129.615L456.365 154.526Z" fill="#FFAD97"/>
<path d="M447.195 129.571C447.195 129.571 441.287 142.225 429.515 143.9C428.06 139.976 427.134 134.597 426.781 132.525C432.557 130.188 440.317 128.601 447.195 129.571Z" fill="#FF957C"/>
<path d="M423.254 139.668C423.254 139.668 448.032 139.976 447.988 124.545C447.944 109.114 451.119 98.7527 435.291 97.915C419.462 97.0773 416.42 102.985 415.186 108.144C413.907 113.258 416.817 139.183 423.254 139.668Z" fill="#FFAD97"/>
<path d="M418.448 95.6219C418.448 95.6219 409.586 97.6941 410.864 104.837C412.143 111.935 424.532 115.33 429.47 118.593C434.364 121.811 446.797 132.525 450.192 131.334C453.543 130.144 455.659 112.641 457.599 108.011C459.539 103.382 455.968 87.5976 442.388 88.0385C428.809 88.4794 418.448 95.6219 418.448 95.6219Z" fill="#002B34"/>
<path d="M411.087 101.442C411.087 101.442 407.471 111.935 431.765 125.647C431.765 125.647 425.195 117.314 431.103 112.817C437.011 108.32 411.087 101.442 411.087 101.442Z" fill="#002B34"/>
<path d="M459.981 101.309C460.334 102.279 460.598 103.205 460.731 104.131C460.863 104.881 460.907 105.63 460.863 106.336C460.775 108.099 459.805 109.157 458.129 109.731C448.871 112.861 418.934 99.59 414.745 97.6941C414.437 97.5619 414.26 97.4737 414.26 97.4737C414.26 97.4737 412.012 77.2366 425.106 76.0462C429.647 75.6053 435.379 77.6775 440.934 80.9842C442.257 81.7778 443.624 82.6596 444.902 83.6296C451.825 88.6117 457.821 95.3133 459.981 101.309Z" fill="#002B34"/>
<path d="M459.981 101.31C460.334 102.28 460.599 103.206 460.731 104.132C448.077 106.028 426.032 104.44 424.974 96.5042C423.696 86.7163 440.846 84.115 444.947 83.63C451.825 88.6121 457.821 95.3137 459.981 101.31Z" fill="#002B34"/>
<path d="M459.981 101.31C460.598 103.073 460.951 104.793 460.863 106.38C460.774 108.144 459.804 109.202 458.129 109.775L439.611 95.3136C439.611 95.3136 454.381 101.222 459.981 101.31Z" fill="#002B34"/>
<path d="M462.009 108.937C462.097 113.081 459.628 126.749 452.574 127.587C448.606 128.028 437.01 118.46 427.575 109.995C420.256 103.381 414.26 97.4734 414.26 97.4734C422.637 88.4792 440.317 94.3431 451.648 100.604C457.732 103.999 461.965 107.526 462.009 108.937Z" fill="#002B34"/>
<path d="M462.008 108.937C462.096 113.082 459.627 126.75 452.573 127.587C448.605 128.028 437.009 118.461 427.574 109.996C432.865 109.114 444.946 106.512 451.647 100.649C457.731 103.999 461.964 107.527 462.008 108.937Z" fill="#002B34"/>
<path d="M515.489 257.96C514.872 263.03 471.929 263.162 450.634 261.751C442.565 261.222 437.627 260.429 439.259 259.635C445.122 256.725 447.9 244.601 448.782 237.679C448.958 236.224 449.091 235.033 449.091 234.195C449.135 233.181 448.429 231.726 447.195 230.007C447.195 230.007 447.195 230.007 447.195 229.963C442.653 223.482 431.102 212.724 425.944 202.01C424.841 199.762 423.827 197.072 422.857 194.118C417.963 179.26 414.26 167.841 414.26 167.841C431.499 145.355 443.05 147.295 454.954 145.531C461.524 144.561 468.049 147.471 471.753 153.027C479.689 164.931 486.39 186.887 489.521 215.678C490.623 225.774 510.992 245.835 514.828 255.05C515.357 256.196 515.578 257.166 515.489 257.96Z" fill="#476CD2"/>
<path d="M408.969 181.42C408.969 181.42 374.491 224.275 377.269 228.067C378.415 229.654 399.313 228.42 422.46 207.654C445.607 186.843 408.969 181.42 408.969 181.42Z" fill="#FFAD97"/>
<path d="M482.731 303.901C471.312 306.547 461.833 321.317 461.833 321.317C440.185 320.17 423.74 305.93 413.114 292.879C403.723 281.372 398.873 270.79 398.873 270.79L439.656 254.742L454.029 249.098L454.294 249.01H511.522C513.021 251.655 514.3 254.168 515.402 256.549C535.154 299.625 493.533 301.432 482.731 303.901Z" fill="#476CD2"/>
<path d="M418.977 405.351C418.977 405.351 419.594 418.093 417.742 420.606C415.846 423.119 408.66 425.588 408.263 427.087C407.91 428.586 408.616 428.586 408.616 428.586C408.616 428.586 421.446 429.336 422.856 428.586C424.267 427.836 427.221 419.063 431.63 415.315C435.995 411.567 427.398 405.307 427.221 402.926C427.089 400.545 418.977 405.351 418.977 405.351Z" fill="#FFAD97"/>
<path d="M458.174 405.352C458.174 405.352 458.791 418.093 456.939 420.607C455.043 423.12 447.857 425.589 447.46 427.088C447.107 428.587 447.813 428.587 447.813 428.587C447.813 428.587 460.643 429.336 462.054 428.587C463.465 427.837 466.463 419.063 470.828 415.316C475.192 411.568 467.653 404.955 466.463 402.927C464.611 399.708 458.174 405.352 458.174 405.352Z" fill="#FF957C"/>
<path d="M447.238 229.963C442.697 223.482 431.145 212.724 425.987 202.01C424.929 199.762 423.87 197.072 422.9 194.118C422.9 194.074 422.944 194.03 422.944 193.986C422.944 193.986 434.408 181.553 439.743 187.593C445.033 193.633 441.947 221.895 447.238 229.963Z" fill="#3D63CD"/>
<path d="M454.029 249.098C453.456 252.052 452.354 254.962 450.811 257.828C440.758 276.786 413.114 292.923 413.114 292.923C403.767 281.415 398.873 270.834 398.873 270.834L439.656 254.785C445.74 252.404 448.386 241.867 449.841 235.077C453.147 240.059 454.999 243.939 454.029 249.098Z" fill="#3D63CD"/>
<path d="M441.948 231.154C439.39 231.154 436.348 233.049 435.29 233.931C434.981 234.196 434.805 234.504 434.805 234.901C434.805 236.665 435.466 238.428 436.304 239.883C437.362 241.735 439.919 242.132 441.463 240.633C443.579 238.605 446.268 235.739 447.018 231.639C446.18 231.154 444.417 231.065 441.948 231.154ZM439.39 246.629C439.082 246.629 438.817 246.585 438.509 246.453C435.819 245.527 431.719 240.148 431.719 234.945C431.719 233.623 432.248 232.432 433.306 231.55C434.981 230.14 437.935 229.478 442.3 229.61C445.342 229.699 447.9 230.14 447.988 230.14L450.192 230.536L449.046 232.476C448.341 233.711 442.036 244.513 441.022 245.791C440.625 246.364 440.052 246.629 439.39 246.629Z" fill="#FF8000"/>
<path d="M449.707 230.668C449.707 230.668 446.444 254.124 438.464 255.27C438.464 255.27 426.075 261.399 427.177 266.425C428.279 271.451 439.081 282.694 437.494 289.439C437.494 289.439 439.875 291.953 443.622 290.718C443.622 290.718 441.682 278.682 436.568 274.361C431.454 270.084 429.381 263.912 433.438 262.501C437.494 261.09 452.528 244.512 449.707 230.668Z" fill="#FF8000"/>
<path d="M404.253 152.806C404.429 151.395 404.561 149.764 403.415 149.764C402.709 149.808 402.445 153.115 402.048 154.217C401.607 153.997 399.27 151.66 399.623 151.395C399.976 151.175 400.637 149.411 400.637 149.411C402.93 149.147 403.194 147.692 403.194 147.692L400.549 147.912C400.681 147.78 400.814 147.692 400.902 147.559C403.591 145.179 402.401 143.195 402.401 143.195C401.343 143.9 397.551 147.824 394.377 150.734C393.054 151.924 394.906 156.51 396.625 159.949C397.066 160.83 396.934 162.638 396.757 164.137C396.184 165.636 395.523 167.312 395.038 168.193L394.994 168.237C389.879 178.29 374.536 209.858 375.638 223.394C375.815 225.289 376.3 226.877 377.182 227.979C377.226 227.979 377.226 228.023 377.226 228.023C377.402 228.111 382.12 229.831 385.867 226.48C387.939 224.584 390.232 218.72 392.393 211.445C397.463 194.339 401.872 169.384 401.872 169.384C401.916 168.767 402.004 167.973 402.18 167.179C402.224 167.091 402.224 167.047 402.224 167.047C402.621 165.195 403.239 163.299 403.327 163.123C404.341 161.404 405.002 159.772 404.738 158.89C404.561 157.921 404.164 153.732 404.253 152.806Z" fill="#FFAD97"/>
<path d="M402.312 167.135C402.312 167.135 402.312 167.179 402.268 167.267C402.091 168.061 402.003 168.854 401.959 169.472C401.959 169.472 397.506 194.426 392.48 211.533C385.646 215.81 387.277 208.844 387.894 205.801C388.468 203.156 398.52 177.055 401.518 169.295C401.562 169.251 401.562 169.163 401.606 169.119C402.047 167.84 402.312 167.135 402.312 167.135Z" fill="#FF957C"/>
<path d="M431.367 156.598C428.149 155.54 424.577 156.421 422.285 158.89C419.551 161.756 415.98 165.636 414.305 167.841C411.395 171.632 405.487 184.815 405.487 184.815C405.487 184.815 405.134 202.495 413.335 216.119C413.335 216.119 441.772 200.246 445.652 179.083C448.298 164.666 438.157 158.89 431.367 156.598Z" fill="#476CD2"/>
<path d="M462.008 235.606C458.481 235.606 453.058 235.65 449.002 234.856L445.254 227.361C456.894 229.698 473.559 228.816 482.862 223.702C489.828 219.866 493.444 215.237 493.488 215.193L495.692 222.732C495.516 222.952 493.62 225.069 485.86 229.389C480.481 232.343 472.369 235.606 462.008 235.606Z" fill="#FF8000"/>
<path d="M543.047 302.27V311.749C543.047 314.174 541.063 316.158 538.682 316.158H410.513C408.132 316.158 406.148 314.174 406.148 311.749V306.635C406.148 304.21 408.132 302.27 410.513 302.27H543.047Z" fill="#8CA9F7"/>
<path d="M494.107 306.679V311.794C494.107 314.219 492.123 316.203 489.742 316.203H410.513C408.132 316.203 406.148 314.219 406.148 311.794V306.679C406.148 304.254 408.088 302.314 410.513 302.314H489.786C492.167 302.27 494.107 304.254 494.107 306.679Z" fill="#83A3F9"/>
<path d="M429.912 316.069L425.988 333.441L404.781 427.837C404.693 428.189 404.428 428.454 404.12 428.454C403.414 428.454 402.885 427.66 403.062 426.867L420.962 324.931L422.505 316.069H429.912Z" fill="#001654"/>
<path d="M464.477 316.069L460.597 333.441L439.39 427.837C439.302 428.189 439.038 428.454 438.729 428.454C438.024 428.454 437.495 427.66 437.671 426.867L455.483 324.931L457.026 316.069H464.477Z" fill="#001654"/>
<path d="M488.814 316.158L492.694 333.574L513.681 428.014C513.769 428.366 514.034 428.631 514.342 428.631C515.048 428.631 515.577 427.881 515.445 427.044L497.809 325.064L496.266 316.202L488.814 316.158Z" fill="#001654"/>
<path d="M488.814 316.158L492.694 333.574C493.179 327.578 497.765 325.064 497.765 325.064L496.222 316.202L488.814 316.158Z" fill="#000E35"/>
<path d="M525.543 316.158L529.423 333.574L550.41 428.014C550.498 428.366 550.762 428.631 551.071 428.631C551.776 428.631 552.305 427.881 552.173 427.044L534.493 325.064L532.95 316.202L525.543 316.158Z" fill="#001654"/>
<path d="M525.543 316.158L529.423 333.574C529.908 327.578 534.493 325.064 534.493 325.064L532.95 316.202L525.543 316.158Z" fill="#000E35"/>
<path d="M528.672 150.866C503.894 149.014 481.849 173.351 479.424 205.228C478.366 219.513 481.408 232.916 487.36 243.498C488.859 246.187 490.05 249.009 490.932 251.963C497.766 275.022 503.277 302.622 490.711 302.534H541.855C541.855 302.534 541.855 268.453 557.727 236.003C581.624 187.019 553.451 152.718 528.672 150.866Z" fill="#899BCE"/>
<path d="M529.862 150.866C505.083 149.014 483.039 173.351 480.614 205.228C479.556 219.513 482.598 232.916 488.55 243.498C490.049 246.187 491.239 249.009 492.121 251.963C498.955 275.022 504.466 302.622 491.901 302.534H543.045C543.045 302.534 543.045 268.453 558.917 236.003C582.857 187.019 554.64 152.718 529.862 150.866Z" fill="#A8B9E7"/>
<path d="M326.785 182.126H254.875L280.623 225.863C281.285 227.009 282.519 227.715 283.886 227.715H353.636L326.785 182.126Z" fill="#002B34"/>
<path d="M366.863 227.714H282.828C281.682 227.714 280.756 226.788 280.756 225.642C280.756 224.495 281.682 223.569 282.828 223.569H366.863C368.009 223.569 368.891 224.495 368.891 225.642C368.935 226.788 368.009 227.714 366.863 227.714Z" fill="#002B34"/>
<path d="M258.668 184.727H325.728L347.773 222.026H280.801L258.668 184.727Z" fill="white"/>
<path d="M300.374 183.757H290.013C289.881 183.757 289.793 183.669 289.793 183.537C289.793 183.405 289.881 183.317 290.013 183.317H300.374C300.507 183.317 300.595 183.405 300.595 183.537C300.595 183.669 300.507 183.757 300.374 183.757Z" fill="#F22D10"/>
<g filter="url(#filter0_d_2_59987)">
<rect x="17.002" y="5" width="278" height="165" rx="9" fill="white"/>
</g>
<rect x="92.002" y="24" width="128" height="9" rx="4.5" fill="#E2EDFE"/>
<rect x="92.002" y="47" width="75" height="7" rx="3.5" fill="#E2EDFE"/>
<rect x="92.002" y="59" width="173" height="3" rx="1.5" fill="#E2EDFE"/>
<rect x="92.002" y="65" width="121" height="3" rx="1.5" fill="#E2EDFE"/>
<rect x="92.002" y="71" width="143" height="3" rx="1.5" fill="#E2EDFE"/>
<rect x="47.002" y="43" width="34" height="34" rx="5" fill="#E2EDFE"/>
<rect x="92.002" y="86" width="75" height="7" rx="3.5" fill="#E2EDFE"/>
<rect x="92.002" y="98" width="173" height="3" rx="1.5" fill="#E2EDFE"/>
<rect x="92.002" y="104" width="121" height="3" rx="1.5" fill="#E2EDFE"/>
<rect x="92.002" y="110" width="143" height="3" rx="1.5" fill="#E2EDFE"/>
<rect x="47.002" y="82" width="34" height="34" rx="5" fill="#E2EDFE"/>
<rect x="92.002" y="125" width="75" height="7" rx="3.5" fill="#E2EDFE"/>
<rect x="92.002" y="137" width="173" height="3" rx="1.5" fill="#E2EDFE"/>
<rect x="92.002" y="143" width="121" height="3" rx="1.5" fill="#E2EDFE"/>
<rect x="92.002" y="149" width="143" height="3" rx="1.5" fill="#E2EDFE"/>
<rect x="47.002" y="121" width="34" height="34" rx="5" fill="#E2EDFE"/>
<defs>
<filter id="filter0_d_2_59987" x="9.00195" y="0" width="308" height="195" filterUnits="userSpaceOnUse" color-interpolation-filters="sRGB">
<feFlood flood-opacity="0" result="BackgroundImageFix"/>
<feColorMatrix in="SourceAlpha" type="matrix" values="0 0 0 0 0 0 0 0 0 0 0 0 0 0 0 0 0 0 127 0" result="hardAlpha"/>
<feOffset dx="7" dy="10"/>
<feGaussianBlur stdDeviation="7.5"/>
<feComposite in2="hardAlpha" operator="out"/>
<feColorMatrix type="matrix" values="0 0 0 0 0 0 0 0 0 0 0 0 0 0 0 0 0 0 0.1 0"/>
<feBlend mode="normal" in2="BackgroundImageFix" result="effect1_dropShadow_2_59987"/>
<feBlend mode="normal" in="SourceGraphic" in2="effect1_dropShadow_2_59987" result="shape"/>
</filter>
</defs>
</svg>
