<svg width="41" height="41" viewBox="0 0 41 41" fill="none" xmlns="http://www.w3.org/2000/svg">
<rect width="41" height="41" rx="20" fill="#1CB7EB"/>
<path d="M9.40332 26.5705C11.3622 27.701 13.6879 28.363 16.1887 28.363C24.4079 28.363 29.0482 22.0994 28.7716 16.4876C29.6353 15.9274 30.3861 15.2196 30.9788 14.4201C30.1828 14.7358 29.3304 14.9548 28.4385 15.0465C29.353 14.5525 30.053 13.7734 30.3861 12.8364C29.5336 13.2947 28.5853 13.6257 27.5748 13.8039C26.7676 13.0299 25.616 12.541 24.3458 12.541C21.4894 12.541 19.3895 14.9446 20.033 17.445C16.3524 17.2769 13.0952 15.6881 10.9106 13.2743C9.75331 15.0719 10.3065 17.4195 12.2823 18.606C11.5541 18.5857 10.871 18.4074 10.2783 18.107C10.2331 19.9555 11.7009 21.6869 13.8291 22.0739C13.2081 22.2267 12.525 22.2624 11.8307 22.1401C12.3952 23.729 14.0266 24.8798 15.9629 24.9155C14.0944 26.2344 11.746 26.82 9.40332 26.5705Z" fill="white"/>
</svg>
