<svg width="41" height="41" viewBox="0 0 41 41" fill="none" xmlns="http://www.w3.org/2000/svg">
<rect width="41" height="41" rx="20" fill="#007EBB"/>
<path d="M30.3047 29.0553V29.0545H30.3092V22.5146C30.3092 19.3151 29.6048 16.8506 25.7795 16.8506C23.9405 16.8506 22.7065 17.8373 22.2026 18.7728H22.1494V17.1493H18.5225V29.0545H22.2991V23.1595C22.2991 21.6073 22.6001 20.1065 24.5659 20.1065C26.5029 20.1065 26.5318 21.8778 26.5318 23.259V29.0553H30.3047Z" fill="white"/>
<path d="M12.3711 17.1504H16.1523V29.0556H12.3711V17.1504Z" fill="white"/>
<path d="M14.2584 11.2227C13.0494 11.2227 12.0684 12.1819 12.0684 13.364C12.0684 14.5461 13.0494 15.5254 14.2584 15.5254C15.4674 15.5254 16.4484 14.5461 16.4484 13.364C16.4476 12.1819 15.4666 11.2227 14.2584 11.2227V11.2227Z" fill="white"/>
</svg>
