<svg width="321" height="211" viewBox="0 0 321 211" fill="none" xmlns="http://www.w3.org/2000/svg">
<path d="M25.3688 210.464C25.3688 210.464 -13.9078 157.323 5.28089 102.607C17.7891 66.9389 64.7272 47.406 91.2269 66.9389C102.509 75.2558 138.702 67.2144 158.031 32.7662C195.591 -34.1887 326.665 6.4775 302.793 109.284C291.242 159.041 337.935 160.838 314.145 210.582L25.3688 210.464Z" fill="#F0F6FF"/>
<g filter="url(#filter0_d_2_60677)">
<path d="M97.6185 94.0723H29.1797V140.189H97.6185V94.0723Z" fill="white"/>
</g>
<path d="M97.886 140.413H28.9561V93.8496H97.8413V140.413H97.886ZM29.4025 139.967H97.3949V94.296H29.4025V139.967Z" fill="#EBEBEB"/>
<path d="M35.8311 97.5537C35.8311 98.4466 35.1168 99.1163 34.2686 99.1163C33.4204 99.1163 32.7061 98.402 32.7061 97.5537C32.7061 96.7055 33.4204 95.9912 34.2686 95.9912C35.1168 95.9912 35.8311 96.7055 35.8311 97.5537Z" fill="#37474F"/>
<path d="M42.2598 97.554C42.2598 98.4469 41.5455 99.1165 40.6973 99.1165C39.8491 99.1165 39.1348 98.4022 39.1348 97.554C39.1348 96.7058 39.8491 95.9915 40.6973 95.9915C41.5455 95.9915 42.2598 96.7058 42.2598 97.554Z" fill="#EBEBEB"/>
<path d="M48.6885 97.554C48.6885 98.4469 47.9742 99.1165 47.126 99.1165C46.2778 99.1165 45.5635 98.4022 45.5635 97.554C45.5635 96.7058 46.2778 95.9915 47.126 95.9915C47.9742 95.9915 48.6885 96.7058 48.6885 97.554Z" fill="#FF8000"/>
<path d="M97.6185 100.814H29.1797V101.261H97.6185V100.814Z" fill="#EBEBEB"/>
<path d="M77.3048 139.34C77.3048 143.358 74.0458 146.573 70.0725 146.573C69.9386 146.573 69.8047 146.573 69.7154 146.573C69.7154 146.573 57.0366 146.617 56.8133 146.617C52.7954 146.617 49.5811 143.358 49.5811 139.385C49.5811 135.367 52.84 132.153 56.8133 132.153H69.5814C69.76 132.153 69.894 132.153 70.0725 132.153C74.0458 132.108 77.3048 135.323 77.3048 139.34Z" fill="#3E63C8"/>
<path d="M56.8564 139.564C56.8564 139.296 56.9457 139.028 57.1243 138.805C57.169 138.716 57.2582 138.626 57.3475 138.492L57.794 138.046C57.9725 137.912 58.1065 137.778 58.285 137.689C58.9993 137.242 59.7583 136.975 60.5619 136.796C62.4816 136.439 64.3566 136.439 66.2763 136.796C67.0799 136.975 67.8388 137.198 68.5531 137.689C68.7317 137.823 68.9103 137.957 69.0888 138.046L69.4906 138.448C69.5799 138.626 69.7138 138.76 69.8031 138.939C69.8924 139.117 69.9371 139.296 69.9817 139.475C69.8924 139.475 69.8924 139.475 69.8478 139.475C68.6424 139.475 67.437 139.475 66.2316 139.475C66.1423 139.475 66.1423 139.43 66.0977 139.385C65.8745 138.983 65.5173 138.716 65.0262 138.716C63.9548 138.626 62.8387 138.626 61.7673 138.716C61.2762 138.76 60.919 138.983 60.6958 139.385C60.6512 139.43 60.6512 139.475 60.5619 139.475C59.3565 139.475 58.1065 139.475 56.9011 139.475C56.9011 139.608 56.9011 139.608 56.8564 139.564Z" fill="white"/>
<path d="M56.8564 141.706C56.8564 141.304 56.8564 140.858 56.8564 140.456C56.8564 140.412 56.8564 140.412 56.8564 140.367C58.1065 140.367 59.3119 140.367 60.5619 140.367C60.5619 140.456 60.5619 140.546 60.5619 140.635C60.5619 140.992 60.5619 141.349 60.5619 141.706C60.5619 142.019 60.4279 142.197 60.0708 142.197C59.1333 142.197 58.2404 142.197 57.3029 142.197C57.035 142.153 56.8564 142.019 56.8564 141.706Z" fill="white"/>
<path d="M66.2764 141.707C66.2764 141.26 66.321 140.769 66.321 140.323C67.4817 140.323 68.7318 140.323 69.9818 140.323C69.9818 140.323 69.9818 140.367 69.9818 140.412C69.9818 140.858 69.9818 141.26 69.9818 141.707C69.9818 142.019 69.8032 142.153 69.5354 142.153C68.5978 142.153 67.6603 142.153 66.7674 142.153C66.4103 142.153 66.2764 141.975 66.2764 141.707Z" fill="white"/>
<path d="M55.7871 89.0262L58.7336 94.1602L60.2961 93.2673C60.7426 92.9995 61.3229 93.0441 61.7694 93.312C62.0372 93.4905 62.2604 93.6245 62.5283 93.7584C63.0194 93.9816 63.2873 94.4727 63.2873 95.0084V96.8388H69.1802V95.0084C69.1802 94.4727 69.4927 93.9816 69.9392 93.7584C70.207 93.6245 70.4749 93.4905 70.6981 93.312C71.1446 92.9995 71.7249 92.9995 72.1714 93.2673L73.7339 94.1602L76.6804 89.0262L75.1178 88.1333C74.6714 87.8654 74.4035 87.3744 74.4482 86.8386C74.4482 86.7047 74.4482 86.5708 74.4482 86.3922C74.4482 86.2583 74.4482 86.0797 74.4482 85.9458C74.4035 85.41 74.6714 84.9189 75.1178 84.6511L76.6804 83.7582L73.8232 78.6242L72.2606 79.5171C71.8142 79.7849 71.2338 79.7403 70.7874 79.4724C70.5642 79.2938 70.2963 79.1599 70.0285 79.026C69.5374 78.8028 69.2695 78.3117 69.2695 77.7759V75.9456H63.3765V77.7759C63.3765 78.3117 63.064 78.8028 62.6176 79.026C62.3497 79.1599 62.0819 79.2938 61.8587 79.4724C61.4122 79.7849 60.8319 79.7849 60.3854 79.5171L58.8229 78.6242L55.8764 83.7582L57.4389 84.6511C57.8854 84.9189 58.1532 85.41 58.1086 85.9458C58.1086 86.0797 58.1086 86.2583 58.1086 86.3922C58.1086 86.5261 58.1086 86.7047 58.1086 86.8386C58.1532 87.3744 57.8854 87.8654 57.4389 88.1333L55.7871 89.0262ZM61.4122 86.3922C61.4122 83.7136 63.5998 81.5707 66.2337 81.5707C68.9124 81.5707 71.0999 83.7582 71.0999 86.3922C71.0999 89.0262 68.9124 91.2137 66.2337 91.2137C63.5998 91.2584 61.4122 89.0708 61.4122 86.3922Z" fill="#3E63C8"/>
<path d="M173.674 93.7228C177.175 79.6542 168.609 65.411 154.54 61.9098C140.472 58.4086 126.228 66.9752 122.727 81.0438C119.226 95.1125 127.793 109.356 141.861 112.857C155.93 116.358 170.173 107.791 173.674 93.7228Z" fill="#3E63C8"/>
<path d="M167.642 92.2582C170.332 81.5197 163.808 70.6337 153.069 67.9435C142.331 65.2534 131.445 71.7778 128.755 82.5163C126.065 93.2547 132.589 104.141 143.327 106.831C154.066 109.521 164.952 102.997 167.642 92.2582Z" fill="white"/>
<path d="M162.097 90.8809C164.031 83.2061 159.378 75.4164 151.703 73.482C144.028 71.5477 136.238 76.2013 134.304 83.876C132.37 91.5508 137.023 99.3405 144.698 101.275C152.373 103.209 160.163 98.5556 162.097 90.8809Z" fill="#3E63C8"/>
<path d="M155.861 89.3241C156.935 85.094 154.376 80.7945 150.146 79.7209C145.916 78.6473 141.616 81.2062 140.543 85.4363C139.469 89.6665 142.028 93.966 146.258 95.0396C150.488 96.1132 154.788 93.5542 155.861 89.3241Z" fill="white"/>
<path d="M151.663 88.2652C152.151 86.3539 150.997 84.4093 149.085 83.9219C147.174 83.4345 145.229 84.5888 144.742 86.5002C144.254 88.4115 145.409 90.3561 147.32 90.8435C149.231 91.3309 151.176 90.1765 151.663 88.2652Z" fill="#3E63C8"/>
<path d="M179.984 54.8516L149.9 84.9355L150.626 85.6616L180.71 55.5777L179.984 54.8516Z" fill="#FF8000"/>
<path d="M152.127 86.3042L148.198 87.3757L149.27 83.447L152.127 86.3042Z" fill="#FF8000"/>
<path d="M185.387 53.2679L179.762 58.893L175.342 60.277L176.681 55.8573L182.306 50.1875L180.967 54.6072L185.387 53.2679Z" fill="#FF8000"/>
<path d="M14 194.877L50.7864 194.788L87.5729 194.743L161.19 194.654L234.763 194.743L271.594 194.788L308.381 194.877L271.594 195.011H234.763L161.19 195.1L87.5729 195.011H50.7864L14 194.877Z" fill="#263238"/>
<path d="M107.127 197.512H45.6079L40.8311 155.726H102.35L107.127 197.512Z" fill="#37474F"/>
<path d="M103.778 194.699H48.2859L44.1787 158.538H99.6262L103.778 194.699Z" fill="white"/>
<path d="M141.86 194.699H78.7334V197.512H141.86V194.699Z" fill="#37474F"/>
<path d="M141.904 194.699H110.117V197.512H141.904V194.699Z" fill="#263238"/>
<path d="M84.1799 158.538L48.2863 194.431L47.2148 185.056L73.6886 158.538H84.1799Z" fill="#EBEBEB"/>
<path d="M102.84 186.485L94.5814 194.699H84.1348L101.769 177.065L102.84 186.485Z" fill="#EBEBEB"/>
<path d="M51.0541 158.538L44.8933 164.699L44.5361 161.484L47.4826 158.538H51.0541Z" fill="#EBEBEB"/>
<path d="M101.055 171.038L77.3938 194.7H73.8223L100.698 167.824L101.055 171.038Z" fill="#EBEBEB"/>
<path d="M55.6966 158.538L45.3393 168.895L45.25 168.091L54.8038 158.538H55.6966Z" fill="#EBEBEB"/>
<path d="M89.3138 158.538L53.1077 194.699H52.2148L88.4209 158.538H89.3138Z" fill="#EBEBEB"/>
<path d="M100.474 165.77L71.5003 194.699H70.6074L100.385 164.967L100.474 165.77Z" fill="#EBEBEB"/>
<path d="M214.896 197.512H276.416L281.192 155.726H219.673L214.896 197.512Z" fill="#37474F"/>
<path d="M218.245 194.699H273.693L277.845 158.538H222.352L218.245 194.699Z" fill="white"/>
<path d="M243.245 194.699H180.119V197.512H243.245V194.699Z" fill="#37474F"/>
<path d="M211.905 194.699H180.119V197.512H211.905V194.699Z" fill="#263238"/>
<path d="M276.238 172.556L274.898 184.342L264.541 194.7H254.05L276.238 172.556Z" fill="#EBEBEB"/>
<path d="M256.549 158.538L220.388 194.699H218.245L219.317 185.324L246.103 158.538H256.549Z" fill="#EBEBEB"/>
<path d="M233.022 158.538L221.013 170.547L221.459 166.484L229.45 158.538H233.022Z" fill="#EBEBEB"/>
<path d="M272.443 158.538L236.281 194.699H232.71L268.871 158.538H272.443Z" fill="#EBEBEB"/>
<path d="M276.728 168.047L276.639 169.03L250.969 194.7H250.076L276.728 168.047Z" fill="#EBEBEB"/>
<path d="M276.193 158.538L240.032 194.699H239.139L275.3 158.538H276.193Z" fill="#EBEBEB"/>
<path d="M242.532 158.538L219.764 181.261L219.898 180.234L241.639 158.538H242.532Z" fill="#EBEBEB"/>
<path d="M102.751 134.564C110.386 149.967 121.68 165.324 124.716 168.271C132.841 176.083 154.583 181.708 160.967 181.887C163.735 181.976 167.53 163.583 165.521 161.485C163.467 159.342 136.681 153.493 135.252 152.422C134.27 151.663 121.457 139.52 112.975 132.288C102.439 123.27 100.742 130.547 102.751 134.564Z" fill="#F7A9A0"/>
<path d="M159.583 158.894L152.664 180.725C152.664 180.725 129.984 174.743 123.913 168.895C117.841 163.091 105.252 142.153 102.796 135.278C100.341 128.403 101.948 122.956 113.065 131.885C124.181 140.814 133.601 149.966 135.61 151.439C137.529 152.957 159.583 158.894 159.583 158.894Z" fill="#3E63C8"/>
<path d="M152.575 159.787C152.664 160.412 153.245 160.814 153.825 160.725C154.45 160.635 154.852 160.055 154.762 159.475C154.673 158.85 154.093 158.448 153.512 158.537C152.887 158.582 152.486 159.162 152.575 159.787Z" fill="#263238"/>
<path d="M146.994 158.181C147.083 158.806 147.663 159.207 148.244 159.118C148.869 159.029 149.271 158.448 149.181 157.868C149.092 157.243 148.512 156.841 147.931 156.931C147.351 156.975 146.905 157.556 146.994 158.181Z" fill="#263238"/>
<path d="M135.922 175.324C130.967 173.405 126.234 171.128 123.913 168.94C117.841 163.136 105.252 142.199 102.796 135.323C101.234 130.904 101.323 127.109 104.493 127.243L135.922 175.324Z" fill="#375BBB"/>
<path d="M66.5901 194.698H123.868C124.091 192.6 112.305 134.25 106.68 126.929C105.475 125.366 101.502 124.92 98.1533 125.366C97.2157 125.456 96.3229 125.679 95.5639 125.902C95.5639 125.902 95.5193 125.902 95.4746 125.947C94.6711 126.214 94.046 126.527 93.555 126.884C84.2244 134.34 66.1437 194.207 66.5901 194.698Z" fill="#3E63C8"/>
<path d="M102.037 140.145L104.448 135.412L107.618 138.805L106.814 142.243L103.734 142.645L102.037 140.145Z" fill="#2B4DA8"/>
<path d="M103.733 142.644L102.26 177.511L108.778 189.029L112.171 176.082L106.813 142.242L103.733 142.644Z" fill="#375BBB"/>
<path d="M103.645 134.743C102.752 134.699 96.7699 130.011 94.9395 126.395C94.8056 126.127 95.2966 123.583 95.6984 120.413C95.9216 118.493 96.1895 116.35 96.2342 114.386C96.2342 113.984 97.5735 114.788 97.5735 114.788L100.118 115.502L108.467 117.824C108.467 117.824 107.127 121.886 107.038 125.324C107.038 125.592 107.038 125.859 107.083 126.127C107.083 126.172 107.083 126.217 107.083 126.261C107.261 127.824 105.118 134.833 103.645 134.743Z" fill="#F7A9A0"/>
<path d="M107.039 126.126C107.039 126.171 107.039 126.216 107.039 126.26C106.637 126.305 106.235 126.305 105.789 126.305C97.4851 125.858 96.8154 115.233 96.8154 115.233L100.074 115.501L108.423 117.822C108.423 117.822 107.083 121.885 106.994 125.323C106.994 125.59 106.994 125.858 107.039 126.126Z" fill="#263238"/>
<path d="M94.27 99.9663C93.02 104.386 95.5647 116.976 98.7344 119.699C103.333 123.717 110.699 123.94 114.092 118.449C117.351 113.136 113.735 96.7966 110.208 94.2965C105.029 90.6357 96.1004 93.4483 94.27 99.9663Z" fill="#F7A9A0"/>
<path d="M106.726 107.288C106.726 107.243 106.682 107.333 106.682 107.377C106.86 108.226 106.95 109.208 106.235 109.654V109.699C107.173 109.386 107.039 108.047 106.726 107.288Z" fill="#263238"/>
<path d="M105.788 106.529C104.404 106.708 104.851 109.476 106.101 109.297C107.395 109.163 106.949 106.395 105.788 106.529Z" fill="#263238"/>
<path d="M111.726 106.663C111.726 106.618 111.816 106.708 111.816 106.708C111.905 107.556 112.173 108.538 113.021 108.717C113.066 108.717 113.066 108.761 113.021 108.761C112.039 108.761 111.682 107.467 111.726 106.663Z" fill="#263238"/>
<path d="M112.351 105.636C113.691 105.324 114.271 108.047 112.976 108.36C111.726 108.628 111.191 105.904 112.351 105.636Z" fill="#263238"/>
<path d="M104.538 105.457C104.895 105.323 105.208 105.1 105.565 104.921C105.967 104.698 106.279 104.564 106.503 104.162C106.637 103.939 106.503 103.582 106.279 103.493C105.788 103.18 105.253 103.314 104.806 103.582C104.27 103.85 103.958 104.162 103.735 104.698C103.467 105.189 104.047 105.68 104.538 105.457Z" fill="#263238"/>
<path d="M113.2 104.073C112.798 104.073 112.441 103.984 112.039 103.94C111.592 103.895 111.235 103.895 110.878 103.582C110.7 103.404 110.655 103.047 110.789 102.868C111.101 102.422 111.637 102.332 112.173 102.377C112.753 102.422 113.2 102.6 113.601 103.002C114.048 103.404 113.691 104.073 113.2 104.073Z" fill="#263238"/>
<path d="M107.217 115.323C107.44 115.502 107.708 115.725 108.02 115.725C108.333 115.725 108.645 115.502 108.913 115.368C108.958 115.368 108.958 115.368 108.958 115.413C108.779 115.77 108.333 116.038 107.931 116.038C107.529 116.038 107.306 115.725 107.127 115.368C107.083 115.368 107.172 115.323 107.217 115.323Z" fill="#263238"/>
<path d="M110.431 113.225C110.431 113.225 109.984 114.118 109.225 114.52C108.958 114.654 108.645 114.743 108.288 114.743C107.574 114.654 107.44 114.029 107.484 113.493C107.529 113.047 107.663 112.645 107.663 112.645C107.663 112.645 108.824 113.404 110.431 113.225Z" fill="white"/>
<path d="M107.708 112.645C108.288 113.315 109.092 113.627 109.851 113.627C110.208 113.627 110.565 113.582 110.922 113.493C111.011 113.493 111.056 113.449 111.101 113.449C111.145 113.449 111.235 113.404 111.279 113.404C111.369 113.359 111.413 113.27 111.413 113.181C111.413 113.136 111.413 113.136 111.413 113.091V113.002C111.324 112.332 111.101 111.35 111.101 111.35C111.369 111.44 112.663 111.797 112.619 111.44C111.994 108.627 111.324 105.502 110.119 102.823C110.074 102.734 109.94 102.779 109.985 102.868C110.476 105.591 111.413 108.225 111.949 110.948C111.547 110.859 110.833 110.681 110.52 110.725C110.431 110.77 110.967 112.645 111.011 112.913C111.011 112.913 111.011 112.913 111.011 112.957C109.94 113.27 109.047 113.091 107.842 112.511C107.708 112.511 107.619 112.6 107.708 112.645Z" fill="#263238"/>
<path d="M95.7428 109.788C98.7339 109.342 98.5554 103.806 98.5554 103.806C98.5554 103.806 103.6 102.199 103.779 98.2257C103.779 98.2257 109.136 100.636 112.797 98.6721C116.458 96.7078 114.984 92.4666 114.449 91.6184C113.913 90.7702 111.993 92.7791 111.993 92.7791C111.993 92.7791 111.368 90.3684 110.698 90.1898C109.984 90.0559 109.493 91.6184 109.493 91.6184C109.493 91.6184 104.27 90.6809 99.8054 91.4845C95.2964 92.288 93.7338 97.1542 93.7338 97.1542C93.7338 97.1542 91.4124 98.0024 90.8766 99.8328C90.3409 101.574 93.8231 110.056 95.7428 109.788Z" fill="#263238"/>
<path d="M97.3504 103.985C101.413 103.941 103.69 100.905 103.69 96.9761C103.69 96.9315 103.779 96.9315 103.779 96.9761C104.181 100.548 101.458 105.012 97.3504 104.164C97.2165 104.164 97.2165 103.985 97.3504 103.985Z" fill="#263238"/>
<path d="M93.8233 97.0208C93.8679 97.0208 93.9126 97.0654 93.8679 97.11C92.8411 97.7797 91.5911 98.3601 90.9661 99.5208C90.2071 100.905 90.6536 102.467 91.1893 103.807C92.0375 105.905 93.6001 108.539 95.6983 109.521C95.8322 109.566 95.743 109.744 95.609 109.7C93.0643 108.673 91.1893 105.235 90.5196 102.691C89.7161 99.8779 91.2786 98.0029 93.8233 97.0208Z" fill="#263238"/>
<path d="M108.288 98.6722C110.207 99.4758 112.841 99.1186 114.359 97.69C116.234 95.9043 115.431 93.5382 114.225 91.6631C114.181 91.5738 114.315 91.4399 114.359 91.5292C115.877 93.1364 116.368 95.815 114.85 97.6007C113.288 99.4311 110.207 99.8329 108.109 98.9401C107.975 98.8508 108.109 98.5829 108.288 98.6722Z" fill="#263238"/>
<path d="M106.011 112.288C104.359 112.333 102.797 111.306 102.306 109.654C101.725 107.69 102.842 105.636 104.806 105.056C106.77 104.476 108.824 105.592 109.404 107.556C109.985 109.52 108.868 111.574 106.904 112.154C106.636 112.244 106.324 112.288 106.011 112.288ZM105.788 105.369C105.52 105.369 105.252 105.413 104.984 105.502C103.288 105.994 102.306 107.779 102.797 109.476C103.288 111.172 105.074 112.154 106.77 111.663C108.467 111.172 109.449 109.386 108.958 107.69C108.556 106.261 107.217 105.324 105.788 105.369Z" fill="#455A64"/>
<path d="M114.404 110.949C112.975 110.994 111.636 109.61 111.368 107.69C111.234 106.708 111.368 105.77 111.725 105.011C112.127 104.208 112.752 103.717 113.511 103.628C114.27 103.494 115.029 103.806 115.654 104.431C116.279 105.056 116.681 105.904 116.815 106.887C117.127 108.895 116.145 110.726 114.672 110.949C114.583 110.949 114.493 110.949 114.404 110.949ZM113.779 104.074C113.734 104.074 113.645 104.074 113.601 104.074C113.02 104.163 112.529 104.565 112.172 105.235C111.815 105.904 111.725 106.753 111.859 107.601C112.127 109.342 113.333 110.637 114.583 110.413C115.833 110.235 116.592 108.628 116.324 106.887C116.19 106.038 115.833 105.235 115.297 104.744C114.851 104.297 114.315 104.029 113.779 104.074Z" fill="#455A64"/>
<path d="M109.404 108.004L109.047 107.691C109.538 107.155 110.699 106.307 111.77 107.111L111.458 107.512C110.475 106.753 109.449 107.959 109.404 108.004Z" fill="#455A64"/>
<path d="M93.243 111.485L92.752 111.306C92.8412 111.083 93.5109 109.163 94.5823 108.806C95.5645 108.494 102.216 108.092 102.529 108.047L102.574 108.538C100.654 108.672 95.5199 109.029 94.7609 109.252C94.002 109.52 93.4216 110.949 93.243 111.485Z" fill="#455A64"/>
<path d="M97.6622 110.323C97.6622 110.323 94.6265 106.35 92.8407 107.421C91.0103 108.493 93.4211 114.341 95.6086 115.056C97.7962 115.77 98.5105 113.761 98.5105 113.761L97.6622 110.323Z" fill="#F7A9A0"/>
<path d="M93.555 109.118C93.5103 109.118 93.5103 109.163 93.555 109.163C95.1175 109.743 95.9657 111.082 96.5907 112.555C96.0997 112.02 95.4746 111.707 94.7603 112.288C94.7157 112.332 94.7603 112.377 94.805 112.377C95.43 112.198 95.8764 112.288 96.3229 112.779C96.6354 113.136 96.8586 113.582 97.0818 113.984C97.1711 114.118 97.3943 114.029 97.3497 113.895V113.85C97.2604 111.886 95.6532 109.207 93.555 109.118Z" fill="#263238"/>
<path d="M107.083 126.44L104.092 133.762L95.0737 124.521L92.4844 127.467C92.4844 127.467 101.324 142.155 101.368 141.485L104.404 135.19L108.735 139.565L108.422 128.583L107.083 126.44Z" fill="#3154B5"/>
<path d="M108.869 134.118C108.735 132.288 108.69 130.502 108.511 128.672C108.511 128.627 108.422 128.582 108.378 128.672C108.02 130.413 108.467 137.333 108.467 138.984C108.288 138.806 104.449 135.145 104.404 135.19C103.735 136.172 101.547 140.77 101.368 141.172C99.9845 138.85 94.6273 130.368 92.9755 128.181C92.9308 128.136 92.8415 128.181 92.8862 128.225C94.1362 130.681 101.19 142.109 101.324 142.065C101.413 142.109 104.136 136.484 104.494 135.413C105.163 136.216 109.003 140.324 109.003 140.056C109.092 138.27 109.003 135.949 108.869 134.118Z" fill="#2B4DA8"/>
<path d="M125.833 202.735L81.2342 207.155L81.0557 172.6L125.655 168.181L125.833 202.735Z" fill="#FF8000"/>
<path d="M95.6542 167.332L81.0557 168.761V172.6L96.681 171.037L95.6542 167.332Z" fill="#FF8000"/>
<g opacity="0.1">
<path d="M125.833 202.735L81.2342 207.155L81.0557 172.6L125.655 168.181L125.833 202.735Z" fill="black"/>
<path d="M95.6542 167.332L81.0557 168.761V172.6L96.681 171.037L95.6542 167.332Z" fill="black"/>
</g>
<path d="M125.788 202.78L82.751 207.021L76.6348 172.333L122.484 168.493L125.788 202.78Z" fill="#EBEBEB"/>
<path d="M125.788 202.78L81.6795 207.11L75.0723 173.806L121.457 169.208L125.788 202.78Z" fill="white"/>
<path d="M125.699 202.779L81.0102 207.199L74.4922 174.564L119.181 170.145L125.699 202.779Z" fill="#FF8000"/>
<path d="M87.5737 132.065C72.3055 145.904 61.3232 169.744 61.6803 176.173C62.1268 184.655 77.4842 199.164 87.5291 203.361C90.0737 204.432 99.8507 183.673 96.1453 182.601C92.2167 181.441 83.1986 173.271 82.7522 172.869C81.8147 172.065 89.0916 153.94 92.1274 142.913C95.5649 130.547 94.0024 126.216 87.5737 132.065Z" fill="#F7A9A0"/>
<path d="M81.8584 200.189C91.5461 207.198 104.761 208.716 106.993 208.493C108.913 208.315 109.939 208.181 109.939 208.181C113.422 207.913 114.672 206.261 114.672 206.261C114.672 206.261 118.779 207.109 119.716 204.743C120.788 202.064 114.761 201.35 111.725 198.939C104.716 193.448 96.2783 183.671 94.4033 181.885L81.8584 200.189Z" fill="#F7A9A0"/>
<path d="M100.341 198.36C102.439 199.922 104.448 201.529 106.769 202.824C109.314 204.253 111.948 205.146 114.671 206.172C114.761 206.217 114.716 206.306 114.627 206.306C109.448 205.235 103.957 202.244 100.207 198.538C100.073 198.404 100.207 198.27 100.341 198.36Z" fill="#263238"/>
<path d="M96.4133 202.11C98.5562 203.538 102.306 205.994 109.985 208.092C110.03 208.092 109.985 208.137 109.985 208.137C104.806 207.422 100.342 205.547 96.2793 202.333C96.1454 202.199 96.2347 202.02 96.4133 202.11Z" fill="#263238"/>
<path d="M103.689 191.752C103.064 190.681 103.6 190.324 105.698 191.127C107.797 191.931 115.252 196.931 116.77 194.163C118.288 191.395 107.618 184.565 104.091 183.448C100.564 182.332 94.4482 181.841 94.4482 181.841C96.1893 183.627 100.207 188.27 103.689 191.752Z" fill="#F7A9A0"/>
<path d="M82.2158 201.753L94.3589 181.351C94.3589 181.351 82.9747 173.36 82.9301 172.601C82.8854 171.797 90.9213 149.832 93.3321 139.029C95.7428 128.225 94.5375 123.046 83.9123 135.1C73.2871 147.154 59.6261 167.422 60.3404 176.127C61.0993 184.833 82.2158 201.753 82.2158 201.753Z" fill="#3E63C8"/>
<path d="M91.3227 149.341C90.8763 150.1 90.4298 150.859 90.028 151.663C89.8941 151.931 89.7602 152.199 89.6262 152.422C89.7155 152.109 89.8495 151.797 89.9388 151.484C90.5638 149.52 91.1441 147.556 91.6799 145.547C91.6799 145.502 91.6352 145.457 91.5906 145.502C90.2066 148.895 89.0459 152.377 87.8851 155.815C86.7244 159.297 85.653 162.824 84.5815 166.351C84.0011 168.315 83.4208 170.324 82.9297 172.288C82.9297 172.333 82.9743 172.333 83.019 172.288C83.6886 170.592 84.269 168.806 84.8494 167.065C85.4297 165.324 86.0101 163.583 86.5905 161.797C87.4834 158.985 88.3762 156.217 89.2691 153.404C89.6709 152.913 89.9388 152.288 90.2513 151.708C90.6531 151.038 90.9656 150.19 91.3227 149.341C91.3674 149.341 91.3227 149.341 91.3227 149.341Z" fill="#375BBB"/>
<path d="M80.0277 196.62C79.8491 197.2 80.1616 197.825 80.742 198.049C81.3223 198.227 81.9474 197.915 82.1706 197.334C82.3491 196.754 82.0366 196.129 81.4563 195.906C80.8759 195.727 80.2062 196.04 80.0277 196.62Z" fill="#263238"/>
<path d="M75.7865 192.692C75.6079 193.272 75.9204 193.897 76.5008 194.12C77.0811 194.299 77.7061 193.986 77.9294 193.406C78.1079 192.826 77.7954 192.201 77.2151 191.977C76.6347 191.754 75.965 192.111 75.7865 192.692Z" fill="#263238"/>
<path d="M68.1533 188.673C69.5819 189.878 70.8766 191.173 72.1713 192.468C72.8409 193.137 73.4659 193.762 74.0909 194.432C74.716 195.102 75.341 195.771 76.0106 196.441C74.5374 195.325 73.1534 194.075 71.8588 192.78C70.5641 191.485 69.3141 190.146 68.1533 188.673Z" fill="#263238"/>
<path d="M223.646 96.6631C224.584 93.5827 228.781 86.8415 235.522 88.8951C245.165 91.797 244.763 110.86 249.093 117.199C256.951 128.717 256.236 139.298 248.826 140.325C240.522 141.441 233.423 131.976 235.522 113.137C236.816 101.351 234.004 95.8149 231.593 95.9488C229.227 96.0828 227.62 98.94 227.62 98.94L223.646 96.6631Z" fill="#263238"/>
<path d="M224.093 95.5025C224.718 94.0739 225.521 92.7793 226.459 91.5292C227.396 90.3239 228.602 89.2078 229.986 88.4488C231.37 87.6899 233.066 87.3327 234.629 87.556C236.191 87.7792 237.754 88.3149 239.048 89.2524C240.343 90.1899 241.415 91.44 242.173 92.7793C242.977 94.1632 243.557 95.5918 244.004 97.1097C244.852 100.101 245.254 103.181 245.432 106.217C244.941 103.181 244.316 100.19 243.379 97.2883C242.888 95.8597 242.307 94.4757 241.504 93.1811C240.745 91.8864 239.763 90.7703 238.557 89.9221C237.352 89.0738 235.968 88.5381 234.495 88.3149C233.066 88.0917 231.593 88.3595 230.254 88.9846C228.914 89.6096 227.754 90.5917 226.727 91.7078C226.191 92.2435 225.745 92.8686 225.298 93.4936C224.896 94.2079 224.495 94.8329 224.093 95.5025Z" fill="#263238"/>
<path d="M236.101 106.574C236.012 108.449 235.744 110.324 235.521 112.199C235.298 114.074 235.03 115.905 234.851 117.78C234.673 119.655 234.539 121.53 234.584 123.36C234.584 125.235 234.718 127.066 235.075 128.896C235.432 130.682 236.012 132.468 236.994 133.985C237.977 135.503 239.316 136.843 240.789 137.914C242.262 138.986 244.003 139.745 245.789 140.057C246.682 140.191 247.62 140.236 248.557 140.191C249.004 140.146 249.495 140.057 249.941 139.968C250.387 139.878 250.834 139.745 251.28 139.521C250.477 140.057 249.539 140.28 248.602 140.459C247.664 140.593 246.682 140.637 245.745 140.548C244.807 140.459 243.869 140.191 242.932 139.878C242.039 139.521 241.191 139.075 240.387 138.539C239.584 138.003 238.869 137.378 238.155 136.709L237.664 136.173L237.173 135.637C236.86 135.28 236.548 134.878 236.28 134.477C235.209 132.825 234.584 130.994 234.182 129.119C233.468 125.325 233.691 121.485 234.137 117.78C234.36 115.905 234.718 114.03 235.03 112.199C235.476 110.28 235.834 108.449 236.101 106.574Z" fill="#263238"/>
<path d="M223.111 96.6626C223.066 95.7697 223.736 94.6536 224.271 94.475C224.852 94.2965 229.093 96.1269 229.45 97.243C229.807 98.3144 227.932 99.2966 227.932 99.2966L223.111 96.6626Z" fill="#455A64"/>
<path d="M226.369 135.636C223.869 141.127 205.119 166.842 195.833 167.556C186.101 168.27 162.797 152.422 160.564 151.083C154.448 147.466 171.547 130.725 174.493 133.716C179.449 138.672 191.235 148.047 194.136 147.422C200.208 146.082 212.842 135.457 221.816 129.966C227.217 126.573 229.137 129.564 226.369 135.636Z" fill="#AD6359"/>
<path d="M162.037 151.93C160.966 151.216 152.483 146.484 149.269 141.93C147.572 139.519 143.688 132.376 145.028 131.126C146.233 130.01 147.796 131.707 147.796 131.707C147.796 131.707 146.099 128.492 147.84 126.974C149.537 125.457 152.037 128.448 152.037 128.448C152.037 128.448 150.519 125.01 152.349 123.626C154.18 122.242 156.144 125.68 156.144 125.68C156.144 125.68 154.626 122.599 156.635 122.108C159.001 121.483 161.189 127.465 163.466 129.787C164.001 130.323 174.85 139.609 174.85 139.609L162.037 151.93Z" fill="#AD6359"/>
<path d="M156.278 125.68C157.885 130.055 159.314 131.707 162.975 134.564C163.064 134.609 162.975 134.742 162.885 134.698C159.091 132.242 156.948 130.457 156.055 125.769C156.01 125.546 156.189 125.501 156.278 125.68Z" fill="#263238"/>
<path d="M152.127 128.447C154.18 132.867 155.743 134.652 159.314 137.911C159.359 137.956 159.314 138.045 159.225 138.001C155.43 135.143 153.377 133.268 151.904 128.581C151.859 128.402 152.037 128.268 152.127 128.447Z" fill="#263238"/>
<path d="M147.975 131.885C150.251 136.036 151.903 138.045 155.787 140.769C155.877 140.813 155.787 140.992 155.698 140.903C151.457 138.537 149.403 135.992 147.841 131.974C147.751 131.706 147.841 131.617 147.975 131.885Z" fill="#263238"/>
<path d="M178.555 138.27C178.555 138.27 176.144 132.912 174.582 130.814C173.019 128.716 164.225 123.001 162.885 124.832C161.144 127.198 165.564 131.484 168.019 133.314C168.019 133.314 164.001 138.761 166.501 142.511C169.001 146.261 178.555 138.27 178.555 138.27Z" fill="#AD6359"/>
<path d="M162.617 125.636C162.572 128.94 165.965 131.083 168.197 133.047C168.376 133.181 168.287 133.404 168.153 133.493C166.635 135.904 165.161 139.699 166.322 142.467C166.367 142.556 166.233 142.601 166.188 142.511C164.536 139.699 165.653 135.859 167.528 133.315C165.161 131.395 161.902 129.074 162.617 125.636C162.572 125.591 162.617 125.591 162.617 125.636Z" fill="#263238"/>
<path d="M226.101 137.198C223.199 143.002 206.19 167.779 197.038 168.181C187.841 168.583 168.645 160.725 168.645 160.725L182.886 139.029C182.886 139.029 192.752 146.127 194.315 146.216C195.877 146.261 216.592 132.6 221.413 129.609C226.19 126.573 230.833 127.734 226.101 137.198Z" fill="#FF8000"/>
<path d="M181.637 160.904C181.547 160.234 181.592 159.564 181.681 158.939C181.77 158.27 181.904 157.645 182.172 157.02C182.262 157.689 182.217 158.359 182.128 158.984C182.038 159.609 181.904 160.279 181.637 160.904Z" fill="white"/>
<path d="M209.985 156.529C209.896 155.859 209.941 155.189 210.03 154.564C210.119 153.895 210.253 153.27 210.521 152.645C210.61 153.314 210.566 153.984 210.476 154.609C210.387 155.279 210.253 155.904 209.985 156.529Z" fill="white"/>
<path d="M211.548 140.055C210.878 140.145 210.209 140.1 209.584 140.011C208.914 139.921 208.289 139.787 207.664 139.52C208.334 139.43 209.003 139.475 209.628 139.564C210.298 139.654 210.923 139.787 211.548 140.055Z" fill="white"/>
<path d="M188.69 147.511C188.02 147.6 187.35 147.555 186.725 147.466C186.056 147.377 185.431 147.243 184.806 146.975C185.475 146.886 186.145 146.93 186.77 147.02C187.44 147.109 188.065 147.243 188.69 147.511Z" fill="white"/>
<path d="M192.039 167.69C191.994 167.734 191.994 167.779 191.949 167.779C191.905 167.779 191.86 167.779 191.815 167.779C191.905 167.734 191.949 167.69 192.039 167.69Z" fill="white"/>
<path d="M175.922 153.092C176.324 152.556 176.859 152.11 177.35 151.708C177.886 151.306 178.422 150.949 179.047 150.681C178.645 151.217 178.109 151.663 177.618 152.065C177.083 152.467 176.547 152.824 175.922 153.092Z" fill="white"/>
<path d="M199.672 148.181C200.074 147.645 200.609 147.198 201.1 146.797C201.636 146.395 202.172 146.038 202.797 145.77C202.395 146.306 201.859 146.752 201.368 147.154C200.877 147.556 200.297 147.913 199.672 148.181Z" fill="white"/>
<path d="M191.815 154.966C192.351 155.368 192.798 155.904 193.199 156.395C193.601 156.93 193.958 157.466 194.226 158.091C193.69 157.689 193.244 157.154 192.842 156.663C192.44 156.127 192.039 155.591 191.815 154.966Z" fill="white"/>
<path d="M214.359 144.787C214.895 145.189 215.342 145.725 215.743 146.216C216.145 146.752 216.502 147.287 216.77 147.912C216.234 147.511 215.788 146.975 215.386 146.484C214.984 145.993 214.627 145.412 214.359 144.787Z" fill="white"/>
<path d="M185.967 142.555C184.181 145.814 182.44 149.073 180.52 152.243C178.601 155.368 176.636 158.493 174.404 161.395C174.36 161.439 174.27 161.395 174.315 161.35C176.011 158.091 177.976 155.011 179.895 151.841C181.815 148.671 183.869 145.636 185.788 142.466C185.833 142.332 186.012 142.421 185.967 142.555Z" fill="#263238"/>
<path d="M226.101 137.198C223.199 143.002 206.19 167.779 197.038 168.181C194.806 168.27 191.993 167.868 189.002 167.243C196.145 159.609 216.101 138.091 225.342 128.135C228.11 127.957 229.494 130.501 226.101 137.198Z" fill="#EF7800"/>
<path d="M209.182 194.7H263.067C263.067 194.7 242.129 141.663 230.968 130.994C227.932 128.092 220.432 128.315 216.771 133.181C213.78 137.199 205.432 153.137 205.03 158.896C204.673 164.655 209.137 170.325 209.137 170.325L209.182 194.7Z" fill="#FF8000"/>
<path d="M216.057 174.834C215.968 174.164 216.013 173.495 216.102 172.87C216.191 172.2 216.325 171.575 216.593 170.95C216.682 171.62 216.638 172.289 216.549 172.914C216.459 173.584 216.325 174.209 216.057 174.834Z" fill="white"/>
<path d="M253.066 184.835C252.977 184.165 253.022 183.496 253.111 182.871C253.2 182.201 253.334 181.576 253.602 180.951C253.691 181.621 253.647 182.29 253.557 182.915C253.468 183.54 253.334 184.21 253.066 184.835Z" fill="white"/>
<path d="M229.851 193.54C229.762 192.87 229.807 192.201 229.896 191.576C229.985 190.906 230.119 190.281 230.387 189.656C230.476 190.326 230.432 190.995 230.342 191.62C230.253 192.29 230.119 192.915 229.851 193.54Z" fill="white"/>
<path d="M224.496 153.495C224.407 152.825 224.451 152.156 224.541 151.531C224.63 150.861 224.764 150.236 225.032 149.611C225.121 150.281 225.076 150.95 224.987 151.575C224.898 152.245 224.764 152.87 224.496 153.495Z" fill="white"/>
<path d="M238.826 169.611C238.737 168.941 238.781 168.271 238.871 167.646C238.96 166.977 239.094 166.352 239.362 165.727C239.451 166.396 239.406 167.066 239.317 167.691C239.183 168.361 239.049 168.986 238.826 169.611Z" fill="white"/>
<path d="M209.986 156.53C209.897 155.861 209.942 155.191 210.031 154.566C210.12 153.896 210.254 153.271 210.522 152.646C210.611 153.316 210.567 153.986 210.477 154.611C210.388 155.28 210.254 155.905 209.986 156.53Z" fill="white"/>
<path d="M228.915 172.379C228.246 172.468 227.576 172.423 226.951 172.334C226.281 172.245 225.656 172.111 225.031 171.843C225.701 171.754 226.371 171.798 226.996 171.888C227.665 171.977 228.29 172.111 228.915 172.379Z" fill="white"/>
<path d="M245.165 156.977C244.496 157.066 243.826 157.021 243.201 156.932C242.531 156.843 241.906 156.709 241.281 156.441C241.951 156.352 242.621 156.396 243.246 156.486C243.915 156.575 244.54 156.709 245.165 156.977Z" fill="white"/>
<path d="M216.192 190.504C215.522 190.593 214.852 190.549 214.227 190.459C213.558 190.37 212.933 190.236 212.308 189.968C212.977 189.879 213.647 189.924 214.272 190.013C214.897 190.102 215.567 190.236 216.192 190.504Z" fill="white"/>
<path d="M246.415 177.156C245.746 177.246 245.076 177.201 244.451 177.112C243.781 177.022 243.156 176.889 242.531 176.621C243.201 176.531 243.871 176.576 244.496 176.665C245.165 176.755 245.79 176.889 246.415 177.156Z" fill="white"/>
<path d="M220.924 184.477C221.326 183.941 221.861 183.495 222.352 183.093C222.888 182.691 223.424 182.334 224.049 182.066C223.647 182.602 223.111 183.048 222.62 183.45C222.085 183.852 221.549 184.209 220.924 184.477Z" fill="white"/>
<path d="M241.281 188.362C241.683 187.826 242.219 187.38 242.71 186.978C243.246 186.576 243.781 186.219 244.406 185.951C244.005 186.487 243.469 186.933 242.978 187.335C242.442 187.781 241.906 188.138 241.281 188.362Z" fill="white"/>
<path d="M246.683 169.343C247.084 168.807 247.62 168.361 248.111 167.959C248.647 167.557 249.183 167.2 249.808 166.932C249.406 167.468 248.87 167.915 248.379 168.316C247.843 168.718 247.308 169.075 246.683 169.343Z" fill="white"/>
<path d="M214.494 162.467C214.896 161.931 215.432 161.485 215.923 161.083C216.458 160.681 216.994 160.324 217.619 160.056C217.217 160.592 216.682 161.039 216.191 161.44C215.7 161.842 215.119 162.199 214.494 162.467Z" fill="white"/>
<path d="M235.344 149.343C235.746 148.807 236.281 148.361 236.772 147.959C237.308 147.557 237.844 147.2 238.469 146.932C238.067 147.468 237.531 147.915 237.04 148.316C236.504 148.718 235.969 149.12 235.344 149.343Z" fill="white"/>
<path d="M210.566 178.138C210.164 178.674 209.673 179.076 209.138 179.477V178.942C209.584 178.629 210.075 178.361 210.566 178.138Z" fill="white"/>
<path d="M224.719 140.95C225.121 140.414 225.656 139.967 226.147 139.566C226.683 139.164 227.219 138.807 227.844 138.539C227.442 139.075 226.906 139.521 226.415 139.923C225.924 140.325 225.344 140.682 224.719 140.95Z" fill="white"/>
<path d="M206.95 165.191C207.486 165.593 207.932 166.129 208.334 166.62C208.736 167.155 209.093 167.691 209.361 168.316C208.825 167.914 208.379 167.379 207.977 166.888C207.575 166.352 207.218 165.816 206.95 165.191Z" fill="white"/>
<path d="M214.361 144.788C214.897 145.19 215.343 145.725 215.745 146.216C216.147 146.752 216.504 147.288 216.772 147.913C216.236 147.511 215.79 146.975 215.388 146.484C214.986 145.993 214.629 145.413 214.361 144.788Z" fill="white"/>
<path d="M233.066 177.781C233.602 178.183 234.049 178.719 234.45 179.21C234.852 179.746 235.209 180.281 235.477 180.906C234.941 180.505 234.495 179.969 234.093 179.478C233.647 178.942 233.29 178.406 233.066 177.781Z" fill="white"/>
<path d="M252.441 190.727C252.977 191.129 253.424 191.665 253.825 192.156C254.227 192.692 254.584 193.227 254.852 193.852C254.316 193.451 253.87 192.915 253.468 192.424C253.066 191.888 252.709 191.352 252.441 190.727Z" fill="white"/>
<path d="M232.665 135.146C233.201 135.548 233.647 136.084 234.049 136.575C234.451 137.11 234.808 137.646 235.076 138.271C234.54 137.869 234.094 137.334 233.692 136.842C233.29 136.351 232.933 135.816 232.665 135.146Z" fill="white"/>
<path d="M229.227 160.28C229.762 160.682 230.209 161.218 230.611 161.709C231.012 162.244 231.369 162.78 231.637 163.405C231.102 163.003 230.655 162.468 230.253 161.976C229.807 161.485 229.45 160.95 229.227 160.28Z" fill="white"/>
<path d="M227.35 131.528C227.038 132.332 222.439 137.154 218.734 136.484C217.528 136.261 218.421 129.609 218.421 129.609L218.377 129.118L217.707 122.019L226.502 117.868L227.752 117.332C227.752 117.332 227.797 119.296 227.841 121.707C227.841 121.841 227.841 121.93 227.841 122.064C227.841 122.198 227.841 122.332 227.841 122.466C227.841 122.823 227.841 123.18 227.841 123.582C227.841 123.85 227.841 124.118 227.841 124.43C227.841 124.743 227.841 125.011 227.841 125.323C227.797 128.18 227.484 131.171 227.35 131.528Z" fill="#AD6359"/>
<path d="M227.842 121.662C225.163 126.886 220.476 128.582 218.333 129.073L217.663 121.975L226.458 117.823L227.708 117.287C227.797 117.243 227.842 119.207 227.842 121.662Z" fill="#263238"/>
<path d="M208.69 111.484C207.708 123.984 215.074 125.993 217.753 126.172C220.208 126.35 228.557 126.707 230.833 114.386C233.11 102.064 227.619 97.6442 222.039 96.9299C216.458 96.2156 209.672 98.9835 208.69 111.484Z" fill="#AD6359"/>
<path d="M210.789 108.849C211.101 108.805 211.369 108.76 211.637 108.671C211.95 108.582 212.217 108.582 212.485 108.314C212.619 108.18 212.619 107.912 212.485 107.778C212.217 107.465 211.771 107.421 211.414 107.51C210.967 107.599 210.655 107.733 210.387 108.09C210.075 108.403 210.387 108.849 210.789 108.849Z" fill="#263238"/>
<path d="M219.092 109.029C218.78 108.985 218.512 108.895 218.244 108.851C217.931 108.761 217.664 108.761 217.44 108.493C217.306 108.359 217.306 108.092 217.44 107.958C217.708 107.645 218.155 107.645 218.512 107.69C218.958 107.779 219.226 107.958 219.539 108.27C219.806 108.583 219.494 109.074 219.092 109.029Z" fill="#263238"/>
<path d="M217.128 112.153C217.128 112.108 217.172 112.198 217.172 112.242C217.128 113.091 217.217 114.073 217.976 114.385C218.02 114.385 217.976 114.43 217.976 114.43C217.038 114.251 216.949 112.957 217.128 112.153Z" fill="#263238"/>
<path d="M217.931 111.305C219.315 111.26 219.315 113.983 218.065 114.073C216.815 114.073 216.77 111.349 217.931 111.305Z" fill="#263238"/>
<path d="M218.467 111.438C218.69 111.572 218.958 111.885 219.226 111.885C219.583 111.929 219.806 111.617 220.029 111.349C220.074 111.304 220.074 111.349 220.074 111.394C220.074 111.929 219.895 112.465 219.315 112.554C218.779 112.644 218.422 112.153 218.288 111.617C218.288 111.528 218.377 111.349 218.467 111.438Z" fill="#263238"/>
<path d="M212.395 111.974C212.395 111.929 212.35 112.018 212.35 112.063C212.395 112.911 212.306 113.894 211.502 114.206C211.458 114.206 211.502 114.251 211.502 114.251C212.484 114.072 212.574 112.777 212.395 111.974Z" fill="#263238"/>
<path d="M211.636 111.081C210.252 110.992 210.208 113.76 211.458 113.849C212.708 113.894 212.797 111.17 211.636 111.081Z" fill="#263238"/>
<path d="M211.056 111.26C210.833 111.394 210.61 111.662 210.342 111.662C210.029 111.662 209.806 111.35 209.627 111.082C209.627 111.037 209.583 111.082 209.583 111.126C209.538 111.662 209.717 112.198 210.208 112.332C210.654 112.421 211.011 111.975 211.145 111.484C211.235 111.35 211.145 111.216 211.056 111.26Z" fill="#263238"/>
<path d="M217.217 118.894C217.039 119.118 216.815 119.385 216.548 119.43C216.235 119.475 215.878 119.341 215.61 119.251C215.565 119.251 215.565 119.251 215.565 119.296C215.789 119.609 216.28 119.787 216.682 119.698C217.083 119.609 217.217 119.251 217.307 118.894C217.307 118.894 217.217 118.894 217.217 118.894Z" fill="#263238"/>
<path d="M213.646 115.814C213.646 115.814 213.467 117.109 213.467 117.689C213.467 117.734 213.601 117.778 213.824 117.778C213.824 117.778 213.824 117.778 213.869 117.778C214.94 117.957 216.012 117.6 216.637 116.707C216.681 116.662 216.592 116.573 216.547 116.618C215.744 117.198 214.896 117.332 213.913 117.332C213.869 117.153 214.315 115.144 214.226 115.144C213.913 115.1 213.244 115.323 212.842 115.457C213.155 112.778 213.869 110.189 214.137 107.555C214.137 107.466 214.003 107.421 213.958 107.51C213.021 110.189 212.574 113.225 212.217 115.993C212.172 116.35 213.422 115.903 213.646 115.814Z" fill="#263238"/>
<path d="M213.959 117.645C213.959 117.645 214.539 118.449 215.343 118.761C215.655 118.851 215.968 118.94 216.28 118.851C216.995 118.672 216.995 118.047 216.861 117.511C216.772 117.065 216.548 116.663 216.548 116.663C216.548 116.663 215.566 117.556 213.959 117.645Z" fill="#263238"/>
<path d="M215.343 118.763C215.655 118.852 215.968 118.941 216.28 118.852C216.995 118.673 216.995 118.048 216.861 117.513C216.146 117.557 215.387 118.048 215.343 118.763Z" fill="#EB9481"/>
<path d="M230.253 115.635C227.485 114.341 227.395 111.439 227.395 111.439C224.002 109.966 222.127 107.287 221.949 107.019C222.038 107.287 222.618 109.118 222.976 110.055C215.074 108.537 212.663 102.466 212.663 102.466C210.074 105.01 209.583 106.662 209.181 107.466C209.181 107.466 209.136 102.6 211.636 99.3852C214.717 95.4119 225.029 94.3851 229.761 99.6084C234.895 105.234 230.253 115.635 230.253 115.635Z" fill="#263238"/>
<path d="M216.993 108.759C218.243 109.474 219.627 109.965 221.055 110.277C218.823 109.652 216.814 108.447 215.252 106.75C214.582 106.036 214.002 105.232 213.555 104.34C213.064 103.447 212.618 102.375 212.528 101.304C212.528 101.214 212.395 101.214 212.395 101.304C212.484 102.375 212.573 103.402 213.02 104.429C213.421 105.411 214.046 106.304 214.761 107.063C215.386 107.732 216.145 108.268 216.993 108.759Z" fill="#263238"/>
<path d="M228.779 115.189C228.779 115.189 231.502 111.26 233.288 112.242C235.074 113.225 233.065 118.894 230.967 119.698C228.868 120.501 228.109 118.582 228.109 118.582L228.779 115.189Z" fill="#AD6359"/>
<path d="M232.618 113.85C232.663 113.85 232.663 113.894 232.618 113.894C231.145 114.475 230.386 115.859 229.895 117.243C230.342 116.707 230.922 116.394 231.636 116.93C231.681 116.975 231.636 117.019 231.592 117.019C231.011 116.885 230.565 117.019 230.163 117.466C229.895 117.823 229.672 118.225 229.493 118.626C229.404 118.76 229.181 118.671 229.226 118.537V118.493C229.226 116.662 230.654 114.073 232.618 113.85Z" fill="#263238"/>
<path d="M229.181 119.386C229.181 119.877 229.582 120.279 230.074 120.279C230.565 120.279 230.966 119.877 230.966 119.386C230.966 118.895 230.565 118.493 230.074 118.493C229.627 118.493 229.181 118.895 229.181 119.386Z" fill="white"/>
<path d="M214.361 134.074C214.361 134.074 211.816 141.351 216.414 141.842C221.057 142.378 233.111 133.449 233.111 133.449C233.111 133.449 229.763 128.047 224.405 128.627C219.986 129.074 214.361 134.074 214.361 134.074Z" fill="#AD6359"/>
<path d="M236.191 142.556C236.191 151.529 231.057 178.405 226.102 182.021C216.191 189.253 192.976 188.762 186.592 188.896C183.824 188.941 180.208 170.548 182.262 168.405C184.315 166.307 212.619 165.503 214.048 164.431C215.075 163.673 223.021 150.592 227.664 142.199C233.87 130.815 236.191 138.047 236.191 142.556Z" fill="#AD6359"/>
<path d="M187.172 167.423C187.172 167.423 178.824 166.485 173.333 166.173C170.252 165.994 164.984 166.128 162.663 167.021C159.181 168.36 145.564 176.128 147.35 179.477C149.002 182.513 153.154 179.164 153.154 179.164C153.154 179.164 148.243 182.379 150.788 184.923C153.377 187.468 158.377 182.557 158.377 182.557C158.377 182.557 152.931 185.638 155.922 188.048C158.511 190.147 164.895 185.146 164.895 185.146C164.895 185.146 158.824 187.736 161.279 190.147C163.958 192.825 174.493 186.486 174.493 186.486C181.324 188.763 185.744 189.209 190.967 188.897C191.905 188.763 187.172 167.423 187.172 167.423Z" fill="#AD6359"/>
<path d="M156.859 183.584C157.261 183.227 157.707 182.87 158.109 182.513C158.913 181.798 159.716 181.084 160.609 180.459C161.457 179.879 162.35 179.298 163.243 178.763C164.181 178.182 165.207 177.736 166.145 177.155C166.234 177.111 166.279 177.2 166.19 177.245C165.252 177.78 164.359 178.495 163.511 179.12C162.663 179.745 161.77 180.37 160.922 181.039C160.073 181.664 159.225 182.245 158.377 182.825C157.931 183.138 157.529 183.45 157.127 183.763C156.725 184.075 156.368 184.432 155.922 184.656C155.877 184.7 155.832 184.611 155.877 184.566C156.145 184.209 156.502 183.897 156.859 183.584Z" fill="#263238"/>
<path d="M152.172 179.789C152.752 179.03 155.877 176.53 156.681 175.905C158.288 174.745 160.029 173.718 161.859 172.914C161.904 172.87 161.993 172.959 161.904 173.004C160.297 174.164 158.645 175.325 157.038 176.486C156.234 177.066 152.707 179.745 152.306 179.968C152.172 180.013 152.082 179.879 152.172 179.789Z" fill="#263238"/>
<path d="M161.19 187.29C161.77 186.62 164.717 184.254 165.52 183.718C166.279 183.227 169.628 181.486 170.654 181.174C170.699 181.174 170.788 181.263 170.699 181.263C169.047 182.245 167.395 183.183 165.833 184.254C165.074 184.745 162.083 186.977 161.279 187.424C161.235 187.424 161.145 187.334 161.19 187.29Z" fill="#263238"/>
<path d="M192.798 190.236L185.164 165.995C185.164 165.995 212.932 164.209 213.825 163.763C214.718 163.316 224.629 145.816 228.558 138.985C232.486 132.2 238.558 134.967 236.281 150.325C234.004 165.772 231.504 177.781 228.067 181.352C223.826 185.683 208.468 190.147 192.798 190.236Z" fill="#FF8000"/>
<path d="M216.057 174.835C215.968 174.166 216.013 173.496 216.102 172.871C216.191 172.201 216.325 171.576 216.593 170.951C216.682 171.621 216.638 172.29 216.549 172.915C216.459 173.585 216.325 174.21 216.057 174.835Z" fill="white"/>
<path d="M200.7 188.72C200.611 188.05 200.655 187.381 200.745 186.756C200.834 186.086 200.968 185.461 201.236 184.836C201.325 185.506 201.28 186.175 201.191 186.8C201.102 187.47 200.968 188.095 200.7 188.72Z" fill="white"/>
<path d="M224.495 153.495C224.406 152.826 224.45 152.156 224.54 151.531C224.629 150.861 224.763 150.236 225.031 149.611C225.12 150.281 225.075 150.951 224.986 151.576C224.897 152.245 224.763 152.87 224.495 153.495Z" fill="white"/>
<path d="M228.915 172.379C228.246 172.469 227.576 172.424 226.951 172.335C226.281 172.245 225.656 172.111 225.031 171.844C225.701 171.754 226.371 171.799 226.996 171.888C227.665 171.978 228.29 172.111 228.915 172.379Z" fill="white"/>
<path d="M202.263 173.139C201.593 173.228 200.924 173.184 200.299 173.094C199.629 173.005 199.004 172.871 198.379 172.603C199.049 172.514 199.718 172.559 200.343 172.648C200.968 172.782 201.638 172.871 202.263 173.139Z" fill="white"/>
<path d="M220.924 184.478C221.326 183.942 221.861 183.496 222.352 183.094C222.888 182.692 223.424 182.335 224.049 182.067C223.647 182.603 223.111 183.05 222.62 183.451C222.085 183.853 221.549 184.21 220.924 184.478Z" fill="white"/>
<path d="M188.914 170.058C189.316 169.523 189.852 169.076 190.343 168.675C190.878 168.273 191.414 167.916 192.039 167.648C191.637 168.183 191.102 168.63 190.611 169.032C190.075 169.433 189.539 169.791 188.914 170.058Z" fill="white"/>
<path d="M217.665 160.103C217.263 160.639 216.727 161.085 216.236 161.487C215.834 161.799 215.388 162.067 214.941 162.29C215.075 162.067 215.209 161.844 215.388 161.576C215.566 161.397 215.745 161.264 215.968 161.13C216.459 160.728 217.04 160.371 217.665 160.103Z" fill="white"/>
<path d="M236.549 148.183C236.549 148.361 236.504 148.54 236.504 148.763C236.147 148.986 235.79 149.209 235.344 149.388C235.701 148.897 236.103 148.54 236.549 148.183Z" fill="white"/>
<path d="M207.441 180.548C207.843 180.013 208.379 179.566 208.87 179.164C209.406 178.763 209.941 178.406 210.566 178.138C210.165 178.673 209.629 179.12 209.138 179.522C208.602 179.923 208.066 180.281 207.441 180.548Z" fill="white"/>
<path d="M206.95 165.192C207.486 165.594 207.932 166.13 208.334 166.621C208.736 167.157 209.093 167.692 209.361 168.317C208.825 167.916 208.379 167.38 207.977 166.889C207.575 166.353 207.218 165.817 206.95 165.192Z" fill="white"/>
<path d="M235.076 138.316C234.541 137.915 234.139 137.379 233.737 136.888C233.424 136.441 233.112 135.995 232.889 135.504C232.978 135.504 233.067 135.504 233.112 135.504C233.469 135.861 233.782 136.218 234.094 136.62C234.451 137.111 234.808 137.691 235.076 138.316Z" fill="white"/>
<path d="M229.228 160.281C229.763 160.683 230.21 161.219 230.611 161.71C231.013 162.246 231.37 162.781 231.638 163.406C231.103 163.005 230.656 162.469 230.254 161.978C229.808 161.487 229.451 160.951 229.228 160.281Z" fill="white"/>
<path d="M222.53 149.253C221.637 150.592 220.789 152.021 219.941 153.405C219.896 153.449 219.896 153.494 219.852 153.539C219.896 153.449 219.941 153.315 219.985 153.226C220.253 152.512 220.477 151.842 220.789 151.128C220.789 151.083 220.744 151.039 220.744 151.083C220.432 151.753 220.119 152.422 219.807 153.092C219.628 153.539 219.45 154.03 219.271 154.476C218.646 155.503 218.021 156.53 217.396 157.601C216.593 158.985 215.744 160.414 214.941 161.798C214.718 162.155 214.539 162.467 214.316 162.824C214.137 163.137 213.914 163.36 213.601 163.494C213.244 163.628 212.842 163.628 212.441 163.628C212.039 163.673 211.637 163.717 211.235 163.762C209.405 163.985 207.53 164.298 205.699 164.521C205.655 164.521 205.655 164.61 205.699 164.61C207.396 164.476 209.092 164.432 210.789 164.298C211.637 164.208 212.485 164.164 213.289 164.074C213.601 164.03 213.914 163.985 214.182 163.762C214.405 163.583 214.584 163.316 214.718 163.048C216.414 160.146 218.066 157.244 219.762 154.298C220.7 152.646 221.682 150.994 222.53 149.297C222.664 149.208 222.575 149.163 222.53 149.253Z" fill="#263238"/>
<path d="M236.325 155.726C236.281 156.262 236.057 156.842 235.923 157.378C235.789 157.869 235.656 158.316 235.522 158.807C235.343 159.342 235.164 159.878 234.986 160.414C235.343 158.048 235.656 155.682 235.879 153.271C235.879 153.182 235.745 153.182 235.745 153.271C235.298 156.619 234.673 159.923 234.004 163.226C233.289 166.53 232.441 169.789 231.504 173.003C231.013 174.611 230.521 176.173 229.986 177.736C229.495 179.075 228.959 180.414 228.021 181.53C227.039 182.736 225.7 183.495 224.316 184.164C222.843 184.834 221.325 185.459 219.762 185.95C216.235 187.111 212.619 187.825 209.003 188.718C208.959 188.718 208.959 188.807 209.003 188.807C212.307 188.316 215.566 187.736 218.78 186.843C220.387 186.396 222.039 185.905 223.602 185.236C225.03 184.655 226.504 183.986 227.664 182.914C228.736 181.887 229.495 180.593 230.075 179.209C230.655 177.736 231.147 176.218 231.638 174.7C232.664 171.396 233.513 168.093 234.227 164.7C234.45 163.717 234.629 162.735 234.763 161.753C235.164 160.816 235.477 159.833 235.745 158.851C235.879 158.36 236.013 157.824 236.102 157.289C236.191 156.753 236.236 156.217 236.37 155.726C236.414 155.682 236.325 155.682 236.325 155.726Z" fill="#263238"/>
<path d="M197.619 188.272C196.369 184.79 195.03 181.308 193.914 177.781C192.842 174.299 191.771 170.727 191.057 167.156C191.057 167.066 191.146 167.066 191.191 167.111C192.485 170.549 193.557 174.076 194.673 177.558C195.789 181.085 196.726 184.656 197.842 188.183C197.887 188.317 197.664 188.406 197.619 188.272Z" fill="#263238"/>
<path d="M192.932 165.414C192.262 165.369 191.593 165.414 190.923 165.414C190.253 165.414 189.584 165.459 188.914 165.503C187.575 165.548 186.235 165.637 184.941 165.771C184.851 165.771 184.762 165.861 184.807 165.994C184.985 166.441 185.164 166.977 185.476 167.378C185.476 167.423 185.566 167.378 185.521 167.378C185.476 166.977 185.343 166.53 185.164 166.128C186.414 166.039 187.709 165.95 188.959 165.861C189.628 165.816 190.298 165.771 190.968 165.727C191.593 165.682 192.262 165.637 192.932 165.548C193.021 165.503 192.977 165.414 192.932 165.414Z" fill="#263238"/>
<path d="M162.975 160.19C164.626 160.994 172.216 161.306 174.403 164.029C175.877 165.815 175.743 167.645 176.591 173.047C177.35 177.735 173.466 176.619 172.35 174.208C170.609 170.458 169.091 166.306 169.091 166.306C167.305 166.172 165.207 166.351 165.207 166.351L162.975 160.19Z" fill="#F7A9A0"/>
<path d="M168.421 177.914C171.055 176.262 179.404 186.843 175.252 189.655C171.055 192.423 165.43 179.789 168.421 177.914Z" fill="#F7A9A0"/>
<path d="M164.181 180.146C166.815 178.494 175.163 189.075 171.011 191.887C166.77 194.7 161.189 182.021 164.181 180.146Z" fill="#F7A9A0"/>
<path d="M161.145 180.594C163.779 179.433 169.895 190.237 165.699 192.201C161.502 194.121 158.198 181.888 161.145 180.594Z" fill="#F7A9A0"/>
<path d="M158.064 180.28C160.832 179.967 163.466 191.708 159.046 192.333C154.582 192.958 154.984 180.637 158.064 180.28Z" fill="#F7A9A0"/>
<path d="M167.797 181.574C168.288 182.065 168.69 182.69 169.092 183.271C169.538 183.896 169.94 184.521 170.342 185.19C170.699 185.815 171.056 186.485 171.324 187.155C171.636 187.869 171.815 188.628 172.127 189.342C172.172 189.432 172.038 189.476 171.994 189.387C171.726 188.717 171.279 188.048 170.922 187.378C170.565 186.753 170.208 186.083 169.851 185.414C169.493 184.789 169.181 184.119 168.779 183.494C168.422 182.869 167.976 182.244 167.663 181.574C167.708 181.574 167.752 181.53 167.797 181.574Z" fill="#263238"/>
<path d="M163.466 181.486C163.734 182.29 164.627 185.326 164.939 186.085C165.252 186.888 165.564 187.647 165.921 188.451C166.279 189.254 166.591 190.058 166.993 190.817C167.037 190.906 166.904 190.951 166.904 190.862C166.502 190.103 166.011 189.388 165.609 188.629C165.207 187.87 164.895 187.067 164.582 186.263C164.27 185.46 163.466 182.335 163.332 181.486C163.332 181.442 163.421 181.442 163.466 181.486Z" fill="#263238"/>
<path d="M160.163 182.244C160.386 183.36 160.52 184.521 160.743 185.637C160.833 186.217 160.967 186.753 161.056 187.333C161.1 187.601 161.145 187.869 161.19 188.137C161.234 188.449 161.234 188.806 161.368 189.074C161.413 189.164 161.279 189.208 161.234 189.074C161.19 188.762 161.011 188.405 160.922 188.092C160.833 187.824 160.788 187.556 160.699 187.288C160.565 186.753 160.431 186.172 160.342 185.637C160.163 184.521 159.984 183.404 159.984 182.288C160.029 182.199 160.163 182.154 160.163 182.244Z" fill="#263238"/>
<path d="M201.013 107.197C202.129 105.501 202.754 103.626 202.754 101.661C202.754 94.6075 195.031 88.9377 185.522 88.9377C176.012 88.9377 168.289 94.6521 168.289 101.661C168.289 108.67 176.012 114.385 185.522 114.385C190.12 114.385 194.316 113.045 197.397 110.858L203.334 112.376L201.013 107.197Z" fill="#FF8000"/>
<path d="M179.272 101.618C179.272 102.6 178.468 103.404 177.486 103.404C176.504 103.404 175.7 102.6 175.7 101.618C175.7 100.636 176.504 99.8323 177.486 99.8323C178.468 99.8323 179.272 100.636 179.272 101.618Z" fill="white"/>
<path d="M185.477 103.404C186.463 103.404 187.263 102.604 187.263 101.618C187.263 100.632 186.463 99.8323 185.477 99.8323C184.491 99.8323 183.691 100.632 183.691 101.618C183.691 102.604 184.491 103.404 185.477 103.404Z" fill="white"/>
<path d="M195.254 101.618C195.254 102.6 194.451 103.404 193.468 103.404C192.486 103.404 191.683 102.6 191.683 101.618C191.683 100.636 192.486 99.8323 193.468 99.8323C194.451 99.8323 195.254 100.636 195.254 101.618Z" fill="white"/>
<path d="M138.778 68.9819C137.796 77.3303 132.439 78.8482 131.546 81.0357C131.055 82.2411 130.43 85.2769 130.43 85.2769H121.724C121.724 85.2769 121.099 82.1964 120.608 81.0357C119.715 78.8035 114.358 77.2856 113.421 68.9373C112.796 63.4461 116.947 54.8298 126.144 54.8298C135.341 54.8745 139.403 63.4907 138.778 68.9819Z" fill="#FF8000"/>
<path d="M121.562 71.9666L121.123 72.0474L123.668 85.8781L124.107 85.7973L121.562 71.9666Z" fill="white"/>
<path d="M130.551 72.011L127.942 85.8291L128.381 85.9119L130.99 72.0938L130.551 72.011Z" fill="white"/>
<path d="M126.054 76.6157C125.385 76.6157 124.67 76.0799 124.135 75.0978C124.09 75.0531 124.09 75.0085 124.045 74.9638C123.822 75.2317 123.554 75.3656 123.286 75.3656C121.992 75.3656 121.456 72.687 121.456 72.5531L121.679 72.5084C121.679 72.5531 122.17 75.1424 123.286 75.1424C123.51 75.1424 123.688 75.0085 123.911 74.7406C123.376 73.6245 123.063 72.1066 123.465 71.437C123.599 71.2138 123.822 71.0798 124.045 71.0798C124.358 71.0798 124.626 71.2138 124.76 71.4816C125.161 72.1513 124.849 73.5799 124.358 74.4728C124.313 74.562 124.224 74.6513 124.179 74.7406C124.224 74.8299 124.269 74.8746 124.313 74.9638C124.626 75.4996 125.251 76.3924 126.054 76.3924C126.59 76.3924 127.126 75.9906 127.572 75.1871C127.617 75.1424 127.662 75.0531 127.662 75.0085C127.572 74.8746 127.438 74.7406 127.349 74.562C126.813 73.6245 126.724 72.2406 127.126 71.5263C127.304 71.2584 127.528 71.0798 127.84 71.0798C128.063 71.0798 128.242 71.2138 128.376 71.437C128.778 72.1066 128.554 73.7138 127.929 74.9638C128.153 75.1871 128.42 75.321 128.822 75.321C129.626 75.321 130.34 73.4013 130.519 72.687L130.742 72.7317C130.697 72.8656 129.938 75.5442 128.822 75.5442C128.465 75.5442 128.153 75.4103 127.84 75.1424C127.795 75.1871 127.795 75.2317 127.751 75.2763C127.438 75.9014 126.858 76.6157 126.054 76.6157ZM127.84 71.3477C127.617 71.3477 127.438 71.437 127.349 71.6602C126.992 72.2852 127.081 73.6245 127.572 74.4728C127.617 74.562 127.706 74.696 127.795 74.7853C128.331 73.6245 128.554 72.1513 128.197 71.5709C128.108 71.3923 128.019 71.3477 127.84 71.3477ZM124.09 71.3031C123.911 71.3031 123.778 71.3923 123.688 71.5263C123.376 72.062 123.599 73.3567 124.09 74.5174C124.135 74.4728 124.135 74.4281 124.179 74.3388C124.67 73.5352 124.938 72.1959 124.581 71.5709C124.492 71.437 124.313 71.3031 124.09 71.3031Z" fill="white"/>
<path d="M131.414 84.9334L120.655 84.908L120.65 87.0062L131.409 87.0316L131.414 84.9334Z" fill="#455A64"/>
<path d="M131.414 87.3894L120.655 87.364L120.65 89.4623L131.409 89.4877L131.414 87.3894Z" fill="#455A64"/>
<path d="M131.414 89.8005L120.655 89.7751L120.65 91.8734L131.409 91.8987L131.414 89.8005Z" fill="#455A64"/>
<path d="M126.502 48C126.681 48.5804 126.681 49.1607 126.681 49.7411C126.681 50.3215 126.636 50.9018 126.413 51.4822C126.234 50.9018 126.234 50.3215 126.234 49.7411C126.279 49.1607 126.324 48.5804 126.502 48Z" fill="#263238"/>
<path d="M116.769 50.3662C117.215 50.768 117.527 51.2591 117.795 51.7948C118.063 52.2859 118.331 52.8216 118.465 53.402C118.019 53.0002 117.706 52.5091 117.438 51.9734C117.17 51.4823 116.902 50.9912 116.769 50.3662Z" fill="#263238"/>
<path d="M109.537 57.2859C110.117 57.4198 110.653 57.6877 111.144 58.0002C111.635 58.3127 112.126 58.6252 112.528 59.0716C111.948 58.9377 111.412 58.6698 110.921 58.3573C110.43 58.0895 109.939 57.7323 109.537 57.2859Z" fill="#263238"/>
<path d="M106.725 66.9286C107.305 66.75 107.885 66.75 108.466 66.75C109.046 66.75 109.626 66.7946 110.207 67.0179C109.626 67.1964 109.046 67.1964 108.466 67.1964C107.885 67.1518 107.305 67.1072 106.725 66.9286Z" fill="#263238"/>
<path d="M109.09 76.6603C109.492 76.2139 109.983 75.9014 110.518 75.6335C111.01 75.3657 111.545 75.0978 112.126 74.9639C111.724 75.4103 111.233 75.7228 110.697 75.9907C110.206 76.3032 109.715 76.5264 109.09 76.6603Z" fill="#263238"/>
<path d="M142.618 77.4195C142.038 77.2856 141.502 77.0177 141.011 76.7052C140.52 76.3927 140.029 76.0802 139.627 75.6338C140.207 75.7677 140.743 76.0356 141.234 76.3481C141.725 76.616 142.216 76.9731 142.618 77.4195Z" fill="#263238"/>
<path d="M145.43 67.7767C144.85 67.9552 144.27 67.9552 143.689 67.9552C143.109 67.9552 142.529 67.9106 141.948 67.6874C142.529 67.5088 143.109 67.5088 143.689 67.5088C144.27 67.5534 144.85 67.5981 145.43 67.7767Z" fill="#263238"/>
<path d="M143.065 58.0449C142.663 58.4914 142.172 58.8039 141.636 59.0717C141.145 59.3396 140.61 59.6075 140.029 59.7414C140.431 59.2949 140.922 58.9824 141.458 58.7146C141.949 58.4021 142.485 58.1789 143.065 58.0449Z" fill="#263238"/>
<path d="M136.145 50.8123C136.011 51.3926 135.743 51.9283 135.431 52.4194C135.118 52.9105 134.806 53.4016 134.359 53.8034C134.493 53.223 134.761 52.6873 135.074 52.1962C135.342 51.7051 135.699 51.214 136.145 50.8123Z" fill="#263238"/>
<defs>
<filter id="filter0_d_2_60677" x="19.1797" y="88.0723" width="88.4385" height="66.1169" filterUnits="userSpaceOnUse" color-interpolation-filters="sRGB">
<feFlood flood-opacity="0" result="BackgroundImageFix"/>
<feColorMatrix in="SourceAlpha" type="matrix" values="0 0 0 0 0 0 0 0 0 0 0 0 0 0 0 0 0 0 127 0" result="hardAlpha"/>
<feOffset dy="4"/>
<feGaussianBlur stdDeviation="5"/>
<feComposite in2="hardAlpha" operator="out"/>
<feColorMatrix type="matrix" values="0 0 0 0 0 0 0 0 0 0 0 0 0 0 0 0 0 0 0.25 0"/>
<feBlend mode="normal" in2="BackgroundImageFix" result="effect1_dropShadow_2_60677"/>
<feBlend mode="normal" in="SourceGraphic" in2="effect1_dropShadow_2_60677" result="shape"/>
</filter>
</defs>
</svg>
