<svg width="1440" height="344" viewBox="0 0 1440 344" fill="none" xmlns="http://www.w3.org/2000/svg">
<mask id="mask0_2_60993" style="mask-type:alpha" maskUnits="userSpaceOnUse" x="0" y="0" width="1440" height="344">
<path d="M1440 0H0V344H1440V0Z" fill="white"/>
</mask>
<g mask="url(#mask0_2_60993)">
<path d="M1440 -187.551H-0.200195V532.549H1440V-187.551Z" fill="#15234A"/>
<g opacity="0.09">
<path opacity="0.5" fill-rule="evenodd" clip-rule="evenodd" d="M1493.89 359.033L1323.75 528.964L1153.62 359.033L1323.75 189.032L1493.89 359.033Z" fill="#E8EAEA" stroke="white" stroke-width="6" stroke-miterlimit="10"/>
<path opacity="0.5" fill-rule="evenodd" clip-rule="evenodd" d="M1234.84 77.5924L1182.24 130.194L1129.57 77.5924L1182.24 25.0605L1234.84 77.5924Z" fill="#DBDBDB" stroke="white" stroke-width="6" stroke-miterlimit="10"/>
<path opacity="0.5" fill-rule="evenodd" clip-rule="evenodd" d="M1413.43 8.77419L1313.43 108.64L1213.49 8.77419L1313.43 -91.0225L1413.43 8.77419Z" fill="#E8EAEA" stroke="white" stroke-width="6" stroke-miterlimit="10"/>
<path opacity="0.5" fill-rule="evenodd" clip-rule="evenodd" d="M983.546 -76.1222L877.235 30.1196L770.854 -76.1222L877.235 -182.364L983.546 -76.1222Z" fill="#DBDBDB" stroke="white" stroke-width="6" stroke-miterlimit="10"/>
<path opacity="0.6" fill-rule="evenodd" clip-rule="evenodd" d="M535.154 313.779L440.555 396.527L357.737 301.997L452.336 219.318L535.154 313.779Z" fill="#EDEDED"/>
<path opacity="0.6" fill-rule="evenodd" clip-rule="evenodd" d="M1158.54 -8.13564L1061.44 88.8889L964.279 -8.13564L1061.44 -105.16L1158.54 -8.13564Z" fill="white" stroke="white" stroke-width="6" stroke-miterlimit="10"/>
<path opacity="0.5" fill-rule="evenodd" clip-rule="evenodd" d="M170.272 361.042L73.8021 457.443L-22.7373 361.042L73.8021 264.711L170.272 361.042Z" fill="#DBDBDB" stroke="white" stroke-width="6" stroke-miterlimit="10"/>
<path opacity="0.5" fill-rule="evenodd" clip-rule="evenodd" d="M322.74 -66.9049L137.215 123.956L-67.5762 -48.886L117.949 -239.678L322.74 -66.9049Z" fill="#E8EAEA" stroke="white" stroke-width="6" stroke-miterlimit="10"/>
<path opacity="0.6" fill-rule="evenodd" clip-rule="evenodd" d="M941.825 317.727L880.769 378.783L819.644 317.727L880.769 256.671L941.825 317.727Z" fill="white" stroke="white" stroke-width="6" stroke-miterlimit="10"/>
<path opacity="0.5" fill-rule="evenodd" clip-rule="evenodd" d="M1135.04 406.09L1017.92 523.143L900.729 406.09L1017.92 289.106L1135.04 406.09Z" fill="#DBDBDB" stroke="white" stroke-width="6" stroke-miterlimit="10"/>
<path opacity="0.5" fill-rule="evenodd" clip-rule="evenodd" d="M321.007 212.387L203.884 329.44L86.7617 212.387L203.884 95.4033L321.007 212.387Z" fill="#DBDBDB" stroke="white" stroke-width="6" stroke-miterlimit="10"/>
<path opacity="0.6" fill-rule="evenodd" clip-rule="evenodd" d="M1565 202.268L1469.64 297.56L1374.21 202.268L1469.64 106.977L1565 202.268Z" fill="white" stroke="white" stroke-width="6" stroke-miterlimit="10"/>
<path opacity="0.6" fill-rule="evenodd" clip-rule="evenodd" d="M536.609 34.0004L444.228 126.243L351.916 34.0004L444.228 -58.2422L536.609 34.0004Z" fill="white" stroke="white" stroke-width="6" stroke-miterlimit="10"/>
<path opacity="0.6" fill-rule="evenodd" clip-rule="evenodd" d="M1334.57 155.281L1312.18 177.666L1289.8 155.281L1312.18 132.896L1334.57 155.281Z" fill="white" stroke="white" stroke-width="6" stroke-miterlimit="10"/>
</g>
</g>
</svg>
